<svg width="35" height="36" viewBox="0 0 35 36" fill="none" xmlns="http://www.w3.org/2000/svg">
<g clip-path="url(#clip0_1638_9705)">
<path d="M34.998 18V23.6343C34.998 24.7771 34.998 25.92 34.8651 27.0629C34.7885 28.156 34.6104 29.2391 34.3334 30.2971C34.159 30.9393 33.9176 31.5601 33.6135 32.1486C32.9686 33.3622 31.9463 34.3163 30.7116 34.8571C29.9828 35.1827 29.2213 35.4242 28.441 35.5771C27.7826 35.7131 27.1168 35.8085 26.4474 35.8629C25.5281 35.9429 24.6088 36 23.6784 36C19.547 36 15.4268 36 11.2844 36C10.5755 36 9.85559 36 9.14673 35.9086C8.68154 35.9086 8.20527 35.8286 7.74009 35.7714C6.57189 35.6463 5.42693 35.35 4.33977 34.8914C3.58099 34.5599 2.89528 34.0729 2.32415 33.46C1.75302 32.8471 1.30832 32.1211 1.01698 31.3257C0.724105 30.5591 0.512432 29.7621 0.385656 28.9486C0.200334 27.815 0.0929988 26.6692 0.0644531 25.52C0.0644531 24.8 0.0644531 24.1029 0.0644531 23.3943V12.5714C0.0644531 11.7486 0.0644531 10.9371 0.0644531 10.1143C0.102643 8.80698 0.258374 7.50616 0.529643 6.22857C0.698018 5.43726 0.95834 4.6698 1.30496 3.94286C1.95026 2.69129 2.98936 1.70376 4.25116 1.14286C4.99 0.818217 5.76323 0.584233 6.55496 0.445714C7.20997 0.311322 7.87193 0.215927 8.53755 0.16C9.09135 0.102857 9.64515 0.0685714 10.21 0.0457143C12.1815 0 14.2417 0 16.2575 0H23.6451C24.3651 0 25.1072 0 25.8603 0.0914286C26.6135 0.182857 27.1119 0.205714 27.7322 0.297143C28.7321 0.442343 29.7083 0.726842 30.6341 1.14286C31.3886 1.46927 32.0717 1.94918 32.6426 2.55395C33.2135 3.15872 33.6605 3.87595 33.9569 4.66286C34.2658 5.46976 34.4887 6.309 34.6214 7.16571C34.7836 8.14816 34.8798 9.14101 34.9094 10.1371C34.9094 10.9714 34.9648 11.8057 34.9648 12.64C34.9648 14.4457 34.9648 16.2286 34.9648 18.0229L34.998 18ZM19.4584 15.0514V12.4571C19.457 12.2767 19.4385 12.0968 19.4031 11.92C19.3795 11.7869 19.3109 11.6667 19.2094 11.5809C19.108 11.4951 18.9804 11.4492 18.8493 11.4514H14.7179C14.6058 11.4447 14.4942 11.4727 14.3976 11.5317C14.3009 11.5908 14.2235 11.6782 14.1752 11.7829C14.1183 11.8772 14.0881 11.986 14.0881 12.0971C14.0881 12.2083 14.1183 12.3171 14.1752 12.4114C14.2502 12.523 14.3316 12.6298 14.4189 12.7314C14.8404 13.2452 15.0685 13.8984 15.0613 14.5714C15.0613 15.9429 15.0613 17.3029 15.0613 18.6743C15.058 18.8523 15.0319 19.029 14.9838 19.2C14.9638 19.2774 14.9189 19.3456 14.8566 19.3933C14.7942 19.441 14.718 19.4656 14.6404 19.4629C14.5057 19.4724 14.3721 19.4319 14.2638 19.3486C14.0767 19.2048 13.8991 19.0483 13.7322 18.88C13.3104 18.4041 12.9391 17.883 12.6246 17.3257C11.7164 15.8071 10.9735 14.1897 10.4094 12.5029C10.3443 12.3055 10.2628 12.1143 10.1657 11.9314C10.1117 11.8005 10.0265 11.6858 9.91807 11.5979C9.80965 11.51 9.6815 11.4518 9.54546 11.4286H9.25749H6.51066L6.18945 11.5086C6.10485 11.5408 6.0303 11.596 5.97374 11.6685C5.91717 11.7409 5.88072 11.8279 5.86825 11.92C5.84615 12.037 5.84615 12.1573 5.86825 12.2743C5.86825 12.5486 5.95686 12.8114 6.02331 13.0743C6.29974 14.11 6.67059 15.1164 7.13091 16.08C7.93062 17.8174 8.87956 19.4773 9.96635 21.04C10.7221 22.1359 11.6461 23.0971 12.7021 23.8857C13.9238 24.8297 15.3631 25.4285 16.8777 25.6229C17.4292 25.6972 17.9877 25.6972 18.5391 25.6229C18.7149 25.5922 18.8861 25.5385 19.0486 25.4629C19.1492 25.4196 19.2363 25.3488 19.3008 25.2582C19.3652 25.1676 19.4044 25.0605 19.4141 24.9486C19.4141 24.8343 19.4141 24.7086 19.4141 24.5943V22.2286C19.4032 22.0764 19.4032 21.9236 19.4141 21.7714C19.4301 21.6828 19.473 21.6016 19.5368 21.54C19.6006 21.4783 19.6818 21.4393 19.7686 21.4286C19.9254 21.3929 20.088 21.3929 20.2448 21.4286C20.5271 21.465 20.7989 21.5624 21.0423 21.7143C21.53 22.0458 21.9828 22.4288 22.3936 22.8571C22.9695 23.4057 23.5012 24 24.0107 24.5943C24.2211 24.8343 24.4537 25.0743 24.6863 25.3029C24.817 25.438 24.9724 25.545 25.1435 25.6176C25.3147 25.6902 25.4981 25.7269 25.6831 25.7257H28.2084C28.4135 25.7335 28.6177 25.6944 28.8065 25.6114C28.9133 25.5623 29.0037 25.482 29.0667 25.3805C29.1297 25.2789 29.1624 25.1606 29.161 25.04C29.1667 24.8481 29.1328 24.6572 29.0613 24.48C28.9383 24.1652 28.7744 23.8691 28.5739 23.6C27.9223 22.6625 27.2041 21.7763 26.4252 20.9486C26.1483 20.64 25.8382 20.3657 25.5613 20.0571C25.3907 19.8695 25.2316 19.671 25.085 19.4629C25.0101 19.3544 24.9699 19.2246 24.9699 19.0914C24.9699 18.9583 25.0101 18.8284 25.085 18.72L25.3176 18.3314C26.0043 17.3143 26.6578 16.3086 27.2891 15.2571C27.7037 14.5866 28.0737 13.8879 28.3967 13.1657C28.5353 12.8851 28.6324 12.5846 28.6847 12.2743C28.7143 12.1922 28.7248 12.1042 28.7155 12.0172C28.7061 11.9302 28.6771 11.8467 28.6308 11.7733C28.5845 11.7 28.5221 11.6388 28.4488 11.5949C28.3754 11.5509 28.2931 11.5252 28.2084 11.52C28.0979 11.5088 27.9867 11.5088 27.8762 11.52H25.1293C24.996 11.5222 24.8647 11.554 24.7443 11.6131C24.6239 11.6723 24.5172 11.7575 24.4315 11.8629C24.3303 11.9949 24.2413 12.1365 24.1657 12.2857C23.9553 12.7314 23.767 13.1886 23.5565 13.6343C22.9979 14.8441 22.3225 15.9927 21.5407 17.0629C21.2212 17.4918 20.8489 17.876 20.4331 18.2057C20.3079 18.3019 20.1699 18.3789 20.0233 18.4343C19.7464 18.5371 19.5803 18.4343 19.4806 18.1486C19.4361 18.0084 19.4137 17.8618 19.4141 17.7143C19.4141 16.8571 19.4141 16.0114 19.4141 15.1429" fill="#32599E"/>
</g>
<defs>
<clipPath id="clip0_1638_9705">
<rect width="35" height="36" fill="white"/>
</clipPath>
</defs>
</svg>
