<svg width="37" height="36" viewBox="0 0 37 36" fill="none" xmlns="http://www.w3.org/2000/svg">
<g clip-path="url(#clip0_1638_9699)">
<path d="M37 5.35954V30.6519C37 30.6519 36.9415 30.7203 36.9415 30.7659C36.7806 31.759 36.3696 32.6976 35.7455 33.4977C35.1214 34.2977 34.3036 34.9342 33.3654 35.35C32.7614 35.594 32.1405 35.796 31.5072 35.9544H24.2031C24.2031 35.8062 24.2031 35.6579 24.2031 35.4983V22.3732H30.3853V16.3979H24.2849C24.2849 15.44 24.2264 14.5049 24.2849 13.5927C24.298 13.4186 24.3468 13.2489 24.4286 13.0936C24.5103 12.9384 24.6233 12.8008 24.7607 12.689C24.8981 12.5773 25.0572 12.4937 25.2284 12.4432C25.3997 12.3928 25.5796 12.3765 25.7574 12.3953H30.4321V6.43144H30.2451C28.6557 6.43144 27.0897 6.43144 25.512 6.43144C24.9583 6.43144 24.4074 6.50823 23.8758 6.65951C22.507 7.07522 21.2903 7.86775 20.3719 8.94189C19.4535 10.016 18.8724 11.3261 18.6987 12.7146C18.5675 13.8197 18.5129 14.9321 18.535 16.0444V16.4435H14.024V22.4074H18.5V36H5.5044C5.4521 35.9724 5.39733 35.9495 5.34079 35.9316C3.87381 35.6776 2.54149 34.9378 1.56855 33.8368C0.595616 32.7358 0.0416087 31.3411 -2.3406e-05 29.8879C-2.3406e-05 21.9626 -2.34069e-05 14.0602 -2.34069e-05 6.13496C-0.0117109 5.91464 -0.0117109 5.69389 -2.3406e-05 5.47357C0.210951 3.97919 0.961074 2.60717 2.11561 1.60395C3.27015 0.60072 4.75345 0.0320299 6.29909 1.91064e-05C14.4798 1.91064e-05 22.5319 1.91064e-05 30.6541 1.91064e-05C31.8393 -0.0234496 33.0064 0.286701 34.0157 0.893377C35.025 1.50005 35.8339 2.37757 36.3455 3.42099C36.6177 4.04079 36.8366 4.68157 37 5.33673" fill="#32599E"/>
</g>
<defs>
<clipPath id="clip0_1638_9699">
<rect width="37" height="36" fill="white"/>
</clipPath>
</defs>
</svg>
