<svg width="36" height="36" viewBox="0 0 36 36" fill="none" xmlns="http://www.w3.org/2000/svg">
<g clip-path="url(#clip0_1638_9693)">
<path d="M18.0047 36C15.2912 36 12.5662 36 9.86417 35.8273C8.00609 35.7892 6.19898 35.212 4.66212 34.1657C3.12527 33.1194 1.92475 31.649 1.20623 29.9328C0.742024 28.8734 0.450865 27.7461 0.343886 26.5941C-0.00601702 22.344 -0.102004 18.0767 0.056438 13.8151C0.0725916 12.1488 0.180067 10.4847 0.37838 8.83015C0.502256 7.17538 1.08281 5.58759 2.05529 4.24389C3.02777 2.90019 4.35394 1.85341 5.88589 1.2203C7.1993 0.670893 8.59363 0.340336 10.0136 0.241729C14.3024 -0.138187 18.5911 -3.57861e-05 22.8913 0.0575274C24.3347 0.065244 25.7756 0.17682 27.203 0.391394C29.6892 0.657309 31.9801 1.86392 33.6074 3.7646C34.543 4.90465 35.1863 6.25625 35.4815 7.70192C35.7932 9.21674 35.9435 10.7604 35.93 12.307C35.93 15.5305 36.0219 18.7656 35.999 22.0006C35.9767 23.7098 35.8577 25.4165 35.6425 27.1122C35.4791 29.0638 34.7091 30.9151 33.4408 32.406C32.1725 33.8968 30.4696 34.9524 28.5713 35.4243C26.9465 35.8207 25.2757 35.995 23.6042 35.9424C21.73 35.9424 19.8444 35.9424 17.9702 35.9424L18.0047 36ZM18.0047 3.93728V4.00636C16.0156 4.00636 14.0379 4.00636 12.0603 4.00636C10.5008 3.95639 8.94455 4.17844 7.4611 4.66258C6.74503 4.91162 6.0952 5.3211 5.56118 5.85979C5.02716 6.39849 4.62305 7.05217 4.37966 7.77099C4.01819 8.98377 3.85891 10.2479 3.90824 11.5126C3.82776 14.7476 3.78177 17.9712 3.80476 21.2062C3.74902 23.2381 3.89538 25.2705 4.24168 27.2734C4.41835 28.2266 4.87004 29.1071 5.54095 29.8062C6.64864 30.8785 8.10695 31.5124 9.64571 31.5906C10.9295 31.7173 12.2191 31.775 13.509 31.7633C17.3953 31.7633 21.2739 31.7441 25.1449 31.7058C26.2526 31.6796 27.3483 31.4695 28.3873 31.0841C29.2077 30.8409 29.9494 30.3848 30.537 29.7621C31.1246 29.1394 31.5373 28.3721 31.7332 27.5382C31.9789 26.5218 32.1329 25.4853 32.1931 24.4413C32.3886 20.6882 32.3886 16.9235 32.2736 13.1704C32.2851 11.6266 32.1542 10.0851 31.8827 8.56536C31.7316 7.73345 31.3731 6.95323 30.8405 6.29711C30.3078 5.64099 29.6182 5.13023 28.8357 4.81224C27.6784 4.34046 26.4405 4.09805 25.1909 4.09846C22.8108 4.09846 20.4423 4.00636 18.0737 3.97182" fill="#32599E"/>
<path d="M9.19955 18.6506C9.13479 16.7508 9.67454 14.8796 10.7409 13.307C11.8073 11.7343 13.3451 10.5416 15.1325 9.90098C16.6036 9.35584 18.2007 9.2479 19.7317 9.59014C21.2249 9.88351 22.6151 10.5643 23.7632 11.5643C24.9113 12.5644 25.7771 13.8487 26.274 15.2889C26.8909 16.8818 27.0033 18.6263 26.5959 20.2854C26.2915 21.7513 25.617 23.1146 24.6367 24.2453C23.6565 25.376 22.4032 26.2362 20.9964 26.744C19.6271 27.2862 18.1335 27.4337 16.6847 27.1699C15.1089 26.9394 13.6263 26.281 12.3979 25.2662C11.1695 24.2514 10.2423 22.9189 9.71696 21.4136C9.36617 20.5352 9.1904 19.5966 9.19955 18.6506ZM17.9955 13.2166C16.9757 13.1914 15.9717 13.4713 15.1116 14.0205C14.2516 14.5697 13.5747 15.3632 13.1674 16.2996C12.7601 17.236 12.641 18.2728 12.8253 19.2773C13.0096 20.2819 13.4889 21.2086 14.2019 21.9389C14.915 22.6693 15.8293 23.1701 16.8282 23.3774C17.827 23.5847 18.8648 23.4891 19.8091 23.1027C20.7533 22.7163 21.561 22.0567 22.1289 21.2083C22.6968 20.3598 22.999 19.3611 22.9971 18.3397C23.0031 17.6701 22.8768 17.0059 22.6255 16.3853C22.3741 15.7648 22.0026 15.2002 21.5323 14.724C21.0621 14.2478 20.5024 13.8695 19.8855 13.6108C19.2687 13.3521 18.6068 13.2181 17.938 13.2166" fill="#32599E"/>
<path d="M25.4796 9.54388C25.4796 9.00038 25.6952 8.47915 26.0791 8.09484C26.4629 7.71053 26.9835 7.49463 27.5263 7.49463C28.0691 7.49463 28.5896 7.71053 28.9734 8.09484C29.3573 8.47915 29.5729 9.00038 29.5729 9.54388C29.5729 10.0895 29.358 10.6131 28.9749 11.0011C28.5917 11.3891 28.0712 11.6101 27.5263 11.6162C27.2555 11.6162 26.9875 11.5624 26.7377 11.458C26.4879 11.3536 26.2612 11.2006 26.0709 11.0078C25.8805 10.8151 25.7303 10.5865 25.6288 10.3352C25.5273 10.0839 25.4766 9.81492 25.4796 9.54388Z" fill="#32599E"/>
</g>
<defs>
<clipPath id="clip0_1638_9693">
<rect width="36" height="36" fill="white"/>
</clipPath>
</defs>
</svg>
