<svg width="38" height="28" viewBox="0 0 38 28" fill="none" xmlns="http://www.w3.org/2000/svg">
<path d="M30.2924 1.99073C30.4705 1.99073 30.6163 2.13317 30.6163 2.30726V4.52298H35.4584C35.7369 4.52298 35.9636 4.74455 35.9636 5.01677V26.2845C35.9636 26.3161 35.9377 26.3415 35.9053 26.3415H2.33773C2.30534 26.3415 2.27943 26.3161 2.27943 26.2845V5.01677C2.27943 4.74455 2.50615 4.52298 2.7847 4.52298H7.13773V2.30726C7.13773 2.13317 7.28348 1.99073 7.46162 1.99073H9.79036C9.9685 1.99073 10.1143 2.13317 10.1143 2.30726V4.52298H27.6398V2.30726C27.6398 2.13317 27.7855 1.99073 27.9636 1.99073H30.2924ZM30.2924 0.724609H27.9636C27.0697 0.724609 26.3442 1.43364 26.3442 2.30726V3.25686H11.4098V2.30726C11.4098 1.43364 10.6843 0.724609 9.79036 0.724609H7.46162C6.56769 0.724609 5.84219 1.43364 5.84219 2.30726V3.25686H2.7847C1.79036 3.25686 0.983887 4.04502 0.983887 5.01677V26.2845C0.983887 27.0157 1.59279 27.6076 2.33773 27.6076H35.9053C36.6535 27.6076 37.2592 27.0125 37.2592 26.2845V5.01677C37.2592 4.04502 36.4527 3.25686 35.4584 3.25686H31.9118V2.30726C31.9118 1.43364 31.1863 0.724609 30.2924 0.724609Z" fill="#33A648"/>
<path d="M10.8817 11.2082H9.94567V12.123C9.94567 12.3984 9.71895 12.62 9.43717 12.62C9.15539 12.62 8.92867 12.3984 8.92867 12.123V11.2082H7.99263C7.71085 11.2082 7.48413 10.9867 7.48413 10.7113C7.48413 10.4359 7.71085 10.2143 7.99263 10.2143H8.92867V9.29956C8.92867 9.02418 9.15539 8.80261 9.43717 8.80261C9.71895 8.80261 9.94567 9.02418 9.94567 9.29956V10.2143H10.8817C11.1602 10.2207 11.3805 10.4422 11.3805 10.7113C11.3805 10.9803 11.157 11.2051 10.8817 11.2082ZM13.7578 8.48292V12.9397C13.7578 13.4683 13.5408 13.9747 13.1586 14.3482C12.7764 14.7217 12.2582 14.9307 11.7173 14.9338H7.15701C6.61612 14.9338 6.0979 14.7217 5.71571 14.3482C5.33352 13.9747 5.11976 13.4683 5.11652 12.9397V8.48292C5.11652 7.95431 5.33352 7.44786 5.71571 7.07435C6.0979 6.70085 6.61612 6.49193 7.15701 6.48877H11.7173C12.2582 6.48877 12.7764 6.70085 13.1586 7.07435C13.5408 7.44786 13.7546 7.95431 13.7578 8.48292ZM12.7376 8.48292C12.7376 8.22019 12.6307 7.9638 12.4396 7.77705C12.2485 7.5903 11.9894 7.48584 11.7206 7.48584H7.16024C6.89142 7.48584 6.63231 7.5903 6.44122 7.77705C6.25012 7.9638 6.14324 8.21703 6.14324 8.48292V12.9397C6.14324 13.2024 6.25012 13.4556 6.44122 13.6424C6.63231 13.8291 6.89142 13.9336 7.16024 13.9336H11.7206C11.9894 13.9336 12.2485 13.8291 12.4396 13.6424C12.6307 13.4556 12.7376 13.2024 12.7376 12.9365V8.47975V8.48292ZM20.5692 10.2143H17.6801C17.4015 10.2207 17.1813 10.4422 17.1813 10.7113C17.1813 10.9803 17.4048 11.2051 17.6801 11.2082H20.5692C20.8477 11.2019 21.0679 10.9803 21.0679 10.7113C21.0679 10.4422 20.8445 10.2175 20.5692 10.2143ZM30.2534 13.7025H27.3643C27.0857 13.7088 26.8655 13.9304 26.8655 14.1995C26.8655 14.4685 27.089 14.6933 27.3643 14.6964H30.2534C30.5319 14.6901 30.7521 14.4685 30.7521 14.1995C30.7521 13.9304 30.5287 13.7057 30.2534 13.7025ZM30.2534 16.1936H27.3643C27.0857 16.1999 26.8655 16.4215 26.8655 16.6906C26.8655 16.9596 27.089 17.1844 27.3643 17.1875H30.2534C30.5319 17.1812 30.7521 16.9596 30.7521 16.6906C30.7521 16.4215 30.5287 16.1968 30.2534 16.1936ZM23.442 8.48608V12.9428C23.442 13.4714 23.225 13.9779 22.8428 14.3514C22.4606 14.7249 21.9424 14.9338 21.4015 14.937H16.8412C16.3003 14.937 15.7821 14.7249 15.3999 14.3514C15.0177 13.9779 14.804 13.4714 14.8007 12.9428V8.48608C14.8007 7.95747 15.0177 7.45102 15.3999 7.07752C15.7821 6.70401 16.3003 6.4951 16.8412 6.49193H21.4015C21.9424 6.49193 22.4606 6.70401 22.8428 7.07752C23.225 7.45102 23.4388 7.95747 23.442 8.48608ZM22.4218 8.48608C22.4218 8.22336 22.3149 7.96697 22.1238 7.78022C21.9327 7.59346 21.6736 7.48901 21.4048 7.48901H16.8445C16.5756 7.48901 16.3165 7.59346 16.1254 7.78022C15.9343 7.96697 15.8275 8.22019 15.8275 8.48608V12.9428C15.8275 13.2056 15.9343 13.4588 16.1254 13.6455C16.3165 13.8323 16.5756 13.9367 16.8445 13.9367H21.4048C21.6736 13.9367 21.9327 13.8323 22.1238 13.6455C22.3149 13.4588 22.4218 13.2056 22.4218 12.9397V8.48292V8.48608ZM33.1262 8.48608V22.4071C33.1262 22.9357 32.9092 23.4422 32.527 23.8157C32.1449 24.1892 31.6266 24.3981 31.0858 24.4013H26.5254C25.9845 24.4013 25.4663 24.1892 25.0841 23.8157C24.7019 23.4422 24.4882 22.9357 24.4849 22.4071V8.48292C24.4849 7.95431 24.7019 7.44786 25.0841 7.07435C25.4663 6.70085 25.9845 6.49193 26.5254 6.48877H31.0858C31.6266 6.48877 32.1449 6.70085 32.527 7.07435C32.9092 7.44786 33.123 7.95431 33.1262 8.48292V8.48608ZM32.106 8.48608C32.106 8.22336 31.9991 7.96697 31.808 7.78022C31.6169 7.59346 31.3578 7.48901 31.089 7.48901H26.5287C26.2598 7.48901 26.0007 7.59346 25.8096 7.78022C25.6185 7.96697 25.5117 8.22019 25.5117 8.48608V22.4071C25.5117 22.6698 25.6185 22.9262 25.8096 23.113C26.0007 23.2997 26.2598 23.4042 26.5287 23.4042H31.089C31.3578 23.4042 31.6169 23.2997 31.808 23.113C31.9991 22.9262 32.106 22.673 32.106 22.4071V8.48292V8.48608ZM10.8169 18.8271C10.7198 18.7322 10.5902 18.6815 10.4574 18.6815C10.3246 18.6815 10.1918 18.7354 10.0979 18.8271L9.43717 19.4729L8.77644 18.8271C8.57887 18.6341 8.25498 18.6341 8.05417 18.8271C7.8566 19.0202 7.8566 19.3368 8.05417 19.533L8.7149 20.1787L8.05417 20.8245C7.8566 21.0175 7.8566 21.3341 8.05417 21.5303C8.25174 21.7234 8.57563 21.7234 8.77644 21.5303L9.43717 20.8846L10.0979 21.5303C10.2955 21.7234 10.6194 21.7234 10.8202 21.5303C11.0177 21.3372 11.0177 21.0207 10.8202 20.8245L10.1594 20.1787L10.8202 19.533C10.9173 19.4381 10.9692 19.3114 10.9692 19.1817C10.9692 19.0519 10.9141 18.9221 10.8202 18.8303L10.8169 18.8271ZM13.7546 17.9504V22.4071C13.7546 22.9357 13.5376 23.4422 13.1554 23.8157C12.7732 24.1892 12.255 24.3981 11.7141 24.4013H7.15377C6.61288 24.4013 6.09466 24.1892 5.71247 23.8157C5.33029 23.4422 5.11652 22.9357 5.11328 22.4071V17.9504C5.11328 17.4217 5.33029 16.9153 5.71247 16.5418C6.09466 16.1683 6.61288 15.9594 7.15377 15.9562H11.7141C12.255 15.9562 12.7732 16.1683 13.1554 16.5418C13.5376 16.9153 13.7513 17.4217 13.7546 17.9504ZM12.7343 17.9504C12.7343 17.6876 12.6275 17.4312 12.4364 17.2445C12.2453 17.0577 11.9862 16.9533 11.7173 16.9533H7.15701C6.88818 16.9533 6.62907 17.0577 6.43798 17.2445C6.24688 17.4312 6.14 17.6845 6.14 17.9504V22.4071C6.14 22.6698 6.24688 22.9262 6.43798 23.113C6.62907 23.2997 6.88818 23.4042 7.15701 23.4042H11.7173C11.9862 23.4042 12.2453 23.2997 12.4364 23.113C12.6275 22.9262 12.7343 22.673 12.7343 22.4071V17.9504ZM23.4388 17.9504V22.4071C23.4388 22.9357 23.2218 23.4422 22.8396 23.8157C22.4574 24.1892 21.9392 24.3981 21.3983 24.4013H16.838C16.2971 24.4013 15.7789 24.1892 15.3967 23.8157C15.0145 23.4422 14.8007 22.9357 14.7975 22.4071V17.9504C14.7975 17.4217 15.0145 16.9153 15.3967 16.5418C15.7789 16.1683 16.2971 15.9594 16.838 15.9562H21.3983C21.9392 15.9562 22.4574 16.1683 22.8396 16.5418C23.2218 16.9153 23.4355 17.4217 23.4388 17.9504ZM22.4185 17.9504C22.4185 17.6876 22.3117 17.4312 22.1206 17.2445C21.9295 17.0577 21.6704 16.9533 21.4015 16.9533H16.8412C16.5724 16.9533 16.3133 17.0577 16.1222 17.2445C15.9311 17.4312 15.8242 17.6845 15.8242 17.9504V22.4071C15.8242 22.6698 15.9311 22.9262 16.1222 23.113C16.3133 23.2997 16.5724 23.4042 16.8412 23.4042H21.4015C21.6704 23.4042 21.9295 23.2997 22.1206 23.113C22.3117 22.9262 22.4185 22.673 22.4185 22.4071V17.9504ZM19.1181 18.4125C18.8266 18.4157 18.5934 18.6499 18.5934 18.9348C18.5934 19.2196 18.8266 19.4539 19.1181 19.457C19.4096 19.4539 19.6428 19.2196 19.6428 18.9348C19.6428 18.6499 19.4096 18.4157 19.1181 18.4125ZM19.1181 20.9036C18.8266 20.9068 18.5934 21.141 18.5934 21.4259C18.5934 21.7107 18.8266 21.945 19.1181 21.9481C19.4096 21.945 19.6428 21.7107 19.6428 21.4259C19.6428 21.141 19.4096 20.9068 19.1181 20.9036Z" fill="#33A648"/>
</svg>
