<svg width="306" height="52" viewBox="0 0 306 52" fill="none" xmlns="http://www.w3.org/2000/svg">
<path d="M108.581 51.8702V42.2742H111.98C112.83 42.2742 113.484 42.4687 114.007 42.9225C114.53 43.3764 114.791 43.96 114.791 44.738C114.791 45.1919 114.661 45.5809 114.464 45.9699C114.268 46.359 113.941 46.6183 113.615 46.8128C114.138 46.9425 114.53 47.2667 114.791 47.6557C115.053 48.1096 115.183 48.5635 115.183 49.147C115.183 49.9899 114.857 50.7031 114.268 51.157C113.68 51.6108 112.961 51.8702 112.046 51.8702H108.581ZM109.954 46.2941H111.98C112.438 46.2941 112.765 46.1644 113.026 45.9051C113.288 45.6457 113.418 45.2567 113.418 44.8677C113.418 44.4138 113.288 44.0896 113.026 43.8303C112.765 43.5709 112.438 43.4413 111.98 43.4413H109.954V46.2941ZM109.954 50.7031H112.111C112.634 50.7031 113.026 50.5734 113.288 50.2492C113.615 49.925 113.745 49.536 113.745 49.0822C113.745 48.5634 113.615 48.1744 113.288 47.9151C112.961 47.5909 112.569 47.4612 112.111 47.4612H109.954V50.7031Z" fill="#32599E"/>
<path d="M116.621 51.8703L120.086 42.3391H121.524L124.989 51.8703H123.55L122.57 49.1471H118.974L117.994 51.8703H116.621ZM119.301 47.98H122.243L121.197 44.9326L120.805 43.571C120.674 44.1546 120.543 44.6084 120.413 44.9326L119.301 47.98Z" fill="#32599E"/>
<path d="M128.584 51.8702V43.4413H125.25V42.2742H133.225V43.4413H129.891V51.8702H128.584Z" fill="#32599E"/>
<path d="M137.671 51.8702V43.4413H134.337V42.2742H142.312V43.4413H138.978V51.8702H137.671Z" fill="#32599E"/>
<path d="M144.469 51.8702V42.2742H150.091V43.4413H145.842V46.4238H149.306V47.5909H145.842V50.6383H150.352V51.8053H144.469V51.8702Z" fill="#32599E"/>
<path d="M152.902 51.8702V42.2742H155.975C156.759 42.2742 157.413 42.339 157.74 42.5335C158.197 42.728 158.59 43.0522 158.851 43.5061C159.113 43.96 159.243 44.4787 159.243 45.0622C159.243 45.6457 159.113 46.2293 158.786 46.6831C158.459 47.137 158.067 47.526 157.544 47.6557C157.609 47.7206 157.74 47.9151 157.805 48.1096L159.832 51.8053H158.328L156.302 47.9799H154.21V51.8053H152.902V51.8702ZM154.21 46.8777H156.171C156.694 46.8777 157.086 46.748 157.413 46.4238C157.74 46.0996 157.871 45.6457 157.871 45.127C157.871 44.349 157.544 43.8951 156.955 43.6358C156.694 43.5061 156.302 43.4413 155.779 43.4413H154.21V46.8777Z" fill="#32599E"/>
<path d="M163.949 51.8703V47.8503L160.681 42.3391H162.184L163.949 45.4513L164.538 46.6833C164.734 46.2294 164.93 45.8404 165.126 45.4513L166.891 42.3391H168.394L165.126 47.8503V51.8703H163.949Z" fill="#32599E"/>
<path d="M173.494 50.7681L174.279 49.7307C174.605 50.0549 174.932 50.2494 175.39 50.4439C175.847 50.6384 176.24 50.7033 176.697 50.7033C177.22 50.7033 177.612 50.5736 177.939 50.3142C178.266 50.0549 178.397 49.7307 178.397 49.3417C178.397 48.9526 178.266 48.6285 177.939 48.3691C177.612 48.1098 177.22 47.8504 176.763 47.6559C176.305 47.4614 175.847 47.2669 175.39 47.0723C174.932 46.8778 174.54 46.5536 174.213 46.1646C173.886 45.7756 173.756 45.3217 173.756 44.7382C173.756 43.9601 174.082 43.3118 174.671 42.7931C175.259 42.2744 176.044 42.0798 176.959 42.0798C178.07 42.0798 178.985 42.404 179.639 43.0524L179.051 44.1546C178.789 43.8953 178.462 43.7008 178.07 43.5711C177.678 43.4414 177.286 43.3118 176.959 43.3118C176.436 43.3118 176.044 43.4414 175.717 43.7008C175.39 43.9601 175.194 44.2843 175.194 44.6733C175.194 44.9975 175.325 45.2569 175.521 45.5162C175.717 45.7756 176.044 45.9701 176.37 46.0998C176.697 46.2295 177.09 46.424 177.482 46.6185C177.874 46.813 178.266 47.0075 178.593 47.202C178.92 47.3965 179.247 47.6559 179.443 48.0449C179.639 48.4339 179.77 48.823 179.77 49.2768C179.77 50.0549 179.508 50.7033 178.92 51.222C178.397 51.7407 177.612 52 176.697 52C175.455 52 174.344 51.611 173.494 50.7681Z" fill="#32599E"/>
<path d="M181.73 47.0075C181.73 45.6459 182.188 44.4788 183.169 43.5063C184.084 42.5985 185.26 42.0798 186.699 42.0798C188.137 42.0798 189.313 42.5337 190.229 43.5063C191.144 44.414 191.667 45.5811 191.667 47.0075C191.667 48.4339 191.209 49.601 190.229 50.5736C189.313 51.5462 188.137 52 186.699 52C185.26 52 184.084 51.5462 183.169 50.5736C182.253 49.601 181.73 48.4339 181.73 47.0075ZM183.103 47.0075C183.103 48.1098 183.43 48.9527 184.084 49.7307C184.738 50.4439 185.587 50.8329 186.633 50.8329C187.679 50.8329 188.529 50.4439 189.183 49.7307C189.836 49.0175 190.163 48.1098 190.163 47.0075C190.163 45.9701 189.836 45.1272 189.183 44.414C188.529 43.7008 187.679 43.3766 186.633 43.3766C185.587 43.3766 184.738 43.7008 184.084 44.414C183.495 45.1272 183.103 45.9701 183.103 47.0075Z" fill="#32599E"/>
<path d="M194.281 51.8702V42.2742H195.654V50.7031H199.969V51.8702H194.281Z" fill="#32599E"/>
<path d="M201.734 48.4986V42.2742H203.107V48.4338C203.107 49.147 203.303 49.7305 203.761 50.1196C204.218 50.5086 204.807 50.7679 205.526 50.7679C206.245 50.7679 206.833 50.5734 207.291 50.1196C207.748 49.7305 207.945 49.147 207.945 48.3689V42.2742H209.317V48.4338C209.317 49.4712 208.991 50.3789 208.271 51.0273C207.552 51.6757 206.637 51.9999 205.526 51.9999C204.415 51.9999 203.499 51.6757 202.78 51.0273C202.061 50.3789 201.734 49.536 201.734 48.4986Z" fill="#32599E"/>
<path d="M214.678 51.8702V43.4413H211.344V42.2742H219.319V43.4413H215.985V51.8702H214.678Z" fill="#32599E"/>
<path d="M221.541 51.8702V42.2742H222.914V51.8053H221.541V51.8702Z" fill="#32599E"/>
<path d="M225.529 47.0075C225.529 45.6459 225.987 44.4788 226.967 43.5063C227.883 42.5985 229.059 42.0798 230.497 42.0798C231.936 42.0798 233.112 42.5337 234.027 43.5063C234.943 44.414 235.466 45.5811 235.466 47.0075C235.466 48.4339 235.008 49.601 234.027 50.5736C233.112 51.5462 231.936 52 230.497 52C229.059 52 227.883 51.5462 226.967 50.5736C225.987 49.601 225.529 48.4339 225.529 47.0075ZM226.902 47.0075C226.902 48.1098 227.229 48.9527 227.883 49.7307C228.536 50.4439 229.386 50.8329 230.432 50.8329C231.478 50.8329 232.328 50.4439 232.982 49.7307C233.635 49.0175 233.962 48.1098 233.962 47.0075C233.962 45.9701 233.635 45.1272 232.982 44.414C232.328 43.7008 231.478 43.3766 230.432 43.3766C229.386 43.3766 228.536 43.7008 227.883 44.414C227.229 45.1272 226.902 45.9701 226.902 47.0075Z" fill="#32599E"/>
<path d="M238.015 51.8702V42.2742H239.322L243.637 48.4986L244.421 49.925C244.356 49.3415 244.356 48.8876 244.356 48.4986V42.2742H245.663V51.8053H244.356L240.041 45.5809L239.257 44.1545C239.322 44.738 239.322 45.1919 239.322 45.5809V51.8053H238.015V51.8702Z" fill="#32599E"/>
<path d="M248.277 50.7681L249.062 49.7307C249.389 50.0549 249.716 50.2494 250.173 50.4439C250.631 50.6384 251.023 50.7033 251.481 50.7033C252.003 50.7033 252.396 50.5736 252.723 50.3142C253.049 50.0549 253.18 49.7307 253.18 49.3417C253.18 48.9526 253.049 48.6285 252.723 48.3691C252.396 48.1098 252.003 47.8504 251.546 47.6559C251.088 47.4614 250.631 47.2669 250.173 47.0723C249.716 46.8778 249.323 46.5536 248.996 46.1646C248.67 45.7756 248.539 45.3217 248.539 44.7382C248.539 43.9601 248.866 43.3118 249.454 42.7931C250.042 42.2744 250.827 42.0798 251.742 42.0798C252.853 42.0798 253.769 42.404 254.422 43.0524L253.834 44.1546C253.572 43.8953 253.246 43.7008 252.853 43.5711C252.461 43.4414 252.069 43.3118 251.742 43.3118C251.219 43.3118 250.827 43.4414 250.5 43.7008C250.173 43.9601 249.977 44.2843 249.977 44.6733C249.977 44.9975 250.108 45.2569 250.304 45.5162C250.5 45.7756 250.827 45.9701 251.154 46.0998C251.481 46.2295 251.873 46.424 252.265 46.6185C252.657 46.813 253.049 47.0075 253.376 47.202C253.703 47.3965 254.03 47.6559 254.226 48.0449C254.422 48.4339 254.553 48.823 254.553 49.2768C254.553 50.0549 254.291 50.7033 253.703 51.222C253.18 51.7407 252.396 52 251.481 52C250.173 52 249.127 51.611 248.277 50.7681Z" fill="#32599E"/>
<path fill-rule="evenodd" clip-rule="evenodd" d="M54.7806 23.7955C54.3884 22.5636 53.7347 21.4614 52.8195 20.5536C51.4467 19.192 49.4856 18.3491 47.3937 18.3491C45.6941 18.3491 44.0598 18.9327 42.7524 19.9052C42.1641 18.414 41.3796 16.9875 40.4644 15.6259C40.2683 15.3666 40.0068 15.0424 39.8107 14.7831C41.968 13.3566 44.5828 12.5137 47.3937 12.5137C51.1199 12.5137 54.5191 14.005 57.0032 16.4688C58.9643 18.414 60.3371 21.0075 60.7947 23.8604H54.7806V23.7955ZM26.1483 0C18.9575 0 12.4204 2.91771 7.64837 7.58604C2.94168 12.3192 0 18.803 0 25.9352C0 32.1596 2.2226 37.8005 5.88336 42.2743V25.9352C5.88336 20.3591 8.17133 15.3666 11.8321 11.7357C15.4928 8.10474 20.5918 5.83541 26.1483 5.83541H47.4591C53.081 5.83541 58.1145 8.10474 61.7753 11.7357C65.436 15.3666 67.724 20.424 67.724 25.9352C67.724 31.5112 65.436 36.5038 61.7753 40.1347C58.1145 43.7656 53.0156 46.0349 47.4591 46.0349H26.1483C23.4027 46.0349 20.7879 45.5162 18.4345 44.5437V42.015V40.8479V37.0225C20.5918 38.5137 23.272 39.4215 26.1483 39.4215C28.9592 39.4215 31.574 38.5786 33.7313 37.1521C32.62 35.7905 31.7048 34.2993 31.0511 32.6783C30.9857 32.4838 30.855 32.2893 30.7896 32.0299C29.4822 33.0025 27.9133 33.5212 26.1483 33.5212C23.991 33.5212 22.0953 32.6783 20.7225 31.3167C19.3497 29.9551 18.4999 28.01 18.4999 25.9352C18.4999 23.8604 19.3497 21.9152 20.7225 20.5536C22.0953 19.192 24.0564 18.3491 26.1483 18.3491C28.3055 18.3491 30.2012 19.192 31.574 20.5536C32.9468 21.9152 33.7966 23.8604 33.7966 25.9352C33.7966 29.6309 35.3002 33.0025 37.7842 35.4664C40.2683 37.9302 43.6676 39.4215 47.3937 39.4215C51.1199 39.4215 54.5191 37.9302 57.0032 35.4664C58.9643 33.5212 60.3371 30.9277 60.7947 28.0748H54.7806C54.3884 29.3067 53.7347 30.409 52.8195 31.3167C51.4467 32.6783 49.4856 33.5212 47.3937 33.5212C45.3019 33.5212 43.3408 32.6783 41.968 31.3167C40.5952 29.9551 39.7454 28.01 39.7454 25.9352C39.7454 22.2394 38.2418 18.8678 35.7578 16.404C33.2737 13.9402 29.8744 12.4489 26.1483 12.4489C22.4221 12.4489 19.0229 13.9402 16.5388 16.404C14.0547 18.8678 12.5512 22.2394 12.5512 25.9352V37.5412V40.8479V48.1097C16.5388 50.5088 21.1801 51.9352 26.1483 51.9352H47.4591C54.6499 51.9352 61.1869 49.0175 65.959 44.3491C70.6657 39.6808 73.6074 33.197 73.6074 26C73.6074 18.8678 70.6657 12.384 65.959 7.65088C61.2523 2.98255 54.7152 0.0648369 47.4591 0.0648369H26.1483V0Z" fill="#32599E"/>
<path fill-rule="evenodd" clip-rule="evenodd" d="M97.1403 14.4588C99.8205 14.4588 101.912 15.172 103.351 16.5336C104.789 17.8952 105.573 20.2294 105.573 23.4064C105.573 25.9999 104.919 28.0747 103.612 29.6309C102.305 31.187 100.474 31.965 98.1862 31.965C96.552 31.965 95.1138 31.6408 94.0025 31.0573V37.3466H89.2305V18.4139C89.2305 17.1171 89.9495 16.0797 91.4531 15.4314C92.8912 14.8478 94.787 14.4588 97.1403 14.4588ZM96.6827 28.0748C97.9901 28.0748 99.0361 27.6857 99.6244 26.9725C100.278 26.2593 100.605 24.9625 100.605 23.2767C100.605 21.7206 100.343 20.5535 99.7551 19.7106C99.1668 18.9326 98.2516 18.5436 96.8788 18.5436C94.9177 18.5436 93.9372 18.9326 93.9372 19.6458V27.4264C94.3294 27.6857 94.787 27.8154 95.2446 27.9451C95.7675 28.0099 96.2251 28.0748 96.6827 28.0748ZM116.425 32.0299C113.614 32.0299 111.522 31.3166 110.084 29.8254C108.711 28.3341 107.992 26.1296 107.992 23.2119C107.992 20.1645 108.711 17.96 110.084 16.5336C111.456 15.172 113.614 14.4588 116.425 14.4588C119.236 14.4588 121.393 15.172 122.831 16.5984C124.269 18.0249 124.988 20.2294 124.988 23.2119C124.988 26.0648 124.269 28.2693 122.766 29.7605C121.262 31.2518 119.17 32.0299 116.425 32.0299ZM116.425 28.1396C117.601 28.1396 118.517 27.7506 119.17 26.9077C119.759 26.0648 120.085 24.8329 120.085 23.2119C120.085 21.4613 119.759 20.1645 119.17 19.4513C118.582 18.6732 117.667 18.3491 116.425 18.3491C115.183 18.3491 114.267 18.7381 113.679 19.4513C113.091 20.2294 112.829 21.4613 112.829 23.2119C112.829 24.8977 113.091 26.1296 113.679 26.9077C114.333 27.6857 115.248 28.1396 116.425 28.1396ZM151.529 14.9775L145.972 31.5112H141.527L138.651 22.2393L135.905 31.5112H131.46L125.903 14.9775H131.133L134.075 25.4812L136.82 14.9775H140.416L143.292 25.7406L146.234 14.9775H151.529ZM160.811 14.4588C165.976 14.4588 168.59 17.8304 168.525 24.5087H157.543C157.935 26.778 159.504 27.9451 162.184 27.9451C162.969 27.9451 163.818 27.8154 164.537 27.6209C165.322 27.3615 166.172 27.1022 167.022 26.7132V30.8628C165.191 31.576 163.23 31.965 160.942 31.965C159.242 31.965 157.804 31.6408 156.497 30.9276C155.255 30.2144 154.209 29.2418 153.555 27.9451C152.836 26.6483 152.509 25.157 152.509 23.4064C152.509 20.5535 153.228 18.2842 154.667 16.7281C156.105 15.2368 158.131 14.4588 160.811 14.4588ZM160.615 18.1545C158.85 18.1545 157.804 19.2568 157.477 21.3964H163.622C163.492 20.2294 163.165 19.3865 162.707 18.8678C162.249 18.4139 161.53 18.1545 160.615 18.1545ZM171.924 16.7281C172.251 16.4688 172.84 16.1446 173.624 15.7555C174.474 15.4314 175.389 15.1072 176.37 14.8478C177.415 14.5885 178.396 14.4588 179.311 14.4588C181.142 14.4588 182.384 14.7181 183.103 15.3017V18.8678C182.253 18.6732 180.945 18.5436 179.311 18.5436C178.265 18.5436 177.415 18.6084 176.762 18.7381V31.5112H171.924V16.7281ZM193.235 31.965C191.601 31.965 190.163 31.6408 188.855 30.9925C187.548 30.3441 186.502 29.4363 185.718 28.1396C184.933 26.8428 184.541 25.2867 184.541 23.4713C184.541 20.5535 185.325 18.2842 186.894 16.7929C188.463 15.3017 190.555 14.5236 193.235 14.5236C194.15 14.5236 195.066 14.5885 196.046 14.783C196.961 14.9775 197.811 15.2368 198.53 15.561V19.7106C197.615 19.3216 196.831 18.9974 196.111 18.8029C195.392 18.6084 194.739 18.4787 194.02 18.4787C192.581 18.4787 191.47 18.8029 190.62 19.5161C189.836 20.2294 189.378 21.3316 189.378 22.8229C189.378 24.5087 189.771 25.7406 190.49 26.5186C191.274 27.2967 192.451 27.7506 194.216 27.7506C195.523 27.7506 196.961 27.2967 198.53 26.4538V30.6034C197.746 30.9925 196.896 31.3166 196.111 31.5112C195.196 31.8353 194.281 31.965 193.235 31.965ZM209.447 32.0299C206.636 32.0299 204.544 31.3166 203.106 29.8254C201.733 28.3341 201.014 26.1296 201.014 23.2119C201.014 20.1645 201.733 17.96 203.106 16.5336C204.479 15.172 206.636 14.4588 209.447 14.4588C212.258 14.4588 214.415 15.172 215.853 16.5984C217.292 18.0249 218.011 20.2294 218.011 23.2119C218.011 26.0648 217.292 28.2693 215.788 29.7605C214.285 31.2518 212.193 32.0299 209.447 32.0299ZM209.447 28.1396C210.624 28.1396 211.539 27.7506 212.193 26.9077C212.781 26.0648 213.108 24.8329 213.108 23.2119C213.108 21.4613 212.781 20.1645 212.193 19.4513C211.604 18.6732 210.689 18.3491 209.447 18.3491C208.205 18.3491 207.29 18.7381 206.702 19.4513C206.113 20.2294 205.852 21.4613 205.852 23.2119C205.852 24.8977 206.113 26.1296 206.702 26.9077C207.29 27.6857 208.205 28.1396 209.447 28.1396ZM221.345 16.4039C222.194 15.9501 223.502 15.4962 225.267 15.1072C227.032 14.7181 228.601 14.5236 229.973 14.5236C232.327 14.5236 234.092 14.9775 235.269 15.8852C236.445 16.7929 237.034 18.2842 237.034 20.359V31.4463H232.131V21.3316C232.131 19.4513 231.085 18.4787 228.928 18.4787C228.47 18.4787 227.947 18.5436 227.424 18.6732C226.901 18.8029 226.509 18.9326 226.247 19.0623V31.4463H221.345V16.4039ZM249.192 31.965C247.558 31.965 246.12 31.6408 244.813 30.9925C243.505 30.3441 242.459 29.4363 241.675 28.1396C240.89 26.8428 240.498 25.2867 240.498 23.4713C240.498 20.5535 241.283 18.2842 242.852 16.7929C244.42 15.3017 246.512 14.5236 249.192 14.5236C250.108 14.5236 251.023 14.5885 252.003 14.783C252.919 14.9775 253.768 15.2368 254.487 15.561V19.7106C253.572 19.3216 252.788 18.9974 252.069 18.8029C251.35 18.6084 250.696 18.4787 249.977 18.4787C248.539 18.4787 247.427 18.8029 246.578 19.5161C245.793 20.2294 245.336 21.3316 245.336 22.8229C245.336 24.5087 245.728 25.7406 246.447 26.5186C247.231 27.2967 248.408 27.7506 250.173 27.7506C251.48 27.7506 252.919 27.2967 254.487 26.4538V30.6034C253.703 30.9925 252.853 31.3166 252.069 31.5112C251.154 31.8353 250.238 31.965 249.192 31.965ZM265.274 14.4588C270.438 14.4588 273.053 17.8304 272.987 24.5087H262.005C262.397 26.778 263.966 27.9451 266.646 27.9451C267.431 27.9451 268.281 27.8154 269 27.6209C269.784 27.3615 270.634 27.1022 271.484 26.7132V30.8628C269.653 31.576 267.692 31.965 265.404 31.965C263.705 31.965 262.267 31.6408 260.959 30.9276C259.717 30.2144 258.671 29.2418 258.018 27.9451C257.298 26.6483 256.972 25.157 256.972 23.4064C256.972 20.5535 257.691 18.2842 259.129 16.7281C260.567 15.2368 262.593 14.4588 265.274 14.4588ZM265.078 18.1545C263.313 18.1545 262.267 19.2568 261.94 21.3964H268.085C267.954 20.2294 267.627 19.3865 267.169 18.8678C266.646 18.4139 265.993 18.1545 265.078 18.1545ZM284.297 14.4588C286.977 14.4588 289.069 15.172 290.507 16.5336C291.945 17.8952 292.729 20.2294 292.729 23.4064C292.729 25.9999 292.076 28.0747 290.768 29.6309C289.461 31.187 287.63 31.965 285.342 31.965C283.708 31.965 282.27 31.6408 281.159 31.0573V37.3466H276.387V18.4139C276.387 17.1171 277.106 16.0797 278.609 15.4314C280.047 14.8478 281.943 14.4588 284.297 14.4588ZM283.904 28.0748C285.212 28.0748 286.258 27.6857 286.846 26.9725C287.5 26.2593 287.827 24.9625 287.827 23.2767C287.827 21.7206 287.565 20.5535 286.977 19.7106C286.388 18.9326 285.473 18.5436 284.1 18.5436C282.139 18.5436 281.159 18.9326 281.159 19.6458V27.4264C281.551 27.6857 282.009 27.8154 282.466 27.9451C282.989 28.0099 283.447 28.0748 283.904 28.0748ZM302.927 32.1595C301.031 32.1595 299.593 31.7057 298.613 30.7979C297.632 29.8902 297.175 28.5934 297.175 26.9725V18.7381H294.756V15.0423H297.175V10.5037H302.273V15.0423H305.934V18.7381H302.273V26.389C302.273 26.9725 302.404 27.3615 302.666 27.6209C302.927 27.8802 303.319 28.0099 303.908 28.0099C304.235 28.0099 304.627 27.9451 305.019 27.8154C305.411 27.6857 305.738 27.556 306 27.2967V31.4463C305.15 31.965 304.169 32.1595 302.927 32.1595Z" fill="#32599E"/>
</svg>
