<svg width="306" height="52" viewBox="0 0 306 52" fill="none" xmlns="http://www.w3.org/2000/svg">
<path d="M108.581 51.8704V42.2744H111.98C112.83 42.2744 113.483 42.4689 114.006 42.9228C114.529 43.3767 114.791 43.9602 114.791 44.7383C114.791 45.1921 114.66 45.5811 114.464 45.9702C114.268 46.3592 113.941 46.6186 113.614 46.8131C114.137 46.9427 114.529 47.2669 114.791 47.656C115.052 48.1098 115.183 48.5637 115.183 49.1472C115.183 49.9901 114.856 50.7033 114.268 51.1572C113.679 51.6111 112.96 51.8704 112.045 51.8704H108.581V51.8704ZM109.953 46.2944H111.98C112.437 46.2944 112.764 46.1647 113.026 45.9053C113.287 45.646 113.418 45.257 113.418 44.8679C113.418 44.4141 113.287 44.0899 113.026 43.8305C112.764 43.5712 112.437 43.4415 111.98 43.4415H109.953V46.2944ZM109.953 50.7033H112.111C112.634 50.7033 113.026 50.5737 113.287 50.2495C113.614 49.9253 113.745 49.5363 113.745 49.0824C113.745 48.5637 113.614 48.1747 113.287 47.9153C112.96 47.5911 112.568 47.4614 112.111 47.4614H109.953V50.7033Z" fill="white"/>
<path d="M116.621 51.8705L120.086 42.3394H121.524L124.989 51.8705H123.55L122.57 49.1473H118.974L117.994 51.8705H116.621ZM119.301 47.9803H122.243L121.197 44.9329L120.805 43.5713C120.674 44.1548 120.543 44.6087 120.413 44.9329L119.301 47.9803Z" fill="white"/>
<path d="M128.584 51.8704V43.4415H125.25V42.2744H133.225V43.4415H129.891V51.8704H128.584Z" fill="white"/>
<path d="M137.671 51.8704V43.4415H134.337V42.2744H142.312V43.4415H138.978V51.8704H137.671Z" fill="white"/>
<path d="M144.469 51.8704V42.2744H150.091V43.4415H145.842V46.424H149.307V47.5911H145.842V50.6385H150.353V51.8056H144.469V51.8704Z" fill="white"/>
<path d="M152.902 51.8704V42.2744H155.974C156.759 42.2744 157.412 42.3392 157.739 42.5338C158.197 42.7283 158.589 43.0525 158.851 43.5063C159.112 43.9602 159.243 44.4789 159.243 45.0624C159.243 45.646 159.112 46.2295 158.785 46.6834C158.458 47.1373 158.066 47.5263 157.543 47.656C157.609 47.7208 157.739 47.9153 157.805 48.1098L159.831 51.8056H158.328L156.301 47.9802H154.209V51.8056H152.902V51.8704ZM154.209 46.8779H156.17C156.693 46.8779 157.086 46.7482 157.412 46.424C157.739 46.0998 157.87 45.646 157.87 45.1273C157.87 44.3492 157.543 43.8954 156.955 43.636C156.693 43.5063 156.301 43.4415 155.778 43.4415H154.209V46.8779V46.8779Z" fill="white"/>
<path d="M163.95 51.8705V47.8506L160.681 42.3394H162.185L163.95 45.4516L164.538 46.6835C164.734 46.2296 164.93 45.8406 165.126 45.4516L166.891 42.3394H168.395L165.126 47.8506V51.8705H163.95Z" fill="white"/>
<path d="M173.494 50.7679L174.278 49.7305C174.605 50.0547 174.932 50.2492 175.389 50.4437C175.847 50.6382 176.239 50.703 176.697 50.703C177.22 50.703 177.612 50.5733 177.939 50.314C178.266 50.0546 178.396 49.7305 178.396 49.3414C178.396 48.9524 178.266 48.6282 177.939 48.3689C177.612 48.1095 177.22 47.8502 176.762 47.6557C176.305 47.4611 175.847 47.2666 175.389 47.0721C174.932 46.8776 174.54 46.5534 174.213 46.1644C173.886 45.7754 173.755 45.3215 173.755 44.7379C173.755 43.9599 174.082 43.3115 174.67 42.7928C175.259 42.2741 176.043 42.0796 176.958 42.0796C178.07 42.0796 178.985 42.4038 179.638 43.0522L179.05 44.1544C178.789 43.895 178.462 43.7005 178.07 43.5709C177.677 43.4412 177.285 43.3115 176.958 43.3115C176.435 43.3115 176.043 43.4412 175.716 43.7005C175.389 43.9599 175.193 44.2841 175.193 44.6731C175.193 44.9973 175.324 45.2566 175.52 45.516C175.716 45.7754 176.043 45.9699 176.37 46.0995C176.697 46.2292 177.089 46.4237 177.481 46.6182C177.873 46.8128 178.266 47.0073 178.593 47.2018C178.919 47.3963 179.246 47.6556 179.442 48.0447C179.638 48.4337 179.769 48.8227 179.769 49.2766C179.769 50.0547 179.508 50.703 178.919 51.2217C178.396 51.7404 177.612 51.9998 176.697 51.9998C175.455 51.9998 174.343 51.6108 173.494 50.7679Z" fill="white"/>
<path d="M181.73 47.0073C181.73 45.6457 182.188 44.4786 183.169 43.506C184.084 42.5983 185.26 42.0796 186.699 42.0796C188.137 42.0796 189.313 42.5335 190.229 43.506C191.144 44.4138 191.667 45.5808 191.667 47.0073C191.667 48.4337 191.209 49.6008 190.229 50.5734C189.313 51.5459 188.137 51.9998 186.699 51.9998C185.26 51.9998 184.084 51.5459 183.169 50.5734C182.253 49.6008 181.73 48.4337 181.73 47.0073ZM183.103 47.0073C183.103 48.1095 183.43 48.9524 184.084 49.7305C184.738 50.4437 185.587 50.8327 186.633 50.8327C187.679 50.8327 188.529 50.4437 189.183 49.7305C189.836 49.0172 190.163 48.1095 190.163 47.0073C190.163 45.9699 189.836 45.127 189.183 44.4138C188.529 43.7005 187.679 43.3763 186.633 43.3763C185.587 43.3763 184.738 43.7005 184.084 44.4138C183.495 45.127 183.103 45.9699 183.103 47.0073Z" fill="white"/>
<path d="M194.281 51.8704V42.2744H195.654V50.7033H199.969V51.8704H194.281Z" fill="white"/>
<path d="M201.734 48.4989V42.2744H203.107V48.434C203.107 49.1472 203.303 49.7308 203.76 50.1198C204.218 50.5088 204.806 50.7682 205.525 50.7682C206.244 50.7682 206.833 50.5737 207.29 50.1198C207.748 49.7308 207.944 49.1472 207.944 48.3692V42.2744H209.317V48.434C209.317 49.4714 208.99 50.3792 208.271 51.0275C207.552 51.6759 206.637 52.0001 205.525 52.0001C204.414 52.0001 203.499 51.6759 202.78 51.0275C202.061 50.3792 201.734 49.5363 201.734 48.4989Z" fill="white"/>
<path d="M214.677 51.8704V43.4415H211.343V42.2744H219.318V43.4415H215.985V51.8704H214.677Z" fill="white"/>
<path d="M221.541 51.8704V42.2744H222.914V51.8056H221.541V51.8704Z" fill="white"/>
<path d="M225.529 47.0073C225.529 45.6457 225.986 44.4786 226.967 43.506C227.882 42.5983 229.059 42.0796 230.497 42.0796C231.935 42.0796 233.112 42.5335 234.027 43.506C234.942 44.4138 235.465 45.5808 235.465 47.0073C235.465 48.4337 235.008 49.6008 234.027 50.5734C233.112 51.5459 231.935 51.9998 230.497 51.9998C229.059 51.9998 227.882 51.5459 226.967 50.5734C225.986 49.6008 225.529 48.4337 225.529 47.0073ZM226.902 47.0073C226.902 48.1095 227.228 48.9524 227.882 49.7305C228.536 50.4437 229.386 50.8327 230.432 50.8327C231.478 50.8327 232.327 50.4437 232.981 49.7305C233.635 49.0172 233.962 48.1095 233.962 47.0073C233.962 45.9699 233.635 45.127 232.981 44.4138C232.327 43.7005 231.478 43.3763 230.432 43.3763C229.386 43.3763 228.536 43.7005 227.882 44.4138C227.228 45.127 226.902 45.9699 226.902 47.0073Z" fill="white"/>
<path d="M238.015 51.8704V42.2744H239.322L243.637 48.4989L244.421 49.9253C244.356 49.3417 244.356 48.8879 244.356 48.4989V42.2744H245.663V51.8056H244.356L240.041 45.5812L239.257 44.1547C239.322 44.7383 239.322 45.1921 239.322 45.5812V51.8056H238.015V51.8704Z" fill="white"/>
<path d="M248.278 50.7679L249.062 49.7305C249.389 50.0547 249.716 50.2492 250.174 50.4437C250.631 50.6382 251.023 50.703 251.481 50.703C252.004 50.703 252.396 50.5733 252.723 50.314C253.05 50.0546 253.181 49.7305 253.181 49.3414C253.181 48.9524 253.05 48.6282 252.723 48.3689C252.396 48.1095 252.004 47.8502 251.546 47.6557C251.089 47.4611 250.631 47.2666 250.174 47.0721C249.716 46.8776 249.324 46.5534 248.997 46.1644C248.67 45.7754 248.539 45.3215 248.539 44.7379C248.539 43.9599 248.866 43.3115 249.455 42.7928C250.043 42.2741 250.827 42.0796 251.742 42.0796C252.854 42.0796 253.769 42.4038 254.423 43.0522L253.834 44.1544C253.573 43.895 253.246 43.7005 252.854 43.5709C252.462 43.4412 252.069 43.3115 251.742 43.3115C251.22 43.3115 250.827 43.4412 250.5 43.7005C250.174 43.9599 249.977 44.2841 249.977 44.6731C249.977 44.9973 250.108 45.2566 250.304 45.516C250.5 45.7754 250.827 45.9699 251.154 46.0995C251.481 46.2292 251.873 46.4237 252.265 46.6182C252.658 46.8128 253.05 47.0073 253.377 47.2018C253.704 47.3963 254.03 47.6556 254.227 48.0447C254.423 48.4337 254.553 48.8227 254.553 49.2766C254.553 50.0547 254.292 50.703 253.704 51.2217C253.181 51.7404 252.396 51.9998 251.481 51.9998C250.174 51.9998 249.128 51.6108 248.278 50.7679Z" fill="white"/>
<path fill-rule="evenodd" clip-rule="evenodd" d="M54.7806 23.7955C54.3884 22.5636 53.7347 21.4614 52.8195 20.5536C51.4467 19.192 49.4856 18.3491 47.3937 18.3491C45.6941 18.3491 44.0598 18.9327 42.7524 19.9052C42.1641 18.414 41.3796 16.9875 40.4644 15.6259C40.2683 15.3666 40.0068 15.0424 39.8107 14.7831C41.968 13.3566 44.5828 12.5137 47.3937 12.5137C51.1199 12.5137 54.5191 14.005 57.0032 16.4688C58.9643 18.414 60.3371 21.0075 60.7947 23.8604H54.7806V23.7955ZM26.1483 0C18.9575 0 12.4204 2.91771 7.64837 7.58604C2.94168 12.3192 0 18.803 0 25.9352C0 32.1596 2.2226 37.8005 5.88336 42.2743V25.9352C5.88336 20.3591 8.17133 15.3666 11.8321 11.7357C15.4928 8.10474 20.5918 5.83541 26.1483 5.83541H47.4591C53.081 5.83541 58.1145 8.10474 61.7753 11.7357C65.436 15.3666 67.724 20.424 67.724 25.9352C67.724 31.5112 65.436 36.5038 61.7753 40.1347C58.1145 43.7656 53.0156 46.0349 47.4591 46.0349H26.1483C23.4027 46.0349 20.7879 45.5162 18.4345 44.5437V42.015V40.8479V37.0225C20.5918 38.5137 23.272 39.4215 26.1483 39.4215C28.9592 39.4215 31.574 38.5786 33.7313 37.1521C32.62 35.7905 31.7048 34.2993 31.0511 32.6783C30.9857 32.4838 30.855 32.2893 30.7896 32.0299C29.4822 33.0025 27.9133 33.5212 26.1483 33.5212C23.991 33.5212 22.0953 32.6783 20.7225 31.3167C19.3497 29.9551 18.4999 28.01 18.4999 25.9352C18.4999 23.8604 19.3497 21.9152 20.7225 20.5536C22.0953 19.192 24.0564 18.3491 26.1483 18.3491C28.3055 18.3491 30.2012 19.192 31.574 20.5536C32.9468 21.9152 33.7966 23.8604 33.7966 25.9352C33.7966 29.6309 35.3002 33.0025 37.7842 35.4664C40.2683 37.9302 43.6676 39.4215 47.3937 39.4215C51.1199 39.4215 54.5191 37.9302 57.0032 35.4664C58.9643 33.5212 60.3371 30.9277 60.7947 28.0748H54.7806C54.3884 29.3068 53.7347 30.409 52.8195 31.3167C51.4467 32.6783 49.4856 33.5212 47.3937 33.5212C45.3019 33.5212 43.3408 32.6783 41.968 31.3167C40.5952 29.9551 39.7454 28.01 39.7454 25.9352C39.7454 22.2394 38.2418 18.8678 35.7578 16.404C33.2737 13.9402 29.8744 12.4489 26.1483 12.4489C22.4221 12.4489 19.0229 13.9402 16.5388 16.404C14.0547 18.8678 12.5512 22.2394 12.5512 25.9352V37.5412V40.8479V48.1097C16.5388 50.5088 21.1801 51.9352 26.1483 51.9352H47.4591C54.6499 51.9352 61.1869 49.0175 65.959 44.3491C70.6657 39.6808 73.6074 33.197 73.6074 26C73.6074 18.8678 70.6657 12.384 65.959 7.65088C61.2523 2.98255 54.7152 0.0648369 47.4591 0.0648369H26.1483V0Z" fill="white"/>
<path fill-rule="evenodd" clip-rule="evenodd" d="M97.1408 14.459C99.821 14.459 101.913 15.1722 103.351 16.5338C104.789 17.8954 105.574 20.2296 105.574 23.4067C105.574 26.0002 104.92 28.075 103.613 29.6311C102.305 31.1872 100.475 31.9653 98.1867 31.9653C96.5525 31.9653 95.1143 31.6411 94.003 31.0575V37.3468H89.231V18.4141C89.231 17.1174 89.95 16.08 91.4536 15.4316C92.8917 14.8481 94.7875 14.459 97.1408 14.459ZM96.6832 28.075C97.9906 28.075 99.0366 27.686 99.6249 26.9727C100.279 26.2595 100.605 24.9628 100.605 23.277C100.605 21.7209 100.344 20.5538 99.7556 19.7109C99.1673 18.9328 98.2521 18.5438 96.8793 18.5438C94.9182 18.5438 93.9376 18.9328 93.9376 19.6461V27.4266C94.3299 27.686 94.7875 27.8156 95.2451 27.9453C95.768 28.0102 96.2256 28.075 96.6832 28.075ZM116.425 32.0301C113.614 32.0301 111.522 31.3169 110.084 29.8256C108.711 28.3343 107.992 26.1299 107.992 23.2121C107.992 20.1648 108.711 17.9603 110.084 16.5338C111.457 15.1722 113.614 14.459 116.425 14.459C119.236 14.459 121.393 15.1722 122.831 16.5987C124.27 18.0251 124.989 20.2296 124.989 23.2121C124.989 26.065 124.27 28.2695 122.766 29.7608C121.263 31.2521 119.171 32.0301 116.425 32.0301ZM116.425 28.1398C117.602 28.1398 118.517 27.7508 119.171 26.9079C119.759 26.065 120.086 24.8331 120.086 23.2121C120.086 21.4615 119.759 20.1648 119.171 19.4515C118.582 18.6735 117.667 18.3493 116.425 18.3493C115.183 18.3493 114.268 18.7383 113.68 19.4515C113.091 20.2296 112.83 21.4615 112.83 23.2121C112.83 24.8979 113.091 26.1299 113.68 26.9079C114.333 27.686 115.248 28.1398 116.425 28.1398ZM151.529 14.9777L145.973 31.5114H141.527L138.651 22.2396L135.906 31.5114H131.46L125.904 14.9777H131.134L134.075 25.4815L136.821 14.9777H140.416L143.292 25.7408L146.234 14.9777H151.529ZM160.812 14.459C165.976 14.459 168.591 17.8306 168.526 24.5089H157.543C157.936 26.7782 159.504 27.9453 162.185 27.9453C162.969 27.9453 163.819 27.8156 164.538 27.6211C165.322 27.3618 166.172 27.1024 167.022 26.7134V30.863C165.192 31.5762 163.231 31.9653 160.943 31.9653C159.243 31.9653 157.805 31.6411 156.497 30.9279C155.255 30.2146 154.209 29.2421 153.556 27.9453C152.837 26.6486 152.51 25.1573 152.51 23.4067C152.51 20.5538 153.229 18.2845 154.667 16.7284C156.105 15.2371 158.132 14.459 160.812 14.459ZM160.616 18.1548C158.851 18.1548 157.805 19.257 157.478 21.3967H163.623C163.492 20.2296 163.165 19.3867 162.708 18.868C162.25 18.4141 161.531 18.1548 160.616 18.1548ZM171.925 16.7284C172.252 16.469 172.84 16.1448 173.624 15.7558C174.474 15.4316 175.389 15.1074 176.37 14.848C177.416 14.5887 178.397 14.459 179.312 14.459C181.142 14.459 182.384 14.7184 183.103 15.3019V18.868C182.253 18.6735 180.946 18.5438 179.312 18.5438C178.266 18.5438 177.416 18.6086 176.762 18.7383V31.5114H171.925V16.7284ZM193.236 31.9653C191.601 31.9653 190.163 31.6411 188.856 30.9927C187.548 30.3443 186.503 29.4366 185.718 28.1398C184.934 26.8431 184.541 25.287 184.541 23.4715C184.541 20.5538 185.326 18.2845 186.895 16.7932C188.464 15.3019 190.555 14.5239 193.236 14.5239C194.151 14.5239 195.066 14.5887 196.047 14.7832C196.962 14.9777 197.812 15.2371 198.531 15.5613V19.7109C197.616 19.3219 196.831 18.9977 196.112 18.8032C195.393 18.6087 194.739 18.479 194.02 18.479C192.582 18.479 191.471 18.8032 190.621 19.5164C189.836 20.2296 189.379 21.3318 189.379 22.8231C189.379 24.5089 189.771 25.7408 190.49 26.5189C191.275 27.2969 192.451 27.7508 194.216 27.7508C195.524 27.7508 196.962 27.2969 198.531 26.454V30.6037C197.746 30.9927 196.896 31.3169 196.112 31.5114C195.197 31.8356 194.282 31.9653 193.236 31.9653ZM209.448 32.0301C206.637 32.0301 204.545 31.3169 203.107 29.8256C201.734 28.3343 201.015 26.1299 201.015 23.2121C201.015 20.1648 201.734 17.9603 203.107 16.5338C204.479 15.1722 206.637 14.459 209.448 14.459C212.259 14.459 214.416 15.1722 215.854 16.5987C217.292 18.0251 218.011 20.2296 218.011 23.2121C218.011 26.065 217.292 28.2695 215.789 29.7608C214.285 31.2521 212.193 32.0301 209.448 32.0301ZM209.448 28.1398C210.624 28.1398 211.539 27.7508 212.193 26.9079C212.782 26.065 213.108 24.8331 213.108 23.2121C213.108 21.4615 212.782 20.1648 212.193 19.4515C211.605 18.6735 210.69 18.3493 209.448 18.3493C208.206 18.3493 207.29 18.7383 206.702 19.4515C206.114 20.2296 205.852 21.4615 205.852 23.2121C205.852 24.8979 206.114 26.1299 206.702 26.9079C207.29 27.686 208.206 28.1398 209.448 28.1398ZM221.345 16.4042C222.195 15.9503 223.502 15.4964 225.267 15.1074C227.032 14.7184 228.601 14.5239 229.974 14.5239C232.327 14.5239 234.092 14.9777 235.269 15.8855C236.446 16.7932 237.034 18.2845 237.034 20.3593V31.4466H232.131V21.3318C232.131 19.4515 231.085 18.479 228.928 18.479C228.47 18.479 227.947 18.5438 227.425 18.6735C226.902 18.8032 226.509 18.9328 226.248 19.0625V31.4466H221.345V16.4042ZM249.193 31.9653C247.559 31.9653 246.121 31.6411 244.813 30.9927C243.506 30.3443 242.46 29.4366 241.675 28.1398C240.891 26.8431 240.499 25.287 240.499 23.4715C240.499 20.5538 241.283 18.2845 242.852 16.7932C244.421 15.3019 246.513 14.5239 249.193 14.5239C250.108 14.5239 251.023 14.5887 252.004 14.7832C252.919 14.9777 253.769 15.2371 254.488 15.5613V19.7109C253.573 19.3219 252.788 18.9977 252.069 18.8032C251.35 18.6087 250.696 18.479 249.977 18.479C248.539 18.479 247.428 18.8032 246.578 19.5164C245.794 20.2296 245.336 21.3318 245.336 22.8231C245.336 24.5089 245.728 25.7408 246.447 26.5189C247.232 27.2969 248.409 27.7508 250.174 27.7508C251.481 27.7508 252.919 27.2969 254.488 26.454V30.6037C253.704 30.9927 252.854 31.3169 252.069 31.5114C251.154 31.8356 250.239 31.9653 249.193 31.9653ZM265.274 14.459C270.438 14.459 273.053 17.8306 272.988 24.5089H262.006C262.398 26.7782 263.967 27.9453 266.647 27.9453C267.431 27.9453 268.281 27.8156 269 27.6211C269.785 27.3618 270.635 27.1024 271.484 26.7134V30.863C269.654 31.5762 267.693 31.9653 265.405 31.9653C263.705 31.9653 262.267 31.6411 260.96 30.9279C259.718 30.2146 258.672 29.2421 258.018 27.9453C257.299 26.6486 256.972 25.1573 256.972 23.4067C256.972 20.5538 257.691 18.2845 259.129 16.7284C260.567 15.2371 262.594 14.459 265.274 14.459ZM265.078 18.1548C263.313 18.1548 262.267 19.257 261.94 21.3967H268.085C267.954 20.2296 267.627 19.3867 267.17 18.868C266.647 18.4141 265.993 18.1548 265.078 18.1548ZM284.297 14.459C286.977 14.459 289.069 15.1722 290.507 16.5338C291.945 17.8954 292.73 20.2296 292.73 23.4067C292.73 26.0002 292.076 28.075 290.769 29.6311C289.461 31.1872 287.631 31.9653 285.343 31.9653C283.709 31.9653 282.271 31.6411 281.159 31.0575V37.3468H276.387V18.4141C276.387 17.1174 277.106 16.08 278.61 15.4316C280.048 14.8481 281.944 14.459 284.297 14.459ZM283.905 28.075C285.212 28.075 286.258 27.686 286.846 26.9727C287.5 26.2595 287.827 24.9628 287.827 23.277C287.827 21.7209 287.566 20.5538 286.977 19.7109C286.389 18.9328 285.474 18.5438 284.101 18.5438C282.14 18.5438 281.159 18.9328 281.159 19.6461V27.4266C281.551 27.686 282.009 27.8156 282.467 27.9453C282.99 28.0102 283.447 28.075 283.905 28.075ZM302.928 32.1598C301.032 32.1598 299.594 31.7059 298.613 30.7982C297.633 29.8905 297.175 28.5937 297.175 26.9727V18.7383H294.756V15.0426H297.175V10.5039H302.274V15.0426H305.935V18.7383H302.274V26.3892C302.274 26.9727 302.405 27.3618 302.666 27.6211C302.928 27.8805 303.32 28.0102 303.908 28.0102C304.235 28.0102 304.627 27.9453 305.02 27.8156C305.412 27.686 305.739 27.5563 306 27.2969V31.4466C305.15 31.9653 304.17 32.1598 302.928 32.1598Z" fill="white"/>
</svg>
