<svg width="306" height="52" viewBox="0 0 306 52" fill="none" xmlns="http://www.w3.org/2000/svg">
<path d="M108.581 51.8702V42.2742H111.98C112.83 42.2742 113.483 42.4687 114.006 42.9225C114.529 43.3764 114.791 43.96 114.791 44.738C114.791 45.1919 114.66 45.5809 114.464 45.9699C114.268 46.359 113.941 46.6183 113.614 46.8128C114.137 46.9425 114.529 47.2667 114.791 47.6557C115.052 48.1096 115.183 48.5635 115.183 49.147C115.183 49.9899 114.856 50.7031 114.268 51.157C113.679 51.6108 112.96 51.8702 112.045 51.8702H108.581ZM109.953 46.2941H111.98C112.437 46.2941 112.764 46.1644 113.026 45.9051C113.287 45.6457 113.418 45.2567 113.418 44.8677C113.418 44.4138 113.287 44.0896 113.026 43.8303C112.764 43.5709 112.437 43.4413 111.98 43.4413H109.953V46.2941ZM109.953 50.7031H112.111C112.634 50.7031 113.026 50.5734 113.287 50.2492C113.614 49.925 113.745 49.536 113.745 49.0822C113.745 48.5634 113.614 48.1744 113.287 47.9151C112.96 47.5909 112.568 47.4612 112.111 47.4612H109.953V50.7031Z" fill="#203569"/>
<path d="M116.621 51.8703L120.086 42.3391H121.524L124.989 51.8703H123.55L122.57 49.1471H118.974L117.994 51.8703H116.621ZM119.301 47.98H122.243L121.197 44.9326L120.805 43.571C120.674 44.1546 120.543 44.6084 120.413 44.9326L119.301 47.98Z" fill="#203569"/>
<path d="M128.584 51.8702V43.4413H125.25V42.2742H133.225V43.4413H129.891V51.8702H128.584Z" fill="#203569"/>
<path d="M137.671 51.8702V43.4413H134.337V42.2742H142.312V43.4413H138.978V51.8702H137.671Z" fill="#203569"/>
<path d="M144.469 51.8702V42.2742H150.091V43.4413H145.842V46.4238H149.307V47.5909H145.842V50.6383H150.353V51.8053H144.469V51.8702Z" fill="#203569"/>
<path d="M152.902 51.8702V42.2742H155.974C156.759 42.2742 157.412 42.339 157.739 42.5335C158.197 42.728 158.589 43.0522 158.851 43.5061C159.112 43.96 159.243 44.4787 159.243 45.0622C159.243 45.6457 159.112 46.2293 158.785 46.6831C158.458 47.137 158.066 47.526 157.543 47.6557C157.609 47.7206 157.739 47.9151 157.805 48.1096L159.831 51.8053H158.328L156.301 47.9799H154.209V51.8053H152.902V51.8702ZM154.209 46.8777H156.17C156.693 46.8777 157.086 46.748 157.412 46.4238C157.739 46.0996 157.87 45.6457 157.87 45.127C157.87 44.349 157.543 43.8951 156.955 43.6358C156.693 43.5061 156.301 43.4413 155.778 43.4413H154.209V46.8777Z" fill="#203569"/>
<path d="M163.95 51.8703V47.8503L160.681 42.3391H162.185L163.95 45.4513L164.538 46.6833C164.734 46.2294 164.93 45.8404 165.126 45.4513L166.891 42.3391H168.395L165.126 47.8503V51.8703H163.95Z" fill="#203569"/>
<path d="M173.494 50.7681L174.278 49.7307C174.605 50.0549 174.932 50.2494 175.389 50.4439C175.847 50.6384 176.239 50.7033 176.697 50.7033C177.22 50.7033 177.612 50.5736 177.939 50.3142C178.266 50.0549 178.396 49.7307 178.396 49.3417C178.396 48.9526 178.266 48.6285 177.939 48.3691C177.612 48.1098 177.22 47.8504 176.762 47.6559C176.305 47.4614 175.847 47.2669 175.389 47.0723C174.932 46.8778 174.54 46.5536 174.213 46.1646C173.886 45.7756 173.755 45.3217 173.755 44.7382C173.755 43.9601 174.082 43.3118 174.67 42.7931C175.259 42.2744 176.043 42.0798 176.958 42.0798C178.07 42.0798 178.985 42.404 179.638 43.0524L179.05 44.1546C178.789 43.8953 178.462 43.7008 178.07 43.5711C177.677 43.4414 177.285 43.3118 176.958 43.3118C176.435 43.3118 176.043 43.4414 175.716 43.7008C175.389 43.9601 175.193 44.2843 175.193 44.6733C175.193 44.9975 175.324 45.2569 175.52 45.5162C175.716 45.7756 176.043 45.9701 176.37 46.0998C176.697 46.2295 177.089 46.424 177.481 46.6185C177.873 46.813 178.266 47.0075 178.593 47.202C178.919 47.3965 179.246 47.6559 179.442 48.0449C179.638 48.4339 179.769 48.823 179.769 49.2768C179.769 50.0549 179.508 50.7033 178.919 51.222C178.396 51.7407 177.612 52 176.697 52C175.455 52 174.343 51.611 173.494 50.7681Z" fill="#203569"/>
<path d="M181.73 47.0075C181.73 45.6459 182.188 44.4788 183.169 43.5063C184.084 42.5985 185.26 42.0798 186.699 42.0798C188.137 42.0798 189.313 42.5337 190.229 43.5063C191.144 44.414 191.667 45.5811 191.667 47.0075C191.667 48.4339 191.209 49.601 190.229 50.5736C189.313 51.5462 188.137 52 186.699 52C185.26 52 184.084 51.5462 183.169 50.5736C182.253 49.601 181.73 48.4339 181.73 47.0075ZM183.103 47.0075C183.103 48.1098 183.43 48.9527 184.084 49.7307C184.738 50.4439 185.587 50.8329 186.633 50.8329C187.679 50.8329 188.529 50.4439 189.183 49.7307C189.836 49.0175 190.163 48.1098 190.163 47.0075C190.163 45.9701 189.836 45.1272 189.183 44.414C188.529 43.7008 187.679 43.3766 186.633 43.3766C185.587 43.3766 184.738 43.7008 184.084 44.414C183.495 45.1272 183.103 45.9701 183.103 47.0075Z" fill="#203569"/>
<path d="M194.281 51.8702V42.2742H195.654V50.7031H199.969V51.8702H194.281Z" fill="#203569"/>
<path d="M201.734 48.4986V42.2742H203.107V48.4338C203.107 49.147 203.303 49.7305 203.76 50.1196C204.218 50.5086 204.806 50.7679 205.525 50.7679C206.244 50.7679 206.833 50.5734 207.29 50.1196C207.748 49.7305 207.944 49.147 207.944 48.3689V42.2742H209.317V48.4338C209.317 49.4712 208.99 50.3789 208.271 51.0273C207.552 51.6757 206.637 51.9999 205.525 51.9999C204.414 51.9999 203.499 51.6757 202.78 51.0273C202.061 50.3789 201.734 49.536 201.734 48.4986Z" fill="#203569"/>
<path d="M214.677 51.8702V43.4413H211.343V42.2742H219.318V43.4413H215.985V51.8702H214.677Z" fill="#203569"/>
<path d="M221.541 51.8702V42.2742H222.914V51.8053H221.541V51.8702Z" fill="#203569"/>
<path d="M225.529 47.0075C225.529 45.6459 225.986 44.4788 226.967 43.5063C227.882 42.5985 229.059 42.0798 230.497 42.0798C231.935 42.0798 233.112 42.5337 234.027 43.5063C234.942 44.414 235.465 45.5811 235.465 47.0075C235.465 48.4339 235.008 49.601 234.027 50.5736C233.112 51.5462 231.935 52 230.497 52C229.059 52 227.882 51.5462 226.967 50.5736C225.986 49.601 225.529 48.4339 225.529 47.0075ZM226.902 47.0075C226.902 48.1098 227.228 48.9527 227.882 49.7307C228.536 50.4439 229.386 50.8329 230.432 50.8329C231.478 50.8329 232.327 50.4439 232.981 49.7307C233.635 49.0175 233.962 48.1098 233.962 47.0075C233.962 45.9701 233.635 45.1272 232.981 44.414C232.327 43.7008 231.478 43.3766 230.432 43.3766C229.386 43.3766 228.536 43.7008 227.882 44.414C227.228 45.1272 226.902 45.9701 226.902 47.0075Z" fill="#203569"/>
<path d="M238.015 51.8702V42.2742H239.322L243.637 48.4986L244.421 49.925C244.356 49.3415 244.356 48.8876 244.356 48.4986V42.2742H245.663V51.8053H244.356L240.041 45.5809L239.257 44.1545C239.322 44.738 239.322 45.1919 239.322 45.5809V51.8053H238.015V51.8702Z" fill="#203569"/>
<path d="M248.278 50.7681L249.062 49.7307C249.389 50.0549 249.716 50.2494 250.174 50.4439C250.631 50.6384 251.023 50.7033 251.481 50.7033C252.004 50.7033 252.396 50.5736 252.723 50.3142C253.05 50.0549 253.181 49.7307 253.181 49.3417C253.181 48.9526 253.05 48.6285 252.723 48.3691C252.396 48.1098 252.004 47.8504 251.546 47.6559C251.089 47.4614 250.631 47.2669 250.174 47.0723C249.716 46.8778 249.324 46.5536 248.997 46.1646C248.67 45.7756 248.539 45.3217 248.539 44.7382C248.539 43.9601 248.866 43.3118 249.455 42.7931C250.043 42.2744 250.827 42.0798 251.742 42.0798C252.854 42.0798 253.769 42.404 254.423 43.0524L253.834 44.1546C253.573 43.8953 253.246 43.7008 252.854 43.5711C252.462 43.4414 252.069 43.3118 251.742 43.3118C251.22 43.3118 250.827 43.4414 250.5 43.7008C250.174 43.9601 249.977 44.2843 249.977 44.6733C249.977 44.9975 250.108 45.2569 250.304 45.5162C250.5 45.7756 250.827 45.9701 251.154 46.0998C251.481 46.2295 251.873 46.424 252.265 46.6185C252.658 46.813 253.05 47.0075 253.377 47.202C253.704 47.3965 254.03 47.6559 254.227 48.0449C254.423 48.4339 254.553 48.823 254.553 49.2768C254.553 50.0549 254.292 50.7033 253.704 51.222C253.181 51.7407 252.396 52 251.481 52C250.174 52 249.128 51.611 248.278 50.7681Z" fill="#203569"/>
<path fill-rule="evenodd" clip-rule="evenodd" d="M54.7806 23.7955C54.3884 22.5636 53.7347 21.4614 52.8195 20.5536C51.4467 19.192 49.4856 18.3491 47.3937 18.3491C45.6941 18.3491 44.0598 18.9327 42.7524 19.9052C42.1641 18.414 41.3796 16.9875 40.4644 15.6259C40.2683 15.3666 40.0068 15.0424 39.8107 14.7831C41.968 13.3566 44.5828 12.5137 47.3937 12.5137C51.1199 12.5137 54.5191 14.005 57.0032 16.4688C58.9643 18.414 60.3371 21.0075 60.7947 23.8604H54.7806V23.7955ZM26.1483 0C18.9575 0 12.4204 2.91771 7.64837 7.58604C2.94168 12.3192 0 18.803 0 25.9352C0 32.1596 2.2226 37.8005 5.88336 42.2743V25.9352C5.88336 20.3591 8.17133 15.3666 11.8321 11.7357C15.4928 8.10474 20.5918 5.83541 26.1483 5.83541H47.4591C53.081 5.83541 58.1145 8.10474 61.7753 11.7357C65.436 15.3666 67.724 20.424 67.724 25.9352C67.724 31.5112 65.436 36.5038 61.7753 40.1347C58.1145 43.7656 53.0156 46.0349 47.4591 46.0349H26.1483C23.4027 46.0349 20.7879 45.5162 18.4345 44.5437V42.015V40.8479V37.0225C20.5918 38.5137 23.272 39.4215 26.1483 39.4215C28.9592 39.4215 31.574 38.5786 33.7313 37.1521C32.62 35.7905 31.7048 34.2993 31.0511 32.6783C30.9857 32.4838 30.855 32.2893 30.7896 32.0299C29.4822 33.0025 27.9133 33.5212 26.1483 33.5212C23.991 33.5212 22.0953 32.6783 20.7225 31.3167C19.3497 29.9551 18.4999 28.01 18.4999 25.9352C18.4999 23.8604 19.3497 21.9152 20.7225 20.5536C22.0953 19.192 24.0564 18.3491 26.1483 18.3491C28.3055 18.3491 30.2012 19.192 31.574 20.5536C32.9468 21.9152 33.7966 23.8604 33.7966 25.9352C33.7966 29.6309 35.3002 33.0025 37.7842 35.4664C40.2683 37.9302 43.6676 39.4215 47.3937 39.4215C51.1199 39.4215 54.5191 37.9302 57.0032 35.4664C58.9643 33.5212 60.3371 30.9277 60.7947 28.0748H54.7806C54.3884 29.3067 53.7347 30.409 52.8195 31.3167C51.4467 32.6783 49.4856 33.5212 47.3937 33.5212C45.3019 33.5212 43.3408 32.6783 41.968 31.3167C40.5952 29.9551 39.7454 28.01 39.7454 25.9352C39.7454 22.2394 38.2418 18.8678 35.7578 16.404C33.2737 13.9402 29.8744 12.4489 26.1483 12.4489C22.4221 12.4489 19.0229 13.9402 16.5388 16.404C14.0547 18.8678 12.5512 22.2394 12.5512 25.9352V37.5412V40.8479V48.1097C16.5388 50.5088 21.1801 51.9352 26.1483 51.9352H47.4591C54.6499 51.9352 61.1869 49.0175 65.959 44.3491C70.6657 39.6808 73.6074 33.197 73.6074 26C73.6074 18.8678 70.6657 12.384 65.959 7.65088C61.2523 2.98255 54.7152 0.0648369 47.4591 0.0648369H26.1483V0Z" fill="#203569"/>
<path fill-rule="evenodd" clip-rule="evenodd" d="M97.1408 14.4588C99.821 14.4588 101.913 15.172 103.351 16.5336C104.789 17.8952 105.574 20.2294 105.574 23.4064C105.574 25.9999 104.92 28.0747 103.613 29.6309C102.305 31.187 100.475 31.965 98.1867 31.965C96.5525 31.965 95.1143 31.6408 94.003 31.0573V37.3466H89.231V18.4139C89.231 17.1171 89.95 16.0797 91.4536 15.4314C92.8917 14.8478 94.7875 14.4588 97.1408 14.4588ZM96.6832 28.0748C97.9906 28.0748 99.0366 27.6857 99.6249 26.9725C100.279 26.2593 100.605 24.9625 100.605 23.2767C100.605 21.7206 100.344 20.5535 99.7556 19.7106C99.1673 18.9326 98.2521 18.5436 96.8793 18.5436C94.9182 18.5436 93.9376 18.9326 93.9376 19.6458V27.4264C94.3299 27.6857 94.7875 27.8154 95.2451 27.9451C95.768 28.0099 96.2256 28.0748 96.6832 28.0748ZM116.425 32.0299C113.614 32.0299 111.522 31.3166 110.084 29.8254C108.711 28.3341 107.992 26.1296 107.992 23.2119C107.992 20.1645 108.711 17.96 110.084 16.5336C111.457 15.172 113.614 14.4588 116.425 14.4588C119.236 14.4588 121.393 15.172 122.831 16.5984C124.27 18.0249 124.989 20.2294 124.989 23.2119C124.989 26.0648 124.27 28.2693 122.766 29.7605C121.263 31.2518 119.171 32.0299 116.425 32.0299ZM116.425 28.1396C117.602 28.1396 118.517 27.7506 119.171 26.9077C119.759 26.0648 120.086 24.8329 120.086 23.2119C120.086 21.4613 119.759 20.1645 119.171 19.4513C118.582 18.6732 117.667 18.3491 116.425 18.3491C115.183 18.3491 114.268 18.7381 113.68 19.4513C113.091 20.2294 112.83 21.4613 112.83 23.2119C112.83 24.8977 113.091 26.1296 113.68 26.9077C114.333 27.6857 115.248 28.1396 116.425 28.1396ZM151.529 14.9775L145.973 31.5112H141.527L138.651 22.2393L135.906 31.5112H131.46L125.904 14.9775H131.134L134.075 25.4812L136.821 14.9775H140.416L143.292 25.7406L146.234 14.9775H151.529ZM160.812 14.4588C165.976 14.4588 168.591 17.8304 168.526 24.5087H157.543C157.936 26.778 159.504 27.9451 162.185 27.9451C162.969 27.9451 163.819 27.8154 164.538 27.6209C165.322 27.3615 166.172 27.1022 167.022 26.7132V30.8628C165.192 31.576 163.231 31.965 160.943 31.965C159.243 31.965 157.805 31.6408 156.497 30.9276C155.255 30.2144 154.209 29.2418 153.556 27.9451C152.837 26.6483 152.51 25.157 152.51 23.4064C152.51 20.5535 153.229 18.2842 154.667 16.7281C156.105 15.2368 158.132 14.4588 160.812 14.4588ZM160.616 18.1545C158.851 18.1545 157.805 19.2568 157.478 21.3964H163.623C163.492 20.2294 163.165 19.3865 162.708 18.8678C162.25 18.4139 161.531 18.1545 160.616 18.1545ZM171.925 16.7281C172.252 16.4688 172.84 16.1446 173.624 15.7555C174.474 15.4314 175.389 15.1072 176.37 14.8478C177.416 14.5885 178.397 14.4588 179.312 14.4588C181.142 14.4588 182.384 14.7181 183.103 15.3017V18.8678C182.253 18.6732 180.946 18.5436 179.312 18.5436C178.266 18.5436 177.416 18.6084 176.762 18.7381V31.5112H171.925V16.7281ZM193.236 31.965C191.601 31.965 190.163 31.6408 188.856 30.9925C187.548 30.3441 186.503 29.4363 185.718 28.1396C184.934 26.8428 184.541 25.2867 184.541 23.4713C184.541 20.5535 185.326 18.2842 186.895 16.7929C188.464 15.3017 190.555 14.5236 193.236 14.5236C194.151 14.5236 195.066 14.5885 196.047 14.783C196.962 14.9775 197.812 15.2368 198.531 15.561V19.7106C197.616 19.3216 196.831 18.9974 196.112 18.8029C195.393 18.6084 194.739 18.4787 194.02 18.4787C192.582 18.4787 191.471 18.8029 190.621 19.5161C189.836 20.2294 189.379 21.3316 189.379 22.8229C189.379 24.5087 189.771 25.7406 190.49 26.5186C191.275 27.2967 192.451 27.7506 194.216 27.7506C195.524 27.7506 196.962 27.2967 198.531 26.4538V30.6034C197.746 30.9925 196.896 31.3166 196.112 31.5112C195.197 31.8353 194.282 31.965 193.236 31.965ZM209.448 32.0299C206.637 32.0299 204.545 31.3166 203.107 29.8254C201.734 28.3341 201.015 26.1296 201.015 23.2119C201.015 20.1645 201.734 17.96 203.107 16.5336C204.479 15.172 206.637 14.4588 209.448 14.4588C212.259 14.4588 214.416 15.172 215.854 16.5984C217.292 18.0249 218.011 20.2294 218.011 23.2119C218.011 26.0648 217.292 28.2693 215.789 29.7605C214.285 31.2518 212.193 32.0299 209.448 32.0299ZM209.448 28.1396C210.624 28.1396 211.539 27.7506 212.193 26.9077C212.782 26.0648 213.108 24.8329 213.108 23.2119C213.108 21.4613 212.782 20.1645 212.193 19.4513C211.605 18.6732 210.69 18.3491 209.448 18.3491C208.206 18.3491 207.29 18.7381 206.702 19.4513C206.114 20.2294 205.852 21.4613 205.852 23.2119C205.852 24.8977 206.114 26.1296 206.702 26.9077C207.29 27.6857 208.206 28.1396 209.448 28.1396ZM221.345 16.4039C222.195 15.9501 223.502 15.4962 225.267 15.1072C227.032 14.7181 228.601 14.5236 229.974 14.5236C232.327 14.5236 234.092 14.9775 235.269 15.8852C236.446 16.7929 237.034 18.2842 237.034 20.359V31.4463H232.131V21.3316C232.131 19.4513 231.085 18.4787 228.928 18.4787C228.47 18.4787 227.947 18.5436 227.425 18.6732C226.902 18.8029 226.509 18.9326 226.248 19.0623V31.4463H221.345V16.4039ZM249.193 31.965C247.559 31.965 246.121 31.6408 244.813 30.9925C243.506 30.3441 242.46 29.4363 241.675 28.1396C240.891 26.8428 240.499 25.2867 240.499 23.4713C240.499 20.5535 241.283 18.2842 242.852 16.7929C244.421 15.3017 246.513 14.5236 249.193 14.5236C250.108 14.5236 251.023 14.5885 252.004 14.783C252.919 14.9775 253.769 15.2368 254.488 15.561V19.7106C253.573 19.3216 252.788 18.9974 252.069 18.8029C251.35 18.6084 250.696 18.4787 249.977 18.4787C248.539 18.4787 247.428 18.8029 246.578 19.5161C245.794 20.2294 245.336 21.3316 245.336 22.8229C245.336 24.5087 245.728 25.7406 246.447 26.5186C247.232 27.2967 248.409 27.7506 250.174 27.7506C251.481 27.7506 252.919 27.2967 254.488 26.4538V30.6034C253.704 30.9925 252.854 31.3166 252.069 31.5112C251.154 31.8353 250.239 31.965 249.193 31.965ZM265.274 14.4588C270.438 14.4588 273.053 17.8304 272.988 24.5087H262.006C262.398 26.778 263.967 27.9451 266.647 27.9451C267.431 27.9451 268.281 27.8154 269 27.6209C269.785 27.3615 270.635 27.1022 271.484 26.7132V30.8628C269.654 31.576 267.693 31.965 265.405 31.965C263.705 31.965 262.267 31.6408 260.96 30.9276C259.718 30.2144 258.672 29.2418 258.018 27.9451C257.299 26.6483 256.972 25.157 256.972 23.4064C256.972 20.5535 257.691 18.2842 259.129 16.7281C260.567 15.2368 262.594 14.4588 265.274 14.4588ZM265.078 18.1545C263.313 18.1545 262.267 19.2568 261.94 21.3964H268.085C267.954 20.2294 267.628 19.3865 267.17 18.8678C266.647 18.4139 265.993 18.1545 265.078 18.1545ZM284.297 14.4588C286.977 14.4588 289.069 15.172 290.507 16.5336C291.945 17.8952 292.73 20.2294 292.73 23.4064C292.73 25.9999 292.076 28.0747 290.769 29.6309C289.461 31.187 287.631 31.965 285.343 31.965C283.709 31.965 282.271 31.6408 281.159 31.0573V37.3466H276.387V18.4139C276.387 17.1171 277.106 16.0797 278.61 15.4314C280.048 14.8478 281.944 14.4588 284.297 14.4588ZM283.905 28.0748C285.212 28.0748 286.258 27.6857 286.846 26.9725C287.5 26.2593 287.827 24.9625 287.827 23.2767C287.827 21.7206 287.566 20.5535 286.977 19.7106C286.389 18.9326 285.474 18.5436 284.101 18.5436C282.14 18.5436 281.159 18.9326 281.159 19.6458V27.4264C281.551 27.6857 282.009 27.8154 282.467 27.9451C282.99 28.0099 283.447 28.0748 283.905 28.0748ZM302.928 32.1595C301.032 32.1595 299.594 31.7057 298.613 30.7979C297.633 29.8902 297.175 28.5934 297.175 26.9725V18.7381H294.756V15.0423H297.175V10.5037H302.274V15.0423H305.935V18.7381H302.274V26.389C302.274 26.9725 302.405 27.3615 302.666 27.6209C302.928 27.8802 303.32 28.0099 303.908 28.0099C304.235 28.0099 304.627 27.9451 305.02 27.8154C305.412 27.6857 305.739 27.556 306 27.2967V31.4463C305.15 31.965 304.17 32.1595 302.928 32.1595Z" fill="#203569"/>
</svg>
