<svg width="257" height="44" viewBox="0 0 257 44" fill="none" xmlns="http://www.w3.org/2000/svg">
<path d="M91.1934 43.8902V35.7705H94.0483C94.762 35.7705 95.3111 35.9351 95.7503 36.3191C96.1895 36.7032 96.4091 37.1969 96.4091 37.8553C96.4091 38.2393 96.2993 38.5685 96.1346 38.8977C95.9699 39.2269 95.6954 39.4463 95.4209 39.6109C95.8601 39.7206 96.1895 39.9949 96.4091 40.3241C96.6287 40.7082 96.7385 41.0922 96.7385 41.586C96.7385 42.2992 96.464 42.9027 95.9699 43.2867C95.4758 43.6708 94.8718 43.8902 94.1032 43.8902H91.1934ZM92.3463 39.172H94.0483C94.4326 39.172 94.7071 39.0623 94.9267 38.8428C95.1464 38.6234 95.2562 38.2942 95.2562 37.965C95.2562 37.581 95.1464 37.3067 94.9267 37.0872C94.7071 36.8678 94.4326 36.758 94.0483 36.758H92.3463V39.172ZM92.3463 42.9027H94.1581C94.5973 42.9027 94.9268 42.793 95.1464 42.5186C95.4209 42.2443 95.5307 41.9151 95.5307 41.5311C95.5307 41.0922 95.4209 40.763 95.1464 40.5436C94.8718 40.2693 94.5424 40.1595 94.1581 40.1595H92.3463V42.9027Z" fill="#203569"/>
<path d="M97.9468 43.8903L100.857 35.8254H102.064L104.974 43.8903H103.766L102.943 41.586H99.9233L99.0997 43.8903H97.9468ZM100.198 40.5985H102.668L101.79 38.02L101.461 36.8678C101.351 37.3616 101.241 37.7456 101.131 38.02L100.198 40.5985Z" fill="#203569"/>
<path d="M107.994 43.8902V36.758H105.194V35.7705H111.892V36.758H109.092V43.8902H107.994Z" fill="#203569"/>
<path d="M115.625 43.8902V36.758H112.825V35.7705H119.523V36.758H116.723V43.8902H115.625Z" fill="#203569"/>
<path d="M121.335 43.8902V35.7705H126.057V36.758H122.488V39.2817H125.398V40.2693H122.488V42.8478H126.276V43.8353H121.335V43.8902Z" fill="#203569"/>
<path d="M128.417 43.8902V35.7705H130.998C131.657 35.7705 132.206 35.8254 132.48 35.99C132.865 36.1545 133.194 36.4289 133.414 36.8129C133.633 37.1969 133.743 37.6358 133.743 38.1296C133.743 38.6234 133.633 39.1171 133.359 39.5012C133.084 39.8852 132.755 40.2144 132.316 40.3241C132.37 40.379 132.48 40.5436 132.535 40.7082L134.237 43.8353H132.974L131.272 40.5984H129.516V43.8353H128.417V43.8902ZM129.516 39.6658H131.163C131.602 39.6658 131.931 39.556 132.206 39.2817C132.48 39.0074 132.59 38.6234 132.59 38.1845C132.59 37.5261 132.316 37.1421 131.821 36.9226C131.602 36.8129 131.272 36.758 130.833 36.758H129.516V39.6658Z" fill="#203569"/>
<path d="M137.696 43.8903V40.4888L134.951 35.8254H136.214L137.696 38.4589L138.19 39.5013C138.355 39.1172 138.52 38.788 138.685 38.4589L140.167 35.8254H141.43L138.685 40.4888V43.8903H137.696Z" fill="#203569"/>
<path d="M145.712 42.9576L146.371 42.0798C146.645 42.3541 146.92 42.5187 147.304 42.6833C147.688 42.8479 148.018 42.9027 148.402 42.9027C148.841 42.9027 149.171 42.793 149.445 42.5736C149.72 42.3541 149.83 42.0798 149.83 41.7506C149.83 41.4214 149.72 41.1471 149.445 40.9277C149.171 40.7082 148.841 40.4888 148.457 40.3242C148.073 40.1596 147.688 39.995 147.304 39.8304C146.92 39.6658 146.59 39.3915 146.316 39.0623C146.041 38.7332 145.932 38.3491 145.932 37.8554C145.932 37.197 146.206 36.6484 146.7 36.2095C147.194 35.7706 147.853 35.606 148.622 35.606C149.555 35.606 150.324 35.8803 150.873 36.4289L150.379 37.3616C150.159 37.1421 149.885 36.9776 149.555 36.8678C149.226 36.7581 148.896 36.6484 148.622 36.6484C148.183 36.6484 147.853 36.7581 147.579 36.9776C147.304 37.197 147.139 37.4713 147.139 37.8005C147.139 38.0748 147.249 38.2943 147.414 38.5137C147.579 38.7332 147.853 38.8978 148.128 39.0075C148.402 39.1172 148.732 39.2818 149.061 39.4464C149.39 39.611 149.72 39.7756 149.994 39.9402C150.269 40.1047 150.543 40.3242 150.708 40.6534C150.873 40.9825 150.983 41.3117 150.983 41.6958C150.983 42.3541 150.763 42.9027 150.269 43.3416C149.83 43.7806 149.171 44 148.402 44C147.359 44 146.426 43.6708 145.712 42.9576Z" fill="#203569"/>
<path d="M152.63 39.7756C152.63 38.6234 153.014 37.6359 153.838 36.813C154.606 36.0449 155.595 35.606 156.803 35.606C158.01 35.606 158.999 35.99 159.767 36.813C160.536 37.581 160.975 38.5686 160.975 39.7756C160.975 40.9825 160.591 41.9701 159.767 42.793C158.999 43.616 158.01 44 156.803 44C155.595 44 154.606 43.616 153.838 42.793C153.069 41.9701 152.63 40.9825 152.63 39.7756ZM153.783 39.7756C153.783 40.7082 154.057 41.4214 154.606 42.0798C155.155 42.6833 155.869 43.0125 156.748 43.0125C157.626 43.0125 158.34 42.6833 158.889 42.0798C159.438 41.4763 159.712 40.7082 159.712 39.7756C159.712 38.8978 159.438 38.1845 158.889 37.5811C158.34 36.9776 157.626 36.7032 156.748 36.7032C155.869 36.7032 155.155 36.9776 154.606 37.5811C154.112 38.1845 153.783 38.8978 153.783 39.7756Z" fill="#203569"/>
<path d="M163.171 43.8902V35.7705H164.324V42.9027H167.947V43.8902H163.171Z" fill="#203569"/>
<path d="M169.43 41.0373V35.7705H170.583V40.9825C170.583 41.586 170.748 42.0797 171.132 42.4089C171.516 42.7381 172.011 42.9575 172.615 42.9575C173.218 42.9575 173.713 42.793 174.097 42.4089C174.481 42.0797 174.646 41.586 174.646 40.9276V35.7705H175.799V40.9825C175.799 41.8603 175.524 42.6284 174.92 43.177C174.317 43.7256 173.548 43.9999 172.615 43.9999C171.681 43.9999 170.913 43.7256 170.309 43.177C169.705 42.6284 169.43 41.9152 169.43 41.0373Z" fill="#203569"/>
<path d="M180.301 43.8902V36.758H177.501V35.7705H184.199V36.758H181.399V43.8902H180.301Z" fill="#203569"/>
<path d="M186.065 43.8902V35.7705H187.218V43.8353H186.065V43.8902Z" fill="#203569"/>
<path d="M189.415 39.7756C189.415 38.6234 189.799 37.6359 190.622 36.813C191.391 36.0449 192.379 35.606 193.587 35.606C194.795 35.606 195.783 35.99 196.552 36.813C197.321 37.581 197.76 38.5686 197.76 39.7756C197.76 40.9825 197.375 41.9701 196.552 42.793C195.783 43.616 194.795 44 193.587 44C192.379 44 191.391 43.616 190.622 42.793C189.799 41.9701 189.415 40.9825 189.415 39.7756ZM190.568 39.7756C190.568 40.7082 190.842 41.4214 191.391 42.0798C191.94 42.6833 192.654 43.0125 193.532 43.0125C194.411 43.0125 195.124 42.6833 195.673 42.0798C196.222 41.4763 196.497 40.7082 196.497 39.7756C196.497 38.8978 196.222 38.1845 195.673 37.5811C195.124 36.9776 194.411 36.7032 193.532 36.7032C192.654 36.7032 191.94 36.9776 191.391 37.5811C190.842 38.1845 190.568 38.8978 190.568 39.7756Z" fill="#203569"/>
<path d="M199.901 43.8902V35.7705H200.999L204.623 41.0373L205.282 42.2443C205.227 41.7506 205.227 41.3665 205.227 41.0373V35.7705H206.325V43.8353H205.227L201.603 38.5685L200.945 37.3615C200.999 37.8553 200.999 38.2393 200.999 38.5685V43.8353H199.901V43.8902Z" fill="#203569"/>
<path d="M208.521 42.9576L209.18 42.0798C209.454 42.3541 209.729 42.5187 210.113 42.6833C210.498 42.8479 210.827 42.9027 211.211 42.9027C211.65 42.9027 211.98 42.793 212.254 42.5736C212.529 42.3541 212.639 42.0798 212.639 41.7506C212.639 41.4214 212.529 41.1471 212.254 40.9277C211.98 40.7082 211.65 40.4888 211.266 40.3242C210.882 40.1596 210.498 39.995 210.113 39.8304C209.729 39.6658 209.399 39.3915 209.125 39.0623C208.85 38.7332 208.741 38.3491 208.741 37.8554C208.741 37.197 209.015 36.6484 209.509 36.2095C210.003 35.7706 210.662 35.606 211.431 35.606C212.364 35.606 213.133 35.8803 213.682 36.4289L213.188 37.3616C212.968 37.1421 212.694 36.9776 212.364 36.8678C212.035 36.7581 211.705 36.6484 211.431 36.6484C210.992 36.6484 210.662 36.7581 210.388 36.9776C210.113 37.197 209.948 37.4713 209.948 37.8005C209.948 38.0748 210.058 38.2943 210.223 38.5137C210.388 38.7332 210.662 38.8978 210.937 39.0075C211.211 39.1172 211.541 39.2818 211.87 39.4464C212.199 39.611 212.529 39.7756 212.803 39.9402C213.078 40.1047 213.352 40.3242 213.517 40.6534C213.682 40.9825 213.792 41.3117 213.792 41.6958C213.792 42.3541 213.572 42.9027 213.078 43.3416C212.639 43.7806 211.98 44 211.211 44C210.113 44 209.235 43.6708 208.521 42.9576Z" fill="#203569"/>
<path fill-rule="evenodd" clip-rule="evenodd" d="M46.0086 20.1347C45.6791 19.0923 45.1301 18.1596 44.3615 17.3915C43.2085 16.2394 41.5614 15.5262 39.8045 15.5262C38.3771 15.5262 37.0045 16.02 35.9064 16.8429C35.4123 15.5811 34.7535 14.3741 33.9848 13.2219C33.8201 13.0025 33.6005 12.7282 33.4358 12.5087C35.2476 11.3018 37.4437 10.5885 39.8045 10.5885C42.934 10.5885 45.7889 11.8504 47.8752 13.9352C49.5223 15.5811 50.6753 17.7756 51.0596 20.1895H46.0086V20.1347ZM21.9611 0C15.9218 0 10.4315 2.46883 6.42363 6.41895C2.47063 10.4239 0 15.9102 0 21.9452C0 27.212 1.8667 31.9851 4.94125 35.7706V21.9452C4.94125 17.2269 6.86285 13.0025 9.93741 9.93018C13.012 6.85785 17.2944 4.93766 21.9611 4.93766H39.8594C44.5811 4.93766 48.8086 6.85785 51.8832 9.93018C54.9577 13.0025 56.8793 17.2818 56.8793 21.9452C56.8793 26.6634 54.9577 30.8878 51.8832 33.9601C48.8086 37.0324 44.5262 38.9526 39.8594 38.9526H21.9611C19.6552 38.9526 17.4591 38.5137 15.4826 37.6908V35.5511V34.5636V31.3267C17.2944 32.5885 19.5454 33.3566 21.9611 33.3566C24.3219 33.3566 26.5181 32.6434 28.3298 31.4364C27.3965 30.2843 26.6279 29.0225 26.0788 27.6509C26.0239 27.4863 25.9141 27.3217 25.8592 27.1023C24.7612 27.9252 23.4435 28.3641 21.9611 28.3641C20.1493 28.3641 18.5571 27.6509 17.4042 26.4988C16.2512 25.3466 15.5375 23.7008 15.5375 21.9452C15.5375 20.1895 16.2512 18.5436 17.4042 17.3915C18.5571 16.2394 20.2042 15.5262 21.9611 15.5262C23.7729 15.5262 25.3651 16.2394 26.5181 17.3915C27.671 18.5436 28.3848 20.1895 28.3848 21.9452C28.3848 25.0723 29.6475 27.9252 31.7338 30.01C33.8201 32.0948 36.6751 33.3566 39.8045 33.3566C42.934 33.3566 45.7889 32.0948 47.8752 30.01C49.5223 28.3641 50.6753 26.1696 51.0596 23.7556H46.0086C45.6791 24.798 45.1301 25.7307 44.3615 26.4988C43.2085 27.6509 41.5614 28.3641 39.8045 28.3641C38.0476 28.3641 36.4006 27.6509 35.2476 26.4988C34.0946 25.3466 33.3809 23.7008 33.3809 21.9452C33.3809 18.818 32.1181 15.9651 30.0318 13.8803C27.9455 11.7955 25.0906 10.5337 21.9611 10.5337C18.8317 10.5337 15.9767 11.7955 13.8904 13.8803C11.8041 15.9651 10.5413 18.818 10.5413 21.9452V31.7656V34.5636V40.7083C13.8904 42.7382 17.7885 43.9452 21.9611 43.9452H39.8594C45.8987 43.9452 51.389 41.4763 55.3969 37.5262C59.3499 33.5761 61.8206 28.0898 61.8206 22C61.8206 15.9651 59.3499 10.4788 55.3969 6.47382C51.4439 2.52369 45.9537 0.054862 39.8594 0.054862H21.9611V0Z" fill="#203569"/>
<path fill-rule="evenodd" clip-rule="evenodd" d="M81.5856 12.2344C83.8366 12.2344 85.5935 12.8379 86.8014 13.99C88.0093 15.1422 88.6681 17.1172 88.6681 19.8055C88.6681 22 88.1191 23.7556 87.021 25.0723C85.9229 26.389 84.3857 27.0474 82.4641 27.0474C81.0915 27.0474 79.8836 26.7731 78.9503 26.2793V31.601H74.9424V15.5811C74.9424 14.4838 75.5463 13.606 76.8091 13.0574C78.0169 12.5636 79.6091 12.2344 81.5856 12.2344ZM81.2013 23.7556C82.2994 23.7556 83.1778 23.4264 83.6719 22.823C84.221 22.2195 84.4955 21.1222 84.4955 19.6958C84.4955 18.3791 84.2759 17.3915 83.7817 16.6783C83.2876 16.02 82.519 15.6908 81.366 15.6908C79.7189 15.6908 78.8954 16.02 78.8954 16.6235V23.207C79.2248 23.4265 79.6091 23.5362 79.9934 23.6459C80.4327 23.7008 80.817 23.7556 81.2013 23.7556ZM97.782 27.1023C95.4211 27.1023 93.6642 26.4988 92.4564 25.2369C91.3034 23.9751 90.6995 22.1097 90.6995 19.6409C90.6995 17.0624 91.3034 15.197 92.4564 13.99C93.6093 12.8379 95.4211 12.2344 97.782 12.2344C100.143 12.2344 101.955 12.8379 103.162 14.0449C104.37 15.2519 104.974 17.1172 104.974 19.6409C104.974 22.0549 104.37 23.9202 103.108 25.1821C101.845 26.4439 100.088 27.1023 97.782 27.1023ZM97.782 23.8105C98.7702 23.8105 99.5388 23.4813 100.088 22.7681C100.582 22.0549 100.857 21.0125 100.857 19.6409C100.857 18.1596 100.582 17.0624 100.088 16.4589C99.5937 15.8005 98.8251 15.5262 97.782 15.5262C96.7388 15.5262 95.9702 15.8554 95.476 16.4589C94.9819 17.1172 94.7623 18.1596 94.7623 19.6409C94.7623 21.0673 94.9819 22.1097 95.476 22.7681C96.0251 23.4265 96.7937 23.8105 97.782 23.8105ZM127.265 12.6733L122.598 26.6634H118.865L116.449 18.818L114.143 26.6634H110.41L105.743 12.6733H110.135L112.606 21.5611L114.912 12.6733H117.931L120.347 21.7806L122.818 12.6733H127.265ZM135.061 12.2344C139.398 12.2344 141.594 15.0873 141.539 20.7382H132.316C132.645 22.6584 133.963 23.6459 136.214 23.6459C136.873 23.6459 137.586 23.5362 138.19 23.3716C138.849 23.1521 139.563 22.9327 140.277 22.6035V26.1147C138.739 26.7182 137.092 27.0474 135.171 27.0474C133.743 27.0474 132.535 26.7731 131.437 26.1696C130.394 25.5661 129.516 24.7432 128.967 23.6459C128.363 22.5486 128.088 21.2868 128.088 19.8055C128.088 17.3915 128.692 15.4713 129.9 14.1546C131.108 12.8928 132.81 12.2344 135.061 12.2344ZM134.896 15.3616C133.414 15.3616 132.535 16.2943 132.261 18.1048H137.422C137.312 17.1172 137.037 16.404 136.653 15.9651C136.269 15.5811 135.665 15.3616 134.896 15.3616ZM144.394 14.1546C144.669 13.9352 145.163 13.6609 145.822 13.3317C146.536 13.0574 147.304 12.783 148.128 12.5636C149.006 12.3441 149.83 12.2344 150.598 12.2344C152.136 12.2344 153.179 12.4539 153.783 12.9476V15.9651C153.069 15.8005 151.971 15.6908 150.598 15.6908C149.72 15.6908 149.006 15.7456 148.457 15.8554V26.6634H144.394V14.1546ZM162.293 27.0474C160.92 27.0474 159.712 26.7731 158.614 26.2245C157.516 25.6758 156.638 24.9077 155.979 23.8105C155.32 22.7132 154.991 21.3965 154.991 19.8604C154.991 17.3915 155.65 15.4713 156.967 14.2095C158.285 12.9476 160.042 12.2893 162.293 12.2893C163.061 12.2893 163.83 12.3442 164.654 12.5087C165.422 12.6733 166.136 12.8928 166.74 13.1671V16.6783C165.971 16.3491 165.312 16.0748 164.708 15.9102C164.105 15.7456 163.556 15.6359 162.952 15.6359C161.744 15.6359 160.81 15.9102 160.097 16.5137C159.438 17.1172 159.053 18.0499 159.053 19.3117C159.053 20.7382 159.383 21.7806 159.987 22.4389C160.646 23.0973 161.634 23.4813 163.116 23.4813C164.214 23.4813 165.422 23.0973 166.74 22.3841V25.8953C166.081 26.2245 165.367 26.4988 164.708 26.6634C163.94 26.9377 163.171 27.0474 162.293 27.0474ZM175.909 27.1023C173.548 27.1023 171.791 26.4988 170.583 25.2369C169.43 23.9751 168.826 22.1097 168.826 19.6409C168.826 17.0624 169.43 15.197 170.583 13.99C171.736 12.8379 173.548 12.2344 175.909 12.2344C178.269 12.2344 180.081 12.8379 181.289 14.0449C182.497 15.2519 183.101 17.1172 183.101 19.6409C183.101 22.0549 182.497 23.9202 181.234 25.1821C179.971 26.4439 178.215 27.1023 175.909 27.1023ZM175.909 23.8105C176.897 23.8105 177.666 23.4813 178.215 22.7681C178.709 22.0549 178.983 21.0125 178.983 19.6409C178.983 18.1596 178.709 17.0624 178.215 16.4589C177.72 15.8005 176.952 15.5262 175.909 15.5262C174.865 15.5262 174.097 15.8554 173.603 16.4589C173.109 17.1172 172.889 18.1596 172.889 19.6409C172.889 21.0673 173.109 22.1097 173.603 22.7681C174.097 23.4265 174.865 23.8105 175.909 23.8105ZM185.901 13.8803C186.615 13.4963 187.713 13.1122 189.195 12.7831C190.678 12.4539 191.995 12.2893 193.148 12.2893C195.125 12.2893 196.607 12.6733 197.595 13.4414C198.584 14.2095 199.078 15.4713 199.078 17.2269V26.6085H194.96V18.0499C194.96 16.4589 194.081 15.6359 192.27 15.6359C191.885 15.6359 191.446 15.6908 191.007 15.8005C190.568 15.9102 190.238 16.02 190.019 16.1297V26.6085H185.901V13.8803ZM209.29 27.0474C207.917 27.0474 206.709 26.7731 205.611 26.2245C204.513 25.6758 203.635 24.9077 202.976 23.8105C202.317 22.7132 201.987 21.3965 201.987 19.8604C201.987 17.3915 202.646 15.4713 203.964 14.2095C205.282 12.9476 207.039 12.2893 209.29 12.2893C210.058 12.2893 210.827 12.3442 211.65 12.5087C212.419 12.6733 213.133 12.8928 213.737 13.1671V16.6783C212.968 16.3491 212.309 16.0748 211.705 15.9102C211.101 15.7456 210.552 15.6359 209.948 15.6359C208.741 15.6359 207.807 15.9102 207.093 16.5137C206.435 17.1172 206.05 18.0499 206.05 19.3117C206.05 20.7382 206.38 21.7806 206.984 22.4389C207.642 23.0973 208.631 23.4813 210.113 23.4813C211.211 23.4813 212.419 23.0973 213.737 22.3841V25.8953C213.078 26.2245 212.364 26.4988 211.705 26.6634C210.937 26.9377 210.168 27.0474 209.29 27.0474ZM222.796 12.2344C227.133 12.2344 229.329 15.0873 229.274 20.7382H220.051C220.38 22.6584 221.698 23.6459 223.949 23.6459C224.607 23.6459 225.321 23.5362 225.925 23.3716C226.584 23.1521 227.298 22.9327 228.011 22.6035V26.1147C226.474 26.7182 224.827 27.0474 222.905 27.0474C221.478 27.0474 220.27 26.7731 219.172 26.1696C218.129 25.5661 217.25 24.7432 216.701 23.6459C216.098 22.5486 215.823 21.2868 215.823 19.8055C215.823 17.3915 216.427 15.4713 217.635 14.1546C218.843 12.8928 220.545 12.2344 222.796 12.2344ZM222.631 15.3616C221.149 15.3616 220.27 16.2943 219.996 18.1048H225.156C225.047 17.1172 224.772 16.404 224.388 15.9651C223.949 15.5811 223.4 15.3616 222.631 15.3616ZM238.772 12.2344C241.023 12.2344 242.78 12.8379 243.988 13.99C245.196 15.1422 245.855 17.1172 245.855 19.8055C245.855 22 245.306 23.7556 244.208 25.0723C243.11 26.389 241.572 27.0474 239.651 27.0474C238.278 27.0474 237.07 26.7731 236.137 26.2793V31.601H232.129V15.5811C232.129 14.4838 232.733 13.606 233.996 13.0574C235.204 12.5636 236.796 12.2344 238.772 12.2344ZM238.443 23.7556C239.541 23.7556 240.419 23.4264 240.914 22.823C241.463 22.2195 241.737 21.1222 241.737 19.6958C241.737 18.3791 241.518 17.3915 241.023 16.6783C240.529 16.02 239.761 15.6908 238.608 15.6908C236.961 15.6908 236.137 16.02 236.137 16.6235V23.207C236.466 23.4265 236.851 23.5362 237.235 23.6459C237.674 23.7008 238.059 23.7556 238.443 23.7556ZM254.42 27.212C252.827 27.212 251.62 26.828 250.796 26.0599C249.973 25.2918 249.588 24.1945 249.588 22.823V15.8554H247.557V12.7282H249.588V8.88779H253.871V12.7282H256.945V15.8554H253.871V22.3292C253.871 22.823 253.98 23.1521 254.2 23.3716C254.42 23.591 254.749 23.7008 255.243 23.7008C255.518 23.7008 255.847 23.6459 256.177 23.5362C256.506 23.4264 256.78 23.3167 257 23.0973V26.6085C256.286 27.0474 255.463 27.212 254.42 27.212Z" fill="#203569"/>
</svg>
