<svg width="165" height="27" viewBox="0 0 165 27" fill="none" xmlns="http://www.w3.org/2000/svg">
<path d="M58.5483 26.9327V21.9502H60.3813C60.8395 21.9502 61.192 22.0512 61.474 22.2869C61.756 22.5225 61.897 22.8255 61.897 23.2295C61.897 23.4652 61.8265 23.6672 61.7207 23.8691C61.615 24.0711 61.4387 24.2058 61.2625 24.3068C61.5445 24.3741 61.756 24.5425 61.897 24.7445C62.038 24.9801 62.1085 25.2158 62.1085 25.5188C62.1085 25.9564 61.9322 26.3268 61.615 26.5624C61.2978 26.7981 60.91 26.9327 60.4165 26.9327H58.5483ZM59.2886 24.0375H60.3813C60.628 24.0375 60.8043 23.9701 60.9453 23.8355C61.0863 23.7008 61.1568 23.4988 61.1568 23.2968C61.1568 23.0612 61.0863 22.8928 60.9453 22.7582C60.8043 22.6235 60.628 22.5562 60.3813 22.5562H59.2886V24.0375ZM59.2886 26.3268H60.4518C60.7338 26.3268 60.9453 26.2594 61.0863 26.0911C61.2625 25.9228 61.333 25.7208 61.333 25.4851C61.333 25.2158 61.2625 25.0138 61.0863 24.8791C60.91 24.7108 60.6985 24.6435 60.4518 24.6435H59.2886V26.3268Z" fill="#33A648"/>
<path d="M62.8842 26.9333L64.7523 21.9844H65.5278L67.396 26.9333H66.6205L66.0918 25.5193H64.1531L63.6244 26.9333H62.8842ZM64.3294 24.9133H65.9156L65.3516 23.331L65.1401 22.624C65.0696 22.927 64.9991 23.1627 64.9286 23.331L64.3294 24.9133Z" fill="#33A648"/>
<path d="M69.3348 26.9327V22.5562H67.5371V21.9502H71.8375V22.5562H70.0398V26.9327H69.3348Z" fill="#33A648"/>
<path d="M74.2343 26.9327V22.5562H72.4366V21.9502H76.737V22.5562H74.9393V26.9327H74.2343Z" fill="#33A648"/>
<path d="M77.8997 26.9327V21.9502H80.9311V22.5562H78.6399V24.1048H80.5081V24.7108H78.6399V26.2931H81.0721V26.8991H77.8997V26.9327Z" fill="#33A648"/>
<path d="M82.4474 26.9327V21.9502H84.1041C84.5271 21.9502 84.8796 21.9839 85.0558 22.0849C85.3025 22.1859 85.514 22.3542 85.655 22.5898C85.796 22.8255 85.8665 23.0948 85.8665 23.3978C85.8665 23.7008 85.796 24.0038 85.6198 24.2395C85.4435 24.4751 85.232 24.6771 84.9501 24.7445C84.9853 24.7781 85.0558 24.8791 85.0911 24.9801L86.1838 26.8991H85.373L84.2803 24.9128H83.1524V26.8991H82.4474V26.9327ZM83.1524 24.3405H84.2098C84.4918 24.3405 84.7033 24.2731 84.8796 24.1048C85.0558 23.9365 85.1263 23.7008 85.1263 23.4315C85.1263 23.0275 84.9501 22.7918 84.6328 22.6572C84.4918 22.5898 84.2803 22.5562 83.9983 22.5562H83.1524V24.3405Z" fill="#33A648"/>
<path d="M88.4044 26.9333V24.846L86.642 21.9844H87.4527L88.4044 23.6003L88.7217 24.24C88.8274 24.0043 88.9332 23.8023 89.0389 23.6003L89.9906 21.9844H90.8014L89.0389 24.846V26.9333H88.4044Z" fill="#33A648"/>
<path d="M93.5508 26.3608L93.9738 25.8222C94.15 25.9905 94.3263 26.0915 94.573 26.1925C94.8197 26.2935 95.0312 26.3272 95.278 26.3272C95.56 26.3272 95.7715 26.2598 95.9477 26.1252C96.124 25.9905 96.1944 25.8222 96.1944 25.6202C96.1944 25.4182 96.124 25.2499 95.9477 25.1152C95.7715 24.9805 95.56 24.8459 95.3132 24.7449C95.0665 24.6439 94.8197 24.5429 94.573 24.4419C94.3263 24.3409 94.1148 24.1726 93.9385 23.9706C93.7623 23.7686 93.6918 23.5329 93.6918 23.2299C93.6918 22.8259 93.868 22.4893 94.1853 22.2199C94.5025 21.9506 94.9255 21.8496 95.419 21.8496C96.0182 21.8496 96.5117 22.0179 96.8642 22.3546L96.5469 22.9269C96.4059 22.7923 96.2297 22.6913 96.0182 22.6239C95.8067 22.5566 95.5952 22.4893 95.419 22.4893C95.137 22.4893 94.9255 22.5566 94.7492 22.6913C94.573 22.8259 94.4673 22.9942 94.4673 23.1962C94.4673 23.3646 94.5378 23.4992 94.6435 23.6339C94.7492 23.7686 94.9255 23.8696 95.1017 23.9369C95.278 24.0042 95.4895 24.1052 95.701 24.2062C95.9125 24.3072 96.124 24.4082 96.3002 24.5092C96.4764 24.6102 96.6527 24.7449 96.7584 24.9469C96.8642 25.1489 96.9347 25.3509 96.9347 25.5865C96.9347 25.9905 96.7937 26.3272 96.4764 26.5965C96.1944 26.8658 95.7715 27.0005 95.278 27.0005C94.6082 27.0005 94.009 26.7985 93.5508 26.3608Z" fill="#33A648"/>
<path d="M97.9919 24.4082C97.9919 23.7012 98.2387 23.0952 98.7674 22.5903C99.2609 22.1189 99.8954 21.8496 100.671 21.8496C101.446 21.8496 102.081 22.0853 102.574 22.5903C103.068 23.0616 103.35 23.6676 103.35 24.4082C103.35 25.1489 103.103 25.7548 102.574 26.2598C102.081 26.7648 101.446 27.0005 100.671 27.0005C99.8954 27.0005 99.2609 26.7648 98.7674 26.2598C98.2739 25.7548 97.9919 25.1489 97.9919 24.4082ZM98.7322 24.4082C98.7322 24.9805 98.9084 25.4182 99.2609 25.8222C99.6134 26.1925 100.072 26.3945 100.636 26.3945C101.2 26.3945 101.658 26.1925 102.01 25.8222C102.363 25.4519 102.539 24.9805 102.539 24.4082C102.539 23.8696 102.363 23.4319 102.01 23.0616C101.658 22.6913 101.2 22.5229 100.636 22.5229C100.072 22.5229 99.6134 22.6913 99.2609 23.0616C98.9437 23.4319 98.7322 23.8696 98.7322 24.4082Z" fill="#33A648"/>
<path d="M104.76 26.9327V21.9502H105.5V26.3268H107.826V26.9327H104.76Z" fill="#33A648"/>
<path d="M108.778 25.1821V21.9502H109.518V25.1485C109.518 25.5188 109.624 25.8218 109.871 26.0238C110.118 26.2258 110.435 26.3604 110.823 26.3604C111.21 26.3604 111.528 26.2594 111.774 26.0238C112.021 25.8218 112.127 25.5188 112.127 25.1148V21.9502H112.867V25.1485C112.867 25.6871 112.691 26.1584 112.303 26.4951C111.915 26.8317 111.422 27.0001 110.823 27.0001C110.223 27.0001 109.73 26.8317 109.342 26.4951C108.954 26.1584 108.778 25.7208 108.778 25.1821Z" fill="#33A648"/>
<path d="M115.757 26.9327V22.5562H113.959V21.9502H118.26V22.5562H116.462V26.9327H115.757Z" fill="#33A648"/>
<path d="M119.458 26.9327V21.9502H120.199V26.8991H119.458V26.9327Z" fill="#33A648"/>
<path d="M121.608 24.4082C121.608 23.7012 121.855 23.0952 122.384 22.5903C122.877 22.1189 123.512 21.8496 124.287 21.8496C125.063 21.8496 125.697 22.0853 126.191 22.5903C126.684 23.0616 126.966 23.6676 126.966 24.4082C126.966 25.1489 126.719 25.7548 126.191 26.2598C125.697 26.7648 125.063 27.0005 124.287 27.0005C123.512 27.0005 122.877 26.7648 122.384 26.2598C121.855 25.7548 121.608 25.1489 121.608 24.4082ZM122.349 24.4082C122.349 24.9805 122.525 25.4182 122.877 25.8222C123.23 26.1925 123.688 26.3945 124.252 26.3945C124.816 26.3945 125.274 26.1925 125.627 25.8222C125.979 25.4519 126.155 24.9805 126.155 24.4082C126.155 23.8696 125.979 23.4319 125.627 23.0616C125.274 22.6913 124.816 22.5229 124.252 22.5229C123.688 22.5229 123.23 22.6913 122.877 23.0616C122.525 23.4319 122.349 23.8696 122.349 24.4082Z" fill="#33A648"/>
<path d="M128.341 26.9327V21.9502H129.046L131.373 25.1821L131.796 25.9228C131.76 25.6198 131.76 25.3841 131.76 25.1821V21.9502H132.465V26.8991H131.76L129.434 23.6672L129.011 22.9265C129.046 23.2295 129.046 23.4652 129.046 23.6672V26.8991H128.341V26.9327Z" fill="#33A648"/>
<path d="M133.875 26.3608L134.298 25.8222C134.474 25.9905 134.651 26.0915 134.897 26.1925C135.144 26.2935 135.356 26.3272 135.602 26.3272C135.884 26.3272 136.096 26.2598 136.272 26.1252C136.448 25.9905 136.519 25.8222 136.519 25.6202C136.519 25.4182 136.448 25.2499 136.272 25.1152C136.096 24.9805 135.884 24.8459 135.638 24.7449C135.391 24.6439 135.144 24.5429 134.897 24.4419C134.651 24.3409 134.439 24.1726 134.263 23.9706C134.087 23.7686 134.016 23.5329 134.016 23.2299C134.016 22.8259 134.192 22.4893 134.51 22.2199C134.827 21.9506 135.25 21.8496 135.743 21.8496C136.343 21.8496 136.836 22.0179 137.189 22.3546L136.871 22.9269C136.73 22.7923 136.554 22.6913 136.343 22.6239C136.131 22.5566 135.92 22.4893 135.743 22.4893C135.461 22.4893 135.25 22.5566 135.074 22.6913C134.897 22.8259 134.792 22.9942 134.792 23.1962C134.792 23.3646 134.862 23.4992 134.968 23.6339C135.074 23.7686 135.25 23.8696 135.426 23.9369C135.602 24.0042 135.814 24.1052 136.025 24.2062C136.237 24.3072 136.448 24.4082 136.625 24.5092C136.801 24.6102 136.977 24.7449 137.083 24.9469C137.189 25.1489 137.259 25.3509 137.259 25.5865C137.259 25.9905 137.118 26.3272 136.801 26.5965C136.519 26.8658 136.096 27.0005 135.602 27.0005C134.897 27.0005 134.333 26.7985 133.875 26.3608Z" fill="#33A648"/>
<path fill-rule="evenodd" clip-rule="evenodd" d="M29.5386 12.3554C29.3271 11.7157 28.9746 11.1434 28.4811 10.6721C27.7409 9.96509 26.6834 9.52744 25.5554 9.52744C24.639 9.52744 23.7578 9.83043 23.0528 10.3354C22.7355 9.5611 22.3125 8.82045 21.8191 8.11347C21.7133 7.9788 21.5723 7.81048 21.4666 7.67582C22.6298 6.93517 24.0397 6.49751 25.5554 6.49751C27.5646 6.49751 29.3976 7.27182 30.737 8.55112C31.7945 9.5611 32.5347 10.9077 32.7815 12.389H29.5386V12.3554ZM14.0996 0C10.2222 0 6.69729 1.51496 4.12412 3.9389C1.5862 6.39651 0 9.7631 0 13.4663C0 16.6983 1.19846 19.6272 3.1724 21.9501V13.4663C3.1724 10.5711 4.40611 7.9788 6.38005 6.09352C8.35399 4.20823 11.1034 3.02993 14.0996 3.02993H25.5907C28.6221 3.02993 31.3363 4.20823 33.3102 6.09352C35.2841 7.9788 36.5178 10.6047 36.5178 13.4663C36.5178 16.3616 35.2841 18.9539 33.3102 20.8392C31.3363 22.7244 28.5868 23.9028 25.5907 23.9028H14.0996C12.6191 23.9028 11.2091 23.6334 9.94019 23.1284V21.8155V21.2095V19.2232C11.1034 19.9975 12.5486 20.4688 14.0996 20.4688C15.6153 20.4688 17.0252 20.0312 18.1884 19.2905C17.5892 18.5836 17.0957 17.8092 16.7432 16.9676C16.708 16.8666 16.6375 16.7656 16.6022 16.6309C15.8972 17.1359 15.0513 17.4052 14.0996 17.4052C12.9363 17.4052 11.9141 16.9676 11.1739 16.2606C10.4337 15.5536 9.97544 14.5436 9.97544 13.4663C9.97544 12.389 10.4337 11.3791 11.1739 10.6721C11.9141 9.96509 12.9716 9.52744 14.0996 9.52744C15.2628 9.52744 16.285 9.96509 17.0252 10.6721C17.7654 11.3791 18.2237 12.389 18.2237 13.4663C18.2237 15.3853 19.0344 17.1359 20.3739 18.4152C21.7133 19.6945 23.5463 20.4688 25.5554 20.4688C27.5646 20.4688 29.3976 19.6945 30.737 18.4152C31.7945 17.4052 32.5347 16.0586 32.7815 14.5773H29.5386C29.3271 15.217 28.9746 15.7893 28.4811 16.2606C27.7409 16.9676 26.6834 17.4052 25.5554 17.4052C24.4275 17.4052 23.37 16.9676 22.6298 16.2606C21.8896 15.5536 21.4313 14.5436 21.4313 13.4663C21.4313 11.5474 20.6206 9.79676 19.2811 8.51746C17.9417 7.23816 16.1087 6.46384 14.0996 6.46384C12.0904 6.46384 10.2574 7.23816 8.91797 8.51746C7.57851 9.79676 6.76779 11.5474 6.76779 13.4663V19.4925V21.2095V24.9801C8.91797 26.2257 11.4206 26.9663 14.0996 26.9663H25.5907C29.4681 26.9663 32.993 25.4514 35.5661 23.0274C38.104 20.6035 39.6902 17.2369 39.6902 13.5C39.6902 9.79676 38.104 6.43018 35.5661 3.97257C33.0282 1.54863 29.5033 0.0336653 25.5907 0.0336653H14.0996V0Z" fill="#33A648"/>
<path fill-rule="evenodd" clip-rule="evenodd" d="M52.3796 7.5087C53.8248 7.5087 54.9528 7.87902 55.7283 8.586C56.5037 9.29299 56.9267 10.505 56.9267 12.1546C56.9267 13.5012 56.5742 14.5785 55.8693 15.3865C55.1643 16.1945 54.1773 16.5985 52.9436 16.5985C52.0624 16.5985 51.2869 16.4301 50.6877 16.1272V19.3927H48.1145V9.56231C48.1145 8.88899 48.5022 8.35034 49.313 8.01369C50.0884 7.71069 51.1107 7.5087 52.3796 7.5087ZM52.1329 14.5785C52.8379 14.5785 53.4018 14.3765 53.7191 14.0062C54.0716 13.6359 54.2478 12.9626 54.2478 12.0873C54.2478 11.2793 54.1068 10.6733 53.7896 10.2356C53.4723 9.83164 52.9788 9.62964 52.2386 9.62964C51.1812 9.62964 50.6524 9.83164 50.6524 10.202V14.2419C50.8639 14.3765 51.1107 14.4439 51.3574 14.5112C51.6394 14.5449 51.8861 14.5785 52.1329 14.5785ZM62.778 16.6321C61.2623 16.6321 60.1344 16.2618 59.3589 15.4875C58.6187 14.7132 58.2309 13.5686 58.2309 12.0536C58.2309 10.4713 58.6187 9.32665 59.3589 8.586C60.0991 7.87902 61.2623 7.5087 62.778 7.5087C64.2937 7.5087 65.457 7.87902 66.2324 8.61967C67.0079 9.36032 67.3956 10.505 67.3956 12.0536C67.3956 13.5349 67.0079 14.6795 66.1972 15.4538C65.3865 16.2282 64.2585 16.6321 62.778 16.6321ZM62.778 14.6122C63.4125 14.6122 63.906 14.4102 64.2585 13.9725C64.5757 13.5349 64.752 12.8952 64.752 12.0536C64.752 11.1446 64.5757 10.4713 64.2585 10.101C63.9413 9.69698 63.4478 9.52865 62.778 9.52865C62.1083 9.52865 61.6148 9.73064 61.2976 10.101C60.9803 10.505 60.8394 11.1446 60.8394 12.0536C60.8394 12.9289 60.9803 13.5686 61.2976 13.9725C61.6501 14.3765 62.1436 14.6122 62.778 14.6122ZM81.7067 7.77802L78.7105 16.3628H76.3136L74.7627 11.5486L73.2822 16.3628H70.8853L67.8891 7.77802H70.709L72.2952 13.2319L73.7757 7.77802H75.7144L77.2653 13.3666L78.8515 7.77802H81.7067ZM86.712 7.5087C89.4967 7.5087 90.9067 9.25932 90.8714 12.7269H84.9496C85.1611 13.9052 86.0071 14.5112 87.4523 14.5112C87.8753 14.5112 88.3335 14.4439 88.7212 14.3429C89.1442 14.2082 89.6024 14.0735 90.0607 13.8715V16.0262C89.0737 16.3965 88.0162 16.5985 86.7825 16.5985C85.8661 16.5985 85.0906 16.4301 84.3856 16.0598C83.7159 15.6895 83.1519 15.1845 82.7994 14.5112C82.4117 13.8379 82.2354 13.0636 82.2354 12.1546C82.2354 10.6733 82.6232 9.49498 83.3986 8.687C84.1741 7.91269 85.2668 7.5087 86.712 7.5087ZM86.6063 9.42765C85.6546 9.42765 85.0906 9.99997 84.9143 11.1109H88.2277C88.1572 10.505 87.981 10.0673 87.7343 9.79797C87.4875 9.56231 87.0998 9.42765 86.6063 9.42765ZM92.7043 8.687C92.8806 8.55234 93.1978 8.38401 93.6208 8.18201C94.0791 8.01369 94.5725 7.84535 95.1013 7.71069C95.6653 7.57603 96.194 7.5087 96.6875 7.5087C97.6744 7.5087 98.3442 7.64336 98.7319 7.94635V9.79797C98.2737 9.69697 97.5687 9.62964 96.6875 9.62964C96.1235 9.62964 95.6653 9.66331 95.3128 9.73064V16.3628H92.7043V8.687ZM104.195 16.5985C103.314 16.5985 102.539 16.4301 101.834 16.0935C101.129 15.7568 100.565 15.2855 100.142 14.6122C99.7189 13.9389 99.5074 13.1309 99.5074 12.1882C99.5074 10.6733 99.9304 9.49498 100.776 8.72067C101.622 7.94635 102.75 7.54236 104.195 7.54236C104.689 7.54236 105.182 7.57603 105.711 7.67703C106.205 7.77802 106.663 7.91269 107.051 8.08102V10.2356C106.557 10.0336 106.134 9.86531 105.746 9.76431C105.359 9.66331 105.006 9.59598 104.618 9.59598C103.843 9.59598 103.244 9.76431 102.786 10.1346C102.363 10.505 102.116 11.0773 102.116 11.8516C102.116 12.7269 102.327 13.3666 102.715 13.7705C103.138 14.1745 103.773 14.4102 104.724 14.4102C105.429 14.4102 106.205 14.1745 107.051 13.7369V15.8915C106.628 16.0935 106.169 16.2618 105.746 16.3628C105.253 16.5311 104.759 16.5985 104.195 16.5985ZM112.937 16.6321C111.422 16.6321 110.294 16.2618 109.518 15.4875C108.778 14.7132 108.39 13.5686 108.39 12.0536C108.39 10.4713 108.778 9.32665 109.518 8.586C110.258 7.87902 111.422 7.5087 112.937 7.5087C114.453 7.5087 115.616 7.87902 116.392 8.61967C117.167 9.36032 117.555 10.505 117.555 12.0536C117.555 13.5349 117.167 14.6795 116.356 15.4538C115.546 16.2282 114.418 16.6321 112.937 16.6321ZM112.937 14.6122C113.572 14.6122 114.065 14.4102 114.418 13.9725C114.735 13.5349 114.911 12.8952 114.911 12.0536C114.911 11.1446 114.735 10.4713 114.418 10.101C114.1 9.69698 113.607 9.52865 112.937 9.52865C112.267 9.52865 111.774 9.73064 111.457 10.101C111.14 10.505 110.999 11.1446 110.999 12.0536C110.999 12.9289 111.14 13.5686 111.457 13.9725C111.774 14.3765 112.267 14.6122 112.937 14.6122ZM119.353 8.51867C119.811 8.28301 120.516 8.04735 121.467 7.84536C122.419 7.64336 123.265 7.54236 124.005 7.54236C125.274 7.54236 126.226 7.77802 126.861 8.24935C127.495 8.72067 127.812 9.49498 127.812 10.5723V16.3292H125.169V11.0773C125.169 10.101 124.605 9.59598 123.441 9.59598C123.195 9.59598 122.913 9.62965 122.631 9.69698C122.349 9.76431 122.137 9.83164 121.996 9.89897V16.3292H119.353V8.51867ZM134.369 16.5985C133.487 16.5985 132.712 16.4301 132.007 16.0935C131.302 15.7568 130.738 15.2855 130.315 14.6122C129.892 13.9389 129.68 13.1309 129.68 12.1882C129.68 10.6733 130.103 9.49498 130.949 8.72067C131.795 7.94635 132.923 7.54236 134.369 7.54236C134.862 7.54236 135.356 7.57603 135.884 7.67703C136.378 7.77802 136.836 7.91269 137.224 8.08102V10.2356C136.73 10.0336 136.307 9.86531 135.919 9.76431C135.532 9.66331 135.179 9.59598 134.792 9.59598C134.016 9.59598 133.417 9.76431 132.959 10.1346C132.536 10.505 132.289 11.0773 132.289 11.8516C132.289 12.7269 132.5 13.3666 132.888 13.7705C133.311 14.1745 133.946 14.4102 134.897 14.4102C135.602 14.4102 136.378 14.1745 137.224 13.7369V15.8915C136.801 16.0935 136.342 16.2618 135.919 16.3628C135.426 16.5311 134.933 16.5985 134.369 16.5985ZM143.04 7.5087C145.824 7.5087 147.234 9.25932 147.199 12.7269H141.277C141.489 13.9052 142.335 14.5112 143.78 14.5112C144.203 14.5112 144.661 14.4439 145.049 14.3429C145.472 14.2082 145.93 14.0735 146.388 13.8715V16.0262C145.401 16.3965 144.344 16.5985 143.11 16.5985C142.194 16.5985 141.418 16.4301 140.713 16.0598C140.044 15.6895 139.48 15.1845 139.127 14.5112C138.739 13.8379 138.563 13.0636 138.563 12.1546C138.563 10.6733 138.951 9.49498 139.726 8.687C140.502 7.91269 141.595 7.5087 143.04 7.5087ZM142.934 9.42765C141.982 9.42765 141.418 9.99997 141.242 11.1109H144.555C144.485 10.505 144.309 10.0673 144.062 9.79797C143.78 9.56231 143.428 9.42765 142.934 9.42765ZM153.297 7.5087C154.742 7.5087 155.87 7.87902 156.646 8.586C157.421 9.29299 157.844 10.505 157.844 12.1546C157.844 13.5012 157.492 14.5785 156.787 15.3865C156.082 16.1945 155.095 16.5985 153.861 16.5985C152.98 16.5985 152.204 16.4301 151.605 16.1272V19.3927H149.032V9.56231C149.032 8.88899 149.42 8.35034 150.231 8.01369C151.006 7.71069 152.028 7.5087 153.297 7.5087ZM153.086 14.5785C153.791 14.5785 154.355 14.3765 154.672 14.0062C155.024 13.6359 155.201 12.9626 155.201 12.0873C155.201 11.2793 155.06 10.6733 154.742 10.2356C154.425 9.83164 153.932 9.62964 153.191 9.62964C152.134 9.62964 151.605 9.83164 151.605 10.202V14.2419C151.817 14.3765 152.063 14.4439 152.31 14.5112C152.592 14.5449 152.839 14.5785 153.086 14.5785ZM163.343 16.6995C162.321 16.6995 161.545 16.4638 161.017 15.9925C160.488 15.5212 160.241 14.8478 160.241 14.0062V9.73064H158.937V7.81169H160.241V5.45508H162.991V7.81169H164.965V9.73064H162.991V13.7032C162.991 14.0062 163.061 14.2082 163.202 14.3429C163.343 14.4775 163.555 14.5449 163.872 14.5449C164.048 14.5449 164.26 14.5112 164.471 14.4439C164.683 14.3765 164.859 14.3092 165 14.1745V16.3292C164.542 16.5985 164.013 16.6995 163.343 16.6995Z" fill="#33A648"/>
</svg>
