<svg width="24" height="24" viewBox="0 0 24 24" fill="none" xmlns="http://www.w3.org/2000/svg">
<path d="M23.3168 20.0114C23.2564 19.951 23.1907 19.8925 23.1216 19.8373L18.428 15.6991C21.0665 11.7841 20.6561 6.41096 17.1954 2.95033C15.293 1.04798 12.7632 0 10.0729 0C7.38252 0 4.85277 1.04761 2.95038 2.95033C1.048 4.85268 0 7.38239 0 10.0727C0 12.763 1.04762 15.2927 2.95038 17.1951C4.85277 19.0974 7.38252 20.145 10.0729 20.145C12.2375 20.145 14.2975 19.4663 16.0112 18.2108C16.1706 18.1357 16.2749 18.0554 16.38 17.9508L17.1927 17.1981L17.1957 17.1951L17.1984 17.1921L17.5229 16.8675L22.1611 20.957C22.172 20.9667 22.1832 20.9758 22.1945 20.9848C22.2241 21.008 22.25 21.0305 22.2736 21.0545C22.4365 21.2174 22.5262 21.4339 22.5262 21.6639C22.5262 21.8939 22.4365 22.1104 22.2736 22.2733C21.9378 22.6094 21.3907 22.6094 21.0549 22.2733C21.0313 22.2496 21.0084 22.2233 20.9848 22.1933C20.9757 22.1821 20.9667 22.1708 20.957 22.1599L17.7991 18.5774C17.5297 18.2719 17.0637 18.2423 16.7579 18.5117C16.4521 18.7811 16.4228 19.2471 16.6922 19.5529L19.8369 23.1209C19.8925 23.1907 19.951 23.2563 20.0114 23.3167C20.4669 23.7722 21.0654 24 21.6639 24C22.2624 24 22.8609 23.7722 23.3164 23.3167C24.2278 22.405 24.2278 20.9225 23.3168 20.0114ZM3.9935 16.152C2.36954 14.528 1.47538 12.369 1.47538 10.0727C1.47538 7.77637 2.36954 5.61737 3.9935 3.99343C5.61747 2.3695 7.77651 1.47535 10.0729 1.47535C12.3692 1.47535 14.5283 2.3695 16.1522 3.99343C19.5034 7.3445 19.5045 12.7968 16.1549 16.149L16.1492 16.1546C14.5257 17.7767 12.3681 18.6697 10.0729 18.6697C7.77613 18.67 5.6171 17.7755 3.9935 16.152Z" fill="white"/>
</svg>
