<svg width="36" height="36" viewBox="0 0 36 36" fill="none" xmlns="http://www.w3.org/2000/svg">
<g clip-path="url(#clip0_631_3279)">
<path d="M18.0042 35.9997C15.2907 35.9997 12.5657 35.9997 9.86368 35.827C8.0056 35.789 6.19849 35.2118 4.66164 34.1655C3.12478 33.1192 1.92426 31.6487 1.20574 29.9326C0.741536 28.8731 0.450376 27.7459 0.343398 26.5939C-0.00650531 22.3438 -0.102492 18.0765 0.0559497 13.8149C0.0721033 12.1486 0.179579 10.4844 0.377892 8.82991C0.501767 7.17513 1.08232 5.58734 2.0548 4.24364C3.02729 2.89994 4.35346 1.85316 5.8854 1.22006C7.19881 0.670649 8.59314 0.340092 10.0132 0.241485C14.3019 -0.138432 18.5906 -0.000279927 22.8908 0.0572832C24.3342 0.0649999 25.7752 0.176576 27.2025 0.39115C29.6887 0.657065 31.9796 1.86368 33.6069 3.76435C34.5425 4.9044 35.1859 6.256 35.4811 7.70167C35.7927 9.2165 35.943 10.7601 35.9295 12.3067C35.9295 15.5303 36.0215 18.7653 35.9985 22.0004C35.9762 23.7096 35.8572 25.4162 35.642 27.112C35.4786 29.0636 34.7086 30.9148 33.4403 32.4057C32.172 33.8966 30.4691 34.9522 28.5708 35.4241C26.946 35.8205 25.2752 35.9948 23.6037 35.9422C21.7295 35.9422 19.8439 35.9422 17.9697 35.9422L18.0042 35.9997ZM18.0042 3.93704V4.00612C16.0151 4.00612 14.0374 4.00612 12.0598 4.00612C10.5003 3.95615 8.94406 4.1782 7.46061 4.66234C6.74454 4.91138 6.09472 5.32086 5.5607 5.85955C5.02668 6.39824 4.62256 7.05192 4.37917 7.77075C4.0177 8.98352 3.85842 10.2477 3.90775 11.5124C3.82727 14.7474 3.78128 17.9709 3.80427 21.206C3.74853 23.2379 3.89489 25.2703 4.24119 27.2731C4.41786 28.2264 4.86955 29.1069 5.54046 29.8059C6.64815 30.8782 8.10646 31.5122 9.64522 31.5904C10.929 31.7171 12.2186 31.7747 13.5085 31.7631C17.3948 31.7631 21.2735 31.7439 25.1444 31.7055C26.2521 31.6793 27.3478 31.4692 28.3868 31.0838C29.2073 30.8407 29.9489 30.3846 30.5365 29.7618C31.1241 29.1391 31.5368 28.3719 31.7327 27.5379C31.9785 26.5215 32.1324 25.4851 32.1926 24.441C32.3881 20.6879 32.3881 16.9233 32.2731 13.1702C32.2846 11.6264 32.1538 10.0848 31.8822 8.56512C31.7311 7.73321 31.3726 6.95298 30.84 6.29686C30.3073 5.64074 29.6177 5.12999 28.8353 4.812C27.6779 4.34022 26.44 4.09781 25.1904 4.09822C22.8103 4.09822 20.4418 4.00612 18.0732 3.97158" fill="white"/>
<path d="M9.19906 18.6503C9.1343 16.7506 9.67405 14.8794 10.7404 13.3067C11.8068 11.7341 13.3446 10.5414 15.132 9.90073C16.6031 9.3556 18.2002 9.24766 19.7312 9.58989C21.2244 9.88327 22.6146 10.564 23.7627 11.5641C24.9108 12.5641 25.7766 13.8485 26.2735 15.2886C26.8904 16.8816 27.0028 18.626 26.5954 20.2851C26.291 21.751 25.6165 23.1144 24.6363 24.2451C23.656 25.3757 22.4027 26.236 20.9959 26.7437C19.6266 27.2859 18.133 27.4335 16.6842 27.1697C15.1084 26.9392 13.6258 26.2808 12.3974 25.2659C11.169 24.2511 10.2418 22.9187 9.71647 21.4134C9.36569 20.535 9.18992 19.5963 9.19906 18.6503ZM17.995 13.2164C16.9752 13.1912 15.9712 13.4711 15.1111 14.0203C14.2511 14.5694 13.5742 15.363 13.1669 16.2994C12.7596 17.2358 12.6405 18.2725 12.8248 19.2771C13.0091 20.2816 13.4884 21.2083 14.2014 21.9387C14.9145 22.6691 15.8289 23.1699 16.8277 23.3772C17.8265 23.5845 18.8644 23.4888 19.8086 23.1024C20.7528 22.716 21.5605 22.0564 22.1284 21.208C22.6963 20.3596 22.9985 19.3608 22.9966 18.3395C23.0026 17.6699 22.8763 17.0057 22.625 16.3851C22.3736 15.7645 22.0021 15.1999 21.5318 14.7237C21.0616 14.2476 20.5019 13.8692 19.8851 13.6105C19.2682 13.3518 18.6063 13.2179 17.9375 13.2164" fill="white"/>
<path d="M25.4796 9.54388C25.4796 9.00038 25.6952 8.47915 26.0791 8.09484C26.4629 7.71053 26.9835 7.49463 27.5263 7.49463C28.0691 7.49463 28.5896 7.71053 28.9734 8.09484C29.3573 8.47915 29.5729 9.00038 29.5729 9.54388C29.5729 10.0895 29.358 10.6131 28.9749 11.0011C28.5917 11.3891 28.0712 11.6101 27.5263 11.6162C27.2555 11.6162 26.9875 11.5624 26.7377 11.458C26.4879 11.3536 26.2612 11.2006 26.0709 11.0078C25.8805 10.8151 25.7303 10.5865 25.6288 10.3352C25.5273 10.0839 25.4766 9.81492 25.4796 9.54388Z" fill="white"/>
</g>
<defs>
<clipPath id="clip0_631_3279">
<rect width="36" height="36" fill="white"/>
</clipPath>
</defs>
</svg>
