<svg width="37" height="36" viewBox="0 0 37 36" fill="none" xmlns="http://www.w3.org/2000/svg">
<g clip-path="url(#clip0_631_3285)">
<path d="M37 5.35929V30.6517C37 30.6517 36.9415 30.7201 36.9415 30.7657C36.7806 31.7588 36.3696 32.6974 35.7455 33.4974C35.1214 34.2975 34.3036 34.9339 33.3654 35.3498C32.7614 35.5938 32.1405 35.7957 31.5072 35.9542H24.2031C24.2031 35.8059 24.2031 35.6577 24.2031 35.498V22.3729H30.3853V16.3976H24.2849C24.2849 15.4398 24.2264 14.5047 24.2849 13.5924C24.298 13.4184 24.3468 13.2486 24.4286 13.0934C24.5103 12.9381 24.6233 12.8005 24.7607 12.6888C24.8981 12.5771 25.0572 12.4935 25.2284 12.443C25.3997 12.3925 25.5796 12.3762 25.7574 12.3951H30.4321V6.4312H30.2451C28.6557 6.4312 27.0897 6.4312 25.512 6.4312C24.9583 6.4312 24.4074 6.50799 23.8758 6.65926C22.507 7.07497 21.2903 7.86751 20.3719 8.94165C19.4535 10.0158 18.8724 11.3258 18.6987 12.7144C18.5675 13.8194 18.5129 14.9319 18.535 16.0441V16.4432H14.024V22.4071H18.5V35.9998H5.5044C5.4521 35.9722 5.39733 35.9493 5.34079 35.9314C3.87381 35.6774 2.54149 34.9375 1.56855 33.8365C0.595616 32.7355 0.0416087 31.3408 -2.3406e-05 29.8876C-2.3406e-05 21.9624 -2.34069e-05 14.06 -2.34069e-05 6.13471C-0.0117109 5.9144 -0.0117109 5.69364 -2.3406e-05 5.47333C0.210951 3.97895 0.961074 2.60693 2.11561 1.6037C3.27015 0.600476 4.75345 0.0317857 6.29909 -0.000225034C14.4798 -0.000225034 22.5319 -0.000225034 30.6541 -0.000225034C31.8393 -0.0236937 33.0064 0.286457 34.0157 0.893133C35.025 1.49981 35.8339 2.37733 36.3455 3.42074C36.6177 4.04055 36.8366 4.68133 37 5.33649" fill="white"/>
</g>
<defs>
<clipPath id="clip0_631_3285">
<rect width="37" height="36" fill="white"/>
</clipPath>
</defs>
</svg>
