<svg width="80" height="80" viewBox="0 0 80 80" fill="none" xmlns="http://www.w3.org/2000/svg">
<g clip-path="url(#clip0_1618_12210)">
<path fill-rule="evenodd" clip-rule="evenodd" d="M2.58065 10.3226H1.29032C0.948108 10.3226 0.619909 10.1866 0.377927 9.94465C0.135944 9.70267 0 9.37447 0 9.03226V1.29032C0 0.948108 0.135944 0.619909 0.377927 0.377927C0.619909 0.135944 0.948108 0 1.29032 0H47.7419C48.0841 0 48.4123 0.135944 48.6543 0.377927C48.8963 0.619909 49.0323 0.948108 49.0323 1.29032V9.03226C49.0323 9.37447 48.8963 9.70267 48.6543 9.94465C48.4123 10.1866 48.0841 10.3226 47.7419 10.3226H46.4516V11.6129C46.4481 15.5865 45.366 19.4846 43.3208 22.8914C41.2756 26.2982 38.344 29.086 34.8387 30.9574V30.9677H34.8168C31.6477 32.662 28.1097 33.5484 24.5161 33.5484C20.9226 33.5484 17.3845 32.662 14.2155 30.9677H14.1935V30.9574C10.6882 29.086 7.75665 26.2982 5.71146 22.8914C3.66627 19.4846 2.5842 15.5865 2.58065 11.6129V10.3226ZM16.7742 23.2258V29.3406C19.2141 30.414 21.8506 30.9683 24.5161 30.9683C27.1817 30.9683 29.8182 30.414 32.2581 29.3406V23.2258C32.2581 21.1725 31.4424 19.2033 29.9905 17.7514C28.5386 16.2995 26.5694 15.4839 24.5161 15.4839C22.4628 15.4839 20.4936 16.2995 19.0418 17.7514C17.5899 19.2033 16.7742 21.1725 16.7742 23.2258ZM41.4583 20.947C43.0377 18.0893 43.8677 14.8781 43.871 11.6129V10.3226H5.16129V11.6129C5.16453 14.8781 5.99453 18.0893 7.57392 20.947C9.1533 23.8048 11.4306 26.2161 14.1935 27.9561V23.2258C14.1935 20.4881 15.2811 17.8625 17.217 15.9266C19.1528 13.9908 21.7784 12.9032 24.5161 12.9032C27.2538 12.9032 29.8794 13.9908 31.8153 15.9266C33.7512 17.8625 34.8387 20.4881 34.8387 23.2258V27.9561C37.6016 26.2161 39.879 23.8048 41.4583 20.947ZM46.4516 2.58065H2.58065V7.74194H46.4516V2.58065ZM21.6488 18.9344C22.4975 18.3673 23.4954 18.0646 24.5162 18.0646C25.8851 18.0646 27.1979 18.6083 28.1658 19.5763C29.1337 20.5442 29.6775 21.857 29.6775 23.2258C29.6775 24.2467 29.3748 25.2445 28.8077 26.0933C28.2406 26.9421 27.4345 27.6036 26.4914 27.9943C25.5483 28.3849 24.5105 28.4871 23.5093 28.288C22.5081 28.0888 21.5885 27.5972 20.8667 26.8754C20.1448 26.1536 19.6533 25.234 19.4541 24.2328C19.255 23.2316 19.3572 22.1938 19.7478 21.2507C20.1385 20.3076 20.8 19.5015 21.6488 18.9344ZM23.0825 25.3716C23.5069 25.6551 24.0058 25.8065 24.5162 25.8065C25.2007 25.8065 25.8571 25.5346 26.341 25.0506C26.825 24.5667 27.0969 23.9103 27.0969 23.2258C27.0969 22.7154 26.9455 22.2165 26.662 21.7921C26.3784 21.3677 25.9754 21.037 25.5038 20.8416C25.0323 20.6463 24.5134 20.5952 24.0128 20.6948C23.5122 20.7944 23.0524 21.0401 22.6914 21.4011C22.3305 21.762 22.0847 22.2218 21.9852 22.7224C21.8856 23.223 21.9367 23.7419 22.132 24.2134C22.3274 24.685 22.6581 25.088 23.0825 25.3716ZM73.5484 20.6451H52.9032C51.1928 20.6471 49.553 21.3275 48.3435 22.537C47.134 23.7464 46.4537 25.3862 46.4516 27.0967V59.3547H10.3226V37.4193C10.3226 36.3926 9.91475 35.408 9.1888 34.6821C8.46285 33.9561 7.47826 33.5483 6.45161 33.5483C5.42497 33.5483 4.44037 33.9561 3.71443 34.6821C2.98848 35.408 2.58065 36.3926 2.58065 37.4193V59.3547H1.29032C0.948108 59.3547 0.619909 59.4907 0.377927 59.7327C0.135944 59.9746 0 60.3028 0 60.6451V78.7096C0 79.0518 0.135944 79.38 0.377927 79.622C0.619909 79.864 0.948108 79.9999 1.29032 79.9999H65.8064C66.1487 79.9999 66.4769 79.864 66.7188 79.622C66.9608 79.38 67.0968 79.0518 67.0968 78.7096V74.8386H73.5484C75.2588 74.8366 76.8986 74.1562 78.1081 72.9467C79.3176 71.7372 79.9979 70.0974 80 68.387V27.0967C79.9979 25.3862 79.3176 23.7464 78.1081 22.537C76.8986 21.3275 75.2588 20.6471 73.5484 20.6451ZM70.4335 23.2257L67.8529 25.8064H58.5987L56.0181 23.2257H70.4335ZM52.4181 23.2747L57.1523 28.0089C57.3942 28.2509 57.7223 28.3869 58.0645 28.387H68.3871C68.7293 28.3869 69.0574 28.2509 69.2994 28.0089L74.0335 23.2747C74.9662 23.3909 75.8246 23.8431 76.4479 24.5466C77.0711 25.2502 77.4165 26.1568 77.4193 27.0967V30.9676H49.0323V27.0967C49.0351 26.1568 49.3805 25.2502 50.0037 24.5466C50.627 23.8431 51.4854 23.3909 52.4181 23.2747ZM77.4193 33.5483V61.9354H49.0323V33.5483H77.4193ZM5.16129 37.4193C5.16129 37.077 5.29723 36.7488 5.53922 36.5069C5.7812 36.2649 6.1094 36.1289 6.45161 36.1289C6.79383 36.1289 7.12203 36.2649 7.36401 36.5069C7.60599 36.7488 7.74194 37.077 7.74194 37.4193V59.3547H5.16129V37.4193ZM64.5161 77.4193H2.58065V61.9354H46.4516V68.387C46.4537 70.0974 47.134 71.7372 48.3435 72.9467C49.553 74.1562 51.1928 74.8366 52.9032 74.8386H64.5161V77.4193ZM73.5484 72.258H52.9032C51.8766 72.258 50.892 71.8501 50.166 71.1242C49.4401 70.3982 49.0323 69.4136 49.0323 68.387V64.516H77.4193V68.387C77.4193 69.4136 77.0115 70.3982 76.2856 71.1242C75.5596 71.8501 74.575 72.258 73.5484 72.258ZM60.6451 67.0967H65.8064V69.6773H60.6451V67.0967ZM54.1935 50.3227C54.1887 51.9422 54.6194 53.5331 55.4405 54.929C56.2616 56.3248 57.4429 57.4743 58.8607 58.2569C60.2785 59.0395 61.8807 59.4265 63.4994 59.3774C65.1181 59.3284 66.6939 58.845 68.0616 57.9779C69.4294 57.1108 70.5389 55.892 71.274 54.4489C72.009 53.0059 72.3426 51.3918 72.2397 49.7756C72.1368 48.1594 71.6013 46.6006 70.6892 45.2624C69.7772 43.9242 68.5221 42.8558 67.0554 42.1692C66.9598 41.2199 66.5151 40.3399 65.8075 39.7C65.0999 39.06 64.1798 38.7057 63.2257 38.7057C62.2716 38.7057 61.3515 39.06 60.6439 39.7C59.9363 40.3399 59.4916 41.2199 59.396 42.1692C57.8451 42.8953 56.5326 44.0473 55.6114 45.4909C54.6903 46.9345 54.1985 48.6103 54.1935 50.3227ZM61.9354 42.5808C61.9354 42.2386 62.0713 41.9104 62.3133 41.6684C62.5553 41.4264 62.8835 41.2905 63.2257 41.2905C63.5679 41.2905 63.8961 41.4264 64.1381 41.6684C64.3801 41.9104 64.516 42.2386 64.516 42.5808V47.7421C64.516 48.0843 64.3801 48.4125 64.1381 48.6545C63.8961 48.8965 63.5679 49.0324 63.2257 49.0324C62.8835 49.0324 62.5553 48.8965 62.3133 48.6545C62.0713 48.4125 61.9354 48.0843 61.9354 47.7421V42.5808ZM59.3547 45.1614V47.7421C59.3547 48.7687 59.7626 49.7533 60.4885 50.4793C61.2145 51.2052 62.1991 51.613 63.2257 51.613C64.2524 51.613 65.2369 51.2052 65.9629 50.4793C66.6888 49.7533 67.0967 48.7687 67.0967 47.7421V45.1614C68.1799 45.9739 68.9801 47.1066 69.3839 48.3991C69.7876 49.6916 69.7744 51.0783 69.3462 52.3629C68.9181 53.6475 68.0965 54.7648 66.998 55.5565C65.8995 56.3483 64.5798 56.7743 63.2257 56.7743C61.8716 56.7743 60.5519 56.3483 59.4534 55.5565C58.3549 54.7648 57.5334 53.6475 57.1052 52.3629C56.677 51.0783 56.6638 49.6916 57.0676 48.3991C57.4713 47.1066 58.2715 45.9739 59.3547 45.1614ZM6.45185 64.5162H37.4196C37.7618 64.5162 38.09 64.6521 38.332 64.8941C38.574 65.1361 38.7099 65.4643 38.7099 65.8065V73.5485C38.7099 73.8907 38.574 74.2189 38.332 74.4609C38.09 74.7028 37.7618 74.8388 37.4196 74.8388H6.45185C6.10964 74.8388 5.78144 74.7028 5.53946 74.4609C5.29747 74.2189 5.16153 73.8907 5.16153 73.5485V65.8065C5.16153 65.4643 5.29747 65.1361 5.53946 64.8941C5.78144 64.6521 6.10964 64.5162 6.45185 64.5162ZM7.74217 72.2581H36.1293V67.0968H7.74217V72.2581ZM43.8708 72.258H41.2901V74.8386H43.8708V72.258ZM41.2901 64.5162H43.8708V67.0968H41.2901V64.5162ZM42.2024 40.9121L40.3779 39.0876L39.6218 39.8437C38.2115 41.254 37.4192 43.1667 37.4192 45.1611C37.4192 47.1555 38.2115 49.0683 39.6218 50.4785L40.3779 51.2347L42.2024 49.4102L41.4463 48.654C40.5201 47.7275 39.9999 46.4711 39.9999 45.1611C39.9999 43.8511 40.5201 42.5947 41.4463 41.6682L42.2024 40.9121ZM38.3329 37.0399L38.1123 37.2619C37.0747 38.299 36.2516 39.5303 35.69 40.8856C35.1284 42.2409 34.8394 43.6936 34.8394 45.1606C34.8394 46.6276 35.1284 48.0803 35.69 49.4356C36.2516 50.7908 37.0747 52.0222 38.1123 53.0593L38.3342 53.2825L36.5071 55.1045L36.2865 54.8825C35.0095 53.6059 33.9966 52.0903 33.3055 50.4222C32.6145 48.7541 32.2588 46.9662 32.2588 45.1606C32.2588 43.355 32.6145 41.5671 33.3055 39.899C33.9966 38.2309 35.0095 36.7152 36.2865 35.4387L36.5058 35.218L38.3329 37.0399Z" fill="url(#paint0_linear_1618_12210)"/>
</g>
<defs>
<linearGradient id="paint0_linear_1618_12210" x1="77.2881" y1="39.9992" x2="2.2188" y2="39.9992" gradientUnits="userSpaceOnUse">
<stop stop-color="#203569"/>
<stop offset="1" stop-color="#33A648"/>
</linearGradient>
<clipPath id="clip0_1618_12210">
<rect width="80" height="80" fill="white"/>
</clipPath>
</defs>
</svg>
