<svg width="88" height="88" viewBox="0 0 88 88" fill="none" xmlns="http://www.w3.org/2000/svg">
<g clip-path="url(#clip0_1618_12127)" filter="url(#filter0_d_1618_12127)">
<path fill-rule="evenodd" clip-rule="evenodd" d="M70.2502 36.5616C70.444 36.5616 70.6378 36.521 70.8235 36.4319C72.7775 35.4995 74.5458 34.2348 76.088 32.6863C83.5245 25.2196 83.5245 13.0668 76.088 5.60007C68.6515 -1.86669 56.548 -1.86669 49.1115 5.60007C47.5693 7.14855 46.3177 8.92403 45.3811 10.886C45.0662 11.5589 45.3407 12.3615 46.0109 12.6777C46.6811 12.9939 47.4805 12.7101 47.7954 12.0453C48.5947 10.359 49.6767 8.83485 51.0009 7.50527C57.3958 1.08434 67.7956 1.08434 74.1905 7.50527C80.5854 13.9262 80.5854 24.3683 74.1905 30.7892C72.8663 32.1188 71.3403 33.2052 69.6689 34.0078C68.9987 34.324 68.7161 35.1266 69.0391 35.7995C69.2732 36.2859 69.7577 36.5616 70.2502 36.5616ZM58.2271 29.6381L61.5133 26.3384C61.8686 26.3952 62.24 26.4195 62.6114 26.4195C64.5493 26.4195 66.366 25.6656 67.7387 24.2873C70.5647 21.4498 70.5647 16.8287 67.7387 13.9911C66.366 12.6129 64.5493 11.8589 62.6114 11.8589C60.6736 11.8589 58.8569 12.6129 57.4842 13.9911C55.7967 15.6856 55.1184 18.0204 55.4495 20.2337L52.1632 23.5334L35.3685 6.67032C34.8275 6.12713 34.0766 5.81906 33.3015 5.84338C32.5344 5.8596 31.7997 6.2001 31.2829 6.77571C30.2575 7.91072 29.3289 9.1187 28.4972 10.3834L28.4846 10.4019C28.4701 10.4231 28.453 10.4479 28.4407 10.4726C25.3886 15.118 23.6526 20.5094 23.4023 26.1196C23.3988 26.1213 23.3957 26.1227 23.3928 26.1238C23.389 26.1254 23.3856 26.1265 23.3821 26.1277C23.3761 26.1297 23.37 26.1317 23.3619 26.1358C23.1843 29.7029 23.6365 33.2539 24.67 36.659C24.6781 36.6549 24.6881 36.6508 24.6982 36.6468C24.7083 36.6427 24.7184 36.6387 24.7265 36.6346C26.196 41.4584 28.8041 45.8525 32.4052 49.4684C32.7766 49.8413 33.1642 50.2061 33.5518 50.5628C33.4872 50.9601 33.4468 51.3655 33.4468 51.787V57.4053L26.5958 71.1631H25.7847H4V79.9999H83.9929V71.1631H81.0619H54.8071L48.2148 57.9729C50.2334 58.3782 52.2682 58.5728 54.2787 58.5728C60.3022 58.5728 66.2045 56.7973 71.2672 53.4328C71.2752 53.4328 71.2752 53.4247 71.2833 53.4247C72.551 52.5815 73.7621 51.6411 74.9087 50.6034C75.4739 50.0845 75.813 49.3549 75.8372 48.5847C75.8534 47.8145 75.5546 47.0524 75.0137 46.5092L58.2271 29.6381ZM51.7917 71.1631L45.7683 59.0754H35.6027L29.5874 71.1631H51.7917ZM59.3736 15.9045C60.2376 15.037 61.3841 14.5586 62.6114 14.5586C63.8307 14.5586 64.9853 15.037 65.8493 15.9045C67.6337 17.6961 67.6337 20.6066 65.8493 22.3983C64.9853 23.2658 63.8387 23.7441 62.6114 23.7441C61.3922 23.7441 60.2376 23.2658 59.3736 22.3983C57.5892 20.6066 57.5892 17.688 59.3736 15.9045ZM56.4668 23.0145C56.7494 23.4685 57.0886 23.8982 57.4842 24.2954C57.8718 24.6846 58.2997 25.0251 58.76 25.3169L56.3457 27.741L54.0607 25.4467L56.4668 23.0145ZM36.1194 56.3838V51.7951C36.1194 49.2657 38.1703 47.2065 40.6895 47.2065C43.2087 47.2065 45.2596 49.2657 45.2596 51.7951V56.1244C45.2543 56.1617 45.256 56.1989 45.2577 56.2385V56.2385L45.2589 56.2663C45.2593 56.2782 45.2596 56.2903 45.2596 56.3028V56.3919H36.1194V56.3838ZM47.9403 55.1678V51.7951C47.9403 47.7821 44.6863 44.5149 40.6895 44.5149C38.13 44.5149 35.8772 45.8526 34.5853 47.8713C34.5369 47.8226 34.4864 47.774 34.436 47.7253C34.3855 47.6767 34.335 47.628 34.2866 47.5794C30.2736 43.5501 27.5929 38.475 26.5271 32.9053C26.5271 32.891 26.5215 32.8823 26.5152 32.8726C26.5108 32.8658 26.5062 32.8585 26.5029 32.8486C26.196 31.1866 26.0265 29.4922 26.0184 27.7896V27.7653C26.0184 27.7167 26.0204 27.6681 26.0224 27.6195L26.0224 27.6194C26.0245 27.5707 26.0265 27.5221 26.0265 27.4735C26.0345 26.8249 26.0507 26.1763 26.0991 25.5277C26.406 21.1985 27.6736 17.0232 29.8214 13.3101L68.4008 52.0465C62.2804 55.638 54.9973 56.7892 47.9403 55.1678ZM73.1243 48.6009C72.3491 49.3062 71.5417 49.9548 70.702 50.5628L31.3152 11.0158C31.9208 10.1726 32.5667 9.36192 33.2611 8.58362C33.2853 8.55119 33.3176 8.54309 33.358 8.53498C33.3984 8.53498 33.4307 8.55119 33.463 8.57552L51.2024 26.3871L55.3849 30.5866L73.1243 48.4063C73.1566 48.4388 73.1646 48.4712 73.1646 48.5117C73.1646 48.5441 73.1566 48.5766 73.1243 48.6009ZM64.38 30.9674C64.1862 30.2459 64.6141 29.5162 65.3247 29.3217C67.093 28.8433 68.7159 27.9029 70.024 26.5976C74.1096 22.4954 74.1096 15.815 70.024 11.7128C65.9383 7.61052 59.2851 7.61052 55.1994 11.7128C53.8995 13.0261 52.9628 14.6557 52.4864 16.4312C52.2926 17.1446 51.5579 17.5743 50.8473 17.3797C50.1368 17.1852 49.7088 16.4474 49.9026 15.734C50.4921 13.4964 51.6709 11.4533 53.31 9.80758C58.4372 4.65138 66.7861 4.65138 71.9214 9.80758C77.0567 14.9557 77.0567 23.3385 71.9214 28.4947C70.2823 30.1324 68.2395 31.3161 66.0191 31.916C65.906 31.9484 65.7849 31.9646 65.6719 31.9646C65.0825 31.9646 64.5415 31.5674 64.38 30.9674ZM6.931 77.057H81.0619V74.106H6.931V77.057Z" fill="url(#paint0_linear_1618_12127)"/>
</g>
<defs>
<filter id="filter0_d_1618_12127" x="0" y="0" width="88" height="88" filterUnits="userSpaceOnUse" color-interpolation-filters="sRGB">
<feFlood flood-opacity="0" result="BackgroundImageFix"/>
<feColorMatrix in="SourceAlpha" type="matrix" values="0 0 0 0 0 0 0 0 0 0 0 0 0 0 0 0 0 0 127 0" result="hardAlpha"/>
<feOffset dy="4"/>
<feGaussianBlur stdDeviation="2"/>
<feComposite in2="hardAlpha" operator="out"/>
<feColorMatrix type="matrix" values="0 0 0 0 0 0 0 0 0 0 0 0 0 0 0 0 0 0 0.25 0"/>
<feBlend mode="normal" in2="BackgroundImageFix" result="effect1_dropShadow_1618_12127"/>
<feBlend mode="normal" in="SourceGraphic" in2="effect1_dropShadow_1618_12127" result="shape"/>
</filter>
<linearGradient id="paint0_linear_1618_12127" x1="81.2812" y1="39.9993" x2="6.2186" y2="39.9993" gradientUnits="userSpaceOnUse">
<stop stop-color="#203569"/>
<stop offset="1" stop-color="#33A648"/>
</linearGradient>
<clipPath id="clip0_1618_12127">
<rect width="80" height="80" fill="white" transform="translate(4)"/>
</clipPath>
</defs>
</svg>
