<svg width="80" height="80" viewBox="0 0 80 80" fill="none" xmlns="http://www.w3.org/2000/svg">
<path fill-rule="evenodd" clip-rule="evenodd" d="M61.9354 76.9354C57.6129 76.9354 53.9083 74.2619 52.3729 70.4838H19.8851C18.3497 74.2619 14.6451 76.9354 10.3226 76.9354C4.63096 76.9354 0 72.3045 0 66.6129V60.1612C0 57.4051 0.970322 54.8722 2.58064 52.8787V44.6774C2.58064 42.9974 3.66322 41.578 5.16129 41.0438V39.5161H1.29032C0.578064 39.5161 0 38.938 0 38.2258V34.3548C0 33.6426 0.578064 33.0645 1.29032 33.0645H3.87096C6.00516 33.0645 7.74193 34.8013 7.74193 36.9355V40.8064H9.03225V32.6477L3.39096 30.391C3.03097 30.2464 2.75355 29.9471 2.63871 29.5755C2.52387 29.2039 2.58193 28.8013 2.79742 28.4774L5.37806 24.6064C5.59225 24.2852 5.93935 24.0761 6.32387 24.0387C6.71354 23.9961 7.09032 24.1381 7.36386 24.4103L11.2348 28.2813C11.4774 28.5226 11.6129 28.8516 11.6129 29.1935V40.8064H12.9032V22.7419H9.03225C6.89806 22.7419 5.16129 21.0052 5.16129 18.871C5.16129 16.7368 6.89806 15 9.03225 15H63.2258C65.3599 15 67.0967 16.7368 67.0967 18.871C67.0967 21.0052 65.3599 22.7419 63.2258 22.7419H55.9277L62.7999 45.6503C70.1354 48.0619 75.5315 54.7419 76.0632 62.7419H76.129C78.2632 62.7419 79.9999 64.4787 79.9999 66.6129C79.9999 68.747 78.2632 70.4838 76.129 70.4838H71.498C69.9625 74.2619 66.258 76.9354 61.9354 76.9354ZM61.9354 76.9354H10.3226H0V79.5161H79.9999V76.9354H61.9354ZM6.6529 27.3484L5.82709 28.5858L9.03225 29.8684V29.7277L6.6529 27.3484ZM20.6451 66.6129C20.6451 67.0503 20.609 67.4799 20.5561 67.9032H51.7019C51.649 67.4799 51.6129 67.0503 51.6129 66.6129C51.6129 66.1754 51.649 65.7458 51.7032 65.3225H20.5561C20.609 65.7458 20.6451 66.1754 20.6451 66.6129ZM20.6451 31.7742V48.5484H23.2258V31.7742C23.2258 31.0632 22.6464 30.4839 21.9355 30.4839C21.2245 30.4839 20.6451 31.0632 20.6451 31.7742ZM34.8387 45.9677H25.8064V48.5484H32.258H34.8387C35.5496 48.5484 36.129 47.969 36.129 47.258C36.129 46.5471 35.5496 45.9677 34.8387 45.9677ZM40 60.1612H33.5484V62.7419H43.6335C43.0993 61.2438 41.68 60.1612 40 60.1612ZM54.1935 66.6129C54.1935 70.8825 57.6658 74.3548 61.9354 74.3548C66.2051 74.3548 69.6774 70.8825 69.6774 66.6129C69.6774 62.3432 66.2051 58.8709 61.9354 58.8709C57.6658 58.8709 54.1935 62.3432 54.1935 66.6129ZM76.129 67.9032C76.8399 67.9032 77.4193 67.3238 77.4193 66.6129C77.4193 65.9019 76.8399 65.3225 76.129 65.3225H72.169C72.2219 65.7458 72.258 66.1754 72.258 66.6129C72.258 67.0503 72.2219 67.4799 72.169 67.9032H76.129ZM71.498 62.7419H73.4838C72.8335 54.249 65.8438 47.5019 57.2438 47.2645L56.4193 47.9716C52.0541 51.7135 49.4503 57.0425 49.1019 62.7419H52.3729C53.9083 58.9638 57.6129 56.2903 61.9354 56.2903C66.258 56.2903 69.9625 58.9638 71.498 62.7419ZM9.03225 17.5806C8.32128 17.5806 7.74193 18.16 7.74193 18.871C7.74193 19.5819 8.32128 20.1613 9.03225 20.1613H63.2258C63.9367 20.1613 64.5161 19.5819 64.5161 18.871C64.5161 18.16 63.9367 17.5806 63.2258 17.5806H9.03225ZM59.8967 44.9535L53.2335 22.7419H15.4839V48.5471H18.0645V31.7729C18.0645 29.6387 19.8013 27.9019 21.9355 27.9019C24.0697 27.9019 25.8064 29.6387 25.8064 31.7729V43.3858H34.8387C36.9729 43.3858 38.7096 45.1226 38.7096 47.2567C38.7096 49.3909 36.9729 51.1277 34.8387 51.1277H33.5484V57.5793H40C43.1161 57.5793 45.7212 59.8 46.3212 62.7406H46.5213C46.778 58.0387 48.3896 53.5548 51.1716 49.8322L42.5251 40.1058L39.6219 43.009L37.7974 41.1845L45.5393 33.4426L47.3638 35.2671L44.3535 38.2774L52.8438 47.8296C53.4387 47.1935 54.0696 46.5858 54.7393 46.0116L55.9341 44.9884C56.1677 44.7871 56.4658 44.6774 56.7741 44.6774C57.84 44.6774 58.8774 44.7871 59.8967 44.9535ZM2.58064 35.6451V36.9355H5.16129C5.16129 36.2245 4.58193 35.6451 3.87096 35.6451H2.58064ZM12.9032 43.3871H6.45161C5.74064 43.3871 5.16129 43.9664 5.16129 44.6774V50.5122C7.00774 49.2735 9.22709 48.5484 11.6129 48.5484H12.9032V43.3871ZM30.9677 51.129H24.5161H11.6129C6.7587 51.129 2.79742 54.9806 2.6 59.7871C4.4929 57.6477 7.24903 56.2903 10.3226 56.2903C14.6451 56.2903 18.3497 58.9638 19.8851 62.7419H30.9677V51.129ZM2.58064 66.6129C2.58064 70.8825 6.0529 74.3548 10.3226 74.3548C14.5922 74.3548 18.0645 70.8825 18.0645 66.6129C18.0645 62.3432 14.5922 58.8709 10.3226 58.8709C6.0529 58.8709 2.58064 62.3432 2.58064 66.6129ZM5.16144 66.6129C5.16144 63.7664 7.47627 61.4516 10.3227 61.4516C13.1692 61.4516 15.484 63.7664 15.484 66.6129C15.484 69.4593 13.1692 71.7741 10.3227 71.7741C7.47627 71.7741 5.16144 69.4593 5.16144 66.6129ZM7.74208 66.6129C7.74208 68.0361 8.8995 69.1935 10.3227 69.1935C11.7459 69.1935 12.9034 68.0361 12.9034 66.6129C12.9034 65.1896 11.7459 64.0322 10.3227 64.0322C8.8995 64.0322 7.74208 65.1896 7.74208 66.6129ZM61.9353 61.4516C59.0888 61.4516 56.774 63.7664 56.774 66.6129C56.774 69.4593 59.0888 71.7741 61.9353 71.7741C64.7817 71.7741 67.0966 69.4593 67.0966 66.6129C67.0966 63.7664 64.7817 61.4516 61.9353 61.4516ZM61.9353 69.1935C60.512 69.1935 59.3546 68.0361 59.3546 66.6129C59.3546 65.1896 60.512 64.0322 61.9353 64.0322C63.3585 64.0322 64.5159 65.1896 64.5159 66.6129C64.5159 68.0361 63.3585 69.1935 61.9353 69.1935Z" fill="url(#paint0_linear_1618_12188)"/>
<defs>
<linearGradient id="paint0_linear_1618_12188" x1="77.2881" y1="47.2575" x2="2.2188" y2="47.2575" gradientUnits="userSpaceOnUse">
<stop stop-color="#203569"/>
<stop offset="1" stop-color="#33A648"/>
</linearGradient>
</defs>
</svg>
