<svg width="80" height="80" viewBox="0 0 80 80" fill="none" xmlns="http://www.w3.org/2000/svg">
<g clip-path="url(#clip0_1618_12157)">
<path fill-rule="evenodd" clip-rule="evenodd" d="M69.0222 7H67.3259V11.6113H69.0222V7ZM51.8147 40.335H76.9701C77.3997 40.3424 77.7553 40.692 77.7701 41.1234V47.4379C77.7701 47.6461 77.6886 47.8469 77.5405 47.9957L60.2442 65.3623C60.0961 65.5111 59.8961 65.5929 59.6887 65.5929H54.9702V71.7363H77.1997V79.7614H0V71.7437H17.3999L19.037 37.1517C18.8444 37.0699 18.6666 36.9658 18.4888 36.8617L5.45181 51.7888C5.28144 51.9822 5.0444 52.1012 4.78514 52.1161C4.53329 52.1309 4.28141 52.0417 4.08882 51.8706L2.32588 50.2939C2.02958 50.0261 1.92591 49.6096 2.05924 49.2452C2.08146 49.1857 2.10365 49.1336 2.14069 49.0741L11.6444 33.314C11.8666 32.9421 12.3185 32.7636 12.7407 32.89L16.2518 33.9462C16.0592 33.2247 16.0073 32.4661 16.1629 31.7075C16.2147 31.4769 16.274 31.2463 16.3555 31.0232C16.7481 29.9225 17.5184 29.0374 18.474 28.4796L12.2814 9.67005C12.2074 9.45436 12.2221 9.23124 12.2888 9.03786C12.3851 8.77011 12.5925 8.54698 12.8814 8.4503L15.1258 7.69167C15.5703 7.53548 16.0592 7.72886 16.2814 8.14536L24.9851 24.2551C25.1925 24.6418 25.1184 25.1104 24.7999 25.4153L22.111 27.9813C23.2444 28.2788 24.2221 28.9556 24.874 29.9448C25.4147 30.7555 25.6813 31.6852 25.6813 32.6372L44.8813 36.5047C45.1332 36.5493 45.3554 36.6981 45.4961 36.9137C45.6368 37.1294 45.6887 37.3897 45.6369 37.6426L45.1628 39.9854C45.0739 40.4466 44.6665 40.7664 44.1998 40.7589L26.0073 40.3945C25.5629 40.3871 25.1851 40.0821 25.0888 39.6508L24.2592 36.051C23.8814 36.4229 23.4591 36.7352 22.9925 36.9732L24.3925 71.7363H48.6739V65.5929H32.948C32.5184 65.5929 32.1628 65.2433 32.1628 64.8045V60.0668C32.1628 59.8585 32.2443 59.6577 32.3925 59.509L51.2591 40.5656C51.4073 40.4168 51.6073 40.335 51.8147 40.335ZM71.9257 45.0802L75.0738 41.9192H71.0072L67.859 45.0802H71.9257ZM59.9998 46.6495L56.8517 49.8104H60.9183L64.0664 46.6495H59.9998ZM56.1998 54.5481L59.3479 51.3872H55.2813L52.1332 54.5481H56.1998ZM50.5628 49.8104H54.6295L57.7776 46.6495H53.7109L50.5628 49.8104ZM49.9109 54.5481L53.0591 51.3872H48.9924L45.8443 54.5481H49.9109ZM45.1924 59.2859L48.3406 56.1249H44.2739L41.1257 59.2859H45.1924ZM54.6295 56.1249H50.5628L47.4146 59.2859H51.4813L54.6295 56.1249ZM60.9183 56.1249H56.8517L53.7109 59.2859H57.7702L60.9183 56.1249ZM61.5776 51.3872L58.4294 54.5481H62.4961L65.6442 51.3872H61.5776ZM66.2886 46.6495L63.1405 49.8104H67.2072L70.3553 46.6495H66.2886ZM65.6368 45.0802L68.785 41.9192H64.7183L61.5701 45.0802H65.6368ZM59.3405 45.0802L62.4887 41.9192H58.422L55.2738 45.0802H59.3405ZM56.2072 41.9192H52.1405L48.9924 45.0802H53.0591L56.2072 41.9192ZM51.4887 46.6569H47.422L44.2739 49.8179H48.3406L51.4887 46.6569ZM46.7702 51.3872H42.7036L39.5554 54.5481H43.622L46.7702 51.3872ZM42.0517 56.1249H37.9851L34.8369 59.2859H38.9035L42.0517 56.1249ZM43.4147 38.8178L43.5406 38.2153L25.8962 34.6527L26.7777 38.4831L43.4147 38.8178ZM22.9184 24.5302L14.9703 9.78162L14.4074 9.96755L20.0888 27.2301L22.9184 24.5302ZM21.4444 29.796C19.9185 29.4911 18.3703 30.4951 18.0444 32.0942C17.8888 32.8677 18.037 33.6487 18.4666 34.2957C18.8147 34.8238 19.3184 35.2031 19.9036 35.4039C20.0295 35.389 20.1555 35.389 20.2814 35.4262C20.6296 35.5229 20.9925 35.5452 21.3555 35.5155C22.3407 35.3221 23.1999 34.6304 23.5555 33.6338C23.6073 33.4999 23.6443 33.3586 23.674 33.2173C23.8295 32.4512 23.6814 31.6628 23.2517 31.0158C22.8295 30.3836 22.1925 29.9448 21.4444 29.796ZM4.18517 49.3865L4.62962 49.7807L16.5925 36.0733L12.8889 34.9577L4.18517 49.3865ZM21.074 37.479C21.0296 37.4864 20.9777 37.4939 20.9259 37.4939L19.3184 71.7363H22.4444L21.074 37.479ZM2.64438 77.0839H74.5257V74.4138H2.64438V77.0839ZM50.2368 65.5929V71.7363H53.385V65.5929H50.2368ZM59.3479 64.0236L76.185 47.118V43.0348L58.659 60.632C58.5109 60.7808 58.3109 60.8626 58.1035 60.8626H33.7332V64.0236H59.3479ZM62.1409 18.8778C62.1409 22.2099 64.8446 24.9246 68.1706 24.9246C71.4965 24.9246 74.2002 22.2099 74.1928 18.8778C74.1928 15.5384 71.4891 12.8237 68.1631 12.8237C64.8446 12.8311 62.1483 15.5458 62.1409 18.8778ZM63.8446 18.8778C63.8446 16.4904 65.7854 14.5343 68.1706 14.5343C70.5558 14.5343 72.4965 16.4829 72.4965 18.8778C72.4965 21.2727 70.5558 23.2214 68.1706 23.2214C65.7854 23.2214 63.8446 21.2727 63.8446 18.8778ZM35.3708 18.8107H42.0522V17.0257H35.3708C33.5486 17.0257 32.0671 15.5382 32.0671 13.7085C32.0671 12.34 33.1707 11.2318 34.5337 11.2318C35.5263 11.2318 36.3263 12.0425 36.3263 13.0317C36.3263 13.7309 35.7633 14.2961 35.067 14.2961V16.0811C36.7411 16.0811 38.1041 14.7126 38.1041 13.0317C38.1041 11.0533 36.4967 9.43939 34.5263 9.43939C32.1856 9.43939 30.2745 11.3508 30.2745 13.7085C30.2819 16.5199 32.5634 18.8107 35.3708 18.8107ZM51.7332 23.9428H41.4889C39.6667 23.9428 38.1852 25.4303 38.1778 27.2673C38.1778 28.6359 39.2815 29.744 40.6444 29.744C41.637 29.744 42.4445 28.9408 42.4445 27.9442C42.4445 27.245 41.8815 26.6798 41.1852 26.6798V24.8948C42.8593 24.8948 44.2222 26.2633 44.2222 27.9442C44.2222 29.9225 42.6148 31.5365 40.6444 31.5365C38.3037 31.5365 36.4 29.6176 36.4 27.2673C36.4 24.4485 38.6815 22.1578 41.4889 22.1578H51.7332V23.9428ZM67.3251 26.1368H69.0215V30.7481H67.3251V26.1368ZM60.4034 9.88353L59.204 11.0879L62.4514 14.3485L63.6508 13.1442L60.4034 9.88353ZM72.683 24.6241L73.8824 23.4198L77.1299 26.6804L75.9305 27.8847L72.683 24.6241ZM60.9405 18.0227H56.3479V19.7259H60.9405V18.0227ZM75.4075 18.0225H80.0001V19.7257H75.4075V18.0225ZM62.4544 23.4131L59.2072 26.6737L60.4066 27.8781L63.6538 24.6174L62.4544 23.4131ZM72.6831 13.1458L75.9304 9.88516L77.1299 11.0895L73.8825 14.3501L72.6831 13.1458Z" fill="url(#paint0_linear_1618_12157)"/>
</g>
<defs>
<linearGradient id="paint0_linear_1618_12157" x1="77.2881" y1="43.3801" x2="2.2188" y2="43.3801" gradientUnits="userSpaceOnUse">
<stop stop-color="#203569"/>
<stop offset="1" stop-color="#33A648"/>
</linearGradient>
<clipPath id="clip0_1618_12157">
<rect width="80" height="80" fill="white"/>
</clipPath>
</defs>
</svg>
