<svg width="80" height="80" viewBox="0 0 80 80" fill="none" xmlns="http://www.w3.org/2000/svg">
<g clip-path="url(#clip0_1618_12109)">
<path fill-rule="evenodd" clip-rule="evenodd" d="M79.6221 61.5576C79.3801 61.7995 79.0519 61.9355 78.7097 61.9355H76.129V72.2581H78.7097C79.0519 72.2581 79.3801 72.394 79.6221 72.636C79.8641 72.878 80 73.2062 80 73.5484V78.7097C80 79.0519 79.8641 79.3801 79.6221 79.6221C79.3801 79.8641 79.0519 80 78.7097 80H60.6452C60.3029 80 59.9747 79.8641 59.7328 79.6221C59.4908 79.3801 59.3548 79.0519 59.3548 78.7097V73.5484C59.3548 73.2062 59.4908 72.878 59.7328 72.636C59.9747 72.394 60.3029 72.2581 60.6452 72.2581H63.2258V61.9355H60.6452C60.3029 61.9355 59.9747 61.7995 59.7328 61.5576C59.4908 61.3156 59.3548 60.9874 59.3548 60.6452V55.4839C59.3548 55.1417 59.4908 54.8135 59.7328 54.5715C59.9747 54.3295 60.3029 54.1935 60.6452 54.1935H63.2258V52.9032C63.2258 52.561 63.0899 52.2328 62.8479 51.9908C62.6059 51.7488 62.2777 51.6129 61.9355 51.6129H54.1935V52.9032C54.1935 53.2454 54.0576 53.5736 53.8156 53.8156C53.5736 54.0576 53.2454 54.1935 52.9032 54.1935H49.0323V58.0645C49.0323 58.4067 48.8963 58.7349 48.6543 58.9769C48.4123 59.2189 48.0841 59.3548 47.7419 59.3548H43.871V63.2258C43.8697 63.4846 43.7907 63.7371 43.6441 63.9504C43.4975 64.1637 43.2902 64.328 43.049 64.4219L44.8 69.6774H49.0323C49.3745 69.6774 49.7027 69.8134 49.9447 70.0553C50.1866 70.2973 50.3226 70.6255 50.3226 70.9677V78.7097C50.3226 79.0519 50.1866 79.3801 49.9447 79.6221C49.7027 79.8641 49.3745 80 49.0323 80H1.29032C0.948108 80 0.619909 79.8641 0.377927 79.6221C0.135944 79.3801 0 79.0519 0 78.7097V70.9677C0 70.6255 0.135944 70.2973 0.377927 70.0553C0.619909 69.8134 0.948108 69.6774 1.29032 69.6774H5.52258L7.24258 64.5161H6.45161C4.74117 64.5141 3.10136 63.8337 1.8919 62.6242C0.682428 61.4148 0.00204885 59.775 0 58.0645V32.2581C0.00204885 30.5476 0.682428 28.9078 1.8919 27.6983C3.10136 26.4889 4.74117 25.8085 6.45161 25.8065H14.1935V21.9355C14.1935 21.5933 14.3295 21.2651 14.5715 21.0231C14.8135 20.7811 15.1417 20.6452 15.4839 20.6452H18.0645V7.74194H15.4839C15.1417 7.74194 14.8135 7.60599 14.5715 7.36401C14.3295 7.12203 14.1935 6.79383 14.1935 6.45161V1.29032C14.1935 0.948108 14.3295 0.619909 14.5715 0.377927C14.8135 0.135944 15.1417 0 15.4839 0H33.5484C33.8906 0 34.2188 0.135944 34.4608 0.377927C34.7028 0.619909 34.8387 0.948108 34.8387 1.29032V6.45161C34.8387 6.79383 34.7028 7.12203 34.4608 7.36401C34.2188 7.60599 33.8906 7.74194 33.5484 7.74194H30.9677V20.6452H33.5484C33.8906 20.6452 34.2188 20.7811 34.4608 21.0231C34.7028 21.2651 34.8387 21.5933 34.8387 21.9355V25.8065H42.5806C42.9229 25.8065 43.2511 25.9424 43.493 26.1844C43.735 26.4264 43.871 26.7546 43.871 27.0968V30.9677H47.7419C48.0841 30.9677 48.4123 31.1037 48.6543 31.3457C48.8963 31.5876 49.0323 31.9158 49.0323 32.2581V36.129H52.9032C53.2454 36.129 53.5736 36.265 53.8156 36.507C54.0576 36.7489 54.1935 37.0771 54.1935 37.4194V38.7097H67.0968C69.4913 38.7127 71.7869 39.6653 73.4801 41.3586C75.1734 43.0518 76.126 45.3474 76.129 47.7419V54.1935H78.7097C79.0519 54.1935 79.3801 54.3295 79.6221 54.5715C79.8641 54.8135 80 55.1417 80 55.4839V60.6452C80 60.9874 79.8641 61.3156 79.6221 61.5576ZM41.2903 61.9355V32.2581V28.3871H10.3226V61.9355H41.2903ZM32.2581 2.58065H16.7742V5.16129H32.2581V2.58065ZM28.3871 7.74194H20.6452V20.6452H28.3871V7.74194ZM32.2581 23.2258H16.7742V25.8065H32.2581V23.2258ZM2.58065 32.2581V58.0645C2.58065 59.0912 2.98848 60.0758 3.71443 60.8017C4.44037 61.5276 5.42497 61.9355 6.45161 61.9355H7.74194V28.3871H6.45161C5.42497 28.3871 4.44037 28.7949 3.71443 29.5209C2.98848 30.2468 2.58065 31.2314 2.58065 32.2581ZM2.58065 77.4193H47.7419V72.2581H2.58065V77.4193ZM9.96258 64.5161L8.24258 69.6774H42.08L40.36 64.5161H9.96258ZM43.871 56.7742H46.4516V33.5484H43.871V56.7742ZM49.0323 51.6129H51.6129V38.7097H49.0323V51.6129ZM54.1935 49.0323H61.9355C62.9621 49.0323 63.9467 49.4401 64.6727 50.166C65.3986 50.892 65.8064 51.8766 65.8064 52.9032V54.1935H73.5484V47.7419C73.5463 46.0315 72.866 44.3917 71.6565 43.1822C70.447 41.9728 68.8072 41.2924 67.0968 41.2903H54.1935V49.0323ZM77.4193 56.7742H61.9355V59.3548H77.4193V56.7742ZM61.9355 77.4193H77.4193V74.8387H61.9355V77.4193ZM65.8064 72.2581H73.5484V61.9355H65.8064V72.2581ZM14.1936 51.613H24.5162C24.8584 51.613 25.1866 51.7489 25.4286 51.9909C25.6706 52.2329 25.8065 52.5611 25.8065 52.9033V58.0646C25.8065 58.4068 25.6706 58.735 25.4286 58.977C25.1866 59.219 24.8584 59.3549 24.5162 59.3549H14.1936C13.8514 59.3549 13.5232 59.219 13.2812 58.977C13.0393 58.735 12.9033 58.4068 12.9033 58.0646V52.9033C12.9033 52.5611 13.0393 52.2329 13.2812 51.9909C13.5232 51.7489 13.8514 51.613 14.1936 51.613ZM18.0646 54.1936H15.484V56.7743H18.0646V54.1936ZM20.6452 56.7743H23.2259V54.1936H20.6452V56.7743ZM38.7099 51.613H28.3873V54.1936H38.7099V51.613ZM28.3873 56.7743H30.9679V59.3549H28.3873V56.7743ZM38.7099 56.7743H33.5486V59.3549H38.7099V56.7743ZM17.3083 37.4192H35.5948L37.7974 35.2166L39.6219 37.0411L37.0413 39.6218C36.7993 39.8638 36.4712 39.9998 36.129 39.9998H16.7742C16.432 39.9998 16.1038 39.8638 15.8619 39.6218L13.2812 37.0411L15.1058 35.2166L17.3083 37.4192ZM35.5948 42.5805H17.3083L15.1058 40.3779L13.2812 42.2025L15.8619 44.7831C16.1038 45.0251 16.432 45.1611 16.7742 45.1612H36.129C36.4712 45.1611 36.7993 45.0251 37.0413 44.7831L39.6219 42.2025L37.7974 40.3779L35.5948 42.5805ZM13.2812 31.8801L15.1058 30.0555L17.3083 32.2581H35.5948L37.7974 30.0555L39.6219 31.8801L37.0413 34.4607C36.7993 34.7027 36.4712 34.8387 36.129 34.8388H16.7742C16.432 34.8387 16.1038 34.7027 15.8619 34.4607L13.2812 31.8801Z" fill="url(#paint0_linear_1618_12109)"/>
</g>
<defs>
<linearGradient id="paint0_linear_1618_12109" x1="77.2881" y1="39.9993" x2="2.2188" y2="39.9993" gradientUnits="userSpaceOnUse">
<stop stop-color="#203569"/>
<stop offset="1" stop-color="#33A648"/>
</linearGradient>
<clipPath id="clip0_1618_12109">
<rect width="80" height="80" fill="white"/>
</clipPath>
</defs>
</svg>
