<svg width="1760" height="427" viewBox="0 0 1760 427" fill="none" xmlns="http://www.w3.org/2000/svg">
<path opacity="0.2" fill-rule="evenodd" clip-rule="evenodd" d="M141.37 342.425C94.2464 342.425 59.1782 331.08 35.0686 307.358C12.0549 283.635 0 248.568 0 202.155C0 153.679 12.0549 118.611 35.0686 95.9203C58.0823 74.2609 94.2464 62.9155 141.37 62.9155C188.493 62.9155 224.658 74.2608 248.767 96.9516C272.877 119.642 284.931 154.71 284.931 202.155C284.931 247.536 272.877 282.604 247.671 306.326C222.466 330.048 187.397 342.425 141.37 342.425ZM141.37 280.541C161.096 280.541 176.438 274.353 187.397 260.945C197.26 247.536 202.74 227.94 202.74 202.155C202.74 174.307 197.26 153.679 187.397 142.333C177.534 129.957 162.192 124.8 141.37 124.8C120.548 124.8 105.206 130.988 95.3425 142.333C85.4795 154.71 81.0957 174.307 81.0957 202.155C81.0957 228.971 85.4795 248.568 95.3425 260.945C105.206 273.321 120.548 280.541 141.37 280.541ZM340.822 93.8576C355.069 86.6378 376.986 79.418 406.575 73.2295C436.164 67.0411 462.465 63.9468 485.479 63.9468C524.931 63.9468 554.52 71.1667 574.246 85.6063C593.972 100.046 603.836 123.768 603.836 156.773V333.143H521.644V172.244C521.644 142.333 504.11 126.862 467.945 126.862C460.274 126.862 451.507 127.894 442.74 129.957C433.973 132.019 427.397 134.082 423.014 136.145V333.143H340.822V213.5V93.8576ZM807.671 341.394C780.274 341.394 756.164 336.237 734.246 325.923C712.329 315.609 694.794 301.169 681.644 280.541C668.493 259.913 661.918 235.159 661.918 206.28C661.918 159.867 675.069 123.768 701.37 100.046C727.671 76.3236 762.74 63.9468 807.671 63.9468C823.014 63.9468 838.356 64.9783 854.794 68.0725C870.137 71.1667 884.383 75.2923 896.438 80.4493V146.459C881.096 140.271 867.945 135.114 855.89 132.019C843.836 128.925 832.877 126.862 820.822 126.862C796.712 126.862 778.082 132.019 763.836 143.365C750.685 154.71 743.013 172.244 743.013 195.966C743.013 222.783 749.589 242.379 761.644 254.756C774.794 267.133 794.521 274.353 824.11 274.353C846.027 274.353 870.137 267.133 896.438 253.725V319.734C883.287 325.923 869.041 331.08 855.89 334.174C840.548 339.331 825.205 341.394 807.671 341.394ZM1077.26 62.9155C1163.84 62.9155 1207.67 116.548 1206.58 222.783H1022.47C1029.04 258.882 1055.34 277.447 1100.27 277.447C1113.42 277.447 1127.67 275.384 1139.73 272.29C1152.88 268.164 1167.12 264.039 1181.37 257.85V323.86C1150.68 335.205 1117.81 341.394 1079.45 341.394C1050.96 341.394 1026.85 336.237 1004.93 324.891C984.11 313.546 966.575 298.075 955.616 277.447C943.562 256.819 938.082 233.097 938.082 205.249C938.082 159.867 950.137 123.768 974.246 99.0146C998.356 75.2923 1032.33 62.9155 1077.26 62.9155ZM1073.97 121.705C1044.38 121.705 1026.85 139.239 1021.37 173.275H1124.38C1122.19 154.71 1116.71 141.302 1109.04 133.051C1100.27 125.831 1089.31 121.705 1073.97 121.705ZM1396.16 62.9155C1441.1 62.9155 1476.16 74.2609 1500.27 95.9203C1524.38 117.58 1537.53 154.71 1537.53 205.249C1537.53 246.505 1526.58 279.51 1504.66 304.263C1482.74 329.017 1452.05 341.394 1413.7 341.394C1386.3 341.394 1362.19 336.237 1343.56 326.954V427H1263.56V125.831C1263.56 105.203 1275.62 88.7006 1300.82 78.3865C1324.93 69.1039 1356.71 62.9155 1396.16 62.9155ZM1389.59 279.51C1411.51 279.51 1429.04 273.321 1438.9 261.976C1449.86 250.63 1455.34 230.002 1455.34 203.186C1455.34 178.432 1450.96 159.867 1441.1 146.459C1431.23 134.082 1415.89 127.894 1392.88 127.894C1360 127.894 1343.56 134.082 1343.56 145.428V269.196C1350.14 273.321 1357.81 275.384 1365.48 277.447C1374.25 278.478 1381.92 279.51 1389.59 279.51ZM1708.49 344.488C1676.71 344.488 1652.6 337.268 1636.16 322.829C1619.73 308.389 1612.05 287.761 1612.05 261.976V130.988H1571.51V72.1981H1612.05V0H1697.53V72.1981H1758.9V130.988H1697.53V252.693C1697.53 261.976 1699.73 268.164 1704.11 272.29C1708.49 276.415 1715.07 278.478 1724.93 278.478C1730.41 278.478 1736.99 277.447 1743.56 275.384C1750.14 273.321 1755.62 271.258 1760 267.133V333.143C1745.75 341.394 1729.31 344.488 1708.49 344.488Z" fill="#4BBE95"/>
</svg>
