<svg width="80" height="80" viewBox="0 0 80 80" fill="none" xmlns="http://www.w3.org/2000/svg">
<g clip-path="url(#clip0_1618_12137)">
<path fill-rule="evenodd" clip-rule="evenodd" d="M15.5668 35.5653H18.1383V32.9833H15.5668V35.5653ZM11.7055 57.5159H14.277V54.934H11.7055V57.5159ZM65.7066 57.5159H68.2781V54.934H65.7066V57.5159ZM61.8534 35.5653H64.4249V32.9833H61.8534V35.5653ZM36.893 27.8195L46.2947 36.3961L45.662 27.8195H36.893ZM37.6475 18.7786L45.3944 24.2275L44.9968 18.7786H37.6475ZM38.7101 11.0327L44.7535 15.5858L44.4209 11.0327H38.7101ZM43.9423 4.58195H36.0413L35.7574 8.45894H44.2262L43.9423 4.58195ZM41.2816 16.2048L35.5059 11.8554L35.1895 16.2048H41.2816ZM42.3443 25.2375L34.9056 20.0085L34.5163 25.2375H42.3443ZM44.3804 38.1472L34.2485 28.9027L33.559 38.1472H44.3804ZM33.4617 4.58195H28.2376L33.2589 7.3838L33.4617 4.58195ZM37.6475 47.18L33.2508 42.407L32.902 47.18H37.6475ZM40.0161 49.7701H32.7073L32.3179 54.934H44.7616L40.0161 49.7701ZM32.3666 19.479L20.0689 25.2375H31.9448L32.3666 19.479ZM30.7442 41.4704L16.9215 47.1881H30.3224L30.7442 41.4704ZM49.6693 47.1881H63.0702L49.2475 41.4704L49.6693 47.1881ZM49.8478 49.7619L51.4702 71.7125H48.8825L47.836 57.4915C47.8029 57.5026 47.7735 57.5061 47.7427 57.5098C47.7283 57.5115 47.7137 57.5133 47.6981 57.5159H32.1314L31.0855 71.7126H69.8595H72.7068V80.2811H7.28436V71.7126H26.0066H28.5059L30.1277 49.7701H14.2689V52.352H15.5587C16.2725 52.352 16.8484 52.9303 16.8484 53.6471V58.8109C16.8484 59.5277 16.2725 60.106 15.5587 60.106H10.4157C9.70186 60.106 9.12592 59.5277 9.12592 58.8109V53.6471C9.12592 52.9303 9.70186 52.352 10.4157 52.352H11.7055V49.7619H0V47.18H10.1642L30.9551 38.5871L31.7501 27.8195H18.1464V30.4014H19.4362C20.15 30.4014 20.726 30.9797 20.726 31.6964V36.8603C20.726 37.5771 20.15 38.1554 19.4362 38.1554H14.2932C13.5793 38.1554 13.0034 37.5771 13.0034 36.8603V31.6964C13.0034 30.9797 13.5793 30.4014 14.2932 30.4014H15.583V27.8195H0.0162001V25.2375H14.0093L32.6018 16.5224L33.0642 10.2182L22.9568 4.58195H0.00811985V2H79.9998V4.58195H57.0512L46.9437 10.2182L47.4061 16.5224L65.9986 25.2375H79.9917V27.8195H64.4249V30.4014H65.7147C66.4286 30.4014 67.0045 30.9797 67.0045 31.6964V36.8603C67.0045 37.5771 66.4286 38.1554 65.7147 38.1554H60.5717C59.8579 38.1554 59.282 37.5771 59.282 36.8603V31.6964C59.282 30.9797 59.8579 30.4014 60.5717 30.4014H61.8616V27.8195H48.2416L49.0366 38.5871L69.8113 47.1881H79.9755V49.7701H68.27V52.352H69.5598C70.2736 52.352 70.8496 52.9303 70.8496 53.6471V58.8109C70.8496 59.5277 70.2736 60.106 69.5598 60.106H64.4168C63.703 60.106 63.127 59.5277 63.127 58.8109V53.6471C63.127 52.9303 63.703 52.352 64.4168 52.352H65.7066V49.7619H49.8478ZM48.0469 25.2375H59.9147L47.6251 19.479L48.0469 25.2375ZM43.5205 49.7619L47.6008 54.2009L47.2763 49.7619H43.5205ZM41.1518 47.1881H47.0897L46.6111 40.7292H35.2139L41.1518 47.1881ZM46.5219 4.58195L46.7247 7.3838L51.746 4.58195H46.5219ZM10.1316 77.4304H69.8595V74.5715H10.1316V77.4304Z" fill="url(#paint0_linear_1618_12137)"/>
</g>
<defs>
<linearGradient id="paint0_linear_1618_12137" x1="77.2879" y1="41.1399" x2="2.21879" y2="41.1399" gradientUnits="userSpaceOnUse">
<stop stop-color="#203569"/>
<stop offset="1" stop-color="#33A648"/>
</linearGradient>
<clipPath id="clip0_1618_12137">
<rect width="80" height="80" fill="white"/>
</clipPath>
</defs>
</svg>
