<svg width="80" height="76" viewBox="0 0 80 76" fill="none" xmlns="http://www.w3.org/2000/svg">
<path fill-rule="evenodd" clip-rule="evenodd" d="M77.24 67.6341H72.232V25.0535C72.232 24.1298 71.488 23.3828 70.568 23.3828H61.72V11.4384C61.72 10.5146 60.976 9.76759 60.056 9.76759H54.904V1.67077C54.904 0.747028 54.16 0 53.24 0H25.496C24.576 0 23.832 0.747028 23.832 1.67077V9.76759H20.064C19.144 9.76759 18.4 10.5146 18.4 11.4384V23.3828H9.44C8.52 23.3828 7.776 24.1298 7.776 25.0535V67.6341H7.12H0V75.9398H80V67.6341H77.24ZM61.72 26.7243H68.904V67.6341H61.72V26.7243ZM27.16 3.34154H51.576V9.76759H27.16V3.34154ZM21.728 13.1091H58.392L58.28 67.6341H21.728V13.1091ZM11.096 26.7243H18.4V67.6341H11.096V26.7243ZM77.24 73.1686H2.76V70.3973H77.248V73.1686H77.24ZM37.7038 44.5325L44.7358 28.3951H39.3758L41.0318 20.1778H35.3198L35.2638 33.2628H39.0638L37.7038 44.5325ZM32.5605 56.0109C32.5605 51.8821 35.8885 48.5406 40.0005 48.5406C44.1125 48.5406 47.4405 51.8821 47.4405 56.0109C47.4405 60.1396 44.1125 63.4812 40.0005 63.4812C35.8885 63.4812 32.5605 60.1396 32.5605 56.0109ZM34.9125 56.0109C34.9125 58.8303 37.1925 61.1196 40.0005 61.1196C42.8085 61.1196 45.0885 58.8303 45.0965 56.0109C45.0965 53.6011 43.4325 51.601 41.2005 51.0548V57.1836H38.8085V51.0548C36.5765 51.601 34.9125 53.6011 34.9125 56.0109Z" fill="url(#paint0_linear_1618_12102)"/>
<defs>
<linearGradient id="paint0_linear_1618_12102" x1="77.2881" y1="37.9692" x2="2.2188" y2="37.9692" gradientUnits="userSpaceOnUse">
<stop stop-color="#203569"/>
<stop offset="1" stop-color="#33A648"/>
</linearGradient>
</defs>
</svg>
