<svg width="80" height="80" viewBox="0 0 80 80" fill="none" xmlns="http://www.w3.org/2000/svg">
<path fill-rule="evenodd" clip-rule="evenodd" d="M8.65666 11.7H0V9H80V11.7H71.3692L70.0913 12.6686L75.0177 16.4142L80 12.6387V15.7733L77.0826 17.984L80 20.2019V23.3466L75.0111 19.5539L70.0687 23.2994L71.3845 24.3H80V24.5479V25.4479V27H0V24.3H8.58799L9.90872 23.2991L4.98232 19.5539L0 23.3297V20.1948L2.91735 17.984L0 15.766V12.6211L4.9889 16.4142L9.93133 12.669L8.65666 11.7ZM22.5946 24.3H15.3614L14.0452 23.2991L18.9873 19.5539L23.9145 23.2998L22.5946 24.3ZM36.5999 24.3H29.3664L28.051 23.3L32.9942 19.5539L37.9206 23.2991L36.5999 24.3ZM43.3738 24.3H50.6057L51.926 23.2996L46.9992 19.5539L42.0572 23.2991L43.3738 24.3ZM64.6114 24.3H57.3783L56.0625 23.2996L61.0053 19.5539L65.9322 23.2994L64.6114 24.3ZM65.9548 12.6686L64.6805 11.7H57.3631L56.0851 12.6686L61.0119 16.4142L65.9548 12.6686ZM72.9461 17.984L68.0197 14.2385L63.0769 17.984L68.0037 21.7296L72.9461 17.984ZM54.0136 14.2383L58.9404 17.984L53.9975 21.7296L49.0707 17.984L54.0136 14.2383ZM50.6748 11.7L51.9486 12.6686L47.0058 16.4142L42.0798 12.669L43.3581 11.7H50.6748ZM37.9433 12.669L36.6686 11.7H29.3512L28.0736 12.6681L33.0008 16.4142L37.9433 12.669ZM44.9342 17.984L40.0082 14.2389L35.0658 17.984L39.9922 21.7292L44.9342 17.984ZM26.0021 14.2381L30.9293 17.984L25.986 21.7301L21.0588 17.984L26.0021 14.2381ZM22.6637 11.7L23.9371 12.6681L18.9938 16.4142L14.0678 12.669L15.3462 11.7H22.6637ZM7.05386 17.984L11.9803 21.7292L16.9223 17.984L11.9963 14.2389L7.05386 17.984ZM5.06094 75H0V72H18.7204C18.2609 71.6416 17.8643 71.169 17.5813 70.6585H14.8742H14.705H10.1367C9.54447 70.6585 9.12148 70.1498 9.12148 69.6411V68.9628H7.8525V69.5563C7.8525 70.1498 7.3449 70.5737 6.83731 70.5737H2.01519C1.423 70.5737 0.999998 70.065 0.999998 69.5563C0.999998 69.0476 1.50759 68.5389 2.01519 68.5389H5.73753V45.9859C5.73753 45.3076 5.14534 44.7141 4.46855 44.7141H2.01519C1.423 44.7141 0.999998 44.2054 0.999998 43.6967C0.999998 43.1879 1.50759 42.6792 2.01519 42.6792H4.46855C6.32972 42.6792 7.8525 44.2054 7.8525 46.0707V47.6816H9.12148V46.0707C9.12148 44.2054 10.6443 42.6792 12.5054 42.6792H42.115L36.7852 37.3377C36.6161 37.1682 36.4469 36.829 36.4469 36.5747C36.4469 36.3203 36.5315 36.0659 36.7852 35.8116L39.5906 33H0V30H80V33H42.6362L38.9848 36.6594L45.0759 42.764H48.2907C56.9197 42.764 64.6182 46.9185 69.6095 53.2774C69.6941 53.3622 69.7787 53.447 69.8633 53.6166C73.2473 57.8559 75.2777 63.4517 75.2777 69.5563C75.2777 70.1498 74.7701 70.5737 74.2625 70.5737H67.4946H65.6334C65.3316 71.1786 64.9437 71.654 64.439 72H80V75H75.6159C75.6061 75.5844 75.1035 76 74.6009 76C74.0991 76 73.5973 75.5028 73.5859 75H68.7634C68.7536 75.5844 68.251 76 67.7484 76C67.2466 76 66.7448 75.5028 66.7334 75H61.9109C61.9011 75.5844 61.3985 76 60.8959 76C60.3941 76 59.8923 75.5028 59.8809 75H55.0584C55.0486 75.5844 54.546 76 54.0434 76C53.5416 76 53.0398 75.5028 53.0284 75H48.2059C48.1961 75.5844 47.6935 76 47.1909 76C46.6891 76 46.1873 75.5028 46.1759 75H41.3534C41.3436 75.5844 40.841 76 40.3384 76C39.8366 76 39.3348 75.5028 39.3234 75H34.5009C34.4911 75.5844 33.9885 76 33.4859 76C32.9841 76 32.4823 75.5028 32.4709 75H27.6484C27.6386 75.5844 27.136 76 26.6334 76C26.1316 76 25.6298 75.5028 25.6184 75H20.7959C20.7861 75.5844 20.2835 76 19.7809 76C19.2791 76 18.7773 75.5028 18.7659 75H13.9435C13.9336 75.5844 13.431 76 12.9284 76C12.4266 76 11.9248 75.5028 11.9134 75H7.09096C7.08114 75.5844 6.57853 76 6.07592 76C5.57412 76 5.07233 75.5028 5.06094 75ZM59.7459 72C59.5829 71.8717 59.4285 71.7314 59.2885 71.5911C59.1485 71.7314 58.9941 71.8717 58.8311 72H59.7459ZM54.1673 72C53.7078 71.6416 53.3112 71.169 53.0282 70.6585H30.102C29.8241 71.2154 29.4733 71.6626 29.0255 72H54.1673ZM24.299 72C24.1361 71.8717 23.9816 71.7314 23.8416 71.5911C23.7017 71.7314 23.5472 71.8717 23.3843 72H24.299ZM7.76789 66.8432V49.7164H9.03687V66.8432H7.76789ZM67.175 67.691C67.2502 67.9736 67.3254 68.2563 67.3254 68.5389H51.2516C51.2516 68.1149 51.3362 67.691 51.5054 67.2671H67.0716C67.0998 67.4083 67.1373 67.5495 67.1749 67.6907L67.175 67.691ZM55.9892 70.6585H56.3275H56.8351C56.7505 70.7433 56.5813 70.7433 56.4121 70.7433C56.3275 70.7433 56.2641 70.7221 56.2007 70.7009C56.1372 70.6797 56.0738 70.6585 55.9892 70.6585ZM31.7281 67.691C31.8033 67.9736 31.8785 68.2562 31.8785 68.5389H15.8048C15.8048 68.1149 15.8894 67.691 16.0586 67.2671H31.6247C31.6529 67.4084 31.6905 67.5496 31.7281 67.6909L31.7281 67.691ZM26.4219 70.7009C26.3585 70.6797 26.295 70.6585 26.2104 70.6585H27.0564C26.9718 70.7433 26.8026 70.7433 26.6334 70.7433C26.5488 70.7433 26.4854 70.7221 26.4219 70.7009L26.4219 70.7009ZM21.4729 70.5737C21.3883 70.6585 21.2191 70.6585 21.0499 70.6585C20.8807 70.6585 20.7115 70.6585 20.5423 70.5737H21.4729ZM59.3731 49.6317H63.18C64.3644 50.5643 65.5488 51.6665 66.6486 52.7687H59.3731V49.6317ZM58.2733 54.8884H68.3406C71.1323 58.7885 72.9089 63.4517 73.0781 68.6236H69.4403C69.3558 67.691 69.102 66.6736 68.679 65.8257C68.5098 65.4866 68.1714 65.2322 67.7484 65.2322H50.744C50.321 65.2322 49.9826 65.4866 49.8134 65.8257C49.3905 66.6736 49.1367 67.691 49.0521 68.6236H33.9935C33.9089 67.691 33.6551 66.6736 33.2321 65.8257C33.0629 65.4866 32.7245 65.2322 32.3015 65.2322H15.3818C14.9588 65.2322 14.6204 65.4866 14.4512 65.8257C14.0282 66.6736 13.7744 67.691 13.6898 68.6236H11.1518V46.0707C11.1518 45.3924 11.744 44.7989 12.4208 44.7989H48.2907C52.436 44.7989 56.3275 45.8163 59.7961 47.5968H58.2733C57.7657 47.5968 57.2581 48.0207 57.2581 48.6142V53.8709C57.2581 54.3797 57.6811 54.8884 58.2733 54.8884ZM61.7842 70.7009C61.7207 70.6797 61.6573 70.6585 61.5727 70.6585H62.4187C62.3341 70.7433 62.1649 70.7433 61.9957 70.7433C61.9111 70.7433 61.8476 70.7221 61.7842 70.7009ZM43.7939 62H50.9002C51.4924 62 52 61.494 52 60.988V49.0121C52 48.506 51.577 48 50.9848 48H44.1323H43.7939H14.0152C13.5076 48 13 48.4217 13 49.0121V54.241C13 54.747 13.423 55.253 14.0152 55.253H42.7787V60.988C42.7787 61.494 43.2017 62 43.7939 62ZM35.0803 53.0602H29.8351V49.9398H35.0803V53.0602ZM22.4751 49.9398H27.7202V53.0602H22.4751V49.9398ZM42.4403 53.0602H37.1952V49.9398H42.4403V53.0602ZM20.2755 53.0602H15.0304V49.9398H20.2755V53.0602ZM44.8937 49.9398H49.885V59.8916H44.8937V49.9398ZM80 77H0V80H80V77Z" fill="url(#paint0_linear_1618_12146)"/>
<defs>
<linearGradient id="paint0_linear_1618_12146" x1="77.2881" y1="44.4994" x2="2.2188" y2="44.4994" gradientUnits="userSpaceOnUse">
<stop stop-color="#203569"/>
<stop offset="1" stop-color="#33A648"/>
</linearGradient>
</defs>
</svg>
