<svg width="80" height="80" viewBox="0 0 80 80" fill="none" xmlns="http://www.w3.org/2000/svg">
<g clip-path="url(#clip0_1618_12197)">
<path fill-rule="evenodd" clip-rule="evenodd" d="M74.6981 23.3104V70.8167H80.0002V79.7165H0V70.8167H7.68189L9.24419 62.177C3.82073 59.9256 0 54.5613 0 48.3193C0 42.2804 3.58598 37.0706 8.71804 34.6973V28.3171H11.2355C11.5673 19.9862 18.3993 13.3134 26.7693 13.3134C35.3578 13.3134 42.3354 20.3276 42.3354 28.9429V31.3487C48.0746 32.9824 52.2919 38.2816 52.2919 44.5643V50.8145H54.7851V23.3104H57.5616C57.2864 23.0829 57.0193 22.839 56.7602 22.579C54.6799 20.4901 53.5385 17.7186 53.5385 14.7683V14.5976C53.5385 11.0052 55.3598 7.75409 58.4116 5.91724L61.3257 4.16166L64.8711 8.90009L65.0816 8.68877C66.5872 7.17703 67.7367 5.30766 68.4085 3.28387L69.1694 1L71.1689 3.00753C74.2449 6.08792 75.9366 10.1924 75.9366 14.5569C75.9366 18.0925 74.3096 21.246 71.7598 23.3104H74.6981ZM66.7329 19.3116L64.7416 16.6458L62.7503 19.3116C62.4185 19.7505 62.2485 20.2707 62.2485 20.8153C62.2485 22.197 63.3655 23.3186 64.7416 23.3186C66.1177 23.3186 67.2348 22.197 67.2348 20.8153C67.2348 20.2707 67.0567 19.7505 66.7329 19.3116ZM70.1813 5.60839C69.3718 7.41273 68.2385 9.06265 66.8462 10.4606L64.774 12.5413L68.7161 17.8161C69.3556 18.6777 69.7118 19.7424 69.7118 20.8153C69.7118 21.1566 69.6794 21.4899 69.6147 21.815C71.9297 20.2382 73.4515 17.5723 73.4515 14.5651C73.4515 11.249 72.3021 8.10358 70.1813 5.60839ZM56.0236 14.6057V14.7764C56.0236 17.0521 56.9059 19.1978 58.5087 20.8153C58.9377 21.2379 59.3991 21.6118 59.8929 21.9369C59.8119 21.5793 59.7553 21.2054 59.7553 20.8153C59.7553 19.7424 60.1114 18.6777 60.7509 17.8161L64.5797 12.6876L60.6781 7.4615L59.6905 8.06294C57.3916 9.45278 56.0236 11.8911 56.0236 14.6057ZM64.7416 25.8138H64.5312H57.2702V28.3171H72.2131V25.8138H64.7416ZM72.2131 30.8123H57.2783V50.8145H62.2566V70.8167H72.2131V30.8123ZM47.3137 70.8167H59.7634V53.3178H47.3137V70.8167ZM44.8205 70.8167V50.8145H49.7988V45.816H29.651C29.7886 46.6369 29.8776 47.4659 29.8776 48.3193C29.8776 51.3753 28.9548 54.22 27.3844 56.5933V70.8167H29.8776V58.3163H42.3273V70.8167H44.8205ZM32.3708 70.8167H39.8423V60.8196H32.3708V70.8167ZM18.2455 62.9328C17.5736 63.0873 16.8856 63.1929 16.1814 63.2498V70.8167H19.6702L18.2455 62.9328ZM20.6416 62.177L22.2038 70.8167H24.8994V59.4623C23.6528 60.5921 22.22 61.5186 20.6416 62.177ZM26.7693 20.8153C22.5115 20.8153 19.0307 24.1313 18.7069 28.3171V28.3252H21.1677V34.7054C23.1347 35.6157 24.8751 36.9405 26.2755 38.5742C27.9916 35.0468 31.1404 32.4297 34.864 31.3568V28.9429C34.864 24.4564 31.2295 20.8153 26.7693 20.8153ZM2.7441 45.816H27.1416C26.9635 44.9463 26.6883 44.1092 26.3402 43.3126H3.53741C3.18934 44.1092 2.92219 44.9463 2.7441 45.816ZM29.0115 43.3126H49.7259C49.1026 37.6964 44.351 33.3156 38.5956 33.3156C33.7793 33.3156 29.4891 36.4529 27.9754 41.0044C28.3882 41.7359 28.7282 42.508 29.0115 43.3126ZM39.8423 28.9429C39.8423 21.7012 33.9817 15.8167 26.7693 15.8167C19.7673 15.8167 14.0524 21.3679 13.7206 28.3252H16.2137C16.5456 22.7659 21.1434 18.3282 26.7693 18.3282C32.6056 18.3282 37.3491 23.091 37.3491 28.9511V30.8854C37.7619 30.8448 38.1747 30.8204 38.5956 30.8204C39.0166 30.8204 39.4294 30.8448 39.8423 30.8854V28.9429ZM18.6746 30.8123H11.2112V33.8033C12.4011 33.4863 13.6558 33.3075 14.9429 33.3075C16.2299 33.3075 17.4765 33.4944 18.6746 33.8033V30.8123ZM24.8832 40.8093C22.6086 37.7858 19.0064 35.8108 14.9429 35.8108C10.8793 35.8108 7.27715 37.7858 5.01063 40.8093H24.8832ZM27.3925 48.3112H2.49316C2.49316 55.2116 8.07045 60.8196 14.9429 60.8115C21.8072 60.8115 27.3925 55.2034 27.3925 48.3112ZM13.6963 63.2498C12.9921 63.1929 12.304 63.0873 11.6321 62.9328L10.2075 70.8167H13.6963V63.2498ZM2.49316 77.2132H77.5151V73.3119H2.49316V77.2132ZM49.7981 55.8132H52.2912V58.3166H49.7981V55.8132ZM57.2707 55.8132H54.7775V58.3166H57.2707V55.8132ZM49.7981 60.8195H52.2912V63.3228H49.7981V60.8195ZM57.2707 60.8195H54.7775V63.3228H57.2707V60.8195ZM49.7981 65.8182H52.2912V68.3215H49.7981V65.8182ZM57.2707 65.8182H54.7775V68.3215H57.2707V65.8182ZM59.7628 33.3156H69.7193V48.3193H59.7628V33.3156ZM62.2479 45.816H67.2262V35.819H62.2479V45.816Z" fill="url(#paint0_linear_1618_12197)"/>
</g>
<defs>
<linearGradient id="paint0_linear_1618_12197" x1="77.2883" y1="40.3575" x2="2.2188" y2="40.3575" gradientUnits="userSpaceOnUse">
<stop stop-color="#203569"/>
<stop offset="1" stop-color="#33A648"/>
</linearGradient>
<clipPath id="clip0_1618_12197">
<rect width="80" height="80" fill="white"/>
</clipPath>
</defs>
</svg>
