<svg width="80" height="80" viewBox="0 0 80 80" fill="none" xmlns="http://www.w3.org/2000/svg">
<path d="M38.6667 24H25.3333C24.9797 24 24.6406 24.1405 24.3905 24.3905C24.1405 24.6406 24 24.9797 24 25.3333V32H21.3333V17.3333C21.3333 16.9797 21.1929 16.6406 20.9428 16.3905C20.6928 16.1405 20.3536 16 20 16H4C2.93913 16 1.92172 16.4214 1.17157 17.1716C0.421427 17.9217 0 18.9391 0 20V24C0 24.3536 0.140476 24.6928 0.390524 24.9428C0.640573 25.1929 0.979711 25.3333 1.33333 25.3333C1.37733 25.3333 1.42133 25.3333 1.46667 25.3267L13.3333 24.14V38.6667C13.3333 39.0203 13.4738 39.3594 13.7239 39.6095C13.9739 39.8595 14.313 40 14.6667 40H24V45.4013C20.9294 45.6367 17.977 46.6864 15.447 48.4422C12.9169 50.198 10.9007 52.5965 9.60583 55.3907C8.31098 58.1849 7.78438 61.2737 8.08026 64.3391C8.37613 67.4044 9.48378 70.3355 11.2891 72.8305C13.0945 75.3254 15.5323 77.294 18.3514 78.5335C21.1706 79.773 24.2692 80.2386 27.3281 79.8824C30.3871 79.5261 33.2958 78.3609 35.7546 76.5067C38.2135 74.6525 40.1336 72.1764 41.3173 69.3333H57.3333V72H44C43.6464 72 43.3072 72.1405 43.0572 72.3905C42.8071 72.6406 42.6667 72.9797 42.6667 73.3333V78.6667C42.6667 79.0203 42.8071 79.3594 43.0572 79.6095C43.3072 79.8595 43.6464 80 44 80H78.6667C79.0203 80 79.3594 79.8595 79.6095 79.6095C79.8595 79.3594 80 79.0203 80 78.6667V73.3333C80 72.9797 79.8595 72.6406 79.6095 72.3905C79.3594 72.1405 79.0203 72 78.6667 72H65.3333V69.3333H78.6667C79.0203 69.3333 79.3594 69.1929 79.6095 68.9428C79.8595 68.6928 80 68.3536 80 68V38.6667C80 30.3053 62.2307 24 38.6667 24ZM26.6667 40H77.3333V45.3333H26.6667V40ZM26.6667 26.6667H38.6667C60.028 26.6667 74.9027 31.9587 77.0533 37.3333H26.6667V26.6667ZM16 22.6667C16 22.644 15.988 22.624 15.9867 22.6013C15.9853 22.5787 15.996 22.5573 15.9867 22.5333C15.9726 22.4682 15.953 22.4044 15.928 22.3427C15.9107 22.2563 15.8848 22.1719 15.8507 22.0907C15.8126 22.02 15.768 21.953 15.7173 21.8907C15.6665 21.8154 15.608 21.7457 15.5427 21.6827C15.4881 21.639 15.4301 21.5998 15.3693 21.5653C15.2864 21.5074 15.1969 21.4595 15.1027 21.4227C15.0328 21.4028 14.9615 21.3886 14.8893 21.38C14.8168 21.3573 14.7422 21.3416 14.6667 21.3333C14.6427 21.3333 14.6227 21.3453 14.5987 21.3467C14.5747 21.348 14.556 21.3373 14.5333 21.3467L2.66667 22.5333V20C2.66667 19.6464 2.80714 19.3072 3.05719 19.0572C3.30724 18.8071 3.64638 18.6667 4 18.6667H18.6667V33.3333C18.6667 33.687 18.8071 34.0261 19.0572 34.2761C19.3072 34.5262 19.6464 34.6667 20 34.6667H24V37.3333H16V22.6667ZM25.3333 77.3333C21.5721 77.314 17.9621 75.8504 15.2493 73.2451C12.5366 70.6397 10.9284 67.0917 10.7572 63.3344C10.586 59.577 11.8649 55.8975 14.3295 53.0563C16.7942 50.215 20.2561 48.4293 24 48.068V52.092C22.2632 52.3044 20.6054 52.9408 19.1726 53.945C17.7398 54.9493 16.576 56.2906 15.7839 57.8507C14.9918 59.4108 14.5956 61.1419 14.6303 62.8912C14.665 64.6406 15.1294 66.3545 15.9828 67.882C16.8361 69.4095 18.0521 70.7037 19.5236 71.6503C20.9951 72.597 22.6769 73.1672 24.4207 73.3106C26.1645 73.454 27.9168 73.1662 29.5232 72.4726C31.1295 71.779 32.5406 70.7009 33.632 69.3333H38.384C37.1562 71.7392 35.288 73.7594 32.9851 75.171C30.6823 76.5826 28.0344 77.3309 25.3333 77.3333ZM77.3333 77.3333H45.3333V74.6667H77.3333V77.3333ZM62.6667 72H60V69.3333H62.6667V72ZM32.9867 66.6667C32.9494 66.6723 32.9125 66.6799 32.876 66.6893C32.7854 66.698 32.696 66.7163 32.6093 66.744C32.5317 66.7664 32.4563 66.7958 32.384 66.832C32.3102 66.8729 32.2402 66.9202 32.1747 66.9733C32.1042 67.029 32.0394 67.0915 31.9813 67.16C31.956 67.1907 31.92 67.208 31.8973 67.2413C31.1108 68.3697 30.0467 69.2762 28.8077 69.8733C27.5687 70.4705 26.1967 70.7381 24.8241 70.6504C23.4516 70.5627 22.1248 70.1225 20.9719 69.3725C19.819 68.6225 18.8789 67.5879 18.2425 66.3687C17.606 65.1494 17.2946 63.7866 17.3384 62.4119C17.3822 61.0373 17.7797 59.6971 18.4925 58.5208C19.2052 57.3445 20.2092 56.3718 21.4075 55.6967C22.6058 55.0216 23.9579 54.6668 25.3333 54.6667C25.687 54.6667 26.0261 54.5262 26.2761 54.2761C26.5262 54.0261 26.6667 53.687 26.6667 53.3333V48H77.3333V54.6667H32C31.6464 54.6667 31.3073 54.8073 31.0573 55.0573L26.0147 60.1C25.793 60.0368 25.5639 60.0031 25.3333 60C24.8059 60 24.2903 60.1564 23.8518 60.4494C23.4133 60.7424 23.0715 61.1589 22.8697 61.6462C22.6678 62.1334 22.615 62.6696 22.7179 63.1869C22.8208 63.7042 23.0748 64.1793 23.4477 64.5523C23.8207 64.9252 24.2958 65.1792 24.8131 65.2821C25.3304 65.385 25.8666 65.3322 26.3538 65.1303C26.8411 64.9285 27.2576 64.5867 27.5506 64.1482C27.8436 63.7097 28 63.1941 28 62.6667C27.9969 62.4361 27.9632 62.207 27.9 61.9853L32.552 57.3333H77.3333V66.6667H32.9867Z" fill="url(#paint0_linear_1618_12122)"/>
<defs>
<linearGradient id="paint0_linear_1618_12122" x1="77.2881" y1="47.9994" x2="2.2188" y2="47.9994" gradientUnits="userSpaceOnUse">
<stop stop-color="#203569"/>
<stop offset="1" stop-color="#33A648"/>
</linearGradient>
</defs>
</svg>
