<svg width="80" height="80" viewBox="0 0 80 80" fill="none" xmlns="http://www.w3.org/2000/svg">
<path d="M1 64.8205V80H79V64.8205H1ZM74.8947 76.2051H5.10526V68.6154H74.8947V76.2051ZM54.3684 24.9744H58.4737V21.1795H72.8421V6H40V21.1795H54.3684V24.9744ZM44.1053 9.79487H68.7368V17.3846H44.1053V9.79487ZM24.6053 28.7692V24.9744H28.7105V28.7692H24.6053ZM44.1053 42.0513H40V38.2564H44.1053V42.0513ZM52.3158 42.0513H48.2105V38.2564H52.3158V42.0513ZM60.5263 42.0513H56.4211V38.2564H60.5263V42.0513ZM44.1053 49.641H40V45.8462H44.1053V49.641ZM52.3158 49.641H48.2105V45.8462H52.3158V49.641ZM60.5263 49.641H56.4211V45.8462H60.5263V49.641ZM40 53.4359H44.1053V57.2308H40V53.4359ZM48.2105 53.4359H52.3158V57.2308H48.2105V53.4359ZM56.4211 53.4359H60.5263V57.2308H56.4211V53.4359ZM9.21053 61.3672L5.10526 60.6841L11.6121 28.7692H17.4211V24.9744H21.5263V38.2564H31.7895V24.9744H35.8947V28.7692H68.3879L74.8947 60.6841L70.7895 61.3672L64.9805 32.5641H35.8947V42.0513H17.4211V32.5641H15.0195L9.21053 61.3672Z" fill="url(#paint0_linear_1618_12225)"/>
<defs>
<linearGradient id="paint0_linear_1618_12225" x1="76.3559" y1="42.9994" x2="3.16333" y2="42.9994" gradientUnits="userSpaceOnUse">
<stop stop-color="#203569"/>
<stop offset="1" stop-color="#33A648"/>
</linearGradient>
</defs>
</svg>
