<svg width="84" height="85" viewBox="0 0 84 85" fill="none" xmlns="http://www.w3.org/2000/svg">
<path d="M8.89879 39.646V11.5484C8.89879 8.04873 11.4895 5.04899 14.5784 4.74902L50.3497 1.44931C50.549 1.44931 50.7483 1.44931 50.9476 1.44931C52.5418 1.44931 54.0365 2.04926 55.2322 3.14916C56.5275 4.34906 57.225 6.04891 57.225 7.94874V45.4455C57.6236 45.2455 58.0221 45.3455 58.321 45.1455V7.84875C58.321 5.64894 57.4243 3.64912 55.9296 2.24924C54.3354 0.849362 52.3425 0.149423 50.1504 0.349406L14.4787 3.64912C10.792 3.94909 7.80273 7.54878 7.80273 11.5484V39.346C8.2013 39.446 8.50023 39.546 8.89879 39.646Z" fill="white"/>
<path d="M57.3246 64.9439V76.7429C57.3246 78.6427 56.6271 80.3426 55.3318 81.5425C54.0364 82.7424 52.2429 83.3423 50.4493 83.1423L14.678 79.8426C11.4894 79.5427 8.9984 76.5429 8.9984 73.0432V70.6434C8.59983 70.7434 8.20127 70.7434 7.90234 70.8434V73.0432C7.90234 77.0429 10.8916 80.6426 14.678 80.9425L50.4493 84.2422C50.6486 84.2422 50.9475 84.2422 51.1468 84.2422C53.04 84.2422 54.8335 83.5423 56.2285 82.3424C57.8228 80.9425 58.6199 78.9427 58.6199 76.7429V64.444C58.1217 64.7439 57.7232 64.7439 57.3246 64.9439Z" fill="white"/>
<path fill-rule="evenodd" clip-rule="evenodd" d="M5.01304 58.0446C5.61089 58.0446 6.30838 58.0446 6.90623 58.0446C6.90623 59.1445 6.90623 60.2444 7.00587 61.3443C7.00587 63.3441 6.80659 64.944 6.30838 66.0439C5.81017 67.1438 5.01304 67.7438 4.11627 67.8437C3.11985 67.8437 2.42236 67.3438 1.92415 66.2439C1.42594 65.144 1.12702 63.5441 1.12702 61.4443C1.12702 59.2445 1.02738 56.9447 1.02738 54.7449C1.02738 52.5451 0.927734 50.2453 0.927734 48.0455C0.927734 45.9457 1.12702 44.3458 1.62523 43.2459C2.12343 42.146 2.82093 41.5461 3.81734 41.646C4.81376 41.746 5.51125 42.346 6.00946 43.5459C6.50766 44.7458 6.80659 46.2456 6.80659 48.3455C6.80659 49.1454 6.80659 49.9453 6.80659 50.7452C6.20874 50.7452 5.51125 50.6453 4.9134 50.6453C4.9134 49.7453 4.9134 48.8454 4.9134 47.9455C4.81376 46.3456 4.51483 45.4457 3.81734 45.4457C3.11985 45.4457 2.82093 46.2456 2.82093 47.9455C2.82093 50.2453 2.92057 52.5451 2.92057 54.8449C2.92057 57.1447 3.02021 59.4445 3.02021 61.7443C3.02021 63.4441 3.41877 64.2441 4.11627 64.2441C4.81376 64.2441 5.11268 63.3441 5.11268 61.7443C5.11268 60.4444 5.11268 59.2445 5.01304 58.0446Z" fill="white"/>
<path fill-rule="evenodd" clip-rule="evenodd" d="M12.2857 43.345C12.6843 47.3446 13.0828 51.3443 13.4814 55.2439C13.88 59.1436 14.2785 63.0433 14.5775 66.8429C13.88 66.9429 13.2821 66.9429 12.5846 67.0429C12.5846 65.643 12.3853 64.1432 12.2857 62.7433C11.4886 62.7433 10.6914 62.8433 9.79466 62.8433C9.69501 64.3431 9.59537 65.843 9.39609 67.3429C8.79824 67.3429 8.20039 67.4429 7.60254 67.4429C7.90146 63.2432 8.20039 59.1436 8.49931 55.044C8.79824 50.9443 8.99752 46.9447 9.29645 42.845C10.3925 42.945 11.3889 43.145 12.2857 43.345ZM10.7911 47.3446C10.6914 49.3445 10.5918 51.3443 10.3925 53.4441C10.3925 55.4439 10.1932 57.4437 10.0936 59.4436C10.6914 59.4436 11.3889 59.4436 11.9868 59.4436C11.7875 57.4437 11.5882 55.4439 11.3889 53.3441C11.2893 51.3443 10.9904 49.3445 10.7911 47.3446Z" fill="white"/>
<path fill-rule="evenodd" clip-rule="evenodd" d="M21.753 66.2439C21.0555 66.2439 20.3581 66.3439 19.7602 66.4439C19.7602 65.8439 19.7602 64.944 19.7602 63.7441C19.7602 62.6442 19.7602 61.4443 19.6606 60.3444C19.6606 59.3445 19.5609 58.6446 19.3616 58.2446C19.1624 57.8446 18.7638 57.5447 18.3652 57.5447C18.1659 57.5447 17.867 57.5447 17.6677 57.5447C17.6677 59.0445 17.7674 60.5444 17.7674 62.0443C17.7674 63.5441 17.7674 65.044 17.6677 66.5439C16.9702 66.6439 16.3724 66.6439 15.6749 66.7439C15.7745 62.9442 15.6749 59.1445 15.5753 55.3449C15.4756 51.5452 15.376 47.7455 15.376 43.9459C16.3724 44.1458 17.3688 44.3458 18.3652 44.5458C19.3616 44.7458 20.1588 45.2457 20.657 46.1457C21.1552 47.0456 21.4541 48.2455 21.4541 49.9453C21.4541 50.5453 21.4541 51.0452 21.4541 51.6452C21.5538 53.845 21.0555 55.2449 20.2584 55.9448C21.1552 56.6448 21.6534 58.1446 21.6534 60.5444C21.6534 61.6443 21.753 62.7442 21.753 63.8441C21.6534 64.744 21.6534 65.644 21.753 66.2439ZM18.2656 47.6455C17.9667 47.6455 17.6677 47.5455 17.2692 47.5455C17.2692 48.6454 17.3688 49.8453 17.3688 50.9452C17.3688 52.0452 17.3688 53.245 17.4685 54.345C17.7674 54.345 17.9667 54.345 18.2656 54.345C18.6641 54.345 18.9631 54.245 19.1624 53.845C19.3616 53.545 19.4613 52.9451 19.4613 52.0452C19.4613 51.3452 19.4613 50.6453 19.4613 49.9453C19.3616 48.4455 18.9631 47.6455 18.2656 47.6455Z" fill="white"/>
<path fill-rule="evenodd" clip-rule="evenodd" d="M25.5391 45.3459C26.5355 45.3459 27.3326 45.7458 27.8308 46.5458C28.329 47.3457 28.628 48.5456 28.628 50.1455C28.628 50.3454 28.628 50.6454 28.628 50.8454C28.7276 52.9452 28.329 54.3451 27.4323 55.045C28.4287 55.645 28.9269 57.1448 29.0265 59.4446C29.0265 60.0446 29.0265 60.5445 29.0265 61.1445C29.0265 62.7444 28.8273 63.9443 28.329 64.7442C27.7312 65.6441 26.8344 66.0441 25.838 66.0441C24.8416 66.1441 23.7455 66.1441 22.7491 66.244C22.9484 62.7444 22.8488 59.2447 22.7491 55.745C22.6495 52.2453 22.5498 48.7456 22.4502 45.2459C23.5463 45.1459 24.5427 45.2459 25.5391 45.3459ZM25.7384 56.6449C25.4394 56.6449 25.1405 56.6449 24.8416 56.6449C24.8416 57.7448 24.8416 58.7447 24.9412 59.8446C24.9412 60.9445 25.0409 61.9444 25.0409 63.0443C25.4394 63.0443 25.838 63.0443 26.1369 63.0443C26.5355 63.0443 26.7348 62.8443 26.9341 62.5444C27.1334 62.2444 27.1333 61.7444 27.1333 60.9445C27.1333 60.3446 27.1333 59.7446 27.1333 59.1447C27.1333 58.2447 27.0337 57.5448 26.8344 57.2448C26.5355 56.8449 26.2366 56.6449 25.7384 56.6449ZM25.6387 48.2456C25.3398 48.2456 25.0409 48.2456 24.6423 48.2456C24.6423 49.1455 24.742 50.0455 24.742 51.0454C24.742 51.9453 24.742 52.8452 24.8416 53.7451C25.1405 53.7451 25.3398 53.7451 25.6387 53.7451C26.0373 53.7451 26.3362 53.5452 26.5355 53.2452C26.7348 52.9452 26.8344 52.3453 26.8344 51.5453C26.8344 51.1454 26.8344 50.7454 26.8344 50.4454C26.6351 49.0456 26.2366 48.3456 25.6387 48.2456Z" fill="white"/>
<path fill-rule="evenodd" clip-rule="evenodd" d="M31.9167 50.1451C32.0163 51.945 32.0163 53.8448 32.0163 55.6446C32.0163 57.4445 32.116 59.2443 32.116 61.1441C32.116 62.444 32.5145 63.144 33.212 63.144C33.9095 63.144 34.2085 62.444 34.2085 61.1441C34.2085 59.3443 34.1088 57.5445 34.1088 55.7446C34.1088 53.9448 34.0092 52.1449 33.9095 50.3451C33.9095 49.0452 33.511 48.3453 32.8135 48.3453C32.2156 48.1453 31.8171 48.7452 31.9167 50.1451ZM30.1231 60.9442C30.0235 59.1443 30.0235 57.4445 30.0235 55.6446C30.0235 53.8448 29.9239 52.1449 29.8242 50.3451C29.8242 48.7452 30.0235 47.4454 30.5217 46.5454C31.0199 45.6455 31.8171 45.2455 32.7138 45.2455C33.7102 45.2455 34.4077 45.8455 35.0056 46.7454C35.5038 47.6453 35.8027 48.9452 35.9024 50.5451C36.002 52.2449 36.002 54.0448 36.002 55.7446C36.002 57.4445 36.1016 59.1443 36.1016 60.9442C36.1016 64.7438 34.607 65.8437 33.511 65.9437C32.6142 65.9437 30.3224 65.8437 30.1231 60.9442Z" fill="white"/>
<path fill-rule="evenodd" clip-rule="evenodd" d="M41.4829 65.3434C41.3832 63.0436 40.9847 60.7438 40.4864 58.444C39.9882 56.1442 39.5897 53.7444 39.0915 51.3446C39.1911 53.7444 39.2907 56.0442 39.2907 58.444C39.2907 60.7438 39.3904 63.1436 38.9918 65.4434C38.394 65.4434 37.7961 65.5434 37.1983 65.5434C37.4972 62.2437 37.4972 58.9439 37.3976 55.7442C37.2979 52.4445 37.1983 49.1448 37.0986 45.8451C37.8958 45.9451 38.7925 46.0451 39.5897 46.0451C39.9882 48.0449 40.3868 50.0447 40.7854 51.9446C41.1839 53.8444 41.5825 55.8442 41.9811 57.7441C41.9811 55.8442 41.8814 53.9444 41.7818 52.0445C41.6821 50.1447 41.6821 48.2449 41.5825 46.2451C42.1804 46.345 42.7782 46.345 43.3761 46.445C43.4757 49.6448 43.5753 52.7445 43.675 55.8442C43.7746 58.9439 43.7746 62.0437 43.4757 65.1434C42.7782 65.2434 42.1804 65.2434 41.4829 65.3434Z" fill="white"/>
<path fill-rule="evenodd" clip-rule="evenodd" d="M44.8701 65.1439C45.2687 62.0442 45.169 59.0445 45.169 55.9448C45.0694 52.845 44.9698 49.7453 44.8701 46.6456C45.5676 46.7456 46.1655 46.8456 46.863 46.9455C46.9626 49.9453 47.0622 53.045 47.1619 56.0447C47.2615 59.0445 47.2615 62.0442 46.863 65.044C46.2651 65.044 45.5676 65.044 44.8701 65.1439Z" fill="white"/>
<path d="M82.8337 50.6451C83.5312 50.1452 83.7304 49.4452 83.7304 48.6453C83.7304 47.6454 83.4315 46.7455 82.734 45.9455C82.1362 45.2456 81.5383 44.7456 80.6416 44.7456C80.1433 44.7456 80.0437 44.5457 79.9441 44.1457C79.7448 43.2458 79.1469 42.8458 78.3498 42.5458C76.9548 42.0459 75.6595 41.6459 74.2645 41.146C73.1684 40.746 71.9727 40.446 70.8767 40.146C70.3785 39.9461 69.9799 39.7461 69.4817 39.6461C69.0831 39.5461 68.7842 39.5461 68.3856 39.4461C68.1864 39.4461 67.8874 39.4461 67.6881 39.5461C67.0903 39.7461 66.5921 40.146 66.1935 40.546C65.3964 41.4459 64.5993 42.4458 63.7025 43.4458C62.8057 44.4457 61.7096 45.7456 60.5139 46.4455C59.119 47.2454 55.5319 47.7454 53.6387 47.8454C53.9376 48.0454 54.2365 48.3453 54.4358 48.7453C54.5354 48.9453 54.7347 49.1453 54.8344 49.4452C56.1297 49.2452 57.3254 48.9453 58.5211 48.6453C60.8129 48.1453 62.8057 47.1454 64.4996 45.5456C65.5957 44.5457 66.4924 43.4458 67.4889 42.4458C67.9871 41.9459 68.4853 41.6459 69.2824 41.5459C69.8803 41.4459 70.777 41.9459 71.3749 42.0459C72.4709 42.2459 73.2681 42.7458 74.3641 43.0458C75.2609 43.3458 76.2573 43.5457 77.1541 43.8457C77.9512 44.0457 78.4494 44.5457 78.6487 45.3456C78.7484 45.9455 78.848 46.6455 78.848 47.3454C78.9477 48.1453 79.0473 48.8453 79.0473 49.6452C79.1469 50.3452 79.2466 51.0451 79.2466 51.645C79.2466 52.145 78.9477 52.345 78.4494 52.145C78.2502 52.045 78.0509 51.945 77.9512 51.845C77.453 51.3451 77.0545 50.8451 76.5563 50.3452C76.1577 49.3452 75.5598 48.4453 75.5598 47.3454C75.5598 46.7455 75.6595 46.1455 75.6595 45.5456C75.2609 45.7456 74.7627 45.9455 74.2645 46.1455C73.4674 46.4455 72.9692 46.3455 72.4709 45.8455C72.0724 45.4456 71.7735 44.9456 71.3749 44.4457C71.076 44.0457 70.8767 43.5457 70.5778 43.1458C70.5778 43.6457 70.6774 44.0457 70.8767 44.5457C71.1756 45.6456 71.1756 46.8455 70.777 47.9454C70.3785 48.8453 69.7806 49.7452 69.0831 50.3452C67.5885 51.645 66.1935 52.9449 64.6989 54.1448C63.6028 54.9447 61.3111 56.1446 60.1154 56.9446C60.4143 54.4448 61.3111 52.7449 62.4071 50.6451C60.5139 51.545 57.1261 52.345 55.2329 52.7449C55.2329 52.8449 59.7168 52.545 60.215 52.445C59.3182 55.2447 59.0193 56.7446 58.82 58.9444C62.7061 56.3446 66.5921 54.8448 69.7806 51.545C68.8838 54.6448 67.2896 57.2445 65.496 59.8443L65.5957 59.9443C66.6917 59.1444 67.7878 58.3444 68.8838 57.5445C69.2824 59.6443 69.7806 61.6442 71.6738 63.144C71.1756 63.244 70.777 63.344 70.2788 63.344C68.8838 63.544 67.4889 63.544 66.1935 63.244C64.2007 62.8441 62.3075 61.9441 60.3147 61.3442C59.6172 61.1442 59.3182 60.9442 58.5211 60.8442L57.6243 60.9442C57.2258 60.9442 56.2294 61.3442 55.3326 61.5442C55.2329 62.1441 54.934 62.7441 54.5354 63.244C54.4358 63.344 54.3362 63.444 54.2365 63.644C55.3326 63.344 56.9268 62.6441 57.6243 62.6441C58.6208 62.5441 59.5175 62.7441 60.4143 63.044C61.9089 63.544 63.3039 64.0439 64.6989 64.5439C66.2932 65.0439 67.7878 65.2438 69.4817 65.0439C71.3749 64.8439 73.3677 64.6439 75.2609 64.3439C76.2573 64.2439 77.2537 63.944 78.1505 63.244C78.848 62.7441 79.1469 61.9441 79.1469 61.1442C79.1469 60.9442 79.1469 60.7442 79.2466 60.5443C81.0401 60.2443 81.9369 57.7445 81.638 56.3446C82.1362 56.0447 82.5348 55.8447 82.9333 55.4447C83.2322 55.1447 83.4315 54.6448 83.6308 54.2448C83.6308 54.1448 83.7304 54.0448 83.7304 54.0448C83.7304 53.9448 83.7304 53.8448 83.7304 53.7449C83.7304 53.3449 83.6308 52.8449 83.6308 52.445C83.4315 51.545 83.2322 51.1451 82.8337 50.6451ZM72.8695 47.4454C73.0688 47.3454 73.3677 47.2454 73.567 47.2454C73.8659 47.2454 74.0652 47.2454 74.4638 47.3454C74.4638 47.3454 74.3641 48.7453 75.0616 50.1452C74.5634 50.0452 74.0652 50.0452 73.567 50.0452C72.9692 50.0452 72.4709 49.7452 72.3713 49.2452C72.3713 48.5453 72.2717 47.9454 72.8695 47.4454ZM77.6523 60.9442C77.3534 62.0441 76.357 62.944 75.5598 62.7441C73.9656 62.3441 72.9691 62.0441 72.172 61.1442C71.7734 60.6442 71.4745 60.1443 71.6738 59.4444C71.7734 58.8444 72.0724 58.6444 72.6702 58.8444C73.567 59.0444 74.3641 59.2444 75.2609 59.4444C75.9584 59.6443 76.5562 59.7443 77.2537 59.9443C77.7519 60.1443 77.8516 60.4443 77.6523 60.9442ZM80.0437 57.0446C79.9441 57.7445 79.6451 58.2445 79.1469 58.7444C78.848 58.9444 78.5491 59.0444 78.1505 58.9444C76.9548 58.6444 75.8588 58.3444 74.6631 58.0445C74.0652 57.8445 73.4674 57.6445 72.8695 57.3445C72.2717 57.0446 72.172 56.9446 72.2717 56.3446C72.3713 55.4447 72.8695 54.9447 73.6666 55.0447C74.1648 55.0447 74.6631 55.1447 74.8623 55.2447C76.357 55.5447 77.5527 55.7447 78.848 55.9447C79.0473 55.9447 79.2466 56.0447 79.4459 56.1446C79.9441 56.2446 80.1433 56.5446 80.0437 57.0446ZM80.3426 54.6448C78.7484 54.6448 77.1541 54.3448 75.5598 53.9448C74.962 53.8448 74.4638 53.7449 73.8659 53.6449C73.2681 53.5449 72.8695 53.2449 72.7699 52.7449C72.6702 52.145 72.7699 51.4451 73.3677 51.0451C73.567 50.9451 73.8659 50.8451 74.0652 50.8451C75.1613 50.9451 76.058 51.545 76.7555 52.345C77.1541 52.8449 77.6523 53.2449 78.3498 53.4449C79.4459 53.7449 80.6416 53.3449 80.7412 51.945C80.7412 51.745 80.7412 51.545 80.8408 51.2451C81.5383 51.2451 82.0365 51.945 82.1362 52.7449C82.2358 53.9448 81.5383 54.6448 80.3426 54.6448ZM82.1362 49.2452C82.0365 49.9452 81.4387 50.2452 80.6416 50.1452C80.5419 49.3452 80.5419 48.6453 80.4423 47.8454C80.4423 47.6454 80.4423 47.2454 80.5419 47.2454C80.8408 47.1454 81.2394 47.0454 81.4387 47.1454C81.7376 47.2454 81.9369 47.5454 82.0365 47.8454C82.1362 48.2453 82.2358 48.7453 82.1362 49.2452Z" fill="white"/>
<path d="M54.4346 61.4442C54.4346 61.2442 54.5343 60.9443 54.5343 60.7443C54.5343 60.5443 54.5343 60.2443 54.5343 60.0443C54.5343 58.7445 54.5343 57.3446 54.4346 55.9447C54.4346 54.9448 54.335 54.0449 54.335 53.045V52.745C54.335 52.445 54.335 52.145 54.335 51.8451C54.335 51.6451 54.335 51.4451 54.335 51.2451V51.1451C54.335 50.9451 54.335 50.7452 54.2353 50.5452C54.2353 50.3452 54.1357 50.1452 54.1357 50.0452V49.9452C54.036 49.7453 54.036 49.6453 53.9364 49.4453C53.8368 49.2453 53.7371 49.0453 53.5378 48.7453C53.3386 48.4454 53.0396 48.1454 52.7407 47.8454C52.6411 47.7454 52.5414 47.7454 52.4418 47.6454C52.3421 47.5454 52.2425 47.5454 52.1429 47.5454C52.0432 47.5454 51.9436 47.4455 51.8439 47.4455C51.8439 47.4455 51.8439 47.4455 51.7443 47.4455C51.6446 47.4455 51.4454 47.3455 51.3457 47.3455C51.1464 47.3455 50.8475 47.2455 50.6482 47.3455C50.0504 47.3455 49.4525 47.6454 49.054 48.1454C48.9543 48.2454 48.9543 48.3454 48.8547 48.4454C48.755 48.5454 48.755 48.6453 48.6554 48.7453C48.5558 48.9453 48.4561 49.1453 48.4561 49.4453C48.4561 49.6453 48.3565 49.8452 48.3565 50.0452C48.2568 50.4452 48.2568 50.9451 48.2568 51.4451C48.2568 53.045 48.3565 54.5448 48.3565 56.0447C48.3565 57.5446 48.3565 59.1444 48.3565 60.6443C48.3565 62.0442 48.5558 62.6441 48.9543 63.4441C49.2533 63.944 49.7515 64.444 50.449 64.544C50.6482 64.544 50.9472 64.544 51.1464 64.544C51.2461 64.544 51.3457 64.544 51.4454 64.444H51.545C51.6447 64.444 51.6446 64.444 51.7443 64.444C51.8439 64.444 51.8439 64.444 51.9436 64.444H52.0432C52.1429 64.444 52.1429 64.444 52.2425 64.344H52.3421C52.4418 64.344 52.4418 64.244 52.5414 64.244C52.5414 64.244 52.5414 64.244 52.6411 64.244C52.8403 64.144 53.1393 63.944 53.3386 63.744C53.4382 63.644 53.5378 63.544 53.6375 63.3441C54.1357 62.6441 54.335 62.0442 54.4346 61.4442ZM51.8439 61.8442C51.7443 61.9442 51.6446 61.9442 51.4454 61.9442C50.7479 62.0442 50.449 61.4442 50.3493 60.3443C50.3493 58.8445 50.3493 57.6446 50.3493 56.0447C50.3493 54.4448 50.2497 52.945 50.2497 51.3451C50.2497 50.5452 50.3493 50.0452 50.7479 49.8452C50.8475 49.7453 51.0468 49.7453 51.2461 49.7453C51.9436 49.8452 52.2425 50.4452 52.3421 51.5451C52.3421 53.045 52.4418 54.5448 52.4418 56.0447C52.4418 57.3446 52.4418 58.3445 52.4418 59.6444C52.4418 59.8444 52.4418 60.0443 52.4418 60.1443C52.4418 60.2443 52.4418 60.4443 52.4418 60.5443C52.5414 61.2442 52.2425 61.6442 51.8439 61.8442Z" fill="white"/>
<path d="M12.4864 13.8486C12.4864 13.7486 12.4864 13.6486 12.586 13.5486C12.6857 13.4486 12.6857 13.3486 12.7853 13.3486C12.885 13.3486 12.9846 13.3486 12.9846 13.4486C13.0842 13.5486 13.0842 13.6486 13.0842 13.7486V21.148C13.0842 21.2479 13.0842 21.4479 13.0842 21.4479C13.0842 21.5479 13.0842 21.6479 13.1839 21.6479V21.7479V21.8479C13.1839 21.9479 13.1839 22.0479 13.0842 22.1479C12.9846 22.2479 12.9846 22.2479 12.885 22.2479C12.7853 22.2479 12.7853 22.2479 12.6857 22.2479C12.586 22.2479 12.586 22.1479 12.4864 22.0479C12.3868 21.9479 12.3868 21.8479 12.3868 21.6479C12.3868 21.4479 12.2871 21.2479 12.2871 20.948V13.8486H12.4864Z" fill="white"/>
<path d="M16.6717 18.1482C16.6717 17.2483 16.3727 16.7483 15.6753 16.8483C15.476 16.8483 15.3763 16.8483 15.2767 16.9483C15.177 17.0483 15.0774 17.0483 14.9778 17.1483C14.9778 17.1483 14.9778 17.1483 14.8781 17.2483H14.7785C14.6788 17.2483 14.6788 17.2483 14.5792 17.1483C14.5792 17.0483 14.4796 16.9483 14.4796 16.8483C14.4796 16.7483 14.4796 16.5483 14.5792 16.4483C14.6788 16.3483 14.7785 16.2484 14.8781 16.1484C14.9778 16.0484 15.177 16.0484 15.2767 15.9484C15.476 15.9484 15.5756 15.8484 15.7749 15.8484C16.3727 15.8484 16.7713 16.0484 16.9706 16.4483C17.1699 16.8483 17.3692 17.5482 17.3692 18.3482V21.1479C17.3692 21.4479 17.4688 21.5479 17.5684 21.5479C17.6681 21.5479 17.7677 21.5479 17.7677 21.6479C17.7677 21.7479 17.8674 21.8479 17.8674 21.9479C17.8674 22.1478 17.8674 22.2478 17.7677 22.2478C17.6681 22.4478 17.5684 22.4478 17.4688 22.4478C17.2695 22.4478 17.1699 22.3478 17.0702 22.2478C16.9706 22.1478 16.871 21.9479 16.7713 21.7479C16.4724 22.2478 15.9742 22.4478 15.5756 22.4478C15.0774 22.4478 14.7785 22.2478 14.5792 21.9479C14.3799 21.6479 14.2803 21.1479 14.2803 20.548V20.448C14.2803 19.2481 14.7785 18.5482 15.8745 18.5482C16.1735 18.5482 16.4724 18.5482 16.7713 18.7481V18.1482H16.6717ZM15.7749 19.5481C15.5756 19.5481 15.476 19.5481 15.3763 19.6481C15.2767 19.748 15.177 19.748 15.0774 19.848C14.9778 19.948 14.9778 20.048 14.9778 20.148C14.9778 20.248 14.9778 20.448 14.9778 20.548V20.648C14.9778 20.9479 15.0774 21.1479 15.177 21.3479C15.2767 21.5479 15.476 21.6479 15.7749 21.6479C15.9742 21.6479 16.1735 21.6479 16.2731 21.5479C16.4724 21.4479 16.572 21.3479 16.7713 21.1479V19.748C16.572 19.6481 16.4724 19.6481 16.2731 19.6481C16.0738 19.5481 15.8745 19.5481 15.7749 19.5481Z" fill="white"/>
<path d="M21.654 17.3482V15.6484L23.6468 15.5484V19.448C23.6468 20.4479 23.4475 21.2479 23.1486 21.7478C22.7501 22.2478 22.2518 22.5478 21.5544 22.5478C20.8569 22.5478 20.3587 22.2478 20.0597 21.7478C19.6612 21.2479 19.5615 20.4479 19.5615 19.448V13.1486C19.5615 12.1487 19.7608 11.4487 20.0597 10.8488C20.4583 10.3488 20.9565 10.0488 21.5544 9.94885C22.2518 9.94885 22.7501 10.1488 23.1486 10.6488C23.5472 11.1487 23.6468 11.9487 23.6468 12.9486V14.1485H22.3515V12.8486C22.3515 12.0487 22.1522 11.6487 21.654 11.6487C21.1558 11.6487 20.9565 12.0487 20.9565 12.8486V19.448C20.9565 20.248 21.1558 20.6479 21.654 20.6479C22.1522 20.6479 22.3515 20.248 22.3515 19.448V17.1482L21.654 17.3482Z" fill="white"/>
<path d="M29.0278 22.3473H27.5332C27.4335 21.9473 27.4335 21.4473 27.4335 20.8474V18.8476C27.4335 18.2476 27.3339 17.8477 27.2342 17.6477C27.1346 17.4477 26.8357 17.2477 26.5367 17.3477H26.0385V22.3473H24.6436V10.1483L26.8357 10.0483C27.5332 10.0483 28.131 10.2483 28.4299 10.6483C28.7289 11.1482 28.9281 11.8482 28.9281 12.7481V13.748C28.9281 15.0479 28.6292 15.8478 27.9317 16.3478C28.5296 16.7478 28.9281 17.5477 28.9281 18.9476V20.8474C28.8285 21.5473 28.9281 22.0473 29.0278 22.3473ZM26.6364 11.7482H25.9389V15.5479H26.5367C26.8357 15.5479 27.035 15.4479 27.2342 15.2479C27.3339 15.0479 27.4335 14.7479 27.4335 14.248V13.0481C27.4335 12.1482 27.1346 11.7482 26.6364 11.7482Z" fill="white"/>
<path d="M33.1106 9.64899L34.7048 22.3479H33.2102L32.9113 20.0481H31.1177L30.8188 22.3479H29.4238L30.9185 9.74898L33.1106 9.64899ZM31.9149 11.9488L31.2174 18.3482H32.6124L31.9149 11.9488Z" fill="white"/>
<path d="M38.6915 22.348L36.6987 13.0489V22.348H35.3037V9.54917L37.1969 9.44917L38.7912 17.1485V9.44917L40.1861 9.34918V22.348H38.6915Z" fill="white"/>
<path d="M41.3818 22.348V9.34917L43.9725 9.24918C45.5668 9.14919 46.3639 10.2491 46.3639 12.4489V19.1483C46.3639 21.3481 45.5668 22.448 43.9725 22.448L41.3818 22.348ZM43.9725 11.049H43.0757V20.4482H43.9725C44.5704 20.4482 44.7697 20.0482 44.7697 19.1483V12.2489C44.7697 11.449 44.4707 11.049 43.9725 11.049Z" fill="white"/>
<path d="M49.1548 10.8485V14.5482L51.4466 14.4482V16.348L49.1548 16.448V20.3476H52.0445V22.2475H47.4609V8.94864L52.0445 8.74866V10.6485L49.1548 10.8485Z" fill="white"/>
<path d="M21.1557 27.8468V31.4465H22.8496V33.1463L21.1557 33.0463V37.9459H19.7607V26.0469H23.2482V27.7468L21.1557 27.8468Z" fill="white"/>
<path d="M23.8457 35.2461V29.0467C23.8457 28.0468 24.045 27.3468 24.3439 26.8469C24.7425 26.3469 25.2407 26.0469 25.8385 26.0469C26.536 26.0469 27.0342 26.3469 27.4328 26.8469C27.8314 27.3468 27.931 28.1468 27.931 29.1467V35.4461C27.931 36.446 27.7317 37.146 27.4328 37.6459C27.0342 38.1459 26.536 38.4459 25.8385 38.3459C25.141 38.3459 24.6428 38.0459 24.3439 37.4459C24.045 36.946 23.8457 36.1461 23.8457 35.2461ZM25.141 28.9467V35.4461C25.141 36.246 25.3403 36.646 25.8385 36.646C26.3367 36.646 26.536 36.246 26.536 35.4461V28.9467C26.536 28.1468 26.3367 27.7468 25.8385 27.7468C25.44 27.7468 25.141 28.1468 25.141 28.9467Z" fill="white"/>
<path d="M33.311 38.5462L31.8164 38.4462C31.7168 38.1462 31.7168 37.6463 31.7168 36.9463V35.0465C31.7168 34.4465 31.6171 34.0466 31.5175 33.8466C31.3182 33.5466 31.1189 33.4466 30.7203 33.4466H30.2221V38.4462L28.8271 38.3462V26.1473H30.9196C31.6171 26.1473 32.215 26.3473 32.5139 26.8472C32.8128 27.3472 33.0121 28.0471 33.0121 29.047V30.0469C33.0121 31.3468 32.7132 32.1467 32.1153 32.5467C32.7132 32.9467 33.1117 33.8466 33.1117 35.2465V37.1463C33.1117 37.7463 33.2114 38.2462 33.311 38.5462ZM30.9196 27.9471H30.2221V31.7468H30.82C31.1189 31.7468 31.3182 31.6468 31.4178 31.4468C31.5175 31.2468 31.6171 30.9469 31.6171 30.4469V29.247C31.7168 28.3471 31.4178 27.9471 30.9196 27.9471Z" fill="white"/>
<path d="M34.0078 26.1473H38.1928V27.9471L35.4028 36.8463L38.1928 36.9463V38.7462L33.9082 38.5462V36.8463L36.6982 27.9471H34.1075V26.1473H34.0078Z" fill="white"/>
<path d="M42.1809 26.3472L43.9744 39.0461H42.3802L42.0812 36.7463L40.188 36.6463L39.8891 38.9461L38.4941 38.8461L39.9888 26.2472L42.1809 26.3472ZM41.1845 28.547L40.487 34.9464L41.9816 35.0464L41.1845 28.547Z" fill="white"/>
<path d="M48.0591 33.0466C48.2584 33.0466 48.358 33.0466 48.5573 33.1466C48.7566 33.1466 48.9559 33.2466 49.0555 33.3466V31.1468C49.0555 31.0468 49.0555 30.9468 49.1551 30.8468C49.2548 30.7468 49.3544 30.7468 49.4541 30.7468C49.5537 30.7468 49.6533 30.7468 49.753 30.8468C49.8526 30.9468 49.8526 31.0468 49.8526 31.1468V37.4462C49.8526 37.6462 49.8526 37.7462 49.9523 37.8462C49.9523 37.9462 50.0519 38.0462 50.1516 38.1462V38.2462V38.3462C50.1516 38.4462 50.1516 38.5461 50.0519 38.6461C49.9523 38.7461 49.9523 38.7461 49.8526 38.7461C49.753 38.7461 49.6533 38.7461 49.5537 38.6461C49.4541 38.5461 49.3544 38.4462 49.3544 38.3462C49.1551 38.4462 48.9558 38.5461 48.7566 38.6461C48.5573 38.7461 48.2584 38.7461 48.0591 38.7461C47.5609 38.7461 47.1623 38.5461 46.963 38.1462C46.6641 37.7462 46.5645 37.2463 46.5645 36.6463V35.2464C46.5645 34.9465 46.5645 34.6465 46.6641 34.3465C46.7637 34.0465 46.7637 33.8466 46.963 33.6466C47.0627 33.4466 47.2619 33.3466 47.4612 33.1466C47.5609 33.1466 47.7602 33.0466 48.0591 33.0466ZM49.1551 34.0465C48.9559 33.9465 48.8562 33.9465 48.6569 33.8466C48.4576 33.8466 48.358 33.7466 48.2584 33.7466C47.9594 33.7466 47.6605 33.8466 47.5609 34.1465C47.4612 34.3465 47.3616 34.7465 47.3616 35.2464V36.6463C47.3616 37.5462 47.6605 37.9462 48.2584 37.9462C48.4576 37.9462 48.5573 37.9462 48.7566 37.8462C48.9558 37.7462 49.0555 37.7462 49.2548 37.6462V37.5462V37.4462V34.0465H49.1551Z" fill="white"/>
<path d="M52.2444 31.3468C52.2444 31.4468 52.2444 31.6467 52.1448 31.7467C52.0451 31.8467 51.9455 31.9467 51.8459 31.9467C51.7462 31.9467 51.6466 31.8467 51.5469 31.7467C51.4473 31.6467 51.4473 31.5468 51.4473 31.3468C51.4473 31.2468 51.4473 31.0468 51.5469 30.9468C51.6466 30.8468 51.7462 30.7468 51.8459 30.7468C51.9455 30.7468 52.0451 30.8468 52.1448 30.9468C52.2444 31.0468 52.2444 31.1468 52.2444 31.3468ZM52.1448 38.3462C52.1448 38.4462 52.1448 38.5461 52.0451 38.6461C51.9455 38.7461 51.8459 38.7461 51.7462 38.7461C51.6466 38.7461 51.5469 38.7461 51.4473 38.6461C51.3477 38.5461 51.3477 38.4462 51.3477 38.3462V33.4466C51.3477 33.3466 51.3477 33.2466 51.4473 33.1466C51.5469 33.0466 51.6466 33.0466 51.7462 33.0466C51.8459 33.0466 51.9455 33.0466 52.0451 33.1466C52.1448 33.2466 52.1448 33.3466 52.1448 33.4466V38.3462Z" fill="white"/>
</svg>
