<svg width="15" height="15" viewBox="0 0 15 15" fill="none" xmlns="http://www.w3.org/2000/svg">
<path d="M7.5 1.72227e-05C9.20332 -0.00364091 10.8566 0.575547 12.1851 1.64133L13.4037 0.423004C13.4329 0.393822 13.4701 0.37395 13.5106 0.365899C13.551 0.357849 13.593 0.361983 13.6311 0.377778C13.6693 0.393573 13.7019 0.420319 13.7248 0.454635C13.7477 0.488951 13.76 0.529295 13.76 0.570565V4.52828C13.76 4.58363 13.738 4.6367 13.6988 4.67584C13.6597 4.71497 13.6066 4.73696 13.5512 4.73696L9.59269 4.73697C9.55141 4.73697 9.51105 4.72473 9.47673 4.7018C9.44241 4.67887 9.41565 4.64628 9.39985 4.60815C9.38405 4.57002 9.37992 4.52806 9.38797 4.48758C9.39602 4.4471 9.4159 4.40992 9.44509 4.38073L10.7635 3.06264C9.94324 2.45835 8.97138 2.09348 7.95606 2.00864C6.94073 1.9238 5.92177 2.12232 5.0126 2.5821C4.10342 3.04188 3.3397 3.74488 2.80643 4.61286C2.27317 5.48084 1.99128 6.47975 1.99215 7.49839H2.00026e-06C-0.000717704 6.51349 0.192784 5.53811 0.56944 4.62804C0.946095 3.71797 1.49851 2.89107 2.1951 2.19464C2.89168 1.4982 3.71876 0.945905 4.62902 0.569332C5.53929 0.192758 6.51488 -0.000702326 7.5 1.72227e-05ZM12.547 9.70769C12.2154 10.4642 11.7178 11.1365 11.0912 11.6748C10.4645 12.2131 9.72485 12.6036 8.92684 12.8173C8.12883 13.0311 7.29295 13.0628 6.48106 12.9099C5.66918 12.757 4.90207 12.4235 4.23653 11.9341L5.55491 10.616C5.5841 10.5869 5.60398 10.5497 5.61203 10.5092C5.62008 10.4687 5.61595 10.4268 5.60015 10.3886C5.58435 10.3505 5.5576 10.3179 5.52327 10.295C5.48895 10.272 5.44859 10.2598 5.40731 10.2598L1.44875 10.2598C1.3934 10.2598 1.34031 10.2818 1.30117 10.3209C1.26202 10.3601 1.24003 10.4132 1.24003 10.4685V14.4262C1.24003 14.4675 1.25227 14.5078 1.2752 14.5422C1.29813 14.5765 1.33073 14.6032 1.36886 14.619C1.407 14.6348 1.44896 14.6389 1.48945 14.6309C1.52994 14.6228 1.56713 14.603 1.59632 14.5738L2.8149 13.3555C3.91803 14.2384 5.24827 14.7918 6.65229 14.9518C8.05632 15.1118 9.47698 14.8718 10.7505 14.2597C12.0241 13.6475 13.0987 12.688 13.8506 11.4917C14.6024 10.2955 15.0009 8.9112 15 7.49839H13.0079C13.0097 8.25887 12.8527 9.01134 12.547 9.70769Z" fill="#4BBE95"/>
</svg>
