<svg width="15" height="19" viewBox="0 0 15 19" fill="none" xmlns="http://www.w3.org/2000/svg">
<path d="M4.22173 18.4727L6.75126 10.97H0.414551L10.0152 0.418091L7.48564 7.92079H13.8223L4.22173 18.4727Z" fill="#4BBE95"/>
<path d="M4.63589 18.5971C4.71964 18.3481 4.80338 18.1011 4.88713 17.852C5.08897 17.2551 5.28867 16.6603 5.49052 16.0633C5.73531 15.3375 5.98011 14.6139 6.2249 13.8881C6.43533 13.2632 6.64577 12.6405 6.85621 12.0156C6.95928 11.7129 7.07309 11.4123 7.16327 11.1052C7.16542 11.1009 7.16542 11.0966 7.16757 11.0923C7.25775 10.8239 7.0194 10.549 6.75314 10.549C6.03808 10.549 5.32303 10.549 4.60798 10.549C3.4699 10.549 2.33183 10.549 1.19376 10.549C0.933931 10.549 0.674106 10.549 0.416429 10.549C0.517353 10.7938 0.618276 11.0386 0.7192 11.2813C1.03915 10.9313 1.35695 10.5791 1.6769 10.2291C2.44349 9.38734 3.21008 8.54345 3.97667 7.7017C4.89786 6.68817 5.8212 5.67464 6.7424 4.66326C7.54335 3.78287 8.34214 2.90462 9.14309 2.02422C9.52961 1.6012 9.9333 1.18677 10.3026 0.748718C10.3069 0.742276 10.3134 0.735834 10.3198 0.73154C10.0815 0.591965 9.84097 0.45239 9.60262 0.312815C9.51887 0.561902 9.43513 0.808843 9.35138 1.05793C9.14953 1.65488 8.94983 2.24969 8.74799 2.84664C8.50319 3.57243 8.2584 4.29607 8.01361 5.02186C7.80317 5.64673 7.59273 6.26945 7.3823 6.89432C7.27923 7.19709 7.16542 7.49771 7.07523 7.80477C7.07309 7.80907 7.07309 7.81336 7.07094 7.81766C6.98075 8.08607 7.2191 8.36093 7.48537 8.36093C8.20042 8.36093 8.91548 8.36093 9.63053 8.36093C10.7686 8.36093 11.9067 8.36093 13.0448 8.36093C13.3046 8.36093 13.5644 8.36093 13.8221 8.36093C13.7212 8.11613 13.6202 7.87134 13.5193 7.62869C13.1994 7.97871 12.8816 8.33086 12.5616 8.68088C11.795 9.52262 11.0284 10.3665 10.2618 11.2083C9.34064 12.2218 8.4173 13.2353 7.4961 14.2467C6.69516 15.1271 5.89636 16.0053 5.09541 16.8857C4.7089 17.3109 4.31594 17.7296 3.93587 18.1612C3.92943 18.1677 3.92513 18.1741 3.91869 18.1784C3.76838 18.3438 3.74261 18.6229 3.91869 18.7861C4.08403 18.9364 4.36533 18.9643 4.52638 18.7861C4.84633 18.4361 5.16413 18.0839 5.48408 17.7339C6.25067 16.8922 7.01726 16.0483 7.78384 15.2065C8.70504 14.193 9.62838 13.1795 10.5496 12.1681C11.3505 11.2877 12.1493 10.4095 12.9503 9.52906C13.3368 9.1039 13.7319 8.68517 14.1098 8.25356C14.1141 8.24712 14.1206 8.24068 14.127 8.23638C14.3718 7.96582 14.2086 7.50415 13.8242 7.50415C13.1092 7.50415 12.3941 7.50415 11.6791 7.50415C10.541 7.50415 9.40292 7.50415 8.26484 7.50415C8.00502 7.50415 7.74519 7.50415 7.48752 7.50415C7.62494 7.68452 7.76452 7.86705 7.90195 8.04742C7.98569 7.79833 8.06944 7.55139 8.15318 7.3023C8.35503 6.70535 8.55473 6.11055 8.75658 5.5136C9.00137 4.78781 9.24616 4.06416 9.49096 3.33837C9.70139 2.71351 9.91183 2.09079 10.1223 1.46592C10.2232 1.16315 10.3456 0.862526 10.4293 0.55546C10.4315 0.551166 10.4315 0.546871 10.4336 0.542577C10.5711 0.138883 9.99987 -0.187508 9.71642 0.123851C9.39647 0.473863 9.07867 0.826021 8.75872 1.17603C7.99213 2.01778 7.22554 2.86167 6.45896 3.70341C5.53776 4.71694 4.61442 5.73047 3.69322 6.74186C2.89228 7.62225 2.09348 8.5005 1.29253 9.3809C0.906016 9.80607 0.510911 10.2248 0.132984 10.6564C0.12869 10.6628 0.122248 10.6693 0.115806 10.6736C-0.128987 10.9441 0.0342083 11.4058 0.418577 11.4058C1.13363 11.4058 1.84868 11.4058 2.56374 11.4058C3.70181 11.4058 4.83988 11.4058 5.97796 11.4058C6.23778 11.4058 6.49761 11.4058 6.75528 11.4058C6.61786 11.2254 6.47828 11.0429 6.34085 10.8625C6.25711 11.1116 6.17336 11.3586 6.08962 11.6077C5.88777 12.2046 5.68807 12.7994 5.48622 13.3964C5.24143 14.1222 4.99664 14.8458 4.75184 15.5716C4.54141 16.1965 4.33097 16.8192 4.12054 17.444C4.01747 17.7468 3.90366 18.0474 3.81347 18.3545C3.81132 18.3588 3.81132 18.3631 3.80918 18.3674C3.73832 18.58 3.89077 18.8462 4.1098 18.8956C4.34386 18.9515 4.55859 18.8248 4.63589 18.5971Z" fill="#4BBE95"/>
</svg>
