<svg width="186" height="77" viewBox="0 0 186 77" fill="none" xmlns="http://www.w3.org/2000/svg">
<path d="M156.669 71.4168H161.935C168.147 71.4168 173.589 67.3332 175.187 61.3828H159.391L156.669 71.4168Z" fill="black"/>
<path d="M125.787 66.2246C126.556 66.2246 127.207 65.6412 127.325 64.7078C127.385 64.0661 126.971 63.6577 126.379 63.6577H124.131L123.421 66.2246H125.787V66.2246ZM122.415 61.4409H127.03C128.686 61.4409 129.81 62.6077 129.692 64.3578C129.455 66.8663 127.562 68.4414 125.61 68.4414H122.888L122.06 71.4749H119.753L122.415 61.4409Z" fill="#FF8300"/>
<path d="M136.791 66.1662C137.442 66.1662 138.152 65.5829 138.211 64.6495C138.27 64.0078 137.915 63.5994 137.264 63.5994H134.957L134.306 66.1662H136.791V66.1662ZM133.241 61.4409H137.915C139.572 61.4409 140.755 62.4327 140.577 64.4745C140.4 66.6913 138.684 68.0914 136.791 68.1497L139.039 71.4749H136.258L134.188 68.2664H133.774L132.946 71.4749H130.579L133.241 61.4409Z" fill="#FF8300"/>
<path d="M144.778 66.9248C144.66 68.4416 145.547 69.375 146.908 69.375C148.387 69.375 150.043 68.0332 150.221 65.9331C150.339 64.4163 149.452 63.4829 148.091 63.4829C146.612 63.4829 144.955 64.8247 144.778 66.9248ZM152.587 65.6997C152.291 69.2 149.333 71.5918 146.494 71.5918C143.891 71.5918 142.234 69.725 142.471 67.1582C142.766 63.6579 145.724 61.2661 148.564 61.2661C151.108 61.2661 152.765 63.1329 152.587 65.6997Z" fill="#FF8300"/>
<path d="M42.0185 21.1504H18.7537C12.522 21.1504 7.12125 25.2503 5.51883 31.1659L4.15381 36.203H21.0683L15.9643 31.1659H39.3478L42.0185 21.1504Z" fill="black"/>
<path d="M26.1136 41.1816H2.73004L0 51.1971H23.2648C29.4965 51.1971 34.8973 47.0972 36.4997 41.1816L37.8647 36.1445H20.9502L26.1136 41.1816ZM57.5093 39.7173L59.8238 31.2246H72.8213L75.5513 21.2091H62.5539L64.8092 12.8335H54.3044L52.0491 21.2091H47.3012L44.5711 31.2246H49.3191L47.2418 38.7802C45.5207 45.1058 50.328 51.3143 56.9751 51.3143H67.3612L70.0912 41.2987H58.6962C57.8654 41.2402 57.2719 40.4787 57.5093 39.7173ZM186 21.1505H171.222L159.53 31.166H156.325L159.056 21.1505H148.551L140.361 51.2557H150.865L153.595 41.2402H157.869L165.228 51.2557H177.81L167.364 37.0817L186 21.1505ZM143.269 21.1505H130.39C124.158 21.1505 118.758 25.2504 117.155 31.166L111.695 51.1971H122.2L126.948 33.6846C127.363 32.1617 128.728 31.1075 130.331 31.1075H140.539L143.269 21.1505ZM101.487 21.1505H80.7741L78.044 31.166H99.7658C100.597 31.166 101.131 31.9275 100.953 32.6889L100.003 36.2031H87.2431C81.0115 36.2031 75.6107 40.303 74.0083 46.2186L72.6433 51.2557H83.148L83.8009 48.7957C84.2163 47.2729 85.5814 46.2186 87.1838 46.2186H97.2731L95.9081 51.2557H106.413L111.161 33.6846C112.941 27.359 108.075 21.1505 101.487 21.1505Z" fill="#FF8300"/>
</svg>
