<svg width="218" height="90" viewBox="0 0 218 90" fill="none" xmlns="http://www.w3.org/2000/svg">
<path d="M72.1602 41.4868C73.6296 41.1992 76.6088 40.9883 79.3867 40.9883C82.8087 40.9883 84.9022 41.2951 86.6937 42.3112C88.4249 43.1931 89.6729 44.7843 89.6729 46.9315C89.6729 49.0212 88.3846 50.9958 85.6067 51.9736V52.0503C88.4249 52.7788 90.5184 54.8109 90.5184 57.8592C90.5184 59.9872 89.4917 61.6743 87.9418 62.8629C86.1502 64.2241 83.1308 64.991 78.2192 64.991C75.4614 64.991 73.4082 64.8184 72.1602 64.6459V41.4868V41.4868ZM77.6958 50.5165H79.5276C82.4665 50.5165 84.0366 49.3663 84.0366 47.6217C84.0366 45.8387 82.6074 44.8993 80.0711 44.8993C78.8633 44.8993 78.1588 44.976 77.6757 45.0335V50.5165H77.6958ZM77.6958 60.965C78.2393 61.0417 78.9036 61.0417 79.8698 61.0417C82.4061 61.0417 84.6405 60.1406 84.6405 57.6483C84.6405 55.2711 82.4061 54.3317 79.6081 54.3317H77.6958V60.965Z" fill="black"/>
<path d="M104.47 64.7415L104.148 63.0353H104.048C102.88 64.3964 101.028 65.1249 98.9145 65.1249C95.2711 65.1249 93.1172 62.6135 93.1172 59.872C93.1172 55.4242 97.3042 53.2962 103.645 53.3345V53.0853C103.645 52.1843 103.122 50.8806 100.384 50.8806C98.5522 50.8806 96.5996 51.4749 95.4321 52.1843L94.4055 48.7526C95.6535 48.0816 98.1093 47.2572 101.37 47.2572C107.349 47.2572 109.261 50.6122 109.261 54.6382V60.5813C109.261 62.2301 109.342 63.8021 109.523 64.7415H104.47V64.7415ZM103.806 56.6704C100.867 56.632 98.5924 57.303 98.5924 59.3544C98.5924 60.7155 99.5385 61.3865 100.787 61.3865C102.176 61.3865 103.323 60.5046 103.685 59.431C103.766 59.1435 103.786 58.8367 103.786 58.53V56.6704H103.806Z" fill="black"/>
<path d="M119.586 42.7519V47.6406H123.592V51.5516H119.586V57.7439C119.586 59.8144 120.109 60.7538 121.78 60.7538C122.485 60.7538 123.028 60.6772 123.431 60.6196L123.471 64.6456C122.746 64.9332 121.418 65.1058 119.828 65.1058C118.036 65.1058 116.526 64.5114 115.641 63.6296C114.614 62.6135 114.091 60.9647 114.091 58.5683V51.5707H111.695V47.6598H114.091V43.9597L119.586 42.7519Z" fill="black"/>
<path d="M133.074 42.7519V47.6406H137.08V51.5516H133.074V57.7439C133.074 59.8144 133.597 60.7538 135.268 60.7538C135.972 60.7538 136.516 60.6772 136.919 60.6196L136.959 64.6456C136.234 64.9332 134.906 65.1058 133.315 65.1058C131.524 65.1058 130.014 64.5114 129.128 63.6296C128.102 62.6135 127.578 60.9647 127.578 58.5683V51.5707H125.203V47.6598H127.599V43.9597L133.074 42.7519Z" fill="black"/>
<path d="M144.405 57.8975C144.586 60.1022 146.86 61.1566 149.477 61.1566C151.39 61.1566 152.919 60.9074 154.429 60.4664L155.154 64.0706C153.322 64.7608 151.088 65.1251 148.652 65.1251C142.553 65.1251 139.07 61.7701 139.07 56.4212C139.07 52.0885 141.888 47.2957 148.129 47.2957C153.926 47.2957 156.14 51.5901 156.14 55.8269C156.14 56.728 156.04 57.5332 155.959 57.9166H144.405V57.8975ZM150.987 54.2549C150.987 52.9704 150.403 50.804 147.827 50.804C145.472 50.804 144.525 52.8362 144.385 54.2549H150.987Z" fill="black"/>
<path d="M159.504 53.277C159.504 50.7656 159.424 49.1168 159.363 47.6406H164.174L164.355 50.7847H164.496C165.422 48.3116 167.616 47.2572 169.348 47.2572C169.871 47.2572 170.112 47.2572 170.515 47.3339V52.3376C170.112 52.2609 169.629 52.2034 169.005 52.2034C166.952 52.2034 165.563 53.2579 165.181 54.8874C165.1 55.2325 165.08 55.6543 165.08 56.0761V64.7415H159.504V53.277V53.277Z" fill="black"/>
<path d="M178.306 47.6408L180.983 56.0379C181.285 57.054 181.648 58.3193 181.869 59.2203H181.97C182.231 58.3193 182.513 57.0156 182.775 56.0379L184.969 47.6408H190.947L186.76 58.8944C184.184 65.6811 182.473 68.4035 180.44 70.1097C178.487 71.7201 176.434 72.2761 175.045 72.4486L173.877 67.9433C174.582 67.8475 175.448 67.5216 176.293 67.0423C177.138 66.6205 178.064 65.777 178.608 64.9143C178.789 64.665 178.91 64.3966 178.91 64.1474C178.91 63.9749 178.87 63.6873 178.648 63.2655L172.086 47.6408H178.306V47.6408Z" fill="black"/>
<path fill-rule="evenodd" clip-rule="evenodd" d="M27.7934 48.0243C36.1472 44.2283 40.7568 36.8665 38.0997 31.556C35.4426 26.2647 26.5252 25.0378 18.1714 28.8337C9.81763 32.6296 5.20795 39.9915 7.86506 45.3019C10.5222 50.5933 19.4396 51.8202 27.7934 48.0243Z" fill="white"/>
<path fill-rule="evenodd" clip-rule="evenodd" d="M47.5824 62.8055C55.9362 59.0095 60.5459 51.6477 57.8888 46.3372C55.2317 41.0459 46.3143 39.8189 37.9605 43.6149C29.6067 47.4108 24.997 54.7726 27.6541 60.0831C30.3112 65.3744 39.2286 66.6014 47.5824 62.8055Z" fill="white"/>
<path fill-rule="evenodd" clip-rule="evenodd" d="M31.6403 46.8355C44.161 37.3648 51.2063 25.747 46.8181 20.4748C42.4097 15.2027 28.6209 18.6344 16.1003 28.105C3.57967 37.5757 -3.04297 49.5962 1.36541 54.8684C5.75367 60.1597 19.1197 56.3062 31.6403 46.8355ZM22.5619 36.483H23.6086C24.8969 36.483 25.8028 36.3488 26.3463 36.0804C26.8898 35.812 27.232 35.3518 27.3729 34.6808C27.5339 33.9907 27.4131 33.5114 27.0307 33.243C26.6482 32.9554 25.8028 32.8212 24.5145 32.8212H23.3872L22.5619 36.483ZM15.2951 47.3723L19.4015 29.217H24.6151C26.769 29.217 28.2586 29.2937 29.0839 29.4087C29.9092 29.5429 30.5936 29.773 31.1371 30.0989C31.7611 30.4631 32.1838 30.9616 32.4053 31.5942C32.6267 32.2269 32.6468 32.9362 32.4657 33.7606C32.2241 34.7959 31.7812 35.6202 31.0767 36.2146C30.3923 36.828 29.406 37.2882 28.1177 37.5949C29.4462 37.6908 30.4124 38.1509 30.9761 38.9561C31.5598 39.7613 31.7007 40.8349 31.3988 42.196C31.1774 43.1546 30.7748 44.0173 30.1709 44.7458C29.567 45.4744 28.8222 46.0495 27.9365 46.4521C27.2118 46.778 26.3463 47.0081 25.38 47.1614C24.3937 47.2956 22.8236 47.3723 20.6496 47.3723H15.2951ZM20.9314 43.6722H22.7431C23.971 43.6722 24.8768 43.5189 25.4606 43.2313C26.0443 42.9437 26.4066 42.4453 26.5677 41.7551C26.7488 40.9882 26.6281 40.4706 26.2255 40.1639C25.8229 39.8571 24.9976 39.7038 23.7294 39.7038H21.8372L20.9314 43.6722Z" fill="#E3041A"/>
<path d="M57.4468 72.9473C54.8904 72.9473 52.7969 70.9726 52.7969 68.5187C52.7969 66.0648 54.8702 64.0901 57.4468 64.0901C60.0234 64.0901 62.0968 66.0648 62.0968 68.5187C62.0968 70.9726 60.0033 72.9473 57.4468 72.9473ZM57.4468 64.4927C55.1118 64.4927 53.1995 66.2948 53.1995 68.5379C53.1995 70.7809 55.0917 72.5831 57.4468 72.5831C59.802 72.5831 61.6942 70.7809 61.6942 68.5379C61.6942 66.2948 59.7819 64.4927 57.4468 64.4927Z" fill="black"/>
<path fill-rule="evenodd" clip-rule="evenodd" d="M50.6219 62.882C63.1426 53.4113 69.7652 41.3717 65.3568 36.0995C60.9484 30.8274 47.8239 34.4508 35.3033 43.9215C22.7827 53.3922 15.5159 65.2209 19.9243 70.4931C24.3125 75.7652 38.1215 72.3527 50.6219 62.882ZM42.2682 51.7434H43.3149C44.6032 51.7434 45.509 51.6092 46.0525 51.3408C46.596 51.0724 46.9382 50.6123 47.0791 49.9413C47.2402 49.2511 47.1194 48.7718 46.7369 48.5034C46.3545 48.235 45.509 48.0817 44.2207 48.0817H43.0935L42.2682 51.7434ZM35.0014 62.6328L39.1078 44.4774H44.3214C46.4752 44.4774 47.9648 44.5541 48.7901 44.6692C49.6155 44.8034 50.2999 45.0334 50.8434 45.3593C51.4674 45.7236 51.8901 46.222 52.1115 46.8547C52.333 47.4874 52.3531 48.1967 52.1719 49.0211C51.9304 50.0563 51.4875 50.8807 50.783 51.475C50.0986 52.0885 49.1122 52.5486 47.8239 52.8554C49.1525 52.9512 50.1187 53.4113 50.6823 54.2165C51.2661 55.0217 51.407 56.0953 51.105 57.4565C50.8836 58.4151 50.481 59.2778 49.8771 60.0063C49.2733 60.7348 48.5285 61.31 47.6428 61.7126C46.9181 62.0385 46.0525 62.2685 45.0863 62.4219C44.0999 62.5561 42.5298 62.6328 40.3558 62.6328H35.0014V62.6328ZM40.6377 58.9327H42.4493C43.6772 58.9327 44.5831 58.7793 45.1668 58.4918C45.7506 58.2042 46.1129 57.7057 46.2739 57.0156C46.4551 56.2487 46.3343 55.7311 45.9317 55.4243C45.5291 55.1176 44.7038 54.9642 43.4357 54.9642H41.5435L40.6377 58.9327Z" fill="#33A648"/>
<path fill-rule="evenodd" clip-rule="evenodd" d="M55.3125 71.3943V66.0646H57.7884C58.2917 66.0646 58.6742 66.1221 58.9157 66.1988C59.1774 66.2947 59.3787 66.4672 59.5397 66.6973C59.7008 66.9465 59.7813 67.2149 59.7813 67.5025C59.7813 67.8859 59.6605 68.1927 59.3988 68.4611C59.1371 68.7103 58.7547 68.8828 58.2112 68.9595C58.4125 69.0554 58.5534 69.1321 58.654 69.2279C58.8754 69.4196 59.0767 69.6497 59.278 69.9373L60.2443 71.3943H59.3183L58.5735 70.2823C58.3521 69.9564 58.1709 69.7264 58.03 69.5538C57.8891 69.3813 57.7683 69.2663 57.6475 69.1896C57.5268 69.1129 57.4261 69.0745 57.3053 69.0554C57.2248 69.0362 57.0839 69.0362 56.9027 69.0362H56.0372V71.3943H55.3125ZM56.0372 68.4227H57.6274C57.9696 68.4227 58.2313 68.3844 58.4125 68.3269C58.5936 68.2693 58.7547 68.1543 58.8553 68.0009C58.956 67.8476 58.9962 67.6942 58.9962 67.5217C58.9962 67.2724 58.8956 67.0615 58.7144 66.9082C58.5332 66.7548 58.2112 66.659 57.8086 66.659H56.0372V68.4227V68.4227Z" fill="black"/>
<path d="M159.102 33.0897C159.605 32.9939 160.39 32.9172 161.195 32.9172C162.342 32.9172 163.067 33.1089 163.631 33.5498C164.094 33.8949 164.376 34.4125 164.376 35.0835C164.376 35.9271 163.812 36.6556 162.866 37.0007V37.0199C163.711 37.2307 164.698 37.9209 164.698 39.2054C164.698 39.9531 164.396 40.5282 163.953 40.95C163.329 41.506 162.342 41.7552 160.893 41.7552C160.108 41.7552 159.504 41.6977 159.122 41.6593V33.0897H159.102ZM160.249 36.6556H161.296C162.503 36.6556 163.208 36.0421 163.208 35.1986C163.208 34.1825 162.423 33.7799 161.255 33.7799C160.732 33.7799 160.43 33.8182 160.249 33.8566V36.6556ZM160.249 40.835C160.47 40.8733 160.792 40.8925 161.215 40.8925C162.403 40.8925 163.49 40.4707 163.49 39.2054C163.49 38.0168 162.443 37.5183 161.195 37.5183H160.249V40.835V40.835Z" fill="black"/>
<path d="M166.892 38.7644C166.912 40.2981 167.918 40.9308 169.086 40.9308C169.911 40.9308 170.414 40.7966 170.857 40.6049L171.059 41.4101C170.656 41.5826 169.951 41.7935 168.945 41.7935C166.992 41.7935 165.805 40.5282 165.805 38.6302C165.805 36.7514 166.932 35.256 168.784 35.256C170.857 35.256 171.421 37.0582 171.421 38.2084C171.421 38.4385 171.401 38.6302 171.381 38.7452H166.892V38.7644ZM170.294 37.9592C170.314 37.2307 169.992 36.1188 168.683 36.1188C167.516 36.1188 166.992 37.1732 166.912 37.9592H170.294Z" fill="black"/>
<path d="M172.689 40.5284C173.031 40.7392 173.635 40.9885 174.219 40.9885C175.064 40.9885 175.446 40.5667 175.446 40.0491C175.446 39.5123 175.124 39.2055 174.259 38.8988C173.111 38.4962 172.568 37.8827 172.568 37.135C172.568 36.1189 173.393 35.2946 174.762 35.2946C175.406 35.2946 175.97 35.4671 176.332 35.678L176.05 36.5024C175.809 36.349 175.346 36.1381 174.742 36.1381C174.057 36.1381 173.675 36.5215 173.675 37.0008C173.675 37.5184 174.057 37.7485 174.883 38.0552C175.99 38.477 176.554 39.0138 176.554 39.934C176.554 41.0268 175.688 41.8128 174.178 41.8128C173.474 41.8128 172.83 41.6403 172.387 41.3911L172.689 40.5284Z" fill="black"/>
<path d="M179.45 33.6266V35.4288H181.1V36.2915H179.45V39.6656C179.45 40.4325 179.671 40.8734 180.315 40.8734C180.617 40.8734 180.838 40.8351 180.979 40.7968L181.04 41.6403C180.818 41.7362 180.456 41.7937 180.013 41.7937C179.47 41.7937 179.047 41.6211 178.765 41.3144C178.443 40.9693 178.322 40.4325 178.322 39.6848V36.2915H177.336V35.4288H178.322V33.9334L179.45 33.6266Z" fill="black"/>
<path d="M190.804 41.6978C190.562 41.4486 190.32 41.1994 189.978 40.8351C189.213 41.5253 188.368 41.832 187.382 41.832C185.65 41.832 184.664 40.7009 184.664 39.3973C184.664 38.2086 185.389 37.3843 186.395 36.8475V36.8091C185.932 36.234 185.65 35.6013 185.65 34.9878C185.65 33.9334 186.435 32.8406 187.905 32.8406C189.012 32.8406 189.858 33.5692 189.858 34.6811C189.858 35.6013 189.314 36.3298 187.905 37.0008V37.0392C188.65 37.9019 189.495 38.8413 190.059 39.4739C190.461 38.8605 190.743 38.0169 190.904 36.9241H191.951C191.709 38.2853 191.327 39.3781 190.683 40.1449C191.166 40.6434 191.609 41.1227 192.152 41.6787H190.804V41.6978ZM189.415 40.1833C188.891 39.6081 187.905 38.5537 186.919 37.4418C186.435 37.7293 185.771 38.2853 185.771 39.2055C185.771 40.2025 186.516 40.9693 187.583 40.9693C188.348 40.9693 188.992 40.6434 189.415 40.1833ZM186.717 34.8728C186.717 35.4863 186.999 35.9656 187.382 36.4449C188.267 35.9464 188.851 35.4671 188.851 34.7386C188.851 34.2018 188.549 33.6075 187.824 33.6075C187.08 33.6075 186.717 34.2018 186.717 34.8728Z" fill="black"/>
<path d="M196 33.0897C196.503 32.9939 197.288 32.9172 198.093 32.9172C199.241 32.9172 199.966 33.1089 200.529 33.5498C200.992 33.8949 201.274 34.4125 201.274 35.0835C201.274 35.9271 200.71 36.6556 199.764 37.0007V37.0199C200.61 37.2307 201.596 37.9209 201.596 39.2054C201.596 39.9531 201.294 40.5282 200.851 40.95C200.227 41.506 199.241 41.7552 197.792 41.7552C197.006 41.7552 196.403 41.6977 196.02 41.6593V33.0897H196ZM197.147 36.6556H198.194C199.402 36.6556 200.106 36.0421 200.106 35.1986C200.106 34.1825 199.321 33.7799 198.154 33.7799C197.63 33.7799 197.329 33.8182 197.147 33.8566V36.6556ZM197.147 40.835C197.369 40.8733 197.691 40.8925 198.114 40.8925C199.301 40.8925 200.388 40.4707 200.388 39.2054C200.388 38.0168 199.341 37.5183 198.093 37.5183H197.147V40.835V40.835Z" fill="black"/>
<path d="M203.79 38.7644C203.81 40.2981 204.817 40.9308 205.984 40.9308C206.81 40.9308 207.313 40.7966 207.756 40.6049L207.957 41.4101C207.554 41.5826 206.85 41.7935 205.843 41.7935C203.891 41.7935 202.703 40.5282 202.703 38.6302C202.703 36.7514 203.83 35.256 205.682 35.256C207.756 35.256 208.319 37.0582 208.319 38.2084C208.319 38.4385 208.299 38.6302 208.279 38.7452H203.79V38.7644ZM207.192 37.9592C207.212 37.2307 206.89 36.1188 205.582 36.1188C204.414 36.1188 203.891 37.1732 203.81 37.9592H207.192Z" fill="black"/>
<path d="M209.587 40.5284C209.929 40.7392 210.533 40.9885 211.117 40.9885C211.962 40.9885 212.345 40.5667 212.345 40.0491C212.345 39.5123 212.023 39.2055 211.157 38.8988C210.01 38.4962 209.466 37.8827 209.466 37.135C209.466 36.1189 210.292 35.2946 211.66 35.2946C212.305 35.2946 212.868 35.4671 213.231 35.678L212.949 36.5024C212.707 36.349 212.244 36.1381 211.64 36.1381C210.956 36.1381 210.573 36.5215 210.573 37.0008C210.573 37.5184 210.956 37.7485 211.781 38.0552C212.888 38.477 213.452 39.0138 213.452 39.934C213.452 41.0268 212.586 41.8128 211.077 41.8128C210.372 41.8128 209.728 41.6403 209.285 41.3911L209.587 40.5284Z" fill="black"/>
<path d="M216.348 33.6266V35.4288H217.999V36.2915H216.348V39.6656C216.348 40.4325 216.569 40.8734 217.214 40.8734C217.515 40.8734 217.737 40.8351 217.878 40.7968L217.938 41.6403C217.717 41.7362 217.354 41.7937 216.912 41.7937C216.368 41.7937 215.945 41.6211 215.664 41.3144C215.341 40.9693 215.221 40.4325 215.221 39.6848V36.2915H214.234V35.4288H215.221V33.9334L216.348 33.6266Z" fill="black"/>
</svg>
