<svg width="186" height="77" viewBox="0 0 186 77" fill="none" xmlns="http://www.w3.org/2000/svg">
<g clip-path="url(#clip0_1627_6338)">
<path d="M0.963867 35.4736H5.14153V59.0162H0.963867V35.4736ZM20.6953 59.0162L7.2625 48.6372C6.87687 48.3841 6.68405 48.0677 6.55551 47.8145C6.42696 47.5614 6.42696 47.2449 6.42696 46.9285C6.42696 46.5488 6.49124 46.2323 6.61978 45.9792C6.74832 45.7261 7.00541 45.4096 7.45531 45.0932L20.1168 35.4736H26.544L10.8617 46.9918L26.9939 59.0162H20.6953Z" fill="#024B4D"/>
<path d="M36.6342 59.0162C34.9631 59.0162 33.4206 58.6998 32.0066 58.0669C30.5926 57.4341 29.3715 56.6113 28.3431 55.5355C27.3148 54.4596 26.4792 53.1939 25.9008 51.7383C25.3223 50.2827 25.001 48.7005 25.001 46.9918C25.001 45.283 25.3223 43.7009 25.9008 42.2453C26.4792 40.7897 27.3148 39.5873 28.3431 38.5747C29.3715 37.5621 30.5926 36.8027 32.0066 36.2331C33.4206 35.7268 34.9631 35.4736 36.6342 35.4736H42.4186C44.154 35.4736 45.7607 35.7268 47.1747 36.2964C48.5887 36.8659 49.8741 37.6254 50.9025 38.638C51.9308 39.6505 52.7021 40.853 53.2805 42.3086C53.859 43.7009 54.1161 45.283 54.1161 46.9918C54.1161 48.7005 53.7947 50.2827 53.2163 51.7383C52.6378 53.1939 51.8023 54.4596 50.7739 55.5355C49.7456 56.6113 48.5244 57.4341 47.0462 58.0669C45.6322 58.6998 44.0254 59.0162 42.3543 59.0162H36.6342ZM42.4186 54.9026C43.5112 54.9026 44.5396 54.7127 45.4394 54.333C46.3392 53.9533 47.1747 53.3837 47.8174 52.7509C48.4602 52.0547 49.0386 51.232 49.36 50.2827C49.7456 49.3334 49.9384 48.3208 49.9384 47.1816C49.9384 46.1058 49.7456 45.0299 49.36 44.1439C48.9743 43.1946 48.4602 42.3719 47.8174 41.739C47.1747 41.0428 46.3392 40.5366 45.4394 40.1568C44.5396 39.7771 43.5112 39.5873 42.4186 39.5873H36.6342C35.5415 39.5873 34.5775 39.7771 33.6777 40.1568C32.7779 40.5366 32.0066 41.0428 31.2996 41.739C30.6569 42.4352 30.1427 43.1946 29.7571 44.1439C29.3715 45.0932 29.1786 46.1058 29.1786 47.2449C29.1786 48.3208 29.3715 49.3967 29.7571 50.346C30.1427 51.2953 30.6569 52.118 31.2996 52.8141C31.9423 53.5103 32.7136 54.0166 33.6777 54.3963C34.5775 54.776 35.6058 54.9659 36.6342 54.9659H42.4186V54.9026Z" fill="#024B4D"/>
<path d="M57.2017 35.4736H61.3793V59.1428H57.2017V35.4736ZM76.4832 59.1428V48.8904H64.0145V45.2198H76.4832V35.4736H80.6608V59.1428H76.4832Z" fill="#024B4D"/>
<path d="M92.1657 59.0162V39.5873H83.0391V35.4736H105.406V39.5873H96.3433V59.0162H92.1657Z" fill="#024B4D"/>
<path d="M128.608 59.0159L125.973 53.067H111.512L113.055 49.7128L124.302 49.8394L117.489 35.0303L106.692 59.0792H101.936L115.561 30.8534C115.818 30.4737 116.075 30.094 116.397 29.9041C116.718 29.651 117.104 29.5244 117.554 29.5244C118.003 29.5244 118.389 29.651 118.71 29.9041C119.032 30.1573 119.289 30.4737 119.546 30.8534L133.172 59.0159H128.608Z" fill="#024B4D"/>
<path d="M135.549 35.4736H139.726V59.0162H135.549V35.4736ZM155.216 59.0162L141.847 48.6372C141.462 48.3841 141.269 48.0677 141.14 47.8145C141.012 47.5614 141.012 47.2449 141.012 46.9285C141.012 46.5488 141.076 46.2323 141.205 45.9792C141.333 45.7261 141.59 45.4096 142.04 45.0932L154.702 35.4736H161.129L145.447 46.9918L161.579 59.0162H155.216Z" fill="#024B4D"/>
<path d="M171.67 59.0162V39.5873H162.608V35.4736H184.91V39.5873H175.848V59.0162H171.67Z" fill="#024B4D"/>
<path d="M98.2715 19.8423H1.02835C0.449902 19.8423 0 19.3993 0 18.8297C0 18.2601 0.449902 17.8171 1.02835 17.8171H97.3717L112.604 0.350063C112.99 -0.0929428 113.632 -0.0929428 114.018 0.22349C114.468 0.603209 114.468 1.23607 114.147 1.61579L98.2715 19.8423Z" fill="#E8E31B"/>
<path d="M184.845 19.8416H126.165C125.587 19.8416 125.137 19.3986 125.137 18.829C125.137 18.2594 125.587 17.8164 126.165 17.8164H184.845C185.424 17.8164 185.873 18.2594 185.873 18.829C185.873 19.3986 185.424 19.8416 184.845 19.8416Z" fill="#E8E31B"/>
<path d="M100.968 24.5251H1.08938C0.510937 24.5251 0.0610352 24.0821 0.0610352 23.5125C0.0610352 22.943 0.510937 22.4999 1.08938 22.4999H100.004L115.236 5.09616C115.622 4.65315 116.264 4.65315 116.65 4.96958C117.1 5.3493 117.1 5.98217 116.778 6.36189L100.968 24.5251Z" fill="#028563"/>
<path d="M184.973 24.5252H129.186C128.607 24.5252 128.157 24.0822 128.157 23.5126C128.157 22.943 128.607 22.5 129.186 22.5H184.909C185.488 22.5 185.937 22.943 185.937 23.5126C185.937 24.0822 185.488 24.5252 184.973 24.5252Z" fill="#028563"/>
<path d="M103.474 29.398H1.08938C0.510937 29.398 0.0610352 28.955 0.0610352 28.3854C0.0610352 27.8158 0.510937 27.3728 1.08938 27.3728H102.574L117.807 9.90573C118.192 9.46272 118.835 9.46272 119.221 9.77915C119.671 10.1589 119.671 10.7917 119.349 11.1715L103.474 29.398Z" fill="#024B4D"/>
<path d="M184.972 29.5242H132.397C131.819 29.5242 131.369 29.0812 131.369 28.5116C131.369 27.942 131.819 27.499 132.397 27.499H184.972C185.55 27.499 186 27.942 186 28.5116C185.936 29.0812 185.486 29.5242 184.972 29.5242Z" fill="#024B4D"/>
</g>
<defs>
<clipPath id="clip0_1627_6338">
<rect width="186" height="77" fill="white"/>
</clipPath>
</defs>
</svg>
