<svg width="40" height="29" viewBox="0 0 40 29" fill="none" xmlns="http://www.w3.org/2000/svg">
<path d="M31.6165 1.36583C31.8087 1.36583 31.9659 1.51949 31.9659 1.70729V4.09749H37.1894C37.4898 4.09749 37.7344 4.33651 37.7344 4.63017V27.5727C37.7344 27.6069 37.7065 27.6342 37.6715 27.6342H1.46046C1.42552 27.6342 1.39757 27.6069 1.39757 27.5727V4.63017C1.39757 4.33651 1.64215 4.09749 1.94262 4.09749H6.63846V1.70729C6.63846 1.51949 6.79569 1.36583 6.98785 1.36583H9.49999C9.69215 1.36583 9.84938 1.51949 9.84938 1.70729V4.09749H28.755V1.70729C28.755 1.51949 28.9122 1.36583 29.1044 1.36583H31.6165ZM31.6165 0H29.1044C28.1401 0 27.3574 0.764865 27.3574 1.70729V2.73166H11.2469V1.70729C11.2469 0.764865 10.4643 0 9.49999 0H6.98785C6.02353 0 5.24089 0.764865 5.24089 1.70729V2.73166H1.94262C0.869988 2.73166 0 3.58189 0 4.63017V27.5727C0 28.3615 0.656858 29 1.46046 29H37.6715C38.4786 29 39.132 28.3581 39.132 27.5727V4.63017C39.132 3.58189 38.262 2.73166 37.1894 2.73166H33.3635V1.70729C33.3635 0.764865 32.5809 0 31.6165 0Z" fill="#203569"/>
<path d="M10.6778 11.3089H9.66802V12.2957C9.66802 12.5928 9.42344 12.8318 9.11947 12.8318C8.8155 12.8318 8.57092 12.5928 8.57092 12.2957V11.3089H7.56118C7.25721 11.3089 7.01263 11.0699 7.01263 10.7728C7.01263 10.4757 7.25721 10.2367 7.56118 10.2367H8.57092V9.24992C8.57092 8.95285 8.8155 8.71383 9.11947 8.71383C9.42344 8.71383 9.66802 8.95285 9.66802 9.24992V10.2367H10.6778C10.9782 10.2436 11.2158 10.4826 11.2158 10.7728C11.2158 11.0631 10.9747 11.3055 10.6778 11.3089ZM13.7804 8.36896V13.1767C13.7804 13.7469 13.5463 14.2932 13.134 14.6962C12.7217 15.0991 12.1627 15.3244 11.5792 15.3279H6.65975C6.07626 15.3279 5.51723 15.0991 5.10495 14.6962C4.69266 14.2932 4.46207 13.7469 4.45857 13.1767V8.36896C4.45857 7.79872 4.69266 7.25239 5.10495 6.84947C5.51723 6.44655 6.07626 6.22119 6.65975 6.21777H11.5792C12.1627 6.21777 12.7217 6.44655 13.134 6.84947C13.5463 7.25239 13.7769 7.79872 13.7804 8.36896ZM12.6798 8.36896C12.6798 8.08555 12.5645 7.80897 12.3583 7.60751C12.1522 7.40605 11.8727 7.29337 11.5827 7.29337H6.66324C6.37324 7.29337 6.09373 7.40605 5.88759 7.60751C5.68145 7.80897 5.56615 8.08213 5.56615 8.36896V13.1767C5.56615 13.4601 5.68145 13.7333 5.88759 13.9347C6.09373 14.1362 6.37324 14.2489 6.66324 14.2489H11.5827C11.8727 14.2489 12.1522 14.1362 12.3583 13.9347C12.5645 13.7333 12.6798 13.4601 12.6798 13.1733V8.36554V8.36896ZM21.1281 10.2367H18.0115C17.711 10.2436 17.4734 10.4826 17.4734 10.7728C17.4734 11.0631 17.7145 11.3055 18.0115 11.3089H21.1281C21.4286 11.3021 21.6662 11.0631 21.6662 10.7728C21.6662 10.4826 21.4251 10.2401 21.1281 10.2367ZM31.5749 13.9996H28.4583C28.1579 14.0064 27.9203 14.2454 27.9203 14.5357C27.9203 14.8259 28.1614 15.0684 28.4583 15.0718H31.5749C31.8754 15.0649 32.113 14.8259 32.113 14.5357C32.113 14.2454 31.8719 14.003 31.5749 13.9996ZM31.5749 16.6869H28.4583C28.1579 16.6937 27.9203 16.9327 27.9203 17.223C27.9203 17.5132 28.1614 17.7556 28.4583 17.759H31.5749C31.8754 17.7522 32.113 17.5132 32.113 17.223C32.113 16.9327 31.8719 16.6903 31.5749 16.6869ZM24.2272 8.37237V13.1801C24.2272 13.7503 23.9931 14.2967 23.5808 14.6996C23.1685 15.1025 22.6095 15.3279 22.026 15.3313H17.1066C16.5231 15.3313 15.9641 15.1025 15.5518 14.6996C15.1395 14.2967 14.9089 13.7503 14.9054 13.1801V8.37237C14.9054 7.80214 15.1395 7.2558 15.5518 6.85288C15.9641 6.44996 16.5231 6.2246 17.1066 6.22119H22.026C22.6095 6.22119 23.1685 6.44996 23.5808 6.85288C23.9931 7.2558 24.2237 7.80214 24.2272 8.37237ZM23.1266 8.37237C23.1266 8.08896 23.0113 7.81238 22.8052 7.61092C22.599 7.40946 22.3195 7.29678 22.0295 7.29678H17.1101C16.8201 7.29678 16.5406 7.40946 16.3344 7.61092C16.1283 7.81238 16.013 8.08555 16.013 8.37237V13.1801C16.013 13.4635 16.1283 13.7367 16.3344 13.9381C16.5406 14.1396 16.8201 14.2523 17.1101 14.2523H22.0295C22.3195 14.2523 22.599 14.1396 22.8052 13.9381C23.0113 13.7367 23.1266 13.4635 23.1266 13.1767V8.36896V8.37237ZM34.674 8.37237V23.3897C34.674 23.9599 34.44 24.5062 34.0277 24.9092C33.6154 25.3121 33.0564 25.5374 32.4729 25.5409H27.5534C26.9699 25.5409 26.4109 25.3121 25.9986 24.9092C25.5863 24.5062 25.3557 23.9599 25.3522 23.3897V8.36896C25.3522 7.79872 25.5863 7.25239 25.9986 6.84947C26.4109 6.44655 26.9699 6.22119 27.5534 6.21777H32.4729C33.0564 6.21777 33.6154 6.44655 34.0277 6.84947C34.44 7.25239 34.6705 7.79872 34.674 8.36896V8.37237ZM33.5735 8.37237C33.5735 8.08896 33.4582 7.81238 33.252 7.61092C33.0459 7.40946 32.7664 7.29678 32.4764 7.29678H27.5569C27.2669 7.29678 26.9874 7.40946 26.7813 7.61092C26.5751 7.81238 26.4598 8.08555 26.4598 8.37237V23.3897C26.4598 23.6731 26.5751 23.9497 26.7813 24.1511C26.9874 24.3526 27.2669 24.4653 27.5569 24.4653H32.4764C32.7664 24.4653 33.0459 24.3526 33.252 24.1511C33.4582 23.9497 33.5735 23.6765 33.5735 23.3897V8.36896V8.37237ZM10.6079 19.5278C10.5031 19.4254 10.3633 19.3707 10.2201 19.3707C10.0768 19.3707 9.93355 19.4288 9.83223 19.5278L9.11947 20.2244L8.40671 19.5278C8.19358 19.3195 7.84419 19.3195 7.62756 19.5278C7.41443 19.7361 7.41443 20.0775 7.62756 20.2892L8.34032 20.9858L7.62756 21.6824C7.41443 21.8907 7.41443 22.2321 7.62756 22.4438C7.84069 22.6521 8.19008 22.6521 8.40671 22.4438L9.11947 21.7473L9.83223 22.4438C10.0454 22.6521 10.3948 22.6521 10.6114 22.4438C10.8245 22.2356 10.8245 21.8941 10.6114 21.6824L9.89861 20.9858L10.6114 20.2892C10.7162 20.1868 10.7721 20.0502 10.7721 19.9102C10.7721 19.7702 10.7127 19.6302 10.6114 19.5312L10.6079 19.5278ZM13.7769 18.582V23.3897C13.7769 23.9599 13.5428 24.5062 13.1305 24.9092C12.7182 25.3121 12.1592 25.5374 11.5757 25.5409H6.65625C6.07277 25.5409 5.51374 25.3121 5.10145 24.9092C4.68917 24.5062 4.45857 23.9599 4.45508 23.3897V18.582C4.45508 18.0117 4.68917 17.4654 5.10145 17.0625C5.51374 16.6595 6.07277 16.4342 6.65625 16.4308H11.5757C12.1592 16.4308 12.7182 16.6595 13.1305 17.0625C13.5428 17.4654 13.7734 18.0117 13.7769 18.582ZM12.6763 18.582C12.6763 18.2985 12.561 18.022 12.3548 17.8205C12.1487 17.619 11.8692 17.5064 11.5792 17.5064H6.65975C6.36975 17.5064 6.09024 17.619 5.88409 17.8205C5.67795 18.022 5.56265 18.2951 5.56265 18.582V23.3897C5.56265 23.6731 5.67795 23.9497 5.88409 24.1511C6.09024 24.3526 6.36975 24.4653 6.65975 24.4653H11.5792C11.8692 24.4653 12.1487 24.3526 12.3548 24.1511C12.561 23.9497 12.6763 23.6765 12.6763 23.3897V18.582ZM24.2237 18.582V23.3897C24.2237 23.9599 23.9896 24.5062 23.5773 24.9092C23.1651 25.3121 22.606 25.5374 22.0225 25.5409H17.1031C16.5196 25.5409 15.9606 25.3121 15.5483 24.9092C15.136 24.5062 14.9054 23.9599 14.9019 23.3897V18.582C14.9019 18.0117 15.136 17.4654 15.5483 17.0625C15.9606 16.6595 16.5196 16.4342 17.1031 16.4308H22.0225C22.606 16.4308 23.1651 16.6595 23.5773 17.0625C23.9896 17.4654 24.2202 18.0117 24.2237 18.582ZM23.1231 18.582C23.1231 18.2985 23.0078 18.022 22.8017 17.8205C22.5955 17.619 22.316 17.5064 22.026 17.5064H17.1066C16.8166 17.5064 16.5371 17.619 16.3309 17.8205C16.1248 18.022 16.0095 18.2951 16.0095 18.582V23.3897C16.0095 23.6731 16.1248 23.9497 16.3309 24.1511C16.5371 24.3526 16.8166 24.4653 17.1066 24.4653H22.026C22.316 24.4653 22.5955 24.3526 22.8017 24.1511C23.0078 23.9497 23.1231 23.6765 23.1231 23.3897V18.582ZM19.5628 19.0805C19.2484 19.0839 18.9968 19.3366 18.9968 19.6439C18.9968 19.9512 19.2484 20.2039 19.5628 20.2073C19.8773 20.2039 20.1288 19.9512 20.1288 19.6439C20.1288 19.3366 19.8773 19.0839 19.5628 19.0805ZM19.5628 21.7678C19.2484 21.7712 18.9968 22.0238 18.9968 22.3312C18.9968 22.6385 19.2484 22.8912 19.5628 22.8946C19.8773 22.8912 20.1288 22.6385 20.1288 22.3312C20.1288 22.0238 19.8773 21.7712 19.5628 21.7678Z" fill="#203569"/>
</svg>
