<svg width="31" height="34" viewBox="0 0 31 34" fill="none" xmlns="http://www.w3.org/2000/svg">
<path d="M24.1594 1.48502C24.3654 1.48502 24.534 1.65209 24.534 1.85628V3.22043H28.9171C29.2393 3.22043 29.5015 3.48031 29.5015 3.79959V32.4482C29.5015 32.4853 29.4715 32.515 29.4341 32.515H1.56593C1.52847 32.515 1.4985 32.4853 1.4985 32.4482V3.79959C1.4985 3.48031 1.76073 3.22043 2.08291 3.22043H5.90032V1.85628C5.90032 1.65209 6.0689 1.48502 6.27494 1.48502H8.96849C9.17453 1.48502 9.34311 1.65209 9.34311 1.85628V3.22043H21.0912V1.85628C21.0912 1.65209 21.2598 1.48502 21.4658 1.48502H24.1594ZM24.1594 0H21.4658C20.4319 0 19.5927 0.831612 19.5927 1.85628V1.73541H10.8416V1.85628C10.8416 0.831612 10.0025 0 8.96849 0H6.27494C5.24098 0 4.40182 0.831612 4.40182 1.85628V1.73541H2.08291C0.932814 1.73541 0 2.65983 0 3.79959V32.4482C0 33.3058 0.704294 34 1.56593 34H29.4341C30.2995 34 31 33.302 31 32.4482V3.79959C31 2.65983 30.0672 1.73541 28.9171 1.73541H26.0325V1.85628C26.0325 0.831612 25.1933 0 24.1594 0Z" fill="#203569"/>
<path d="M11.5316 12.53H10.4711V13.6019C10.4711 13.9246 10.2143 14.1842 9.89502 14.1842C9.57578 14.1842 9.31892 13.9246 9.31892 13.6019V12.53H8.25845C7.93921 12.53 7.68235 12.2704 7.68235 11.9477C7.68235 11.625 7.93921 11.3654 8.25845 11.3654H9.31892V10.2935C9.31892 9.97085 9.57578 9.71123 9.89502 9.71123C10.2143 9.71123 10.4711 9.97085 10.4711 10.2935V11.3654H11.5316C11.8472 11.3728 12.0967 11.6324 12.0967 11.9477C12.0967 12.263 11.8435 12.5263 11.5316 12.53ZM14.79 9.33662V14.5588C14.79 15.1782 14.5442 15.7716 14.1112 16.2093C13.6782 16.6469 13.0911 16.8917 12.4783 16.8954H7.31174C6.69895 16.8954 6.11184 16.6469 5.67884 16.2093C5.24585 15.7716 5.00367 15.1782 5 14.5588V9.33662C5 8.71723 5.24585 8.1238 5.67884 7.68615C6.11184 7.2485 6.69895 7.00371 7.31174 7H12.4783C13.0911 7 13.6782 7.2485 14.1112 7.68615C14.5442 8.1238 14.7864 8.71723 14.79 9.33662ZM13.6342 9.33662C13.6342 9.02878 13.5131 8.72836 13.2966 8.50953C13.0801 8.29071 12.7865 8.16831 12.482 8.16831H7.31541C7.01085 8.16831 6.71729 8.29071 6.5008 8.50953C6.2843 8.72836 6.16321 9.02507 6.16321 9.33662V14.5588C6.16321 14.8666 6.2843 15.1633 6.5008 15.3822C6.71729 15.601 7.01085 15.7234 7.31541 15.7234H12.482C12.7865 15.7234 13.0801 15.601 13.2966 15.3822C13.5131 15.1633 13.6342 14.8666 13.6342 14.5551V9.33291V9.33662ZM11.7736 22.4663H8.50048C8.18491 22.4737 7.93539 22.7333 7.93539 23.0486C7.93539 23.3638 8.18858 23.6272 8.50048 23.6309H11.7736C12.0892 23.6235 12.3387 23.3638 12.3387 23.0486C12.3387 22.7333 12.0855 22.47 11.7736 22.4663ZM22.7452 15.4526H19.4721C19.1565 15.4601 18.907 15.7197 18.907 16.0349C18.907 16.3502 19.1602 16.6135 19.4721 16.6172H22.7452C23.0608 16.6098 23.3103 16.3502 23.3103 16.0349C23.3103 15.7197 23.0571 15.4564 22.7452 15.4526ZM22.7452 18.3716H19.4721C19.1565 18.379 18.907 18.6386 18.907 18.9539C18.907 19.2691 19.1602 19.5325 19.4721 19.5362H22.7452C23.0608 19.5288 23.3103 19.2691 23.3103 18.9539C23.3103 18.6386 23.0571 18.3753 22.7452 18.3716ZM15.0284 20.4412V25.6634C15.0284 26.2828 14.7826 26.8762 14.3496 27.3138C13.9166 27.7515 13.3295 27.9963 12.7167 28H7.5501C6.93731 28 6.3502 27.7515 5.9172 27.3138C5.48421 26.8762 5.24203 26.2828 5.23836 25.6634V20.4412C5.23836 19.8218 5.48421 19.2284 5.9172 18.7907C6.3502 18.3531 6.93731 18.1083 7.5501 18.1046H12.7167C13.3295 18.1046 13.9166 18.3531 14.3496 18.7907C14.7826 19.2284 15.0247 19.8218 15.0284 20.4412ZM13.8725 20.4412C13.8725 20.1334 13.7514 19.8329 13.5349 19.6141C13.3184 19.3953 13.0249 19.2729 12.7203 19.2729H7.55377C7.24921 19.2729 6.95565 19.3953 6.73916 19.6141C6.52266 19.8329 6.40157 20.1297 6.40157 20.4412V25.6634C6.40157 25.9712 6.52266 26.2679 6.73916 26.4868C6.95565 26.7056 7.24921 26.828 7.55377 26.828H12.7203C13.0249 26.828 13.3184 26.7056 13.5349 26.4868C13.7514 26.2679 13.8725 25.9712 13.8725 25.6597V20.4375V20.4412ZM26 9.34033V25.6522C26 26.2716 25.7541 26.865 25.3212 27.3027C24.8882 27.7403 24.3011 27.9851 23.6883 27.9888H18.5217C17.9089 27.9888 17.3218 27.7403 16.8888 27.3027C16.4558 26.865 16.2136 26.2716 16.21 25.6522V9.33662C16.21 8.71723 16.4558 8.1238 16.8888 7.68615C17.3218 7.2485 17.9089 7.00371 18.5217 7H23.6883C24.3011 7 24.8882 7.2485 25.3212 7.68615C25.7541 8.1238 25.9963 8.71723 26 9.33662V9.34033ZM24.8441 9.34033C24.8441 9.03249 24.723 8.73207 24.5065 8.51324C24.29 8.29442 23.9965 8.17202 23.6919 8.17202H18.5254C18.2208 8.17202 17.9273 8.29442 17.7108 8.51324C17.4943 8.73207 17.3732 9.02878 17.3732 9.34033V25.6522C17.3732 25.96 17.4943 26.2605 17.7108 26.4793C17.9273 26.6981 18.2208 26.8205 18.5254 26.8205H23.6919C23.9965 26.8205 24.29 26.6981 24.5065 26.4793C24.723 26.2605 24.8441 25.9637 24.8441 25.6522V9.33662V9.34033Z" fill="#203569"/>
</svg>
