<svg width="171" height="71" viewBox="0 0 171 71" fill="none" xmlns="http://www.w3.org/2000/svg">
<g clip-path="url(#clip0_2303_13359)">
<path d="M144.489 66.4041H149.302C155.024 66.4041 159.997 62.4974 161.494 56.9086H146.949L144.489 66.4041Z" fill="black"/>
<path d="M79.1985 62.8229C78.8776 63.5283 78.5033 64.1252 78.022 64.722C77.1665 65.6445 75.9366 66.5669 74.2254 66.5669C71.7657 66.5669 70.2149 64.8306 70.4288 62.3346C70.6962 59.079 73.4233 56.8 76.0435 56.8C77.9151 56.8 78.8241 57.7225 79.2519 58.6449C79.5193 59.1875 79.6262 59.7844 79.6262 60.4897H77.4873C77.4338 60.2184 77.3804 59.9471 77.2199 59.7301C76.9526 59.3503 76.5248 58.9162 75.6157 58.9162C74.2789 58.9162 72.7282 60.2184 72.5678 62.1718C72.4608 63.5826 73.2629 64.4507 74.5463 64.4507C75.4018 64.4507 75.9901 64.0709 76.3644 63.6368C76.5783 63.4198 76.7921 63.1485 76.9526 62.8229H79.1985V62.8229Z" fill="#1BABD9"/>
<path d="M83.4756 62.1175C83.3687 63.5283 84.1708 64.4507 85.4541 64.4507C86.8444 64.4507 88.3417 63.2028 88.5021 61.1951C88.6091 59.7844 87.807 58.8619 86.5236 58.8619C85.1333 58.8619 83.636 60.1642 83.4756 62.1175ZM90.6411 60.9781C90.3737 64.288 87.6465 66.5669 85.0263 66.5669C82.62 66.5669 81.1228 64.7763 81.2832 62.3888C81.5506 59.079 84.2777 56.8 86.8979 56.8C89.3042 56.8 90.8549 58.5364 90.6411 60.9781Z" fill="#1BABD9"/>
<path d="M94.1178 56.9086H96.2567L94.8664 62.3346C94.8129 62.4974 94.8129 62.6601 94.8129 62.7687C94.706 63.7453 95.2942 64.4507 96.2567 64.4507C97.1657 64.4507 98.1283 63.7453 98.3956 62.6601L99.8929 56.9086H102.032L100.481 62.8229C99.8929 65.1561 98.0748 66.5669 95.9359 66.5669C93.6365 66.5669 92.3531 65.2104 92.567 63.1485C92.6205 62.8229 92.674 62.4974 92.7809 62.1175L94.1178 56.9086Z" fill="#1BABD9"/>
<path d="M104.812 56.9086H107.433L108.876 62.7687H109.144L110.641 56.9086H112.78L110.32 66.4041H107.7L106.31 60.5983H106.042L104.491 66.4041H102.353L104.812 56.9086Z" fill="#1BABD9"/>
<path d="M116.898 59.0247H114.331L114.866 56.9086H122.192L121.657 59.0247H119.09L117.165 66.4041H115.026L116.898 59.0247Z" fill="#1BABD9"/>
<path d="M127.753 61.4122C128.341 61.4122 128.983 60.8695 129.089 59.9471C129.143 59.3503 128.822 58.9704 128.234 58.9704H126.095L125.453 61.4122H127.753ZM124.491 56.9086H128.769C130.266 56.9086 131.389 57.8852 131.228 59.7844C131.068 61.9005 129.464 63.2027 127.753 63.257L129.785 66.4583H127.218L125.346 63.4198H124.919L124.116 66.4583H121.978L124.491 56.9086Z" fill="#1BABD9"/>
<path d="M134.918 63.3655L133.207 56.9086H135.453L136.415 60.7068H136.683L139.624 56.9086H142.137L137.057 63.3655L136.255 66.4041H134.116L134.918 63.3655Z" fill="#1BABD9"/>
<path d="M38.4389 19.5023H17.1559C11.4551 19.5023 6.51446 23.2828 5.04854 28.7374L3.7998 33.382H19.2734L14.6041 28.7374H35.9957L38.4389 19.5023Z" fill="black"/>
<path d="M23.889 37.9725H2.49748L0 47.2076H21.2829C26.9837 47.2076 31.9245 43.4272 33.3904 37.9725L34.6391 33.328H19.1655L23.889 37.9725ZM52.6102 36.6224L54.7276 28.7914H66.6178L69.1153 19.5563H57.2251L59.2882 11.8334H49.6784L47.6152 19.5563H43.2717L40.7742 28.7914H45.1177L43.2174 35.7583C41.6429 41.591 46.0407 47.3156 52.1216 47.3156H61.6229L64.1204 38.0805H53.6961C52.936 38.0265 52.393 37.3244 52.6102 36.6224ZM170.155 19.5023H156.636L145.94 28.7374H143.009L145.506 19.5023H135.896L128.404 47.2616H138.014L140.511 38.0265H144.42L151.153 47.2616H162.663L153.107 34.1921L170.155 19.5023ZM131.064 19.5023H119.282C113.582 19.5023 108.641 23.2828 107.175 28.7374L102.18 47.2076H111.79L116.133 31.0597C116.513 29.6555 117.762 28.6834 119.228 28.6834H128.566L131.064 19.5023ZM92.8415 19.5023H73.8931L71.3957 28.7374H91.267C92.0271 28.7374 92.5157 29.4395 92.3529 30.1416L91.4842 33.382H79.8111C74.1103 33.382 69.1696 37.1624 67.7037 42.6171L66.455 47.2616H76.0649L76.6621 44.9934C77.0421 43.5892 78.2909 42.6171 79.7569 42.6171H88.9867L87.7379 47.2616H97.3478L101.691 31.0597C103.32 25.227 98.8681 19.5023 92.8415 19.5023Z" fill="#1BABD9"/>
</g>
<defs>
<clipPath id="clip0_2303_13359">
<rect width="170.155" height="71" fill="white"/>
</clipPath>
</defs>
</svg>
