<svg width="171" height="71" viewBox="0 0 171 71" fill="none" xmlns="http://www.w3.org/2000/svg">
<g clip-path="url(#clip0_2303_13408)">
<path d="M144.626 65.8939H149.292C154.84 65.8939 159.662 62.0257 161.114 56.4921H147.011L144.626 65.8939Z" fill="black"/>
<path d="M125.599 60.2528C126.117 60.2528 126.636 59.823 126.688 59.1783C126.739 58.7485 126.48 58.3724 125.962 58.3724H123.94L123.473 60.2528H125.599ZM124.717 64.0135C125.288 64.0135 125.754 63.53 125.806 62.939C125.858 62.4555 125.599 62.1332 125.08 62.1332H123.006L122.54 64.0135H124.717ZM122.332 56.4921H126.636C127.984 56.4921 128.917 57.4054 128.813 58.8022C128.762 59.6618 128.347 60.3065 127.984 60.6826C127.776 60.8975 127.517 61.1124 127.258 61.2198L127.206 61.2736C127.362 61.381 127.465 61.5422 127.569 61.7034C127.776 62.0257 127.932 62.4555 127.88 62.9927C127.725 64.8194 126.325 65.8939 124.769 65.8939H119.947L122.332 56.4921Z" fill="#52AE32"/>
<path d="M132.078 56.4921H135.137L135.5 62.3481H135.76L139.078 56.4921H142.344L139.959 65.8939H137.834L139.337 60.0916H139.078L135.76 65.8939H133.841L133.478 60.0916H133.219L131.767 65.8939H129.693L132.078 56.4921Z" fill="#52AE32"/>
<path d="M38.4389 19.5023H17.1559C11.4551 19.5023 6.51446 23.2828 5.04854 28.7374L3.7998 33.382H19.2734L14.6041 28.7374H35.9957L38.4389 19.5023Z" fill="black"/>
<path d="M23.889 37.9725H2.49748L0 47.2076H21.2829C26.9837 47.2076 31.9245 43.4272 33.3904 37.9725L34.6391 33.328H19.1655L23.889 37.9725ZM52.6102 36.6224L54.7276 28.7914H66.6178L69.1153 19.5563H57.2251L59.2882 11.8334H49.6784L47.6152 19.5563H43.2717L40.7742 28.7914H45.1177L43.2174 35.7583C41.6429 41.591 46.0407 47.3156 52.1216 47.3156H61.6229L64.1204 38.0805H53.6961C52.936 38.0265 52.393 37.3244 52.6102 36.6224ZM170.155 19.5023H156.636L145.94 28.7374H143.009L145.506 19.5023H135.896L128.404 47.2616H138.014L140.511 38.0265H144.42L151.153 47.2616H162.663L153.107 34.1921L170.155 19.5023ZM131.064 19.5023H119.282C113.582 19.5023 108.641 23.2828 107.175 28.7374L102.18 47.2076H111.79L116.133 31.0597C116.513 29.6555 117.762 28.6834 119.228 28.6834H128.566L131.064 19.5023ZM92.8415 19.5023H73.8931L71.3957 28.7374H91.267C92.0271 28.7374 92.5157 29.4395 92.3529 30.1416L91.4842 33.382H79.8111C74.1103 33.382 69.1696 37.1624 67.7037 42.6171L66.455 47.2616H76.0649L76.6621 44.9934C77.0421 43.5892 78.2909 42.6171 79.7569 42.6171H88.9867L87.7379 47.2616H97.3478L101.691 31.0597C103.32 25.227 98.8681 19.5023 92.8415 19.5023Z" fill="#52AE32"/>
</g>
<defs>
<clipPath id="clip0_2303_13408">
<rect width="170.155" height="71" fill="white"/>
</clipPath>
</defs>
</svg>
