<svg width="171" height="71" viewBox="0 0 171 71" fill="none" xmlns="http://www.w3.org/2000/svg">
<g clip-path="url(#clip0_2303_13542)">
<path d="M0.881836 32.7092H4.70361V54.4173H0.881836V32.7092ZM18.9324 54.4173L6.6439 44.8471C6.29112 44.6137 6.11473 44.3219 5.99714 44.0885C5.87955 43.8551 5.87955 43.5633 5.87955 43.2715C5.87955 42.9214 5.93834 42.6296 6.05594 42.3962C6.17353 42.1628 6.40872 41.871 6.82029 41.5792L18.4032 32.7092H24.2829L9.93651 43.3299L24.6945 54.4173H18.9324Z" fill="#024B4D"/>
<path d="M33.5133 54.4173C31.9846 54.4173 30.5734 54.1256 29.2799 53.542C27.9864 52.9585 26.8693 52.1998 25.9285 51.2078C24.9878 50.2158 24.2234 49.0487 23.6942 47.7065C23.1651 46.3643 22.8711 44.9054 22.8711 43.3299C22.8711 41.7543 23.1651 40.2954 23.6942 38.9532C24.2234 37.6111 24.9878 36.5023 25.9285 35.5686C26.8693 34.6349 27.9864 33.9347 29.2799 33.4095C30.5734 32.9426 31.9846 32.7092 33.5133 32.7092H38.805C40.3925 32.7092 41.8624 32.9426 43.1559 33.4678C44.4494 33.993 45.6254 34.6933 46.5661 35.627C47.5069 36.5607 48.2124 37.6694 48.7416 39.0116C49.2708 40.2954 49.506 41.7543 49.506 43.3299C49.506 44.9054 49.212 46.3643 48.6828 47.7065C48.1536 49.0487 47.3893 50.2158 46.4485 51.2078C45.5078 52.1998 44.3906 52.9585 43.0383 53.542C41.7448 54.1256 40.2749 54.4173 38.7462 54.4173H33.5133ZM38.805 50.6242C39.8045 50.6242 40.7453 50.4492 41.5684 50.0991C42.3916 49.7489 43.1559 49.2237 43.7439 48.6402C44.3319 47.9983 44.861 47.2397 45.155 46.3643C45.5078 45.489 45.6842 44.5553 45.6842 43.5049C45.6842 42.5129 45.5078 41.5209 45.155 40.7039C44.8022 39.8286 44.3319 39.0699 43.7439 38.4864C43.1559 37.8445 42.3916 37.3776 41.5684 37.0275C40.7453 36.6774 39.8045 36.5023 38.805 36.5023H33.5133C32.5137 36.5023 31.6318 36.6774 30.8086 37.0275C29.9855 37.3776 29.2799 37.8445 28.6332 38.4864C28.0452 39.1283 27.5748 39.8286 27.222 40.7039C26.8693 41.5792 26.6929 42.5129 26.6929 43.5633C26.6929 44.5553 26.8693 45.5474 27.222 46.4227C27.5748 47.298 28.0452 48.0566 28.6332 48.6985C29.2211 49.3404 29.9267 49.8073 30.8086 50.1574C31.6318 50.5075 32.5725 50.6826 33.5133 50.6826H38.805V50.6242Z" fill="#024B4D"/>
<path d="M52.3291 32.7092H56.1509V54.534H52.3291V32.7092ZM69.9681 54.534V45.0805H58.5615V41.6959H69.9681V32.7092H73.7899V54.534H69.9681Z" fill="#024B4D"/>
<path d="M84.314 54.4173V36.5023H75.9648V32.7092H96.4261V36.5023H88.1357V54.4173H84.314Z" fill="#024B4D"/>
<path d="M117.653 54.4173L115.242 48.9319H102.013L103.424 45.8391L113.713 45.9558L107.481 32.3007L97.6029 54.4756H93.252L105.717 28.4493C105.952 28.0991 106.187 27.749 106.481 27.5739C106.775 27.3405 107.128 27.2238 107.54 27.2238C107.951 27.2238 108.304 27.3405 108.598 27.5739C108.892 27.8074 109.127 28.0991 109.362 28.4493L121.827 54.4173H117.653Z" fill="#024B4D"/>
<path d="M124.002 32.7092H127.824V54.4173H124.002V32.7092ZM141.994 54.4173L129.764 44.8471C129.411 44.6137 129.235 44.3219 129.117 44.0885C129 43.8551 129 43.5633 129 43.2715C129 42.9214 129.058 42.6296 129.176 42.3962C129.294 42.1628 129.529 41.871 129.94 41.5792L141.523 32.7092H147.403L133.057 43.3299L147.815 54.4173H141.994Z" fill="#024B4D"/>
<path d="M157.046 54.4173V36.5023H148.756V32.7092H169.158V36.5023H160.868V54.4173H157.046Z" fill="#024B4D"/>
<path d="M89.9 18.2962H0.940745C0.411576 18.2962 0 17.8877 0 17.3625C0 16.8373 0.411576 16.4288 0.940745 16.4288H89.0768L103.012 0.322785C103.364 -0.0857005 103.952 -0.0857005 104.305 0.206075C104.717 0.556206 104.717 1.13976 104.423 1.48989L89.9 18.2962Z" fill="#E8E31B"/>
<path d="M169.099 18.2955H115.417C114.888 18.2955 114.477 17.887 114.477 17.3618C114.477 16.8366 114.888 16.4281 115.417 16.4281H169.099C169.628 16.4281 170.039 16.8366 170.039 17.3618C170.039 17.887 169.628 18.2955 169.099 18.2955Z" fill="#E8E31B"/>
<path d="M92.3663 22.6139H0.99641C0.46724 22.6139 0.0556641 22.2054 0.0556641 21.6802C0.0556641 21.155 0.46724 20.7465 0.99641 20.7465H91.4844L105.419 4.69888C105.772 4.2904 106.36 4.2904 106.713 4.58217C107.124 4.9323 107.124 5.51585 106.83 5.86599L92.3663 22.6139Z" fill="#028563"/>
<path d="M169.216 22.6139H118.181C117.652 22.6139 117.24 22.2054 117.24 21.6802C117.24 21.155 117.652 20.7465 118.181 20.7465H169.158C169.687 20.7465 170.098 21.155 170.098 21.6802C170.098 22.2054 169.687 22.6139 169.216 22.6139Z" fill="#028563"/>
<path d="M94.6594 27.1073H0.99641C0.46724 27.1073 0.0556641 26.6988 0.0556641 26.1736C0.0556641 25.6484 0.46724 25.2399 0.99641 25.2399H93.8362L107.771 9.13388C108.124 8.7254 108.712 8.7254 109.065 9.01717C109.476 9.3673 109.476 9.95085 109.182 10.301L94.6594 27.1073Z" fill="#024B4D"/>
<path d="M169.215 27.2238H121.119C120.59 27.2238 120.179 26.8153 120.179 26.2901C120.179 25.7649 120.59 25.3564 121.119 25.3564H169.215C169.744 25.3564 170.156 25.7649 170.156 26.2901C170.097 26.8153 169.685 27.2238 169.215 27.2238Z" fill="#024B4D"/>
</g>
<defs>
<clipPath id="clip0_2303_13542">
<rect width="170.155" height="71" fill="white"/>
</clipPath>
</defs>
</svg>
