<svg width="145" height="60" viewBox="0 0 145 60" fill="none" xmlns="http://www.w3.org/2000/svg">
<path d="M14.4856 52.3218L16.0004 47.5757H15.4323L15.7164 46.6265H16.2844L16.4737 46.057C16.4737 45.8672 16.5684 45.7722 16.6631 45.6773C16.7578 45.5824 16.7578 45.4875 16.8524 45.2976C16.9471 45.2027 17.0418 45.1078 17.1365 45.0129C17.2311 44.9179 17.4205 44.9179 17.6098 44.823C17.7992 44.7281 17.9885 44.7281 18.2726 44.7281H18.6512L18.3672 45.7722C18.1779 45.7722 17.9885 45.7722 17.8939 45.8672C17.7992 45.8672 17.7045 46.057 17.7045 46.1519L17.5152 46.6265H18.0832L17.7992 47.5757H17.2311L15.7164 52.3218H14.4856Z" fill="black"/>
<path d="M17.6092 51.3732C17.6092 51.1833 17.7039 50.9935 17.7039 50.8986L19.0293 46.6271H20.3548L19.0293 50.8036C19.0293 50.8986 19.0293 50.9935 19.0293 50.9935C19.0293 51.2782 19.124 51.4681 19.5027 51.4681C19.9761 51.4681 20.2601 51.2782 20.3548 50.8036L21.5855 46.6271H22.911L21.1122 52.3224H19.8814L20.0708 51.7529C19.5974 52.2275 19.124 52.5122 18.6506 52.5122C18.272 52.5122 17.9879 52.4173 17.8933 52.2275C17.6092 52.0376 17.5146 51.7529 17.6092 51.3732Z" fill="black"/>
<path d="M22.438 51.6577C22.438 51.5628 22.438 51.4679 22.5327 51.3729L23.6687 47.671H23.1007L23.3847 46.6268H23.9528L24.4261 45.1081H25.7516L25.2782 46.6268H25.8462L25.5622 47.5761H24.9942L23.9528 50.8034C23.8581 50.8983 23.8581 50.9933 23.8581 51.0882C23.8581 51.1831 23.8581 51.278 23.9528 51.278C24.0474 51.278 24.1421 51.3729 24.3315 51.3729L24.0474 52.3222C23.8581 52.3222 23.6687 52.3222 23.3847 52.3222C22.6273 52.4171 22.3433 52.1323 22.438 51.6577Z" fill="black"/>
<path d="M25.2781 51.3732C25.2781 51.1833 25.3728 50.9935 25.3728 50.8986L26.6982 46.6271H28.0236L26.6982 50.8036C26.6982 50.8986 26.6982 50.9935 26.6982 50.9935C26.6982 51.2782 26.7929 51.4681 27.1716 51.4681C27.645 51.4681 27.929 51.2782 28.0236 50.8036L29.2544 46.6271H30.5798L28.781 52.3224H27.4556L27.645 51.7529C27.1716 52.2275 26.6982 52.5122 26.2248 52.5122C25.8462 52.5122 25.5621 52.4173 25.4675 52.2275C25.2781 52.0376 25.1834 51.7529 25.2781 51.3732Z" fill="black"/>
<path d="M29.7271 52.322L31.5258 46.6267H32.7566L32.3779 47.6708C32.8513 46.9114 33.4193 46.5317 34.082 46.5317L33.6087 47.9556C33.514 47.9556 33.4193 47.9556 33.3247 47.9556C33.23 47.9556 33.1353 47.9556 33.0406 47.9556C32.946 47.9556 32.8513 48.0505 32.7566 48.0505C32.6619 48.1454 32.5673 48.1454 32.4726 48.2403C32.3779 48.3353 32.2832 48.4302 32.1886 48.62C32.0939 48.8099 31.9992 48.9048 31.9045 49.0946L30.9578 52.2271H29.7271V52.322Z" fill="black"/>
<path d="M33.3247 51.1828C33.3247 50.993 33.4194 50.8031 33.3247 50.8031L34.0821 48.4301C34.3661 47.6707 34.6501 47.1961 35.1235 46.9113C35.5969 46.6266 36.0702 46.4367 36.733 46.4367C37.2063 46.4367 37.6797 46.5316 37.8691 46.7215C38.1531 46.9113 38.2477 47.291 38.2477 47.6707C38.2477 47.8605 38.1531 47.9555 38.1531 48.2402L37.6797 49.759H35.0288L34.6501 50.898C34.6501 50.993 34.6501 50.993 34.6501 51.0879C34.6501 51.3726 34.8395 51.4676 35.1235 51.4676C35.3129 51.4676 35.5022 51.3726 35.6916 51.2777C35.8809 51.1828 35.9756 50.993 35.9756 50.8031L36.0702 50.5183H37.3957C37.2063 51.1828 36.9223 51.6574 36.4489 52.0371C35.9756 52.3219 35.4075 52.5117 34.8395 52.5117C34.3661 52.5117 33.8927 52.4168 33.7034 52.2269C33.4194 51.9422 33.3247 51.6574 33.3247 51.1828ZM35.3129 48.8098H36.6383L36.9223 48.0504C36.9223 47.9555 36.9223 47.9555 36.9223 47.8605C36.9223 47.6707 36.9223 47.5758 36.8276 47.4808C36.733 47.3859 36.6383 47.3859 36.4489 47.3859C36.2596 47.3859 36.0702 47.4808 35.8809 47.5758C35.6916 47.6707 35.5969 47.8605 35.5969 48.0504L35.3129 48.8098Z" fill="black"/>
<path d="M40.2374 52.9863H41.4681C41.4681 53.1762 41.6575 53.2711 41.9415 53.2711C42.1309 53.2711 42.3202 53.1762 42.4149 53.0812C42.6042 52.9863 42.6989 52.7965 42.6989 52.7016L42.9829 51.7523C42.7936 51.9422 42.6042 52.132 42.3202 52.3219C42.0362 52.4168 41.8468 52.5117 41.6575 52.5117C41.2788 52.5117 40.9948 52.4168 40.8054 52.2269C40.6161 52.0371 40.5214 51.7523 40.5214 51.3726C40.5214 51.2777 40.5214 51.0879 40.6161 50.898L41.4681 48.0504C41.6575 47.4808 41.9415 47.1012 42.3202 46.8164C42.6989 46.5316 43.0776 46.4367 43.551 46.4367C43.835 46.4367 44.0243 46.5316 44.119 46.6266C44.3084 46.7215 44.403 46.9113 44.403 47.0062L44.4977 46.6266H45.7285L43.835 52.5117C43.6456 53.1762 43.3616 53.5558 42.9829 53.9355C42.6042 54.2203 42.1309 54.4101 41.4681 54.4101C40.9001 54.4101 40.4267 54.3152 40.2374 54.1254C40.2374 53.8406 40.1427 53.4609 40.2374 52.9863ZM42.1309 50.993C42.1309 51.1828 42.1309 51.2777 42.2255 51.3726C42.3202 51.4676 42.4149 51.4676 42.6042 51.4676C42.7936 51.4676 42.9829 51.3726 43.0776 51.2777C43.267 51.1828 43.3616 50.993 43.4563 50.8031L44.3084 48.1453C44.3084 48.0504 44.3084 47.9555 44.3084 47.9555C44.3084 47.7656 44.3084 47.6707 44.2137 47.5758C44.119 47.4808 44.0243 47.4808 43.835 47.4808C43.6456 47.4808 43.4563 47.5758 43.3616 47.6707C43.1723 47.7656 43.0776 47.9555 42.9829 48.1453L42.1309 50.7082C42.1309 50.8031 42.1309 50.898 42.1309 50.993Z" fill="black"/>
<path d="M45.5391 51.1827C45.5391 50.9928 45.6337 50.803 45.6337 50.803L46.3911 48.43C46.5805 47.5757 46.9592 47.196 47.4325 46.8163C47.9059 46.5315 48.3793 46.3417 49.042 46.3417C49.5154 46.3417 49.9887 46.4366 50.1781 46.6264C50.4621 46.8163 50.5568 47.196 50.5568 47.5757C50.5568 47.7655 50.4621 47.8604 50.4621 48.1452L49.9887 49.6639H47.3379L46.9592 50.803C46.9592 50.8979 46.9592 50.8979 46.9592 50.9928C46.9592 51.2776 47.1485 51.3725 47.4325 51.3725C47.6219 51.3725 47.8112 51.2776 48.0006 51.1827C48.1899 51.0878 48.2846 50.8979 48.2846 50.7081L48.3793 50.4233H49.7047C49.5154 51.0878 49.2313 51.5624 48.758 51.9421C48.2846 52.2268 47.7166 52.4167 47.1485 52.4167C46.6751 52.4167 46.2018 52.3217 46.0124 52.1319C45.6337 51.9421 45.5391 51.6573 45.5391 51.1827ZM47.6219 48.8096H48.9473L49.1367 48.0503C49.1367 47.9553 49.1367 47.9553 49.1367 47.8604C49.1367 47.6706 49.1367 47.5757 49.042 47.4807C48.9473 47.3858 48.8526 47.3858 48.6633 47.3858C48.474 47.3858 48.2846 47.4807 48.0953 47.5757C47.9059 47.6706 47.8112 47.8604 47.8112 48.0503L47.6219 48.8096Z" fill="black"/>
<path d="M50.082 52.3219L51.8808 46.6266H53.2063L53.0169 47.1012C53.2063 46.9113 53.3956 46.8164 53.585 46.6266C53.7743 46.5316 54.0583 46.4367 54.3424 46.4367C54.721 46.4367 55.0051 46.5316 55.0997 46.7215C55.2891 46.9113 55.3838 47.1961 55.2891 47.5758C55.2891 47.7656 55.1944 47.9555 55.1944 48.1453L53.869 52.4168H52.5435L53.869 48.3351C53.869 48.2402 53.869 48.2402 53.869 48.0504C53.869 47.7656 53.7743 47.5758 53.3956 47.5758C53.2063 47.5758 53.0169 47.6707 52.9222 47.7656C52.7329 47.8605 52.6382 48.0504 52.6382 48.2402L51.3128 52.3219H50.082Z" fill="black"/>
<path d="M55.2893 51.1828C55.2893 50.993 55.384 50.8031 55.384 50.6133L56.1414 48.2402C56.3307 47.5758 56.6147 47.1961 57.0881 46.9113C57.5615 46.6266 58.0349 46.4367 58.6976 46.4367C59.1709 46.4367 59.6443 46.5316 59.8337 46.7215C60.1177 46.9113 60.2124 47.291 60.2124 47.6707C60.2124 47.8605 60.1177 47.9555 60.1177 48.2402L59.6443 49.8539H56.9934L56.7094 50.993C56.7094 51.0879 56.7094 51.0879 56.7094 51.1828C56.7094 51.4676 56.8988 51.5625 57.1828 51.5625C57.3721 51.5625 57.5615 51.4676 57.7508 51.3726C57.9402 51.2777 58.0349 51.0879 58.0349 50.898L58.1295 50.6133H59.455C59.2656 51.2777 58.9816 51.7523 58.5082 52.132C57.9402 52.3219 57.4668 52.5117 56.8041 52.5117C56.3307 52.5117 55.8573 52.4168 55.668 52.2269C55.384 51.9422 55.2893 51.6574 55.2893 51.1828ZM57.2775 48.9047H58.6029L58.8869 48.1453C58.8869 48.0504 58.8869 48.0504 58.8869 47.9555C58.8869 47.7656 58.8869 47.6707 58.7922 47.5758C58.6976 47.4808 58.6029 47.4808 58.4136 47.4808C58.2242 47.4808 58.0349 47.5758 57.8455 47.6707C57.6562 47.7656 57.5615 47.9555 57.5615 48.1453L57.2775 48.9047Z" fill="black"/>
<path d="M59.8345 52.322L61.6333 46.6267H62.864L62.4853 47.6708C62.9587 46.9114 63.5268 46.5317 64.1895 46.5317L63.7161 47.9556C63.6214 47.9556 63.5267 47.9556 63.4321 47.9556C63.3374 47.9556 63.2427 47.9556 63.1481 47.9556C63.0534 47.9556 62.9587 48.0505 62.864 48.0505C62.7694 48.1454 62.6747 48.1454 62.58 48.2403C62.4853 48.3353 62.3907 48.4302 62.296 48.62C62.2013 48.8099 62.1066 48.9048 62.012 49.0946L61.0652 52.2271H59.8345V52.322Z" fill="black"/>
<path d="M63.3369 51.3726C63.4316 50.8031 63.621 50.3285 63.9997 49.9488C64.3784 49.5691 64.8517 49.2844 65.5144 48.9996C66.0825 48.8098 66.4612 48.6199 66.6505 48.4301C66.9346 48.2402 67.0292 48.0504 67.0292 47.8605C67.0292 47.5758 66.9346 47.4808 66.5559 47.4808C66.3665 47.4808 66.1772 47.5758 65.9878 47.6707C65.7985 47.7656 65.7038 48.0504 65.6091 48.3351H64.3784C64.473 47.9555 64.6624 47.5758 64.9464 47.291C65.2304 47.0062 65.5144 46.8164 65.8931 46.6266C66.2718 46.4367 66.5559 46.4367 66.9346 46.4367C67.4079 46.4367 67.8813 46.5316 68.1653 46.7215C68.4493 46.9113 68.544 47.1961 68.544 47.5758C68.544 47.6707 68.544 47.7656 68.4493 47.9555L67.2186 51.4676C67.1239 51.7523 67.1239 51.9422 67.1239 52.0371C67.1239 52.132 67.1239 52.2269 67.1239 52.3219H65.7985C65.7985 52.3219 65.7985 52.2269 65.7985 52.132C65.7985 52.0371 65.7985 51.9422 65.8931 51.7523C65.7038 52.0371 65.4198 52.132 65.2304 52.3219C64.9464 52.4168 64.6624 52.5117 64.3784 52.5117C63.9997 52.5117 63.7156 52.4168 63.5263 52.2269C63.3369 52.0371 63.2423 51.7523 63.3369 51.3726ZM64.7571 50.993C64.7571 51.1828 64.7571 51.2777 64.8517 51.3726C64.9464 51.4676 65.0411 51.4676 65.1358 51.4676C65.3251 51.4676 65.6091 51.3726 65.7985 51.2777C65.9878 51.1828 66.0825 50.993 66.1772 50.7082L66.5559 49.2844L65.5144 49.8539C65.3251 49.9488 65.1358 50.1387 64.9464 50.3285C64.8517 50.6133 64.7571 50.8031 64.7571 50.993Z" fill="black"/>
<path d="M68.354 51.6577C68.354 51.5628 68.354 51.4679 68.4487 51.3729L69.5848 47.671H69.0167L69.3007 46.6268H69.8688L70.3422 45.1081H71.6676L71.1942 46.6268H71.7623L71.4782 47.671H70.9102L69.8688 50.8983C69.7741 50.9933 69.7741 51.0882 69.7741 51.1831C69.7741 51.278 69.7741 51.3729 69.8688 51.3729C69.9635 51.3729 70.0581 51.4679 70.2475 51.4679L69.9635 52.4171C69.7741 52.4171 69.5848 52.4171 69.3007 52.4171C68.638 52.4171 68.2593 52.1323 68.354 51.6577Z" fill="black"/>
<path d="M70.8162 52.3222L72.615 46.6268H73.9404L72.1416 52.3222H70.8162ZM72.8043 46.0573L73.183 45.1081H74.5084L74.1297 46.0573H72.8043Z" fill="black"/>
<path d="M73.467 51.1828C73.467 50.993 73.5617 50.8031 73.5617 50.6133L74.3191 48.3351C74.4138 48.0504 74.5085 47.8605 74.6978 47.5758C74.7925 47.3859 74.9818 47.1961 75.2659 47.0062C75.4552 46.8164 75.7392 46.7215 76.0232 46.6266C76.3073 46.5316 76.686 46.4367 77.0647 46.4367C77.6327 46.4367 78.1061 46.5316 78.2954 46.8164C78.5794 47.1012 78.6741 47.3859 78.5794 47.7656C78.5794 47.9555 78.4848 48.1453 78.4848 48.3351L77.7274 50.6133C77.6327 50.898 77.538 51.0879 77.3487 51.3726C77.254 51.5625 77.0647 51.7523 76.7806 51.9422C76.5913 52.132 76.3073 52.2269 76.0232 52.3219C75.7392 52.4168 75.4552 52.5117 75.0765 52.5117C74.5085 52.5117 74.0351 52.4168 73.8457 52.132C73.5617 51.8473 73.467 51.5625 73.467 51.1828ZM74.8872 51.0879C74.8872 51.3726 75.0765 51.4676 75.4552 51.4676C75.6445 51.4676 75.8339 51.3726 76.0232 51.2777C76.2126 51.1828 76.3073 50.993 76.4019 50.7082L77.254 48.0504C77.254 47.9555 77.3487 47.8605 77.3487 47.7656C77.3487 47.5758 77.3487 47.4808 77.254 47.3859C77.1593 47.291 77.0647 47.291 76.8753 47.291C76.4019 47.291 76.1179 47.4808 76.0232 47.9555L75.1712 50.7082C74.8872 50.898 74.8872 50.993 74.8872 51.0879Z" fill="black"/>
<path d="M78.1052 52.3219L79.904 46.6266H81.2295L81.0401 47.1012C81.2295 46.9113 81.4188 46.8164 81.6081 46.6266C81.7975 46.5316 82.0815 46.4367 82.3655 46.4367C82.7442 46.4367 83.0283 46.5316 83.1229 46.7215C83.3123 46.9113 83.407 47.1961 83.3123 47.5758C83.3123 47.7656 83.2176 47.9555 83.2176 48.1453L81.8922 52.4168H80.5667L81.8922 48.3351C81.8922 48.2402 81.8922 48.2402 81.9868 48.0504C81.9868 47.7656 81.8922 47.5758 81.5135 47.5758C81.3241 47.5758 81.1348 47.6707 81.0401 47.7656C80.8508 47.8605 80.7561 48.0504 80.7561 48.2402L79.4307 52.3219H78.1052Z" fill="black"/>
<path d="M85.8689 51.1828C85.8689 50.993 85.9635 50.8031 85.9635 50.6133L86.7209 48.2402C86.9103 47.5758 87.1943 47.1961 87.6677 46.9113C88.141 46.6266 88.6144 46.4367 89.2771 46.4367C89.7505 46.4367 90.2239 46.5316 90.4132 46.7215C90.6973 46.9113 90.7919 47.291 90.7919 47.6707C90.7919 47.8605 90.6973 47.9555 90.6973 48.2402L90.2239 49.759H87.573L87.1943 50.898C87.1943 50.993 87.1943 50.993 87.1943 51.0879C87.1943 51.3726 87.3837 51.4676 87.6677 51.4676C87.857 51.4676 88.0464 51.3726 88.2357 51.2777C88.4251 51.1828 88.5197 50.993 88.5197 50.8031L88.6144 50.5183H89.9399C89.7505 51.1828 89.4665 51.6574 88.9931 52.0371C88.5197 52.3219 87.9517 52.5117 87.3837 52.5117C86.9103 52.5117 86.4369 52.4168 86.2476 52.2269C85.8689 51.9422 85.7742 51.6574 85.8689 51.1828ZM87.857 48.9047H89.1825L89.4665 48.1453C89.4665 48.0504 89.4665 48.0504 89.4665 47.9555C89.4665 47.7656 89.4665 47.6707 89.3718 47.5758C89.2771 47.4808 89.1825 47.4808 88.9931 47.4808C88.8038 47.4808 88.6144 47.5758 88.4251 47.6707C88.2357 47.7656 88.141 47.9555 88.141 48.1453L87.857 48.9047Z" fill="black"/>
<path d="M90.4136 52.3219L92.2124 46.6266H93.5378L93.3485 47.1012C93.5378 46.9113 93.7271 46.8164 93.9165 46.6266C94.1058 46.5316 94.3899 46.4367 94.6739 46.4367C95.0526 46.4367 95.3366 46.5316 95.4313 46.7215C95.6206 46.9113 95.7153 47.1961 95.6206 47.5758C95.6206 47.7656 95.5259 47.9555 95.5259 48.1453L94.2005 52.4168H92.8751L94.2005 48.3351C94.2005 48.2402 94.2005 48.2402 94.2952 48.0504C94.2952 47.7656 94.2005 47.5758 93.8218 47.5758C93.6325 47.5758 93.4431 47.6707 93.3485 47.7656C93.1591 47.8605 93.0644 48.0504 93.0644 48.2402L91.739 52.3219H90.4136Z" fill="black"/>
<path d="M95.6208 51.1828C95.6208 50.993 95.7155 50.8031 95.7155 50.6133L96.4729 48.2402C96.6622 47.5758 96.9462 47.1961 97.4196 46.9113C97.893 46.6266 98.3663 46.4367 99.0291 46.4367C99.5024 46.4367 99.9758 46.5316 100.165 46.7215C100.449 46.9113 100.544 47.291 100.544 47.6707C100.544 47.8605 100.449 47.9555 100.449 48.2402L99.9758 49.759H97.3249L96.9462 50.898C96.9462 50.993 96.9462 50.993 96.9462 51.0879C96.9462 51.3726 97.1356 51.4676 97.4196 51.4676C97.609 51.4676 97.7983 51.3726 97.9877 51.2777C98.177 51.1828 98.2717 50.993 98.2717 50.8031L98.3664 50.5183H99.6918C99.5024 51.1828 99.2184 51.6574 98.745 52.0371C98.2717 52.3219 97.7036 52.5117 97.1356 52.5117C96.6622 52.5117 96.1889 52.4168 95.9995 52.2269C95.6208 51.9422 95.5261 51.6574 95.6208 51.1828ZM97.609 48.9047H98.9344L99.1237 48.1453C99.1237 48.0504 99.1237 48.0504 99.1237 47.9555C99.1237 47.7656 99.1237 47.6707 99.0291 47.5758C98.9344 47.4808 98.8397 47.4808 98.6504 47.4808C98.461 47.4808 98.2717 47.5758 98.0823 47.6707C97.893 47.7656 97.7983 47.9555 97.7983 48.1453L97.609 48.9047Z" fill="black"/>
<path d="M100.07 52.322L101.869 46.6267H103.099L102.721 47.6708C103.194 46.9114 103.762 46.5317 104.425 46.5317L103.951 47.9556C103.857 47.9556 103.762 47.9556 103.667 47.9556C103.573 47.9556 103.478 47.9556 103.383 47.9556C103.289 47.9556 103.194 48.0505 103.099 48.0505C103.005 48.1454 102.91 48.1454 102.815 48.2403C102.721 48.3353 102.626 48.4302 102.531 48.62C102.437 48.8099 102.342 48.9048 102.247 49.0946L101.301 52.2271H100.07V52.322Z" fill="black"/>
<path d="M103.194 52.9863H104.425C104.425 53.1762 104.615 53.2711 104.899 53.2711C105.088 53.2711 105.277 53.1762 105.372 53.0812C105.561 52.9863 105.656 52.7965 105.656 52.7016L105.94 51.7523C105.751 51.9422 105.561 52.132 105.277 52.3219C104.993 52.4168 104.804 52.5117 104.615 52.5117C104.236 52.5117 103.952 52.4168 103.762 52.2269C103.573 52.0371 103.478 51.7523 103.478 51.3726C103.478 51.2777 103.478 51.0879 103.573 50.898L104.425 48.0504C104.615 47.4808 104.899 47.1012 105.277 46.8164C105.656 46.5316 106.035 46.4367 106.508 46.4367C106.792 46.4367 106.981 46.5316 107.076 46.6266C107.265 46.7215 107.36 46.9113 107.36 47.0062L107.455 46.6266H108.685L106.792 52.5117C106.603 53.1762 106.319 53.5558 105.94 53.9355C105.561 54.2203 105.088 54.4101 104.425 54.4101C103.857 54.4101 103.384 54.3152 103.194 54.1254C103.194 53.8406 103.1 53.4609 103.194 52.9863ZM105.088 50.993C105.088 51.1828 105.088 51.2777 105.183 51.3726C105.277 51.4676 105.372 51.4676 105.561 51.4676C105.751 51.4676 105.94 51.3726 106.035 51.2777C106.224 51.1828 106.319 50.993 106.413 50.8031L107.265 48.1453C107.265 48.0504 107.265 47.9555 107.265 47.9555C107.265 47.7656 107.265 47.6707 107.171 47.5758C107.076 47.4808 106.981 47.4808 106.792 47.4808C106.603 47.4808 106.413 47.5758 106.319 47.6707C106.129 47.7656 106.035 47.9555 105.94 48.1453L105.088 50.7082C105.088 50.8031 105.088 50.898 105.088 50.993Z" fill="black"/>
<path d="M107.928 54.2209L108.212 53.2717H108.685C108.78 53.2717 108.874 53.2717 108.969 53.1767C109.064 53.0818 109.064 52.9869 109.158 52.892C109.158 52.5123 109.348 50.424 109.632 46.722H111.052L110.389 51.0885L112.567 46.722H113.892L110.295 53.1767C110.011 53.6513 109.821 53.9361 109.537 54.126C109.253 54.3158 108.969 54.4107 108.59 54.4107C108.306 54.2209 108.117 54.2209 107.928 54.2209Z" fill="black"/>
<path d="M39.7633 32.0088L39.1006 34.3818C37.7751 38.5584 33.2308 43.3045 26.9823 43.3045H25.8462C22.9113 43.3045 17.6096 39.6974 19.6924 33.0529L23.3847 20.7131C25.2782 14.8279 30.4852 10.8412 35.9763 10.8412H36.5444C42.6035 10.8412 44.8757 16.8213 43.9289 20.0486L41.2781 28.4967H29.5385L27.4557 35.331C27.2663 35.8056 26.8876 37.7041 28.4971 37.7041C29.9172 37.7041 30.5799 35.9955 30.7693 35.331L31.8107 31.8189L39.7633 32.0088ZM33.3254 26.2185L35.787 18.6248C36.5444 16.4416 35.4083 16.1568 35.0296 16.0619C34.4615 15.967 33.0414 16.9162 32.5681 18.34L30.1065 26.2185H33.3254Z" fill="#EF172F"/>
<path d="M48.4732 11.6949H56.8046L56.3312 13.6883C58.2247 12.0746 60.3075 10.7457 63.3371 10.7457C67.6921 10.8406 67.5027 15.302 66.6506 18.3395C65.7986 21.4719 59.0767 42.7344 59.0767 42.7344H50.6507L58.2247 18.5293C58.9821 16.6309 58.13 16.0613 57.7513 16.0613C57.0886 16.0613 55.6685 16.7258 54.9111 18.5293L47.4318 42.7344H39.0059L48.4732 11.6949Z" fill="#EF172F"/>
<path d="M70.4382 11.6953H72.4264L74.2252 6H82.4618L80.7577 11.6953H83.7872L82.4618 16.0617H79.4322C79.4322 16.0617 73.6571 34.3816 73.4678 35.141C73.2784 35.9004 72.8051 37.8937 74.6985 37.8937C75.0772 37.8937 75.6453 37.5141 75.8346 37.4191C75.8346 37.4191 74.4145 42.0703 74.2252 42.45C73.8465 42.7348 72.521 43.2094 70.9116 43.2094C67.7874 43.2094 63.243 40.8363 64.9471 35.141L70.9116 15.9668H69.1128L70.4382 11.6953Z" fill="#EF172F"/>
<path d="M96.5679 42.7354H88.6153L88.994 39.6979C86.7218 42.3557 83.3135 43.4947 81.4201 43.21C76.4023 42.5455 78.0118 37.7045 78.5798 35.901L85.9644 11.6959H94.5797L87.0058 35.7111C86.9111 36.0908 86.6271 37.8943 87.5739 37.8943C88.3313 37.8943 89.3727 37.4197 90.13 36.0908L97.704 11.6959H106.13L96.5679 42.7354Z" fill="#EF172F"/>
<path d="M118.154 11.6955L116.828 15.9669C119.574 11.8853 123.077 10.9361 124.118 10.8412C124.875 10.7462 125.727 10.9361 126.011 11.1259L122.793 21.4724C122.793 21.4724 120.804 19.4791 117.964 20.9029C115.597 22.0419 114.367 24.2251 113.609 26.4083C112.946 28.4966 108.591 42.7349 108.591 42.7349H100.166L109.633 11.6955H118.154Z" fill="#EF172F"/>
<path d="M124.969 19.4793C127.241 12.4551 133.3 10.6516 136.33 10.6516H137.75C143.525 10.6516 145.608 15.9672 144.85 18.4352L137.277 42.6403H128.945L129.892 39.5078C128.093 41.5012 126.484 43.2098 122.318 43.1149C117.3 43.1149 117.3 38.084 118.531 34.1922L118.815 33.3379C120.519 28.7817 125.253 26.6934 129.608 25.1747C132.448 24.1305 134.058 23.9407 135.383 21.6625L136.424 18.3403C137.087 16.7266 136.235 15.7774 135.478 15.8723C134.342 15.8723 133.49 16.7266 133.111 18.4352L132.164 21.5676H124.496L124.969 19.4793ZM133.49 27.5477C130.744 28.2121 129.419 30.5852 129.04 31.5344L127.904 35.1414C127.809 35.5211 127.146 38.084 128.756 37.8942C129.797 37.7993 130.649 36.945 131.123 35.3313L133.49 27.5477Z" fill="#EF172F"/>
<path d="M19.2188 6H17.3253L14.2957 15.5871H17.0413L6.81652 37.7039L11.4555 17.9602H8.42597L12.3076 6H11.7396H7.38456H3.40826L0 43.0195H11.7396L27.5501 6H19.2188Z" fill="#EF172F"/>
</svg>
