<svg width="171" height="71" viewBox="0 0 171 71" fill="none" xmlns="http://www.w3.org/2000/svg">
<g clip-path="url(#clip0_2303_13565)">
<g clip-path="url(#clip1_2303_13565)">
<path fill-rule="evenodd" clip-rule="evenodd" d="M128.731 33.6065C131.276 33.6065 133.096 32.2575 133.821 28.939C134.547 25.6205 133.16 24.2715 130.665 24.2715C128.171 24.2715 126.301 25.6205 125.575 28.939C124.85 32.2575 126.224 33.6065 128.731 33.6065ZM131.448 20.1166C135.165 20.117 142.028 20.4047 140.35 28.939C138.67 37.4781 131.683 37.7614 127.955 37.7614C124.226 37.7614 117.367 37.4916 119.047 28.939C120.726 20.3914 127.718 20.117 131.448 20.1166ZM51.0421 27.9542H55.4069C56.6031 27.9542 57.2139 27.4416 57.4048 26.4029C57.6721 25.1483 56.9722 24.8516 55.9414 24.8516H51.6783L51.0421 27.9542ZM46.3591 20.6967H59.3009C60.5136 20.5839 61.7336 20.7925 62.8513 21.3037C63.444 21.7452 63.8874 22.3765 64.1165 23.105C64.3456 23.8334 64.3482 24.6206 64.1239 25.3507C63.9847 26.227 63.6163 27.0442 63.0606 27.7096C62.505 28.3749 61.7843 28.8616 60.9807 29.1144C61.4629 29.282 61.8651 29.6413 62.1024 30.1168C62.3398 30.5924 62.3938 31.147 62.2532 31.6639L61.7951 35.2657C61.7732 35.4494 61.7672 35.6337 61.7765 35.8166L70.8806 20.6967H78.3887L81.6973 37.1813H75.1564L74.8764 35.2927H68.5137L67.4829 37.1813H62.1568L62.1642 37.1948H55.4578C55.3952 36.1453 55.4985 35.0921 55.7632 34.0786C55.9287 32.8645 55.6996 32.1226 54.567 32.1226H50.2022L49.1841 37.1948H43.0377L43.0404 37.1813H36.5476L36.2676 35.2927H29.9049L28.8741 37.1813H22.3332L16.8613 37.1813L19.2155 25.4047H19.1646L13.5527 37.1813H8.89513L7.97889 25.4047H7.92799L5.57377 37.1813H0L3.30863 20.6967H11.962L12.5855 30.2745H12.6364L17.1031 20.6967H25.7437L22.4859 36.928L32.2718 20.6967H32.2845H39.818L43.0898 36.9353L46.3464 20.7102L46.3591 20.6967ZM166.526 23.4216H166.819C167.163 23.4216 167.443 23.3002 167.443 23.0035C167.443 22.7067 167.264 22.5718 166.87 22.5718C166.756 22.5586 166.64 22.5586 166.526 22.5718V23.3812V23.4216ZM166.526 25.0269H165.903V22.1806C166.243 22.1195 166.588 22.0879 166.934 22.0861C167.255 22.0514 167.577 22.1322 167.85 22.3155C167.941 22.3835 168.014 22.4747 168.063 22.5809C168.112 22.687 168.135 22.8045 168.13 22.9225C168.121 23.0851 168.061 23.2399 167.96 23.3621C167.858 23.4844 167.721 23.5671 167.57 23.597C167.837 23.6779 167.964 23.9073 168.053 24.285C168.084 24.5274 168.149 24.7638 168.244 24.9865H167.621C167.508 24.7692 167.434 24.5312 167.404 24.285C167.404 23.9882 167.188 23.8533 166.844 23.8533H166.552V24.9865L166.526 25.0269ZM164.872 23.543C164.865 23.8398 164.914 24.1351 165.017 24.4114C165.119 24.6877 165.273 24.9395 165.469 25.1519C165.664 25.3644 165.898 25.5331 166.156 25.6484C166.414 25.7636 166.692 25.8229 166.972 25.8228C167.247 25.8212 167.519 25.7612 167.772 25.6463C168.025 25.5315 168.253 25.3642 168.444 25.1543C168.635 24.9443 168.784 24.696 168.883 24.4239C168.982 24.1518 169.029 23.8615 169.021 23.57C169.021 22.9868 168.802 22.4275 168.413 22.0152C168.024 21.6028 167.496 21.3712 166.946 21.3712C166.396 21.3712 165.868 21.6028 165.48 22.0152C165.09 22.4275 164.872 22.9868 164.872 23.57V23.543ZM169.708 23.543C169.723 24.1263 169.573 24.7011 169.278 25.1936C168.983 25.6861 168.556 26.0739 168.051 26.3071C167.546 26.5404 166.988 26.6084 166.446 26.5026C165.905 26.3967 165.406 26.1218 165.013 25.7131C164.62 25.3044 164.352 24.7805 164.242 24.2088C164.132 23.6371 164.185 23.0435 164.396 22.5044C164.606 21.9652 164.964 21.5051 165.423 21.183C165.882 20.8609 166.421 20.6915 166.972 20.6967C167.328 20.6931 167.681 20.7639 168.011 20.9051C168.341 21.0462 168.642 21.2548 168.896 21.5192C169.15 21.7835 169.352 22.0982 169.492 22.4455C169.631 22.7927 169.704 23.1657 169.708 23.543ZM32.1064 31.2727L35.0714 25.688H35.1096L35.8095 31.2727H32.1064ZM70.677 31.2727L73.6421 25.688H73.693L74.3802 31.2727H70.677ZM86.9918 24.8516H81.3035L82.1307 20.6967H99.6537L98.8266 24.8516H93.1382L90.6568 37.1813H84.5104L86.9918 24.8516ZM104.362 30.5983H111.259L109.935 37.1813H116.082L119.391 20.6967H113.244L112.086 26.4434H105.189L106.334 20.6967H100.2L96.8791 37.1813H103.026L104.362 30.5983ZM150.288 20.6967H143.263L139.955 37.1813H145.834L147.692 27.9407H147.73L152.413 37.1813H159.145L162.466 20.6967H156.574L154.755 29.8428H154.678L150.288 20.6967Z" fill="#028563"/>
</g>
</g>
<defs>
<clipPath id="clip0_2303_13565">
<rect width="170.155" height="71" fill="white"/>
</clipPath>
<clipPath id="clip1_2303_13565">
<rect width="170.155" height="34.3167" fill="white" transform="translate(0 20.1166)"/>
</clipPath>
</defs>
</svg>
