<svg width="171" height="71" viewBox="0 0 171 71" fill="none" xmlns="http://www.w3.org/2000/svg">
<g clip-path="url(#clip0_2303_13614)">
<path d="M143.323 65.8516H148.14C153.823 65.8516 158.802 62.0862 160.263 56.5995H145.813L143.323 65.8516Z" fill="black"/>
<path d="M115.072 61.0641C115.776 61.0641 116.371 60.5262 116.479 59.6655C116.533 59.0738 116.155 58.6973 115.613 58.6973H113.557L112.907 61.0641H115.072V61.0641ZM111.987 56.6532H116.209C117.724 56.6532 118.752 57.729 118.644 59.3428C118.428 61.6558 116.696 63.1082 114.91 63.1082H112.42L111.662 65.9053H109.552L111.987 56.6532Z" fill="#FF8300"/>
<path d="M125.139 61.0103C125.734 61.0103 126.384 60.4724 126.438 59.6117C126.492 59.02 126.167 58.6435 125.572 58.6435H123.461L122.866 61.0103H125.139V61.0103ZM121.891 56.6532H126.167C127.682 56.6532 128.765 57.5677 128.602 59.4504C128.44 61.4944 126.871 62.7854 125.139 62.8392L127.195 65.9053H124.652L122.757 62.9468H122.379L121.621 65.9053H119.456L121.891 56.6532Z" fill="#FF8300"/>
<path d="M132.445 61.7097C132.336 63.1083 133.148 63.969 134.393 63.969C135.746 63.969 137.261 62.7318 137.424 60.7953C137.532 59.3967 136.72 58.536 135.475 58.536C134.122 58.536 132.607 59.7732 132.445 61.7097ZM139.589 60.5801C139.318 63.8076 136.612 66.013 134.014 66.013C131.633 66.013 130.118 64.2917 130.334 61.9249C130.605 58.6974 133.311 56.4919 135.908 56.4919C138.236 56.4919 139.751 58.2133 139.589 60.5801Z" fill="#FF8300"/>
<path d="M38.4389 19.5023H17.1559C11.4551 19.5023 6.51446 23.2828 5.04854 28.7374L3.7998 33.382H19.2734L14.6041 28.7374H35.9957L38.4389 19.5023Z" fill="black"/>
<path d="M23.889 37.9725H2.49748L0 47.2076H21.2829C26.9837 47.2076 31.9245 43.4272 33.3904 37.9725L34.6391 33.328H19.1655L23.889 37.9725ZM52.6102 36.6224L54.7276 28.7914H66.6178L69.1153 19.5563H57.2251L59.2882 11.8334H49.6784L47.6152 19.5563H43.2717L40.7742 28.7914H45.1177L43.2174 35.7583C41.6429 41.591 46.0407 47.3156 52.1216 47.3156H61.6229L64.1204 38.0805H53.6961C52.936 38.0265 52.393 37.3244 52.6102 36.6224ZM170.155 19.5023H156.636L145.94 28.7374H143.009L145.506 19.5023H135.896L128.404 47.2616H138.014L140.511 38.0265H144.42L151.153 47.2616H162.663L153.107 34.1921L170.155 19.5023ZM131.064 19.5023H119.282C113.582 19.5023 108.641 23.2828 107.175 28.7374L102.18 47.2076H111.79L116.133 31.0597C116.513 29.6555 117.762 28.6834 119.228 28.6834H128.566L131.064 19.5023ZM92.8415 19.5023H73.8931L71.3957 28.7374H91.267C92.0271 28.7374 92.5157 29.4395 92.3529 30.1416L91.4842 33.382H79.8111C74.1103 33.382 69.1696 37.1624 67.7037 42.6171L66.455 47.2616H76.0649L76.6621 44.9934C77.0421 43.5892 78.2909 42.6171 79.7569 42.6171H88.9867L87.7379 47.2616H97.3478L101.691 31.0597C103.32 25.227 98.8681 19.5023 92.8415 19.5023Z" fill="#FF8300"/>
</g>
<defs>
<clipPath id="clip0_2303_13614">
<rect width="170.155" height="71" fill="white"/>
</clipPath>
</defs>
</svg>
