<svg width="145" height="60" viewBox="0 0 145 60" fill="none" xmlns="http://www.w3.org/2000/svg">
<path d="M47.9971 27.6579C48.9745 27.4662 50.956 27.3256 52.8037 27.3256C55.0798 27.3256 56.4723 27.5301 57.6639 28.2074C58.8153 28.7954 59.6455 29.8562 59.6455 31.2877C59.6455 32.6808 58.7886 33.9972 56.9409 34.649V34.7002C58.8153 35.1858 60.2078 36.5406 60.2078 38.5728C60.2078 39.9915 59.525 41.1162 58.494 41.9086C57.3024 42.8161 55.2941 43.3273 52.0271 43.3273C50.1929 43.3273 48.8272 43.2123 47.9971 43.0973V27.6579ZM51.679 33.6777H52.8974C54.8522 33.6777 55.8966 32.9108 55.8966 31.7478C55.8966 30.5591 54.9459 29.9329 53.2589 29.9329C52.4556 29.9329 51.987 29.984 51.6656 30.0223V33.6777H51.679ZM51.679 40.6433C52.0405 40.6944 52.4824 40.6944 53.125 40.6944C54.812 40.6944 56.2982 40.0937 56.2982 38.4322C56.2982 36.8474 54.812 36.2211 52.951 36.2211H51.679V40.6433Z" fill="black"/>
<path d="M69.4864 43.161L69.2722 42.0235H69.2053C68.4287 42.931 67.1969 43.4167 65.7911 43.4167C63.3677 43.4167 61.9351 41.7423 61.9351 39.9147C61.9351 36.9495 64.72 35.5308 68.9375 35.5564V35.3902C68.9375 34.7895 68.5894 33.9204 66.7685 33.9204C65.5501 33.9204 64.2513 34.3166 63.4748 34.7895L62.792 32.5017C63.6221 32.0544 65.2555 31.5048 67.4245 31.5048C71.4011 31.5048 72.673 33.7415 72.673 36.4255V40.3876C72.673 41.4867 72.7266 42.5348 72.8471 43.161H69.4864ZM69.0446 37.7803C67.0898 37.7547 65.5769 38.202 65.5769 39.5696C65.5769 40.477 66.2061 40.9244 67.0363 40.9244C67.9601 40.9244 68.7233 40.3364 68.9643 39.6207C69.0178 39.429 69.0312 39.2245 69.0312 39.02V37.7803H69.0446Z" fill="black"/>
<path d="M79.5414 28.5012V31.7604H82.2058V34.3677H79.5414V38.4959C79.5414 39.8763 79.8895 40.5025 81.0008 40.5025C81.4694 40.5025 81.8309 40.4514 82.0987 40.4131L82.1255 43.0971C81.6435 43.2888 80.7598 43.4038 79.7021 43.4038C78.5105 43.4038 77.5063 43.0076 76.9172 42.4197C76.2344 41.7423 75.8862 40.6431 75.8862 39.0455V34.3805H74.293V31.7731H75.8862V29.3064L79.5414 28.5012Z" fill="black"/>
<path d="M88.5119 28.5012V31.7604H91.1763V34.3677H88.5119V38.4959C88.5119 39.8763 88.86 40.5025 89.9713 40.5025C90.4399 40.5025 90.8014 40.4514 91.0692 40.4131L91.096 43.0971C90.614 43.2888 89.7303 43.4038 88.6726 43.4038C87.481 43.4038 86.4768 43.0076 85.8877 42.4197C85.2049 41.7423 84.8567 40.6431 84.8567 39.0455V34.3805H83.2769V31.7731H84.8701V29.3064L88.5119 28.5012Z" fill="black"/>
<path d="M96.05 38.5983C96.1705 40.0681 97.6835 40.771 99.424 40.771C100.696 40.771 101.714 40.6049 102.718 40.3109L103.2 42.7137C101.981 43.1738 100.495 43.4167 98.8751 43.4167C94.8182 43.4167 92.502 41.18 92.502 37.6141C92.502 34.7256 94.3764 31.5304 98.527 31.5304C102.383 31.5304 103.856 34.3933 103.856 37.2179C103.856 37.8186 103.789 38.3554 103.735 38.611H96.05V38.5983ZM100.428 36.1699C100.428 35.3136 100.04 33.8693 98.3261 33.8693C96.7596 33.8693 96.1304 35.2241 96.0366 36.1699H100.428Z" fill="black"/>
<path d="M106.092 35.518C106.092 33.8437 106.038 32.7446 105.998 31.7604H109.198L109.319 33.8565H109.412C110.028 32.2078 111.488 31.5048 112.639 31.5048C112.987 31.5048 113.148 31.5048 113.416 31.5559V34.8918C113.148 34.8406 112.826 34.8023 112.411 34.8023C111.046 34.8023 110.122 35.5053 109.867 36.5916C109.814 36.8217 109.801 37.1029 109.801 37.3841V43.161H106.092V35.518Z" fill="black"/>
<path d="M118.597 31.7605L120.378 37.3586C120.579 38.0359 120.82 38.8795 120.967 39.4802H121.034C121.208 38.8795 121.395 38.0104 121.569 37.3586L123.029 31.7605H127.005L124.221 39.2629C122.507 43.7874 121.369 45.6023 120.016 46.7398C118.718 47.8134 117.352 48.184 116.428 48.299L115.652 45.2955C116.12 45.2316 116.696 45.0143 117.258 44.6948C117.821 44.4136 118.436 43.8513 118.798 43.2761C118.918 43.11 118.999 42.931 118.999 42.7649C118.999 42.6499 118.972 42.4582 118.825 42.177L114.46 31.7605H118.597Z" fill="black"/>
<path fill-rule="evenodd" clip-rule="evenodd" d="M18.4875 32.0161C24.0439 29.4855 27.11 24.5776 25.3427 21.0373C23.5753 17.5098 17.644 16.6918 12.0876 19.2224C6.53119 21.753 3.46512 26.6609 5.23246 30.2013C6.9998 33.7288 12.9311 34.5468 18.4875 32.0161Z" fill="white"/>
<path fill-rule="evenodd" clip-rule="evenodd" d="M31.6491 41.8703C37.2056 39.3396 40.2716 34.4318 38.5043 30.8914C36.737 27.3639 30.8056 26.5459 25.2492 29.0765C19.6928 31.6072 16.6267 36.5151 18.3941 40.0554C20.1614 43.5829 26.0927 44.4009 31.6491 41.8703Z" fill="white"/>
<path fill-rule="evenodd" clip-rule="evenodd" d="M21.0452 31.2237C29.3731 24.9099 34.0592 17.1646 31.1405 13.6499C28.2083 10.1351 19.0368 12.4229 10.7089 18.7367C2.38097 25.0505 -2.02399 33.0641 0.908189 36.5789C3.82698 40.1064 12.7172 37.5375 21.0452 31.2237ZM15.0068 24.322H15.703C16.5599 24.322 17.1624 24.2325 17.5239 24.0536C17.8854 23.8746 18.113 23.5679 18.2067 23.1206C18.3138 22.6605 18.2335 22.3409 17.9791 22.162C17.7247 21.9703 17.1624 21.8808 16.3055 21.8808H15.5557L15.0068 24.322ZM10.1733 31.5816L12.9047 19.478H16.3724C17.8051 19.478 18.7958 19.5291 19.3448 19.6058C19.8937 19.6953 20.349 19.8486 20.7105 20.0659C21.1255 20.3088 21.4067 20.6411 21.554 21.0628C21.7012 21.4846 21.7146 21.9575 21.5941 22.5071C21.4335 23.1973 21.1389 23.7468 20.6703 24.143C20.2151 24.552 19.559 24.8588 18.7021 25.0633C19.5858 25.1272 20.2285 25.4339 20.6033 25.9707C20.9916 26.5075 21.0853 27.2232 20.8845 28.1307C20.7372 28.7697 20.4695 29.3449 20.0678 29.8306C19.6661 30.3162 19.1707 30.6997 18.5816 30.9681C18.0996 31.1853 17.5239 31.3387 16.8812 31.441C16.2252 31.5304 15.1808 31.5816 13.7348 31.5816H10.1733ZM13.9223 29.1148H15.1273C15.944 29.1148 16.5465 29.0126 16.9348 28.8209C17.323 28.6292 17.5641 28.2968 17.6712 27.8367C17.7917 27.3255 17.7113 26.9804 17.4436 26.7759C17.1758 26.5714 16.6268 26.4692 15.7833 26.4692H14.5248L13.9223 29.1148Z" fill="#E3041A"/>
<path d="M38.2096 48.6316C36.5092 48.6316 35.1167 47.3151 35.1167 45.6792C35.1167 44.0432 36.4958 42.7267 38.2096 42.7267C39.9233 42.7267 41.3024 44.0432 41.3024 45.6792C41.3024 47.3151 39.91 48.6316 38.2096 48.6316ZM38.2096 42.9951C36.6564 42.9951 35.3845 44.1966 35.3845 45.6919C35.3845 47.1873 36.643 48.3887 38.2096 48.3887C39.7761 48.3887 41.0346 47.1873 41.0346 45.6919C41.0346 44.1966 39.7627 42.9951 38.2096 42.9951Z" fill="black"/>
<path fill-rule="evenodd" clip-rule="evenodd" d="M33.6709 41.9213C41.9988 35.6076 46.4038 27.5811 43.4716 24.0664C40.5394 20.5516 31.8098 22.9672 23.4819 29.281C15.154 35.5948 10.3205 43.4806 13.2527 46.9954C16.1715 50.5101 25.3563 48.2351 33.6709 41.9213ZM28.1145 34.4956H28.8107C29.6676 34.4956 30.2701 34.4061 30.6316 34.2272C30.9931 34.0483 31.2207 33.7415 31.3144 33.2942C31.4215 32.8341 31.3412 32.5146 31.0868 32.3356C30.8324 32.1567 30.2701 32.0544 29.4132 32.0544H28.6634L28.1145 34.4956ZM23.281 41.7552L26.0124 29.6516H29.4801C30.9128 29.6516 31.9035 29.7028 32.4525 29.7794C33.0014 29.8689 33.4567 30.0223 33.8182 30.2396C34.2332 30.4824 34.5144 30.8147 34.6617 31.2365C34.8089 31.6582 34.8223 32.1311 34.7018 32.6807C34.5412 33.3709 34.2466 33.9205 33.778 34.3167C33.3228 34.7257 32.6667 35.0324 31.8098 35.2369C32.6935 35.3008 33.3362 35.6075 33.711 36.1443C34.0993 36.6811 34.193 37.3969 33.9922 38.3043C33.8449 38.9434 33.5772 39.5185 33.1755 40.0042C32.7738 40.4899 32.2784 40.8733 31.6893 41.1417C31.2073 41.359 30.6316 41.5123 29.9889 41.6146C29.3329 41.7041 28.2885 41.7552 26.8425 41.7552H23.281ZM27.03 39.2885H28.235C29.0517 39.2885 29.6542 39.1862 30.0425 38.9945C30.4308 38.8028 30.6718 38.4705 30.7789 38.0104C30.8994 37.4991 30.819 37.154 30.5513 36.9495C30.2835 36.7451 29.7345 36.6428 28.891 36.6428H27.6325L27.03 39.2885Z" fill="#33A648"/>
<path fill-rule="evenodd" clip-rule="evenodd" d="M36.7905 47.5962V44.0431H38.4374C38.7721 44.0431 39.0265 44.0814 39.1872 44.1326C39.3612 44.1965 39.4951 44.3115 39.6022 44.4649C39.7093 44.631 39.7629 44.8099 39.7629 45.0017C39.7629 45.2573 39.6825 45.4618 39.5085 45.6407C39.3344 45.8069 39.08 45.9219 38.7185 45.973C38.8524 46.0369 38.9462 46.088 39.0131 46.1519C39.1604 46.2798 39.2943 46.4331 39.4282 46.6248L40.0708 47.5962H39.4549L38.9595 46.8549C38.8123 46.6376 38.6918 46.4842 38.598 46.3692C38.5043 46.2542 38.424 46.1775 38.3436 46.1264C38.2633 46.0753 38.1964 46.0497 38.116 46.0369C38.0625 46.0241 37.9688 46.0241 37.8483 46.0241H37.2725V47.5962H36.7905ZM37.2725 45.6151H38.3303C38.5579 45.6151 38.7319 45.5896 38.8524 45.5512C38.9729 45.5129 39.08 45.4362 39.147 45.334C39.2139 45.2317 39.2407 45.1295 39.2407 45.0144C39.2407 44.8483 39.1738 44.7077 39.0533 44.6055C38.9328 44.5032 38.7185 44.4393 38.4508 44.4393H37.2725V45.6151Z" fill="black"/>
<path d="M105.824 22.0599C106.158 21.9959 106.681 21.9448 107.216 21.9448C107.979 21.9448 108.461 22.0726 108.836 22.3666C109.144 22.5967 109.332 22.9417 109.332 23.3891C109.332 23.9514 108.957 24.4371 108.327 24.6672V24.6799C108.89 24.8205 109.546 25.2806 109.546 26.137C109.546 26.6354 109.345 27.0189 109.05 27.3C108.635 27.6707 107.979 27.8368 107.015 27.8368C106.493 27.8368 106.092 27.7985 105.837 27.7729V22.0599H105.824ZM106.587 24.4371H107.283C108.086 24.4371 108.555 24.0281 108.555 23.4658C108.555 22.7884 108.033 22.52 107.256 22.52C106.908 22.52 106.707 22.5455 106.587 22.5711V24.4371ZM106.587 27.2234C106.734 27.2489 106.948 27.2617 107.23 27.2617C108.02 27.2617 108.743 26.9805 108.743 26.137C108.743 25.3446 108.046 25.0123 107.216 25.0123H106.587V27.2234Z" fill="black"/>
<path d="M111.005 25.8429C111.019 26.8654 111.688 27.2872 112.465 27.2872C113.014 27.2872 113.348 27.1977 113.643 27.0699L113.777 27.6067C113.509 27.7217 113.04 27.8623 112.371 27.8623C111.072 27.8623 110.282 27.0188 110.282 25.7535C110.282 24.5009 111.032 23.504 112.264 23.504C113.643 23.504 114.018 24.7054 114.018 25.4723C114.018 25.6257 114.004 25.7535 113.991 25.8302H111.005V25.8429ZM113.268 25.3061C113.281 24.8205 113.067 24.0792 112.197 24.0792C111.42 24.0792 111.072 24.7821 111.019 25.3061H113.268Z" fill="black"/>
<path d="M114.861 27.0189C115.089 27.1595 115.491 27.3256 115.879 27.3256C116.441 27.3256 116.696 27.0444 116.696 26.6993C116.696 26.3415 116.482 26.137 115.906 25.9325C115.143 25.6641 114.781 25.2551 114.781 24.7566C114.781 24.0792 115.33 23.5297 116.241 23.5297C116.669 23.5297 117.044 23.6447 117.285 23.7853L117.097 24.3349C116.937 24.2326 116.629 24.092 116.227 24.092C115.772 24.092 115.518 24.3476 115.518 24.6672C115.518 25.0123 115.772 25.1656 116.321 25.3701C117.057 25.6513 117.432 26.0092 117.432 26.6227C117.432 27.3512 116.856 27.8752 115.852 27.8752C115.384 27.8752 114.955 27.7602 114.661 27.594L114.861 27.0189Z" fill="black"/>
<path d="M119.36 22.4177V23.6191H120.458V24.1943H119.36V26.4437C119.36 26.955 119.507 27.2489 119.936 27.2489C120.137 27.2489 120.284 27.2234 120.378 27.1978L120.418 27.7602C120.27 27.8241 120.029 27.8624 119.735 27.8624C119.373 27.8624 119.092 27.7474 118.905 27.5429C118.69 27.3128 118.61 26.955 118.61 26.4565V24.1943H117.954V23.6191H118.61V22.6222L119.36 22.4177Z" fill="black"/>
<path d="M126.912 27.7986C126.751 27.6324 126.59 27.4663 126.363 27.2235C125.854 27.6836 125.292 27.8881 124.636 27.8881C123.484 27.8881 122.828 27.134 122.828 26.2649C122.828 25.4725 123.31 24.9229 123.98 24.565V24.5395C123.672 24.156 123.484 23.7343 123.484 23.3253C123.484 22.6223 124.006 21.8938 124.984 21.8938C125.72 21.8938 126.282 22.3795 126.282 23.1208C126.282 23.7343 125.921 24.2199 124.984 24.6673V24.6928C125.479 25.268 126.041 25.8942 126.416 26.316C126.684 25.907 126.872 25.3447 126.979 24.6161H127.675C127.514 25.5236 127.26 26.2521 126.831 26.7633C127.153 27.0956 127.447 27.4152 127.809 27.7858H126.912V27.7986ZM125.988 26.7889C125.64 26.4055 124.984 25.7025 124.328 24.9612C124.006 25.1529 123.565 25.5236 123.565 26.1371C123.565 26.8017 124.06 27.3129 124.77 27.3129C125.278 27.3129 125.707 27.0956 125.988 26.7889ZM124.194 23.2486C124.194 23.6576 124.381 23.9771 124.636 24.2966C125.225 23.9643 125.613 23.6448 125.613 23.1591C125.613 22.8012 125.412 22.405 124.93 22.405C124.435 22.405 124.194 22.8012 124.194 23.2486Z" fill="black"/>
<path d="M130.366 22.0599C130.7 21.9959 131.223 21.9448 131.758 21.9448C132.521 21.9448 133.003 22.0726 133.378 22.3666C133.686 22.5967 133.874 22.9417 133.874 23.3891C133.874 23.9514 133.499 24.4371 132.869 24.6672V24.6799C133.432 24.8205 134.088 25.2806 134.088 26.137C134.088 26.6354 133.887 27.0189 133.592 27.3C133.177 27.6707 132.521 27.8368 131.557 27.8368C131.035 27.8368 130.633 27.7985 130.379 27.7729V22.0599H130.366ZM131.129 24.4371H131.825C132.628 24.4371 133.097 24.0281 133.097 23.4658C133.097 22.7884 132.575 22.52 131.798 22.52C131.45 22.52 131.249 22.5455 131.129 22.5711V24.4371ZM131.129 27.2234C131.276 27.2489 131.49 27.2617 131.772 27.2617C132.561 27.2617 133.284 26.9805 133.284 26.137C133.284 25.3446 132.588 25.0123 131.758 25.0123H131.129V27.2234Z" fill="black"/>
<path d="M135.547 25.8429C135.561 26.8654 136.23 27.2872 137.007 27.2872C137.556 27.2872 137.89 27.1977 138.185 27.0699L138.319 27.6067C138.051 27.7217 137.582 27.8623 136.913 27.8623C135.614 27.8623 134.824 27.0188 134.824 25.7535C134.824 24.5009 135.574 23.504 136.806 23.504C138.185 23.504 138.56 24.7054 138.56 25.4723C138.56 25.6257 138.546 25.7535 138.533 25.8302H135.547V25.8429ZM137.81 25.3061C137.823 24.8205 137.609 24.0792 136.739 24.0792C135.962 24.0792 135.614 24.7821 135.561 25.3061H137.81Z" fill="black"/>
<path d="M139.403 27.0189C139.631 27.1595 140.033 27.3256 140.421 27.3256C140.983 27.3256 141.238 27.0444 141.238 26.6993C141.238 26.3415 141.024 26.137 140.448 25.9325C139.685 25.6641 139.323 25.2551 139.323 24.7566C139.323 24.0792 139.872 23.5297 140.783 23.5297C141.211 23.5297 141.586 23.6447 141.827 23.7853L141.639 24.3349C141.479 24.2326 141.171 24.092 140.769 24.092C140.314 24.092 140.06 24.3476 140.06 24.6672C140.06 25.0123 140.314 25.1656 140.863 25.3701C141.599 25.6513 141.974 26.0092 141.974 26.6227C141.974 27.3512 141.398 27.8752 140.394 27.8752C139.926 27.8752 139.497 27.7602 139.203 27.594L139.403 27.0189Z" fill="black"/>
<path d="M143.902 22.4177V23.6191H145V24.1943H143.902V26.4437C143.902 26.955 144.049 27.2489 144.478 27.2489C144.678 27.2489 144.826 27.2234 144.919 27.1978L144.96 27.7602C144.812 27.8241 144.571 27.8624 144.277 27.8624C143.915 27.8624 143.634 27.7474 143.447 27.5429C143.232 27.3128 143.152 26.955 143.152 26.4565V24.1943H142.496V23.6191H143.152V22.6222L143.902 22.4177Z" fill="black"/>
</svg>
