<svg width="145" height="60" viewBox="0 0 145 60" fill="none" xmlns="http://www.w3.org/2000/svg">
<g clip-path="url(#clip0_1627_4656)">
<path d="M36.8467 6.13187L43.0186 21.1396L29.1187 37.8881H38.8249L46.3551 29.1182L50.0609 37.8881H59.8199L53.2128 21.3374L65.8731 6.13187H56.2328L49.8763 13.6094L46.4738 6.13187H36.8467Z" fill="#1BABD9"/>
<path d="M12.4097 6.03955L9.75898 18.2778H1.4111L0 25.1883H8.26876L5.72351 37.7694L28.2219 37.7958L29.7121 31.1228H16.432L17.1046 27.9049L17.6321 25.2146L28.1032 25.1883L29.5803 18.2778H19.0168L20.4015 12.3301L33.7212 12.3169L35.0796 6.03955H12.4097Z" fill="#1BABD9"/>
<path d="M67.9699 6.13187H76.9904L70.1327 37.8881H61.1782L67.9699 6.13187Z" fill="#1BABD9"/>
<path d="M96.5083 6.01318C87.356 6.01318 80.4456 6.14503 80.4456 6.14503L73.5879 37.8881H85.6284C98.4733 37.8881 104.157 31.215 106.135 21.9572C107.863 11.9477 105.647 6.01318 96.5083 6.01318ZM97.3128 21.4033C96.5611 26.7708 94.5829 31.2151 90.2045 31.2151H84.0854L85.5097 24.4234L88.1472 12.4356H95.0708C99.5811 12.4356 98.0908 17.5261 97.3655 21.3374" fill="#1BABD9"/>
<path d="M111.213 6.13187L104.408 37.8881H130.915L132.327 31.2151H114.787L116.026 25.2806H132.023L133.5 18.3702L117.569 18.4229L118.796 12.3697L136.164 12.4356L137.523 6.13187H111.213Z" fill="#1BABD9"/>
<path d="M141.716 8.53207V7.80676H142.165C142.415 7.80676 142.745 7.80676 142.745 8.13645C142.745 8.46615 142.573 8.53207 142.283 8.53207H141.716ZM141.716 9.04642H142.02L142.718 10.3652H143.483L142.705 9.04642C142.808 9.05087 142.911 9.03303 143.006 8.9941C143.101 8.95516 143.187 8.89607 143.257 8.82088C143.327 8.74568 143.38 8.65613 143.412 8.55847C143.445 8.46082 143.455 8.35739 143.444 8.25518C143.444 7.56941 142.982 7.34522 142.204 7.34522H141.07V10.3652H141.716V9.04642ZM145 8.80905C145.005 8.24977 144.844 7.70154 144.537 7.23398C144.23 6.76641 143.791 6.40057 143.276 6.18291C142.761 5.96526 142.193 5.90565 141.644 6.01154C141.094 6.11744 140.589 6.38413 140.192 6.77775C139.794 7.17137 139.523 7.67418 139.412 8.22234C139.301 8.7705 139.355 9.33926 139.568 9.85649C139.781 10.3737 140.142 10.8161 140.607 11.1274C141.072 11.4387 141.618 11.6048 142.178 11.6049C142.55 11.6175 142.92 11.5541 143.266 11.4184C143.613 11.2828 143.928 11.0778 144.192 10.816C144.456 10.5541 144.664 10.241 144.803 9.89593C144.942 9.55082 145.009 9.18095 145 8.80905ZM144.182 8.80905C144.198 9.08336 144.159 9.35804 144.065 9.61654C143.972 9.87504 143.828 10.112 143.64 10.313C143.453 10.5139 143.227 10.6748 142.975 10.7858C142.724 10.8968 142.453 10.9556 142.178 10.9587C141.748 10.9878 141.319 10.8868 140.947 10.669C140.575 10.4511 140.277 10.1265 140.091 9.7372C139.906 9.34786 139.842 8.91178 139.908 8.48571C139.974 8.05964 140.167 7.66318 140.461 7.34787C140.755 7.03257 141.137 6.81301 141.557 6.71762C141.978 6.62223 142.417 6.65545 142.818 6.813C143.22 6.97056 143.564 7.24515 143.807 7.6011C144.051 7.95705 144.181 8.37792 144.182 8.80905Z" fill="#1BABD9"/>
<path d="M8.41377 46.1701H5.52563V44.2842H13.3856V46.1701H10.4974V53.7399H8.41377V46.1701Z" fill="#1BABD9"/>
<path d="M23.3556 53.7399H16.155V44.2842H23.1578V46.2228H18.2123V48.0427H22.8808V49.889H18.2123V51.8013H23.3556V53.7399Z" fill="#1BABD9"/>
<path d="M34.5521 52.6058C34.0672 53.066 33.4958 53.4254 32.871 53.6631C32.2462 53.9008 31.5804 54.012 30.9123 53.9905C30.2444 54.0599 29.5694 53.9819 28.935 53.762C28.3006 53.5421 27.7221 53.1856 27.2404 52.7178C26.7588 52.2499 26.3856 51.6822 26.1474 51.0544C25.9091 50.4266 25.8114 49.7542 25.8613 49.0846C25.8549 48.0948 26.1434 47.1255 26.6898 46.3002C27.2363 45.4749 28.0162 44.831 28.9299 44.4505C29.8437 44.07 30.85 43.9702 31.8208 44.1637C32.7915 44.3572 33.6826 44.8353 34.3806 45.5371L33.0619 46.8558C32.4707 46.332 31.7018 46.0538 30.9123 46.0778C30.5123 46.0603 30.1131 46.1273 29.7407 46.2744C29.3683 46.4215 29.0311 46.6455 28.7511 46.9317C28.4712 47.2179 28.2546 47.5599 28.1157 47.9354C27.9768 48.3109 27.9187 48.7115 27.945 49.111C27.9174 49.5072 27.9754 49.9046 28.115 50.2764C28.2545 50.6482 28.4724 50.9857 28.7538 51.2658C29.0353 51.546 29.3737 51.7624 29.7461 51.9003C30.1185 52.0382 30.5162 52.0944 30.9123 52.0651C31.7699 52.049 32.5933 51.7262 33.2333 51.1551L34.5521 52.6058Z" fill="#1BABD9"/>
<path d="M43.6253 53.7531V50.0209H39.4052V53.7531H37.2952V44.2974H39.4052V48.0823H43.6253V44.2974H45.709V53.7531H43.6253Z" fill="#1BABD9"/>
<path d="M55.8766 50.4297L55.7447 47.4625V44.2842H57.868V53.7399H56.0612L51.3532 47.6867L51.4323 50.799V53.7399H49.2959V44.2842H51.1158L55.8766 50.4297Z" fill="#1BABD9"/>
<path d="M66.0181 53.9772C65.0448 53.9462 64.1021 53.6292 63.3077 53.0657C62.5134 52.5023 61.9025 51.7174 61.5514 50.8091C61.2002 49.9007 61.1243 48.9091 61.3331 47.9579C61.5419 47.0067 62.0263 46.1379 62.7256 45.4602C63.425 44.7825 64.3084 44.3257 65.2657 44.1468C66.2231 43.968 67.2118 44.075 68.1087 44.4545C69.0056 44.8341 69.7709 45.4693 70.3091 46.2809C70.8473 47.0926 71.1345 48.0447 71.135 49.0186C71.1714 49.693 71.0627 50.3674 70.8162 50.9962C70.5698 51.625 70.1912 52.1936 69.7062 52.6636C69.2212 53.1336 68.641 53.4941 68.0048 53.7207C67.3685 53.9473 66.6911 54.0348 66.0181 53.9772ZM66.0181 45.959C65.6146 45.9479 65.213 46.0197 64.8383 46.1699C64.4635 46.3201 64.1235 46.5455 63.8392 46.8322C63.555 47.1189 63.3325 47.4609 63.1856 47.8369C63.0387 48.213 62.9704 48.6151 62.985 49.0186C62.9876 49.6211 63.1688 50.2093 63.5057 50.7089C63.8426 51.2084 64.32 51.5967 64.8777 51.8249C65.4353 52.053 66.0482 52.1107 66.6386 51.9906C67.229 51.8705 67.7705 51.5781 68.1947 51.1502C68.6189 50.7223 68.9067 50.1782 69.0217 49.5868C69.1367 48.9954 69.0737 48.3831 68.8407 47.8274C68.6077 47.2718 68.2152 46.7977 67.7128 46.4652C67.2104 46.1326 66.6207 45.9564 66.0181 45.959Z" fill="#1BABD9"/>
<path d="M76.2914 44.2842V51.8145H81.0259V53.7399H74.1814V44.2842H76.2914Z" fill="#1BABD9"/>
<path d="M88.2 53.9772C87.226 53.9487 86.2819 53.6338 85.4858 53.0719C84.6897 52.51 84.0767 51.7261 83.7236 50.8178C83.3704 49.9096 83.2927 48.9175 83.5001 47.9654C83.7075 47.0132 84.1908 46.1434 84.8897 45.4643C85.5886 44.7853 86.4721 44.3272 87.4298 44.1473C88.3875 43.9674 89.377 44.0737 90.2747 44.4529C91.1723 44.8321 91.9383 45.4675 92.477 46.2795C93.0158 47.0915 93.3033 48.0442 93.3037 49.0186C93.3399 49.6918 93.2315 50.3649 92.9858 50.9928C92.74 51.6206 92.3628 52.1885 91.8792 52.6583C91.3957 53.1281 90.8171 53.4889 90.1825 53.7164C89.5479 53.9439 88.8719 54.0328 88.2 53.9772ZM88.2 45.959C87.7959 45.948 87.3937 46.0198 87.0182 46.1698C86.6428 46.3199 86.302 46.545 86.0167 46.8316C85.7314 47.1181 85.5077 47.4598 85.3593 47.8359C85.2109 48.212 85.1409 48.6145 85.1536 49.0186C85.1562 49.6206 85.3371 50.2083 85.6734 50.7075C86.0097 51.2067 86.4864 51.5951 87.0433 51.8237C87.6002 52.0522 88.2123 52.1107 88.8024 51.9917C89.3924 51.8726 89.934 51.5814 90.3587 51.1549C90.7835 50.7283 91.0723 50.1855 91.1888 49.5949C91.3052 49.0044 91.2442 48.3925 91.0132 47.8366C90.7823 47.2807 90.3918 46.8057 89.8911 46.4715C89.3904 46.1374 88.802 45.959 88.2 45.959Z" fill="#1BABD9"/>
<path d="M103.063 46.7767C102.452 46.2362 101.663 45.9403 100.847 45.9458C100.438 45.9088 100.025 45.9642 99.6405 46.108C99.2554 46.2518 98.9076 46.4803 98.6228 46.7765C98.3379 47.0728 98.1233 47.4292 97.9947 47.8196C97.8661 48.21 97.8269 48.6243 97.8799 49.0318C97.8495 49.4329 97.9048 49.8359 98.0421 50.2139C98.1793 50.592 98.3954 50.9365 98.6761 51.2247C98.9567 51.5128 99.2954 51.7379 99.6698 51.885C100.044 52.0322 100.445 52.0981 100.847 52.0782C101.579 52.1025 102.294 51.8639 102.865 51.4056V49.9022H100.61V48.1483H104.685V52.2628C104.247 52.8631 103.664 53.3425 102.991 53.6562C102.317 53.9698 101.575 54.1076 100.834 54.0564C100.009 54.0572 99.1968 53.8545 98.469 53.466C97.7413 53.0776 97.1207 52.5155 96.6623 51.8297C96.204 51.1439 95.922 50.3555 95.8414 49.5346C95.7608 48.7136 95.884 47.8855 96.2003 47.1237C96.5166 46.3618 97.0161 45.6898 97.6544 45.1672C98.2927 44.6447 99.05 44.2878 99.8594 44.1282C100.669 43.9687 101.505 44.0114 102.294 44.2525C103.083 44.4937 103.8 44.9259 104.382 45.5107L103.063 46.7767Z" fill="#1BABD9"/>
<path d="M109.96 44.2842H107.863V53.7399H109.96V44.2842Z" fill="#1BABD9"/>
<path d="M120.748 53.7399H113.56V44.2842H120.563V46.2228H115.618V48.0427H120.286V49.889H115.618V51.8013H120.748V53.7399Z" fill="#1BABD9"/>
<path d="M129.491 46.5789C128.89 46.0418 128.107 45.7541 127.302 45.7744C126.366 45.7744 125.614 46.1701 125.614 46.8163C125.614 47.6867 126.445 47.8449 127.658 47.9504C129.517 48.1218 131.285 48.834 131.285 51.0232C131.285 53.2124 129.346 54.0432 127.328 54.0564C126.532 54.1081 125.737 53.9575 125.015 53.6185C124.293 53.2795 123.669 52.7632 123.2 52.1178L124.519 50.799C124.874 51.2176 125.317 51.5528 125.816 51.7808C126.315 52.0087 126.859 52.1238 127.407 52.1178C128.528 52.1178 129.306 51.6694 129.306 50.9968C129.306 50.3242 128.673 49.8362 127.394 49.678C125.39 49.4802 123.609 48.9791 123.636 46.7503C123.636 44.8777 125.442 43.8754 127.381 43.8754C128.042 43.8194 128.707 43.9231 129.32 44.1779C129.933 44.4326 130.475 44.8309 130.902 45.3392L129.491 46.5789Z" fill="#1BABD9"/>
</g>
<defs>
<clipPath id="clip0_1627_4656">
<rect width="145" height="48.0564" fill="white" transform="translate(0 6)"/>
</clipPath>
</defs>
</svg>
