<svg width="227" height="92" viewBox="0 0 227 92" fill="none" xmlns="http://www.w3.org/2000/svg">
<rect width="227" height="92" fill="#812560"/>
<path d="M6.088 43H11.812V42.28C11.812 41.704 11.776 41.236 11.776 41.236H11.848C13.108 42.748 15.16 43.432 17.032 43.432C21.964 43.432 25.672 39.616 25.672 33.748C25.672 27.988 22.36 24.028 17.32 24.028C15.448 24.028 13.396 24.784 12.316 26.008H12.244C12.244 26.008 12.316 25.36 12.316 24.424V17.26H6.088V43ZM12.136 33.856C12.136 30.652 13.9 29.284 15.772 29.284C17.932 29.284 19.408 31.084 19.408 33.856C19.408 36.7 17.716 38.284 15.772 38.284C13.324 38.284 12.136 36.088 12.136 33.856ZM28.8693 43H35.0973V35.8C35.0973 32.416 36.7533 30.22 40.2093 30.22C40.6413 30.22 41.2533 30.256 41.4693 30.328V24.208C41.2533 24.172 41.0013 24.136 40.7493 24.136C37.9773 24.136 35.6373 26.224 34.8453 28.744H34.7733C34.7733 28.744 34.8453 28.204 34.8453 27.592V24.46H28.8693V43ZM42.6553 37.78C42.6553 40.984 45.1393 43.432 48.7033 43.432C50.8273 43.432 52.9873 42.46 54.2113 40.732H54.2833C54.2833 40.732 54.2113 41.272 54.2113 41.884V43H59.8993V31.588C59.8993 26.872 56.7313 24.028 51.6193 24.028C48.5953 24.028 45.3553 25.216 43.7713 26.44L45.9313 30.832C47.4073 29.86 49.2433 29.068 51.0433 29.068C52.4113 29.068 53.6713 29.572 53.6713 31.12V31.444H53.1313C48.5593 31.444 42.6553 32.812 42.6553 37.78ZM48.8113 37.204C48.8113 35.512 51.2593 35.008 53.1673 35.008H53.7433V35.512C53.7433 37.024 52.3753 38.788 50.5753 38.788C49.4233 38.788 48.8113 38.068 48.8113 37.204ZM63.8497 43H70.0777V34.612C70.0777 31.984 71.3377 29.68 74.1097 29.68C75.4777 29.68 76.1617 30.4 76.1617 32.128V43H82.3897V30.976C82.3897 25.756 79.4737 24.028 75.7297 24.028C72.4537 24.028 70.6897 25.792 69.8257 27.232H69.7537C69.7537 27.232 69.8257 26.692 69.8257 26.08V24.46H63.8497V43ZM85.4129 33.712C85.4129 39.472 88.7249 43.432 93.7649 43.432C95.9609 43.432 97.9769 42.496 99.1289 40.732H99.2009C99.2009 40.732 99.1649 41.2 99.1649 41.776V43H104.997V17.26H98.7689V24.676C98.7689 25.144 98.8049 25.504 98.8049 25.504H98.7329C97.5089 24.28 95.5289 24.028 93.8729 24.028C88.9409 24.028 85.4129 27.844 85.4129 33.712ZM91.6769 33.712C91.6769 30.868 93.3689 29.284 95.3129 29.284C97.7609 29.284 98.9489 31.48 98.9489 33.712C98.9489 36.916 97.1849 38.284 95.3129 38.284C93.1529 38.284 91.6769 36.484 91.6769 33.712ZM116.366 43H123.35L126.302 37.6C127.202 35.98 127.886 34.396 127.886 34.396H127.958C127.958 34.396 128.642 35.98 129.542 37.6L132.494 43H139.514L131.666 30.22L139.55 17.26H132.386L129.542 22.552C128.642 24.208 127.958 25.864 127.958 25.864H127.886C127.886 25.864 127.166 24.172 126.302 22.552L123.494 17.26H116.33L124.178 30.22L116.366 43Z" fill="white"/>
</svg>
