<svg width="171" height="71" viewBox="0 0 171 71" fill="none" xmlns="http://www.w3.org/2000/svg">
<g clip-path="url(#clip0_2303_13489)">
<path d="M142.138 52.4393C139.348 53.6674 135.994 52.9613 135.223 52.777C135.371 52.8384 135.549 52.8692 135.727 52.9306C135.727 52.9306 139.615 54.0665 142.791 52.6542C142.791 52.6542 145.996 51.5489 147.718 47.2506H146.976C145.254 51.3954 142.138 52.4393 142.138 52.4393Z" fill="black"/>
<path d="M148.281 45.7155C149.379 40.7417 148.43 38.7153 148.43 38.7153C148.43 38.7153 147.985 36.996 145.432 35.7372C145.076 36.3512 146.827 37.5486 146.827 37.5486C146.827 37.5486 148.727 40.5268 147.628 45.5313H136.32C136.32 45.5313 135.786 48.5401 138.25 48.9085C136.558 48.1717 137.003 45.7155 137.003 45.7155H148.281Z" fill="black"/>
<path d="M131.958 46.7906C131.958 43.9046 133.531 40.558 133.531 40.558C135.906 36.3825 138.191 35.9526 138.518 35.7991C142.139 34.7245 143.771 35.3693 145.285 36.1983C143.89 35.093 142.198 34.1105 138.102 35.5228C137.776 35.6456 135.312 36.3825 133.116 40.4045C133.116 40.4045 131.602 43.6282 131.602 46.5143C131.602 46.5143 131.187 51.9486 135.164 52.7776C135.164 52.7776 135.223 52.8083 135.312 52.8083C131.84 51.6416 131.958 46.7906 131.958 46.7906Z" fill="black"/>
<path d="M142.612 47.251H147.064C147.094 47.1896 147.124 47.1282 147.153 47.0668H141.959C140.921 49.216 138.695 48.909 138.695 48.909C138.517 48.909 138.368 48.909 138.22 48.8783C138.517 49.0011 138.902 49.0932 139.348 49.0932C139.348 49.1239 141.574 49.4309 142.612 47.251Z" fill="black"/>
<path d="M147.599 45.5313C149.261 38.7153 147.242 35.5223 142.79 34.9389C138.576 34.1714 132.462 36.5969 131.393 46.6059C131.393 46.6059 130.503 55.6938 142.227 52.47C142.227 52.47 145.432 51.3647 147.153 47.0664H141.959C140.921 49.2156 138.695 48.9085 138.695 48.9085C135.697 48.9085 136.291 45.5006 136.291 45.5006H147.599V45.5313ZM137.982 49.7375C140.743 50.3823 142.464 48.0489 142.464 48.0489H145.818C142.375 53.7595 136.202 52.1323 136.202 52.1323C129.969 51.2419 132.67 42.8295 132.67 42.8295C132.966 41.325 136.32 34.8161 142.88 35.8293C149.439 36.8732 146.916 44.7023 146.916 44.7023H135.519C135.371 46.7594 135.222 49.0928 137.982 49.7375Z" fill="#E3041A" stroke="#E3041A" stroke-width="0.475731"/>
<path d="M141.039 38.6854C141.039 38.6854 137.745 38.5626 136.706 43.1373H144.512C144.482 43.1373 145.313 38.3784 141.039 38.6854ZM143.592 42.2469H137.804C138.576 40.1899 140.03 39.5451 141.217 39.5144C144.007 39.4837 143.592 42.2469 143.592 42.2469Z" fill="black"/>
<path d="M146.916 44.7328C146.916 44.7328 149.379 37.18 142.879 35.8598C136.29 34.5396 133.115 41.3863 132.818 42.9214C132.818 42.9214 129.969 51.2724 136.201 52.1321C136.201 52.1321 142.375 53.79 145.818 48.0487H142.464C142.464 48.0487 140.713 50.3821 137.982 49.7373C135.252 49.0926 135.37 46.7285 135.519 44.7021H146.916V44.7328ZM140.416 38.3774C144.69 38.0704 143.859 42.8293 143.859 42.8293H136.053C137.092 38.2853 140.416 38.3774 140.416 38.3774Z" fill="white" stroke="#E3041A" stroke-width="0.475731"/>
<path d="M140.447 38.4089C140.447 38.4089 137.152 38.2861 136.113 42.8607H143.919C143.889 42.8607 144.72 38.1019 140.447 38.4089ZM142.999 41.9704H137.211C137.983 39.9133 139.437 39.2686 140.625 39.2379C143.415 39.2072 142.999 41.9704 142.999 41.9704Z" fill="#E3041A"/>
<path d="M66.1578 51.3345L64.5551 58.9487L60.2219 59.0101L60.1328 59.3479H65.2674L66.8404 51.9793C66.4546 51.6723 66.1578 51.3345 66.1578 51.3345Z" fill="black"/>
<path d="M76.6363 35.4303C79.9308 36.9347 79.723 41.1716 79.723 41.1716C79.3668 47.8955 75.7756 50.8122 75.7756 50.8122C72.4515 53.9131 68.7118 52.8079 68.7118 52.8079C68.5634 52.8079 68.415 52.8386 68.2666 52.7772C68.5931 52.9307 72.5108 54.5272 76.4879 51.0271C76.4879 51.0271 80.0792 48.1104 80.4353 41.3866C80.465 41.4173 80.7321 36.6584 76.6363 35.4303Z" fill="black"/>
<path d="M69.4239 36.9655C69.5426 36.812 69.691 36.6584 69.8097 36.5356L69.9581 35.6453H69.1271L68.8896 36.8734L69.4239 36.9655Z" fill="black"/>
<path d="M70.0759 36.9359C71.174 35.4622 73.3407 35.2165 73.3407 35.2165C74.7356 35.0323 75.6854 35.278 76.5758 35.5543C75.5963 35.0937 74.5575 34.8788 72.8064 35.0937C72.8064 35.0937 71.1147 35.3394 69.9572 36.4139L69.7197 36.7824L70.0759 36.9359Z" fill="black"/>
<path d="M66.9002 51.6414L66.8408 51.9791C67.197 52.2862 67.7312 52.6546 68.3545 52.8081C67.4641 52.3783 66.9002 51.6414 66.9002 51.6414Z" fill="black"/>
<path d="M69.3031 35.6147L69.3328 35.3691H64.5544L59.5088 59.102H60.1914L65.1776 35.6147H69.3031Z" fill="black"/>
<path d="M72.8051 38.7771C68.9764 38.47 67.6408 43.0447 67.6408 43.0447C65.5336 49.615 69.7481 49.9834 69.7481 49.9834C74.0813 50.6896 75.4763 45.5009 75.4763 45.5009C77.4055 38.8078 72.8051 38.7771 72.8051 38.7771ZM74.6156 45.1632C74.6156 45.1632 73.6064 49.4615 70.4307 49.0931C70.4307 49.0931 66.7801 49.4308 68.2344 43.9044C68.2344 43.9044 69.0951 39.7288 72.3599 39.6674C72.3599 39.6981 76.5151 39.1455 74.6156 45.1632Z" fill="black"/>
<path d="M72.687 35.0315C72.687 35.0315 70.5204 35.2771 69.4222 36.7508L69.0661 36.628L69.3035 35.4306H64.5251L59.4795 59.1636H64.6141L66.2465 51.4573C66.2465 51.4573 67.2853 52.8082 68.7693 52.9617C68.7693 52.9617 72.5386 53.9442 75.8627 50.8739C75.8627 50.8739 79.454 47.9572 79.8102 41.2334C79.7805 41.2334 80.2257 34.0183 72.687 35.0315ZM78.4152 44.8256C78.4152 44.8256 77.2874 49.8608 73.5477 51.5801C73.5477 51.5801 67.8789 54.2819 66.4246 49.8915H65.6826L63.8721 58.3653H60.5183L65.1483 36.3824H68.2647L67.8195 38.7158H68.6802C68.6802 38.7158 71.5889 34.4481 76.2486 36.2903C76.2486 36.321 80.4038 37.5184 78.4152 44.8256Z" fill="#E3041A" stroke="#E3041A" stroke-width="0.475731"/>
<path d="M124.062 12.7723L160.123 13.8469C154.395 13.5399 146.233 12.9258 125.606 12.3118C119.759 12.1276 113.17 12.5267 112.843 12.5574C34.3997 12.5881 -0.325658 30.0885 0.891213 53.6679H24.2789C24.2789 53.6679 14.3362 17.3777 112.368 13.0794L124.062 12.7723Z" fill="black"/>
<path d="M163.032 35.3996L161.994 40.4655C161.994 40.4655 157.601 39.483 156.325 42.8603L154.099 53.0535H149.023L152.674 35.6759H157.601L157.245 37.4567C157.245 37.4567 158.818 35.8294 160.064 35.4303C160.094 35.4303 161.4 34.7548 163.032 35.3996Z" fill="black" stroke="black" stroke-width="0.475731"/>
<path d="M123.767 52.9C123.974 52.9307 128.664 52.9921 128.664 52.9921L129.495 49.0315C129.495 49.0315 128.842 49.1543 127.684 49.1236C126.616 49.0929 127.031 47.7727 127.031 47.7727L128.782 39.2988H131.424L132.285 35.4303H129.732L130.563 31.0399H125.607L124.687 35.5531H122.342L121.689 39.2067H123.885L121.719 48.7551C121.748 48.8166 120.442 52.378 123.767 52.9Z" fill="black" stroke="black" stroke-width="0.475731"/>
<path d="M104.475 35.5227H109.312L109.134 36.9657H109.401C109.401 36.9657 111.509 33.9875 116.673 35.6148C116.673 35.6148 119.522 36.3823 119.136 40.1894L116.525 52.9309H111.42L113.735 41.8781C113.735 41.8781 114.595 38.9306 110.648 39.7596C109.639 39.9745 108.541 40.957 108.214 42.1544L105.84 52.9923H100.765L104.475 35.5227Z" fill="black" stroke="black" stroke-width="0.475731"/>
<path d="M97.3218 29.566H102.071L101.121 34.2634H96.3721L97.3218 29.566Z" fill="black" stroke="black" stroke-width="0.475731"/>
<path d="M96.0755 35.5842H100.943L97.5595 52.9617H92.7217L96.0755 35.5842Z" fill="black" stroke="black" stroke-width="0.475731"/>
<path d="M94.6202 35.2467L93.5814 40.3126C93.5814 40.3126 89.1888 39.3301 87.9126 42.7074L85.6866 52.9006H80.6113L84.2619 35.523H89.1888L88.8326 37.3037C88.8326 37.3037 90.4057 35.4923 91.6522 35.2774C91.6819 35.3081 94.6795 34.9397 94.6202 35.2467Z" fill="black" stroke="black" stroke-width="0.475731"/>
<path d="M52.9208 33.2812C54.5235 33.2198 57.2243 33.2505 56.7494 36.7199H61.7653C61.7653 36.7199 63.19 29.8118 56.6307 28.8294C50.487 27.9083 48.1126 30.3952 48.172 30.2724C48.172 30.2724 43.2451 33.6804 44.2839 38.9919C44.8775 42.1235 48.172 42.6762 49.4779 42.9832C50.7838 43.2902 54.4047 44.3341 54.4047 44.3341C54.4047 44.3341 57.1353 45.7464 53.9892 48.2333C53.2176 48.8473 50.4277 48.8473 50.4277 48.8473C50.4277 48.8473 46.3318 49.093 47.2222 45.1323H42.1767C42.1767 45.1323 39.5945 53.5755 50.1902 53.4834C51.1993 53.4834 57.996 53.6676 60.4001 46.8517C60.4594 46.6368 62.6557 40.9261 56.3933 39.2375C56.0371 39.1454 51.3477 37.8559 51.3477 37.8559C51.3477 37.8559 49.4779 37.6103 49.3592 36.4743C49.2998 36.4436 48.8249 33.4654 52.9208 33.2812Z" fill="black" stroke="black" stroke-width="0.475731"/>
<path d="M52.2381 33.1282C53.8409 33.0668 56.5417 33.0975 56.0668 36.5669H61.0827C61.0827 36.5669 62.5073 29.6588 55.9481 28.6764C49.8044 27.7553 47.43 30.2422 47.4894 30.1194C47.4894 30.1194 42.5625 33.5273 43.6013 38.8388C44.1949 41.9705 47.4894 42.5231 48.7953 42.8302C50.1012 43.1372 53.7221 44.1811 53.7221 44.1811C53.7221 44.1811 56.4527 45.5934 53.3066 48.0803C52.5349 48.6943 49.745 48.6943 49.745 48.6943C49.745 48.6943 45.6492 48.9399 46.5396 44.9793H41.4941C41.4941 44.9793 38.9119 53.4225 49.5076 53.3304C50.5167 53.3304 57.3134 53.5146 59.7174 46.6987C59.7768 46.4837 61.9731 40.7731 55.7107 39.0845C55.3545 38.9924 50.6651 37.7029 50.6651 37.7029C50.6651 37.7029 48.7953 37.4572 48.6766 36.3213C48.6172 36.2598 48.1423 33.2817 52.2381 33.1282Z" fill="#E3041A" stroke="#E3041A" stroke-width="0.475731"/>
<path d="M96.6392 29.3822H101.388L100.468 34.0797H95.6895L96.6392 29.3822Z" fill="#E3041A" stroke="#E3041A" stroke-width="0.475731"/>
<path d="M95.3919 35.4003H100.259L96.9056 52.7779H92.0381L95.3919 35.4003Z" fill="#E3041A" stroke="#E3041A" stroke-width="0.475731"/>
<path d="M93.9391 35.0927L92.9003 40.1586C92.9003 40.1586 88.5077 39.1762 87.2315 42.5534L85.0055 52.7466H79.96L83.6106 35.369H88.5374L88.1813 37.1498C88.1813 37.1498 89.7543 35.3383 91.0008 35.1234C91.0008 35.1234 93.9985 34.755 93.9391 35.0927Z" fill="#E3041A" stroke="#E3041A" stroke-width="0.475731"/>
<path d="M97.3803 30.3033H100.289L99.7844 33.0973H96.8164L97.3803 30.3033Z" fill="white" stroke="#E3041A" stroke-width="0.475731"/>
<path d="M96.1637 36.2287H99.2207L96.134 51.8562H93.166L96.1637 36.2287Z" fill="white" stroke="#E3041A" stroke-width="0.475731"/>
<path d="M103.792 35.3692H108.63L108.452 36.8122H108.719C108.719 36.8122 110.826 33.834 115.99 35.4613C115.99 35.4613 118.84 36.2288 118.454 40.0359L115.842 52.7774H110.737L113.052 41.7246C113.052 41.7246 113.913 38.7771 109.965 39.6061C108.956 39.821 107.858 40.8035 107.532 42.0009L105.157 52.8388H100.082L103.792 35.3692Z" fill="#E3041A" stroke="#E3041A" stroke-width="0.475731"/>
<path d="M162.349 35.2159L161.31 40.2818C161.31 40.2818 156.917 39.2993 155.641 42.6766L153.415 52.8698H148.34L151.99 35.4922H156.917L156.561 37.273C156.561 37.273 158.134 35.6457 159.381 35.2466C159.41 35.2773 160.716 34.6018 162.349 35.2159Z" fill="#E3041A" stroke="#E3041A" stroke-width="0.475731"/>
<path d="M123.084 52.7161C123.292 52.7468 127.981 52.8082 127.981 52.8082L128.812 48.8476C128.812 48.8476 128.159 48.9704 127.002 48.9397C125.933 48.909 126.349 47.5888 126.349 47.5888L128.1 39.115H130.742L131.602 35.2465H129.05L129.881 30.856H124.924L124.004 35.3693H121.66L121.007 39.0229H123.203L121.036 48.5713C121.066 48.6327 119.79 52.1942 123.084 52.7161Z" fill="#E3041A" stroke="#E3041A" stroke-width="0.475731"/>
<path d="M125.547 31.7465H128.96L128.04 36.1676H130.682L130.236 38.3168H127.595L125.517 48.0187C125.517 48.0187 125.28 49.5232 126.378 49.7074C127.476 49.8916 127.862 49.7074 127.862 49.7074L127.387 52.0101L123.529 51.9179C123.529 51.9179 121.065 52.0715 121.956 48.7249C122.846 45.3783 124.122 38.3168 124.122 38.3168H122.045L122.431 36.229H124.627L125.547 31.7465Z" fill="white" stroke="#E3041A" stroke-width="0.475731"/>
<path d="M107.56 36.29H104.503L101.238 51.7947H104.503L106.729 41.9392C106.729 41.9392 107.649 38.6233 110.884 38.5619C114.119 38.5005 114.03 40.6497 113.971 41.4787C113.912 42.3076 111.893 51.8868 111.893 51.8868H115.158L117.681 39.6365C117.681 39.6365 118.126 36.597 114.446 35.9215C110.944 35.2768 108.391 37.7944 108.183 38.6233H107.293C107.293 38.5926 107.679 36.3514 107.56 36.29Z" fill="white" stroke="#E3041A" stroke-width="0.475731"/>
<path d="M167.811 30.4564C166.505 30.4564 165.466 31.5924 165.466 33.0047C165.466 34.417 166.505 35.553 167.811 35.553C169.116 35.553 170.155 34.417 170.155 33.0047C170.155 31.5924 169.116 30.4564 167.811 30.4564ZM167.811 35.0617C166.742 35.0617 165.881 34.1407 165.881 33.0047C165.881 31.8687 166.742 30.9476 167.811 30.9476C168.879 30.9476 169.74 31.8687 169.74 33.0047C169.74 34.1407 168.879 35.0617 167.811 35.0617Z" fill="#E3041A"/>
<path d="M152.971 51.8871H149.617L152.882 36.2903H156.028L155.464 39.0535H156.325C156.325 39.0535 158.729 35.2771 161.519 35.7991L160.836 39.2071C160.836 39.2071 155.553 38.7465 154.781 43.1984L152.971 51.8871Z" fill="white" stroke="#E3041A" stroke-width="0.475731"/>
<path d="M84.263 36.3211H87.3794L86.8452 39.0536H87.7356C87.7356 39.0536 89.8428 35.3693 92.9295 35.8913L92.2469 39.2378C92.2469 39.2378 87.1123 38.501 86.1625 43.3213L84.3521 51.8872H81.0576L84.263 36.3211Z" fill="white" stroke="#E3041A" stroke-width="0.475731"/>
<path d="M60.3404 35.6771H56.9272C56.9272 35.6771 57.2537 31.7472 52.0004 32.3305C52.0004 32.3305 47.8452 32.3305 47.7562 36.2605C47.7562 36.2605 47.9046 37.9491 49.8041 38.3789L56.6008 40.3439C56.6008 40.3439 60.9934 41.3877 58.5003 47.4054C58.5003 47.4054 56.7195 52.4406 50.0712 52.5634C50.0712 52.5634 41.0486 53.331 42.2061 45.9624H45.5896C45.5896 45.9624 45.4412 49.9844 50.6055 49.616C50.6055 49.616 53.8109 49.9537 55.4433 46.9756C55.4433 46.9756 56.8679 44.3966 53.8406 43.322L47.1923 41.4492C47.1923 41.4492 42.7403 40.6816 44.8773 34.6639C44.8773 34.6639 46.48 30.2735 51.2881 29.5673C51.2881 29.5673 54.7309 28.9533 56.8085 29.813C56.8085 29.7208 60.7856 30.4577 60.3404 35.6771Z" fill="white" stroke="#E3041A" stroke-width="0.475731"/>
<path d="M168.197 33.1892C168.612 33.1278 168.88 33.0357 168.88 32.3909C168.88 31.7155 168.197 31.6234 168.197 31.6234H166.861V34.3866H167.307V33.2506H167.781L168.375 34.3866H168.909L168.197 33.1892ZM167.307 32.8207V32.0532H168.108C168.227 32.1146 168.316 32.1146 168.345 32.176C168.434 32.2681 168.434 32.3909 168.434 32.4523C168.434 32.5137 168.405 32.6058 168.345 32.6672C168.256 32.79 168.138 32.8207 168.138 32.8207H167.307Z" fill="#E3041A"/>
<path d="M123.232 12.3422L159.293 13.4168C153.564 13.1098 145.402 12.4957 124.775 11.8817C118.928 11.6975 112.339 12.0966 112.013 12.1273C33.569 12.158 -1.18603 29.6584 0.0308363 53.2378H23.4185C23.4185 53.2378 13.4758 16.9476 111.508 12.6492L123.232 12.3422Z" fill="#E3041A"/>
<path d="M76.2781 36.2289C71.5887 34.3868 68.7098 38.6544 68.7098 38.6544H67.8491L68.2943 36.3211H65.1779L60.5479 58.304H63.9017L65.7121 49.8301H66.4541C67.9084 54.2206 73.5773 51.5187 73.5773 51.5187C77.3169 49.7994 78.4447 44.7642 78.4447 44.7642C80.4333 37.4263 76.2781 36.2289 76.2781 36.2289ZM74.8238 45.2247C74.8238 45.2247 73.4585 50.4135 69.0956 49.7073C69.0956 49.7073 64.8514 49.3082 66.9884 42.7686C66.9884 42.7686 68.3239 38.1939 72.1526 38.5009C72.1526 38.5009 76.753 38.5316 74.8238 45.2247Z" fill="white" stroke="#E3041A" stroke-width="0.475731"/>
<path d="M72.2123 38.5004C68.3836 38.1934 67.048 42.7681 67.048 42.7681C64.9408 49.3384 69.1553 49.7068 69.1553 49.7068C73.4886 50.413 74.8538 45.2243 74.8538 45.2243C76.8127 38.5312 72.2123 38.5004 72.2123 38.5004ZM74.0228 44.9172C74.0228 44.9172 73.0137 49.2156 69.8379 48.8165C69.8379 48.8165 66.1873 49.1542 67.6416 43.6277C67.6416 43.6277 68.5024 39.4522 71.7671 39.3908C71.7671 39.4215 75.9223 38.8996 74.0228 44.9172Z" fill="#E3041A"/>
</g>
<defs>
<clipPath id="clip0_2303_13489">
<rect width="170.155" height="71" fill="white"/>
</clipPath>
</defs>
</svg>
