<svg width="145" height="60" viewBox="0 0 145 60" fill="none" xmlns="http://www.w3.org/2000/svg">
<path d="M32.7564 16.4807H14.6199C9.76188 16.4807 5.55161 19.6755 4.30241 24.2851L3.23828 28.21H16.4243L12.4453 24.2851H30.6744L32.7564 16.4807Z" fill="black"/>
<path d="M20.3574 32.0894H2.12826L0 39.8937H18.1365C22.9946 39.8937 27.2048 36.699 28.4541 32.0894L29.5182 28.1644H16.3322L20.3574 32.0894ZM44.8325 30.9484L46.6368 24.3307H56.7693L58.8975 16.5264H48.7652L50.5233 10H42.3341L40.5759 16.5264H36.8746L34.7463 24.3307H38.4477L36.8283 30.2182C35.4866 35.1472 39.2342 39.985 44.4161 39.985H52.5128L54.641 32.1807H45.7578C45.1101 32.1351 44.6474 31.5417 44.8325 30.9484ZM145 16.4808H133.48L124.365 24.2851H121.867L123.995 16.4808H115.806L109.421 39.9394H117.61L119.738 32.1351H123.07L128.807 39.9394H138.615L130.472 28.8947L145 16.4808ZM111.688 16.4808H101.648C96.79 16.4808 92.5798 19.6755 91.3306 24.2851L87.074 39.8937H95.2633L98.9646 26.2476C99.2885 25.061 100.353 24.2395 101.602 24.2395H109.56L111.688 16.4808ZM79.1161 16.4808H62.969L60.8408 24.2851H77.7744C78.4221 24.2851 78.8385 24.8784 78.6997 25.4717L77.9595 28.2101H68.0121C63.1541 28.2101 58.9438 31.4048 57.6946 36.0144L56.6305 39.9394H64.8197L65.3286 38.0225C65.6525 36.8359 66.7167 36.0144 67.9659 36.0144H75.8312L74.7671 39.9394H82.9562L86.6576 26.2476C88.0456 21.3185 84.2517 16.4808 79.1161 16.4808Z" fill="#FF8300"/>
</svg>
