<svg width="36" height="41" viewBox="0 0 36 41" fill="none" xmlns="http://www.w3.org/2000/svg">
<path d="M29.0502 18.9458H1.26305C0.568374 18.9458 0 19.5142 0 20.2089V32.8394C0 33.5341 0.568374 34.1024 1.26305 34.1024H29.0502C29.746 34.1024 30.3133 33.5341 30.3133 32.8394V20.2089C30.3133 19.5142 29.746 18.9458 29.0502 18.9458ZM10.7056 29.9899L8.84627 27.6065L7.01853 30.0405C6.50316 30.7768 5.36133 29.9494 5.93736 29.2623L7.96697 26.6869C7.33037 25.8898 6.7141 25.1131 6.09888 24.3956C5.46369 23.6378 6.64442 22.861 7.10932 23.5684L8.86742 25.7498L10.6244 23.5481C11.15 22.8622 12.1706 23.7401 11.5945 24.3971C10.9895 25.1146 10.3529 25.8924 9.74672 26.6883L11.8068 29.2536C12.3628 30.0103 11.2514 30.7377 10.7056 29.99L10.7056 29.9899ZM17.0336 30.3133H13.6916C13.338 30.3133 13.055 30.0618 13.055 29.697V23.9324C13.055 23.5988 13.338 23.3161 13.6916 23.3161C14.0149 23.3161 14.2878 23.6002 14.2878 23.9324V28.9921H17.0349C18.0226 28.9907 18.0439 30.3133 17.0335 30.3133L17.0336 30.3133ZM19.1012 29.8081C18.7666 29.5366 18.7779 29.0931 18.9586 28.8191C19.2225 28.5577 19.5131 28.4667 19.8591 28.7483C20.6851 29.3141 22.8171 29.7385 22.9674 28.3026C22.836 26.8084 18.6363 27.7077 18.9484 24.8394C19.1807 22.8805 22.1402 22.5281 23.5346 23.5991C24.2205 24.1537 23.4929 25.0327 22.8878 24.5881C22.1402 24.1134 20.4426 23.8909 20.2304 24.9405C19.9589 26.5977 24.3505 25.649 24.2809 28.3344C24.2104 30.8994 20.4957 30.96 19.1012 29.8081L19.1012 29.8081Z" fill="#32599E"/>
<path d="M34.1007 9.58115L25.7826 1.26305C25.0524 0.530626 23.7693 0 22.7335 0H8.83994C6.75085 0 5.05078 1.70007 5.05078 3.78916V16.4197C5.05078 17.118 5.61549 17.6827 6.31383 17.6827C7.01218 17.6827 7.57689 17.118 7.57689 16.4197V3.78916C7.57689 3.09335 8.14272 2.5261 8.83994 2.5261H20.2074C21.603 2.5261 22.7335 3.6578 22.7335 5.05221V9.78865C22.7335 11.3522 24.0143 12.6305 25.5754 12.6305H30.3118C31.7074 12.6305 32.8379 13.7622 32.8379 15.1566V36.6285C32.8379 37.3243 32.2732 37.8916 31.5749 37.8916H8.83994C8.14272 37.8916 7.57689 37.3243 7.57689 36.6285C7.57689 35.9302 7.01218 35.3655 6.31383 35.3655C5.61549 35.3655 5.05078 35.9302 5.05078 36.6285C5.05078 38.7176 6.75085 40.4177 8.83994 40.4177H31.5749C33.664 40.4177 35.364 38.7176 35.364 36.6285V12.6305C35.364 11.5961 34.8334 10.3128 34.101 9.58144L34.1007 9.58115Z" fill="#32599E"/>
</svg>
