<svg width="36" height="41" viewBox="0 0 36 41" fill="none" xmlns="http://www.w3.org/2000/svg">
<path d="M8.53387 24.5061H6.84766V27.0209H8.53387C9.21078 27.0209 9.74647 26.4247 9.74647 25.7982C9.74506 25.0923 9.2108 24.5062 8.53387 24.5062V24.5061Z" fill="#32599E"/>
<path d="M15.3206 24.556H13.6445V29.0801H15.3206C18.0475 29.0804 18.1676 24.556 15.3206 24.556Z" fill="#32599E"/>
<path d="M29.058 18.9458H1.27086C0.576186 18.9458 0.0078125 19.5142 0.0078125 20.2089V32.8394C0.0078125 33.5341 0.576186 34.1024 1.27086 34.1024H29.058C29.7538 34.1024 30.3211 33.5341 30.3211 32.8394V20.2089C30.3211 19.5142 29.7538 18.9458 29.058 18.9458ZM8.53305 28.2837H6.84684V29.6175C6.84684 30.0618 6.56406 30.3133 6.2001 30.3133C5.86657 30.3133 5.51416 30.0618 5.51416 29.6161V23.9312C5.51416 23.5977 5.77692 23.2329 6.2001 23.2329L8.53306 23.2326C9.84656 23.2326 11.0287 24.1117 11.0287 25.7979C11.0276 27.3944 9.84656 28.2836 8.53306 28.2836L8.53305 28.2837ZM15.4105 30.3133H13.007C12.6735 30.3133 12.3098 30.1301 12.3098 29.6869V23.9513C12.3098 23.5876 12.6735 23.3248 13.007 23.3248H15.3197C19.9346 23.3248 19.8337 30.3133 15.4105 30.3133L15.4105 30.3133ZM24.4099 24.6372H21.4697V26.2425H24.0451C24.4102 26.2425 24.7725 26.6062 24.7725 26.96C24.7725 27.2935 24.41 27.565 24.0451 27.565H21.4697V29.6857C21.4697 30.0393 21.2182 30.3122 20.8646 30.3122C20.42 30.3122 20.1471 30.0393 20.1471 29.6857V23.9501C20.1471 23.5864 20.4212 23.3236 20.8646 23.3236H24.4099C24.8545 23.3236 25.1159 23.5864 25.1159 23.9501C25.1159 24.2746 24.8545 24.6372 24.4099 24.6372L24.4099 24.6372Z" fill="#32599E"/>
<path d="M34.1085 9.58115L25.7904 1.26305C25.0602 0.530626 23.7771 0 22.7413 0H8.84775C6.75866 0 5.05859 1.70007 5.05859 3.78916V16.4197C5.05859 17.118 5.6233 17.6827 6.32165 17.6827C7.01999 17.6827 7.5847 17.118 7.5847 16.4197V3.78916C7.5847 3.09335 8.15053 2.5261 8.84775 2.5261H20.2152C21.6108 2.5261 22.7413 3.6578 22.7413 5.05221V9.78865C22.7413 11.3522 24.0221 12.6305 25.5832 12.6305H30.3196C31.7152 12.6305 32.8457 13.7622 32.8457 15.1566V36.6285C32.8457 37.3243 32.281 37.8916 31.5827 37.8916H8.84775C8.15053 37.8916 7.5847 37.3243 7.5847 36.6285C7.5847 35.9302 7.01999 35.3655 6.32165 35.3655C5.6233 35.3655 5.05859 35.9302 5.05859 36.6285C5.05859 38.7176 6.75866 40.4177 8.84775 40.4177H31.5827C33.6718 40.4177 35.3719 38.7176 35.3719 36.6285V12.6305C35.3719 11.5961 34.8413 10.3128 34.1088 9.58144L34.1085 9.58115Z" fill="#32599E"/>
</svg>
