<svg width="52" height="33" viewBox="0 0 52 33" fill="none" xmlns="http://www.w3.org/2000/svg">
<path d="M21.8601 25.0372C21.8601 24.2462 21.2192 23.6052 20.4281 23.6052H5.87725C5.08624 23.6052 4.44531 24.2461 4.44531 25.0372C4.44531 25.8282 5.08623 26.4691 5.87725 26.4691H20.4281C21.2188 26.4687 21.8601 25.8275 21.8601 25.0372Z" fill="#32599E"/>
<path d="M49.8493 0.565918H9.68638C9.6853 0.565918 9.68457 0.566641 9.68313 0.566641C8.89501 0.569534 8.25702 1.20864 8.25702 1.99784V9.88949H5.5335C4.74249 9.88949 4.10156 10.5304 4.10156 11.3214C4.10156 12.1124 4.74248 12.7534 5.5335 12.7534H10.399C11.19 12.7534 11.8309 12.1125 11.8309 11.3214C11.8309 10.7955 11.5437 10.3401 11.1209 10.0913V5.03422L28.8588 19.6481C29.1232 19.8658 29.4462 19.9747 29.7692 19.9747C30.0922 19.9747 30.4152 19.8658 30.6796 19.6481L48.4175 5.03145V27.5157C48.4175 28.8087 47.3667 29.8597 46.0755 29.8597H11.1191V28.5179C11.1191 27.7269 10.4782 27.0859 9.6872 27.0859C8.89617 27.0859 8.25526 27.7269 8.25526 28.5179V31.2917C8.25526 32.0827 8.89617 32.7236 9.6872 32.7236H46.0742C48.9442 32.7236 51.28 30.3868 51.28 27.5157V1.99812C51.28 1.2071 50.6391 0.566178 49.8488 0.566178L49.8493 0.565918ZM29.7678 16.6872L13.6753 3.4298H45.8585L29.7678 16.6872Z" fill="#32599E"/>
<path d="M8.25628 20.6446C8.25628 21.4356 8.89719 22.0766 9.68822 22.0766C10.4792 22.0766 11.1202 21.4356 11.1202 20.6446V18.0184H15.7986C16.5896 18.0184 17.2305 17.3775 17.2305 16.5865C17.2305 15.7955 16.5896 15.1545 15.7986 15.1545H1.43194C0.640924 15.1545 0 15.7955 0 16.5865C0 17.3775 0.640915 18.0184 1.43194 18.0184H8.25628V20.6446Z" fill="#32599E"/>
</svg>
