<svg width="15" height="15" viewBox="0 0 15 15" fill="none" xmlns="http://www.w3.org/2000/svg">
<path d="M6.50614 3.88483C6.42655 4.37781 6.81124 4.76966 7.32859 4.76966C7.84593 4.76966 8.28368 4.37781 8.36327 3.88483C8.41633 3.39185 8.03164 3 7.5143 3C6.99696 3 6.55921 3.39185 6.50614 3.88483ZM5.29901 10.4958C5.04697 11.6461 5.81635 12 6.47961 12C7.36838 12 8.25715 11.4185 8.88061 10.7486C8.9602 10.6601 9 10.559 9 10.4705C9 10.3441 8.92041 10.2303 8.77449 10.1671C8.44286 10.4831 7.87246 10.7992 7.38165 10.7992C7.03675 10.7992 6.82451 10.5716 6.98369 9.86376L7.79287 6.21067C7.89899 5.73034 7.63369 5.51545 7.15614 5.51545C6.599 5.51545 6.12145 5.7809 5.67044 6.12219C5.40513 6.32444 5.49799 6.71629 5.67044 6.81742C5.78982 6.71629 5.86942 6.66573 5.93574 6.66573C6.05513 6.66573 6.10819 6.77949 6.06839 6.98174L5.29901 10.4958Z" fill="#33A648"/>
<rect x="0.5" y="0.5" width="14" height="14" rx="4.5" stroke="#33A648"/>
</svg>
