<svg width="287" height="279" viewBox="0 0 287 279" fill="none" xmlns="http://www.w3.org/2000/svg">
<g clip-path="url(#clip0_2938_20907)">
<path fill-rule="evenodd" clip-rule="evenodd" d="M55.8458 124.034H65.0711V115.03H55.8458V124.034ZM41.9935 200.587H51.2187V191.582H41.9935V200.587ZM235.722 200.587H244.948V191.582H235.722V200.587ZM221.899 124.034H231.124V115.03H221.899V124.034ZM132.354 97.0204L166.082 126.931L163.813 97.0204H132.354ZM135.06 65.4904L162.852 84.4936L161.426 65.4904H135.06ZM138.872 38.4768L160.553 54.3554L159.36 38.4768H138.872ZM157.643 15.9796H129.298L128.28 29.5006H158.662L157.643 15.9796ZM148.098 56.5142L127.377 41.3457L126.242 56.5142H148.098ZM151.91 88.0159L125.224 69.7796L123.827 88.0159H151.91ZM159.215 133.039L122.867 100.798L120.393 133.039H159.215ZM120.044 15.9796H101.302L119.316 25.7511L120.044 15.9796ZM135.06 164.54L119.287 147.895L118.036 164.54H135.06ZM143.558 173.573H117.337L115.941 191.582H160.582L143.558 173.573ZM116.115 67.9332L71.9972 88.0159H114.602L116.115 67.9332ZM110.295 144.628L60.7058 164.569H108.782L110.295 144.628ZM178.189 164.569H226.264L176.675 144.628L178.189 164.569ZM178.829 173.545L184.649 250.098H175.366L171.612 200.502C171.493 200.54 171.387 200.553 171.277 200.566C171.225 200.572 171.173 200.578 171.117 200.587H115.271L111.519 250.098H250.621H260.836V279.98H26.1327V250.098H93.2988H102.265L108.083 173.573H51.1896V182.578H55.8167C58.3776 182.578 60.4438 184.595 60.4438 187.094V205.103C60.4438 207.603 58.3776 209.62 55.8167 209.62H37.3664C34.8054 209.62 32.7392 207.603 32.7392 205.103V187.094C32.7392 184.595 34.8054 182.578 37.3664 182.578H41.9935V173.545H0V164.54H36.4642L111.052 134.572L113.903 97.0204H65.1001V106.025H69.7273C72.2883 106.025 74.3544 108.042 74.3544 110.541V128.551C74.3544 131.05 72.2883 133.067 69.7273 133.067H51.2768C48.7159 133.067 46.6497 131.05 46.6497 128.551V110.541C46.6497 108.042 48.7159 106.025 51.2768 106.025H55.9041V97.0204H0.0581178V88.0159H50.2583L116.959 57.6221L118.618 35.6362L82.3574 15.9796H0.02913V6.9751H286.999V15.9796H204.671L168.411 35.6362L170.069 57.6221L236.77 88.0159H286.97V97.0204H231.124V106.025H235.752C238.313 106.025 240.379 108.042 240.379 110.541V128.551C240.379 131.05 238.313 133.067 235.752 133.067H217.301C214.74 133.067 212.674 131.05 212.674 128.551V110.541C212.674 108.042 214.74 106.025 217.301 106.025H221.928V97.0204H173.067L175.919 134.572L250.448 164.569H286.912V173.573H244.919V182.578H249.546C252.107 182.578 254.173 184.595 254.173 187.094V205.103C254.173 207.603 252.107 209.62 249.546 209.62H231.095C228.534 209.62 226.468 207.603 226.468 205.103V187.094C226.468 184.595 228.534 182.578 231.095 182.578H235.722V173.545H178.829ZM172.368 88.0159H214.944L170.855 67.9332L172.368 88.0159ZM156.13 173.545L170.768 189.026L169.604 173.545H156.13ZM147.632 164.569H168.934L167.217 142.043H126.33L147.632 164.569ZM166.897 15.9796L167.625 25.7511L185.639 15.9796H166.897ZM36.3473 270.039H250.621V260.068H36.3473V270.039Z" fill="url(#paint0_linear_2938_20907)"/>
</g>
<defs>
<linearGradient id="paint0_linear_2938_20907" x1="277.271" y1="143.475" x2="7.95992" y2="143.475" gradientUnits="userSpaceOnUse">
<stop stop-color="#33A648"/>
<stop offset="0.90839" stop-color="#32599E"/>
</linearGradient>
<clipPath id="clip0_2938_20907">
<rect width="287" height="279" fill="white"/>
</clipPath>
</defs>
</svg>
