<svg width="291" height="227" viewBox="0 0 291 227" fill="none" xmlns="http://www.w3.org/2000/svg">
<path d="M140.65 28.9001H92.15C90.8637 28.9001 89.6301 29.397 88.7205 30.2816C87.811 31.1661 87.3 32.3658 87.3 33.6168V57.2001H77.6V5.31676C77.6 4.06583 77.089 2.86612 76.1795 1.98158C75.2699 1.09703 74.0363 0.600098 72.75 0.600098H14.55C10.6911 0.600098 6.99025 2.0909 4.2616 4.74453C1.53294 7.39817 0 10.9973 0 14.7501V28.9001C0 30.151 0.51098 31.3507 1.42053 32.2353C2.33008 33.1198 3.5637 33.6168 4.85 33.6168C5.01005 33.6168 5.1701 33.6168 5.335 33.5932L48.5 29.3953V80.7834C48.5 82.0344 49.011 83.2341 49.9205 84.1186C50.8301 85.0032 52.0637 85.5001 53.35 85.5001H87.3V104.607C76.1307 105.44 65.3915 109.153 56.1884 115.364C46.9854 121.576 39.6512 130.06 34.9412 139.945C30.2312 149.829 28.3157 160.756 29.3919 171.599C30.4682 182.443 34.4972 192.812 41.0642 201.638C47.6312 210.464 56.4986 217.428 66.7533 221.812C77.008 226.197 88.2792 227.844 99.4061 226.584C110.533 225.324 121.113 221.202 130.057 214.643C139.002 208.083 145.986 199.324 150.292 189.267H208.55V198.7H160.05C158.764 198.7 157.53 199.197 156.621 200.082C155.711 200.966 155.2 202.166 155.2 203.417V222.283C155.2 223.534 155.711 224.734 156.621 225.619C157.53 226.503 158.764 227 160.05 227H286.15C287.436 227 288.67 226.503 289.579 225.619C290.489 224.734 291 223.534 291 222.283V203.417C291 202.166 290.489 200.966 289.579 200.082C288.67 199.197 287.436 198.7 286.15 198.7H237.65V189.267H286.15C287.436 189.267 288.67 188.77 289.579 187.885C290.489 187.001 291 185.801 291 184.55V80.7834C291 51.2052 226.364 28.9001 140.65 28.9001ZM97 85.5001H281.3V104.367H97V85.5001ZM97 38.3334H140.65C218.352 38.3334 272.458 57.0539 280.281 76.0668H97V38.3334ZM58.2 24.1834C58.2 24.1032 58.1563 24.0325 58.1515 23.9523C58.1466 23.8721 58.1854 23.7967 58.1515 23.7118C58.1003 23.4814 58.0289 23.2558 57.9381 23.0373C57.8752 22.7317 57.781 22.4331 57.6568 22.1458C57.5183 21.8957 57.3559 21.6588 57.1718 21.4383C56.987 21.1722 56.774 20.9256 56.5364 20.7025C56.3379 20.5481 56.1271 20.4093 55.906 20.2875C55.6043 20.0825 55.2787 19.9131 54.9359 19.7828C54.6818 19.7126 54.4223 19.6621 54.1599 19.6318C53.8961 19.5514 53.6248 19.4961 53.35 19.4668C53.2627 19.4668 53.19 19.5092 53.1027 19.5139C53.0154 19.5186 52.9474 19.4809 52.865 19.5139L9.7 23.7118V14.7501C9.7 13.4992 10.211 12.2995 11.1205 11.4149C12.0301 10.5304 13.2637 10.0334 14.55 10.0334H67.9V61.9168C67.9 63.1677 68.411 64.3674 69.3205 65.252C70.2301 66.1365 71.4637 66.6334 72.75 66.6334H87.3V76.0668H58.2V24.1834ZM92.15 217.567C78.4686 217.498 65.3372 212.321 55.4694 203.105C45.6017 193.888 39.7521 181.337 39.1294 168.045C38.5067 154.754 43.1586 141.738 52.1237 131.687C61.0887 121.636 73.6817 115.319 87.3 114.041V128.276C80.9825 129.027 74.9521 131.278 69.7403 134.831C64.5285 138.383 60.2954 143.128 57.414 148.647C54.5326 154.166 53.0915 160.289 53.2176 166.478C53.3438 172.666 55.0334 178.729 58.1374 184.133C61.2415 189.536 65.6647 194.114 71.0172 197.463C76.3697 200.812 82.4871 202.829 88.8302 203.336C95.1733 203.843 101.547 202.825 107.39 200.372C113.234 197.918 118.366 194.105 122.336 189.267H139.622C135.156 197.778 128.36 204.924 119.983 209.917C111.607 214.911 101.975 217.558 92.15 217.567V217.567ZM281.3 217.567H164.9V208.133H281.3V217.567ZM227.95 198.7H218.25V189.267H227.95V198.7ZM119.989 179.833C119.853 179.853 119.719 179.88 119.586 179.914C119.257 179.944 118.932 180.009 118.616 180.107C118.334 180.186 118.06 180.29 117.797 180.418C117.528 180.563 117.274 180.73 117.035 180.918C116.779 181.115 116.543 181.336 116.332 181.579C116.24 181.687 116.109 181.748 116.027 181.866C113.166 185.858 109.295 189.065 104.788 191.177C100.281 193.289 95.2906 194.236 90.2978 193.926C85.305 193.616 80.4788 192.059 76.2852 189.405C72.0915 186.752 68.6721 183.092 66.357 178.779C64.0418 174.466 62.9092 169.645 63.0685 164.782C63.2278 159.919 64.6736 155.178 67.2664 151.017C69.8591 146.856 73.5111 143.416 77.8699 141.027C82.2287 138.639 87.147 137.384 92.15 137.383C93.4363 137.383 94.6699 136.887 95.5795 136.002C96.489 135.117 97 133.918 97 132.667V113.8H281.3V137.383H116.4C115.114 137.384 113.88 137.881 112.971 138.765L94.6283 156.604C93.8219 156.38 92.9885 156.261 92.15 156.25C90.2315 156.25 88.3561 156.803 86.761 157.84C85.1658 158.876 83.9225 160.35 83.1884 162.073C82.4542 163.797 82.2621 165.694 82.6364 167.524C83.0107 169.354 83.9345 171.035 85.2911 172.354C86.6476 173.673 88.376 174.572 90.2576 174.936C92.1392 175.299 94.0896 175.113 95.862 174.399C97.6345 173.685 99.1494 172.476 100.215 170.924C101.281 169.373 101.85 167.549 101.85 165.683C101.839 164.868 101.716 164.057 101.486 163.273L118.408 146.817H281.3V179.833H119.989Z" fill="url(#paint0_linear_1638_711)"/>
<defs>
<linearGradient id="paint0_linear_1638_711" x1="281.136" y1="113.798" x2="8.07087" y2="113.798" gradientUnits="userSpaceOnUse">
<stop stop-color="#33A648"/>
<stop offset="0.90839" stop-color="#32599E"/>
</linearGradient>
</defs>
</svg>
