<svg width="287" height="279" viewBox="0 0 287 279" fill="none" xmlns="http://www.w3.org/2000/svg">
<g clip-path="url(#clip0_2938_20926)">
<path fill-rule="evenodd" clip-rule="evenodd" d="M237.673 127.508C238.368 127.508 239.063 127.367 239.729 127.056C246.739 123.805 253.083 119.394 258.616 113.994C285.294 87.9532 285.294 45.5705 258.616 19.5302C231.937 -6.51008 188.516 -6.51008 161.837 19.5302C156.305 24.9306 151.815 31.1226 148.455 37.9649C147.325 40.3116 148.31 43.1107 150.714 44.2134C153.118 45.3161 155.986 44.3265 157.116 42.008C159.984 36.127 163.865 30.8115 168.616 26.1746C191.557 3.78164 228.867 3.78164 251.809 26.1746C274.75 48.5676 274.75 84.9845 251.809 107.377C247.058 112.014 241.583 115.803 235.587 118.602C233.183 119.705 232.169 122.504 233.328 124.851C234.168 126.547 235.906 127.508 237.673 127.508ZM194.54 103.363L206.329 91.8553C207.604 92.0533 208.936 92.1381 210.269 92.1381C217.221 92.1381 223.738 89.5086 228.662 84.702C238.801 74.8062 238.801 58.69 228.662 48.7941C223.738 43.9875 217.221 41.3581 210.269 41.3581C203.317 41.3581 196.799 43.9875 191.875 48.7941C185.821 54.7034 183.387 62.8463 184.575 70.5651L172.785 82.0726L112.535 23.2627C110.594 21.3684 107.9 20.294 105.119 20.3788C102.367 20.4353 99.7313 21.6228 97.8774 23.6303C94.1986 27.5886 90.8674 31.8015 87.8839 36.2122C87.8702 36.2322 87.8549 36.2538 87.8388 36.2765L87.8386 36.2768C87.7864 36.3505 87.7253 36.4369 87.681 36.5232C76.7316 52.7242 70.5037 71.5264 69.6058 91.092C69.5768 91.1061 69.5551 91.1132 69.5334 91.1202L69.5332 91.1202C69.5213 91.1241 69.5093 91.128 69.4962 91.1331C69.4855 91.1372 69.4739 91.1422 69.4609 91.1485C68.8237 103.589 70.4458 115.973 74.1535 127.848L74.1697 127.841C74.1954 127.829 74.2251 127.817 74.2548 127.806L74.2549 127.806L74.255 127.806C74.2912 127.792 74.3274 127.777 74.3563 127.763C79.6283 144.586 88.9846 159.911 101.904 172.521C103.236 173.822 104.627 175.094 106.017 176.338C105.785 177.723 105.64 179.137 105.64 180.607V200.201L81.0625 248.181H78.1525H0V279H286.974V248.181H276.46H182.271L158.621 202.18C165.862 203.594 173.162 204.273 180.375 204.273C201.984 204.273 223.159 198.081 241.321 186.347C241.335 186.347 241.343 186.34 241.35 186.333C241.357 186.326 241.364 186.319 241.379 186.319C245.927 183.378 250.272 180.098 254.385 176.479C256.413 174.67 257.629 172.125 257.716 169.439C257.774 166.753 256.702 164.095 254.762 162.201L194.54 103.363ZM171.453 248.181L149.844 206.026H113.375L91.7947 248.181H171.453ZM198.653 55.4668C201.752 52.4415 205.866 50.7733 210.269 50.7733C214.643 50.7733 218.785 52.4415 221.884 55.4668C228.286 61.7153 228.286 71.8657 221.884 78.1142C218.785 81.1395 214.672 82.8077 210.269 82.8077C205.895 82.8077 201.752 81.1395 198.653 78.1142C192.251 71.8657 192.251 61.687 198.653 55.4668ZM188.225 80.263C189.239 81.8464 190.455 83.3449 191.875 84.7303C193.265 86.0875 194.8 87.275 196.451 88.2928L187.79 96.7467L179.593 88.7452L188.225 80.263ZM115.228 196.639V180.636C115.228 171.814 122.586 164.633 131.624 164.633C140.661 164.633 148.019 171.814 148.019 180.636V195.734C148 195.864 148.006 195.994 148.012 196.132V196.132V196.133V196.133C148.015 196.205 148.019 196.279 148.019 196.356V196.667H115.228V196.639ZM157.636 192.398V180.636C157.636 166.64 145.962 155.246 131.624 155.246C122.441 155.246 114.359 159.911 109.725 166.951C109.551 166.781 109.37 166.612 109.189 166.442C109.008 166.272 108.827 166.103 108.653 165.933C94.2565 151.881 84.6395 134.181 80.8159 114.757C80.8159 114.707 80.7958 114.677 80.7733 114.643C80.7577 114.619 80.7409 114.594 80.729 114.559C79.6283 108.763 79.02 102.854 78.991 96.9164V96.8316C78.991 96.6619 78.9982 96.4923 79.0055 96.3226L79.0055 96.3221C79.0127 96.1526 79.02 95.9832 79.02 95.8137C79.049 93.5518 79.1068 91.2899 79.2807 89.028C80.3814 73.9297 84.9292 59.3686 92.6344 46.4191L231.038 181.512C209.081 194.037 182.953 198.052 157.636 192.398ZM247.983 169.496C245.203 171.955 242.306 174.217 239.293 176.338L97.9932 38.4176C100.166 35.4771 102.483 32.6497 104.974 29.9354C105.061 29.8223 105.177 29.794 105.322 29.7657C105.467 29.7657 105.583 29.8223 105.698 29.9071L169.338 92.025L184.343 106.671L247.983 168.817C248.099 168.93 248.128 169.043 248.128 169.185C248.128 169.298 248.099 169.411 247.983 169.496ZM216.613 107.999C215.918 105.483 217.453 102.938 220.002 102.259C226.346 100.591 232.168 97.3114 236.861 92.7593C251.518 78.4527 251.518 55.1549 236.861 40.8483C222.204 26.5417 198.335 26.5417 183.678 40.8483C179.014 45.4287 175.654 51.1118 173.945 57.3037C173.25 59.7919 170.614 61.2904 168.065 60.6118C165.516 59.9332 163.98 57.3603 164.676 54.8722C166.79 47.0686 171.019 39.9435 176.9 34.2039C195.294 16.2217 225.245 16.2217 243.668 34.2039C262.091 52.1579 262.091 81.3932 243.668 99.3754C237.788 105.087 230.459 109.215 222.493 111.307C222.088 111.42 221.653 111.477 221.248 111.477C219.133 111.477 217.193 110.091 216.613 107.999ZM10.515 268.736H276.46V258.445H10.515V268.736Z" fill="url(#paint0_linear_2938_20926)"/>
</g>
<defs>
<linearGradient id="paint0_linear_2938_20926" x1="277.246" y1="139.497" x2="7.95922" y2="139.497" gradientUnits="userSpaceOnUse">
<stop stop-color="#33A648"/>
<stop offset="0.90839" stop-color="#32599E"/>
</linearGradient>
<clipPath id="clip0_2938_20926">
<rect width="287" height="279" fill="white"/>
</clipPath>
</defs>
</svg>
