<svg width="287" height="279" viewBox="0 0 287 279" fill="none" xmlns="http://www.w3.org/2000/svg">
<g clip-path="url(#clip0_2938_20788)">
<path fill-rule="evenodd" clip-rule="evenodd" d="M247.617 24.4121H241.532V40.4939H247.617V24.4121ZM185.885 140.668H276.13C277.672 140.694 278.947 141.913 279 143.417V165.439C279 166.165 278.708 166.866 278.177 167.385L216.126 227.951C215.595 228.469 214.877 228.755 214.133 228.755H197.206V250.18H276.954V278.167H0V250.206H62.4222L68.2952 129.566C67.6042 129.281 66.9664 128.918 66.3286 128.555L19.5584 180.613C18.9472 181.287 18.0968 181.702 17.1667 181.754C16.2632 181.806 15.3596 181.495 14.6686 180.898L8.34408 175.399C7.28112 174.466 6.90919 173.013 7.38752 171.742C7.46724 171.535 7.54686 171.353 7.67973 171.146L41.7741 116.182C42.5713 114.885 44.1926 114.263 45.7073 114.704L58.3032 118.387C57.6123 115.871 57.4262 113.225 57.9842 110.579C58.1703 109.775 58.383 108.971 58.6753 108.193C60.0838 104.354 62.8473 101.268 66.2754 99.3221L44.0596 33.7239C43.7939 32.9717 43.8469 32.1936 44.0861 31.5192C44.4316 30.5854 45.1756 29.8072 46.212 29.47L54.2639 26.8243C55.8583 26.2796 57.6124 26.954 58.4096 28.4065L89.634 84.5891C90.3781 85.9379 90.1124 87.572 88.9697 88.6355L79.3234 97.5843C83.3892 98.6218 86.8969 100.982 89.2354 104.432C91.1753 107.259 92.1318 110.502 92.1318 113.822L161.012 127.31C161.915 127.465 162.712 127.984 163.217 128.736C163.722 129.489 163.908 130.396 163.722 131.278L162.021 139.449C161.703 141.057 160.241 142.172 158.567 142.146L93.3012 140.875C91.7067 140.85 90.3514 139.786 90.0059 138.282L87.0298 125.727C85.6746 127.024 84.1597 128.114 82.4855 128.944L87.5081 250.18H174.618V228.755H118.201C116.66 228.755 115.384 227.536 115.384 226.005V209.483C115.384 208.756 115.677 208.056 116.208 207.537L183.892 141.472C184.424 140.953 185.141 140.668 185.885 140.668ZM258.033 157.217L269.327 146.193H254.738L243.444 157.217H258.033ZM215.249 162.69L203.955 173.713H218.544L229.838 162.69H215.249ZM201.617 190.236L212.911 179.212H198.322L187.028 190.236H201.617ZM181.394 173.713H195.983L207.277 162.69H192.688L181.394 173.713ZM179.056 190.236L190.349 179.212H175.76L164.466 190.236H179.056ZM162.128 206.759L173.422 195.735H158.833L147.539 206.759H162.128ZM195.983 195.735H181.394L170.1 206.759H184.689L195.983 195.735ZM218.544 195.735H203.955L192.688 206.759H207.25L218.544 195.735ZM220.91 179.212L209.616 190.236H224.205L235.499 179.212H220.91ZM237.811 162.69L226.517 173.713H241.106L252.4 162.69H237.811ZM235.472 157.217L246.766 146.193H232.177L220.883 157.217H235.472ZM212.884 157.217L224.178 146.193H209.589L198.295 157.217H212.884ZM201.643 146.193H187.054L175.76 157.217H190.349L201.643 146.193ZM184.716 162.716H170.127L158.833 173.739H173.422L184.716 162.716ZM167.788 179.212H153.199L141.905 190.236H156.494L167.788 179.212ZM150.86 195.735H136.271L124.977 206.759H139.566L150.86 195.735ZM155.75 135.377L156.202 133.276L92.9026 120.851L96.065 134.209L155.75 135.377ZM82.2198 85.5489L53.7059 34.113L51.6864 34.7615L72.0685 94.9645L82.2198 85.5489ZM76.9317 103.913C71.4575 102.85 65.9034 106.351 64.7341 111.928C64.1761 114.626 64.7076 117.349 66.2489 119.606C67.4979 121.448 69.3048 122.77 71.4041 123.471C71.8559 123.419 72.3078 123.419 72.7595 123.549C74.0085 123.886 75.3106 123.964 76.6128 123.86C80.1471 123.185 83.2298 120.773 84.5053 117.297C84.6913 116.831 84.8241 116.338 84.9304 115.845C85.4884 113.173 84.9569 110.424 83.4156 108.167C81.9009 105.962 79.6157 104.432 76.9317 103.913ZM15.0143 172.235L16.6087 173.61L59.5257 125.805L46.2388 121.914L15.0143 172.235ZM75.603 130.708C75.4436 130.734 75.2576 130.759 75.0715 130.759L69.3049 250.18H80.5192L75.603 130.708ZM9.48671 268.83H267.361V259.518H9.48671V268.83ZM180.225 228.755V250.18H191.519V228.755H180.225ZM212.911 223.282L273.314 164.324V150.084L210.439 211.454C209.908 211.973 209.19 212.258 208.446 212.258H121.018V223.282H212.911ZM222.93 65.8361C222.93 77.4565 232.63 86.924 244.562 86.924C256.494 86.924 266.193 77.4565 266.167 65.8361C266.167 54.1897 256.467 44.7222 244.535 44.7222C232.63 44.7481 222.957 54.2156 222.93 65.8361ZM229.043 65.8361C229.043 57.5098 236.005 50.688 244.562 50.688C253.119 50.688 260.081 57.4839 260.081 65.8361C260.081 74.1882 253.119 80.9841 244.562 80.9841C236.005 80.9841 229.043 74.1882 229.043 65.8361ZM126.893 65.6019H150.862V59.3767H126.893C120.356 59.3767 115.041 54.189 115.041 47.8081C115.041 43.0355 119 39.1706 123.89 39.1706C127.451 39.1706 130.321 41.9979 130.321 45.4477C130.321 47.8859 128.301 49.8573 125.803 49.8573V56.0825C131.809 56.0825 136.698 51.3098 136.698 45.4477C136.698 38.5481 130.932 32.9195 123.863 32.9195C115.466 32.9195 108.61 39.5857 108.61 47.8081C108.636 57.6128 116.821 65.6019 126.893 65.6019ZM185.593 83.5H148.841C142.304 83.5 136.989 88.6877 136.963 95.0945C136.963 99.8672 140.922 103.732 145.812 103.732C149.373 103.732 152.27 100.931 152.27 97.4549C152.27 95.0167 150.25 93.0454 147.752 93.0454V86.8201C153.758 86.8201 158.647 91.5928 158.647 97.4549C158.647 104.354 152.88 109.983 145.812 109.983C137.415 109.983 130.585 103.291 130.585 95.0945C130.585 85.2638 138.77 77.2748 148.841 77.2748H185.593V83.5ZM241.529 91.1516H247.614V107.233H241.529V91.1516ZM216.697 34.4684L212.394 38.6686L224.044 50.04L228.347 45.8399L216.697 34.4684ZM260.75 85.8761L265.053 81.6761L276.703 93.0476L272.401 97.2476L260.75 85.8761ZM218.624 62.8539H202.148V68.7938H218.624V62.8539ZM270.524 62.8532H287V68.7931H270.524V62.8532ZM224.055 81.6528L212.406 93.0243L216.708 97.2244L228.358 85.8529L224.055 81.6528ZM260.751 45.8455L272.4 34.4741L276.703 38.6742L265.054 50.0456L260.751 45.8455Z" fill="url(#paint0_linear_2938_20788)"/>
</g>
<defs>
<linearGradient id="paint0_linear_2938_20788" x1="277.271" y1="151.288" x2="7.95994" y2="151.288" gradientUnits="userSpaceOnUse">
<stop stop-color="#203569"/>
<stop offset="1" stop-color="#33A648"/>
</linearGradient>
<clipPath id="clip0_2938_20788">
<rect width="287" height="279" fill="white"/>
</clipPath>
</defs>
</svg>
