<svg width="287" height="276" viewBox="0 0 287 276" fill="none" xmlns="http://www.w3.org/2000/svg">
<path fill-rule="evenodd" clip-rule="evenodd" d="M267.98 78.295V243.973H287.001V275.011H0V243.973H27.5588L33.1635 213.842C13.7069 205.99 0 187.282 0 165.513C0 144.453 12.8647 126.284 31.276 118.007V95.7557H40.3072C41.4979 66.7018 66.0076 43.4304 96.0348 43.4304C126.846 43.4304 151.878 67.8923 151.878 97.9382V106.328C172.468 112.026 187.597 130.507 187.597 152.418V174.215H196.542V78.295H206.502C205.515 77.5013 204.557 76.651 203.627 75.7439C196.164 68.4592 192.069 58.7935 192.069 48.5042V47.9089C192.069 35.3803 198.603 24.0422 209.551 17.6362L220.006 11.5136L232.725 28.0389L233.48 27.3019C238.882 22.0297 243.005 15.5103 245.416 8.45232L248.145 0.487305L255.318 7.48858C266.353 18.2314 272.423 32.5458 272.423 47.7672C272.423 60.0974 266.586 71.0953 257.438 78.295H267.98ZM239.404 64.3491L232.261 55.0519L225.117 64.3491C223.926 65.8798 223.316 67.6939 223.316 69.593C223.316 74.4117 227.324 78.3233 232.261 78.3233C237.197 78.3233 241.205 74.4117 241.205 69.593C241.205 67.6939 240.566 65.8798 239.404 64.3491ZM251.775 16.5591C248.871 22.8517 244.806 28.6058 239.811 33.4812L232.377 40.7376L246.519 59.1336C248.813 62.1382 250.091 65.8514 250.091 69.593C250.091 70.7835 249.975 71.9457 249.743 73.0795C258.048 67.5805 263.507 58.2833 263.507 47.7955C263.507 36.2307 259.384 25.2611 251.775 16.5591ZM200.985 47.9372V48.5325C200.985 56.4692 204.15 63.9523 209.9 69.593C211.439 71.067 213.094 72.3708 214.866 73.5047C214.575 72.2575 214.372 70.9536 214.372 69.593C214.372 65.8514 215.65 62.1382 217.944 59.1336L231.68 41.2478L217.683 23.0218L214.14 25.1193C205.892 29.9664 200.985 38.4699 200.985 47.9372ZM232.261 87.0253H231.506H205.457V95.7557H259.064V87.0253H232.261ZM259.064 104.458H205.486V174.215H223.345V243.973H259.064V104.458ZM169.738 182.946V243.973H214.401V182.946H169.738ZM160.794 243.973V174.215H178.653V156.783H106.373C106.867 159.646 107.186 162.537 107.186 165.513C107.186 176.171 103.875 186.092 98.2417 194.369V243.973H107.186V200.378H151.849V243.973H160.794ZM116.13 243.973H142.934V209.108H116.13V243.973ZM65.4558 216.478C63.0455 217.017 60.5771 217.385 58.0506 217.584V243.973H70.5668L65.4558 216.478ZM74.0516 213.842L79.6562 243.973H89.3266V204.375C84.8544 208.315 79.7143 211.546 74.0516 213.842ZM96.0348 69.593C80.7598 69.593 68.2727 81.1579 67.1111 95.7557V95.784H75.9392V118.035C82.9958 121.21 89.2394 125.83 94.2633 131.527C100.42 119.226 111.716 110.098 125.075 106.357V97.9382C125.075 82.2917 112.036 69.593 96.0348 69.593ZM9.84448 156.783H97.3705C96.7316 153.75 95.7443 150.83 94.4956 148.053H12.6905C11.4418 150.83 10.4834 153.75 9.84448 156.783ZM104.079 148.053H178.392C176.156 128.466 159.109 113.188 138.462 113.188C121.183 113.188 105.792 124.129 100.362 140.003C101.843 142.554 103.062 145.246 104.079 148.053ZM142.934 97.9382C142.934 72.6826 121.909 52.1607 96.0348 52.1607C70.9153 52.1607 50.4132 71.5205 49.2225 95.784H58.1667C59.3574 76.3959 75.8521 60.9194 96.0348 60.9194C116.973 60.9194 133.99 77.5297 133.99 97.9666V104.713C135.471 104.571 136.952 104.486 138.462 104.486C139.972 104.486 141.453 104.571 142.934 104.713V97.9382ZM66.995 104.458H40.2202V114.889C44.489 113.783 48.9902 113.16 53.6076 113.16C58.2249 113.16 62.6971 113.812 66.995 114.889V104.458ZM89.2684 139.322C81.1082 128.778 68.1856 121.89 53.6076 121.89C39.0296 121.89 26.1068 128.778 17.9756 139.322H89.2684ZM98.2708 165.485H8.94421C8.94421 189.55 28.9527 209.108 53.6076 209.08C78.2333 209.08 98.2708 189.522 98.2708 165.485ZM49.1355 217.584C46.609 217.385 44.1406 217.017 41.7303 216.478L36.6193 243.973H49.1355V217.584ZM8.94421 266.281H278.086V252.675H8.94421V266.281ZM178.651 191.648H187.595V200.379H178.651V191.648ZM205.459 191.648H196.514V200.379H205.459V191.648ZM178.651 209.108H187.595V217.838H178.651V209.108ZM205.459 209.108H196.514V217.838H205.459V209.108ZM178.651 226.541H187.595V235.271H178.651V226.541ZM205.459 226.541H196.514V235.271H205.459V226.541ZM214.399 113.188H250.118V165.513H214.399V113.188ZM223.314 156.783H241.174V121.918H223.314V156.783Z" fill="url(#paint0_linear_2938_20947)"/>
<defs>
<linearGradient id="paint0_linear_2938_20947" x1="277.272" y1="137.747" x2="7.95995" y2="137.747" gradientUnits="userSpaceOnUse">
<stop stop-color="#33A648"/>
<stop offset="0.90839" stop-color="#32599E"/>
</linearGradient>
</defs>
</svg>
