<svg width="216" height="198" viewBox="0 0 216 198" fill="none" xmlns="http://www.w3.org/2000/svg">
<path d="M0.75 157.394V197.999H215.25V157.394H0.75ZM203.961 187.848H12.0395V167.545H203.961V187.848ZM147.513 50.8052H158.803V40.654H198.316V0.0488281H108V40.654H147.513V50.8052ZM119.289 10.2001H187.026V30.5027H119.289V10.2001ZM65.6645 60.9565V50.8052H76.954V60.9565H65.6645ZM119.289 96.486H108V86.3347H119.289V96.486ZM141.868 96.486H130.579V86.3347H141.868V96.486ZM164.447 96.486H153.158V86.3347H164.447V96.486ZM119.289 116.789H108V106.637H119.289V116.789ZM141.868 116.789H130.579V106.637H141.868V116.789ZM164.447 116.789H153.158V106.637H164.447V116.789ZM108 126.94H119.289V137.091H108V126.94ZM130.579 126.94H141.868V137.091H130.579V126.94ZM153.158 126.94H164.447V137.091H153.158V126.94ZM23.3289 148.156L12.0395 146.329L29.9333 60.9565H45.9079V50.8052H57.1974V86.3347H85.4211V50.8052H96.7105V60.9565H186.067L203.961 146.329L192.671 148.156L176.696 71.1078H96.7105V96.486H45.9079V71.1078H39.3036L23.3289 148.156Z" fill="url(#paint0_linear_1638_276)"/>
<defs>
<linearGradient id="paint0_linear_1638_276" x1="207.979" y1="99.0221" x2="6.69915" y2="99.0221" gradientUnits="userSpaceOnUse">
<stop stop-color="#33A648"/>
<stop offset="0.90839" stop-color="#32599E"/>
</linearGradient>
</defs>
</svg>
