<svg width="257" height="250" viewBox="0 0 257 250" fill="none" xmlns="http://www.w3.org/2000/svg">
<g clip-path="url(#clip0_1248_13917)">
<path fill-rule="evenodd" clip-rule="evenodd" d="M248.134 223.857H232.045V90.7926C232.045 87.9059 229.655 85.5714 226.7 85.5714H198.276V48.2451C198.276 45.3584 195.885 43.024 192.93 43.024H176.379V17.7214C176.379 14.8347 173.989 12.5002 171.034 12.5002H81.9059C78.9504 12.5002 76.5603 14.8347 76.5603 17.7214V43.024H64.4556C61.5001 43.024 59.11 45.3584 59.11 48.2451V85.5714H30.326C27.3705 85.5714 24.9804 87.9059 24.9804 90.7926V223.857H22.873H0V249.812H257V223.857H248.134ZM198.276 96.0137H221.354V223.857H198.276V96.0137ZM87.2515 22.9426H165.688V43.024H87.2515V22.9426ZM69.8012 53.4663H187.584L187.225 223.857H69.8012V53.4663ZM35.6459 96.0137H59.11V223.857H35.6459V96.0137ZM248.134 241.152H8.8665V232.492H248.159V241.152H248.134ZM121.123 151.664L143.713 101.235H126.494L131.814 75.5556H113.464L113.284 116.446H125.492L121.123 151.664ZM104.601 187.534C104.601 174.632 115.293 164.189 128.502 164.189C141.712 164.189 152.403 174.632 152.403 187.534C152.403 200.436 141.712 210.879 128.502 210.879C115.293 210.879 104.601 200.436 104.601 187.534ZM112.157 187.534C112.157 196.345 119.482 203.499 128.502 203.499C137.523 203.499 144.848 196.345 144.873 187.534C144.873 180.004 139.528 173.753 132.357 172.046V191.199H124.673V172.046C117.503 173.753 112.157 180.004 112.157 187.534Z" fill="url(#paint0_linear_1248_13917)"/>
</g>
<defs>
<linearGradient id="paint0_linear_1248_13917" x1="248.288" y1="131.154" x2="7.12789" y2="131.154" gradientUnits="userSpaceOnUse">
<stop stop-color="#33A648"/>
<stop offset="0.90839" stop-color="#32599E"/>
</linearGradient>
<clipPath id="clip0_1248_13917">
<rect width="257" height="250" fill="white"/>
</clipPath>
</defs>
</svg>
