<svg width="291" height="229" viewBox="0 0 291 229" fill="none" xmlns="http://www.w3.org/2000/svg">
<path fill-rule="evenodd" clip-rule="evenodd" d="M190.506 196.336H72.3322C66.7469 209.701 53.2717 219.159 37.5484 219.159C16.8451 219.159 0 202.777 0 182.642V159.82C0 150.07 3.52955 141.11 9.38709 134.058V105.046C9.38709 99.1028 13.325 94.0818 18.7742 92.1921V86.7877H4.69354C2.10271 86.7877 0 84.7428 0 82.2232V68.5297C0 66.0101 2.10271 63.9652 4.69354 63.9652H14.0806C21.8438 63.9652 28.1613 70.109 28.1613 77.6587V91.3522H32.8548V62.4908L12.3346 54.5075C11.0251 53.9963 10.016 52.9373 9.5983 51.6227C9.18057 50.3082 9.39178 48.884 10.1756 47.7383L19.5627 34.0448C20.3418 32.9082 21.6044 32.1688 23.0031 32.0364C24.4205 31.8858 25.791 32.3879 26.7861 33.351L40.8667 47.0445C41.7491 47.8981 42.2419 49.062 42.2419 50.2716V91.3522H46.9354V27.4491H32.8548C25.0917 27.4491 18.7742 21.3052 18.7742 13.7555C18.7742 6.20584 25.0917 0.0620117 32.8548 0.0620117H229.984C237.747 0.0620117 244.064 6.20584 244.064 13.7555C244.064 21.3052 237.747 27.4491 229.984 27.4491H203.437L228.435 108.487C255.118 117.018 274.746 140.649 276.68 168.949H276.919C284.682 168.949 291 175.093 291 182.642C291 190.192 284.682 196.336 276.919 196.336H260.074C254.489 209.701 241.014 219.159 225.29 219.159C209.567 219.159 196.092 209.701 190.506 196.336ZM24.1999 43.7444L21.196 48.1218L32.8548 52.6589V52.1613L24.1999 43.7444ZM75.0967 182.642C75.0967 184.19 74.9653 185.71 74.7729 187.207H188.066C187.873 185.71 187.742 184.19 187.742 182.642C187.742 181.095 187.873 179.575 188.07 178.078H74.7729C74.9653 179.575 75.0967 181.095 75.0967 182.642ZM75.0967 59.4007V118.739H84.4838V59.4007C84.4838 56.8856 82.3764 54.8362 79.7903 54.8362C77.2041 54.8362 75.0967 56.8856 75.0967 59.4007ZM126.726 109.61H93.8709V118.739H117.339H126.726C129.312 118.739 131.419 116.69 131.419 114.175C131.419 111.66 129.312 109.61 126.726 109.61ZM145.5 159.82H122.032V168.949H158.717C156.774 163.65 151.611 159.82 145.5 159.82ZM197.129 182.642C197.129 197.746 209.759 210.03 225.29 210.03C240.821 210.03 253.451 197.746 253.451 182.642C253.451 167.539 240.821 155.255 225.29 155.255C209.759 155.255 197.129 167.539 197.129 182.642ZM276.919 187.207C279.505 187.207 281.613 185.158 281.613 182.642C281.613 180.127 279.505 178.078 276.919 178.078H262.515C262.707 179.575 262.839 181.095 262.839 182.642C262.839 184.19 262.707 185.71 262.515 187.207H276.919ZM260.074 168.949H267.297C264.932 138.905 239.507 115.038 208.224 114.198L205.225 116.699C189.347 129.936 179.875 148.787 178.608 168.949H190.506C196.092 155.584 209.567 146.126 225.29 146.126C241.014 146.126 254.489 155.584 260.074 168.949ZM32.8548 9.19104C30.2687 9.19104 28.1613 11.2405 28.1613 13.7555C28.1613 16.2706 30.2687 18.3201 32.8548 18.3201H229.984C232.57 18.3201 234.677 16.2706 234.677 13.7555C234.677 11.2405 232.57 9.19104 229.984 9.19104H32.8548ZM217.874 106.023L193.637 27.4491H56.3225V118.735H65.7096V59.3961C65.7096 51.8464 72.0271 45.7026 79.7903 45.7026C87.5534 45.7026 93.8709 51.8464 93.8709 59.3961V100.477H126.726C134.489 100.477 140.806 106.621 140.806 114.17C140.806 121.72 134.489 127.864 126.726 127.864H122.032V150.686H145.5C156.835 150.686 166.311 158.542 168.494 168.944H169.221C170.155 152.311 176.017 136.45 186.137 123.281L154.685 88.8737L144.125 99.1439L137.488 92.6896L165.649 65.3026L172.286 71.7568L161.336 82.4058L192.219 116.197C194.383 113.947 196.678 111.797 199.114 109.765L203.46 106.146C204.31 105.434 205.394 105.046 206.516 105.046C210.393 105.046 214.166 105.434 217.874 106.023ZM9.38709 73.0942V77.6587H18.7742C18.7742 75.1437 16.6668 73.0942 14.0806 73.0942H9.38709ZM46.9354 100.481H23.4677C20.8816 100.481 18.7742 102.531 18.7742 105.046V125.687C25.4906 121.305 33.5635 118.739 42.2419 118.739H46.9354V100.481ZM112.645 127.868H89.1773H42.2419C24.5848 127.868 10.1756 141.493 9.45749 158.496C16.3429 150.928 26.3683 146.126 37.5484 146.126C53.2717 146.126 66.7469 155.584 72.3322 168.949H112.645V127.868ZM9.38709 182.642C9.38709 197.746 22.0174 210.03 37.5484 210.03C53.0793 210.03 65.7096 197.746 65.7096 182.642C65.7096 167.539 53.0793 155.255 37.5484 155.255C22.0174 155.255 9.38709 167.539 9.38709 182.642ZM18.7731 182.643C18.7731 172.573 27.1933 164.385 37.5473 164.385C47.9013 164.385 56.3215 172.573 56.3215 182.643C56.3215 192.712 47.9013 200.901 37.5473 200.901C27.1933 200.901 18.7731 192.712 18.7731 182.643ZM28.1602 182.643C28.1602 187.677 32.3703 191.772 37.5473 191.772C42.7243 191.772 46.9344 187.677 46.9344 182.643C46.9344 177.608 42.7243 173.514 37.5473 173.514C32.3703 173.514 28.1602 177.608 28.1602 182.643ZM225.288 164.385C214.934 164.385 206.514 172.573 206.514 182.643C206.514 192.712 214.934 200.901 225.288 200.901C235.642 200.901 244.062 192.712 244.062 182.643C244.062 172.573 235.642 164.385 225.288 164.385ZM225.288 191.772C220.111 191.772 215.901 187.677 215.901 182.643C215.901 177.608 220.111 173.514 225.288 173.514C230.465 173.514 234.675 177.608 234.675 182.643C234.675 187.677 230.465 191.772 225.288 191.772ZM0 228.288V219.159H37.5484H225.29H291V228.288H0Z" fill="url(#paint0_linear_1638_9856)"/>
<defs>
<linearGradient id="paint0_linear_1638_9856" x1="281.135" y1="114.173" x2="8.07087" y2="114.173" gradientUnits="userSpaceOnUse">
<stop stop-color="#203569"/>
<stop offset="1" stop-color="#33A648"/>
</linearGradient>
</defs>
</svg>
