<svg width="291" height="283" viewBox="0 0 291 283" fill="none" xmlns="http://www.w3.org/2000/svg">
<g clip-path="url(#clip0_1247_13552)">
<path fill-rule="evenodd" clip-rule="evenodd" d="M9.3871 36.5161H4.69355C3.44874 36.5161 2.25492 36.0352 1.37471 35.1792C0.494497 34.3232 0 33.1622 0 31.9516V4.56452C0 3.35393 0.494497 2.19293 1.37471 1.33692C2.25492 0.480903 3.44874 0 4.69355 0H173.661C174.906 0 176.1 0.480903 176.98 1.33692C177.86 2.19293 178.355 3.35393 178.355 4.56452V31.9516C178.355 33.1622 177.86 34.3232 176.98 35.1792C176.1 36.0352 174.906 36.5161 173.661 36.5161H168.968V41.0806C168.955 55.1372 165.019 68.9267 157.579 80.9783C150.14 93.03 139.476 102.892 126.726 109.512V109.548H126.646C115.119 115.542 102.249 118.677 89.1774 118.677C76.1059 118.677 63.2363 115.542 51.7088 109.548H51.629V109.512C38.8785 102.892 28.2148 93.03 20.7754 80.9783C13.3361 68.9267 9.40001 55.1372 9.3871 41.0806V36.5161ZM61.0161 82.1613V103.793C69.8913 107.59 79.4814 109.55 89.1774 109.55C98.8735 109.55 108.464 107.59 117.339 103.793V82.1613C117.339 74.8978 114.372 67.9318 109.09 62.7957C103.809 57.6596 96.6463 54.7742 89.1774 54.7742C81.7086 54.7742 74.5456 57.6596 69.2644 62.7957C63.9831 67.9318 61.0161 74.8978 61.0161 82.1613ZM150.805 74.1002C156.55 63.9907 159.569 52.6312 159.581 41.0806V36.5161H18.7742V41.0806C18.786 52.6312 21.8051 63.9907 27.5501 74.1002C33.2951 84.2095 41.5789 92.7396 51.629 98.8948V82.1613C51.629 72.4766 55.585 63.1886 62.6267 56.3405C69.6684 49.4924 79.219 45.6452 89.1774 45.6452C99.1359 45.6452 108.686 49.4924 115.728 56.3405C122.77 63.1886 126.726 72.4766 126.726 82.1613V98.8948C136.776 92.7396 145.06 84.2095 150.805 74.1002ZM168.968 9.12903H9.3871V27.3871H168.968V9.12903ZM78.7463 66.9808C81.8337 64.9746 85.4635 63.9038 89.1766 63.9038C94.1559 63.9038 98.9312 65.8274 102.452 69.2515C105.973 72.6755 107.951 77.3195 107.951 82.1619C107.951 85.773 106.85 89.303 104.787 92.3055C102.724 95.308 99.7917 97.6482 96.3612 99.0301C92.9307 100.412 89.1558 100.774 85.514 100.069C81.8721 99.3646 78.5269 97.6257 75.9013 95.0723C73.2757 92.5188 71.4876 89.2656 70.7632 85.7238C70.0388 82.1821 70.4106 78.511 71.8316 75.1748C73.2525 71.8386 75.6589 68.9871 78.7463 66.9808ZM83.9614 89.7524C85.5051 90.7555 87.3201 91.2909 89.1766 91.2909C91.6663 91.2909 94.0539 90.3291 95.8143 88.6171C97.5747 86.905 98.5637 84.583 98.5637 82.1619C98.5637 80.3563 98.0132 78.5913 96.9817 77.09C95.9503 75.5888 94.4842 74.4187 92.7689 73.7277C91.0537 73.0368 89.1662 72.856 87.3453 73.2083C85.5244 73.5605 83.8518 74.43 82.539 75.7067C81.2262 76.9834 80.3321 78.61 79.9699 80.3809C79.6077 82.1517 79.7936 83.9873 80.5041 85.6554C81.2146 87.3235 82.4177 88.7493 83.9614 89.7524ZM267.532 73.0334H192.435C186.214 73.0406 180.249 75.4475 175.85 79.726C171.45 84.0045 168.975 89.8053 168.968 95.856V209.969H37.5484V132.372C37.5484 128.74 36.0649 125.257 33.4243 122.689C30.7836 120.121 27.2022 118.679 23.4677 118.679C19.7333 118.679 16.1519 120.121 13.5112 122.689C10.8706 125.257 9.3871 128.74 9.3871 132.372V209.969H4.69355C3.44874 209.969 2.25492 210.45 1.37471 211.306C0.494497 212.162 0 213.323 0 214.533V278.437C0 279.647 0.494497 280.808 1.37471 281.664C2.25492 282.52 3.44874 283.001 4.69355 283.001H239.371C240.616 283.001 241.81 282.52 242.69 281.664C243.57 280.808 244.065 279.647 244.065 278.437V264.743H267.532C273.754 264.736 279.719 262.329 284.118 258.05C288.518 253.772 290.993 247.971 291 241.92V95.856C290.993 89.8053 288.518 84.0045 284.118 79.726C279.719 75.4475 273.754 73.0406 267.532 73.0334ZM256.202 82.1624L246.815 91.2914H213.153L203.766 82.1624H256.202ZM190.671 82.3359L207.891 99.0831C208.771 99.9391 209.965 100.42 211.21 100.42H248.758C250.003 100.42 251.196 99.9391 252.076 99.0831L269.297 82.3359C272.69 82.7467 275.812 84.3464 278.079 86.8351C280.346 89.3239 281.603 92.5311 281.613 95.856V109.55H178.355V95.856C178.365 92.5311 179.622 89.3239 181.889 86.8351C184.156 84.3464 187.278 82.7467 190.671 82.3359ZM281.613 118.679V219.098H178.355V118.679H281.613ZM18.7742 132.372C18.7742 131.162 19.2687 130.001 20.1489 129.144C21.0291 128.288 22.2229 127.808 23.4677 127.808C24.7125 127.808 25.9064 128.288 26.7866 129.144C27.6668 130.001 28.1613 131.162 28.1613 132.372V209.969H18.7742V132.372ZM234.677 273.872H9.3871V219.098H168.968V241.92C168.975 247.971 171.45 253.772 175.85 258.05C180.249 262.329 186.214 264.736 192.435 264.743H234.677V273.872ZM267.532 255.614H192.435C188.701 255.614 185.12 254.171 182.479 251.603C179.838 249.035 178.355 245.552 178.355 241.92V228.227H281.613V241.92C281.613 245.552 280.129 249.035 277.489 251.603C274.848 254.171 271.267 255.614 267.532 255.614ZM220.597 237.356H239.371V246.485H220.597V237.356ZM197.128 178.017C197.11 183.745 198.677 189.373 201.664 194.311C204.651 199.249 208.948 203.315 214.105 206.084C219.262 208.852 225.09 210.221 230.978 210.048C236.866 209.874 242.598 208.164 247.573 205.097C252.548 202.029 256.584 197.718 259.258 192.613C261.932 187.508 263.145 181.798 262.771 176.081C262.397 170.364 260.449 164.849 257.131 160.116C253.813 155.382 249.248 151.602 243.913 149.173C243.565 145.815 241.948 142.702 239.374 140.438C236.8 138.175 233.453 136.921 229.982 136.921C226.512 136.921 223.165 138.175 220.591 140.438C218.017 142.702 216.4 145.815 216.052 149.173C210.411 151.742 205.636 155.817 202.285 160.924C198.935 166.031 197.146 171.959 197.128 178.017ZM225.289 150.629C225.289 149.419 225.783 148.258 226.664 147.402C227.544 146.546 228.738 146.065 229.982 146.065C231.227 146.065 232.421 146.546 233.301 147.402C234.182 148.258 234.676 149.419 234.676 150.629V168.887C234.676 170.098 234.182 171.259 233.301 172.115C232.421 172.971 231.227 173.452 229.982 173.452C228.738 173.452 227.544 172.971 226.664 172.115C225.783 171.259 225.289 170.098 225.289 168.887V150.629ZM215.902 159.758V168.887C215.902 172.519 217.385 176.002 220.026 178.57C222.667 181.138 226.248 182.581 229.982 182.581C233.717 182.581 237.298 181.138 239.939 178.57C242.58 176.002 244.063 172.519 244.063 168.887V159.758C248.003 162.632 250.914 166.639 252.383 171.212C253.851 175.784 253.803 180.689 252.246 185.234C250.688 189.778 247.7 193.73 243.704 196.531C239.709 199.332 234.908 200.839 229.982 200.839C225.057 200.839 220.256 199.332 216.261 196.531C212.265 193.73 209.277 189.778 207.719 185.234C206.161 180.689 206.114 175.784 207.582 171.212C209.051 166.639 211.961 162.632 215.902 159.758ZM23.4699 228.227H136.115C137.36 228.227 138.554 228.707 139.434 229.563C140.314 230.419 140.809 231.58 140.809 232.791V260.178C140.809 261.389 140.314 262.55 139.434 263.406C138.554 264.262 137.36 264.743 136.115 264.743H23.4699C22.2251 264.743 21.0313 264.262 20.1511 263.406C19.2708 262.55 18.7763 261.389 18.7763 260.178V232.791C18.7763 231.58 19.2708 230.419 20.1511 229.563C21.0313 228.707 22.2251 228.227 23.4699 228.227ZM28.1634 255.614H131.422V237.356H28.1634V255.614ZM159.579 255.612H150.191V264.741H159.579V255.612ZM150.191 228.227H159.579V237.356H150.191V228.227ZM153.51 144.728L146.874 138.274L144.123 140.948C138.993 145.937 136.112 152.703 136.112 159.759C136.112 166.814 138.993 173.58 144.123 178.569L146.874 181.244L153.51 174.79L150.76 172.115C147.391 168.837 145.499 164.393 145.499 159.759C145.499 155.125 147.391 150.68 150.76 147.403L153.51 144.728ZM139.436 131.027L138.634 131.813C134.86 135.481 131.866 139.837 129.823 144.632C127.78 149.426 126.729 154.565 126.729 159.754C126.729 164.944 127.78 170.083 129.823 174.877C131.866 179.671 134.86 184.027 138.634 187.696L139.441 188.486L132.795 194.931L131.992 194.146C127.348 189.63 123.663 184.268 121.149 178.367C118.636 172.466 117.342 166.142 117.342 159.754C117.342 153.367 118.636 147.042 121.149 141.141C123.663 135.24 127.348 129.879 131.992 125.363L132.79 124.582L139.436 131.027Z" fill="url(#paint0_linear_1247_13552)"/>
</g>
<defs>
<linearGradient id="paint0_linear_1247_13552" x1="281.136" y1="141.498" x2="8.07087" y2="141.498" gradientUnits="userSpaceOnUse">
<stop stop-color="#203569"/>
<stop offset="1" stop-color="#33A648"/>
</linearGradient>
<clipPath id="clip0_1247_13552">
<rect width="291" height="283" fill="white"/>
</clipPath>
</defs>
</svg>
