<svg width="287" height="279" viewBox="0 0 287 279" fill="none" xmlns="http://www.w3.org/2000/svg">
<path fill-rule="evenodd" clip-rule="evenodd" d="M285.644 214.682C284.776 215.526 283.599 216 282.371 216H273.113V252H282.371C283.599 252 284.776 252.474 285.644 253.318C286.512 254.162 287 255.307 287 256.5V274.5C287 275.693 286.512 276.838 285.644 277.682C284.776 278.526 283.599 279 282.371 279H217.565C216.337 279 215.159 278.526 214.291 277.682C213.423 276.838 212.935 275.693 212.935 274.5V256.5C212.935 255.307 213.423 254.162 214.291 253.318C215.159 252.474 216.337 252 217.565 252H226.823V216H217.565C216.337 216 215.159 215.526 214.291 214.682C213.423 213.838 212.935 212.693 212.935 211.5V193.5C212.935 192.307 213.423 191.162 214.291 190.318C215.159 189.474 216.337 189 217.565 189H226.823V184.5C226.823 183.307 226.335 182.162 225.467 181.318C224.599 180.474 223.421 180 222.194 180H194.419V184.5C194.419 185.693 193.932 186.838 193.064 187.682C192.195 188.526 191.018 189 189.79 189H175.903V202.5C175.903 203.693 175.416 204.838 174.547 205.682C173.679 206.526 172.502 207 171.274 207H157.387V220.5C157.383 221.403 157.099 222.283 156.573 223.027C156.047 223.771 155.304 224.344 154.438 224.671L160.72 243H175.903C177.131 243 178.308 243.474 179.176 244.318C180.045 245.162 180.532 246.307 180.532 247.5V274.5C180.532 275.693 180.045 276.838 179.176 277.682C178.308 278.526 177.131 279 175.903 279H4.62903C3.40134 279 2.22392 278.526 1.35581 277.682C0.4877 276.838 0 275.693 0 274.5V247.5C0 246.307 0.4877 245.162 1.35581 244.318C2.22392 243.474 3.40134 243 4.62903 243H19.8123L25.9828 225H23.1452C17.0089 224.993 11.1261 222.62 6.78718 218.402C2.44821 214.184 0.00735024 208.465 0 202.5V112.5C0.00735024 106.535 2.44821 100.816 6.78718 96.598C11.1261 92.38 17.0089 90.0071 23.1452 90H50.9194V76.5C50.9194 75.3065 51.4071 74.1619 52.2752 73.318C53.1433 72.4741 54.3207 72 55.5484 72H64.8064V27H55.5484C54.3207 27 53.1433 26.5259 52.2752 25.682C51.4071 24.8381 50.9194 23.6935 50.9194 22.5V4.5C50.9194 3.30653 51.4071 2.16193 52.2752 1.31802C53.1433 0.474106 54.3207 0 55.5484 0H120.355C121.583 0 122.76 0.474106 123.628 1.31802C124.496 2.16193 124.984 3.30653 124.984 4.5V22.5C124.984 23.6935 124.496 24.8381 123.628 25.682C122.76 26.5259 121.583 27 120.355 27H111.097V72H120.355C121.583 72 122.76 72.4741 123.628 73.318C124.496 74.1619 124.984 75.3065 124.984 76.5V90H152.758C153.986 90 155.163 90.4741 156.031 91.318C156.899 92.1619 157.387 93.3065 157.387 94.5V108H171.274C172.502 108 173.679 108.474 174.547 109.318C175.416 110.162 175.903 111.307 175.903 112.5V126H189.79C191.018 126 192.195 126.474 193.064 127.318C193.932 128.162 194.419 129.307 194.419 130.5V135H240.71C249.3 135.011 257.536 138.333 263.61 144.238C269.684 150.143 273.102 158.149 273.113 166.5V189H282.371C283.599 189 284.776 189.474 285.644 190.318C286.512 191.162 287 192.307 287 193.5V211.5C287 212.693 286.512 213.838 285.644 214.682ZM148.129 216V112.5V99H37.0323V216H148.129ZM115.726 9H60.1774V18H115.726V9ZM101.839 27H74.0645V72H101.839V27ZM115.726 81H60.1774V90H115.726V81ZM9.25806 112.5V202.5C9.25806 206.08 10.7212 209.514 13.3255 212.046C15.9298 214.578 19.4621 216 23.1452 216H27.7742V99H23.1452C19.4621 99 15.9298 100.422 13.3255 102.954C10.7212 105.486 9.25806 108.92 9.25806 112.5ZM9.25806 270H171.274V252H9.25806V270ZM35.7408 225L29.5703 243H150.962L144.791 225H35.7408ZM157.387 198H166.645V117H157.387V198ZM175.903 180H185.161V135H175.903V180ZM194.419 171H222.194C225.877 171 229.409 172.422 232.013 174.954C234.618 177.486 236.081 180.92 236.081 184.5V189H263.855V166.5C263.847 160.535 261.407 154.816 257.068 150.598C252.729 146.38 246.846 144.007 240.71 144H194.419V171ZM277.742 198H222.194V207H277.742V198ZM222.194 270H277.742V261H222.194V270ZM236.081 252H263.855V216H236.081V252ZM50.9197 180H87.9519C89.1796 180 90.357 180.474 91.2251 181.318C92.0932 182.162 92.5809 183.307 92.5809 184.5V202.5C92.5809 203.694 92.0932 204.838 91.2251 205.682C90.357 206.526 89.1796 207 87.9519 207H50.9197C49.692 207 48.5145 206.526 47.6464 205.682C46.7783 204.838 46.2906 203.694 46.2906 202.5V184.5C46.2906 183.307 46.7783 182.162 47.6464 181.318C48.5145 180.474 49.692 180 50.9197 180ZM64.8067 189H55.5487V198H64.8067V189ZM74.0648 198H83.3229V189H74.0648V198ZM138.872 180H101.839V189H138.872V180ZM101.839 198H111.097V207H101.839V198ZM138.872 198H120.356V207H138.872V198ZM62.0937 130.499H127.696L135.598 122.818L142.144 129.181L132.885 138.181C132.018 139.025 130.84 139.499 129.613 139.499H60.1773C58.9497 139.499 57.7725 139.025 56.9045 138.181L47.6465 129.181L54.1919 122.818L62.0937 130.499ZM127.696 148.5H62.0937L54.1919 140.818L47.6465 147.181L56.9045 156.181C57.7725 157.025 58.9497 157.499 60.1773 157.5H129.613C130.84 157.499 132.018 157.025 132.885 156.181L142.144 147.181L135.598 140.818L127.696 148.5ZM47.6465 111.182L54.1919 104.819L62.0937 112.5H127.696L135.598 104.819L142.144 111.182L132.885 120.182C132.018 121.026 130.84 121.5 129.613 121.5H60.1773C58.9497 121.5 57.7725 121.026 56.9045 120.182L47.6465 111.182Z" fill="url(#paint0_linear_2938_20766)"/>
<defs>
<linearGradient id="paint0_linear_2938_20766" x1="277.271" y1="139.498" x2="7.95993" y2="139.498" gradientUnits="userSpaceOnUse">
<stop stop-color="#203569"/>
<stop offset="1" stop-color="#33A648"/>
</linearGradient>
</defs>
</svg>
