<svg width="288" height="279" viewBox="0 0 288 279" fill="none" xmlns="http://www.w3.org/2000/svg">
<path d="M287 30.342V20.9258H0V30.342H31.0677L35.6239 33.7249L17.9016 46.803L0 33.5505V44.5013L10.4755 52.2435L0 59.9509V70.8668L17.8657 57.684L35.5521 70.7622L30.8166 74.2497H0V83.6659H287V74.2497H256.076L251.34 70.7622L269.062 57.684L286.964 70.9017V59.9509L276.489 52.2087L286.964 44.5013V33.6203L269.098 46.803L251.412 33.7249L256.004 30.342H286.964H287ZM205.779 30.342H232.039L236.596 33.7249L218.873 46.803L201.187 33.7249L205.779 30.342ZM155.518 30.342H181.779L186.335 33.7249L168.612 46.803L150.926 33.7249L155.518 30.342ZM105.257 30.342H131.518L136.074 33.7249L118.352 46.803L100.665 33.7249L105.257 30.342ZM54.9964 30.342H81.2569L85.813 33.7249L68.0907 46.803L50.4044 33.7249L54.9964 30.342ZM25.2919 52.2435L43.0141 39.2003L60.7005 52.2435L42.9782 65.3217L25.2919 52.2435ZM81.0416 74.2845H55.104L50.3685 70.797L68.0907 57.7189L85.7771 70.797L81.0416 74.2845ZM75.5169 52.2435L93.2391 39.1654L110.925 52.2435L93.2032 65.3217L75.5169 52.2435ZM131.267 74.2845H105.329L100.593 70.797L118.316 57.7189L136.002 70.797L131.267 74.2845ZM125.778 52.2435L143.5 39.2003L161.186 52.2435L143.464 65.3217L125.778 52.2435ZM181.527 74.2845H155.59L150.854 70.797L168.577 57.7189L186.263 70.797L181.527 74.2845ZM176.003 52.2435L193.725 39.1654L211.411 52.2435L193.689 65.3217L176.003 52.2435ZM231.752 74.2845H205.815L201.079 70.797L218.802 57.7189L236.488 70.797L231.752 74.2845ZM261.636 52.2435L243.914 65.3217L226.228 52.2435L243.95 39.1654L261.636 52.2435ZM50.2967 182.223H153.473V202.206C153.473 203.985 154.98 205.728 157.132 205.728H182.64C184.756 205.728 186.586 203.95 186.586 202.206V160.426C186.586 158.647 185.079 156.903 182.927 156.903H50.2967C48.4671 156.903 46.6375 158.368 46.6375 160.426V178.665C46.6375 180.444 48.1442 182.188 50.2967 182.188V182.223ZM161.079 163.704H178.98V198.405H161.079V163.704ZM133.455 163.704H152.289V174.585H133.455V163.704ZM107.051 163.704H125.885V174.585H107.051V163.704ZM80.647 163.704H99.4814V174.585H80.647V163.704ZM53.956 163.704H72.7904V174.585H53.956V163.704ZM0 104.626H142.029L131.948 114.426C131.051 115.298 130.728 116.204 130.728 117.076C130.728 117.948 131.338 119.134 131.948 119.727L151.07 138.35H44.8796C38.2069 138.35 32.7539 143.686 32.7539 150.173V155.787H28.1978V150.173C28.1978 143.651 22.7447 138.35 16.072 138.35H7.24675C5.41712 138.35 3.5875 140.129 3.5875 141.907C3.5875 143.686 5.09425 145.464 7.24675 145.464H16.0361C18.4756 145.464 20.5922 147.522 20.5922 149.894V228.537H7.24675C5.41712 228.537 3.5875 230.315 3.5875 232.094C3.5875 233.873 5.09425 235.651 7.24675 235.651H24.5385C26.3681 235.651 28.1978 234.186 28.1978 232.094V230.036H32.7539V232.408C32.7539 234.186 34.2606 235.965 36.4131 235.965H63.1041C64.1086 237.744 65.5436 239.383 67.1939 240.638H0V251.101H18.1528C18.1886 252.845 19.9824 254.588 21.812 254.588C23.6416 254.588 25.4354 253.124 25.4712 251.101H42.763C42.7989 252.845 44.5926 254.588 46.4222 254.588C48.2519 254.588 50.0456 253.124 50.0815 251.101H67.3733C67.4091 252.845 69.2029 254.588 70.9966 254.588C72.7904 254.588 74.62 253.124 74.6559 251.101H91.9476C91.9835 252.845 93.7772 254.588 95.6069 254.588C97.4365 254.588 99.2302 253.124 99.2302 251.101H116.522C116.558 252.845 118.352 254.588 120.181 254.588C122.011 254.588 123.805 253.124 123.84 251.101H141.132C141.168 252.845 142.962 254.588 144.756 254.588C146.549 254.588 148.379 253.124 148.415 251.101H165.707C165.742 252.845 167.536 254.588 169.366 254.588C171.195 254.588 172.989 253.124 172.989 251.101H190.281C190.317 252.845 192.111 254.588 193.94 254.588C195.77 254.588 197.564 253.124 197.6 251.101H214.891C214.927 252.845 216.721 254.588 218.515 254.588C220.308 254.588 222.138 253.124 222.174 251.101H239.466C239.501 252.845 241.295 254.588 243.125 254.588C244.954 254.588 246.748 253.124 246.784 251.101H264.076C264.112 252.845 265.905 254.588 267.735 254.588C269.565 254.588 271.358 253.124 271.394 251.101H287.108V240.638H231.286C233.08 239.418 234.479 237.779 235.555 235.651H266.515C268.345 235.651 270.175 234.186 270.175 232.094C270.175 210.82 262.892 191.29 250.766 176.503C250.479 175.91 250.156 175.631 249.869 175.317C231.968 153.137 204.344 138.664 173.384 138.664H161.868L140.02 117.39L153.115 104.626H287.143V94.1633H0V104.626ZM32.431 222.643H27.8749V162.902H32.431V222.643ZM75.5169 235.965C74.907 235.965 74.2971 235.965 73.6872 235.686H77.0236C76.7366 235.965 76.1267 235.965 75.5169 235.965ZM83.8757 240.638C84.4497 240.185 85.0238 239.697 85.526 239.208C86.0282 239.697 86.5664 240.185 87.1762 240.638H83.9116H83.8757ZM95.5351 236.244C95.2481 236.244 94.997 236.174 94.7817 236.105C94.5665 236.035 94.3154 235.965 94.0284 235.965H97.0777C96.7907 236.244 96.1809 236.244 95.571 236.244H95.5351ZM56.6825 228.572C56.6825 227.107 56.9695 225.607 57.5794 224.142H113.437C113.544 224.631 113.688 225.119 113.795 225.607C114.082 226.584 114.334 227.595 114.334 228.572H56.6825ZM104.109 240.638C105.724 239.453 106.979 237.918 107.984 235.965H190.245C191.25 237.744 192.685 239.383 194.335 240.638H104.145H104.109ZM202.371 236.244C202.084 236.244 201.833 236.174 201.617 236.105C201.402 236.035 201.151 235.965 200.864 235.965H203.913C203.626 236.244 203.017 236.244 202.407 236.244H202.371ZM211.053 240.638C211.627 240.185 212.201 239.697 212.703 239.208C213.205 239.697 213.743 240.185 214.353 240.638H211.088H211.053ZM222.389 236.244C222.102 236.244 221.851 236.174 221.636 236.105C221.42 236.035 221.169 235.965 220.882 235.965H223.932C223.645 236.244 223.035 236.244 222.425 236.244H222.389ZM183.859 228.572C183.859 227.107 184.146 225.607 184.756 224.142H240.614C240.721 224.631 240.865 225.119 240.972 225.607C241.259 226.584 241.51 227.595 241.51 228.572H183.859ZM239.107 173.574H212.99V162.623H226.658C230.891 165.866 235.161 169.703 239.107 173.574ZM173.24 145.778C188.128 145.778 202.084 149.336 214.532 155.543H209.079C207.25 155.543 205.42 157.008 205.42 159.101V177.445C205.42 179.223 206.927 181.002 209.079 181.002H245.206C255.215 194.603 261.6 210.855 262.21 228.92H249.152C248.865 225.677 247.932 222.12 246.425 219.155C245.816 217.97 244.596 217.098 243.089 217.098H182.101C180.595 217.098 179.375 217.97 178.765 219.155C177.258 222.12 176.326 225.677 176.039 228.92H122.011C121.724 225.677 120.791 222.12 119.284 219.155C118.674 217.97 117.455 217.098 115.948 217.098H55.1757C53.669 217.098 52.4492 217.97 51.8394 219.155C50.3326 222.12 49.3999 225.677 49.1129 228.92H40.0006V150.277C40.0006 147.906 42.1172 145.848 44.5567 145.848H173.24V145.778ZM0 268.538H287V258.076H0V268.538Z" fill="url(#paint0_linear_2938_20969)"/>
<defs>
<linearGradient id="paint0_linear_2938_20969" x1="277.41" y1="144.73" x2="7.96391" y2="144.73" gradientUnits="userSpaceOnUse">
<stop stop-color="#33A648"/>
<stop offset="0.90839" stop-color="#32599E"/>
</linearGradient>
</defs>
</svg>
