<svg width="18" height="15" viewBox="0 0 18 15" fill="none" xmlns="http://www.w3.org/2000/svg">
<path d="M5.16595 1.72523L6.13318 0.757994C6.61854 0.27264 7.27675 0 7.96311 0H10.6987C11.3851 0 12.0433 0.27264 12.5287 0.757994L13.4959 1.72523H14.5065C16.4121 1.72523 17.9568 3.26994 17.9568 5.17554V11.2135C17.9568 13.1191 16.4121 14.664 14.5065 14.664H4.15539C2.24979 14.664 0.705078 13.1191 0.705078 11.2135V5.17554C0.705078 3.26994 2.24979 1.72523 4.15539 1.72523H5.16595ZM4.15539 3.45031C3.20261 3.45031 2.43016 4.22276 2.43016 5.17554V11.2135C2.43016 12.1663 3.20261 12.9388 4.15539 12.9388H14.5065C15.4592 12.9388 16.2317 12.1663 16.2317 11.2135V5.17554C16.2317 4.22276 15.4592 3.45031 14.5065 3.45031H13.1386C12.9098 3.45031 12.6904 3.35948 12.5287 3.19774L11.3087 1.9778C11.147 1.81606 10.9276 1.72523 10.6987 1.72523H7.96311C7.73422 1.72523 7.51487 1.81606 7.35313 1.9778L6.13318 3.19774C5.97145 3.35948 5.75208 3.45031 5.52321 3.45031H4.15539ZM9.33093 12.0765C6.94892 12.0765 5.01785 10.1455 5.01785 7.76338C5.01785 5.3813 6.94885 3.45031 9.33093 3.45031C11.713 3.45031 13.644 5.3813 13.644 7.76338C13.644 10.1455 11.713 12.0765 9.33093 12.0765ZM9.33093 10.3512C10.7601 10.3512 11.9187 9.19264 11.9187 7.76346C11.9187 6.33427 10.7601 5.17569 9.33093 5.17569C7.90174 5.17569 6.74316 6.33427 6.74316 7.76346C6.74316 9.19264 7.90174 10.3512 9.33093 10.3512Z" fill="#32599E"/>
</svg>
