<svg width="143" height="43" viewBox="0 0 143 43" fill="none" xmlns="http://www.w3.org/2000/svg">
<path d="M13.5134 0C16.5388 0 17.3456 2.02195 18.1523 4.04391C18.5557 4.85269 26.0183 25.4766 26.22 26.0832C26.22 26.2854 26.22 26.4876 26.0183 26.6898C25.8166 26.6898 21.7828 28.3074 21.5811 28.3074C21.3794 28.3074 21.1777 28.3074 20.976 28.1052C20.976 27.903 19.3625 23.4547 19.1608 22.8481H8.0677C7.86601 23.2525 6.25247 27.903 6.25247 28.1052C6.25247 28.3074 5.84908 28.5096 5.64739 28.3074C5.4457 28.3074 1.61354 26.6898 1.21016 26.6898C1.00846 26.6898 0.80677 26.2854 1.00846 26.0832C1.21016 25.4766 8.67278 5.25708 9.07616 4.04391C9.68124 2.02195 10.6897 0 13.5134 0ZM0.403385 36.7996C0.201693 36.7996 0 37.0018 0 37.204V42.0566C0 42.2588 0.201693 42.461 0.403385 42.461H26.6234C26.8251 42.461 27.0268 42.2588 27.0268 42.0566V37.204C27.0268 37.0018 26.8251 36.7996 26.6234 36.7996H0.403385ZM13.5134 6.67245L9.88293 17.9954H17.3456L13.5134 6.67245ZM111.536 23.2525C111.536 24.4656 110.729 25.2744 109.519 25.2744C108.914 25.2744 108.511 25.2744 107.905 25.0722V21.2305C108.107 21.2305 108.712 21.0283 109.519 21.0283C110.729 21.2305 111.536 21.8371 111.536 23.2525ZM114.158 23.0503C114.158 20.6239 112.746 19.0064 109.922 19.0064C109.116 19.0064 108.712 19.0064 107.905 19.2086V15.7712C108.309 15.7712 109.116 15.569 110.124 15.569C110.931 15.569 112.141 15.569 112.948 15.7712V13.7493C111.939 13.5471 110.326 13.3449 109.116 13.3449C107.905 13.3449 106.09 13.5471 105.082 13.9515V26.4876C106.494 27.0942 107.905 27.2964 109.116 27.2964C112.544 27.4986 114.158 25.6788 114.158 23.0503ZM83.9041 22.4437C83.9041 24.2635 83.299 25.2744 82.0889 25.2744C81.6855 25.2744 81.2821 25.2744 80.8787 25.0722V19.8152C81.4838 19.613 81.8872 19.613 82.2905 19.613C83.299 19.613 83.9041 20.4217 83.9041 22.4437ZM75.2313 22.4437C75.2313 20.6239 75.8364 19.613 77.0465 19.613C77.4499 19.613 77.8533 19.613 78.4584 19.8152V25.0722C77.8533 25.2744 77.6516 25.2744 77.2482 25.2744C75.6347 25.2744 75.2313 24.2635 75.2313 22.4437ZM80.677 30.3293V26.892C81.0804 27.0942 81.6855 27.2964 82.6939 27.2964C84.9125 27.2964 86.3244 25.4766 86.3244 22.2415C86.3244 18.8042 84.7109 17.1866 82.2905 17.1866C81.6855 17.1866 81.2821 17.1866 80.677 17.591V13.5471H78.2567V17.591C77.6516 17.3888 77.2482 17.1866 76.6432 17.1866C74.0211 17.1866 72.6093 18.8042 72.6093 22.2415C72.6093 25.4766 74.0211 27.0942 76.2398 27.0942C77.2482 27.0942 77.8533 26.892 78.2567 26.6898V30.3293H80.677ZM61.9196 27.2964V17.9954C60.5078 17.591 59.4993 17.3888 58.0874 17.3888C56.6756 17.3888 55.6671 17.591 54.2553 17.9954V22.6459C54.2553 23.8591 54.2553 24.2635 54.0536 24.6678C53.8519 25.0722 53.6502 25.4766 53.2468 25.881L53.8519 27.2964C55.8688 26.6898 56.6756 25.881 56.6756 23.0503V19.613C57.2807 19.613 57.4824 19.4108 58.0874 19.4108C58.6925 19.4108 58.6925 19.4108 59.2976 19.613V27.0942H61.9196V27.2964ZM92.5769 25.2744C91.9718 25.4766 91.5684 25.4766 91.165 25.4766C90.3582 25.4766 89.7532 25.0722 89.7532 24.2635C89.7532 23.2525 90.3582 23.0503 91.5684 23.0503C91.7701 23.0503 92.1735 23.0503 92.3752 23.0503V23.6569C92.5769 24.4656 92.5769 24.87 92.5769 25.2744ZM95.8039 26.2854C95.1989 25.2744 94.9972 24.6678 94.9972 23.4547V20.8261C94.9972 19.4108 94.7955 19.0064 94.3921 18.3998C93.787 17.591 92.9802 17.3888 91.5684 17.3888C90.5599 17.3888 89.3498 17.591 88.3413 17.7932L88.7447 19.613C89.3498 19.613 90.1566 19.4108 90.7616 19.4108C92.3752 19.4108 92.5769 19.613 92.5769 20.8261V21.2305C92.1735 21.2305 91.7701 21.0283 91.3667 21.0283C88.9464 21.0283 87.5346 22.2415 87.5346 24.2635C87.5346 26.0832 88.9464 27.2964 90.7616 27.2964C91.3667 27.2964 92.1735 27.0942 92.5769 26.892C92.9802 26.6898 92.9802 26.6898 93.3836 26.4876C93.5853 26.892 94.1904 27.2964 94.3921 27.2964L95.8039 26.2854ZM120.41 25.2744C119.805 25.4766 119.402 25.4766 118.999 25.4766C118.192 25.4766 117.587 25.0722 117.587 24.2635C117.587 23.2525 118.192 23.0503 119.402 23.0503C119.604 23.0503 120.007 23.0503 120.209 23.0503V23.6569C120.209 24.4656 120.209 24.87 120.41 25.2744ZM123.436 26.2854C122.831 25.2744 122.629 24.6678 122.629 23.4547V20.8261C122.629 19.4108 122.427 19.0064 122.024 18.3998C121.419 17.591 120.612 17.3888 119.2 17.3888C118.192 17.3888 116.982 17.591 115.973 17.7932L116.377 19.613C116.982 19.613 117.788 19.4108 118.394 19.4108C120.007 19.4108 120.209 19.613 120.209 20.8261V21.2305C119.805 21.2305 119.402 21.0283 118.999 21.0283C116.578 21.0283 115.166 22.2415 115.166 24.2635C115.166 26.0832 116.578 27.2964 118.394 27.2964C118.999 27.2964 119.604 27.0942 120.209 26.892C120.612 26.6898 120.612 26.6898 121.016 26.4876C121.217 26.892 121.822 27.2964 122.024 27.2964L123.436 26.2854ZM68.9788 23.8591C68.9788 24.87 68.5755 25.4766 67.3653 25.4766C66.9619 25.4766 66.7602 25.4766 66.3568 25.2744V22.4437C66.9619 22.2415 67.1636 22.2415 67.3653 22.2415C68.5755 22.4437 68.9788 23.0503 68.9788 23.8591ZM63.7348 17.591V26.6898C64.945 27.0942 66.1551 27.4986 67.3653 27.4986C69.9873 27.4986 71.3992 26.0832 71.3992 23.8591C71.3992 21.8371 70.189 20.6239 67.7687 20.6239C67.1636 20.6239 66.7602 20.6239 66.1551 20.8261V17.591H63.7348ZM132.714 27.2964V17.591H130.293V21.2305H127.47V17.591H125.049V27.0942H127.47V23.2525H130.293V27.0942H132.714V27.2964ZM143 27.2964C143 27.2964 141.588 24.4656 141.386 23.6569C140.983 22.8481 140.58 22.4437 139.975 22.2415C140.58 22.2415 140.983 21.8371 141.386 20.8261C141.79 19.8152 141.992 19.613 142.193 19.4108C142.395 19.2086 142.798 19.2086 142.798 19.2086L143 17.3888C142.597 17.3888 142.193 17.3888 141.79 17.3888C141.185 17.3888 140.781 17.591 140.378 17.9954C140.176 18.1976 139.975 18.602 139.773 19.0064C139.571 19.4108 139.37 19.8152 139.168 20.4217C138.966 20.8261 138.764 21.2305 138.159 21.2305H137.756V17.591H135.336V27.0942H137.756V23.2525H138.159C138.966 23.2525 138.966 23.4547 139.37 24.2635C139.773 25.0722 140.58 27.2964 140.58 27.2964H143ZM49.6164 27.2964H52.4401L48.0028 13.9515C47.5994 13.7493 46.9944 13.7493 46.3893 13.7493C45.7842 13.7493 45.5825 13.7493 44.9774 13.9515L40.3385 27.2964H43.1622C43.1622 27.2964 43.5656 26.0832 43.969 24.6678H48.8096C49.213 26.0832 49.6164 27.2964 49.6164 27.2964ZM44.7757 22.4437C44.7757 22.4437 45.5825 19.8152 45.7842 19.4108C45.9859 18.1976 46.3893 16.3778 46.3893 16.3778C46.3893 16.3778 46.7927 18.1976 47.196 19.2086C47.3977 19.613 48.0028 22.2415 48.0028 22.2415H44.7757V22.4437ZM100.039 20.8261C99.2327 20.8261 98.4259 21.6349 98.4259 22.4437C98.4259 23.2525 99.2327 24.0613 100.039 24.0613C100.846 24.0613 101.653 23.2525 101.653 22.4437C101.653 21.6349 101.048 20.8261 100.039 20.8261Z" fill="#E52612"/>
</svg>
