<svg width="63" height="63" viewBox="0 0 63 63" fill="none" xmlns="http://www.w3.org/2000/svg">
<g filter="url(#filter0_d_2599_1537)">
<rect x="6" y="6" width="50" height="50" rx="11.7647" fill="white"/>
</g>
<path d="M23.7312 34.1573C23.3818 33.7888 23.3818 33.1913 23.7312 32.8228C24.0806 32.4543 24.6472 32.4543 24.9966 32.8228L30.1059 38.2109V17.9733C30.1059 17.4519 30.5065 17.0294 31.0009 17.0294C31.4953 17.0294 31.8959 17.4519 31.8959 17.9733V38.2104L37.0052 32.8223C37.3546 32.4539 37.9212 32.4539 38.2706 32.8223C38.62 33.1908 38.62 33.7883 38.2706 34.1568L31.6339 41.1562C31.5909 41.2015 31.5442 41.2416 31.4948 41.2758C31.4537 41.3048 31.4102 41.3269 31.3659 41.3477C31.3572 41.352 31.3489 41.3583 31.3398 41.3622C31.2927 41.3824 31.2438 41.3964 31.1948 41.408C31.1875 41.4099 31.1806 41.4133 31.1733 41.4147C31.1166 41.4263 31.0585 41.4326 31.0009 41.4326C30.9973 41.4326 30.9936 41.4316 30.9899 41.4316C30.936 41.4311 30.882 41.4258 30.829 41.4152C30.8207 41.4133 30.8125 41.4094 30.8043 41.4075C30.7558 41.3959 30.7073 41.3819 30.6611 41.3617C30.6607 41.3612 30.6597 41.3612 30.6593 41.3612C30.657 41.3602 30.6556 41.3583 30.6533 41.3573C30.5843 41.3265 30.5203 41.2835 30.459 41.2339C30.4425 41.2204 30.427 41.2073 30.4114 41.1929C30.3977 41.1798 30.3821 41.1702 30.3689 41.1562L23.7312 34.1573ZM46.2826 32.477C45.7882 32.477 45.3876 32.8995 45.3876 33.4208V42.3315C45.3876 44.7734 43.5039 46.7594 41.1884 46.7594H20.8134C18.498 46.7594 16.6142 44.7729 16.6142 42.3315V33.2747C16.6142 32.7534 16.2136 32.3309 15.7192 32.3309C15.2248 32.3309 14.8242 32.7534 14.8242 33.2747V42.3315C14.8242 45.8141 17.5106 48.6471 20.813 48.6471H41.1884C44.4908 48.6471 47.1772 45.8141 47.1772 42.3315V33.4204C47.1772 32.8995 46.7765 32.477 46.2826 32.477Z" fill="#698FCD"/>
<defs>
<filter id="filter0_d_2599_1537" x="0.852941" y="0.852941" width="61.7647" height="61.7647" filterUnits="userSpaceOnUse" color-interpolation-filters="sRGB">
<feFlood flood-opacity="0" result="BackgroundImageFix"/>
<feColorMatrix in="SourceAlpha" type="matrix" values="0 0 0 0 0 0 0 0 0 0 0 0 0 0 0 0 0 0 127 0" result="hardAlpha"/>
<feOffset dx="0.735294" dy="0.735294"/>
<feGaussianBlur stdDeviation="2.94118"/>
<feColorMatrix type="matrix" values="0 0 0 0 0.345098 0 0 0 0 0.654902 0 0 0 0 0.815686 0 0 0 1 0"/>
<feBlend mode="normal" in2="BackgroundImageFix" result="effect1_dropShadow_2599_1537"/>
<feBlend mode="normal" in="SourceGraphic" in2="effect1_dropShadow_2599_1537" result="shape"/>
</filter>
</defs>
</svg>
