<svg width="26" height="29" viewBox="0 0 26 29" fill="none" xmlns="http://www.w3.org/2000/svg">
<path fill-rule="evenodd" clip-rule="evenodd" d="M0.975177 13.4916C0.451826 12.9816 0.451826 12.1935 0.975177 11.6835L10.2525 2.64264C13.8681 -0.88088 19.6725 -0.88088 23.2882 2.64264C26.9039 6.16616 26.9039 11.8226 23.2882 15.3462L11.204 27.1224C8.63506 29.6259 4.44821 29.6259 1.92669 27.1224C-0.642231 24.619 -0.642231 20.5851 1.92669 18.0816L12.1555 8.1135C13.6781 6.62971 16.1996 6.62971 17.7219 8.1135C19.2445 9.59729 19.2445 12.0545 17.7219 13.538L10.3001 20.7706C9.77677 21.2806 8.968 21.2806 8.44467 20.7706C7.92132 20.2606 7.92132 19.4724 8.44467 18.9624L15.8664 11.7295C16.3898 11.2195 16.3898 10.4313 15.8664 9.92133C15.3431 9.41132 14.5343 9.41132 14.011 9.92133L3.78215 19.8894C2.25955 21.3732 2.25955 23.8305 3.78215 25.3139C5.30475 26.7977 7.82627 26.7977 9.34852 25.3139L21.4328 13.5377C24.0017 11.0342 24.0017 6.95409 21.4328 4.49684C18.8639 1.99339 14.7245 1.99339 12.1555 4.49684L2.87821 13.5377C2.35453 14.0014 1.49851 14.0016 0.975177 13.4916Z" fill="#33A648"/>
</svg>
