<svg width="33" height="37" viewBox="0 0 33 37" fill="none" xmlns="http://www.w3.org/2000/svg">
<path fill-rule="evenodd" clip-rule="evenodd" d="M0.203371 7.44573L12.6149 23.6382V36.0488C12.6149 36.3978 12.8047 36.7189 13.11 36.8847C13.4153 37.0512 13.7867 37.0365 14.0776 36.8462L19.9557 33.0056C20.2245 32.8303 20.3863 32.5301 20.3863 32.2079V23.6378L32.7979 7.44532C32.9245 7.28343 33 7.07968 33 6.85794V0.951371C33 0.425802 32.5759 0 32.0532 0H0.946783C0.424074 0 0 0.425819 0 0.951371V6.85794C0 7.07968 0.0755099 7.28376 0.202121 7.44532L0.203371 7.44573ZM30.1308 7.80941H2.87216L14.3122 22.7334C14.4395 22.8999 14.5091 23.104 14.5091 23.314V34.2962L18.4939 31.6922V23.3138C18.4939 23.1038 18.5635 22.8998 18.6908 22.7333L30.1308 7.80941ZM31.1079 1.90284V5.90692H1.89455V1.90284H31.1079Z" fill="#32599E"/>
</svg>
