<svg width="35" height="36" viewBox="0 0 35 36" fill="none" xmlns="http://www.w3.org/2000/svg">
<g clip-path="url(#clip0_1627_2777)">
<path d="M34.9985 18V23.6343C34.9985 24.7771 34.9985 25.92 34.8656 27.0629C34.789 28.156 34.6109 29.2391 34.3339 30.2971C34.1595 30.9393 33.9181 31.5601 33.614 32.1486C32.9691 33.3622 31.9468 34.3163 30.7121 34.8571C29.9833 35.1827 29.2218 35.4242 28.4415 35.5771C27.783 35.7131 27.1173 35.8085 26.4479 35.8629C25.5285 35.9429 24.6092 36 23.6789 36C19.5475 36 15.4273 36 11.2849 36C10.576 36 9.85608 36 9.14722 35.9086C8.68203 35.9086 8.20576 35.8286 7.74057 35.7714C6.57237 35.6463 5.42742 35.35 4.34026 34.8914C3.58148 34.5599 2.89577 34.0729 2.32464 33.46C1.7535 32.8471 1.30881 32.1211 1.01747 31.3257C0.724594 30.5591 0.51292 29.7621 0.386144 28.9486C0.200823 27.815 0.0934871 26.6692 0.0649414 25.52C0.0649414 24.8 0.0649414 24.1029 0.0649414 23.3943V12.5714C0.0649414 11.7486 0.0649414 10.9371 0.0649414 10.1143C0.103131 8.80698 0.258862 7.50616 0.530131 6.22857C0.698507 5.43726 0.958828 4.6698 1.30545 3.94286C1.95075 2.69129 2.98984 1.70376 4.25165 1.14286C4.99048 0.818217 5.76371 0.584233 6.55545 0.445714C7.21045 0.311322 7.87241 0.215927 8.53804 0.16C9.09184 0.102857 9.64564 0.0685714 10.2105 0.0457143C12.182 0 14.2422 0 16.258 0H23.6456C24.3656 0 25.1077 0 25.8608 0.0914286C26.614 0.182857 27.1124 0.205714 27.7327 0.297143C28.7326 0.442343 29.7088 0.726842 30.6346 1.14286C31.3891 1.46927 32.0722 1.94918 32.6431 2.55395C33.214 3.15872 33.661 3.87595 33.9573 4.66286C34.2663 5.46976 34.4891 6.309 34.6219 7.16571C34.7841 8.14816 34.8803 9.14101 34.9099 10.1371C34.9099 10.9714 34.9653 11.8057 34.9653 12.64C34.9653 14.4457 34.9653 16.2286 34.9653 18.0229L34.9985 18ZM19.4589 15.0514V12.4571C19.4575 12.2767 19.4389 12.0968 19.4035 11.92C19.38 11.7869 19.3113 11.6667 19.2099 11.5809C19.1085 11.4951 18.9809 11.4492 18.8498 11.4514H14.7184C14.6063 11.4447 14.4947 11.4727 14.3981 11.5317C14.3014 11.5908 14.224 11.6782 14.1757 11.7829C14.1188 11.8772 14.0886 11.986 14.0886 12.0971C14.0886 12.2083 14.1188 12.3171 14.1757 12.4114C14.2507 12.523 14.3321 12.6298 14.4194 12.7314C14.8409 13.2452 15.0689 13.8984 15.0618 14.5714C15.0618 15.9429 15.0618 17.3029 15.0618 18.6743C15.0585 18.8523 15.0324 19.029 14.9842 19.2C14.9642 19.2774 14.9194 19.3456 14.8571 19.3933C14.7947 19.441 14.7185 19.4656 14.6409 19.4629C14.5062 19.4724 14.3726 19.4319 14.2643 19.3486C14.0772 19.2048 13.8995 19.0483 13.7327 18.88C13.3109 18.4041 12.9395 17.883 12.6251 17.3257C11.7169 15.8071 10.974 14.1897 10.4099 12.5029C10.3448 12.3055 10.2633 12.1143 10.1662 11.9314C10.1122 11.8005 10.027 11.6858 9.91856 11.5979C9.81014 11.51 9.68199 11.4518 9.54595 11.4286H9.25798H6.51114L6.18994 11.5086C6.10534 11.5408 6.03079 11.596 5.97423 11.6685C5.91766 11.7409 5.8812 11.8279 5.86874 11.92C5.84663 12.037 5.84663 12.1573 5.86874 12.2743C5.86874 12.5486 5.95735 12.8114 6.0238 13.0743C6.30022 14.11 6.67108 15.1164 7.1314 16.08C7.93111 17.8174 8.88005 19.4773 9.96684 21.04C10.7226 22.1359 11.6466 23.0971 12.7026 23.8857C13.9243 24.8297 15.3636 25.4285 16.8782 25.6229C17.4297 25.6972 17.9882 25.6972 18.5396 25.6229C18.7154 25.5922 18.8866 25.5385 19.0491 25.4629C19.1497 25.4196 19.2368 25.3488 19.3012 25.2582C19.3657 25.1676 19.4049 25.0605 19.4146 24.9486C19.4146 24.8343 19.4146 24.7086 19.4146 24.5943V22.2286C19.4037 22.0764 19.4037 21.9236 19.4146 21.7714C19.4305 21.6828 19.4735 21.6016 19.5373 21.54C19.6011 21.4783 19.6823 21.4393 19.7691 21.4286C19.9259 21.3929 20.0884 21.3929 20.2453 21.4286C20.5276 21.465 20.7993 21.5624 21.0428 21.7143C21.5305 22.0458 21.9833 22.4288 22.3941 22.8571C22.97 23.4057 23.5016 24 24.0111 24.5943C24.2216 24.8343 24.4542 25.0743 24.6868 25.3029C24.8175 25.438 24.9729 25.545 25.144 25.6176C25.3152 25.6902 25.4986 25.7269 25.6836 25.7257H28.2089C28.414 25.7335 28.6182 25.6944 28.807 25.6114C28.9137 25.5623 29.0042 25.482 29.0672 25.3805C29.1302 25.2789 29.1629 25.1606 29.1615 25.04C29.1672 24.8481 29.1332 24.6572 29.0618 24.48C28.9388 24.1652 28.7749 23.8691 28.5744 23.6C27.9228 22.6625 27.2046 21.7763 26.4257 20.9486C26.1488 20.64 25.8387 20.3657 25.5618 20.0571C25.3912 19.8695 25.2321 19.671 25.0855 19.4629C25.0106 19.3544 24.9704 19.2246 24.9704 19.0914C24.9704 18.9583 25.0106 18.8284 25.0855 18.72L25.3181 18.3314C26.0048 17.3143 26.6583 16.3086 27.2896 15.2571C27.7042 14.5866 28.0742 13.8879 28.3972 13.1657C28.5358 12.8851 28.6329 12.5846 28.6852 12.2743C28.7148 12.1922 28.7253 12.1042 28.7159 12.0172C28.7066 11.9302 28.6776 11.8467 28.6313 11.7733C28.585 11.7 28.5226 11.6388 28.4493 11.5949C28.3759 11.5509 28.2936 11.5252 28.2089 11.52C28.0984 11.5088 27.9871 11.5088 27.8766 11.52H25.1298C24.9965 11.5222 24.8652 11.554 24.7448 11.6131C24.6244 11.6723 24.5177 11.7575 24.432 11.8629C24.3308 11.9949 24.2418 12.1365 24.1662 12.2857C23.9558 12.7314 23.7675 13.1886 23.557 13.6343C22.9984 14.8441 22.323 15.9927 21.5412 17.0629C21.2217 17.4918 20.8493 17.876 20.4336 18.2057C20.3084 18.3019 20.1704 18.3789 20.0238 18.4343C19.7469 18.5371 19.5808 18.4343 19.4811 18.1486C19.4366 18.0084 19.4142 17.8618 19.4146 17.7143C19.4146 16.8571 19.4146 16.0114 19.4146 15.1429" fill="#203569"/>
</g>
<defs>
<clipPath id="clip0_1627_2777">
<rect width="35" height="36" fill="white"/>
</clipPath>
</defs>
</svg>
