<svg width="36" height="36" viewBox="0 0 36 36" fill="none" xmlns="http://www.w3.org/2000/svg">
<g clip-path="url(#clip0_1627_2765)">
<path d="M18.0042 36C15.2907 36 12.5657 36 9.86368 35.8273C8.0056 35.7892 6.19849 35.212 4.66164 34.1657C3.12478 33.1194 1.92426 31.649 1.20574 29.9328C0.741536 28.8734 0.450376 27.7461 0.343398 26.5941C-0.00650531 22.344 -0.102492 18.0767 0.0559497 13.8151C0.0721033 12.1488 0.179579 10.4847 0.377892 8.83015C0.501767 7.17538 1.08232 5.58759 2.0548 4.24389C3.02729 2.90019 4.35346 1.85341 5.8854 1.2203C7.19881 0.670893 8.59314 0.340336 10.0132 0.241729C14.3019 -0.138187 18.5906 -3.57861e-05 22.8908 0.0575274C24.3342 0.065244 25.7752 0.17682 27.2025 0.391394C29.6887 0.657309 31.9796 1.86392 33.6069 3.7646C34.5425 4.90465 35.1859 6.25625 35.4811 7.70192C35.7927 9.21674 35.943 10.7604 35.9295 12.307C35.9295 15.5305 36.0215 18.7656 35.9985 22.0006C35.9762 23.7098 35.8572 25.4165 35.642 27.1122C35.4786 29.0638 34.7086 30.9151 33.4403 32.406C32.172 33.8968 30.4691 34.9524 28.5708 35.4243C26.946 35.8207 25.2752 35.995 23.6037 35.9424C21.7295 35.9424 19.8439 35.9424 17.9697 35.9424L18.0042 36ZM18.0042 3.93728V4.00636C16.0151 4.00636 14.0374 4.00636 12.0598 4.00636C10.5003 3.95639 8.94406 4.17844 7.46061 4.66258C6.74454 4.91162 6.09472 5.3211 5.5607 5.85979C5.02668 6.39849 4.62256 7.05217 4.37917 7.77099C4.0177 8.98377 3.85842 10.2479 3.90775 11.5126C3.82727 14.7476 3.78128 17.9712 3.80427 21.2062C3.74853 23.2381 3.89489 25.2705 4.24119 27.2734C4.41786 28.2266 4.86955 29.1071 5.54046 29.8062C6.64815 30.8785 8.10646 31.5124 9.64522 31.5906C10.929 31.7173 12.2186 31.775 13.5085 31.7633C17.3948 31.7633 21.2735 31.7441 25.1444 31.7058C26.2521 31.6796 27.3478 31.4695 28.3868 31.0841C29.2073 30.8409 29.9489 30.3848 30.5365 29.7621C31.1241 29.1394 31.5368 28.3721 31.7327 27.5382C31.9785 26.5218 32.1324 25.4853 32.1926 24.4413C32.3881 20.6882 32.3881 16.9235 32.2731 13.1704C32.2846 11.6266 32.1538 10.0851 31.8822 8.56536C31.7311 7.73345 31.3726 6.95323 30.84 6.29711C30.3073 5.64099 29.6177 5.13023 28.8353 4.81224C27.6779 4.34046 26.44 4.09805 25.1904 4.09846C22.8103 4.09846 20.4418 4.00636 18.0732 3.97182" fill="#203569"/>
<path d="M9.19906 18.6505C9.1343 16.7508 9.67405 14.8795 10.7404 13.3069C11.8068 11.7343 13.3446 10.5416 15.132 9.90092C16.6031 9.35578 18.2002 9.24784 19.7312 9.59008C21.2244 9.88345 22.6146 10.5642 23.7627 11.5643C24.9108 12.5643 25.7766 13.8487 26.2735 15.2888C26.8904 16.8818 27.0028 18.6262 26.5954 20.2853C26.291 21.7512 25.6165 23.1146 24.6363 24.2452C23.656 25.3759 22.4027 26.2362 20.9959 26.7439C19.6266 27.2861 18.133 27.4337 16.6842 27.1699C15.1084 26.9394 13.6258 26.2809 12.3974 25.2661C11.169 24.2513 10.2418 22.9189 9.71647 21.4135C9.36569 20.5351 9.18992 19.5965 9.19906 18.6505ZM17.995 13.2166C16.9752 13.1914 15.9712 13.4713 15.1111 14.0204C14.2511 14.5696 13.5742 15.3631 13.1669 16.2996C12.7596 17.236 12.6405 18.2727 12.8248 19.2773C13.0091 20.2818 13.4884 21.2085 14.2014 21.9389C14.9145 22.6692 15.8289 23.1701 16.8277 23.3774C17.8265 23.5847 18.8644 23.489 19.8086 23.1026C20.7528 22.7162 21.5605 22.0566 22.1284 21.2082C22.6963 20.3598 22.9985 19.361 22.9966 18.3397C23.0026 17.67 22.8763 17.0058 22.625 16.3853C22.3736 15.7647 22.0021 15.2001 21.5318 14.7239C21.0616 14.2477 20.5019 13.8694 19.8851 13.6107C19.2682 13.352 18.6063 13.218 17.9375 13.2166" fill="#203569"/>
<path d="M25.4796 9.544C25.4796 9.0005 25.6952 8.47927 26.0791 8.09496C26.4629 7.71065 26.9835 7.49475 27.5263 7.49475C28.0691 7.49475 28.5896 7.71065 28.9734 8.09496C29.3573 8.47927 29.5729 9.0005 29.5729 9.544C29.5729 10.0896 29.358 10.6133 28.9749 11.0012C28.5917 11.3892 28.0712 11.6102 27.5263 11.6163C27.2555 11.6163 26.9875 11.5625 26.7377 11.4581C26.4879 11.3537 26.2612 11.2007 26.0709 11.0079C25.8805 10.8152 25.7303 10.5866 25.6288 10.3353C25.5273 10.084 25.4766 9.81504 25.4796 9.544Z" fill="#203569"/>
</g>
<defs>
<clipPath id="clip0_1627_2765">
<rect width="36" height="36" fill="white"/>
</clipPath>
</defs>
</svg>
