<svg width="37" height="36" viewBox="0 0 37 36" fill="none" xmlns="http://www.w3.org/2000/svg">
<g clip-path="url(#clip0_1627_2771)">
<path d="M37 5.35951V30.6519C37 30.6519 36.9415 30.7203 36.9415 30.7659C36.7806 31.759 36.3696 32.6976 35.7455 33.4977C35.1214 34.2977 34.3036 34.9341 33.3654 35.35C32.7614 35.594 32.1405 35.7959 31.5072 35.9544H24.2031C24.2031 35.8061 24.2031 35.6579 24.2031 35.4982V22.3731H30.3853V16.3978H24.2849C24.2849 15.44 24.2264 14.5049 24.2849 13.5926C24.298 13.4186 24.3468 13.2488 24.4286 13.0936C24.5103 12.9383 24.6233 12.8007 24.7607 12.689C24.8981 12.5773 25.0572 12.4937 25.2284 12.4432C25.3997 12.3928 25.5796 12.3765 25.7574 12.3953H30.4321V6.43141H30.2451C28.6557 6.43141 27.0897 6.43141 25.512 6.43141C24.9583 6.43141 24.4074 6.5082 23.8758 6.65948C22.507 7.07519 21.2903 7.86772 20.3719 8.94186C19.4535 10.016 18.8724 11.326 18.6987 12.7146C18.5675 13.8197 18.5129 14.9321 18.535 16.0443V16.4434H14.024V22.4073H18.5V36H5.5044C5.4521 35.9724 5.39733 35.9495 5.34079 35.9316C3.87381 35.6776 2.54149 34.9377 1.56855 33.8367C0.595616 32.7358 0.0416087 31.341 -2.3406e-05 29.8879C-2.3406e-05 21.9626 -2.34069e-05 14.0602 -2.34069e-05 6.13493C-0.0117109 5.91461 -0.0117109 5.69385 -2.3406e-05 5.47354C0.210951 3.97916 0.961074 2.60714 2.11561 1.60391C3.27015 0.60069 4.75345 0.0319993 6.29909 -1.14111e-05C14.4798 -1.14111e-05 22.5319 -1.14111e-05 30.6541 -1.14111e-05C31.8393 -0.0234801 33.0064 0.28667 34.0157 0.893347C35.025 1.50002 35.8339 2.37754 36.3455 3.42096C36.6177 4.04076 36.8366 4.68154 37 5.3367" fill="#203569"/>
</g>
<defs>
<clipPath id="clip0_1627_2771">
<rect width="37" height="36" fill="white"/>
</clipPath>
</defs>
</svg>
