<svg width="35" height="36" viewBox="0 0 35 36" fill="none" xmlns="http://www.w3.org/2000/svg">
<path d="M28.0556 0H6.94444C3.05556 0 0 3.28571 0 7.14286V28.8571C0 32.7143 3.05556 36 6.94444 36H28.0556C31.8056 36 35 32.8571 35 28.8571V7.14286C35 3.28571 31.9444 0 28.0556 0ZM22.7778 5.28571V10.5714C22.7778 11.2857 22.6389 12.2857 22.9167 12.5714C23.4722 12.7143 23.8889 12.2857 24.0278 11.8571V5.28571H25.5556C25.5556 8.14286 25.5556 11.1429 25.5556 14H24.0278V13.1429C23.6111 13.4286 23.3333 13.8571 22.9167 14C22.3611 14.2857 21.6667 14.1429 21.3889 13.7143C21.1111 13.1429 21.1111 12 21.25 11.1429C21.25 9.14286 21.25 7.28571 21.25 5.28571C21.8056 5.28571 22.2222 5.28571 22.7778 5.28571ZM15.6944 6.57143C15.9722 6 16.3889 5.57143 17.0833 5.28571C17.2222 5.28571 17.5 5.28571 17.6389 5.14286C20 5.14286 20.1389 7 20.1389 9.42857C20.1389 11.8571 20.2778 13.7143 18.1944 14.1429C17.6389 14.2857 17.0833 14 16.8056 13.8571C15.5556 13.1429 15.5556 11.5714 15.5556 9.57143C15.4167 8.57143 15.4167 7.28571 15.6944 6.57143ZM11.25 2.28571C11.6667 3.71429 12.0833 5.28571 12.5 6.85714C12.9167 5.28571 13.1944 3.85714 13.6111 2.28571C14.1667 2.28571 14.7222 2.28571 15.2778 2.28571C15.2778 2.85714 15 3.42857 14.8611 4C14.4444 5.71429 13.8889 7.57143 13.3333 9.28571V14.1429H11.6667C11.6667 13 11.6667 11.8571 11.6667 10.8571C11.6667 10.2857 11.6667 9.57143 11.6667 9.14286C11.25 7.57143 10.8333 6.14286 10.2778 4.57143C10 3.71429 9.72222 3 9.44444 2.28571H11.25ZM30.5556 29C30.2778 30.5714 30.2778 31.8571 29.3056 32.7143C28.3333 33.5714 27.7778 33.2857 26.25 33.5714C25.9722 33.5714 25.6944 33.5714 25.2778 33.5714C24.5833 33.5714 23.75 33.5714 23.0556 33.7143C21.5278 33.7143 20.1389 33.7143 18.6111 33.8571C17.3611 33.8571 15.9722 33.8571 14.7222 33.8571C14.0278 33.8571 13.3333 33.8571 12.7778 33.8571C11.9444 33.8571 11.1111 33.8571 10.2778 33.7143C8.88889 33.4286 7.36111 33.7143 6.38889 33.1429C5.83333 32.7143 5.27778 32.1429 5 31.5714C4.72222 30.8571 4.72222 29.7143 4.58333 28.8571C4.30556 26.8571 4.16667 23.5714 4.58333 21.5714C4.86111 20 4.72222 18.5714 5.27778 17.7143C6.66667 15.2857 10 16.4286 13.1944 15.8571C14.0278 15.8571 14.8611 15.8571 15.5556 15.8571C16.8056 15.8571 18.1944 15.8571 19.4444 15.8571C20.2778 15.8571 21.1111 15.8571 21.8056 15.8571C22.9167 15.8571 23.8889 16 25 16C26.8056 16.2857 27.9167 15.8571 29.1667 16.8571C30.1389 17.5714 30.1389 18.7143 30.4167 20.2857C30.9722 22.7143 30.9722 26.5714 30.5556 29ZM17.9167 12.7143C18.4722 12.5714 18.4722 11.8571 18.4722 11C18.4722 10.1429 18.6111 7.42857 18.3333 6.85714C18.1944 6.71429 18.0556 6.57143 17.6389 6.57143C17.5 6.71429 17.3611 6.71429 17.2222 6.85714C16.8056 7.42857 17.0833 10.1429 17.0833 11.1429C16.9444 11.8571 17.0833 12.8571 17.9167 12.7143ZM22.2222 22C21.3889 21 20.1389 22 19.7222 22.4286C19.7222 21.1429 19.7222 19.8571 19.7222 18.5714H18.1944V30.2857H19.7222V29.4286C20 29.7143 20.1389 30 20.5556 30.1429C20.8333 30.2857 21.25 30.4286 21.6667 30.2857C23.0556 29.8571 22.7778 27.5714 22.7778 25.8571C22.6389 24.5714 22.7778 22.7143 22.2222 22ZM21.1111 27.5714C21.1111 28.1429 21.1111 28.7143 20.8333 29C20.5556 29.2857 20.1389 29 19.8611 28.8571C19.5833 28.5714 19.7222 27.8571 19.7222 27.2857V23.4286C20 23.2857 20.1389 23.1429 20.4167 23C20.8333 23 20.9722 23.1429 21.1111 23.4286C21.25 24.1429 21.1111 26.4286 21.1111 27.5714ZM6.66667 20.2857H8.47222V30.4286H10.1389V20.2857H11.9444V18.7143H6.66667V20.2857ZM28.4722 26.2857C28.4722 24.8571 28.6111 23.2857 28.0556 22.4286C27.2222 21.1429 25.1389 21.1429 24.3056 22.4286C24.1667 22.7143 24.0278 23.1429 23.8889 23.4286C23.75 24.1429 23.8889 24.8571 23.8889 25.7143C23.8889 26.7143 23.75 28 24.0278 28.8571C24.1667 29.4286 24.4444 29.8571 24.8611 30.1429C26.25 31 27.9167 30.2857 28.3333 29C28.4722 28.5714 28.4722 27.8571 28.4722 27.2857H26.9444C26.9444 28.1429 26.8056 29.5714 25.8333 28.8571C25.2778 28.5714 25.4167 27.1429 25.4167 26.1429H28.4722V26.2857ZM25.9722 23C26.9444 22.7143 26.9444 24.1429 26.9444 25C26.3889 25 25.9722 25 25.4167 25C25.4167 24.1429 25.2778 23.1429 25.9722 23ZM15.2778 28.4286C15.1389 28.8571 14.5833 29.2857 14.0278 29.1429C13.75 28.7143 13.8889 27.7143 13.8889 27V21.8571H12.3611V27.7143C12.3611 28.5714 12.2222 29.7143 12.5 30.2857C12.7778 30.7143 13.4722 30.8571 14.0278 30.5714C14.5833 30.4286 14.8611 30 15.1389 29.7143V30.5714H16.6667V21.8571H15.2778V28.4286Z" fill="#203569"/>
</svg>
