<svg width="23" height="22" viewBox="0 0 23 22" fill="none" xmlns="http://www.w3.org/2000/svg">
<path fill-rule="evenodd" clip-rule="evenodd" d="M16.6526 11.9793C16.6526 11.3779 17.1497 10.8903 17.7628 10.8903C18.3759 10.8903 18.873 11.3779 18.873 11.9793V18.5135C18.873 20.3179 17.3819 21.7806 15.5424 21.7806H3.33052C1.49106 21.7806 0 20.3179 0 18.5135V6.53418C0 4.72975 1.49106 3.26709 3.33052 3.26709H9.99157C10.6046 3.26709 11.1017 3.75472 11.1017 4.35612C11.1017 4.95752 10.6046 5.44515 9.99157 5.44515H3.33052C2.71745 5.44515 2.22035 5.93278 2.22035 6.53418V18.5135C2.22035 19.1149 2.71745 19.6025 3.33052 19.6025H15.5424C16.1555 19.6025 16.6526 19.1149 16.6526 18.5135V11.9793Z" fill="black"/>
<path fill-rule="evenodd" clip-rule="evenodd" d="M19.9833 2.17806H14.4324C13.8194 2.17806 13.3223 1.69043 13.3223 1.08903C13.3223 0.48763 13.8194 0 14.4324 0H21.0935C21.7066 0 22.2037 0.48763 22.2037 1.08903V7.6232C22.2037 8.2246 21.7066 8.71223 21.0935 8.71223C20.4804 8.71223 19.9833 8.2246 19.9833 7.6232V2.17806Z" fill="black"/>
<path fill-rule="evenodd" clip-rule="evenodd" d="M9.66665 13.8389C9.23299 14.264 8.53021 14.264 8.09654 13.8389C7.66313 13.4135 7.66313 12.7241 8.09654 12.2987L20.3085 0.319356C20.7421 -0.105801 21.4449 -0.105801 21.8786 0.319356C22.312 0.744755 22.312 1.43415 21.8786 1.85955L9.66665 13.8389Z" fill="black"/>
</svg>
