<svg width="44" height="43" viewBox="0 0 44 43" fill="none" xmlns="http://www.w3.org/2000/svg">
<path d="M12.1135 23.2939C11.6383 22.7928 11.6383 21.9801 12.1135 21.479C12.5887 20.9779 13.3593 20.9779 13.8345 21.479L20.7831 28.8068V1.28361C20.7831 0.574574 21.328 0 22.0003 0C22.6727 0 23.2175 0.574574 23.2175 1.28361V28.8062L30.1661 21.4784C30.6413 20.9772 31.412 20.9772 31.8871 21.4784C32.3623 21.9795 32.3623 22.7921 31.8871 23.2933L22.8611 32.8124C22.8026 32.8741 22.7392 32.9285 22.672 32.9751C22.6161 33.0145 22.557 33.0446 22.4966 33.0728C22.4848 33.0787 22.4736 33.0873 22.4612 33.0925C22.3971 33.1201 22.3306 33.1391 22.264 33.1548C22.2541 33.1574 22.2447 33.162 22.2348 33.164C22.1577 33.1797 22.0787 33.1883 22.0003 33.1883C21.9953 33.1883 21.9904 33.187 21.9854 33.187C21.912 33.1863 21.8386 33.1791 21.7665 33.1647C21.7553 33.162 21.7441 33.1568 21.7329 33.1542C21.6669 33.1384 21.601 33.1194 21.5382 33.0919C21.5376 33.0912 21.5363 33.0912 21.5357 33.0912C21.5326 33.0899 21.5307 33.0873 21.5276 33.086C21.4337 33.044 21.3466 32.9856 21.2633 32.918C21.2409 32.8997 21.2197 32.882 21.1986 32.8623C21.1799 32.8446 21.1588 32.8315 21.1407 32.8124L12.1135 23.2939ZM42.7834 21.0087C42.1111 21.0087 41.5662 21.5833 41.5662 22.2923V34.4109C41.5662 37.7317 39.0043 40.4328 35.8553 40.4328H8.14532C4.99628 40.4328 2.43439 37.7311 2.43439 34.4109V22.0936C2.43439 21.3846 1.88954 20.81 1.21719 20.81C0.544845 20.81 0 21.3846 0 22.0936V34.4109C0 39.1472 3.65345 43 8.14469 43H35.8553C40.3465 43 44 39.1472 44 34.4109V22.2917C44 21.5833 43.4552 21.0087 42.7834 21.0087Z" fill="white"/>
</svg>
