<svg width="17" height="11" viewBox="0 0 17 11" fill="none" xmlns="http://www.w3.org/2000/svg">
<path d="M17.2135 10.5999C14.9869 10.5999 14.1975 8.2143 13.3635 5.68494C13.0235 4.65729 12.1207 1.92914 11.477 1.92914C10.8333 1.92914 9.93056 4.65729 9.5905 5.68494C8.75655 8.21124 7.96712 10.5999 5.74054 10.5999C3.51395 10.5999 2.72453 8.2143 1.89057 5.68494C1.54646 4.65729 0.643685 1.92914 0 1.92914V0.399902C2.22658 0.399902 3.01601 2.78551 3.84996 5.31487C4.19002 6.34251 5.0928 9.07067 5.73649 9.07067C6.38017 9.07067 7.28295 6.34251 7.62301 5.31487C8.45697 2.78551 9.24639 0.399902 11.473 0.399902C13.6996 0.399902 14.489 2.78551 15.3229 5.31487C15.663 6.34251 16.5658 9.07067 17.2095 9.07067C17.8531 9.07067 18.7559 6.34251 19.096 5.31487C19.938 2.78551 20.7275 0.399902 22.95 0.399902V1.92914C22.3063 1.92914 21.4035 4.65729 21.0635 5.68494C20.2255 8.21124 19.436 10.5999 17.2135 10.5999Z" fill="#4BBE95"/>
</svg>
