<svg width="227" height="92" viewBox="0 0 227 92" fill="none" xmlns="http://www.w3.org/2000/svg">
<path d="M192.76 86.0443H199.18C206.813 86.0443 213.448 80.9821 215.445 73.7402H196.041L192.76 86.0443Z" fill="black"/>
<path d="M105.656 81.4039C105.228 82.3179 104.729 83.0913 104.087 83.8647C102.945 85.06 101.305 86.2552 99.0218 86.2552C95.7403 86.2552 93.6715 84.0053 93.9569 80.7711C94.3136 76.5526 97.9518 73.5996 101.447 73.5996C103.944 73.5996 105.157 74.7949 105.728 75.9901C106.084 76.6932 106.227 77.4666 106.227 78.3806H103.373C103.302 78.0291 103.231 77.6775 103.017 77.3963C102.66 76.9041 102.089 76.3417 100.877 76.3417C99.0932 76.3417 97.0244 78.0291 96.8104 80.5602C96.6677 82.3882 97.7378 83.5132 99.4499 83.5132C100.591 83.5132 101.376 83.021 101.875 82.4585C102.161 82.1773 102.446 81.8258 102.66 81.4039H105.656V81.4039Z" fill="#1BABD9"/>
<path d="M111.363 80.4899C111.221 82.3179 112.291 83.5132 114.003 83.5132C115.858 83.5132 117.855 81.8961 118.069 79.2946C118.212 77.4666 117.142 76.2713 115.43 76.2713C113.575 76.2713 111.577 77.9588 111.363 80.4899ZM120.923 79.0134C120.566 83.3023 116.928 86.2552 113.432 86.2552C110.222 86.2552 108.224 83.935 108.438 80.8414C108.795 76.5526 112.433 73.5996 115.929 73.5996C119.139 73.5996 121.208 75.8495 120.923 79.0134Z" fill="#1BABD9"/>
<path d="M125.56 73.7402H128.413L126.558 80.7711C126.487 80.9821 126.487 81.193 126.487 81.3336C126.344 82.5992 127.129 83.5132 128.413 83.5132C129.626 83.5132 130.91 82.5991 131.267 81.193L133.264 73.7402H136.118L134.049 81.4039C133.264 84.4272 130.839 86.2552 127.985 86.2552C124.918 86.2552 123.205 84.4975 123.491 81.8258C123.562 81.4039 123.633 80.982 123.776 80.4899L125.56 73.7402Z" fill="#1BABD9"/>
<path d="M139.826 73.7402H143.322L145.248 81.3336H145.605L147.602 73.7402H150.456L147.174 86.0443H143.679L141.824 78.5212H141.467L139.398 86.0443H136.545L139.826 73.7402Z" fill="#1BABD9"/>
<path d="M155.95 76.4823H152.525L153.239 73.7402H163.012L162.299 76.4823H158.874L156.306 86.0443H153.453L155.95 76.4823Z" fill="#1BABD9"/>
<path d="M170.431 79.5759C171.216 79.5759 172.072 78.8728 172.214 77.6775C172.286 76.9041 171.858 76.412 171.073 76.412H168.22L167.363 79.5759H170.431ZM166.079 73.7402H171.786C173.784 73.7402 175.282 75.0058 175.068 77.4666C174.854 80.2086 172.714 81.8961 170.431 81.9664L173.142 86.1146H169.718L167.221 82.1773H166.65L165.58 86.1146H162.727L166.079 73.7402Z" fill="#1BABD9"/>
<path d="M179.99 82.107L177.707 73.7402H180.703L181.987 78.6619H182.344L186.268 73.7402H189.62L182.843 82.107L181.773 86.0443H178.92L179.99 82.107Z" fill="#1BABD9"/>
<path d="M51.2805 25.2705H22.8874C15.2821 25.2705 8.6909 30.1691 6.73525 37.2371L5.06934 43.2554H25.7123L19.4832 37.2371H48.0211L51.2805 25.2705Z" fill="black"/>
<path d="M31.8698 49.2035H3.33183L0 61.1701H28.3931C35.9984 61.1701 42.5897 56.2715 44.5453 49.2035L46.2112 43.1851H25.5683L31.8698 49.2035ZM70.186 47.4539L73.0108 37.3068H88.8733L92.2051 25.3402H76.3427L79.095 15.333H66.2747L63.5223 25.3402H57.7278L54.396 37.3068H60.1905L57.6554 46.3343C55.5549 53.8921 61.4218 61.31 69.5341 61.31H82.2096L85.5415 49.3434H71.6347C70.6206 49.2734 69.8963 48.3637 70.186 47.4539ZM227 25.2702H208.965L194.696 37.2368H190.784L194.116 25.2702H181.296L171.3 61.2401H184.121L187.452 49.2734H192.668L201.649 61.2401H217.004L204.257 44.3048L227 25.2702ZM174.849 25.2702H159.132C151.526 25.2702 144.935 30.1688 142.98 37.2368L136.316 61.1701H149.136L154.931 40.246C155.438 38.4265 157.104 37.1668 159.059 37.1668H171.517L174.849 25.2702ZM123.858 25.2702H98.5791L95.2473 37.2368H121.757C122.771 37.2368 123.423 38.1466 123.206 39.0563L122.047 43.2551H106.474C98.8689 43.2551 92.2776 48.1537 90.3219 55.2218L88.656 61.2401H101.476L102.273 58.3009C102.78 56.4814 104.446 55.2218 106.402 55.2218H118.715L117.049 61.2401H129.869L135.664 40.246C137.837 32.6881 131.898 25.2702 123.858 25.2702Z" fill="#1BABD9"/>
</svg>
