<svg width="227" height="92" viewBox="0 0 227 92" fill="none" xmlns="http://www.w3.org/2000/svg">
<g clip-path="url(#clip0_1638_7312)">
<path fill-rule="evenodd" clip-rule="evenodd" d="M171.737 43.5467C175.133 43.5467 177.56 41.7987 178.528 37.4987C179.496 33.1987 177.645 31.4507 174.318 31.4507C170.99 31.4507 168.495 33.1987 167.527 37.4987C166.559 41.7987 168.393 43.5467 171.737 43.5467ZM175.362 26.0669C180.321 26.0673 189.477 26.4402 187.237 37.4987C184.996 48.5634 175.676 48.9305 170.702 48.9305C165.727 48.9305 156.577 48.5809 158.818 37.4987C161.057 26.4229 170.385 26.0673 175.362 26.0669ZM68.094 36.2226H73.9171C75.5129 36.2226 76.3278 35.5584 76.5824 34.2125C76.9389 32.5868 76.0052 32.2023 74.6301 32.2023H68.9429L68.094 36.2226ZM61.8466 26.8185H79.112C80.7297 26.6724 82.3574 26.9427 83.8485 27.6051C84.6391 28.1771 85.2307 28.9952 85.5363 29.9391C85.8419 30.883 85.8454 31.903 85.5462 32.849C85.3604 33.9845 84.869 35.0435 84.1277 35.9056C83.3864 36.7677 82.425 37.3984 81.3529 37.7259C81.9963 37.9431 82.5327 38.4087 82.8494 39.0249C83.166 39.6411 83.2381 40.3597 83.0506 41.0296L82.4394 45.6967C82.4102 45.9347 82.4021 46.1736 82.4145 46.4105L94.5602 26.8185H104.577L108.99 48.1789H100.264L99.8909 45.7317H91.4025L90.0274 48.1789H82.922L82.9317 48.1963H73.985C73.9015 46.8364 74.0392 45.4717 74.3924 44.1585C74.6131 42.5853 74.3075 41.6239 72.7966 41.6239H66.9735L65.6154 48.1963H57.4156L57.4192 48.1789H48.7573L48.3838 45.7317H39.8954L38.5203 48.1789H29.7942L22.4942 48.1789L25.635 32.919H25.567L18.0803 48.1789H11.8668L10.6444 32.919H10.5765L7.43583 48.1789H0L4.41397 26.8185H15.9582L16.79 39.2292H16.858L22.8168 26.8185H34.344L29.9979 47.8507L43.0531 26.8185H43.07H53.1203L57.4851 47.8601L61.8296 26.836L61.8466 26.8185ZM222.159 30.3494H222.549C223.008 30.3494 223.381 30.1921 223.381 29.8076C223.381 29.423 223.143 29.2482 222.617 29.2482C222.465 29.2312 222.311 29.2312 222.159 29.2482V30.297V30.3494ZM222.159 32.4295H221.327V28.7413C221.781 28.6621 222.241 28.6212 222.702 28.6189C223.13 28.5739 223.561 28.6786 223.924 28.9161C224.046 29.0042 224.144 29.1225 224.209 29.26C224.274 29.3975 224.305 29.5497 224.298 29.7026C224.286 29.9133 224.206 30.1139 224.071 30.2723C223.935 30.4308 223.752 30.5379 223.551 30.5766C223.907 30.6815 224.077 30.9787 224.196 31.4681C224.237 31.7823 224.323 32.0886 224.451 32.3771H223.619C223.468 32.0955 223.37 31.7871 223.33 31.4681C223.33 31.0836 223.042 30.9087 222.583 30.9087H222.193V32.3771L222.159 32.4295ZM219.952 30.5067C219.943 30.8913 220.009 31.2739 220.145 31.6319C220.282 31.99 220.487 32.3162 220.748 32.5915C221.009 32.8668 221.321 33.0855 221.665 33.2348C222.009 33.3841 222.379 33.4609 222.753 33.4608C223.12 33.4587 223.483 33.3809 223.82 33.2321C224.158 33.0834 224.463 32.8666 224.717 32.5945C224.972 32.3225 225.171 32.0007 225.303 31.6481C225.435 31.2956 225.498 30.9194 225.486 30.5417C225.486 29.786 225.195 29.0613 224.676 28.527C224.157 27.9926 223.453 27.6925 222.719 27.6925C221.985 27.6925 221.281 27.9926 220.762 28.527C220.243 29.0613 219.952 29.786 219.952 30.5417V30.5067ZM226.403 30.5067C226.423 31.2625 226.224 32.0073 225.83 32.6455C225.436 33.2837 224.866 33.7862 224.193 34.0884C223.52 34.3906 222.774 34.4788 222.052 34.3417C221.33 34.2045 220.664 33.8483 220.14 33.3187C219.616 32.7891 219.258 32.1103 219.111 31.3694C218.964 30.6286 219.036 29.8595 219.317 29.1609C219.597 28.4622 220.075 27.866 220.687 27.4486C221.299 27.0313 222.019 26.8118 222.753 26.8185C223.228 26.8139 223.699 26.9056 224.139 27.0885C224.58 27.2714 224.981 27.5417 225.32 27.8842C225.659 28.2267 225.929 28.6346 226.115 29.0845C226.301 29.5345 226.399 30.0178 226.403 30.5067ZM42.8324 40.5227L46.788 33.2861H46.8389L47.7726 40.5227H42.8324ZM94.2886 40.5227L98.2442 33.2861H98.3121L99.2288 40.5227H94.2886ZM116.054 32.2023H108.465L109.569 26.8185H132.946L131.842 32.2023H124.254L120.943 48.1789H112.743L116.054 32.2023ZM139.227 39.6487H148.428L146.662 48.1789H154.862L159.276 26.8185H151.076L149.531 34.2649H140.33L141.858 26.8185H133.675L129.244 48.1789H137.444L139.227 39.6487ZM200.496 26.8185H191.124L186.71 48.1789H194.554L197.032 36.2052H197.083L203.331 48.1789H212.311L216.742 26.8185H208.882L206.454 38.6698H206.353L200.496 26.8185Z" fill="#028563"/>
</g>
<defs>
<clipPath id="clip0_1638_7312">
<rect width="227" height="44.4667" fill="white" transform="translate(0 26.0669)"/>
</clipPath>
</defs>
</svg>
