<svg width="227" height="92" viewBox="0 0 227 92" fill="none" xmlns="http://www.w3.org/2000/svg">
<g clip-path="url(#clip0_1638_7991)">
<path d="M189.623 67.9495C185.901 69.5408 181.427 68.6258 180.397 68.3871C180.595 68.4667 180.833 68.5064 181.071 68.586C181.071 68.586 186.258 70.058 190.494 68.228C190.494 68.228 194.77 66.7958 197.067 61.2261H196.077C193.781 66.5968 189.623 67.9495 189.623 67.9495Z" fill="black"/>
<path d="M197.819 59.2367C199.284 52.7918 198.017 50.1661 198.017 50.1661C198.017 50.1661 197.423 47.9382 194.018 46.3071C193.543 47.1028 195.879 48.6544 195.879 48.6544C195.879 48.6544 198.413 52.5133 196.948 58.998H181.862C181.862 58.998 181.149 62.8968 184.436 63.3742C182.179 62.4194 182.773 59.2367 182.773 59.2367H197.819Z" fill="black"/>
<path d="M176.042 60.6301C176.042 56.8904 178.141 52.554 178.141 52.554C181.309 47.1435 184.357 46.5865 184.793 46.3876C189.624 44.9952 191.801 45.8306 193.821 46.9048C191.96 45.4726 189.703 44.1995 184.239 46.0296C183.803 46.1887 180.517 47.1435 177.587 52.3551C177.587 52.3551 175.567 56.5324 175.567 60.272C175.567 60.272 175.013 67.3137 180.319 68.3878C180.319 68.3878 180.398 68.4276 180.517 68.4276C175.884 66.9158 176.042 60.6301 176.042 60.6301Z" fill="black"/>
<path d="M190.257 61.227H196.196C196.235 61.1474 196.275 61.0678 196.315 60.9883H189.385C188 63.7731 185.03 63.3753 185.03 63.3753C184.792 63.3753 184.594 63.3753 184.396 63.3355C184.792 63.4946 185.307 63.614 185.901 63.614C185.901 63.6538 188.871 64.0516 190.257 61.227Z" fill="black"/>
<path d="M196.908 58.9983C199.126 50.1664 196.433 46.0289 190.494 45.273C184.871 44.2784 176.715 47.4213 175.289 60.3907C175.289 60.3907 174.101 72.1666 189.741 67.9893C189.741 67.9893 194.018 66.5571 196.314 60.9875H189.385C187.999 63.7723 185.03 63.3745 185.03 63.3745C181.031 63.3745 181.822 58.9585 181.822 58.9585H196.908V58.9983ZM184.079 64.4486C187.762 65.2841 190.058 62.2605 190.058 62.2605H194.532C189.939 69.6602 181.704 67.5517 181.704 67.5517C173.389 66.398 176.992 55.4974 176.992 55.4974C177.388 53.548 181.862 45.1139 190.613 46.4267C199.363 47.7794 195.997 57.9241 195.997 57.9241H180.793C180.595 60.5896 180.397 63.6132 184.079 64.4486Z" fill="#E3041A" stroke="#E3041A" stroke-width="0.475731"/>
<path d="M188.158 50.1278C188.158 50.1278 183.763 49.9687 182.377 55.8964H192.79C192.751 55.8964 193.859 49.73 188.158 50.1278ZM191.563 54.7427H183.842C184.871 52.0772 186.812 51.2418 188.395 51.202C192.117 51.1622 191.563 54.7427 191.563 54.7427Z" fill="black"/>
<path d="M195.997 57.9636C195.997 57.9636 199.283 48.1769 190.612 46.4662C181.822 44.7555 177.585 53.6272 177.189 55.6164C177.189 55.6164 173.388 66.4375 181.703 67.5514C181.703 67.5514 189.939 69.6997 194.532 62.2602H190.058C190.058 62.2602 187.722 65.2838 184.079 64.4483C180.436 63.6129 180.595 60.5496 180.793 57.9238H195.997V57.9636ZM187.326 49.7285C193.027 49.3306 191.919 55.4971 191.919 55.4971H181.505C182.891 49.6091 187.326 49.7285 187.326 49.7285Z" fill="white" stroke="#E3041A" stroke-width="0.475731"/>
<path d="M187.367 49.7694C187.367 49.7694 182.972 49.6103 181.586 55.538H191.999C191.96 55.538 193.069 49.3716 187.367 49.7694ZM190.772 54.3843H183.051C184.08 51.7188 186.021 50.8834 187.604 50.8436C191.326 50.8038 190.772 54.3843 190.772 54.3843Z" fill="#E3041A"/>
<path d="M88.2595 66.5181L86.1214 76.3843L80.3405 76.4639L80.2217 76.9015H87.0716L89.1702 67.3535C88.6554 66.9557 88.2595 66.5181 88.2595 66.5181Z" fill="black"/>
<path d="M102.239 45.9097C106.634 47.8591 106.357 53.3492 106.357 53.3492C105.882 62.0617 101.091 65.8412 101.091 65.8412C96.6561 69.8593 91.6672 68.4271 91.6672 68.4271C91.4692 68.4271 91.2712 68.4669 91.0732 68.3873C91.5088 68.5862 96.7353 70.6549 102.041 66.1196C102.041 66.1196 106.832 62.3402 107.307 53.6276C107.347 53.6674 107.703 47.501 102.239 45.9097Z" fill="black"/>
<path d="M92.617 47.8987C92.7754 47.6998 92.9734 47.5008 93.1317 47.3417L93.3297 46.188H92.2211L91.9043 47.7793L92.617 47.8987Z" fill="black"/>
<path d="M93.4869 47.8607C94.9519 45.9511 97.8423 45.6329 97.8423 45.6329C99.7033 45.3942 100.97 45.7124 102.158 46.0705C100.852 45.4737 99.4657 45.1952 97.1296 45.4737C97.1296 45.4737 94.8727 45.792 93.3285 47.1844L93.0117 47.6618L93.4869 47.8607Z" fill="black"/>
<path d="M89.2491 66.9155L89.1699 67.3531C89.6451 67.751 90.3578 68.2284 91.1893 68.4273C90.0014 67.8703 89.2491 66.9155 89.2491 66.9155Z" fill="black"/>
<path d="M92.456 46.1488L92.4956 45.8306H86.1208L79.3896 76.5831H80.3003L86.9523 46.1488H92.456Z" fill="black"/>
<path d="M97.1279 50.2462C92.0201 49.8484 90.2383 55.7761 90.2383 55.7761C87.4271 64.2898 93.0496 64.7672 93.0496 64.7672C98.8305 65.6822 100.691 58.9588 100.691 58.9588C103.265 50.286 97.1279 50.2462 97.1279 50.2462ZM99.5432 58.5212C99.5432 58.5212 98.1969 64.0908 93.9603 63.6134C93.9603 63.6134 89.0901 64.0511 91.0302 56.89C91.0302 56.89 92.1785 51.4795 96.5339 51.3999C96.5339 51.4397 102.077 50.7236 99.5432 58.5212Z" fill="black"/>
<path d="M96.9704 45.393C96.9704 45.393 94.08 45.7112 92.615 47.6208L92.1398 47.4617L92.4566 45.9102H86.0818L79.3506 76.6627H86.2005L88.3783 66.6771C88.3783 66.6771 89.7641 68.4276 91.7439 68.6265C91.7439 68.6265 96.7724 69.8996 101.207 65.9212C101.207 65.9212 105.998 62.1418 106.473 53.4292C106.434 53.4292 107.028 44.0801 96.9704 45.393ZM104.612 58.0839C104.612 58.0839 103.108 64.6084 98.1187 66.8362C98.1187 66.8362 90.556 70.3372 88.6158 64.6481H87.626L85.2107 75.6284H80.7364L86.9133 47.1434H91.0707L90.4768 50.167H91.6251C91.6251 50.167 95.5054 44.6371 101.722 47.0241C101.722 47.0639 107.265 48.6154 104.612 58.0839Z" fill="#E3041A" stroke="#E3041A" stroke-width="0.475731"/>
<path d="M165.508 16.5501L213.616 17.9425C205.974 17.5446 195.086 16.749 167.567 15.9533C159.767 15.7146 150.977 16.2318 150.541 16.2716C45.8915 16.3114 -0.434767 38.9879 1.18863 69.5415H32.3896C32.3896 69.5415 19.1252 22.5176 149.908 16.9479L165.508 16.5501Z" fill="black"/>
<path d="M217.497 45.8701L216.112 52.4343C216.112 52.4343 210.252 51.1612 208.549 55.5374L205.579 68.7455H198.809L203.679 46.2281H210.252L209.776 48.5355C209.776 48.5355 211.875 46.427 213.538 45.9098C213.578 45.9098 215.32 45.0346 217.497 45.8701Z" fill="black" stroke="black" stroke-width="0.475731"/>
<path d="M165.114 68.5465C165.391 68.5863 171.647 68.6658 171.647 68.6658L172.756 63.5338C172.756 63.5338 171.885 63.6929 170.34 63.6531C168.915 63.6133 169.469 61.9027 169.469 61.9027L171.805 50.9224H175.329L176.478 45.9097H173.073L174.181 40.2207H167.569L166.341 46.0689H163.213L162.342 50.8031H165.272L162.382 63.1757C162.421 63.2553 160.679 67.8702 165.114 68.5465Z" fill="black" stroke="black" stroke-width="0.475731"/>
<path d="M139.377 46.0293H145.831L145.594 47.8991H145.95C145.95 47.8991 148.761 44.0401 155.651 46.1487C155.651 46.1487 159.452 47.1433 158.937 52.0764L155.453 68.5865H148.642L151.731 54.2645C151.731 54.2645 152.879 50.4453 147.613 51.5194C146.267 51.7979 144.802 53.071 144.366 54.6225L141.199 68.6661H134.428L139.377 46.0293Z" fill="black" stroke="black" stroke-width="0.475731"/>
<path d="M129.835 38.311H136.171L134.904 44.3979H128.568L129.835 38.311Z" fill="black" stroke="black" stroke-width="0.475731"/>
<path d="M128.172 46.1089H134.666L130.152 68.6263H123.698L128.172 46.1089Z" fill="black" stroke="black" stroke-width="0.475731"/>
<path d="M126.231 45.672L124.845 52.2363C124.845 52.2363 118.985 50.9632 117.282 55.3394L114.313 68.5475H107.542L112.412 46.0301H118.985L118.51 48.3375C118.51 48.3375 120.608 45.9903 122.271 45.7118C122.311 45.7516 126.31 45.2742 126.231 45.672Z" fill="black" stroke="black" stroke-width="0.475731"/>
<path d="M70.5998 43.1252C72.7379 43.0456 76.3411 43.0854 75.7076 47.5809H82.3991C82.3991 47.5809 84.2997 38.6297 75.5492 37.3566C67.353 36.1631 64.1854 39.3855 64.2646 39.2264C64.2646 39.2264 57.6918 43.6424 59.0776 50.5249C59.8695 54.5828 64.2646 55.2989 66.0068 55.6967C67.749 56.0946 72.5796 57.4472 72.5796 57.4472C72.5796 57.4472 76.2223 59.2772 72.0252 62.4997C70.9957 63.2954 67.2738 63.2954 67.2738 63.2954C67.2738 63.2954 61.8097 63.6136 62.9975 58.4816H56.2664C56.2664 58.4816 52.8216 69.422 66.957 69.3027C68.3033 69.3027 77.3706 69.5414 80.5778 60.7094C80.657 60.431 83.587 53.0312 75.2324 50.8432C74.7573 50.7238 68.5013 49.0529 68.5013 49.0529C68.5013 49.0529 66.0068 48.7346 65.8484 47.2627C65.7692 47.2229 65.1357 43.3639 70.5998 43.1252Z" fill="black" stroke="black" stroke-width="0.475731"/>
<path d="M69.6887 42.9265C71.8268 42.8469 75.43 42.8867 74.7964 47.3822H81.488C81.488 47.3822 83.3886 38.4309 74.6381 37.1579C66.4419 35.9644 63.2743 39.1868 63.3535 39.0277C63.3535 39.0277 56.7807 43.4436 58.1665 50.3262C58.9584 54.3841 63.3535 55.1002 65.0956 55.498C66.8378 55.8958 71.6684 57.2485 71.6684 57.2485C71.6684 57.2485 75.3112 59.0785 71.1141 62.301C70.0846 63.0966 66.3627 63.0966 66.3627 63.0966C66.3627 63.0966 60.8986 63.4149 62.0864 58.2828H55.3552C55.3552 58.2828 51.9105 69.2233 66.0459 69.1039C67.3921 69.1039 76.4594 69.3426 79.6666 60.5107C79.7458 60.2322 82.6759 52.8325 74.3213 50.6444C73.8462 50.5251 67.5901 48.8542 67.5901 48.8542C67.5901 48.8542 65.0956 48.5359 64.9373 47.0639C64.8581 46.9844 64.2245 43.1254 69.6887 42.9265Z" fill="#E3041A" stroke="#E3041A" stroke-width="0.475731"/>
<path d="M128.924 38.0728H135.26L134.032 44.1596H127.657L128.924 38.0728Z" fill="#E3041A" stroke="#E3041A" stroke-width="0.475731"/>
<path d="M127.26 45.8711H133.754L129.28 68.3885H122.786L127.26 45.8711Z" fill="#E3041A" stroke="#E3041A" stroke-width="0.475731"/>
<path d="M125.321 45.4723L123.935 52.0366C123.935 52.0366 118.075 50.7635 116.373 55.1397L113.403 68.3478H106.672L111.542 45.8303H118.115L117.64 48.1378C117.64 48.1378 119.738 45.7906 121.401 45.5121C121.401 45.5121 125.4 45.0347 125.321 45.4723Z" fill="#E3041A" stroke="#E3041A" stroke-width="0.475731"/>
<path d="M129.912 39.2661H133.793L133.12 42.8864H129.16L129.912 39.2661Z" fill="white" stroke="#E3041A" stroke-width="0.475731"/>
<path d="M128.29 46.9443H132.368L128.251 67.1941H124.291L128.29 46.9443Z" fill="white" stroke="#E3041A" stroke-width="0.475731"/>
<path d="M138.466 45.8306H144.92L144.682 47.7004H145.039C145.039 47.7004 147.85 43.8414 154.74 45.9499C154.74 45.9499 158.541 46.9445 158.026 51.8777L154.542 68.3878H147.731L150.82 54.0658C150.82 54.0658 151.968 50.2465 146.702 51.3207C145.356 51.5992 143.891 52.8723 143.455 54.4238L140.287 68.4673H133.517L138.466 45.8306Z" fill="#E3041A" stroke="#E3041A" stroke-width="0.475731"/>
<path d="M216.585 45.6317L215.2 52.196C215.2 52.196 209.339 50.9229 207.637 55.2991L204.667 68.5072H197.896L202.767 45.9898H209.339L208.864 48.2972C208.864 48.2972 210.963 46.1887 212.626 45.6715C212.665 45.7113 214.408 44.8361 216.585 45.6317Z" fill="#E3041A" stroke="#E3041A" stroke-width="0.475731"/>
<path d="M164.204 68.3082C164.481 68.348 170.737 68.4276 170.737 68.4276L171.846 63.2955C171.846 63.2955 170.975 63.4546 169.43 63.4148C168.005 63.3751 168.559 61.6644 168.559 61.6644L170.895 50.6842H174.419L175.568 45.6714H172.162L173.271 39.9824H166.659L165.431 45.8306H162.303L161.432 50.5648H164.362L161.472 62.9374C161.511 63.017 159.809 67.6319 164.204 68.3082Z" fill="#E3041A" stroke="#E3041A" stroke-width="0.475731"/>
<path d="M167.49 41.1362H172.044L170.816 46.865H174.34L173.746 49.6499H170.222L167.451 62.2214C167.451 62.2214 167.134 64.1708 168.599 64.4095C170.064 64.6482 170.579 64.4095 170.579 64.4095L169.945 67.3933L164.798 67.2739C164.798 67.2739 161.511 67.4728 162.699 63.1365C163.887 58.8001 165.59 49.6499 165.59 49.6499H162.818L163.333 46.9446H166.263L167.49 41.1362Z" fill="white" stroke="#E3041A" stroke-width="0.475731"/>
<path d="M143.494 47.0234H139.416L135.061 67.114H139.416L142.386 54.3435C142.386 54.3435 143.613 50.0469 147.929 49.9674C152.245 49.8878 152.126 52.6726 152.047 53.7468C151.968 54.8209 149.275 67.2334 149.275 67.2334H153.631L156.996 51.3598C156.996 51.3598 157.59 47.4212 152.68 46.546C148.008 45.7105 144.603 48.9728 144.326 50.0469H143.138C143.138 50.0071 143.653 47.103 143.494 47.0234Z" fill="white" stroke="#E3041A" stroke-width="0.475731"/>
<path d="M223.872 39.4648C222.13 39.4648 220.744 40.9368 220.744 42.7669C220.744 44.5969 222.13 46.0689 223.872 46.0689C225.614 46.0689 227 44.5969 227 42.7669C227 40.9368 225.614 39.4648 223.872 39.4648ZM223.872 45.4324C222.447 45.4324 221.298 44.2389 221.298 42.7669C221.298 41.2949 222.447 40.1014 223.872 40.1014C225.298 40.1014 226.446 41.2949 226.446 42.7669C226.446 44.2389 225.298 45.4324 223.872 45.4324Z" fill="#E3041A"/>
<path d="M204.075 67.2339H199.601L203.956 47.0239H208.153L207.401 50.6044H208.549C208.549 50.6044 211.756 45.7111 215.478 46.3874L214.568 50.8034C214.568 50.8034 207.52 50.2066 206.49 55.9752L204.075 67.2339Z" fill="white" stroke="#E3041A" stroke-width="0.475731"/>
<path d="M112.413 47.064H116.57L115.858 50.6047H117.046C117.046 50.6047 119.857 45.8307 123.975 46.507L123.064 50.8434C123.064 50.8434 116.214 49.8886 114.947 56.1346L112.532 67.2342H108.137L112.413 47.064Z" fill="white" stroke="#E3041A" stroke-width="0.475731"/>
<path d="M80.4984 46.2293H75.9449C75.9449 46.2293 76.3805 41.137 69.3722 41.8929C69.3722 41.8929 63.8288 41.8929 63.71 46.9852C63.71 46.9852 63.908 49.1733 66.4421 49.7303L75.5094 52.2764C75.5094 52.2764 81.3695 53.629 78.0435 61.4266C78.0435 61.4266 75.6678 67.951 66.7985 68.1102C66.7985 68.1102 54.7616 69.1048 56.3058 59.5567H60.8196C60.8196 59.5567 60.6216 64.7684 67.5112 64.291C67.5112 64.291 71.7875 64.7286 73.9652 60.8696C73.9652 60.8696 75.8658 57.5278 71.827 56.1354L62.9577 53.7086C62.9577 53.7086 57.0185 52.714 59.8693 44.9165C59.8693 44.9165 62.0075 39.2274 68.4219 38.3124C68.4219 38.3124 73.0149 37.5168 75.7866 38.6307C75.7866 38.5113 81.0923 39.4661 80.4984 46.2293Z" fill="white" stroke="#E3041A" stroke-width="0.475731"/>
<path d="M224.387 43.0055C224.942 42.9259 225.298 42.8066 225.298 41.9711C225.298 41.0959 224.387 40.9766 224.387 40.9766H222.605V44.5571H223.199V43.0851H223.833L224.625 44.5571H225.338L224.387 43.0055ZM223.199 42.5281V41.5335H224.268C224.427 41.6131 224.546 41.6131 224.585 41.6927C224.704 41.812 224.704 41.9711 224.704 42.0507C224.704 42.1303 224.664 42.2496 224.585 42.3292C224.466 42.4883 224.308 42.5281 224.308 42.5281H223.199Z" fill="#E3041A"/>
<path d="M164.4 15.9929L212.508 17.3853C204.867 16.9875 193.978 16.1918 166.459 15.3962C158.659 15.1575 149.869 15.6747 149.433 15.7144C44.7836 15.7542 -1.58226 38.4308 0.041138 68.9844H31.2421C31.2421 68.9844 17.9777 21.9604 148.76 16.3908L164.4 15.9929Z" fill="#E3041A"/>
<path d="M101.761 46.9447C95.5048 44.5577 91.664 50.0876 91.664 50.0876H90.5158L91.1097 47.064H86.9522L80.7754 75.5489H85.2496L87.6649 64.5687H88.6548C90.595 70.2577 98.1576 66.7568 98.1576 66.7568C103.147 64.5289 104.651 58.0044 104.651 58.0044C107.304 48.4962 101.761 46.9447 101.761 46.9447ZM99.8206 58.6012C99.8206 58.6012 97.9992 65.3246 92.1788 64.4096C92.1788 64.4096 86.5167 63.8924 89.3675 55.4185C89.3675 55.4185 91.1493 49.4908 96.2571 49.8886C96.2571 49.8886 102.394 49.9284 99.8206 58.6012Z" fill="white" stroke="#E3041A" stroke-width="0.475731"/>
<path d="M96.3369 49.8878C91.2291 49.49 89.4473 55.4177 89.4473 55.4177C86.6361 63.9314 92.2586 64.4088 92.2586 64.4088C98.0395 65.3238 99.8608 58.6004 99.8608 58.6004C102.474 49.9276 96.3369 49.8878 96.3369 49.8878ZM98.7522 58.2025C98.7522 58.2025 97.4059 63.7722 93.1693 63.255C93.1693 63.255 88.299 63.6927 90.2392 56.5316C90.2392 56.5316 91.3875 51.1211 95.7429 51.0415C95.7429 51.0813 101.286 50.405 98.7522 58.2025Z" fill="#E3041A"/>
</g>
<defs>
<clipPath id="clip0_1638_7991">
<rect width="227" height="92" fill="white"/>
</clipPath>
</defs>
</svg>
