<svg width="79" height="46" viewBox="0 0 79 46" fill="none" xmlns="http://www.w3.org/2000/svg">
<path d="M55.8486 42.2031H45.8407M39.9875 40.0693V32.2518C39.9875 31.8103 40.3436 31.4516 40.7819 31.4516H44.8819V17.1593H53.6753C55.0907 17.1593 56.2412 17.9134 56.4786 19.385L58.1679 31.6632L60.9712 32.5645V36.4549M44.891 31.4608H50.5981L51.3103 34.266H55.9764L58.1588 31.4608M62.9071 37.7793V15.3934H65.9934V39.1496H76.4396V40.8695L63.4823 42.0651M53.5475 34.2476L52.9813 30.4675C52.9083 29.9709 52.7439 29.7502 52.2691 29.5938L50.3241 29.0052C50.1506 28.9684 49.8676 28.8764 49.9224 28.6373L50.6346 26.4484L52.2326 27.5245C52.4243 27.6256 52.5978 27.6992 52.817 27.69L55.4651 27.5428C56.3873 27.4509 56.0312 26.0621 55.7025 26.0437L52.954 25.915C52.8992 25.915 52.8444 25.8874 52.8079 25.8414C52.2052 25.3263 51.009 24.1491 50.3607 23.864C49.1736 23.3306 47.9683 23.5881 47.5482 25.0596L46.6442 29.3455C46.5347 30.1364 46.5894 30.5319 47.53 31.4424M55.0998 27.552L56.0038 34.1188M67.8928 37.1079H77.8733V30.7894H67.8928V37.1079ZM42.8091 38.3771C44.5258 38.3771 45.9229 39.7842 45.9229 41.5133C45.9229 43.2424 44.5258 44.6495 42.8091 44.6495C41.0924 44.6495 39.6953 43.2424 39.6953 41.5133C39.6953 39.7842 41.0924 38.3771 42.8091 38.3771ZM59.6563 36.1973C61.9665 36.1973 63.8293 38.0828 63.8293 40.4004C63.8293 42.7181 61.9574 44.6035 59.6563 44.6035C57.3552 44.6035 55.4833 42.7181 55.4833 40.4004C55.4833 38.0828 57.3552 36.1973 59.6563 36.1973ZM67.9201 28.7017H77.9007V22.3833H67.9201V28.7017ZM52.2052 20.5898C52.2052 20.3599 52.1687 20.1759 52.0956 20.0104C51.6482 18.9895 49.1005 18.6492 48.8175 20.1759C48.7353 20.6174 48.7444 21.6751 48.9271 22.1073C49.1279 22.5764 49.6667 23.0179 50.1872 23.1282C50.9085 23.2846 51.5569 23.073 51.8673 22.3465C52.0682 21.8682 52.2052 20.9761 52.2052 20.5898Z" stroke="white" stroke-width="1.71837" stroke-miterlimit="22.93"/>
<path d="M4.84872 9.57173L35.0459 3.8879L68.4299 12.1469M10.5558 35.2593V20.1392C16.6464 19.5322 22.7461 18.9344 28.8366 18.3274C28.8366 23.9744 28.8366 29.6215 28.8366 35.2593M26.8186 21.6292C21.9425 22.0338 17.0664 22.4385 12.1903 22.8432M26.8186 24.4435C21.9425 24.7562 17.0664 25.0689 12.1903 25.3908M26.8186 27.267C21.9425 27.4877 17.0664 27.7177 12.1903 27.9384M26.8186 30.0813C21.9425 30.2101 17.0664 30.3481 12.1903 30.4768M12.1903 33.0244C17.0664 32.9784 21.9425 32.9416 26.8186 32.9049M35.0368 35.2685C35.0368 23.8457 35.0368 12.432 35.0368 1.0092M68.4208 18.7137V9.58093L35.0459 1C24.9832 2.94979 14.9114 4.89039 4.84872 6.83098V35.2501M0 35.2593H37.8584M65.6723 8.87275V4.18221L54.1668 1.22993M54.1668 1.22993C50.697 1.90132 47.2271 2.57271 43.7663 3.2441M54.1668 1.22993V5.92047" stroke="white" stroke-width="1.71837" stroke-miterlimit="22.93"/>
</svg>
