<svg width="55" height="44" viewBox="0 0 55 44" fill="none" xmlns="http://www.w3.org/2000/svg">
<path d="M4.58594 42.0536V6.87263L26.7466 2V42.0536" stroke="white" stroke-width="1.86286" stroke-linecap="square" stroke-linejoin="round"/>
<path d="M33.1763 12.9833V4.87988L26.75 2" stroke="white" stroke-width="1.86286" stroke-linecap="square" stroke-linejoin="round"/>
<path d="M8.04688 11.4605L23.2711 8.34888" stroke="white" stroke-width="1.86286" stroke-linecap="square" stroke-linejoin="round"/>
<path d="M8.04688 16.7503L23.2711 14.0359" stroke="white" stroke-width="1.86286" stroke-linecap="square" stroke-linejoin="round"/>
<path d="M8.04688 21.742L23.2711 19.6632" stroke="white" stroke-width="1.86286" stroke-linecap="square" stroke-linejoin="round"/>
<path d="M8.04688 26.8199L23.2711 25.3038" stroke="white" stroke-width="1.86286" stroke-linecap="square" stroke-linejoin="round"/>
<path d="M8.04688 31.8052L23.2711 30.8452" stroke="white" stroke-width="1.86286" stroke-linecap="square" stroke-linejoin="round"/>
<path d="M8.04688 36.7903L23.2711 36.4659" stroke="white" stroke-width="1.86286" stroke-linecap="square" stroke-linejoin="round"/>
<path d="M1 42.0999H54" stroke="white" stroke-width="1.86286" stroke-linecap="square" stroke-linejoin="round"/>
<path d="M30.125 42.0536V17.1012L45.8461 13.6454V42.0536" stroke="white" stroke-width="1.86286" stroke-linecap="square" stroke-linejoin="round"/>
<path d="M50.4017 42.0536V15.6845L45.8438 13.6454" stroke="white" stroke-width="1.86286" stroke-linecap="square" stroke-linejoin="round"/>
<path d="M34.0469 20.0538L43.3683 18.1471" stroke="white" stroke-width="1.86286" stroke-linecap="square" stroke-linejoin="round"/>
<path d="M34.0469 23.8407L43.3683 22.179" stroke="white" stroke-width="1.86286" stroke-linecap="square" stroke-linejoin="round"/>
<path d="M34.0469 27.4423L43.3683 26.1711" stroke="white" stroke-width="1.86286" stroke-linecap="square" stroke-linejoin="round"/>
<path d="M34.0469 31.1034L43.3683 30.1699" stroke="white" stroke-width="1.86286" stroke-linecap="square" stroke-linejoin="round"/>
<path d="M34.0469 34.6916L43.3749 34.1024" stroke="white" stroke-width="1.86286" stroke-linecap="square" stroke-linejoin="round"/>
<path d="M34.0469 38.2866L43.3683 38.088" stroke="white" stroke-width="1.86286" stroke-linecap="square" stroke-linejoin="round"/>
</svg>
