<svg width="35" height="43" viewBox="0 0 35 43" fill="none" xmlns="http://www.w3.org/2000/svg">
<path fill-rule="evenodd" clip-rule="evenodd" d="M0 17.4825C0 7.82717 7.835 0 17.5 0C27.165 0 35 7.82717 35 17.4825C35 19.5163 34.2917 21.7341 33.2742 23.9053C32.2458 26.0981 30.8442 28.3616 29.3308 30.5178C26.3033 34.831 22.7417 38.8345 20.5708 41.1588C18.9008 42.9471 16.0992 42.9471 14.4292 41.1588C12.2583 38.8345 8.69667 34.831 5.66917 30.5178C4.15583 28.3616 2.75417 26.0981 1.72583 23.9053C0.708333 21.7341 0 19.5163 0 17.4825ZM8.75 16.0256C8.75 11.198 12.6675 7.28438 17.5 7.28438C22.3325 7.28438 26.25 11.198 26.25 16.0256C26.25 20.8533 22.3325 24.7669 17.5 24.7669C12.6675 24.7669 8.75 20.8533 8.75 16.0256Z" fill="url(#paint0_linear_2086_37049)"/>
<defs>
<linearGradient id="paint0_linear_2086_37049" x1="33.8136" y1="21.2496" x2="0.970724" y2="21.2496" gradientUnits="userSpaceOnUse">
<stop stop-color="#33A648"/>
<stop offset="0.90839" stop-color="#32599E"/>
</linearGradient>
</defs>
</svg>
