<svg width="138" height="80" viewBox="0 0 138 80" fill="none" xmlns="http://www.w3.org/2000/svg">
<path d="M97.5018 73.9341H80.0296M69.8109 70.2089V56.5607C69.8109 55.7899 70.4326 55.1637 71.1979 55.1637H78.3557V30.2116H93.7077C96.1786 30.2116 98.1873 31.5282 98.6018 34.0973L101.551 55.533L106.445 57.1066V63.8986M78.3717 55.1798H88.3353L89.5787 60.0771H97.725L101.535 55.1798M109.825 66.2108V27.1287H115.213V68.6032H133.451V71.6058L110.829 73.6932M93.4845 60.045L92.4961 53.4457C92.3686 52.5786 92.0816 52.1932 91.2526 51.9203L87.857 50.8926C87.5541 50.8284 87.0599 50.6678 87.1556 50.2504L88.399 46.4289L91.1889 48.3075C91.5236 48.4841 91.8265 48.6126 92.2091 48.5965L96.8323 48.3396C98.4424 48.179 97.8206 45.7545 97.2467 45.7224L92.4483 45.4976C92.3526 45.4976 92.257 45.4494 92.1932 45.3691C91.141 44.4699 89.0527 42.4147 87.9208 41.9169C85.8484 40.9856 83.744 41.4352 83.0107 44.0043L81.4325 51.4867C81.2412 52.8676 81.3368 53.5581 82.9788 55.1477M96.1946 48.3557L97.7728 59.8202M118.529 65.0386H135.953V54.0076H118.529V65.0386ZM74.7369 67.2544C77.734 67.2544 80.1731 69.7111 80.1731 72.7298C80.1731 75.7485 77.734 78.2051 74.7369 78.2051C71.7399 78.2051 69.3008 75.7485 69.3008 72.7298C69.3008 69.7111 71.7399 67.2544 74.7369 67.2544ZM104.15 63.449C108.183 63.449 111.435 66.7406 111.435 70.7869C111.435 74.8332 108.167 78.1249 104.15 78.1249C100.132 78.1249 96.8641 74.8332 96.8641 70.7869C96.8641 66.7406 100.132 63.449 104.15 63.449ZM118.577 50.3628H136.001V39.3318H118.577V50.3628ZM91.141 36.2007C91.141 35.7993 91.0773 35.4782 90.9497 35.1891C90.1686 33.4068 85.7208 32.8127 85.2266 35.4782C85.0832 36.2489 85.0991 38.0954 85.4179 38.8501C85.7687 39.669 86.7092 40.4397 87.6179 40.6324C88.8773 40.9053 90.0092 40.536 90.5512 39.2676C90.9019 38.4326 91.141 36.8751 91.141 36.2007Z" stroke="url(#paint0_linear_2085_36808)" stroke-width="3" stroke-miterlimit="22.93"/>
<path d="M8.46509 16.9649L61.1846 7.04182L119.468 21.4608M18.4287 61.8113V35.4141C29.0619 34.3543 39.711 33.3106 50.3442 32.2509C50.3442 42.1097 50.3442 51.9686 50.3442 61.8113M46.821 38.0153C38.3081 38.7218 29.7952 39.4283 21.2823 40.1347M46.821 42.9286C38.3081 43.4746 29.7952 44.0205 21.2823 44.5825M46.821 47.858C38.3081 48.2434 29.7952 48.6448 21.2823 49.0302M46.821 52.7714C38.3081 52.9962 29.7952 53.237 21.2823 53.4618M21.2823 57.9096C29.7952 57.8293 38.3081 57.765 46.821 57.7008M61.1687 61.8274C61.1687 41.8849 61.1687 21.9585 61.1687 2.01606M119.452 32.9253V16.9809L61.1846 2C43.6167 5.40403 26.0329 8.792 8.46509 12.18V61.7953M0 61.8113H66.0947M114.653 15.7446V7.55563L94.5667 2.40142M94.5667 2.40142C88.5088 3.57356 82.4509 4.7457 76.409 5.91784M94.5667 2.40142V10.5904" stroke="url(#paint1_linear_2085_36808)" stroke-width="3" stroke-miterlimit="22.93"/>
<defs>
<linearGradient id="paint0_linear_2085_36808" x1="133.74" y1="52.6665" x2="71.1507" y2="52.6665" gradientUnits="userSpaceOnUse">
<stop stop-color="#33A648"/>
<stop offset="0.90839" stop-color="#32599E"/>
</linearGradient>
<linearGradient id="paint1_linear_2085_36808" x1="115.418" y1="31.9132" x2="3.31343" y2="31.9132" gradientUnits="userSpaceOnUse">
<stop stop-color="#33A648"/>
<stop offset="0.90839" stop-color="#32599E"/>
</linearGradient>
</defs>
</svg>
