<svg width="1662" height="711" viewBox="0 0 1662 711" fill="none" xmlns="http://www.w3.org/2000/svg">
<path opacity="0.2" fill-rule="evenodd" clip-rule="evenodd" d="M1031.68 0L807.971 671.5H629.007L513.206 294.934L402.669 671.5H223.705L0 0H210.546L328.979 426.6L439.515 0H584.266L700.066 437.134L818.498 0H1031.68ZM1351.24 0.000190735C1559.16 0.000190735 1664.43 136.934 1661.8 408.167H1219.65C1235.44 500.334 1298.61 547.733 1406.51 547.733C1438.09 547.733 1472.31 542.466 1501.26 534.566C1532.84 524.033 1567.05 513.5 1601.27 497.7V666.233C1527.57 695.2 1448.62 711 1356.51 711C1288.08 711 1230.18 697.833 1177.54 668.867C1127.54 639.9 1085.43 600.4 1059.11 547.733C1030.16 495.066 1017 434.5 1017 363.4C1017 247.533 1045.95 155.367 1103.85 92.1669C1161.75 31.6002 1243.34 0.000190735 1351.24 0.000190735ZM1343.35 150.1C1272.29 150.1 1230.18 194.867 1217.02 281.767H1464.41C1459.15 234.367 1445.99 200.133 1427.57 179.067C1409.14 160.633 1380.19 150.1 1343.35 150.1Z" fill="#CDCDCD"/>
</svg>
