<svg width="1833" height="387" viewBox="0 0 1833 387" fill="none" xmlns="http://www.w3.org/2000/svg">
<path opacity="0.2" fill-rule="evenodd" clip-rule="evenodd" d="M132.606 0C177.539 0 212.609 12.0561 236.719 35.0723C260.829 58.0885 273.98 97.5448 273.98 151.249C273.98 195.09 263.021 230.162 241.102 256.466C219.184 282.771 188.498 295.923 150.141 295.923C122.743 295.923 98.6328 290.443 80.0022 280.579V386.892H0V66.8566C0 44.9363 12.0551 27.4003 37.2612 16.4402C61.3715 6.57606 93.1533 0 132.606 0ZM124.935 230.162C146.853 230.162 164.388 223.586 174.251 211.53C185.21 199.474 190.69 177.554 190.69 149.057C190.69 122.753 186.306 103.025 176.443 88.7768C166.58 75.6246 151.237 69.0485 128.223 69.0485C95.345 69.0485 78.9062 75.6247 78.9062 87.6809V219.202C85.4817 223.586 93.1532 225.778 100.825 227.97C109.592 229.066 117.263 230.162 124.935 230.162ZM455.903 297.019C408.778 297.019 373.709 284.963 349.598 259.755C326.584 234.546 314.529 197.282 314.529 147.961C314.529 96.449 326.584 59.1845 349.598 35.0723C372.613 12.0561 408.778 0 455.903 0C503.027 0 539.192 12.056 563.303 36.1682C587.413 60.2805 599.468 97.545 599.468 147.961C599.468 196.186 587.413 233.45 562.207 258.658C537.001 283.867 501.931 297.019 455.903 297.019ZM455.903 231.258C475.629 231.258 490.972 224.682 501.931 210.434C511.795 196.186 517.274 175.362 517.274 147.961C517.274 118.369 511.795 96.4489 501.931 84.3928C492.068 71.2407 476.725 65.7606 455.903 65.7606C435.08 65.7606 419.737 72.3367 409.874 84.3928C400.011 97.5449 395.627 118.369 395.627 147.961C395.627 176.458 400.011 197.282 409.874 210.434C420.833 223.586 436.176 231.258 455.903 231.258ZM1044.41 8.76795L951.258 288.251H876.736L828.516 131.521L782.487 288.251H707.964L614.811 8.76795H702.485L751.801 186.322L797.83 8.76795H858.105L906.326 190.706L955.642 8.76795H1044.41ZM1200.03 0C1286.61 0 1330.45 56.9925 1329.35 169.882H1145.24C1151.81 208.242 1178.11 227.97 1223.05 227.97C1236.2 227.97 1250.44 225.778 1262.5 222.49C1275.65 218.106 1289.9 213.722 1304.14 207.146V277.291C1273.46 289.347 1240.58 295.923 1202.22 295.923C1173.73 295.923 1149.62 290.443 1127.7 278.387C1106.88 266.331 1089.34 249.89 1078.39 227.97C1066.33 206.05 1060.85 180.842 1060.85 151.249C1060.85 103.025 1072.91 64.6646 1097.02 38.3604C1121.13 13.1521 1155.1 0 1200.03 0ZM1196.74 62.4726C1167.15 62.4726 1149.62 81.1048 1144.14 117.273H1247.16C1244.97 97.5449 1239.49 83.2967 1231.81 74.5286C1224.14 66.8565 1212.09 62.4726 1196.74 62.4726ZM1386.34 38.3604C1391.82 33.9763 1401.68 28.4963 1414.83 21.9202C1429.08 16.4402 1444.42 10.96 1460.86 6.57596C1478.4 2.19192 1494.83 0 1510.18 0C1540.86 0 1561.69 4.3839 1573.74 14.248V74.5286C1559.49 71.2406 1537.58 69.0485 1510.18 69.0485C1492.64 69.0485 1478.4 70.1446 1467.44 72.3366V288.251H1386.34V38.3604ZM1743.61 295.923C1716.21 295.923 1692.1 290.443 1670.18 279.483C1648.26 268.523 1630.73 253.178 1617.58 231.258C1604.43 209.338 1597.85 183.034 1597.85 152.345C1597.85 103.025 1611 64.6645 1637.3 39.4563C1663.61 14.248 1698.68 1.09591 1743.61 1.09591C1758.95 1.09591 1774.29 2.19202 1790.73 5.48005C1806.08 8.76808 1820.32 13.1521 1832.38 18.6321V88.7768C1817.04 82.2007 1803.88 76.7207 1791.83 73.4327C1779.77 70.1447 1768.81 67.9526 1756.76 67.9526C1732.65 67.9526 1714.02 73.4326 1699.77 85.4887C1686.62 97.5448 1678.95 116.177 1678.95 141.385C1678.95 169.882 1685.52 190.706 1697.58 203.858C1710.73 217.01 1730.46 224.682 1760.05 224.682C1781.97 224.682 1806.08 217.01 1832.38 202.762V272.907C1819.23 279.483 1804.98 284.963 1791.83 288.251C1776.49 293.731 1761.14 295.923 1743.61 295.923Z" fill="#4BBE95"/>
</svg>
