<svg width="40" height="41" viewBox="0 0 40 41" fill="none" xmlns="http://www.w3.org/2000/svg">
<path d="M39.9342 20.4391V26.8369C39.9342 28.1346 39.9342 29.4323 39.7832 30.7301C39.6962 31.9713 39.4938 33.2012 39.1791 34.4026C38.9809 35.1318 38.7066 35.8367 38.3609 36.5049C37.628 37.883 36.4664 38.9664 35.0633 39.5805C34.235 39.9502 33.3697 40.2244 32.483 40.3981C31.7347 40.5525 30.9782 40.6608 30.2174 40.7225C29.1728 40.8134 28.1281 40.8783 27.0708 40.8783C22.376 40.8783 17.6938 40.8783 12.9865 40.8783C12.1809 40.8783 11.3628 40.8783 10.5573 40.7744C10.0286 40.7744 9.48743 40.6836 8.95879 40.6187C7.63127 40.4766 6.33017 40.1401 5.09473 39.6195C4.23246 39.243 3.45324 38.69 2.80421 37.9941C2.15518 37.2981 1.64984 36.4737 1.31877 35.5706C0.985946 34.7001 0.745404 33.7951 0.601337 32.8713C0.390741 31.5841 0.268767 30.2831 0.236328 28.9781C0.236328 28.1606 0.236328 27.369 0.236328 26.5644V14.2749C0.236328 13.3406 0.236328 12.4192 0.236328 11.4848C0.279726 10.0004 0.456697 8.5233 0.764962 7.07259C0.956302 6.17404 1.25213 5.30259 1.64602 4.47714C2.37933 3.05598 3.56014 1.93464 4.99404 1.29772C5.83364 0.929091 6.71232 0.663401 7.61204 0.506112C8.35638 0.353509 9.10861 0.245186 9.86502 0.181681C10.4944 0.116795 11.1237 0.0778633 11.7656 0.0519089C14.006 0 16.3471 0 18.6378 0H27.0331C27.8512 0 28.6945 0 29.5504 0.103818C30.4062 0.207636 30.9726 0.23359 31.6775 0.337408C32.8138 0.502284 33.9231 0.825334 34.9752 1.29772C35.8326 1.66836 36.6089 2.2133 37.2576 2.90002C37.9064 3.58674 38.4143 4.40117 38.7511 5.29471C39.1022 6.21095 39.3554 7.16391 39.5063 8.13672C39.6906 9.2523 39.8 10.3797 39.8336 11.5108C39.8336 12.4581 39.8965 13.4055 39.8965 14.3528C39.8965 16.4032 39.8965 18.4277 39.8965 20.4651L39.9342 20.4391ZM22.2753 17.091V14.1452C22.2737 13.9402 22.2526 13.7359 22.2124 13.5352C22.1856 13.3841 22.1076 13.2476 21.9924 13.1502C21.8771 13.0528 21.7321 13.0007 21.5831 13.0032H16.8883C16.7609 12.9956 16.6341 13.0273 16.5243 13.0943C16.4144 13.1614 16.3264 13.2607 16.2716 13.3795C16.2069 13.4866 16.1726 13.6102 16.1726 13.7364C16.1726 13.8626 16.2069 13.9862 16.2716 14.0933C16.3568 14.2199 16.4493 14.3413 16.5485 14.4566C17.0275 15.04 17.2866 15.7817 17.2785 16.546C17.2785 18.1032 17.2785 19.6475 17.2785 21.2048C17.2747 21.4069 17.2451 21.6076 17.1904 21.8017C17.1677 21.8896 17.1167 21.967 17.0458 22.0212C16.975 22.0754 16.8884 22.1033 16.8002 22.1002C16.6471 22.1111 16.4953 22.0651 16.3723 21.9704C16.1596 21.8072 15.9577 21.6294 15.7681 21.4384C15.2888 20.898 14.8668 20.3063 14.5095 19.6735C13.4774 17.9491 12.6332 16.1125 11.9921 14.1971C11.9182 13.973 11.8255 13.7559 11.7152 13.5482C11.6538 13.3996 11.557 13.2694 11.4338 13.1695C11.3106 13.0697 11.165 13.0036 11.0104 12.9772H10.6831H7.56169L7.19668 13.0681C7.10054 13.1046 7.01582 13.1674 6.95154 13.2496C6.88726 13.3319 6.84584 13.4306 6.83167 13.5352C6.80655 13.6681 6.80655 13.8047 6.83167 13.9375C6.83167 14.249 6.93236 14.5475 7.00788 14.8459C7.322 16.022 7.74344 17.1648 8.26653 18.259C9.17531 20.2318 10.2537 22.1167 11.4887 23.8911C12.3475 25.1355 13.3976 26.227 14.5976 27.1224C15.9859 28.1943 17.6215 28.8742 19.3427 29.0949C19.9693 29.1793 20.604 29.1793 21.2307 29.0949C21.4304 29.0602 21.625 28.9991 21.8096 28.9133C21.9239 28.8641 22.023 28.7838 22.0962 28.6809C22.1694 28.578 22.2139 28.4564 22.225 28.3293C22.225 28.1995 22.225 28.0568 22.225 27.927V25.2407C22.2126 25.0679 22.2126 24.8944 22.225 24.7216C22.2431 24.6209 22.2919 24.5288 22.3644 24.4588C22.4369 24.3887 22.5291 24.3444 22.6278 24.3323C22.806 24.2918 22.9907 24.2918 23.169 24.3323C23.4898 24.3737 23.7986 24.4842 24.0752 24.6567C24.6294 25.0331 25.144 25.4681 25.6108 25.9544C26.2653 26.5774 26.8694 27.2522 27.4484 27.927C27.6876 28.1995 27.9519 28.472 28.2162 28.7316C28.3647 28.885 28.5413 29.0065 28.7358 29.0889C28.9303 29.1714 29.1387 29.2131 29.349 29.2117H32.2187C32.4518 29.2205 32.6838 29.1762 32.8984 29.082C33.0196 29.0262 33.1224 28.935 33.194 28.8197C33.2656 28.7044 33.3028 28.57 33.3011 28.4331C33.3077 28.2152 33.2691 27.9984 33.1879 27.7972C33.0481 27.4397 32.8618 27.1036 32.6341 26.798C31.8936 25.7334 31.0774 24.7271 30.1923 23.7873C29.8776 23.4369 29.5252 23.1254 29.2105 22.775C29.0166 22.5619 28.8359 22.3366 28.6693 22.1002C28.5842 21.9771 28.5385 21.8296 28.5385 21.6785C28.5385 21.5273 28.5842 21.3798 28.6693 21.2567L28.9336 20.8155C29.714 19.6605 30.4566 18.5185 31.174 17.3246C31.6451 16.5632 32.0656 15.7698 32.4327 14.9498C32.5902 14.6311 32.7005 14.2899 32.7599 13.9375C32.7935 13.8444 32.8055 13.7444 32.7949 13.6456C32.7842 13.5468 32.7513 13.452 32.6986 13.3687C32.646 13.2854 32.5752 13.216 32.4918 13.166C32.4085 13.1161 32.3149 13.087 32.2187 13.081C32.0931 13.0683 31.9667 13.0683 31.8411 13.081H28.7196C28.5681 13.0836 28.4189 13.1196 28.2821 13.1868C28.1453 13.254 28.0241 13.3507 27.9267 13.4704C27.8116 13.6203 27.7105 13.7811 27.6246 13.9505C27.3855 14.4566 27.1715 14.9757 26.9324 15.4818C26.2975 16.8556 25.5301 18.1599 24.6416 19.375C24.2785 19.8621 23.8554 20.2983 23.383 20.6727C23.2407 20.782 23.0838 20.8694 22.9173 20.9323C22.6026 21.0491 22.4138 20.9323 22.3005 20.6078C22.25 20.4487 22.2245 20.2822 22.225 20.1147C22.225 19.1414 22.225 18.1811 22.225 17.1948" fill="#33A648"/>
</svg>
