<svg width="34" height="25" viewBox="0 0 34 25" fill="none" xmlns="http://www.w3.org/2000/svg">
<path d="M26.6681 1.34835C26.8302 1.34835 26.9628 1.47795 26.9628 1.63636V3.65246H31.3687C31.6221 3.65246 31.8284 3.85407 31.8284 4.10177V23.4535C31.8284 23.4823 31.8048 23.5053 31.7754 23.5053H1.23188C1.20241 23.5053 1.17883 23.4823 1.17883 23.4535V4.10177C1.17883 3.85407 1.38513 3.65246 1.63857 3.65246H5.59944V1.63636C5.59944 1.47795 5.73206 1.34835 5.89415 1.34835H8.0131C8.17519 1.34835 8.30781 1.47795 8.30781 1.63636V3.65246H24.2544V1.63636C24.2544 1.47795 24.387 1.34835 24.5491 1.34835H26.6681ZM26.6681 0.196289H24.5491C23.7357 0.196289 23.0756 0.841442 23.0756 1.63636V2.50041H9.48663V1.63636C9.48663 0.841442 8.82649 0.196289 8.0131 0.196289H5.89415C5.08076 0.196289 4.42061 0.841442 4.42061 1.63636V2.50041H1.63857C0.733822 2.50041 0 3.21756 0 4.10177V23.4535C0 24.1188 0.55405 24.6574 1.23188 24.6574H31.7754C32.4561 24.6574 33.0072 24.1159 33.0072 23.4535V4.10177C33.0072 3.21756 32.2734 2.50041 31.3687 2.50041H28.1416V1.63636C28.1416 0.841442 27.4815 0.196289 26.6681 0.196289Z" fill="white"/>
<path d="M9.00655 9.73521H8.15485V10.5676C8.15485 10.8181 7.94855 11.0198 7.69216 11.0198C7.43576 11.0198 7.22947 10.8181 7.22947 10.5676V9.73521H6.37776C6.12137 9.73521 5.91507 9.5336 5.91507 9.28303C5.91507 9.03246 6.12137 8.83085 6.37776 8.83085H7.22947V7.99849C7.22947 7.74791 7.43576 7.5463 7.69216 7.5463C7.94855 7.5463 8.15485 7.74791 8.15485 7.99849V8.83085H9.00655C9.26 8.83661 9.4604 9.03822 9.4604 9.28303C9.4604 9.52784 9.25705 9.73233 9.00655 9.73521ZM11.6236 7.25541V11.3107C11.6236 11.7916 11.4261 12.2525 11.0783 12.5923C10.7306 12.9322 10.2591 13.1223 9.7669 13.1251H5.61742C5.12526 13.1251 4.65372 12.9322 4.30597 12.5923C3.95821 12.2525 3.76371 11.7916 3.76076 11.3107V7.25541C3.76076 6.77443 3.95821 6.3136 4.30597 5.97374C4.65372 5.63389 5.12526 5.4438 5.61742 5.44092H9.7669C10.2591 5.44092 10.7306 5.63389 11.0783 5.97374C11.4261 6.3136 11.6206 6.77443 11.6236 7.25541ZM10.6952 7.25541C10.6952 7.01636 10.598 6.78307 10.4241 6.61314C10.2502 6.44321 10.0145 6.34816 9.76985 6.34816H5.62036C5.37576 6.34816 5.13999 6.44321 4.96611 6.61314C4.79224 6.78307 4.69498 7.01348 4.69498 7.25541V11.3107C4.69498 11.5497 4.79224 11.7801 4.96611 11.95C5.13999 12.12 5.37576 12.215 5.62036 12.215H9.76985C10.0145 12.215 10.2502 12.12 10.4241 11.95C10.598 11.7801 10.6952 11.5497 10.6952 11.3078V7.25253V7.25541ZM17.8213 8.83085H15.1925C14.939 8.83661 14.7386 9.03822 14.7386 9.28303C14.7386 9.52784 14.942 9.73233 15.1925 9.73521H17.8213C18.0747 9.72945 18.2751 9.52784 18.2751 9.28303C18.2751 9.03822 18.0718 8.83373 17.8213 8.83085ZM26.633 12.0048H24.0042C23.7508 12.0105 23.5504 12.2121 23.5504 12.457C23.5504 12.7018 23.7537 12.9063 24.0042 12.9091H26.633C26.8865 12.9034 27.0869 12.7018 27.0869 12.457C27.0869 12.2121 26.8835 12.0076 26.633 12.0048ZM26.633 14.2714H24.0042C23.7508 14.2772 23.5504 14.4788 23.5504 14.7236C23.5504 14.9684 23.7537 15.1729 24.0042 15.1758H26.633C26.8865 15.17 27.0869 14.9684 27.0869 14.7236C27.0869 14.4788 26.8835 14.2743 26.633 14.2714ZM20.4353 7.25829V11.3135C20.4353 11.7945 20.2379 12.2553 19.8901 12.5952C19.5423 12.9351 19.0708 13.1251 18.5787 13.128H14.4292C13.937 13.128 13.4655 12.9351 13.1177 12.5952C12.77 12.2553 12.5755 11.7945 12.5725 11.3135V7.25829C12.5725 6.77731 12.77 6.31648 13.1177 5.97663C13.4655 5.63677 13.937 5.44668 14.4292 5.4438H18.5787C19.0708 5.4438 19.5423 5.63677 19.8901 5.97663C20.2379 6.31648 20.4324 6.77731 20.4353 7.25829ZM19.507 7.25829C19.507 7.01924 19.4097 6.78595 19.2358 6.61602C19.062 6.44609 18.8262 6.35104 18.5816 6.35104H14.4321C14.1875 6.35104 13.9517 6.44609 13.7779 6.61602C13.604 6.78595 13.5067 7.01636 13.5067 7.25829V11.3135C13.5067 11.5526 13.604 11.783 13.7779 11.9529C13.9517 12.1229 14.1875 12.2179 14.4321 12.2179H18.5816C18.8262 12.2179 19.062 12.1229 19.2358 11.9529C19.4097 11.783 19.507 11.5526 19.507 11.3107V7.25541V7.25829ZM29.2471 7.25829V19.9252C29.2471 20.4062 29.0496 20.867 28.7019 21.2068C28.3541 21.5467 27.8826 21.7368 27.3904 21.7397H23.2409C22.7488 21.7397 22.2772 21.5467 21.9295 21.2068C21.5817 20.867 21.3872 20.4062 21.3843 19.9252V7.25541C21.3843 6.77443 21.5817 6.3136 21.9295 5.97374C22.2772 5.63389 22.7488 5.4438 23.2409 5.44092H27.3904C27.8826 5.44092 28.3541 5.63389 28.7019 5.97374C29.0496 6.3136 29.2441 6.77443 29.2471 7.25541V7.25829ZM28.3187 7.25829C28.3187 7.01924 28.2215 6.78595 28.0476 6.61602C27.8737 6.44609 27.638 6.35104 27.3934 6.35104H23.2439C22.9993 6.35104 22.7635 6.44609 22.5896 6.61602C22.4157 6.78595 22.3185 7.01636 22.3185 7.25829V19.9252C22.3185 20.1642 22.4157 20.3975 22.5896 20.5674C22.7635 20.7374 22.9993 20.8324 23.2439 20.8324H27.3934C27.638 20.8324 27.8737 20.7374 28.0476 20.5674C28.2215 20.3975 28.3187 20.1671 28.3187 19.9252V7.25541V7.25829ZM8.94761 16.6677C8.8592 16.5813 8.74132 16.5352 8.62049 16.5352C8.49966 16.5352 8.37883 16.5842 8.29336 16.6677L7.69216 17.2553L7.09095 16.6677C6.91118 16.492 6.61648 16.492 6.43376 16.6677C6.25398 16.8434 6.25398 17.1314 6.43376 17.31L7.03496 17.8975L6.43376 18.4851C6.25398 18.6608 6.25398 18.9488 6.43376 19.1274C6.61353 19.3031 6.90824 19.3031 7.09095 19.1274L7.69216 18.5398L8.29336 19.1274C8.47313 19.3031 8.76784 19.3031 8.95056 19.1274C9.13033 18.9517 9.13033 18.6637 8.95056 18.4851L8.34935 17.8975L8.95056 17.31C9.03897 17.2236 9.08612 17.1084 9.08612 16.9903C9.08612 16.8722 9.03602 16.7541 8.95056 16.6706L8.94761 16.6677ZM11.6206 15.8699V19.9252C11.6206 20.4062 11.4232 20.867 11.0754 21.2068C10.7276 21.5467 10.2561 21.7368 9.76395 21.7397H5.61447C5.12231 21.7397 4.65078 21.5467 4.30302 21.2068C3.95527 20.867 3.76076 20.4062 3.75781 19.9252V15.8699C3.75781 15.3889 3.95527 14.9281 4.30302 14.5883C4.65078 14.2484 5.12231 14.0583 5.61447 14.0554H9.76395C10.2561 14.0554 10.7276 14.2484 11.0754 14.5883C11.4232 14.9281 11.6177 15.3889 11.6206 15.8699ZM10.6923 15.8699C10.6923 15.6309 10.595 15.3976 10.4211 15.2277C10.2473 15.0577 10.0115 14.9627 9.7669 14.9627H5.61742C5.37281 14.9627 5.13704 15.0577 4.96317 15.2277C4.78929 15.3976 4.69204 15.628 4.69204 15.8699V19.9252C4.69204 20.1642 4.78929 20.3975 4.96317 20.5674C5.13704 20.7374 5.37281 20.8324 5.61742 20.8324H9.7669C10.0115 20.8324 10.2473 20.7374 10.4211 20.5674C10.595 20.3975 10.6923 20.1671 10.6923 19.9252V15.8699ZM20.4324 15.8699V19.9252C20.4324 20.4062 20.2349 20.867 19.8872 21.2068C19.5394 21.5467 19.0679 21.7368 18.5757 21.7397H14.4262C13.9341 21.7397 13.4625 21.5467 13.1148 21.2068C12.767 20.867 12.5725 20.4062 12.5696 19.9252V15.8699C12.5696 15.3889 12.767 14.9281 13.1148 14.5883C13.4625 14.2484 13.9341 14.0583 14.4262 14.0554H18.5757C19.0679 14.0554 19.5394 14.2484 19.8872 14.5883C20.2349 14.9281 20.4294 15.3889 20.4324 15.8699ZM19.504 15.8699C19.504 15.6309 19.4068 15.3976 19.2329 15.2277C19.059 15.0577 18.8233 14.9627 18.5787 14.9627H14.4292C14.1846 14.9627 13.9488 15.0577 13.7749 15.2277C13.601 15.3976 13.5038 15.628 13.5038 15.8699V19.9252C13.5038 20.1642 13.601 20.3975 13.7749 20.5674C13.9488 20.7374 14.1846 20.8324 14.4292 20.8324H18.5787C18.8233 20.8324 19.059 20.7374 19.2329 20.5674C19.4068 20.3975 19.504 20.1671 19.504 19.9252V15.8699ZM16.501 16.2904C16.2357 16.2933 16.0235 16.5064 16.0235 16.7656C16.0235 17.0249 16.2357 17.238 16.501 17.2409C16.7662 17.238 16.9784 17.0249 16.9784 16.7656C16.9784 16.5064 16.7662 16.2933 16.501 16.2904ZM16.501 18.5571C16.2357 18.56 16.0235 18.7731 16.0235 19.0323C16.0235 19.2915 16.2357 19.5047 16.501 19.5075C16.7662 19.5047 16.9784 19.2915 16.9784 19.0323C16.9784 18.7731 16.7662 18.56 16.501 18.5571Z" fill="white"/>
</svg>
