<svg width="43" height="41" viewBox="0 0 43 41" fill="none" xmlns="http://www.w3.org/2000/svg">
<g clip-path="url(#clip0_1620_32010)">
<path d="M43.0004 6.10384V34.909C43.0004 34.909 42.9325 34.987 42.9325 35.0389C42.7454 36.1699 42.2678 37.2389 41.5425 38.1501C40.8172 39.0612 39.8668 39.7861 38.7765 40.2597C38.0745 40.5375 37.3529 40.7675 36.617 40.948H28.1283C28.1283 40.7792 28.1283 40.6103 28.1283 40.4285V25.4805H35.3131V18.6753H28.2234C28.2234 17.5844 28.1555 16.5194 28.2234 15.4805C28.2386 15.2822 28.2954 15.0889 28.3904 14.9121C28.4854 14.7353 28.6167 14.5786 28.7764 14.4513C28.9361 14.3241 29.121 14.2289 29.32 14.1714C29.519 14.1139 29.728 14.0954 29.9347 14.1168H35.3674V7.32462H35.1501C33.303 7.32462 31.483 7.32462 29.6495 7.32462C29.006 7.32462 28.3658 7.41208 27.748 7.58436C26.1572 8.05781 24.7432 8.96042 23.6758 10.1837C22.6085 11.4071 21.9333 12.8991 21.7313 14.4805C21.5789 15.739 21.5154 17.006 21.5412 18.2727V18.7272H16.2986V25.5194H21.5004V40.9999H6.39745C6.33667 40.9685 6.27303 40.9424 6.20731 40.922C4.50244 40.6328 2.95407 39.7901 1.82336 38.5362C0.69265 37.2823 0.0488047 35.6939 0.000421487 34.0389C0.000421487 25.0129 0.000421487 16.0129 0.000421487 6.98696C-0.0131613 6.73605 -0.0131613 6.48463 0.000421487 6.23371C0.245607 4.53178 1.11737 2.9692 2.45913 1.82664C3.8009 0.684079 5.52473 0.0364039 7.32101 -5.28386e-05C16.8283 -5.28386e-05 26.1861 -5.28386e-05 35.6255 -5.28386e-05C37.0029 -0.0267811 38.3592 0.326446 39.5322 1.01738C40.7052 1.70832 41.6452 2.70772 42.2398 3.89605C42.5561 4.60194 42.8105 5.33172 43.0004 6.07787" fill="#33A648"/>
</g>
<defs>
<clipPath id="clip0_1620_32010">
<rect width="43" height="41" fill="white"/>
</clipPath>
</defs>
</svg>
