<svg width="43" height="41" viewBox="0 0 43 41" fill="none" xmlns="http://www.w3.org/2000/svg">
<path d="M34.4683 0H8.53175C3.75397 0 0 3.74206 0 8.13492V32.8651C0 37.2579 3.75397 41 8.53175 41H34.4683C39.0754 41 43 37.4206 43 32.8651V8.13492C43 3.74206 39.246 0 34.4683 0ZM27.9841 6.01984V12.0397C27.9841 12.8532 27.8135 13.9921 28.1548 14.3175C28.8373 14.4802 29.3492 13.9921 29.5198 13.504V6.01984H31.3968C31.3968 9.27381 31.3968 12.6905 31.3968 15.9444H29.5198V14.9683C29.0079 15.2937 28.6667 15.7817 28.1548 15.9444C27.4722 16.2698 26.619 16.1071 26.2778 15.619C25.9365 14.9683 25.9365 13.6667 26.1071 12.6905C26.1071 10.4127 26.1071 8.29762 26.1071 6.01984C26.7897 6.01984 27.3016 6.01984 27.9841 6.01984ZM19.2817 7.48413C19.623 6.83333 20.1349 6.34524 20.9881 6.01984C21.1587 6.01984 21.5 6.01984 21.6706 5.85714C24.5714 5.85714 24.7421 7.97222 24.7421 10.7381C24.7421 13.504 24.9127 15.619 22.3532 16.1071C21.6706 16.2698 20.9881 15.9444 20.6468 15.7817C19.1111 14.9683 19.1111 13.1786 19.1111 10.9008C18.9405 9.7619 18.9405 8.29762 19.2817 7.48413ZM13.8214 2.60317C14.3333 4.23016 14.8452 6.01984 15.3571 7.80952C15.869 6.01984 16.2103 4.39286 16.7222 2.60317C17.4048 2.60317 18.0873 2.60317 18.7698 2.60317C18.7698 3.25397 18.4286 3.90476 18.2579 4.55556C17.746 6.50794 17.0635 8.62302 16.381 10.5754V16.1071H14.3333C14.3333 14.8056 14.3333 13.504 14.3333 12.3651C14.3333 11.7143 14.3333 10.9008 14.3333 10.4127C13.8214 8.62302 13.3095 6.99603 12.627 5.20635C12.2857 4.23016 11.9444 3.41667 11.6032 2.60317H13.8214ZM37.5397 33.0278C37.1984 34.8175 37.1984 36.2817 36.004 37.2579C34.8095 38.2341 34.127 37.9087 32.25 38.2341C31.9087 38.2341 31.5675 38.2341 31.0556 38.2341C30.2024 38.2341 29.1786 38.2341 28.3254 38.3968C26.4484 38.3968 24.7421 38.3968 22.8651 38.5595C21.3294 38.5595 19.623 38.5595 18.0873 38.5595C17.2341 38.5595 16.381 38.5595 15.6984 38.5595C14.6746 38.5595 13.6508 38.5595 12.627 38.3968C10.9206 38.0714 9.04365 38.3968 7.84921 37.746C7.16667 37.2579 6.48413 36.6071 6.14286 35.9564C5.80159 35.1429 5.80159 33.8413 5.63095 32.8651C5.28968 30.5873 5.11905 26.8452 5.63095 24.5675C5.97222 22.7778 5.80159 21.1508 6.48413 20.1746C8.19048 17.4087 12.2857 18.7103 16.2103 18.0595C17.2341 18.0595 18.2579 18.0595 19.1111 18.0595C20.6468 18.0595 22.3532 18.0595 23.8889 18.0595C24.9127 18.0595 25.9365 18.0595 26.7897 18.0595C28.1548 18.0595 29.3492 18.2222 30.7143 18.2222C32.9325 18.5476 34.2976 18.0595 35.8333 19.1984C37.0278 20.0119 37.0278 21.3135 37.369 23.1032C38.0516 25.869 38.0516 30.2619 37.5397 33.0278ZM22.0119 14.4802C22.6944 14.3175 22.6944 13.504 22.6944 12.5278C22.6944 11.5516 22.8651 8.46032 22.5238 7.80952C22.3532 7.64683 22.1825 7.48413 21.6706 7.48413C21.5 7.64683 21.3294 7.64683 21.1587 7.80952C20.6468 8.46032 20.9881 11.5516 20.9881 12.6905C20.8175 13.504 20.9881 14.6429 22.0119 14.4802ZM27.3016 25.0556C26.2778 23.9167 24.7421 25.0556 24.2302 25.5437C24.2302 24.0794 24.2302 22.6151 24.2302 21.1508H22.3532V34.4921H24.2302V33.5159C24.5714 33.8413 24.7421 34.1667 25.254 34.3294C25.5952 34.4921 26.1071 34.6548 26.619 34.4921C28.3254 34.004 27.9841 31.4008 27.9841 29.4484C27.8135 27.9841 27.9841 25.869 27.3016 25.0556ZM25.9365 31.4008C25.9365 32.0516 25.9365 32.7024 25.5952 33.0278C25.254 33.3532 24.7421 33.0278 24.4008 32.8651C24.0595 32.5397 24.2302 31.7262 24.2302 31.0754V26.6825C24.5714 26.5198 24.7421 26.3571 25.0833 26.1944C25.5952 26.1944 25.7659 26.3571 25.9365 26.6825C26.1071 27.496 25.9365 30.0992 25.9365 31.4008ZM8.19048 23.1032H10.4087V34.6548H12.4563V23.1032H14.6746V21.3135H8.19048V23.1032ZM34.9802 29.9365C34.9802 28.3095 35.1508 26.5198 34.4683 25.5437C33.4444 24.0794 30.8849 24.0794 29.8611 25.5437C29.6905 25.869 29.5198 26.3571 29.3492 26.6825C29.1786 27.496 29.3492 28.3095 29.3492 29.2857C29.3492 30.4246 29.1786 31.8889 29.5198 32.8651C29.6905 33.5159 30.0317 34.004 30.5436 34.3294C32.25 35.3056 34.2976 34.4921 34.8095 33.0278C34.9802 32.5397 34.9802 31.7262 34.9802 31.0754H33.1032C33.1032 32.0516 32.9325 33.6786 31.7381 32.8651C31.0556 32.5397 31.2262 30.9127 31.2262 29.7738H34.9802V29.9365ZM31.9087 26.1944C33.1032 25.869 33.1032 27.496 33.1032 28.4722C32.4206 28.4722 31.9087 28.4722 31.2262 28.4722C31.2262 27.496 31.0556 26.3571 31.9087 26.1944ZM18.7698 32.377C18.5992 32.8651 17.9167 33.3532 17.2341 33.1905C16.8929 32.7024 17.0635 31.5635 17.0635 30.75V24.8929H15.1865V31.5635C15.1865 32.5397 15.0159 33.8413 15.3571 34.4921C15.6984 34.9802 16.5516 35.1429 17.2341 34.8175C17.9167 34.6548 18.2579 34.1667 18.5992 33.8413V34.8175H20.4762V24.8929H18.7698V32.377Z" fill="#33A648"/>
</svg>
