<svg width="41" height="41" viewBox="0 0 41 41" fill="none" xmlns="http://www.w3.org/2000/svg">
<g clip-path="url(#clip0_1620_32004)">
<path d="M20.5049 40.9998C17.4145 40.9998 14.311 40.9998 11.2337 40.8032C9.11756 40.7598 7.05946 40.1025 5.30915 38.9108C3.55885 37.7192 2.19158 36.0445 1.37327 34.09C0.844595 32.8834 0.512996 31.5996 0.39116 30.2876C-0.007341 25.4472 -0.11666 20.5873 0.0637883 15.7338C0.0821855 13.836 0.204588 11.9407 0.430444 10.0564C0.571525 8.17183 1.23271 6.36351 2.34026 4.83319C3.44781 3.30286 4.95817 2.1107 6.70288 1.38966C8.19871 0.763944 9.7867 0.387476 11.4039 0.275174C16.2883 -0.157509 21.1727 -0.000169609 26.0702 0.0653884C27.714 0.0741768 29.3551 0.20125 30.9807 0.445625C33.8122 0.748473 36.4212 2.12267 38.2746 4.28733C39.3401 5.58572 40.0728 7.12504 40.409 8.7715C40.764 10.4967 40.9352 12.2548 40.9197 14.0161C40.9197 17.6874 41.0245 21.3718 40.9983 25.0561C40.9729 27.0028 40.8374 28.9464 40.5924 30.8777C40.4062 33.1003 39.5294 35.2087 38.0849 36.9067C36.6404 38.6046 34.701 39.8068 32.539 40.3443C30.6886 40.7957 28.7857 40.9942 26.8821 40.9343C24.7476 40.9343 22.6 40.9343 20.4656 40.9343L20.5049 40.9998ZM20.5049 4.484V4.56267C18.2395 4.56267 15.9871 4.56267 13.7348 4.56267C11.9588 4.50576 10.1864 4.75865 8.49688 5.31003C7.68135 5.59366 6.94127 6.06001 6.33308 6.67353C5.72489 7.28704 5.26465 8.03151 4.98745 8.85017C4.57578 10.2314 4.39438 11.6711 4.45057 13.1114C4.3589 16.7958 4.30652 20.4671 4.33271 24.1514C4.26923 26.4655 4.43592 28.7802 4.83032 31.0612C5.03152 32.1468 5.54595 33.1497 6.31004 33.9458C7.57157 35.167 9.23242 35.889 10.9849 35.9781C12.447 36.1224 13.9157 36.1881 15.3848 36.1748C19.8108 36.1748 24.2282 36.1529 28.6368 36.1092C29.8983 36.0794 31.1462 35.8401 32.3295 35.4012C33.2639 35.1242 34.1085 34.6048 34.7777 33.8956C35.4469 33.1864 35.917 32.3126 36.1401 31.3628C36.42 30.2052 36.5953 29.0248 36.6639 27.8358C36.8865 23.5614 36.8865 19.2739 36.7556 14.9995C36.7687 13.2413 36.6196 11.4856 36.3104 9.75487C36.1383 8.80741 35.73 7.91883 35.1234 7.17158C34.5167 6.42433 33.7314 5.84264 32.8402 5.48048C31.5221 4.94318 30.1123 4.6671 28.6891 4.66756C25.9785 4.66756 23.281 4.56267 20.5834 4.52334" fill="#33A648"/>
<path d="M10.4766 21.2406C10.4029 19.077 11.0176 16.9459 12.2321 15.1548C13.4466 13.3638 15.198 12.0054 17.2336 11.2758C18.909 10.6549 20.728 10.532 22.4715 10.9218C24.1722 11.2559 25.7555 12.0312 27.063 13.1702C28.3706 14.3091 29.3566 15.7718 29.9225 17.412C30.6251 19.2262 30.7531 21.2129 30.2892 23.1025C29.9425 24.772 29.1743 26.3247 28.0579 27.6124C26.9415 28.9001 25.5141 29.8798 23.912 30.4581C22.3524 31.0756 20.6514 31.2436 19.0014 30.9432C17.2067 30.6807 15.5182 29.9308 14.1192 28.7751C12.7202 27.6193 11.6642 26.1018 11.0659 24.3874C10.6664 23.387 10.4662 22.318 10.4766 21.2406ZM20.4942 15.0519C19.3328 15.0233 18.1893 15.342 17.2098 15.9675C16.2303 16.5929 15.4594 17.4967 14.9956 18.5631C14.5317 19.6296 14.3961 20.8104 14.606 21.9544C14.8159 23.0985 15.3617 24.1539 16.1738 24.9857C16.9859 25.8175 18.0272 26.3879 19.1648 26.624C20.3023 26.8601 21.4843 26.7511 22.5597 26.3111C23.6351 25.871 24.555 25.1198 25.2017 24.1535C25.8485 23.1873 26.1927 22.0498 26.1905 20.8866C26.1974 20.124 26.0535 19.3675 25.7673 18.6608C25.481 17.954 25.0578 17.311 24.5223 16.7687C23.9868 16.2263 23.3494 15.7955 22.6468 15.5008C21.9442 15.2062 21.1904 15.0536 20.4287 15.0519" fill="#33A648"/>
<path d="M29.0187 10.8695C29.0187 10.2505 29.2643 9.6569 29.7014 9.21922C30.1385 8.78153 30.7314 8.53564 31.3496 8.53564C31.9678 8.53564 32.5606 8.78153 32.9978 9.21922C33.4349 9.6569 33.6805 10.2505 33.6805 10.8695C33.6805 11.4909 33.4358 12.0873 32.9994 12.5291C32.563 12.971 31.9702 13.2227 31.3496 13.2296C31.0413 13.2296 30.736 13.1684 30.4515 13.0495C30.167 12.9305 29.9089 12.7563 29.6921 12.5368C29.4753 12.3173 29.3041 12.0569 29.1886 11.7707C29.073 11.4845 29.0152 11.1782 29.0187 10.8695Z" fill="#33A648"/>
</g>
<defs>
<clipPath id="clip0_1620_32004">
<rect width="41" height="41" fill="white"/>
</clipPath>
</defs>
</svg>
