<svg width="69" height="84" viewBox="0 0 69 84" fill="none" xmlns="http://www.w3.org/2000/svg">
<path fill-rule="evenodd" clip-rule="evenodd" d="M0 34.5537C0 15.4702 15.4461 0 34.5 0C53.5539 0 69 15.4702 69 34.5537C69 38.5734 67.6036 42.9568 65.5976 47.248C63.5704 51.5821 60.8071 56.0559 57.8236 60.3176C51.8551 68.8425 44.8336 76.7552 40.5539 81.3492C37.2616 84.8836 31.7384 84.8836 28.4461 81.3492C24.1664 76.7552 17.1449 68.8425 11.1764 60.3176C8.19293 56.0559 5.42964 51.5821 3.40236 47.248C1.39643 42.9568 0 38.5734 0 34.5537ZM17.25 31.6742C17.25 22.1325 24.9731 14.3974 34.5 14.3974C44.0269 14.3974 51.75 22.1325 51.75 31.6742C51.75 41.216 44.0269 48.951 34.5 48.951C24.9731 48.951 17.25 41.216 17.25 31.6742Z" fill="url(#paint0_linear_2086_37094)"/>
<defs>
<linearGradient id="paint0_linear_2086_37094" x1="66.661" y1="41.9993" x2="1.91371" y2="41.9993" gradientUnits="userSpaceOnUse">
<stop stop-color="#33A648"/>
<stop offset="0.90839" stop-color="#32599E"/>
</linearGradient>
</defs>
</svg>
