<svg width="153" height="79" viewBox="0 0 153 79" fill="none" xmlns="http://www.w3.org/2000/svg">
<path d="M27.1855 39H28.9887L30.1221 33.1679H32.7394L31.6059 39H33.4091L34.8414 31.6326H28.6177L27.1855 39ZM34.9739 39H36.7771L37.2202 36.7228H38.5906C38.9822 36.7228 39.3737 36.6404 39.7241 36.4755C40.7132 36.0118 41.4139 34.9608 41.4139 33.7243C41.4139 32.8691 41.0327 32.189 40.3423 31.8593C40.0229 31.7047 39.6519 31.6326 39.2192 31.6326H36.4062L34.9739 39ZM37.519 35.1772L37.9105 33.1782H38.8173C39.3119 33.1782 39.5592 33.4564 39.5592 33.8892C39.5592 34.3735 39.3428 34.7959 39.0028 35.0226C38.8379 35.136 38.6215 35.1772 38.3948 35.1772H37.519ZM41.434 39H43.2476L45.9678 35.5687C46.3491 35.0845 46.8231 34.3117 46.8231 34.3117H46.8437C46.8437 34.3117 46.6067 35.1051 46.5243 35.5687L45.8545 39H47.6577L49.09 31.6326H47.2661L44.5562 35.0742C44.1749 35.5584 43.6906 36.3312 43.6906 36.3312H43.67C43.67 36.3312 43.907 35.5378 43.9998 35.0742L44.6695 31.6326H42.8663L41.434 39ZM49.2225 39H52.2416C52.6434 39 53.0453 38.9588 53.4162 38.8351C54.4363 38.5157 55.2194 37.7326 55.2194 36.5579C55.2194 35.9706 54.9721 35.3833 54.3333 35.1463V35.1257C55.0546 34.765 55.477 34.0541 55.477 33.3843C55.477 32.6424 55.0546 32.0551 54.3127 31.7975C53.952 31.6738 53.509 31.6326 53.0247 31.6326H50.6547L49.2225 39ZM51.9015 34.4868L52.1591 33.1782H53.0556C53.4677 33.1782 53.6223 33.3843 53.6223 33.6625C53.6223 34.0644 53.3338 34.4868 52.8289 34.4868H51.9015ZM51.3245 37.4544L51.6233 35.9294H52.7155C53.1586 35.9294 53.3647 36.1767 53.3647 36.5064C53.3647 36.8258 53.1895 37.1556 52.9113 37.3307C52.7671 37.4132 52.6022 37.4544 52.4064 37.4544H51.3245ZM55.9241 39H57.7376L60.4579 35.5687C60.8392 35.0845 61.3131 34.3117 61.3131 34.3117H61.3338C61.3338 34.3117 61.0968 35.1051 61.0143 35.5687L60.3446 39H62.1478L63.58 31.6326H61.7562L59.0463 35.0742C58.665 35.5584 58.1807 36.3312 58.1807 36.3312H58.1601C58.1601 36.3312 58.3971 35.5378 58.4898 35.0742L59.1596 31.6326H57.3564L55.9241 39ZM69.5034 39L70.9357 31.6326H65.9897L65.5157 34.0541C65.0108 36.6507 64.2793 37.3307 63.3931 37.4441L63.0737 39.0824C65.2169 39.0824 66.5152 37.7017 67.2262 34.0747L67.4014 33.1782H68.8337L67.7002 39H69.5034ZM71.0683 39H75.8287L76.1276 37.4544H73.1703L73.4382 36.0633H75.6742L75.9833 34.5177H73.7473L74.0049 33.1782H76.8179L77.1167 31.6326H72.5108L71.0683 39ZM77.0152 39H78.8184L79.9519 33.1782H82.6619L82.9607 31.6326H78.4475L77.0152 39ZM82.439 39H84.2525L86.9727 35.5687C87.354 35.0845 87.828 34.3117 87.828 34.3117H87.8486C87.8486 34.3117 87.6116 35.1051 87.5292 35.5687L86.8594 39H88.6626L90.0949 31.6326H88.271L85.5611 35.0742C85.1798 35.5584 84.6955 36.3312 84.6955 36.3312H84.6749C84.6749 36.3312 84.9119 35.5378 85.0047 35.0742L85.6744 31.6326H83.8712L82.439 39ZM90.2274 39H92.0306L92.4736 36.7228H93.8441C94.2356 36.7228 94.6272 36.6404 94.9775 36.4755C95.9667 36.0118 96.6674 34.9608 96.6674 33.7243C96.6674 32.8691 96.2861 32.189 95.5958 31.8593C95.2764 31.7047 94.9054 31.6326 94.4726 31.6326H91.6596L90.2274 39ZM92.7725 35.1772L93.164 33.1782H94.0708C94.5654 33.1782 94.8127 33.4564 94.8127 33.8892C94.8127 34.3735 94.5963 34.7959 94.2563 35.0226C94.0914 35.136 93.875 35.1772 93.6483 35.1772H92.7725ZM96.9554 35.8367C96.9554 37.7429 98.3053 39.1236 100.418 39.1236C102.643 39.1236 104.745 37.1041 104.745 34.7238C104.745 32.8588 103.375 31.509 101.273 31.509C99.0162 31.509 96.9554 33.4976 96.9554 35.8367ZM98.8102 35.7336C98.8102 34.291 100.016 33.1576 101.252 33.1576C102.21 33.1576 102.88 33.8274 102.88 34.8372C102.88 36.3209 101.644 37.475 100.438 37.475C99.4799 37.475 98.8102 36.7743 98.8102 35.7336ZM105.14 39H108.159C108.561 39 108.963 38.9588 109.334 38.8351C110.354 38.5157 111.137 37.7326 111.137 36.5579C111.137 35.9706 110.89 35.3833 110.251 35.1463V35.1257C110.972 34.765 111.395 34.0541 111.395 33.3843C111.395 32.6424 110.972 32.0551 110.23 31.7975C109.87 31.6738 109.427 31.6326 108.942 31.6326H106.572L105.14 39ZM107.819 34.4868L108.077 33.1782H108.973C109.385 33.1782 109.54 33.3843 109.54 33.6625C109.54 34.0644 109.251 34.4868 108.746 34.4868H107.819ZM107.242 37.4544L107.541 35.9294H108.633C109.076 35.9294 109.282 36.1767 109.282 36.5064C109.282 36.8258 109.107 37.1556 108.829 37.3307C108.685 37.4132 108.52 37.4544 108.324 37.4544H107.242ZM110.988 39H112.915L113.657 37.4544H115.955L116.11 39H117.913L116.893 31.6326H114.822L110.988 39ZM114.358 36.0118L115.059 34.5796C115.285 34.1159 115.584 33.3122 115.584 33.3122H115.605C115.605 33.3122 115.625 34.1159 115.666 34.5796L115.811 36.0118H114.358ZM118.644 39H120.447L121.004 36.1149H123.683L123.126 39H124.929L126.362 31.6326H124.559L123.982 34.5796H121.302L121.879 31.6326H120.076L118.644 39ZM126.493 39H128.296L128.852 36.1149H131.531L130.975 39H132.778L134.211 31.6326H132.407L131.83 34.5796H129.151L129.728 31.6326H127.925L126.493 39ZM140.524 39H142.327L143.76 31.6326H141.956L140.524 39ZM134.342 39H137.35C139.081 39 140.256 37.5368 140.256 36.0736C140.256 34.7856 139.494 33.9098 138.237 33.9098H137.134L137.577 31.6326H135.774L134.342 39ZM136.444 37.4544L136.835 35.4554H137.618C138.144 35.4554 138.412 35.7542 138.412 36.187C138.412 36.8671 137.948 37.4544 137.258 37.4544H136.444ZM148.61 31.3029C149.61 31.3029 150.589 30.8392 150.774 29.613H149.476C149.393 30.1591 149.053 30.3446 148.703 30.3446C148.342 30.3446 148.177 30.1076 148.177 29.8397C148.177 29.7676 148.188 29.6851 148.208 29.613H146.869C146.828 29.8088 146.817 29.9118 146.817 30.0046C146.817 30.7568 147.518 31.3029 148.61 31.3029ZM143.891 39H145.704L148.425 35.5687C148.806 35.0845 149.28 34.3117 149.28 34.3117H149.301C149.301 34.3117 149.064 35.1051 148.981 35.5687L148.311 39H150.115L151.547 31.6326H149.723L147.013 35.0742C146.632 35.5584 146.148 36.3312 146.148 36.3312H146.127C146.127 36.3312 146.364 35.5378 146.457 35.0742L147.126 31.6326H145.323L143.891 39ZM29.4936 49.4647C30.2252 48.4137 30.7713 46.6208 30.9774 45.5182L31.0392 45.1782H32.5127L31.6883 49.4647H29.4936ZM26.2272 52.4426H27.8758L28.1644 51H32.4199L32.1314 52.4426H33.7285L34.3159 49.4647H33.4916L34.625 43.6326H29.6275L29.2875 45.374C29.0299 46.7032 28.4838 48.2385 27.577 49.4647H26.8145L26.2272 52.4426ZM35.1751 51H36.9887L39.7089 47.5687C40.0902 47.0845 40.5642 46.3117 40.5642 46.3117H40.5848C40.5848 46.3117 40.3478 47.1051 40.2653 47.5687L39.5956 51H41.3988L42.8311 43.6326H41.0072L38.2973 47.0742C37.916 47.5584 37.4317 48.3312 37.4317 48.3312H37.4111C37.4111 48.3312 37.6481 47.5378 37.7408 47.0742L38.4106 43.6326H36.6074L35.1751 51ZM48.7544 51L50.1867 43.6326H45.2408L44.7668 46.0541C44.2619 48.6507 43.5303 49.3307 42.6441 49.4441L42.3247 51.0824C44.4679 51.0824 45.7663 49.7017 46.4772 46.0747L46.6524 45.1782H48.0847L46.9512 51H48.7544ZM50.3193 51H55.0798L55.3786 49.4544H52.4213L52.6892 48.0633H54.9252L55.2343 46.5177H52.9983L53.2559 45.1782H56.0689L56.3678 43.6326H51.7618L50.3193 51ZM56.2663 51H58.0695L58.5125 48.7228H59.883C60.2745 48.7228 60.6661 48.6404 61.0164 48.4755C62.0056 48.0118 62.7063 46.9608 62.7063 45.7243C62.7063 44.8691 62.325 44.189 61.6347 43.8593C61.3152 43.7047 60.9443 43.6326 60.5115 43.6326H57.6985L56.2663 51ZM58.8114 47.1772L59.2029 45.1782H60.1097C60.6043 45.1782 60.8516 45.4564 60.8516 45.8892C60.8516 46.3735 60.6352 46.7959 60.2951 47.0226C60.1303 47.136 59.9139 47.1772 59.6872 47.1772H58.8114ZM27.7728 63H28.7723V60.764H31.4101V63H32.4096V57.7861H31.4101V59.9088H28.7723V57.7861H27.7728V63ZM33.5184 61.578C33.5184 62.5569 34.3531 63.1236 35.2598 63.1236C36.0326 63.1236 36.6715 62.66 36.9703 62.0623H36.9909C36.9909 62.0623 36.96 62.2375 36.96 62.4745V63H37.8977V59.7027C37.8977 58.3838 37.1455 57.6625 35.8369 57.6625C35.1053 57.6625 34.3119 57.9304 33.8894 58.2807L34.2912 59.0123C34.7137 58.7135 35.2392 58.5074 35.7544 58.5074C36.4036 58.5074 36.8982 58.7959 36.8982 59.6512V59.7542H36.6303C35.5483 59.7542 33.5184 59.9397 33.5184 61.578ZM34.5179 61.4956C34.5179 60.5373 35.8987 60.4755 36.6406 60.4755H36.8982V60.6713C36.8982 61.4441 36.3727 62.3302 35.4968 62.3302C34.8477 62.3302 34.5179 61.9078 34.5179 61.4956ZM43.208 63H44.1972V58.6414H46.021V57.7861H41.3945V58.6414H43.208V63ZM46.4912 60.3931C46.4912 61.9387 47.6247 63.1236 49.263 63.1236C49.9843 63.1236 50.7777 62.8454 51.2826 62.3818L50.8602 61.6502C50.448 62.0211 49.8813 62.2581 49.3249 62.2581C48.3872 62.2581 47.5835 61.6502 47.532 60.527H51.3238C51.3445 60.3828 51.3651 60.2385 51.3651 60.1046C51.3651 58.765 50.582 57.6625 49.1085 57.6625C47.6247 57.6625 46.4912 58.7341 46.4912 60.3931ZM47.5629 59.8057C47.7071 58.9402 48.3151 58.4353 49.0879 58.4353C49.7679 58.4353 50.3244 58.9093 50.3553 59.8057H47.5629ZM52.5669 65.0608H53.5664V62.6909C53.5664 62.423 53.5252 62.2375 53.5252 62.2375H53.5458C53.9065 62.7939 54.5041 63.1236 55.1636 63.1236C56.534 63.1236 57.5232 62.052 57.5232 60.3931C57.5232 58.7753 56.6473 57.6625 55.2357 57.6625C54.4732 57.6625 53.8137 58.0128 53.484 58.6414H53.4634C53.4634 58.6414 53.4943 58.4662 53.4943 58.2498V57.7861H52.5669V65.0608ZM53.5355 60.4137C53.5355 59.0948 54.2568 58.5383 55.0399 58.5383C55.9054 58.5383 56.5134 59.2699 56.5134 60.4034C56.5134 61.5883 55.8333 62.2581 55.009 62.2581C54.0507 62.2581 53.5355 61.341 53.5355 60.4137ZM58.7554 65.0608H59.7549V62.6909C59.7549 62.423 59.7137 62.2375 59.7137 62.2375H59.7343C60.0949 62.7939 60.6926 63.1236 61.352 63.1236C62.7225 63.1236 63.7117 62.052 63.7117 60.3931C63.7117 58.7753 62.8358 57.6625 61.4242 57.6625C60.6617 57.6625 60.0022 58.0128 59.6725 58.6414H59.6519C59.6519 58.6414 59.6828 58.4662 59.6828 58.2498V57.7861H58.7554V65.0608ZM59.724 60.4137C59.724 59.0948 60.4453 58.5383 61.2284 58.5383C62.0939 58.5383 62.7019 59.2699 62.7019 60.4034C62.7019 61.5883 62.0218 62.2581 61.1975 62.2581C60.2392 62.2581 59.724 61.341 59.724 60.4137ZM64.9439 63H65.9022L68.1587 59.8882C68.3236 59.6409 68.5812 59.2905 68.6121 59.1978H68.6327C68.6327 59.2802 68.6018 59.6409 68.6018 59.8882V63H69.5704V57.7861H68.6018L66.3555 60.898C66.1804 61.1453 65.9331 61.5059 65.8918 61.5986H65.8712C65.8815 61.5471 65.9022 61.1762 65.9022 60.898V57.7861H64.9439V63ZM72.3593 63H73.3484V58.6414H75.1723V57.7861H70.5457V58.6414H72.3593V63ZM75.6425 60.3828C75.6425 61.9696 76.8996 63.1236 78.4555 63.1236C80.0011 63.1236 81.2582 61.9696 81.2582 60.3828C81.2582 58.8062 80.0011 57.6625 78.4452 57.6625C76.8996 57.6625 75.6425 58.8062 75.6425 60.3828ZM76.6626 60.3828C76.6626 59.3008 77.4663 58.528 78.4555 58.528C79.4344 58.528 80.2484 59.3008 80.2484 60.3828C80.2484 61.475 79.4344 62.2581 78.4555 62.2581C77.4663 62.2581 76.6626 61.475 76.6626 60.3828ZM82.4628 65.0608H83.4623V62.6909C83.4623 62.423 83.4211 62.2375 83.4211 62.2375H83.4417C83.8023 62.7939 84.3999 63.1236 85.0594 63.1236C86.4298 63.1236 87.419 62.052 87.419 60.3931C87.419 58.7753 86.5432 57.6625 85.1315 57.6625C84.369 57.6625 83.7096 58.0128 83.3798 58.6414H83.3592C83.3592 58.6414 83.3901 58.4662 83.3901 58.2498V57.7861H82.4628V65.0608ZM83.4314 60.4137C83.4314 59.0948 84.1526 58.5383 84.9358 58.5383C85.8013 58.5383 86.4092 59.2699 86.4092 60.4034C86.4092 61.5883 85.7292 62.2581 84.9048 62.2581C83.9466 62.2581 83.4314 61.341 83.4314 60.4137ZM88.6512 63H89.6095L91.8661 59.8882C92.031 59.6409 92.2886 59.2905 92.3195 59.1978H92.3401C92.3401 59.2802 92.3092 59.6409 92.3092 59.8882V63H93.2778V57.7861H92.3092L90.0629 60.898C89.8877 61.1453 89.6404 61.5059 89.5992 61.5986H89.5786C89.5889 61.5471 89.6095 61.1762 89.6095 60.898V57.7861H88.6512V63ZM94.8095 63H95.7678L98.0244 59.8882C98.1893 59.6409 98.4469 59.2905 98.4778 59.1978H98.4984C98.4984 59.2802 98.4675 59.6409 98.4675 59.8882V63H99.4361V57.7861H98.4675L96.2212 60.898C96.046 61.1453 95.7987 61.5059 95.7575 61.5986H95.7369C95.7472 61.5471 95.7678 61.1762 95.7678 60.898V57.7861H94.8095V63ZM103.729 63H104.749V60.3106H106.398C107.727 60.3106 108.675 59.3833 108.675 58.0025C108.675 56.6218 107.727 55.7253 106.398 55.7253H103.729V63ZM104.749 59.4245V56.6115H106.243C107.099 56.6115 107.645 57.137 107.645 58.0025C107.645 58.8784 107.099 59.4245 106.233 59.4245H104.749ZM109.392 59.1257C109.392 60.9701 110.762 62.1963 112.771 62.1963V63.1236H113.791V62.1963C115.801 62.1963 117.171 60.9701 117.171 59.1257C117.171 57.3122 115.79 56.1066 113.791 56.1066V55.272H112.771V56.1066C110.762 56.1066 109.392 57.3122 109.392 59.1257ZM113.791 61.3307V56.9721C115.193 56.9721 116.13 57.7965 116.13 59.1257C116.13 60.4858 115.193 61.3307 113.791 61.3307ZM110.432 59.1257C110.432 57.7965 111.37 56.9721 112.771 56.9721V61.3307C111.37 61.3307 110.432 60.4858 110.432 59.1257Z" fill="#32599E"/>
<path d="M21.3521 26.0112V38L15.3784 33.8573L9.39648 38V26.0112" stroke="#33A648" stroke-width="1.59664" stroke-linecap="round" stroke-linejoin="round"/>
<path d="M15.3781 5.69847L18.6922 4L20.7138 7.13181L24.4339 7.31409L24.6244 11.0342L27.748 13.0557L26.0495 16.3781L27.748 19.6922L24.6244 21.7138L24.4339 25.4339L20.7138 25.6244L18.6922 28.748L15.3781 27.0495L12.0557 28.748L10.0342 25.6244L6.31409 25.4339L6.13181 21.7138L3 19.6922L4.69847 16.3781L3 13.0557L6.13181 11.0342L6.31409 7.31409L10.0342 7.13181L12.0557 4L15.3781 5.69847Z" stroke="#33A648" stroke-width="1.59664" stroke-linecap="round" stroke-linejoin="round"/>
<path d="M15.3787 23.2549C19.1766 23.2549 22.2554 20.1761 22.2554 16.3782C22.2554 12.5803 19.1766 9.50146 15.3787 9.50146C11.5808 9.50146 8.50195 12.5803 8.50195 16.3782C8.50195 20.1761 11.5808 23.2549 15.3787 23.2549Z" stroke="#33A648" stroke-width="1.59664" stroke-linecap="round" stroke-linejoin="round"/>
</svg>
