<svg width="153" height="79" viewBox="0 0 153 79" fill="none" xmlns="http://www.w3.org/2000/svg">
<g clip-path="url(#clip0_2232_32706)">
<path d="M10.752 8L3 17.8689L18.504 39L34 17.8689L26.248 8H10.752Z" stroke="#33A648" stroke-width="2" stroke-linecap="round" stroke-linejoin="round"/>
<path d="M15.248 8L12 17.8689L18.5041 39L25 17.8689L21.752 8H15.248Z" stroke="#33A648" stroke-width="2" stroke-linecap="round" stroke-linejoin="round"/>
<path d="M3 18H34" stroke="#33A648" stroke-width="2" stroke-linecap="round" stroke-linejoin="round"/>
<path d="M37.2956 30.6269H40.774C40.3172 31.5873 39.392 32.29 38.1154 32.29C37.3073 32.29 36.4991 31.9855 35.9721 31.4468L34.8477 32.8522C35.7027 33.7306 36.9325 34.1405 38.092 34.1405C40.9497 34.1405 43.1984 31.7396 43.1984 29.1044C43.1984 27.1016 41.8867 25.4854 39.2983 25.4854C37.8109 25.4854 36.8739 26.0241 35.9838 26.7268L36.8505 28.2494C37.6469 27.6287 38.3613 27.3359 39.2046 27.3359C40.2236 27.3359 40.9965 27.8044 41.0785 28.9873H37.6118L37.2956 30.6269ZM43.6288 34H45.6784L46.3343 30.6035H47.2947L48.4073 34H50.5857L49.0632 29.7603V29.7368L52.2371 25.6259H49.8596L47.4586 28.8584H46.6739L47.3064 25.6259H45.2568L43.6288 34ZM51.6425 30.4278C51.6425 32.6063 53.1416 34.1405 55.5894 34.1405C56.8192 34.1405 58.1661 33.6018 58.9508 32.8991L58.1543 31.2711C57.4633 31.8216 56.6084 32.2666 55.7065 32.2666C54.3831 32.2666 53.7623 31.3648 53.7623 30.2873C53.7623 28.9638 54.7696 27.3593 56.6318 27.3593C57.3814 27.3593 58.1426 27.6755 58.6345 28.0972L59.794 26.6917C58.9859 25.825 57.6976 25.4854 56.5615 25.4854C53.8678 25.4854 51.6425 27.7341 51.6425 30.4278ZM59.7214 34H61.771L62.4269 30.6035H63.3872L64.4999 34H66.6783L65.1557 29.7603V29.7368L68.3297 25.6259H65.9522L63.5512 28.8584H62.7665L63.3989 25.6259H61.3493L59.7214 34ZM74.2869 34L75.9149 25.6259H70.2931L69.7544 28.3782C69.1805 31.3297 68.3489 32.1027 67.3417 32.2315L66.9786 34.0937C69.4147 34.0937 70.8904 32.5243 71.6985 28.4017L71.8977 27.3827H73.5256L72.2373 34H74.2869ZM76.0656 34H78.1152L78.7476 30.7206H79.9188C80.0594 32.7234 81.5351 34.1405 83.7838 34.1405C86.2784 34.1405 88.6443 31.845 88.6443 29.1395C88.6443 27.0196 87.11 25.4854 84.7559 25.4854C82.6946 25.4854 80.7738 26.9845 80.1296 28.9756H79.0873L79.7431 25.6259H77.6935L76.0656 34ZM82.0153 30.2873C82.0153 28.6476 83.3621 27.3593 84.7324 27.3593C85.7865 27.3593 86.5244 28.1206 86.5244 29.2684C86.5244 30.9549 85.1541 32.2666 83.8072 32.2666C82.7531 32.2666 82.0153 31.4702 82.0153 30.2873ZM88.5111 32.8639C89.1319 33.6604 90.2211 34.1405 91.3571 34.1405C93.0437 34.1405 94.7888 33.0748 94.7888 31.3414C94.7888 30.5684 94.3671 29.9711 93.7932 29.7017L93.8049 29.6783C94.6951 29.3152 95.2924 28.5305 95.2924 27.5818C95.2924 26.1764 94.0977 25.4854 92.6455 25.4854C91.9076 25.4854 90.8067 25.6845 89.8112 26.4692L90.5373 27.9566C91.3337 27.3944 91.8842 27.2656 92.3058 27.2656C92.9031 27.2656 93.1257 27.535 93.1257 27.9566C93.1257 28.5773 92.5401 28.9873 91.9662 28.9873H90.9472L90.631 30.6269H91.8373C92.4464 30.6269 92.6923 30.8495 92.6923 31.2594C92.6923 31.9738 92.0247 32.3486 91.3454 32.3486C90.7481 32.3486 90.104 32.0558 89.6823 31.5522L88.5111 32.8639ZM95.6351 34H97.6964L100.788 30.0999C101.222 29.5494 101.761 28.671 101.761 28.671H101.784C101.784 28.671 101.515 29.5729 101.421 30.0999L100.66 34H102.709L104.337 25.6259H102.264L99.1839 29.5377C98.7505 30.0882 98.2001 30.9666 98.2001 30.9666H98.1766C98.1766 30.9666 98.446 30.0648 98.5514 29.5377L99.3127 25.6259H97.2631L95.6351 34ZM104.488 34H107.919C108.376 34 108.833 33.9532 109.255 33.8126C110.414 33.4495 111.304 32.5594 111.304 31.2243C111.304 30.5567 111.023 29.8891 110.297 29.6197V29.5963C111.117 29.1864 111.597 28.3782 111.597 27.617C111.597 26.7737 111.117 26.1061 110.273 25.8133C109.864 25.6728 109.36 25.6259 108.809 25.6259H106.116L104.488 34ZM107.533 28.8701L107.826 27.3827H108.845C109.313 27.3827 109.489 27.617 109.489 27.9332C109.489 28.39 109.161 28.8701 108.587 28.8701H107.533ZM106.877 32.2432L107.217 30.5098H108.458C108.962 30.5098 109.196 30.7909 109.196 31.1657C109.196 31.5288 108.997 31.9036 108.681 32.1027C108.517 32.1964 108.329 32.2432 108.107 32.2432H106.877ZM112.105 34H114.155L114.787 30.7206H117.832L117.2 34H119.249L120.877 25.6259H118.828L118.172 28.9756H115.127L115.783 25.6259H113.733L112.105 34ZM128.054 34H130.103L131.731 25.6259H129.682L128.054 34ZM121.026 34H124.446C126.414 34 127.749 32.3369 127.749 30.6738C127.749 29.2098 126.882 28.2143 125.454 28.2143H124.2L124.704 25.6259H122.654L121.026 34ZM123.416 32.2432L123.861 29.9711H124.751C125.348 29.9711 125.653 30.3107 125.653 30.8026C125.653 31.5756 125.126 32.2432 124.341 32.2432H123.416ZM137.245 25.2511C138.381 25.2511 139.493 24.7241 139.704 23.3304H138.228C138.135 23.9511 137.748 24.1619 137.35 24.1619C136.94 24.1619 136.753 23.8925 136.753 23.588C136.753 23.506 136.764 23.4124 136.788 23.3304H135.265C135.218 23.5529 135.207 23.67 135.207 23.7754C135.207 24.6304 136.003 25.2511 137.245 25.2511ZM131.881 34H133.942L137.034 30.0999C137.467 29.5494 138.006 28.671 138.006 28.671H138.029C138.029 28.671 137.76 29.5729 137.666 30.0999L136.905 34H138.955L140.583 25.6259H138.51L135.429 29.5377C134.996 30.0882 134.445 30.9666 134.445 30.9666H134.422C134.422 30.9666 134.691 30.0648 134.797 29.5377L135.558 25.6259H133.509L131.881 34ZM37.8343 46.2549C38.6659 45.0603 39.2866 43.0224 39.5208 41.7692L39.5911 41.3827H41.2659L40.329 46.2549H37.8343ZM34.1216 49.6397H35.9955L36.3235 48H41.1605L40.8326 49.6397H42.6479L43.3155 46.2549H42.3786L43.6669 39.6259H37.9866L37.6001 41.6052C37.3073 43.1161 36.6865 44.8612 35.6559 46.2549H34.7892L34.1216 49.6397ZM44.2922 48H46.3535L49.4455 44.0999C49.8788 43.5494 50.4176 42.671 50.4176 42.671H50.441C50.441 42.671 50.1716 43.5729 50.0779 44.0999L49.3166 48H51.3662L52.9942 39.6259H50.9212L47.8409 43.5377C47.4076 44.0882 46.8571 44.9666 46.8571 44.9666H46.8337C46.8337 44.9666 47.1031 44.0648 47.2085 43.5377L47.9698 39.6259H45.9202L44.2922 48ZM53.461 44.4278C53.461 46.6063 54.9602 48.1405 57.408 48.1405C58.6377 48.1405 59.9846 47.6018 60.7693 46.8991L59.9729 45.2711C59.2819 45.8216 58.4269 46.2666 57.5251 46.2666C56.2016 46.2666 55.5809 45.3648 55.5809 44.2873C55.5809 42.9638 56.5881 41.3593 58.4504 41.3593C59.1999 41.3593 59.9612 41.6755 60.4531 42.0972L61.6126 40.6917C60.8045 39.825 59.5161 39.4854 58.3801 39.4854C55.6863 39.4854 53.461 41.7341 53.461 44.4278ZM63.3202 48H65.3698L66.6581 41.3827H69.1879L69.5275 39.6259H62.4183L62.0787 41.3827H64.6085L63.3202 48ZM68.94 48H70.9896L71.4932 45.4116H73.0509C73.496 45.4116 73.941 45.318 74.3392 45.1306C75.4636 44.6035 76.26 43.4089 76.26 42.0035C76.26 41.0314 75.8267 40.2584 75.042 39.8836C74.6789 39.7079 74.2573 39.6259 73.7653 39.6259H70.568L68.94 48ZM71.8329 43.6548L72.2779 41.3827H73.3086C73.8708 41.3827 74.1518 41.6989 74.1518 42.1908C74.1518 42.7413 73.9059 43.2215 73.5194 43.4792C73.332 43.608 73.0861 43.6548 72.8284 43.6548H71.8329ZM76.2829 48H78.3442L81.4362 44.0999C81.8695 43.5494 82.4083 42.671 82.4083 42.671H82.4317C82.4317 42.671 82.1623 43.5729 82.0686 44.0999L81.3073 48H83.3569L84.9849 39.6259H82.9119L79.8316 43.5377C79.3983 44.0882 78.8478 44.9666 78.8478 44.9666H78.8244C78.8244 44.9666 79.0938 44.0648 79.1992 43.5377L79.9604 39.6259H77.9108L76.2829 48ZM85.1355 48H88.7311C90.5113 48 91.9168 46.5711 91.9168 45.0017C91.9168 43.6314 91.0149 42.6828 89.5275 42.6828H88.2158L88.4734 41.3827H91.8699L92.2096 39.6259H86.7635L85.1355 48ZM87.5248 46.2432L87.8761 44.4396H88.8833C89.5041 44.4396 89.7969 44.7324 89.7969 45.154C89.7969 45.845 89.1761 46.2432 88.5671 46.2432H87.5248ZM92.5699 48H96.1069C98.0745 48 99.4097 46.3369 99.4097 44.6738C99.4097 43.2098 98.543 42.2143 97.1141 42.2143H95.7438L96.2474 39.6259H94.1978L92.5699 48ZM94.9591 46.2432L95.4042 43.9711H96.4114C97.0087 43.9711 97.325 44.3107 97.325 44.8026C97.325 45.5756 96.7862 46.2432 96.0015 46.2432H94.9591ZM99.9242 48H101.974L102.606 44.7206H103.777C103.918 46.7234 105.394 48.1405 107.642 48.1405C110.137 48.1405 112.503 45.845 112.503 43.1395C112.503 41.0196 110.969 39.4854 108.614 39.4854C106.553 39.4854 104.632 40.9845 103.988 42.9756H102.946L103.602 39.6259H101.552L99.9242 48ZM105.874 44.2873C105.874 42.6476 107.221 41.3593 108.591 41.3593C109.645 41.3593 110.383 42.1206 110.383 43.2684C110.383 44.9549 109.013 46.2666 107.666 46.2666C106.612 46.2666 105.874 45.4702 105.874 44.2873ZM114.434 48H116.484L117.772 41.3827H120.302L120.642 39.6259H113.533L113.193 41.3827H115.723L114.434 48ZM120.256 44.4044C120.256 46.5711 121.79 48.1405 124.191 48.1405C126.721 48.1405 129.11 45.845 129.11 43.1395C129.11 41.0196 127.552 39.4854 125.163 39.4854C122.598 39.4854 120.256 41.7458 120.256 44.4044ZM122.364 44.2873C122.364 42.6476 123.734 41.3593 125.14 41.3593C126.229 41.3593 126.99 42.1206 126.99 43.2684C126.99 44.9549 125.585 46.2666 124.214 46.2666C123.125 46.2666 122.364 45.4702 122.364 44.2873ZM129.559 48H131.608L132.112 45.4116H133.67C134.115 45.4116 134.56 45.318 134.958 45.1306C136.082 44.6035 136.879 43.4089 136.879 42.0035C136.879 41.0314 136.445 40.2584 135.661 39.8836C135.298 39.7079 134.876 39.6259 134.384 39.6259H131.187L129.559 48ZM132.452 43.6548L132.897 41.3827H133.927C134.49 41.3827 134.771 41.6989 134.771 42.1908C134.771 42.7413 134.525 43.2215 134.138 43.4792C133.951 43.608 133.705 43.6548 133.447 43.6548H132.452ZM35.7964 62H37.2838V59.5873H39.8371V62H41.3245V56.0269H39.8371V58.3341H37.2838V56.0269H35.7964V62ZM42.4652 60.3486C42.4652 61.4378 43.3553 62.1405 44.4328 62.1405C45.241 62.1405 45.9554 61.6955 46.3185 61.063H46.3419C46.3419 61.063 46.3067 61.2504 46.3067 61.4964V62H47.6888V58.2639C47.6888 56.753 46.7635 55.8863 45.2058 55.8863C44.3157 55.8863 43.3553 56.226 42.8634 56.6242L43.4139 57.69C43.8941 57.362 44.4914 57.1161 45.077 57.1161C45.6977 57.1161 46.2013 57.3855 46.2013 58.1702V58.2522H45.9437C44.6202 58.2522 42.4652 58.5567 42.4652 60.3486ZM43.9409 60.2198C43.9409 59.3765 45.2058 59.2711 45.9554 59.2711H46.2131V59.4351C46.2131 60.1612 45.6743 61.0045 44.8427 61.0045C44.2454 61.0045 43.9409 60.618 43.9409 60.2198ZM53.5229 62H54.9986V57.2918H56.9779V56.0269H51.5553V57.2918H53.5229V62ZM57.4734 59.0134C57.4734 60.7117 58.7149 62.1405 60.6942 62.1405C61.5492 62.1405 62.4861 61.8243 63.0952 61.2856L62.5096 60.2198C62.0294 60.6063 61.4086 60.8756 60.7996 60.8756C59.8978 60.8756 59.1014 60.3369 59.0077 59.2945H63.1186C63.142 59.1071 63.1654 58.908 63.1654 58.7206C63.1654 57.1395 62.2285 55.8863 60.5185 55.8863C58.7266 55.8863 57.4734 57.1747 57.4734 59.0134ZM59.0428 58.2756C59.1834 57.5143 59.7221 57.0107 60.4834 57.0107C61.151 57.0107 61.6663 57.4792 61.678 58.2756H59.0428ZM64.4016 64.3424H65.889V61.8126C65.889 61.5081 65.8539 61.2973 65.8539 61.2973H65.8773C66.2989 61.836 66.9197 62.1405 67.599 62.1405C69.1684 62.1405 70.3279 60.9108 70.3279 59.0134C70.3279 57.1629 69.2972 55.8863 67.681 55.8863C66.8728 55.8863 66.1467 56.2494 65.7602 56.8936H65.7368C65.7368 56.8936 65.7602 56.6945 65.7602 56.4719V56.0269H64.4016V64.3424ZM65.8422 59.0486C65.8422 57.7251 66.5683 57.1629 67.353 57.1629C68.2197 57.1629 68.8287 57.9008 68.8287 59.0369C68.8287 60.2198 68.1494 60.8874 67.3296 60.8874C66.3575 60.8874 65.8422 59.9738 65.8422 59.0486ZM71.5958 64.3424H73.0832V61.8126C73.0832 61.5081 73.0481 61.2973 73.0481 61.2973H73.0715C73.4931 61.836 74.1139 62.1405 74.7932 62.1405C76.3626 62.1405 77.5221 60.9108 77.5221 59.0134C77.5221 57.1629 76.4914 55.8863 74.8752 55.8863C74.067 55.8863 73.3409 56.2494 72.9544 56.8936H72.931C72.931 56.8936 72.9544 56.6945 72.9544 56.4719V56.0269H71.5958V64.3424ZM73.0364 59.0486C73.0364 57.7251 73.7625 57.1629 74.5472 57.1629C75.4139 57.1629 76.0229 57.9008 76.0229 59.0369C76.0229 60.2198 75.3436 60.8874 74.5238 60.8874C73.5517 60.8874 73.0364 59.9738 73.0364 59.0486ZM78.79 62H80.2306L82.4441 58.8143C82.5964 58.5801 82.8189 58.2639 82.8892 58.0999H82.9126C82.9009 58.2522 82.8775 58.5918 82.8775 58.8143V62H84.2946V56.0269H82.854L80.6405 59.2243C80.4882 59.4585 80.2657 59.7864 80.1954 59.9387H80.172C80.1837 59.845 80.2071 59.4936 80.2071 59.2243V56.0269H78.79V62ZM87.2864 62H88.7621V57.2918H90.7414V56.0269H85.3188V57.2918H87.2864V62ZM91.2369 59.0134C91.2369 60.8522 92.7009 62.1405 94.5163 62.1405C96.3316 62.1405 97.7956 60.8522 97.7956 59.0134C97.7956 57.1864 96.3316 55.8863 94.5046 55.8863C92.7009 55.8863 91.2369 57.1864 91.2369 59.0134ZM92.7478 59.0134C92.7478 57.9125 93.5442 57.1512 94.5163 57.1512C95.4884 57.1512 96.2965 57.9125 96.2965 59.0134C96.2965 60.1261 95.4884 60.8756 94.5163 60.8756C93.5442 60.8756 92.7478 60.1261 92.7478 59.0134ZM99.0229 64.3424H100.51V61.8126C100.51 61.5081 100.475 61.2973 100.475 61.2973H100.499C100.92 61.836 101.541 62.1405 102.22 62.1405C103.79 62.1405 104.949 60.9108 104.949 59.0134C104.949 57.1629 103.919 55.8863 102.302 55.8863C101.494 55.8863 100.768 56.2494 100.382 56.8936H100.358C100.358 56.8936 100.382 56.6945 100.382 56.4719V56.0269H99.0229V64.3424ZM100.463 59.0486C100.463 57.7251 101.19 57.1629 101.974 57.1629C102.841 57.1629 103.45 57.9008 103.45 59.0369C103.45 60.2198 102.771 60.8874 101.951 60.8874C100.979 60.8874 100.463 59.9738 100.463 59.0486ZM106.217 62H107.658L109.871 58.8143C110.024 58.5801 110.246 58.2639 110.316 58.0999H110.34C110.328 58.2522 110.305 58.5918 110.305 58.8143V62H111.722V56.0269H110.281L108.068 59.2243C107.915 59.4585 107.693 59.7864 107.623 59.9387H107.599C107.611 59.845 107.634 59.4936 107.634 59.2243V56.0269H106.217V62ZM113.32 62H114.76L116.974 58.8143C117.126 58.5801 117.349 58.2639 117.419 58.0999H117.442C117.431 58.2522 117.407 58.5918 117.407 58.8143V62H118.824V56.0269H117.384L115.17 59.2243C115.018 59.4585 114.796 59.7864 114.725 59.9387H114.702C114.714 59.845 114.737 59.4936 114.737 59.2243V56.0269H113.32V62ZM123.561 62H125.072V59.1306H126.77C128.328 59.1306 129.417 58.0062 129.417 56.39C129.417 54.7737 128.328 53.6845 126.77 53.6845H123.561V62ZM125.072 57.8188V54.9845H126.513C127.368 54.9845 127.883 55.535 127.883 56.39C127.883 57.2566 127.368 57.8188 126.489 57.8188H125.072ZM130.112 57.5729C130.112 59.6342 131.658 61.0865 133.918 61.0865V62.1405H135.429V61.0865C137.701 61.0865 139.236 59.6342 139.236 57.5729C139.236 55.5467 137.69 54.1295 135.429 54.1295V53.216H133.918V54.1295C131.658 54.1295 130.112 55.5467 130.112 57.5729ZM135.429 59.8216V55.3944C136.776 55.3944 137.701 56.2728 137.701 57.5729C137.701 58.908 136.776 59.8216 135.429 59.8216ZM131.658 57.5729C131.658 56.2728 132.583 55.3944 133.918 55.3944V59.8216C132.583 59.8216 131.658 58.908 131.658 57.5729Z" fill="#32599E"/>
</g>
<defs>
<clipPath id="clip0_2232_32706">
<rect width="153" height="79" fill="white"/>
</clipPath>
</defs>
</svg>
