<svg width="186" height="77" viewBox="0 0 186 77" fill="none" xmlns="http://www.w3.org/2000/svg">
<path d="M18.5815 67.1462L20.5246 61.0554H19.796L20.1603 59.8372H20.889L21.1319 59.1063C21.1319 58.8627 21.2533 58.7409 21.3747 58.619C21.4962 58.4972 21.4962 58.3754 21.6176 58.1318C21.7391 58.01 21.8605 57.8881 21.982 57.7663C22.1034 57.6445 22.3463 57.6445 22.5892 57.5227C22.8321 57.4009 23.075 57.4009 23.4393 57.4009H23.9251L23.5607 58.7409C23.3178 58.7409 23.075 58.7409 22.9535 58.8627C22.8321 58.8627 22.7106 59.1063 22.7106 59.2281L22.4677 59.8372H23.1964L22.8321 61.0554H22.1034L20.1603 67.1462H18.5815Z" fill="black"/>
<path d="M22.5885 65.929C22.5885 65.6853 22.71 65.4417 22.71 65.3199L24.4102 59.8381H26.1104L24.4102 65.1981C24.4102 65.3199 24.4102 65.4417 24.4102 65.4417C24.4102 65.8071 24.5316 66.0508 25.0174 66.0508C25.6246 66.0508 25.9889 65.8071 26.1104 65.1981L27.6891 59.8381H29.3894L27.0819 67.1471H25.5032L25.746 66.4162C25.1388 67.0253 24.5316 67.3908 23.9244 67.3908C23.4386 67.3908 23.0743 67.2689 22.9528 67.0253C22.5885 66.7817 22.4671 66.4162 22.5885 65.929Z" fill="black"/>
<path d="M28.7828 66.294C28.7828 66.1722 28.7828 66.0504 28.9042 65.9286L30.3616 61.1777H29.6329L29.9972 59.8377H30.7259L31.3331 57.8887H33.0333L32.4261 59.8377H33.1548L32.7904 61.0559H32.0618L30.7259 65.1977C30.6044 65.3195 30.6044 65.4413 30.6044 65.5631C30.6044 65.6849 30.6044 65.8067 30.7259 65.8067C30.8473 65.8067 30.9688 65.9286 31.2117 65.9286L30.8473 67.1467C30.6044 67.1467 30.3616 67.1467 29.9972 67.1467C29.0257 67.2685 28.6613 66.9031 28.7828 66.294Z" fill="black"/>
<path d="M32.4256 65.929C32.4256 65.6853 32.547 65.4417 32.547 65.3199L34.2472 59.8381H35.9474L34.2472 65.1981C34.2472 65.3199 34.2472 65.4417 34.2472 65.4417C34.2472 65.8071 34.3687 66.0508 34.8544 66.0508C35.4617 66.0508 35.826 65.8071 35.9474 65.1981L37.5262 59.8381H39.2264L36.919 67.1471H35.2188L35.4617 66.4162C34.8544 67.0253 34.2472 67.3908 33.64 67.3908C33.1542 67.3908 32.7899 67.2689 32.6685 67.0253C32.4256 66.7817 32.3041 66.4162 32.4256 65.929Z" fill="black"/>
<path d="M38.1328 67.1464L40.4402 59.8374H42.019L41.5332 61.1774C42.1404 60.2028 42.8691 59.7156 43.7192 59.7156L43.112 61.5428C42.9906 61.5428 42.8691 61.5428 42.7477 61.5428C42.6262 61.5428 42.5048 61.5428 42.3833 61.5428C42.2619 61.5428 42.1404 61.6646 42.019 61.6646C41.8976 61.7865 41.7761 61.7865 41.6547 61.9083C41.5332 62.0301 41.4118 62.1519 41.2903 62.3955C41.1689 62.6392 41.0475 62.761 40.926 63.0046L39.7116 67.0246H38.1328V67.1464Z" fill="black"/>
<path d="M42.7476 65.6846C42.7476 65.4409 42.869 65.1973 42.7476 65.1973L43.7191 62.1519C44.0834 61.1774 44.4478 60.5683 45.055 60.2028C45.6622 59.8374 46.2694 59.5938 47.1195 59.5938C47.7267 59.5938 48.334 59.7156 48.5769 59.9592C48.9412 60.2028 49.0626 60.6901 49.0626 61.1774C49.0626 61.421 48.9412 61.5428 48.9412 61.9083L48.334 63.8573H44.9335L44.4478 65.3191C44.4478 65.4409 44.4478 65.4409 44.4478 65.5628C44.4478 65.9282 44.6907 66.05 45.055 66.05C45.2979 66.05 45.5408 65.9282 45.7837 65.8064C46.0265 65.6846 46.148 65.4409 46.148 65.1973L46.2694 64.8319H47.9696C47.7268 65.6846 47.3624 66.2937 46.7552 66.7809C46.148 67.1464 45.4193 67.39 44.6907 67.39C44.0834 67.39 43.4762 67.2682 43.2333 67.0246C42.869 66.6591 42.7476 66.2937 42.7476 65.6846ZM45.2979 62.6392H46.9981L47.3624 61.6646C47.3624 61.5428 47.3624 61.5428 47.3624 61.421C47.3624 61.1774 47.3624 61.0555 47.241 60.9337C47.1195 60.8119 46.9981 60.8119 46.7552 60.8119C46.5123 60.8119 46.2694 60.9337 46.0265 61.0555C45.7837 61.1774 45.6622 61.421 45.6622 61.6646L45.2979 62.6392Z" fill="black"/>
<path d="M51.615 67.9991H53.1938C53.1938 68.2427 53.4367 68.3645 53.801 68.3645C54.0439 68.3645 54.2868 68.2427 54.4082 68.1209C54.6511 67.9991 54.7725 67.7554 54.7725 67.6336L55.1369 66.4155C54.894 66.6591 54.6511 66.9027 54.2868 67.1464C53.9224 67.2682 53.6796 67.39 53.4367 67.39C52.9509 67.39 52.5866 67.2682 52.3437 67.0245C52.1008 66.7809 51.9793 66.4155 51.9793 65.9282C51.9793 65.8064 51.9793 65.5628 52.1008 65.3191L53.1938 61.6646C53.4367 60.9337 53.801 60.4465 54.2868 60.081C54.7725 59.7156 55.2583 59.5938 55.8655 59.5938C56.2299 59.5938 56.4728 59.7156 56.5942 59.8374C56.8371 59.9592 56.9585 60.2028 56.9585 60.3247L57.08 59.8374H58.6587L56.2299 67.39C55.987 68.2427 55.6227 68.73 55.1369 69.2172C54.6511 69.5827 54.0439 69.8263 53.1938 69.8263C52.4651 69.8263 51.8579 69.7045 51.615 69.4609C51.615 69.0954 51.4936 68.6082 51.615 67.9991ZM54.0439 65.4409C54.0439 65.6846 54.0439 65.8064 54.1653 65.9282C54.2868 66.05 54.4082 66.05 54.6511 66.05C54.894 66.05 55.1369 65.9282 55.2583 65.8064C55.5012 65.6846 55.6227 65.4409 55.7441 65.1973L56.8371 61.7864C56.8371 61.6646 56.8371 61.5428 56.8371 61.5428C56.8371 61.2992 56.8371 61.1774 56.7156 61.0555C56.5942 60.9337 56.4728 60.9337 56.2299 60.9337C55.987 60.9337 55.7441 61.0555 55.6227 61.1774C55.3798 61.2992 55.2583 61.5428 55.1369 61.7864L54.0439 65.0755C54.0439 65.1973 54.0439 65.3191 54.0439 65.4409Z" fill="black"/>
<path d="M58.4155 65.6843C58.4155 65.4407 58.537 65.197 58.537 65.197L59.5085 62.1516C59.7514 61.0553 60.2372 60.568 60.8444 60.0808C61.4516 59.7153 62.0588 59.4717 62.9089 59.4717C63.5162 59.4717 64.1234 59.5935 64.3663 59.8371C64.7306 60.0808 64.852 60.568 64.852 61.0553C64.852 61.2989 64.7306 61.4207 64.7306 61.7862L64.1234 63.7353H60.723L60.2372 65.197C60.2372 65.3189 60.2372 65.3189 60.2372 65.4407C60.2372 65.8061 60.4801 65.9279 60.8444 65.9279C61.0873 65.9279 61.3302 65.8061 61.5731 65.6843C61.816 65.5625 61.9374 65.3189 61.9374 65.0752L62.0588 64.7098H63.759C63.5162 65.5625 63.1518 66.1716 62.5446 66.6588C61.9374 67.0243 61.2087 67.2679 60.4801 67.2679C59.8729 67.2679 59.2656 67.1461 59.0227 66.9025C58.537 66.6588 58.4155 66.2934 58.4155 65.6843ZM61.0873 62.6389H62.7875L63.0304 61.6644C63.0304 61.5426 63.0304 61.5426 63.0304 61.4207C63.0304 61.1771 63.0304 61.0553 62.9089 60.9335C62.7875 60.8117 62.6661 60.8117 62.4232 60.8117C62.1803 60.8117 61.9374 60.9335 61.6945 61.0553C61.4516 61.1771 61.3302 61.4207 61.3302 61.6644L61.0873 62.6389Z" fill="black"/>
<path d="M64.2432 67.1464L66.5506 59.8374H68.2508L68.0079 60.4465C68.2508 60.2028 68.4937 60.081 68.7366 59.8374C68.9795 59.7156 69.3438 59.5938 69.7081 59.5938C70.1939 59.5938 70.5582 59.7156 70.6797 59.9592C70.9226 60.2028 71.044 60.5683 70.9226 61.0555C70.9226 61.2992 70.8011 61.5428 70.8011 61.7864L69.1009 67.2682H67.4007L69.1009 62.0301C69.1009 61.9083 69.1009 61.9083 69.1009 61.6646C69.1009 61.2992 68.9795 61.0555 68.4937 61.0555C68.2508 61.0555 68.0079 61.1774 67.8865 61.2992C67.6436 61.421 67.5221 61.6646 67.5221 61.9083L65.8219 67.1464H64.2432Z" fill="black"/>
<path d="M70.9229 65.6846C70.9229 65.4409 71.0443 65.1973 71.0443 64.9537L72.0158 61.9083C72.2587 61.0555 72.6231 60.5683 73.2303 60.2028C73.8375 59.8374 74.4447 59.5938 75.2948 59.5938C75.9021 59.5938 76.5093 59.7156 76.7522 59.9592C77.1165 60.2028 77.2379 60.6901 77.2379 61.1774C77.2379 61.421 77.1165 61.5428 77.1165 61.9083L76.5093 63.9791H73.1088L72.7445 65.4409C72.7445 65.5628 72.7445 65.5628 72.7445 65.6846C72.7445 66.05 72.9874 66.1718 73.3517 66.1718C73.5946 66.1718 73.8375 66.05 74.0804 65.9282C74.3233 65.8064 74.4447 65.5628 74.4447 65.3191L74.5662 64.9537H76.2664C76.0235 65.8064 75.6592 66.4155 75.0519 66.9027C74.3233 67.1464 73.7161 67.39 72.866 67.39C72.2587 67.39 71.6515 67.2682 71.4086 67.0246C71.0443 66.6591 70.9229 66.2937 70.9229 65.6846ZM73.4732 62.761H75.1734L75.5377 61.7864C75.5377 61.6646 75.5377 61.6646 75.5377 61.5428C75.5377 61.2992 75.5377 61.1774 75.4163 61.0555C75.2948 60.9337 75.1734 60.9337 74.9305 60.9337C74.6876 60.9337 74.4447 61.0556 74.2018 61.1774C73.9589 61.2992 73.8375 61.5428 73.8375 61.7864L73.4732 62.761Z" fill="black"/>
<path d="M76.7529 67.1464L79.0604 59.8374H80.6391L80.1534 61.1774C80.7606 60.2028 81.4892 59.7156 82.3393 59.7156L81.7321 61.5428C81.6107 61.5428 81.4892 61.5428 81.3678 61.5428C81.2463 61.5428 81.1249 61.5428 81.0035 61.5428C80.882 61.5428 80.7606 61.6646 80.6391 61.6646C80.5177 61.7865 80.3962 61.7865 80.2748 61.9083C80.1533 62.0301 80.0319 62.1519 79.9105 62.3955C79.789 62.6392 79.6676 62.761 79.5461 63.0046L78.3317 67.0246H76.7529V67.1464Z" fill="black"/>
<path d="M81.2459 65.9282C81.3673 65.1973 81.6102 64.5882 82.096 64.101C82.5818 63.6137 83.189 63.2482 84.0391 62.8828C84.7678 62.6392 85.2535 62.3955 85.4964 62.1519C85.8608 61.9083 85.9822 61.6646 85.9822 61.421C85.9822 61.0555 85.8608 60.9337 85.375 60.9337C85.1321 60.9337 84.8892 61.0556 84.6463 61.1774C84.4034 61.2992 84.282 61.6646 84.1605 62.0301H82.5818C82.7032 61.5428 82.9461 61.0555 83.3104 60.6901C83.6748 60.3247 84.0391 60.081 84.5249 59.8374C85.0106 59.5938 85.375 59.5938 85.8608 59.5938C86.468 59.5938 87.0752 59.7156 87.4395 59.9592C87.8039 60.2028 87.9253 60.5683 87.9253 61.0555C87.9253 61.1774 87.9253 61.2992 87.8039 61.5428L86.2251 66.05C86.1036 66.4155 86.1036 66.6591 86.1036 66.7809C86.1036 66.9027 86.1036 67.0245 86.1036 67.1464H84.4034C84.4034 67.1464 84.4034 67.0245 84.4034 66.9027C84.4034 66.7809 84.4034 66.6591 84.5249 66.4155C84.282 66.7809 83.9177 66.9027 83.6748 67.1464C83.3104 67.2682 82.9461 67.39 82.5818 67.39C82.096 67.39 81.7317 67.2682 81.4888 67.0246C81.2459 66.7809 81.1244 66.4155 81.2459 65.9282ZM83.0675 65.4409C83.0675 65.6846 83.0675 65.8064 83.189 65.9282C83.3104 66.05 83.4319 66.05 83.5533 66.05C83.7962 66.05 84.1605 65.9282 84.4034 65.8064C84.6463 65.6846 84.7678 65.4409 84.8892 65.0755L85.375 63.2482L84.0391 63.9791C83.7962 64.101 83.5533 64.3446 83.3104 64.5882C83.189 64.9537 83.0675 65.1973 83.0675 65.4409Z" fill="black"/>
<path d="M87.6816 66.294C87.6816 66.1722 87.6816 66.0504 87.803 65.9286L89.2603 61.1777H88.5317L88.896 59.8377H89.6247L90.2319 57.8887H91.9321L91.3249 59.8377H92.0535L91.6892 61.1777H90.9605L89.6247 65.3195C89.5032 65.4413 89.5032 65.5631 89.5032 65.6849C89.5032 65.8067 89.5032 65.9286 89.6247 65.9286C89.7461 65.9286 89.8675 66.0504 90.1104 66.0504L89.7461 67.2685C89.5032 67.2685 89.2603 67.2685 88.896 67.2685C88.0459 67.2685 87.5601 66.9031 87.6816 66.294Z" fill="black"/>
<path d="M90.8398 67.1467L93.1473 59.8377H94.8475L92.54 67.1467H90.8398ZM93.3902 59.1068L93.8759 57.8887H95.5761L95.0904 59.1068H93.3902Z" fill="black"/>
<path d="M94.2407 65.6846C94.2407 65.4409 94.3622 65.1973 94.3622 64.9537L95.3337 62.0301C95.4552 61.6646 95.5766 61.421 95.8195 61.0555C95.9409 60.8119 96.1838 60.5683 96.5482 60.3247C96.791 60.081 97.1554 59.9592 97.5197 59.8374C97.884 59.7156 98.3698 59.5938 98.8556 59.5938C99.5843 59.5938 100.191 59.7156 100.434 60.081C100.799 60.4465 100.92 60.8119 100.799 61.2992C100.799 61.5428 100.677 61.7864 100.677 62.0301L99.7057 64.9537C99.5843 65.3191 99.4628 65.5628 99.2199 65.9282C99.0985 66.1718 98.8556 66.4155 98.4913 66.6591C98.2484 66.9027 97.884 67.0245 97.5197 67.1464C97.1554 67.2682 96.7911 67.39 96.3053 67.39C95.5766 67.39 94.9694 67.2682 94.7265 66.9027C94.3622 66.5373 94.2407 66.1718 94.2407 65.6846ZM96.0624 65.5628C96.0624 65.9282 96.3053 66.05 96.791 66.05C97.0339 66.05 97.2768 65.9282 97.5197 65.8064C97.7626 65.6846 97.884 65.4409 98.0055 65.0755L99.0985 61.6646C99.0985 61.5428 99.2199 61.421 99.2199 61.2992C99.2199 61.0555 99.2199 60.9337 99.0985 60.8119C98.977 60.6901 98.8556 60.6901 98.6127 60.6901C98.0055 60.6901 97.6412 60.9337 97.5197 61.5428L96.4267 65.0755C96.0624 65.3191 96.0624 65.4409 96.0624 65.5628Z" fill="black"/>
<path d="M100.19 67.1464L102.497 59.8374H104.198L103.955 60.4465C104.198 60.2028 104.44 60.081 104.683 59.8374C104.926 59.7156 105.291 59.5938 105.655 59.5938C106.141 59.5938 106.505 59.7156 106.626 59.9592C106.869 60.2028 106.991 60.5683 106.869 61.0555C106.869 61.2992 106.748 61.5428 106.748 61.7864L105.048 67.2682H103.347L105.048 62.0301C105.048 61.9083 105.048 61.9083 105.169 61.6646C105.169 61.2992 105.048 61.0555 104.562 61.0555C104.319 61.0555 104.076 61.1774 103.955 61.2992C103.712 61.421 103.59 61.6646 103.59 61.9083L101.89 67.1464H100.19Z" fill="black"/>
<path d="M110.149 65.6846C110.149 65.4409 110.271 65.1973 110.271 64.9537L111.242 61.9083C111.485 61.0555 111.849 60.5683 112.457 60.2028C113.064 59.8374 113.671 59.5938 114.521 59.5938C115.128 59.5938 115.736 59.7156 115.979 59.9592C116.343 60.2028 116.464 60.6901 116.464 61.1774C116.464 61.421 116.343 61.5428 116.343 61.9083L115.736 63.8573H112.335L111.849 65.3191C111.849 65.4409 111.849 65.4409 111.849 65.5628C111.849 65.9282 112.092 66.05 112.457 66.05C112.7 66.05 112.942 65.9282 113.185 65.8064C113.428 65.6846 113.55 65.4409 113.55 65.1973L113.671 64.8319H115.371C115.128 65.6846 114.764 66.2937 114.157 66.7809C113.55 67.1464 112.821 67.39 112.092 67.39C111.485 67.39 110.878 67.2682 110.635 67.0246C110.149 66.6591 110.028 66.2937 110.149 65.6846ZM112.7 62.761H114.4L114.764 61.7864C114.764 61.6646 114.764 61.6646 114.764 61.5428C114.764 61.2992 114.764 61.1774 114.643 61.0555C114.521 60.9337 114.4 60.9337 114.157 60.9337C113.914 60.9337 113.671 61.0556 113.428 61.1774C113.185 61.2992 113.064 61.5428 113.064 61.7864L112.7 62.761Z" fill="black"/>
<path d="M115.979 67.1464L118.286 59.8374H119.986L119.743 60.4465C119.986 60.2028 120.229 60.081 120.472 59.8374C120.715 59.7156 121.079 59.5938 121.443 59.5938C121.929 59.5938 122.294 59.7156 122.415 59.9592C122.658 60.2028 122.779 60.5683 122.658 61.0555C122.658 61.2992 122.536 61.5428 122.536 61.7864L120.836 67.2682H119.136L120.836 62.0301C120.836 61.9083 120.836 61.9083 120.958 61.6646C120.958 61.2992 120.836 61.0555 120.35 61.0555C120.108 61.0555 119.865 61.1774 119.743 61.2992C119.5 61.421 119.379 61.6646 119.379 61.9083L117.679 67.1464H115.979Z" fill="black"/>
<path d="M122.659 65.6846C122.659 65.4409 122.78 65.1973 122.78 64.9537L123.752 61.9083C123.994 61.0555 124.359 60.5683 124.966 60.2028C125.573 59.8374 126.18 59.5938 127.031 59.5938C127.638 59.5938 128.245 59.7156 128.488 59.9592C128.852 60.2028 128.974 60.6901 128.974 61.1774C128.974 61.421 128.852 61.5428 128.852 61.9083L128.245 63.8573H124.845L124.359 65.3191C124.359 65.4409 124.359 65.4409 124.359 65.5628C124.359 65.9282 124.602 66.05 124.966 66.05C125.209 66.05 125.452 65.9282 125.695 65.8064C125.938 65.6846 126.059 65.4409 126.059 65.1973L126.18 64.8319H127.881C127.638 65.6846 127.273 66.2937 126.666 66.7809C126.059 67.1464 125.33 67.39 124.602 67.39C123.994 67.39 123.387 67.2682 123.144 67.0246C122.659 66.6591 122.537 66.2937 122.659 65.6846ZM125.209 62.761H126.909L127.152 61.7864C127.152 61.6646 127.152 61.6646 127.152 61.5428C127.152 61.2992 127.152 61.1774 127.031 61.0555C126.909 60.9337 126.788 60.9337 126.545 60.9337C126.302 60.9337 126.059 61.0556 125.816 61.1774C125.573 61.2992 125.452 61.5428 125.452 61.7864L125.209 62.761Z" fill="black"/>
<path d="M128.366 67.1464L130.673 59.8374H132.252L131.766 61.1774C132.373 60.2028 133.102 59.7156 133.952 59.7156L133.345 61.5428C133.223 61.5428 133.102 61.5428 132.981 61.5428C132.859 61.5428 132.738 61.5428 132.616 61.5428C132.495 61.5428 132.373 61.6646 132.252 61.6646C132.13 61.7865 132.009 61.7865 131.888 61.9083C131.766 62.0301 131.645 62.1519 131.523 62.3955C131.402 62.6392 131.28 62.761 131.159 63.0046L129.944 67.0246H128.366V67.1464Z" fill="black"/>
<path d="M132.374 67.9991H133.953C133.953 68.2427 134.195 68.3645 134.56 68.3645C134.803 68.3645 135.046 68.2427 135.167 68.1209C135.41 67.9991 135.531 67.7554 135.531 67.6336L135.896 66.4155C135.653 66.6591 135.41 66.9027 135.046 67.1464C134.681 67.2682 134.438 67.39 134.195 67.39C133.71 67.39 133.345 67.2682 133.102 67.0245C132.86 66.7809 132.738 66.4155 132.738 65.9282C132.738 65.8064 132.738 65.5628 132.86 65.3191L133.953 61.6646C134.195 60.9337 134.56 60.4465 135.046 60.081C135.531 59.7156 136.017 59.5938 136.624 59.5938C136.989 59.5938 137.232 59.7156 137.353 59.8374C137.596 59.9592 137.717 60.2028 137.717 60.3247L137.839 59.8374H139.417L136.989 67.39C136.746 68.2427 136.381 68.73 135.896 69.2172C135.41 69.5827 134.803 69.8263 133.953 69.8263C133.224 69.8263 132.617 69.7045 132.374 69.4609C132.374 69.0954 132.252 68.6082 132.374 67.9991ZM134.803 65.4409C134.803 65.6846 134.803 65.8064 134.924 65.9282C135.046 66.05 135.167 66.05 135.41 66.05C135.653 66.05 135.896 65.9282 136.017 65.8064C136.26 65.6846 136.381 65.4409 136.503 65.1973L137.596 61.7864C137.596 61.6646 137.596 61.5428 137.596 61.5428C137.596 61.2992 137.596 61.1774 137.474 61.0555C137.353 60.9337 137.232 60.9337 136.989 60.9337C136.746 60.9337 136.503 61.0555 136.381 61.1774C136.139 61.2992 136.017 61.5428 135.896 61.7864L134.803 65.0755C134.803 65.1973 134.803 65.3191 134.803 65.4409Z" fill="black"/>
<path d="M138.445 69.5835L138.81 68.3653H139.417C139.538 68.3653 139.66 68.3653 139.781 68.2435C139.903 68.1217 139.903 67.9998 140.024 67.878C140.024 67.3908 140.267 64.7108 140.631 59.96H142.453L141.603 65.5635L144.396 59.96H146.096L141.481 68.2435C141.117 68.8526 140.874 69.218 140.51 69.4616C140.146 69.7053 139.781 69.8271 139.295 69.8271C138.931 69.5835 138.688 69.5835 138.445 69.5835Z" fill="black"/>
<path d="M51.0067 41.0779L50.1566 44.1233C48.4564 49.4832 42.6271 55.574 34.6118 55.574H33.1545C29.3897 55.574 22.5889 50.945 25.2606 42.4179L29.9969 26.5817C32.4258 19.0291 39.1052 13.9128 46.149 13.9128H46.8776C54.65 13.9128 57.5647 21.5873 56.3502 25.729L52.9498 36.5707H37.8908L35.219 45.3415C34.9761 45.9505 34.4904 48.3869 36.5549 48.3869C38.3766 48.3869 39.2267 46.1942 39.4696 45.3415L40.8054 40.8343L51.0067 41.0779ZM42.7485 33.6471L45.9061 23.9018C46.8776 21.1 45.4203 20.7346 44.9345 20.6127C44.2059 20.4909 42.3842 21.7091 41.777 23.5363L38.6194 33.6471H42.7485Z" fill="#EF172F"/>
<path d="M62.1795 15.0084H72.8666L72.2594 17.5666C74.6882 15.4957 77.36 13.7903 81.2462 13.7903C86.8326 13.9121 86.5897 19.6375 85.4967 23.5356C84.4037 27.5555 75.7812 54.8424 75.7812 54.8424H64.9727L74.6882 23.7792C75.6598 21.3429 74.5668 20.612 74.081 20.612C73.2309 20.612 71.4093 21.4647 70.4377 23.7792L60.8436 54.8424H50.0352L62.1795 15.0084Z" fill="#EF172F"/>
<path d="M90.355 15.0089H92.9054L95.2128 7.69995H105.778L103.592 15.0089H107.479L105.778 20.6125H101.892C101.892 20.6125 94.4841 44.123 94.2412 45.0976C93.9983 46.0721 93.3911 48.6303 95.82 48.6303C96.3058 48.6303 97.0344 48.143 97.2773 48.0212C97.2773 48.0212 95.4557 53.9902 95.2128 54.4774C94.727 54.8429 93.0268 55.452 90.9623 55.452C86.9546 55.452 81.1253 52.4066 83.3113 45.0976L90.9623 20.4907H88.6548L90.355 15.0089Z" fill="#EF172F"/>
<path d="M123.873 54.8437H113.672L114.157 50.9456C111.243 54.3565 106.871 55.8182 104.442 55.4528C98.0055 54.6001 100.07 48.3874 100.799 46.0729L110.271 15.0098H121.323L111.607 45.8293C111.486 46.3166 111.121 48.6311 112.336 48.6311C113.307 48.6311 114.643 48.022 115.615 46.3166L125.33 15.0098H136.139L123.873 54.8437Z" fill="#EF172F"/>
<path d="M151.563 15.0091L149.862 20.4909C153.384 15.2528 157.878 14.0346 159.214 13.9128C160.185 13.791 161.278 14.0346 161.642 14.2782L157.513 27.5562C157.513 27.5562 154.963 24.9981 151.32 26.8253C148.284 28.2871 146.705 31.0889 145.733 33.8907C144.883 36.5706 139.297 54.8431 139.297 54.8431H128.488L140.633 15.0091H151.563Z" fill="#EF172F"/>
<path d="M160.305 24.9984C163.22 15.9839 170.992 13.6694 174.878 13.6694H176.7C184.108 13.6694 186.78 20.4911 185.808 23.6584L176.093 54.7215H165.406L166.62 50.7016C164.313 53.2597 162.248 55.4524 156.905 55.3306C150.468 55.3306 150.468 48.8744 152.047 43.8799L152.411 42.7835C154.597 36.9364 160.669 34.2564 166.256 32.3073C169.899 30.9674 171.964 30.7237 173.664 27.8001L175 23.5366C175.85 21.4657 174.757 20.2475 173.785 20.3693C172.328 20.3693 171.235 21.4657 170.749 23.6584L169.535 27.6783H159.698L160.305 24.9984ZM171.235 35.3527C167.713 36.2055 166.013 39.2509 165.527 40.469L164.07 45.098C163.948 45.5853 163.098 48.8744 165.163 48.6307C166.499 48.5089 167.592 47.4126 168.199 45.3417L171.235 35.3527Z" fill="#EF172F"/>
<path d="M24.6531 7.69995H22.2242L18.338 20.0034H21.8599L8.74394 48.3866L14.6947 23.0488H10.8085L15.7877 7.69995H15.059H9.47261H4.37197L0 55.2083H15.059L35.3401 7.69995H24.6531Z" fill="#EF172F"/>
</svg>
