<svg width="57" height="50" viewBox="0 0 57 50" fill="none" xmlns="http://www.w3.org/2000/svg">
<path d="M19.6809 45.1501L29.1909 36.3C30.3809 35.37 30.4309 33.5401 29.2409 32.6201L22.4109 27.2801L24.9409 22.4701C24.9409 22.4701 28.0409 24.9501 29.4509 25.6301C29.4509 25.6301 35.0409 23.9501 37.2809 23.0801C39.5209 22.2101 39.5109 18.6101 39.5109 18.6101L30.3509 20.0701C30.3509 20.0701 24.2609 13.7601 22.9209 12.1501C21.1409 10.0201 18.2109 8.77005 15.3309 9.71005L3.38086 13.6101C3.38086 13.6101 6.48088 17.2501 8.93088 16.5301C11.3709 15.8201 15.7609 14.3 15.7609 14.3L18.2409 16.8301C18.2409 16.8301 15.9209 21.6301 14.6709 24.1601C13.4109 26.6901 14.1909 30.1101 19.2009 32.8601L23.1909 34.9701L15.9609 43.6601" stroke="#33A648" stroke-width="2" stroke-linejoin="round"/>
<path d="M5.35938 47.2801L15.7694 35.3701" stroke="#33A648" stroke-width="2" stroke-linejoin="round"/>
<path d="M12.11 31.2598L1 46.1898" stroke="#33A648" stroke-width="2" stroke-linejoin="round"/>
<path d="M48.0491 41.75C50.9591 38.24 52.2891 33.94 52.2891 28.46V11.75H55.8691L49.1491 1L42.7291 11.75H46.3091V28.46C46.3091 40.77 36.0091 48.76 24.8191 48.76H20.0391" stroke="#33A648" stroke-width="2" stroke-linejoin="round"/>
<path d="M33.7891 41.32C40.0391 38.25 40.5491 32.16 40.7391 29.92L40.9391 27.54" stroke="#33A648" stroke-width="2" stroke-linejoin="round"/>
<path d="M31.4007 12.9401C29.0107 12.9401 27.2207 11.1101 27.2207 8.85013V7.48013C27.2207 5.22013 29.0107 3.39014 31.4007 3.39014C33.7907 3.39014 35.5807 5.22013 35.5807 7.48013V8.85013C35.5807 11.1101 33.7907 12.9401 31.4007 12.9401Z" stroke="#33A648" stroke-width="2" stroke-linejoin="round"/>
</svg>
