<svg width="57" height="53" viewBox="0 0 57 53" fill="none" xmlns="http://www.w3.org/2000/svg">
<path d="M18.9089 12.95C21.6889 12.95 23.6889 11 23.6889 8.17V5.78C23.6889 2.95 21.6989 1 18.9089 1C16.1189 1 14.1289 2.95 14.1289 5.78V8.17C14.1289 11 16.1189 12.95 18.9089 12.95Z" stroke="#33A648" stroke-width="2" stroke-linejoin="round"/>
<path d="M11.75 24.8799V36.8199" stroke="#33A648" stroke-width="2" stroke-linejoin="round"/>
<path d="M11.75 47.5698V52.3398" stroke="#33A648" stroke-width="2" stroke-linejoin="round"/>
<path d="M18.9102 36.8198V52.3398" stroke="#33A648" stroke-width="2" stroke-linejoin="round"/>
<path d="M14.13 36.8198H1V47.5698H14.13V36.8198Z" stroke="#33A648" stroke-width="2" stroke-linejoin="round"/>
<path d="M33.6305 12.9502L29.6205 18.9202C28.0305 18.0702 26.1405 16.6302 23.6505 16.5302H15.3405C9.37047 16.5302 6.98047 19.7502 6.98047 23.6902V36.8202" stroke="#33A648" stroke-width="2" stroke-linejoin="round"/>
<path d="M24.8789 52.3399V23.6899L29.2689 26.4999C30.1889 26.9599 31.2989 26.7799 32.0289 26.0499L40.4089 12.9399" stroke="#33A648" stroke-width="2" stroke-linejoin="round"/>
<path d="M49.9491 4.58984H32.0391V9.36984H49.9491V4.58984Z" stroke="#33A648" stroke-width="2" stroke-linejoin="round"/>
<path d="M55.9192 2.2002H49.9492V11.7502H55.9192V2.2002Z" stroke="#33A648" stroke-width="2" stroke-linejoin="round"/>
<path d="M32.0395 6.97998H27.2695" stroke="#33A648" stroke-width="2" stroke-linejoin="round"/>
<path d="M27.2695 5.78027V8.17027" stroke="#33A648" stroke-width="2" stroke-linejoin="round"/>
</svg>
