<svg width="51" height="55" viewBox="0 0 51 55" fill="none" xmlns="http://www.w3.org/2000/svg">
<path d="M12.8756 21.3002L17.2056 24.7102C18.0956 25.3702 19.4056 25.0202 20.0156 24.5402C20.6256 24.0602 20.7056 23.5002 20.7056 22.9402V22.3702C20.7056 21.8702 20.5356 21.3902 20.2256 21.0002C20.2256 21.0002 16.1456 15.7902 15.2456 14.8902C14.3456 13.9902 12.5256 13.0802 11.5156 12.6302C10.4956 12.1802 9.71563 11.6802 7.62563 11.6802C6.30563 11.6802 5.46562 12.2002 4.19562 13.1602L1.95563 14.8502C1.35563 15.3002 1.00562 16.0102 1.00562 16.7602C1.00562 18.5702 0.915625 20.3702 1.45563 22.1002C1.45563 22.1002 2.99563 26.4402 3.24563 27.3702C2.12563 30.0002 2.12563 33.2602 2.12563 33.2602H16.4556V24.1402" stroke="#33A648" stroke-width="2" stroke-linejoin="round"/>
<path d="M13.7659 9.36C13.9659 8.81 14.0659 8.21 14.0659 7.59V5.94C14.0659 3.21 12.0259 1 9.28586 1C6.54586 1 4.50586 3.21 4.50586 5.94V7.59C4.50586 7.84 4.52586 8.08 4.55586 8.32" stroke="#33A648" stroke-width="2" stroke-linejoin="round"/>
<path d="M3.32617 33.2402V54.7302" stroke="#33A648" stroke-width="2" stroke-linejoin="round"/>
<path d="M8.10547 38.0098V54.7298" stroke="#33A648" stroke-width="2" stroke-linejoin="round"/>
<path d="M15.2656 33.2402V54.7302" stroke="#33A648" stroke-width="2" stroke-linejoin="round"/>
<path d="M16.4551 3.38965H49.8851V38.0097H17.6551" stroke="#33A648" stroke-width="2" stroke-linejoin="round"/>
<path d="M30.7864 21.2998H24.8164V29.6598H30.7864V21.2998Z" stroke="#33A648" stroke-width="2" stroke-linejoin="round"/>
<path d="M36.7552 11.75H30.7852V29.66H36.7552V11.75Z" stroke="#33A648" stroke-width="2" stroke-linejoin="round"/>
<path d="M42.7259 18.9102H36.7559V29.6602H42.7259V18.9102Z" stroke="#33A648" stroke-width="2" stroke-linejoin="round"/>
</svg>
