<svg width="53" height="51" viewBox="0 0 53 51" fill="none" xmlns="http://www.w3.org/2000/svg">
<path d="M8.60589 45.8058L2.64501 45.8159L2.6247 35.7936L3.12736 35.7835C3.71634 35.7683 4.18347 35.2829 4.16823 34.6963C4.153 34.1097 3.6808 33.6698 3.07659 33.6597L1.81739 33.69C1.08624 33.69 0.492188 34.2816 0.492188 35.0148L0.517575 46.6148C0.517575 47.348 1.11671 47.9397 1.85293 47.9397L8.61097 47.9296C9.19995 47.9296 9.67723 47.4542 9.67215 46.8677C9.67215 46.2811 9.19487 45.8108 8.60589 45.8108V45.8058Z" fill="#33A648"/>
<path d="M46.8964 36.7895H46.6183C46.6335 36.6387 46.6487 36.4878 46.6487 36.327C46.6487 34.9294 45.5012 33.7932 44.096 33.7932L37.1507 33.8083C37.7522 33.0542 37.8432 32.4559 37.7573 32.0236C37.7876 31.1036 37.2164 30.5455 36.8322 30.1635C35.2198 28.5598 32.5508 30.6964 31.6763 31.3952C30.4935 32.3453 27.0006 33.6876 24.7563 34.4769C24.6097 34.0848 24.2306 33.7982 23.7858 33.7882H23.7656C23.1893 33.7882 22.7142 34.2457 22.704 34.8238L22.6939 35.774C22.6838 35.8393 22.6788 35.9047 22.6788 35.9751V36.1058C22.6788 36.1761 22.6788 36.2717 22.6788 36.4275V37.2822C22.6788 37.2822 22.6788 37.3877 22.6788 37.4229V37.4481C22.6788 37.4481 22.6788 37.4883 22.6788 37.5134L22.6939 44.5316C22.6939 44.6019 22.6939 44.7075 22.6939 44.8081V45.2857H16.8506C16.2642 45.2857 15.7891 45.7632 15.7891 46.3464C15.7891 46.9296 16.2642 47.4022 16.8506 47.4022H23.4875C24.1902 47.4022 24.7563 46.8542 24.8068 46.1705C25.924 46.266 27.0411 46.5073 28.1279 46.8994C30.3317 47.6887 32.9855 47.93 33.0967 47.9401C33.1271 47.9401 33.1624 47.9401 33.1928 47.9401C33.1928 47.9401 33.2029 47.9401 33.2079 47.9401H38.9401C40.1078 47.9401 41.6394 47.1156 42.4987 46.0297C42.529 45.9895 42.5593 45.9493 42.5846 45.904C42.7464 45.6225 42.8374 45.2957 42.8677 44.9689H43.2013C44.3032 44.9689 46.3909 44.1445 47.0581 42.8474C47.2098 42.5055 47.2805 42.1436 47.2704 41.8017C48.4128 41.4951 49.4541 40.5449 49.449 39.3333C49.449 37.9357 48.3016 36.7995 46.8964 36.7995V36.7895ZM46.497 39.7908L36.3166 39.8159C35.7303 39.8159 35.2602 40.2935 35.2602 40.8717C35.2602 41.4548 35.7353 41.9224 36.3217 41.9224H38.7682L45.1474 41.9073C45.1474 41.9073 45.1423 41.9274 45.1373 41.9375C44.9604 42.2793 43.7422 42.8575 43.2064 42.8575L41.4018 42.8424C41.2906 42.8223 41.1743 42.8072 41.053 42.8072H37.6713L36.2307 42.8172C35.6444 42.8172 35.1692 43.2898 35.1743 43.873C35.1743 44.4561 35.6494 44.9237 36.2358 44.9237H37.7219L40.6284 44.9438C40.1128 45.4516 39.3394 45.8286 38.9401 45.8286H33.2332C32.8693 45.7934 30.635 45.5471 28.8507 44.9086C27.5263 44.436 26.1767 44.1445 24.8119 44.0489L24.7967 37.0207V36.6889C26.6721 36.0505 31.3023 34.3965 33.0007 33.0341C34.8002 31.5963 35.3815 31.6817 35.3765 31.6968C35.4725 31.7923 35.614 31.9331 35.6342 31.9683C35.6191 32.0688 35.6191 32.1694 35.6342 32.2699C35.5584 32.4258 35.2096 32.9536 33.9055 33.8133H33.1675C32.5811 33.8133 32.106 34.2909 32.111 34.869C32.111 35.4522 32.5862 35.9198 33.1726 35.9198H34.1886C34.1886 35.9198 34.1936 35.9198 34.1987 35.9198H35.6039L44.096 35.8996C44.3336 35.8996 44.5307 36.0907 44.5307 36.3571C44.5307 36.5984 44.4953 36.7292 44.4701 36.7945L39.5062 36.8046H36.2257C35.6393 36.8096 35.1642 37.2822 35.1692 37.8653C35.1692 38.4485 35.6444 38.916 36.2307 38.916H44.4751C44.5054 38.911 44.5307 38.901 44.561 38.901H46.9065C47.144 38.901 47.3412 39.092 47.3412 39.3383C47.3007 39.4791 46.8711 39.7908 46.5071 39.7908H46.497Z" fill="#33A648"/>
<path d="M52.4869 4.38266C52.4869 3.65295 51.9205 3.06006 51.2186 3.06006H46.3828C45.8213 3.06513 45.3663 3.54146 45.3711 4.12928C45.3711 4.71711 45.8262 5.19344 46.3877 5.19344H50.4587L50.478 15.5817C50.3231 15.7692 50.2311 16.0124 50.2311 16.2759C50.2311 16.8637 50.6862 17.3401 51.2477 17.3401C51.9447 17.3401 52.5111 16.7421 52.5111 16.0073L52.4869 4.38266Z" fill="#33A648"/>
<path d="M5.46395 13.6154H5.47394C5.47394 13.6154 5.51393 13.6506 5.53892 13.6657C5.98379 14.0127 6.52362 14.2038 7.08845 14.2038H7.34837C7.33337 14.3496 7.32338 14.5055 7.32338 14.6715C7.33337 16.0695 8.46803 17.206 9.8526 17.206L16.7255 17.1909C16.1307 17.9502 16.0607 18.5537 16.1207 18.9509C16.0807 19.8712 16.6355 20.4294 16.9754 20.7764L17.0354 20.8367C17.2653 21.068 17.5402 21.229 17.7952 21.3044C18.0201 21.3798 18.25 21.4201 18.5 21.4201C19.4597 21.4201 20.6193 20.8367 22.1438 19.6047C23.3535 18.619 27.0123 17.216 29.2167 16.4416C29.4066 16.6528 29.6815 16.7886 29.9914 16.7886H30.0014C30.5812 16.7886 31.0461 16.3058 31.0411 15.7275V13.711C31.0411 13.711 31.0361 13.6255 31.0361 13.6205V13.4847L31.0211 6.46453C31.0211 6.32372 31.0211 6.04211 31.0211 5.93148V5.71021H36.1645C36.7444 5.71021 37.2142 5.23248 37.2142 4.65418C37.2142 4.07084 36.7444 3.59814 36.1645 3.59814H30.2364C29.5466 3.59814 28.9817 4.14627 28.9368 4.83018C27.8321 4.73464 26.7324 4.49325 25.6528 4.10101C23.4684 3.3115 20.8492 3.07012 20.7343 3.06006C20.7043 3.06006 20.6743 3.06006 20.6443 3.06006H14.966C14.3812 3.06006 13.7014 3.26121 13.0616 3.62328C12.4318 3.96524 11.857 4.44297 11.4421 4.97099C11.4121 5.01122 11.3821 5.05145 11.3571 5.09671C11.1972 5.37832 11.1022 5.70519 11.0722 6.03708H10.7473C10.1825 6.03708 9.41773 6.24326 8.70795 6.59025C8.11313 6.88192 7.32338 7.38479 6.9335 8.15922C6.78354 8.5062 6.70856 8.86325 6.71856 9.21023C6.2737 9.33092 5.83883 9.55721 5.48394 9.85391C4.89412 10.3467 4.57422 10.9804 4.57422 11.6794C4.57422 12.4387 4.90912 13.1477 5.48394 13.6305L5.46395 13.6154ZM15.116 11.1815H17.5352C18.1151 11.1765 18.5849 10.7038 18.5799 10.1204C18.5799 9.5371 18.1101 9.06943 17.5302 9.06943H15.106L8.79792 9.08451C8.79792 9.08451 8.80292 9.0644 8.80792 9.05434C8.85291 8.97388 9.10283 8.72244 9.60268 8.48106C10.0575 8.2598 10.5174 8.1391 10.7173 8.1391L12.4968 8.15419C12.6118 8.17431 12.7267 8.18939 12.8517 8.18939L17.6202 8.17934C18.2 8.17934 18.6699 7.70663 18.6649 7.1233C18.6649 6.53996 18.195 6.07229 17.6152 6.07229H16.2206C16.2206 6.07229 16.2007 6.07229 16.1957 6.07229L13.2716 6.05217C13.4865 5.83593 13.7564 5.63478 14.0513 5.47386C14.4462 5.24757 14.7811 5.17214 14.946 5.17214H20.5743C20.9092 5.20734 23.1435 5.44872 24.923 6.0924C26.2326 6.5651 27.5672 6.85677 28.9118 6.95232L28.9268 13.4294C28.9218 13.5148 28.9268 13.5953 28.9268 13.716V14.3144C27.0773 14.948 22.4937 16.6075 20.8142 17.9703C19.2697 19.2175 18.6249 19.308 18.46 19.308H18.455C18.365 19.2074 18.225 19.0716 18.21 19.0364C18.225 18.9359 18.225 18.8353 18.21 18.7347C18.255 18.6392 18.4 18.3978 18.8149 18.0256C18.8249 18.0206 18.8298 18.0106 18.8348 18.0005C19.1148 17.7491 19.4797 17.4775 19.9195 17.1858H20.6443C21.2241 17.1858 21.694 16.7081 21.689 16.1298C21.689 15.5465 21.2191 15.0788 20.6393 15.0788H18.1101L9.83261 15.1039C9.59768 15.1039 9.40274 14.9078 9.40274 14.6463C9.40274 14.3848 9.44773 14.249 9.45272 14.2088L14.981 14.1988H17.6202C18.2 14.1937 18.6699 13.721 18.6649 13.1377C18.6649 12.5544 18.195 12.0867 17.6152 12.0867H9.48271C9.41773 12.0867 9.35275 12.0967 9.28278 12.1018H7.07845C6.97348 12.1068 6.88351 12.0716 6.79854 12.0062C6.70357 11.9258 6.64858 11.8051 6.64858 11.6643C6.65358 11.6441 6.69357 11.5687 6.80354 11.4782C7.02347 11.2972 7.29838 11.2117 7.46833 11.2117L15.111 11.1916L15.116 11.1815Z" fill="#33A648"/>
<path d="M5.63331 8.16C6.22113 8.16 6.69747 7.66704 6.69747 7.05871V2.22355L17.0857 2.20257C17.2732 2.37563 17.5164 2.47527 17.7901 2.47527C18.3779 2.47527 18.8542 1.98231 18.8542 1.37398C18.8542 0.613573 18.2563 0 17.5215 0L5.89682 0.0262211C5.16711 0.0262211 4.57422 0.645039 4.57422 1.40021V7.05871C4.57422 7.66704 5.05056 8.16 5.63838 8.16H5.63331Z" fill="#33A648"/>
<path d="M16.1824 45.1429C16.8614 45.1429 17.5001 44.8748 17.9779 44.3891C18.4557 43.9035 18.7173 43.2611 18.7173 42.5781L18.7072 35.6276C19.2303 36.0374 19.7433 36.2498 20.2311 36.2498C20.3116 36.2498 20.3871 36.2448 20.4524 36.2346C20.4876 36.2346 20.5229 36.2346 20.5581 36.2346C21.4483 36.2346 21.9764 35.6934 22.3536 35.3089C22.4793 35.1825 22.59 35.0358 22.6453 34.9245C23.5305 33.4524 22.1977 31.4947 21.1214 30.1491C20.1306 28.9148 18.7122 25.1664 17.9377 22.9356C18.0785 22.7737 18.169 22.5663 18.1892 22.3336C18.2344 21.7518 17.8019 21.2359 17.2235 21.1903L16.6602 21.1448C16.63 21.1448 16.5998 21.1398 16.5747 21.1448H15.2268C15.2268 21.1448 15.2167 21.1499 15.2117 21.1499L7.44105 21.165H7.21975L7.20969 15.3375C7.20969 14.7507 6.73692 14.2803 6.15349 14.2803C5.57007 14.2803 5.09729 14.7558 5.10232 15.3426L5.11238 21.9694C5.11238 22.6675 5.65557 23.234 6.34461 23.2795C6.25408 24.4026 6.01266 25.5003 5.61533 26.6081C4.8257 28.8137 4.58428 31.4694 4.57422 31.5807C4.57422 31.6111 4.57422 31.6414 4.57422 31.6718V37.4234C4.57422 38.1569 4.88102 38.8752 5.14759 39.3609C5.50468 40.0084 5.98249 40.5851 6.49047 40.9847C6.53071 41.015 6.57094 41.0454 6.61621 41.0707C6.89283 41.2275 7.21975 41.3287 7.55673 41.359V41.6828C7.55673 42.2544 7.76294 43.0233 8.10998 43.7517C8.40169 44.3537 8.89961 45.1429 9.67919 45.5374C10.0262 45.6892 10.3783 45.755 10.7354 45.76C10.8913 46.3316 11.2082 46.883 11.6256 47.2827H11.6306C12.0783 47.7076 12.6215 47.9403 13.2099 47.9403C13.7531 47.9352 14.2762 47.7481 14.6987 47.4243C14.759 47.3889 14.8143 47.3535 14.8646 47.3079C15.4179 46.8223 15.7347 46.1192 15.7347 45.3806V45.1075C15.8806 45.1226 16.0365 45.1327 16.1975 45.1327L16.1824 45.1429ZM10.5594 43.6303C10.4789 43.5848 10.2274 43.3319 9.98599 42.8361C9.73452 42.31 9.64398 41.8649 9.64398 41.703L9.65907 39.9224C9.68422 39.801 9.69428 39.6796 9.69428 39.543V36.1689H9.68925V34.7221C9.68422 34.1353 9.21144 33.6649 8.62802 33.6649C8.04459 33.6649 7.57685 34.1454 7.57685 34.7272V36.3561L7.55673 39.1282C7.34549 38.9107 7.14431 38.6375 6.98336 38.3491C6.75703 37.9293 6.67153 37.6005 6.67153 37.4335V31.7325C6.70674 31.3936 6.94816 29.1374 7.59194 27.3366C8.06471 26.0163 8.35642 24.6605 8.45199 23.2947L15.8152 23.2795C16.454 25.1512 18.1087 29.7849 19.4717 31.4897C20.7693 33.1084 20.8246 33.7408 20.8146 33.8622C20.719 33.9583 20.5832 34.0999 20.5379 34.1201C20.4374 34.105 20.3368 34.105 20.2362 34.1201C20.1507 34.0797 19.9595 33.9633 19.6678 33.6598C19.356 33.3361 19.0291 32.9061 18.6971 32.4002V31.6617C18.6971 31.0749 18.2244 30.5994 17.6409 30.5994C17.0575 30.5994 16.5847 31.0749 16.5847 31.6617V32.7139V32.724L16.6049 42.6034C16.6049 42.7552 16.5294 42.8614 16.4791 42.907C16.4338 42.9525 16.3333 43.0334 16.1421 43.0334C15.8806 43.0334 15.7498 42.993 15.7046 42.9828L15.6945 37.388V37.3121V34.7171C15.6895 34.1303 15.2167 33.6598 14.6333 33.6598C14.0499 33.6598 13.5771 34.1353 13.5821 34.7221V42.9677C13.5821 43.0334 13.5922 43.0992 13.5972 43.17V45.4059C13.5972 45.4059 13.5972 45.4514 13.5972 45.4717H12.8428C12.7573 45.3098 12.712 45.1327 12.712 45.0063L12.6919 37.2767V34.8284C12.6868 34.2416 12.2141 33.7711 11.6306 33.7711C11.0472 33.7711 10.5744 34.2466 10.5795 34.8334V37.2767H10.5845L10.5946 43.6556C10.5946 43.6556 10.5744 43.6506 10.5644 43.6455L10.5594 43.6303Z" fill="#33A648"/>
<path d="M48.3522 43.8599C47.7534 43.8599 47.2732 44.3434 47.2732 44.9401L47.2836 48.8188L36.2509 48.8445C35.652 48.8445 35.1668 49.328 35.1719 49.9247C35.1719 50.5215 35.6572 50.9999 36.2561 50.9999L48.0993 50.9741C48.8478 50.9741 49.4519 50.3671 49.4519 49.6212L49.4416 44.935C49.4416 44.3383 48.9563 43.8599 48.3574 43.8599H48.3522Z" fill="#33A648"/>
<path d="M35.308 8.33859L35.3231 15.2002C34.5688 14.6059 33.9654 14.516 33.5379 14.6009C32.6076 14.561 32.0595 15.1353 31.6773 15.5148C30.0732 17.1128 32.2103 19.7446 32.9093 20.6086C33.8598 21.7771 35.2024 25.2279 35.9919 27.4502C35.5997 27.595 35.3131 27.9645 35.303 28.409C35.2929 28.9883 35.7556 29.4627 36.3389 29.4777L37.3698 29.4877C37.3949 29.4877 37.4251 29.5027 37.4503 29.5027C37.4653 29.5027 37.4754 29.5027 37.4905 29.5027H37.5961C37.6665 29.5027 37.7771 29.5027 37.8777 29.5027H38.803C38.803 29.5027 38.8885 29.5027 38.8935 29.5027H39.0293C40.0249 29.5027 41.3777 29.4977 42.6801 29.4927H45.8834C45.9286 29.4877 45.9789 29.4877 46.0443 29.4877C46.0946 29.4877 46.16 29.4877 46.2253 29.4877C46.2957 29.4877 46.3712 29.4877 46.4365 29.4877H46.8036V34.6513C46.8036 35.2306 47.2763 35.7001 47.8597 35.7001C48.443 35.7001 48.9157 35.2306 48.9157 34.6513V28.7036C48.9157 28.0145 48.3676 27.4502 47.6836 27.4052C47.7792 26.3016 48.0206 25.1979 48.4128 24.1242C49.2023 21.9469 49.4437 19.3251 49.4537 19.2153C49.4537 19.1953 49.4537 19.1753 49.4537 19.1553C49.4537 19.1453 49.4537 19.1354 49.4537 19.1204V13.4423C49.4537 12.2887 48.629 10.7756 47.5428 9.92664C47.5026 9.89668 47.4624 9.86672 47.4171 9.84175C47.1355 9.68194 46.8087 9.59205 46.4818 9.56209V9.23249C46.4818 8.14383 45.6571 6.08136 44.3597 5.42216C44.0177 5.27235 43.6557 5.20243 43.3137 5.21242C43.007 4.0838 42.0616 3.06006 40.8496 3.06006C40.1708 3.06006 39.5321 3.32473 39.0544 3.80415C38.5767 4.28356 38.3102 4.91778 38.3152 5.59196V5.86163C38.1694 5.84664 38.0185 5.83166 37.8576 5.83166H37.8475C36.4445 5.83166 35.308 6.97027 35.3131 8.35857L35.308 8.33859ZM37.8777 7.90412C38.1392 7.91411 38.2548 7.93908 38.3102 7.96405L38.3202 12.873V16.1091C38.3252 16.6884 38.7979 17.1528 39.3813 17.1528C39.9646 17.1528 40.4373 16.6834 40.4323 16.1041V7.96904C40.4272 7.93908 40.4172 7.91411 40.4172 7.88415V5.56699C40.4172 5.41218 40.4926 5.3123 40.5379 5.26236C40.5831 5.21741 40.6887 5.13751 40.8547 5.13252C40.9955 5.17247 41.3073 5.59695 41.3073 5.95651L41.3324 16.0142C41.3324 16.5935 41.8051 17.0579 42.3884 17.0579C42.9718 17.0579 43.4394 16.5885 43.4394 16.0092V13.6071C43.4394 13.6071 43.4394 13.5971 43.4394 13.5922L43.4294 7.28987C43.4294 7.28987 43.4495 7.29487 43.4595 7.29986C43.8015 7.47465 44.3798 8.67817 44.3798 9.21252L44.3647 10.9903C44.3446 11.1052 44.3295 11.2201 44.3295 11.3449V14.6658H44.3345V16.1041C44.3345 16.6834 44.8123 17.1478 45.3906 17.1478C45.9739 17.1478 46.4466 16.6784 46.4416 16.0991V14.6359L46.4617 11.7594C46.9645 12.2688 47.3467 13.0328 47.3467 13.4274V19.0704C47.3065 19.43 47.0701 21.6273 46.4265 23.4001C45.9538 24.7035 45.6621 26.0419 45.5666 27.3902L38.5465 27.4052H38.2096C37.5709 25.5525 35.9165 20.9781 34.5537 19.3002C33.0853 17.4874 33.2111 16.958 33.2161 16.953C33.3116 16.8581 33.4524 16.7183 33.4876 16.6983C33.5882 16.7133 33.6888 16.7133 33.7843 16.6983C33.9402 16.7733 34.4682 17.1178 35.3281 18.4063V19.1354C35.3281 19.7146 35.8008 20.1791 36.3842 20.1791C36.9675 20.1791 37.4402 19.7097 37.4352 19.1304V16.6035V16.5935L37.4151 8.33859C37.4151 8.10388 37.6061 7.90912 37.8727 7.90912L37.8777 7.90412Z" fill="#33A648"/>
</svg>
