<svg width="57" height="57" viewBox="0 0 57 57" fill="none" xmlns="http://www.w3.org/2000/svg">
<path d="M1 55.7L5.70999 46.15C6.68999 44.17 8.43002 43.49 10.86 43.65L18.1 44.26L26.56 39.79C26.56 39.79 27.85 44.27 24.72 46.01L18.51 49.66L10.33 50.05" stroke="#33A648" stroke-width="2" stroke-linejoin="round"/>
<path d="M12.9492 55.91L15.4392 49.8101" stroke="#33A648" stroke-width="2" stroke-linejoin="round"/>
<path d="M19.8594 31.3197L24.7693 25.7197C24.7693 25.7197 27.6294 28.9897 26.0294 30.8997L23.3994 34.7797L20.9994 37.6997" stroke="#33A648" stroke-width="2" stroke-linejoin="round"/>
<path d="M18.6803 27.7C17.1903 24.08 16.4303 21.56 16.4303 21.56L10.5703 23.68L16.7403 1L35.4503 14.13L28.3703 16.51C29.5303 25.73 34.3803 51.97 55.9403 55.92" stroke="#33A648" stroke-width="2" stroke-linejoin="round"/>
<path d="M41.6111 55.9103C36.8311 55.9103 32.3311 53.3103 28.3711 47.0303" stroke="#33A648" stroke-width="2" stroke-linejoin="round"/>
<path d="M12.3597 40.3899C9.96971 40.3899 8.17969 38.3299 8.17969 35.7899V34.2499C8.17969 31.7099 9.96971 29.6499 12.3597 29.6499C14.7497 29.6499 16.5397 31.7099 16.5397 34.2499V35.7899C16.5397 38.3299 14.7497 40.3899 12.3597 40.3899Z" stroke="#33A648" stroke-width="2" stroke-linejoin="round"/>
</svg>
