<svg width="76" height="48" viewBox="0 0 76 48" fill="none" xmlns="http://www.w3.org/2000/svg">
<path d="M11.5041 11.826C8.215 11.826 5.54297 9.17119 5.54297 5.91581C5.54297 2.66043 8.215 0 11.5041 0C14.7932 0 17.4709 2.65482 17.4709 5.91581C17.4709 9.1768 14.7932 11.826 11.5041 11.826ZM11.5041 2.35734C9.52271 2.35734 7.91496 3.95136 7.91496 5.91581C7.91496 7.88026 9.52271 9.47428 11.5041 9.47428C13.4855 9.47428 15.0932 7.88026 15.0932 5.91581C15.0932 3.95136 13.4855 2.35734 11.5041 2.35734Z" fill="#33A648"/>
<path d="M22.555 47.9998C20.7151 47.9998 19.1414 46.6359 18.8923 44.823L17.8563 37.2963H10.2478C8.18151 37.2963 6.50017 35.6293 6.50017 33.5807L6.44922 32.6714V17.2421C6.44922 14.6658 8.5608 12.5723 11.1592 12.5723C13.2142 12.5723 14.9861 13.8239 15.6485 15.6537L19.849 19.8183H27.1631C28.918 19.8183 30.3446 21.2327 30.3446 22.9726C30.3446 24.7126 28.918 26.1607 27.1688 26.1607H17.6808C17.3638 26.1607 17.0637 26.0372 16.843 25.8183L15.9259 24.909V29.9156H22.2436C23.4551 29.9156 24.4911 30.8136 24.6609 32.0035L26.2743 43.8351C26.5461 45.8389 25.1251 47.6911 23.1041 47.9605C22.8833 47.9885 22.7192 47.9998 22.555 47.9998ZM11.2215 14.9296C9.86285 14.9296 8.81555 15.968 8.81555 17.2477V32.6097L8.87216 33.4909C8.87216 33.4909 8.87216 33.5639 8.87216 33.5863C8.87216 34.3384 9.48922 34.9502 10.2478 34.9502H18.8923C19.4867 34.9502 19.9905 35.388 20.0698 35.9717L21.2416 44.5199C21.3379 45.2271 22.0059 45.7435 22.7305 45.6424C23.5061 45.5358 24.0156 44.8735 23.9137 44.1607L22.3002 32.3347C22.3002 32.3347 22.2663 32.2785 22.2323 32.2785H14.7257C14.069 32.2785 13.5369 31.7509 13.5369 31.0999V22.0746C13.5369 21.5975 13.8256 21.171 14.2672 20.9857C14.7144 20.8005 15.2239 20.9072 15.5636 21.2383L18.162 23.8145H27.1461C27.5877 23.8145 27.9443 23.4553 27.9443 23.0119C27.9443 22.5405 27.582 22.1812 27.1348 22.1812H19.3282C19.0112 22.1812 18.7111 22.0578 18.4903 21.8389L13.7407 17.1298C13.5935 16.9839 13.4916 16.8099 13.435 16.6134C13.1576 15.6256 12.2405 14.9408 11.2045 14.9408L11.2215 14.9296Z" fill="#33A648"/>
<path d="M64.465 11.826C61.1759 11.826 58.5039 9.17119 58.5039 5.91581C58.5039 2.66043 61.1816 0 64.465 0C67.7485 0 70.4318 2.65482 70.4318 5.91581C70.4318 9.1768 67.7541 11.826 64.465 11.826ZM64.465 2.35734C62.4836 2.35734 60.8759 3.95136 60.8759 5.91581C60.8759 7.88026 62.4836 9.47428 64.465 9.47428C66.4464 9.47428 68.0542 7.88026 68.0542 5.91581C68.0542 3.95136 66.4464 2.35734 64.465 2.35734Z" fill="#33A648"/>
<path d="M53.4189 47.9998C53.2548 47.9998 53.0849 47.9885 52.9208 47.9661C50.8488 47.6855 49.4279 45.8389 49.6996 43.8351L51.313 32.0091C51.4829 30.8136 52.5245 29.9156 53.7303 29.9156H60.0481V24.909L59.131 25.8183C58.9102 26.0372 58.6045 26.1607 58.2931 26.1607H48.8165C47.0672 26.1607 45.6406 24.7463 45.6406 23.0063C45.6406 21.2664 47.0672 19.8183 48.8165 19.8183H56.1363L60.3368 15.6537C60.9935 13.8239 62.7654 12.5723 64.7524 12.5723C67.4188 12.5723 69.536 14.6658 69.536 17.2421V32.6041L69.4794 33.62C69.4794 35.6293 67.7981 37.2963 65.7318 37.2963H58.1233L57.0873 44.823C56.8382 46.6303 55.2645 47.9998 53.4246 47.9998H53.4189ZM53.7303 32.2673C53.6963 32.2673 53.668 32.2954 53.6624 32.329L52.0546 44.1494C51.9584 44.8679 52.4679 45.5302 53.1925 45.6256C53.3057 45.6424 53.3623 45.6424 53.4246 45.6424C54.0813 45.6424 54.6474 45.1541 54.7323 44.503L55.9042 35.9549C55.9834 35.3711 56.4873 34.9334 57.0817 34.9334H65.7261C66.4847 34.9334 67.1018 34.3216 67.1018 33.5695C67.1018 33.547 67.1018 33.4965 67.1018 33.474L67.1584 32.5255V17.2421C67.1584 15.9623 66.1111 14.924 64.8204 14.924C63.7108 14.924 62.7994 15.6144 62.522 16.5966C62.4654 16.793 62.3635 16.9726 62.2163 17.113L57.4666 21.822C57.2458 22.0409 56.9401 22.1644 56.6288 22.1644H48.8165C48.3749 22.1644 48.0183 22.518 48.0183 22.9558C48.0183 23.4385 48.3749 23.7977 48.8165 23.7977H57.8006L60.3991 21.2215C60.7387 20.8847 61.2482 20.7837 61.6954 20.9689C62.137 21.1485 62.4257 21.5807 62.4257 22.0578V31.083C62.4257 31.7341 61.8936 32.2617 61.2369 32.2617H53.7303V32.2673Z" fill="#33A648"/>
<path d="M50.1743 29.2538H26.6185C25.9618 29.2538 25.4297 28.7262 25.4297 28.0752C25.4297 27.4241 25.9618 26.8965 26.6185 26.8965H50.1686C50.8253 26.8965 51.3574 27.4241 51.3574 28.0752C51.3574 28.7262 50.8253 29.2538 50.1686 29.2538H50.1743Z" fill="#33A648"/>
<path d="M38.392 48.0003C37.7353 48.0003 37.2031 47.4727 37.2031 46.8216V28.0752C37.2031 27.4241 37.7353 26.8965 38.392 26.8965C39.0486 26.8965 39.5808 27.4241 39.5808 28.0752V46.8216C39.5808 47.4727 39.0486 48.0003 38.392 48.0003Z" fill="#33A648"/>
<path d="M66.4821 40.4338H59.6888C59.0321 40.4338 58.5 39.9062 58.5 39.2551C58.5 38.604 59.0321 38.0764 59.6888 38.0764H66.4821C68.2427 38.0764 69.8391 37.0437 70.5524 35.4441L73.7226 28.2822C73.9887 27.6873 74.685 27.4179 75.2851 27.6761C75.8852 27.9399 76.1569 28.6302 75.8965 29.2252L72.7263 36.387C71.6394 38.8398 69.1881 40.4282 66.4821 40.4282V40.4338Z" fill="#33A648"/>
<path d="M65.2787 47.9997C64.622 47.9997 64.0898 47.4721 64.0898 46.821V39.2607C64.0898 38.6096 64.622 38.082 65.2787 38.082C65.9354 38.082 66.4675 38.6096 66.4675 39.2607V46.821C66.4675 47.4721 65.9354 47.9997 65.2787 47.9997Z" fill="#33A648"/>
<path d="M16.3089 40.4337H9.51558C6.80958 40.4337 4.35834 38.8453 3.27141 36.3926L0.101205 29.2364C-0.164866 28.6414 0.112527 27.9454 0.712602 27.6873C1.31268 27.4235 2.01465 27.6985 2.27506 28.2934L5.44526 35.4553C6.1529 37.0549 7.74932 38.0876 9.51558 38.0876H16.3089C16.9656 38.0876 17.4977 38.6152 17.4977 39.2663C17.4977 39.9174 16.9656 40.445 16.3089 40.445V40.4337Z" fill="#33A648"/>
<path d="M10.724 47.9997C10.0673 47.9997 9.53516 47.4721 9.53516 46.821V39.2607C9.53516 38.6096 10.0673 38.082 10.724 38.082C11.3807 38.082 11.9128 38.6096 11.9128 39.2607V46.821C11.9128 47.4721 11.3807 47.9997 10.724 47.9997Z" fill="#33A648"/>
</svg>
