<svg width="51" height="37" viewBox="0 0 51 37" fill="none" xmlns="http://www.w3.org/2000/svg">
<path d="M49.9208 9.75195H46.3204V6.1516C46.3204 5.50688 45.7829 5.02294 45.1918 5.02294H41.5914V1.4226C41.5914 0.77788 41.0539 0.293945 40.4628 0.293945H1.12866C0.483935 0.293945 0 0.831463 0 1.4226V25.7115C0 26.3562 0.537518 26.8401 1.12866 26.8401H4.729V30.4405C4.729 31.0852 5.26652 31.5691 5.85766 31.5691H9.458V35.1695C9.458 35.8142 9.99552 36.2981 10.5867 36.2981H49.868C50.5127 36.2981 50.9967 35.7606 50.9967 35.1695L50.9963 10.8806C51.0499 10.2359 50.5124 9.75233 49.9213 9.75233L49.9208 9.75195ZM39.281 6.7428C37.2389 6.31286 35.5731 4.64708 35.1432 2.605H39.281V6.7428ZM32.779 2.605C33.2626 5.93656 35.9494 8.56975 39.2814 9.1073V18.1348C35.9498 18.6184 33.3166 21.2516 32.779 24.6371L27.0827 24.6368C30.0383 22.2187 31.9728 18.1885 31.9728 13.6745C31.9728 9.16076 30.0383 5.0765 27.0827 2.71229H32.779V2.605ZM39.281 20.3918V24.5296H35.1432C35.5731 22.4875 37.2389 20.8753 39.281 20.3918ZM11.9291 13.5671C11.9291 7.49482 15.9057 2.6049 20.7954 2.6049C25.6855 2.6049 29.6618 7.54866 29.6618 13.5671C29.6618 19.5856 25.6852 24.5294 20.7954 24.5294C15.9057 24.5298 11.9291 19.6396 11.9291 13.5671ZM9.61825 13.5671C9.61825 18.1349 11.5528 22.1652 14.5084 24.5294L8.8124 24.5298C8.27488 21.1978 5.64204 18.565 2.31009 18.0815V9.05355C5.64204 8.57001 8.27484 5.93684 8.8124 2.60528H14.5084C11.5528 4.96978 9.61825 9.00001 9.61825 13.5675V13.5671ZM6.4479 2.6049C6.01796 4.64698 4.35217 6.31281 2.31009 6.7427V2.6049H6.4479ZM2.31009 20.3917C4.35217 20.8216 6.018 22.4874 6.4479 24.5295H2.31009V20.3917ZM7.039 26.84H40.4631C41.1078 26.84 41.5917 26.3024 41.5917 25.7113V7.33342H44.0098V29.3116H7.03909L7.039 26.84ZM48.7385 33.9869H11.7678V31.5689H45.1919C45.8366 31.5689 46.3205 31.0313 46.3205 30.4402L46.3202 12.0623H48.7382L48.7385 33.9869Z" fill="white"/>
<path d="M21.9762 6.90437H17.9999C17.8387 6.90437 17.6775 7.06555 17.6775 7.22673V13.0303H16.3341C16.1729 13.0303 16.0117 13.1915 16.0117 13.3526V14.8573C16.0117 15.0184 16.1729 15.1796 16.3341 15.1796H17.6775V16.4155H16.3341C16.1729 16.4155 16.0117 16.5766 16.0117 16.7378V18.2424C16.0117 18.4036 16.1729 18.5648 16.3341 18.5648H17.6775V20.123C17.6775 20.2841 17.8387 20.4453 17.9999 20.4453H19.5045C19.6657 20.4453 19.8268 20.2841 19.8268 20.123V18.5648H22.9436C23.1047 18.5648 23.2659 18.4036 23.2659 18.2424V16.7378C23.2659 16.5766 23.1047 16.4155 22.9436 16.4155H19.8268V15.1796H22.0838C24.3942 15.1796 26.3288 13.2451 26.2216 10.8806C26.114 8.62367 24.233 6.9043 21.9762 6.9043L21.9762 6.90437ZM22.0837 13.0303H19.8268V9.05374H22.0837C23.1584 9.05374 24.0719 9.96721 24.0719 11.0419C24.0719 12.1169 23.1584 13.0304 22.0837 13.0304V13.0303Z" fill="white"/>
</svg>
