<svg width="68" height="68" viewBox="0 0 68 68" fill="none" xmlns="http://www.w3.org/2000/svg">
<rect width="68" height="68" rx="16" fill="#33A648"/>
<path d="M12.2258 46.9031C14.0047 46.9031 15.4516 45.4562 15.4516 43.6773C15.4516 43.592 15.4329 43.5114 15.4267 43.4275L22.4436 40.6204C23.0218 41.4895 24.009 42.0644 25.1291 42.0644C26.9079 42.0644 28.3549 40.6175 28.3549 38.8386C28.3549 38.5629 28.3099 38.3 28.2443 38.0444L38.9208 31.3718C39.5087 31.9936 40.3364 32.3871 41.2581 32.3871C42.7572 32.3871 44.009 31.3549 44.3694 29.9677H52.6629C53.0232 31.3549 54.275 32.3871 55.7742 32.3871C57.5531 32.3871 59 30.9402 59 29.1613C59 27.3824 57.5531 25.9355 55.7742 25.9355C54.275 25.9355 53.0232 26.9677 52.6629 28.3548H50.9355V9.80645C50.9355 9.36147 50.5751 9 50.129 9H34C33.5539 9 33.1936 9.36147 33.1936 9.80645V17.0645H17.871C17.4249 17.0645 17.0645 17.426 17.0645 17.871V41.035L14.9112 41.8962C14.3331 41.0267 13.3459 40.4518 12.2258 40.4518C10.4469 40.4518 9 41.8987 9 43.6776C9 45.4565 10.4469 46.9034 12.2258 46.9034L12.2258 46.9031ZM55.7742 27.5483C56.6638 27.5483 57.3871 28.2716 57.3871 29.1612C57.3871 30.0508 56.6638 30.7741 55.7742 30.7741C54.8846 30.7741 54.1613 30.0508 54.1613 29.1612C54.1613 28.2716 54.8846 27.5483 55.7742 27.5483ZM25.129 40.4515C24.2394 40.4515 23.5161 39.7282 23.5161 38.8386C23.5161 37.949 24.2394 37.2257 25.129 37.2257C26.0186 37.2257 26.7419 37.949 26.7419 38.8386C26.7419 39.7282 26.0186 40.4515 25.129 40.4515ZM41.258 30.7741C40.3684 30.7741 39.6451 30.0508 39.6451 29.1612C39.6451 28.2716 40.3684 27.5483 41.258 27.5483C42.1477 27.5483 42.8709 28.2716 42.8709 29.1612C42.8709 30.0508 42.1477 30.7741 41.258 30.7741ZM34.8064 10.6128H49.3226V28.3548H44.3694C44.009 26.9676 42.7572 25.9354 41.258 25.9354C39.4791 25.9354 38.0322 27.3823 38.0322 29.1612C38.0322 29.437 38.0772 29.6998 38.1428 29.9554L34.8064 32.041L34.8064 10.6128ZM18.6774 18.6773H33.1935V33.0488L27.467 36.6285C26.8783 36.006 26.0507 35.6125 25.129 35.6125C23.3501 35.6125 21.9032 37.0595 21.9032 38.8384C21.9032 38.9237 21.9219 39.0043 21.928 39.0882L18.6774 40.3893L18.6774 18.6773ZM12.2258 42.0644C13.1154 42.0644 13.8387 42.7877 13.8387 43.6773C13.8387 44.5669 13.1154 45.2902 12.2258 45.2902C11.3362 45.2902 10.6129 44.5669 10.6129 43.6773C10.6129 42.7877 11.3362 42.0644 12.2258 42.0644Z" fill="white"/>
<path d="M53.3548 34.8065C53.3548 34.3615 52.9945 34 52.5484 34H47.7097C47.2636 34 46.9032 34.3615 46.9032 34.8065V57.3871H45.2903V38.0323C45.2903 37.5862 44.9299 37.2258 44.4839 37.2258H39.6452C39.1991 37.2258 38.8387 37.5862 38.8387 38.0323V57.3871H37.2258V41.2581C37.2258 40.812 36.8654 40.4516 36.4194 40.4516H31.5806C31.1346 40.4516 30.7742 40.812 30.7742 41.2581V57.3871H29.1613V44.4839C29.1613 44.0378 28.8009 43.6774 28.3548 43.6774H23.5161C23.0701 43.6774 22.7097 44.0378 22.7097 44.4839V57.3871H21.0968V49.3226C21.0968 48.8765 20.7364 48.5161 20.2903 48.5161H15.4516C15.0055 48.5161 14.6452 48.8765 14.6452 49.3226V57.3871H9V59H59V57.3871H53.3548V34.8065ZM48.5161 35.6129H51.7419V57.3871H48.5161V35.6129ZM40.4516 38.8387H43.6774V57.3871H40.4516V38.8387ZM32.3871 42.0645H35.6129V57.3871H32.3871V42.0645ZM24.3226 45.2903H27.5484V57.3871H24.3226V45.2903ZM16.2581 50.129H19.4839V57.3871H16.2581V50.129Z" fill="white"/>
<path d="M21.0955 25.1287H24.3213C24.7674 25.1287 25.1278 24.7673 25.1278 24.3223V21.0965C25.1278 20.6515 24.7674 20.29 24.3213 20.29H21.0955C20.6494 20.29 20.2891 20.6515 20.2891 21.0965V24.3223C20.2891 24.7673 20.6494 25.1287 21.0955 25.1287ZM21.902 21.9029H23.5149V23.5158H21.902V21.9029Z" fill="white"/>
<path d="M27.5486 25.1287H30.7744C31.2205 25.1287 31.5809 24.7673 31.5809 24.3223V21.0965C31.5809 20.6515 31.2205 20.29 30.7744 20.29H27.5486C27.1026 20.29 26.7422 20.6515 26.7422 21.0965V24.3223C26.7422 24.7673 27.1026 25.1287 27.5486 25.1287ZM28.3551 21.9029H29.968V23.5158H28.3551V21.9029Z" fill="white"/>
<path d="M25.1278 30.7744V27.5486C25.1278 27.1037 24.7674 26.7422 24.3213 26.7422H21.0955C20.6494 26.7422 20.2891 27.1037 20.2891 27.5486V30.7744C20.2891 31.2194 20.6494 31.5809 21.0955 31.5809H24.3213C24.7674 31.5809 25.1278 31.2194 25.1278 30.7744ZM23.5149 29.968H21.902V28.3551H23.5149V29.968Z" fill="white"/>
<path d="M27.5486 31.5809H30.7744C31.2205 31.5809 31.5809 31.2194 31.5809 30.7744V27.5486C31.5809 27.1037 31.2205 26.7422 30.7744 26.7422H27.5486C27.1026 26.7422 26.7422 27.1037 26.7422 27.5486V30.7744C26.7422 31.2194 27.1026 31.5809 27.5486 31.5809ZM28.3551 28.3551H29.968V29.968H28.3551V28.3551Z" fill="white"/>
<path d="M37.2264 17.0643H40.4522C40.8982 17.0643 41.2586 16.7028 41.2586 16.2578V13.032C41.2586 12.5871 40.8982 12.2256 40.4522 12.2256H37.2264C36.7803 12.2256 36.4199 12.5871 36.4199 13.032V16.2578C36.4199 16.7028 36.7803 17.0643 37.2264 17.0643ZM38.0328 13.8385H39.6457V15.4514H38.0328V13.8385Z" fill="white"/>
<path d="M43.6775 17.0643H46.9034C47.3494 17.0643 47.7098 16.7028 47.7098 16.2578V13.032C47.7098 12.5871 47.3494 12.2256 46.9034 12.2256H43.6775C43.2315 12.2256 42.8711 12.5871 42.8711 13.032V16.2578C42.8711 16.7028 43.2315 17.0643 43.6775 17.0643ZM44.484 13.8385H46.0969V15.4514H44.484V13.8385Z" fill="white"/>
<path d="M37.2264 23.5164H40.4522C40.8982 23.5164 41.2586 23.155 41.2586 22.71V19.4842C41.2586 19.0392 40.8982 18.6777 40.4522 18.6777H37.2264C36.7803 18.6777 36.4199 19.0392 36.4199 19.4842V22.71C36.4199 23.155 36.7803 23.5164 37.2264 23.5164ZM38.0328 20.2906H39.6457V21.9035H38.0328V20.2906Z" fill="white"/>
<path d="M43.6775 23.5164H46.9034C47.3494 23.5164 47.7098 23.155 47.7098 22.71V19.4842C47.7098 19.0392 47.3494 18.6777 46.9034 18.6777H43.6775C43.2315 18.6777 42.8711 19.0392 42.8711 19.4842V22.71C42.8711 23.155 43.2315 23.5164 43.6775 23.5164ZM44.484 20.2906H46.0969V21.9035H44.484V20.2906Z" fill="white"/>
</svg>
