<svg width="68" height="68" viewBox="0 0 68 68" fill="none" xmlns="http://www.w3.org/2000/svg">
<path d="M52 0H16C7.16344 0 0 7.16344 0 16V52C0 60.8366 7.16344 68 16 68H52C60.8366 68 68 60.8366 68 52V16C68 7.16344 60.8366 0 52 0Z" fill="#33A648"/>
<path d="M32.3009 61.9998V57.0498H31.3209L30.2309 59.4398V57.0498H29.1309V61.9898H30.1109L31.2009 59.6398V61.9898L32.3009 61.9998Z" fill="white"/>
<path d="M35.8194 61.9998V60.0798L36.8494 61.9998H38.1594L36.7994 59.4998L37.9494 57.0498H36.6994L35.8294 58.9998H35.8194L35.8294 57.0498H34.6994V58.9998H34.6894L33.8294 57.0498H32.5794L33.7194 59.4998L32.3594 61.9998H33.6694L34.6894 60.0798H34.6994V61.9998H35.8194Z" fill="white"/>
<path d="M34.1992 54.2098C34.4292 54.3298 34.7092 54.3998 35.0192 54.3998C35.3292 54.3998 35.6092 54.3398 35.8392 54.2098C36.0792 54.0798 36.2592 53.8998 36.3892 53.6598C36.5192 53.4298 36.5792 53.1598 36.5792 52.8498V50.8898C36.5792 50.5798 36.5192 50.3098 36.3892 50.0798C36.2592 49.8398 36.0692 49.6598 35.8292 49.5298C35.5992 49.4098 35.3192 49.3398 35.0092 49.3398C34.6992 49.3398 34.4192 49.3998 34.1892 49.5298C33.9492 49.6598 33.7692 49.8398 33.6392 50.0798C33.5092 50.3098 33.4492 50.5798 33.4492 50.8898V52.8498C33.4492 53.1598 33.5092 53.4298 33.6392 53.6598C33.7692 53.8998 33.9492 54.0798 34.1892 54.2098H34.1992ZM34.5992 50.8998C34.5992 50.7998 34.6192 50.7198 34.6492 50.6498C34.6792 50.5898 34.7292 50.5498 34.7792 50.5098C34.8392 50.4698 34.9192 50.4598 35.0092 50.4598C35.0992 50.4598 35.1792 50.4798 35.2392 50.5098C35.2992 50.5398 35.3392 50.5898 35.3692 50.6498C35.4092 50.7198 35.4192 50.7998 35.4192 50.8998V52.8398C35.4192 52.9398 35.3992 53.0298 35.3692 53.0898C35.3392 53.1498 35.2892 53.1898 35.2392 53.2298C35.1792 53.2698 35.0992 53.2798 35.0092 53.2798C34.9192 53.2798 34.8392 53.2598 34.7792 53.2298C34.7192 53.1998 34.6792 53.1498 34.6492 53.0898C34.6092 53.0198 34.5992 52.9298 34.5992 52.8298V50.8898V50.8998Z" fill="white"/>
<path d="M42.6893 61.9998L42.9193 61.1298H43.8693L44.0893 61.9998H45.2793L43.8293 57.0498H42.9593L41.6093 61.6198L40.5093 59.4798L41.5893 57.0498H40.3393L39.5393 58.9998H39.4093V57.0498H38.2793V61.9998H39.4093V60.0798H39.5293L40.4893 61.9998H42.6793H42.6893ZM43.3893 59.2898L43.5893 60.0598H43.1893L43.3893 59.2898Z" fill="white"/>
<path d="M54.98 8.02H52.17L9.03 8L9 66.37C9.68 66.7 10.38 67 11.11 67.23L11.14 10.06L52.9 10.08C54.25 10.41 55.26 11.61 55.26 13.05L55.23 65.88C55.23 66.6 54.97 67.25 54.55 67.77C55.4 67.63 56.22 67.44 57.02 67.18C57.13 66.76 57.21 66.34 57.21 65.89L57.24 13.06C57.24 12.11 56.96 11.23 56.49 10.47C57.54 11.01 58.27 12.07 58.27 13.31L58.24 66.73C58.98 66.42 59.68 66.03 60.35 65.62L60.38 13.31C60.38 10.4 57.96 8.03 54.97 8.03L54.98 8.02Z" fill="white"/>
<path d="M19.2305 50.4796H20.2105V54.3396H21.3305V50.4796H22.3205V49.3896H19.2305V50.4796Z" fill="white"/>
<path d="M39.4996 54.2004C39.7096 54.1004 39.8696 53.9504 39.9796 53.7504C40.0896 53.5604 40.1396 53.3404 40.1396 53.0804V52.7104C40.1396 52.5204 40.0996 52.3404 40.0296 52.1804C39.9496 52.0204 39.8396 51.8804 39.6996 51.7804C39.8196 51.6804 39.9196 51.5604 39.9796 51.4204C40.0496 51.2704 40.0796 51.1104 40.0796 50.9304V50.6404C40.0796 50.3904 40.0296 50.1604 39.9196 49.9804C39.8096 49.7904 39.6496 49.6404 39.4396 49.5404C39.2396 49.4504 38.9996 49.4004 38.7296 49.4004H37.0996V54.3504H38.7996C39.0596 54.3504 39.2996 54.3004 39.4996 54.2004ZM38.2296 50.4704H38.6796C38.7796 50.4704 38.8496 50.4904 38.8996 50.5304C38.9096 50.5404 38.9596 50.5804 38.9596 50.7004V50.9904C38.9596 51.0904 38.9396 51.1604 38.8996 51.2104C38.8896 51.2304 38.8396 51.2704 38.6996 51.2704H38.2296V50.4804V50.4704ZM38.6796 53.2704H38.2296V52.3404H38.6996C38.7696 52.3404 38.8396 52.3504 38.8796 52.3804C38.9196 52.4004 38.9496 52.4304 38.9696 52.4704C38.9896 52.5204 39.0096 52.5804 39.0096 52.6604V53.0204C39.0096 53.1304 38.9696 53.1704 38.9396 53.2004C38.8896 53.2404 38.7996 53.2704 38.6796 53.2704Z" fill="white"/>
<path d="M33.0795 53.2604H32.5995V49.4004H29.8395V52.4904C29.8395 52.7704 29.7995 52.9804 29.7295 53.1104C29.6595 53.2404 29.5795 53.2504 29.5195 53.2504H29.1895V55.2404H30.2995V54.3404H31.9795V55.2404H33.0895V53.2504L33.0795 53.2604ZM31.4795 53.2604H30.8395C30.9195 53.0304 30.9595 52.7604 30.9595 52.4604V50.4904H31.4795V53.2604Z" fill="white"/>
<path d="M19.7594 27.7998C19.8994 28.2398 20.1294 28.6098 20.4094 28.9298C20.4094 29.5498 20.5694 31.0598 21.7594 31.9398C21.9994 32.1198 22.2694 32.2598 22.5594 32.3598C22.7094 32.7598 23.1494 33.7098 24.1594 34.1798C24.6594 34.4098 25.2094 34.4898 25.8094 34.4098C25.7094 34.5698 25.6694 34.7598 25.7094 34.9498C25.7494 35.1998 25.9094 35.4198 26.1494 35.5298C26.1894 35.5498 26.9494 35.9098 27.8194 35.6998L26.8794 36.3998C26.6794 36.5498 26.5594 36.7798 26.5594 37.0298V38.1598L25.0195 38.4698L22.7194 34.4598C22.6094 34.2698 22.4394 34.1398 22.2294 34.0798C22.0194 34.0198 21.7995 34.0498 21.6195 34.1498C21.5995 34.1598 21.5794 34.1798 21.5594 34.1898L21.2494 34.4698C20.8894 34.6898 20.7694 35.1398 20.9694 35.5198L24.7294 42.4498C24.8694 42.7098 25.1495 42.8698 25.4495 42.8698C25.5795 42.8698 25.7094 42.8398 25.8294 42.7798L25.8595 42.7598L26.3695 42.4198C26.5495 42.3198 26.6894 42.1498 26.7494 41.9498C26.8094 41.7398 26.7895 41.5198 26.6795 41.3298L26.4994 41.0298H29.0494C29.2594 41.0298 29.4595 40.9498 29.6195 40.7998C29.7695 40.6498 29.8495 40.4498 29.8495 40.2398V39.6298H31.2695L31.6895 40.0398L27.5594 42.1998C27.3094 42.3298 27.1494 42.5698 27.1394 42.8398C27.1194 43.1098 27.2494 43.3698 27.4694 43.5298L29.4495 44.9298C29.7695 45.1598 30.2194 45.1198 30.4894 44.8298L30.6394 44.6798L30.5995 44.8198C30.5195 45.0998 30.6194 45.4098 30.8394 45.6098L32.4794 47.0698C32.6294 47.1998 32.8195 47.2698 33.0195 47.2698C33.0595 47.2698 33.0994 47.2698 33.1394 47.2698C33.1694 47.2698 33.1995 47.2698 33.2395 47.2698C33.4395 47.2698 33.6294 47.1998 33.7794 47.0698L35.4194 45.6098C35.6394 45.4098 35.7294 45.1098 35.6594 44.8198L35.6194 44.6798L35.7594 44.8298C36.0294 45.1098 36.4794 45.1598 36.7994 44.9298L38.7794 43.5298C39.0094 43.3698 39.1294 43.1098 39.1094 42.8398C39.0894 42.5698 38.9294 42.3198 38.6894 42.1898L34.5694 40.0298L34.9895 39.6198H36.3995V40.2298C36.3995 40.6698 36.7594 41.0198 37.1994 41.0198H41.1994C41.4994 41.0198 41.7794 40.8498 41.9094 40.5898L42.0194 40.3698C42.0994 40.3698 42.1794 40.3898 42.2594 40.3898C42.7894 40.3898 43.2894 40.1598 43.6694 39.7498C44.0294 39.3498 44.2295 38.8098 44.2395 38.2498C44.2395 37.6798 44.0394 37.1498 43.6794 36.7398C43.3094 36.3298 42.7994 36.0998 42.2794 36.0998C41.7494 36.0998 41.2394 36.3298 40.8694 36.7398C40.5094 37.1398 40.3095 37.6798 40.3095 38.2398V38.2698L39.6894 38.1498V37.0198C39.6894 36.7698 39.5694 36.5398 39.3694 36.3898L38.4294 35.6898C39.2794 35.8898 40.0094 35.5598 40.0994 35.5198C40.3294 35.4098 40.4994 35.1898 40.5394 34.9398C40.5695 34.7498 40.5394 34.5598 40.4394 34.3998C41.0294 34.4798 41.5794 34.3998 42.0894 34.1698C43.0894 33.7098 43.5394 32.7598 43.6894 32.3498C43.9894 32.2498 44.2594 32.0998 44.5094 31.9198C45.6694 31.0498 45.8394 29.5798 45.8594 28.9498C46.1495 28.6298 46.3895 28.2398 46.5394 27.7798C47.0094 26.3098 46.4494 25.1698 45.9994 24.5398C46.1794 24.0998 46.2894 23.6398 46.2994 23.1598C46.3394 20.1698 44.1794 18.6898 44.0894 18.6298C43.8994 18.5098 43.6694 18.4598 43.4494 18.5198C43.2295 18.5698 43.0394 18.7098 42.9294 18.9098L39.6894 24.6798C39.6294 23.8298 39.2594 23.0398 38.6394 22.4298C37.9594 21.7598 37.0494 21.3998 36.0894 21.3898H35.2695C35.3794 21.3298 35.4694 21.2598 35.5494 21.1298C36.3594 19.9398 36.5694 18.9198 36.1594 18.0998C35.6294 17.0298 34.3294 16.8698 34.1795 16.8598C33.9495 16.8398 33.7194 16.9098 33.5494 17.0598C33.3694 17.2098 33.2794 17.4298 33.2794 17.6598V17.7598H32.9394V17.6598C32.9394 17.4098 32.8195 17.1698 32.6095 17.0198C32.4095 16.8698 32.1494 16.8198 31.8994 16.8898C30.9294 17.1398 30.3094 17.6398 30.0694 18.3598C29.6394 19.6298 30.6395 20.9498 30.8495 21.1998C30.9194 21.2798 30.9994 21.3498 31.0894 21.3998H30.2194C29.2594 21.3998 28.3495 21.7698 27.6694 22.4398C27.0494 23.0498 26.6795 23.8398 26.6195 24.6898L23.3894 18.9098C23.2794 18.7098 23.0895 18.5698 22.8695 18.5198C22.6495 18.4698 22.4194 18.5198 22.2294 18.6298C22.1394 18.6898 19.9694 20.1598 20.0195 23.1598C20.0195 23.6498 20.1394 24.1098 20.3194 24.5298C19.8694 25.1498 19.3095 26.2898 19.7795 27.7598L19.7594 27.7998ZM29.7994 43.2598L29.4295 42.9998L30.6594 42.3598L29.7994 43.2598ZM36.7794 42.9998L36.4094 43.2598L35.5395 42.3598L36.7794 43.0098V42.9998ZM41.8394 38.0398C41.9094 37.8498 42.0695 37.7298 42.2395 37.7298C42.4795 37.7298 42.6794 37.9698 42.6794 38.2598C42.6794 38.4798 42.5595 38.6798 42.3995 38.7498C42.3195 38.7898 42.2295 38.7898 42.1495 38.7698C42.0895 38.7198 42.0194 38.6698 41.9394 38.6398C41.7994 38.4898 41.7594 38.2398 41.8394 38.0398ZM35.0894 42.1198C34.9295 42.0898 34.7594 42.1198 34.5994 42.1998L33.9994 42.4898C33.6594 42.6598 33.4895 43.0398 33.5795 43.3998L33.9394 44.7798L33.0894 45.5398L32.2395 44.7798L32.5994 43.3998C32.6994 43.0398 32.5195 42.6598 32.1795 42.4898L31.5794 42.1998C31.4194 42.1198 31.2594 42.0998 31.0894 42.1198L33.0795 41.0798L35.0595 42.1198H35.0894ZM38.8594 25.7598C38.9394 25.7598 39.0194 25.7498 39.0894 25.7298L38.4194 26.9298C38.3494 27.0498 38.3194 27.1798 38.3194 27.3098V28.1198C38.3194 28.4098 38.1494 28.6898 37.8894 28.8398C37.6294 28.9898 37.2994 28.9898 37.0294 28.8398C36.7694 28.6898 36.5994 28.4198 36.5994 28.1298V25.7698H38.8694L38.8594 25.7598ZM32.0994 19.3898H34.0694C34.2894 19.3898 34.4895 19.3098 34.6495 19.1598C34.6695 19.1498 34.6794 19.1298 34.6894 19.1098C34.6694 19.3098 34.5694 19.5898 34.3694 19.9498C33.8694 19.9498 32.9394 19.9498 31.9094 19.9298C31.7694 19.6998 31.6495 19.4398 31.6095 19.2198C31.7495 19.3198 31.9194 19.3798 32.0994 19.3798V19.3898ZM33.7895 22.6098L33.9994 22.9798C33.6294 23.2598 33.3495 23.6098 33.1295 23.9798C32.9095 23.6098 32.6294 23.2598 32.2594 22.9798L32.4794 22.6098C32.6194 22.3598 32.6194 22.0598 32.4794 21.8198C32.4094 21.6998 32.3094 21.5998 32.1894 21.5298C32.4694 21.5298 32.7995 21.5298 33.1295 21.5398C33.4395 21.5398 33.7195 21.5398 33.9495 21.5398H34.0595C33.9495 21.6098 33.8495 21.6998 33.7895 21.8098C33.6395 22.0598 33.6395 22.3598 33.7895 22.6098ZM27.4094 25.7498H29.6694V28.1098C29.6694 28.3998 29.4994 28.6798 29.2394 28.8298C28.9794 28.9798 28.6494 28.9798 28.3794 28.8298C28.1194 28.6798 27.9495 28.4098 27.9495 28.1198V27.2998C27.9495 27.1698 27.9095 27.0298 27.8495 26.9198L27.1795 25.7198C27.2495 25.7398 27.3294 25.7498 27.4094 25.7498ZM21.3094 26.0498C22.5694 27.3998 24.2894 28.1798 24.4094 28.2298C24.8094 28.3998 25.2894 28.2298 25.4694 27.8298C25.6494 27.4398 25.4694 26.9698 25.0794 26.7798C25.0494 26.7698 23.0595 25.8498 22.1095 24.4998C22.0895 24.3298 22.0194 24.1798 21.8994 24.0498C21.8694 24.0198 21.8394 23.9998 21.8194 23.9798C21.6994 23.7098 21.6195 23.4198 21.6195 23.1298C21.5895 22.2098 21.8994 21.2998 22.4794 20.5798L26.3394 27.4698V28.0798C26.3394 28.7298 26.5994 29.3398 27.0694 29.7998C27.5394 30.2598 28.1594 30.5098 28.8194 30.5098C29.4794 30.5098 30.0994 30.2598 30.5694 29.7998C31.0394 29.3398 31.2894 28.7298 31.2994 28.0898V24.9398C31.2994 24.7298 31.2194 24.5298 31.0594 24.3798C30.9094 24.2298 30.7094 24.1498 30.4894 24.1498H28.3994C28.5294 23.8698 28.7194 23.6198 28.9694 23.4298C29.3294 23.1498 29.7694 22.9898 30.2294 22.9898H30.4295C30.3595 23.1798 30.3595 23.3798 30.4295 23.5698C30.5195 23.7998 30.7095 23.9698 30.9495 24.0298C31.8495 24.2998 32.2094 25.7198 32.2695 26.2398C32.3195 26.6698 32.7194 26.9898 33.1594 26.9398H33.1795C33.6194 26.9798 34.0195 26.6698 34.0595 26.2398C34.1295 25.7098 34.4895 24.2898 35.3795 24.0298C35.6095 23.9598 35.7994 23.7898 35.8995 23.5698C35.9795 23.3798 35.9795 23.1798 35.8995 22.9898H36.0994C36.5594 22.9898 37.0094 23.1498 37.3594 23.4298C37.5994 23.6198 37.7994 23.8698 37.9194 24.1498H35.8295C35.3895 24.1498 35.0195 24.5098 35.0195 24.9398V28.0998C35.0195 28.7498 35.2795 29.3598 35.7395 29.8198C36.2094 30.2798 36.8295 30.5298 37.4895 30.5298C38.1495 30.5298 38.7695 30.2798 39.2395 29.8198C39.7094 29.3598 39.9594 28.7498 39.9694 28.1098V27.4998L43.8295 20.6098C44.3995 21.3298 44.7094 22.2398 44.6794 23.1698C44.6794 23.4598 44.5894 23.7498 44.4594 24.0298C44.4394 24.0498 44.4195 24.0598 44.3995 24.0798C44.2794 24.1998 44.2094 24.3398 44.1794 24.4998C43.3994 25.6098 41.8995 26.4898 41.1994 26.7998C40.8095 26.9898 40.6294 27.4498 40.8095 27.8398C40.9895 28.2298 41.4594 28.4098 41.8694 28.2398C41.9794 28.1898 43.7094 27.4098 44.9694 26.0598C45.0895 26.3998 45.1294 26.8298 44.9694 27.3298H44.9794C44.4694 28.9098 41.6894 28.9898 41.1294 28.9898C40.6794 28.9898 40.3194 29.3398 40.3194 29.7798C40.3194 30.2098 40.6794 30.5698 41.1294 30.5698C41.6695 30.5698 42.8395 30.5198 43.9694 30.1298C43.8594 30.3498 43.7194 30.5598 43.5094 30.7098C42.9794 31.0998 42.1194 31.1198 40.9494 30.7598C40.5294 30.6298 40.0694 30.8598 39.9394 31.2598C39.8694 31.4598 39.8895 31.6798 39.9895 31.8698C40.0895 32.0498 40.2594 32.1898 40.4594 32.2498C40.9094 32.3798 41.3295 32.4698 41.7194 32.5198C41.6294 32.6098 41.5194 32.6898 41.3894 32.7498C40.9994 32.9298 40.4694 32.8798 39.8295 32.5898C39.6294 32.4998 39.4195 32.4998 39.2194 32.5698C39.0194 32.6498 38.8594 32.7898 38.7694 32.9898C38.6194 33.3298 38.5494 33.7098 38.5795 34.0798C38.3794 33.9598 38.2194 33.7398 38.0795 33.4098C37.9095 33.0198 37.4694 32.8198 37.0694 32.9698C36.9494 33.0198 35.9995 33.3898 35.5195 34.3198C35.5195 34.2698 35.5395 34.2198 35.5395 34.1698V30.2898C35.5395 30.0798 35.4595 29.8698 35.3095 29.7198C35.1595 29.5698 34.9495 29.4798 34.7395 29.4798H33.2494C33.2494 29.4798 33.1894 29.4798 33.1694 29.4798C33.1394 29.4798 33.1095 29.4698 33.0894 29.4698H31.5995C31.1595 29.4698 30.7994 29.8298 30.7994 30.2698V34.1498C30.7994 34.3898 30.9094 34.6198 31.0894 34.7698L32.5795 35.9898C32.7195 36.1098 32.8995 36.1698 33.0894 36.1698C33.1194 36.1698 33.1494 36.1698 33.1694 36.1698C33.1994 36.1698 33.2294 36.1698 33.2494 36.1698C33.4394 36.1698 33.6194 36.0998 33.7594 35.9898L35.2494 34.7798C35.3095 34.7298 35.3595 34.6698 35.3995 34.6098C35.3795 34.6598 35.3594 34.7098 35.3494 34.7598C35.2594 35.0798 35.3694 35.4098 35.6394 35.6098L38.0894 37.4298V38.8098C38.0894 39.0798 38.2194 39.3098 38.4294 39.4598H37.9994V38.8498C37.9994 38.6398 37.9194 38.4398 37.7694 38.2898C37.6194 38.1398 37.4194 38.0598 37.1994 38.0598H34.6495C34.4395 38.0598 34.2395 38.1398 34.0795 38.2898L33.1194 39.2398L32.1594 38.2898C32.0094 38.1398 31.8095 38.0598 31.5894 38.0598H29.0395C28.5995 38.0598 28.2394 38.4098 28.2394 38.8498V39.4598H27.8094C28.0194 39.3198 28.1494 39.0798 28.1494 38.8098V37.4298L30.5995 35.6098C30.8595 35.4198 30.9794 35.0798 30.8894 34.7598C30.5194 33.4798 29.2194 32.9898 29.1594 32.9698C28.7594 32.8298 28.3094 33.0098 28.1394 33.4098C27.9994 33.7398 27.8294 33.9698 27.6394 34.0798C27.6694 33.7098 27.5995 33.3398 27.4495 32.9898C27.3595 32.7998 27.1994 32.6498 26.9994 32.5798C26.7994 32.4998 26.5794 32.5098 26.3894 32.5998C25.7494 32.8798 25.2294 32.9398 24.8394 32.7598C24.7094 32.6998 24.5995 32.6198 24.5094 32.5298C24.9095 32.4798 25.3395 32.3898 25.7895 32.2598C25.9995 32.1998 26.1695 32.0598 26.2695 31.8698C26.3695 31.6798 26.3794 31.4698 26.3194 31.2798C26.1794 30.8698 25.7294 30.6498 25.3094 30.7798C24.1394 31.1298 23.2794 31.1198 22.7494 30.7198C22.5394 30.5598 22.3895 30.3498 22.2795 30.1198C23.4195 30.5198 24.6194 30.5798 25.1594 30.5798C25.6094 30.5798 25.9694 30.2298 25.9694 29.7898C25.9694 29.3498 25.6094 28.9998 25.1594 28.9998C24.6094 28.9998 21.8194 28.9198 21.3094 27.3398C21.1494 26.8498 21.1994 26.4198 21.3094 26.0698V26.0498ZM33.9094 31.0798V33.7798L33.1394 34.3998L32.3694 33.7698V31.0698H33.0595C33.0595 31.0698 33.1194 31.0698 33.1394 31.0698C33.1694 31.0698 33.1995 31.0698 33.2195 31.0698H33.9094V31.0798Z" fill="white"/>
<path d="M21.8301 57.0498V61.9898H22.9601V60.0798H23.0801L24.0401 61.9998H25.3501L24.0501 59.4798L25.1301 57.0498H23.8901L23.0901 58.9998H22.9601V57.0498H21.8301Z" fill="white"/>
<path d="M25.6691 51.2204V50.7704C25.6691 50.5004 25.6091 50.2504 25.4991 50.0504C25.3791 49.8304 25.2191 49.6704 24.9991 49.5604C24.7891 49.4504 24.5491 49.4004 24.2691 49.4004H22.6191V54.3504H23.7491V52.5904H24.2691C24.5491 52.5904 24.7891 52.5304 24.9991 52.4304C25.2191 52.3204 25.3791 52.1604 25.4991 51.9504C25.6191 51.7504 25.6691 51.5104 25.6691 51.2304V51.2204ZM24.5291 51.1804C24.5291 51.2604 24.5191 51.3204 24.4891 51.3804C24.4691 51.4204 24.4491 51.4504 24.4091 51.4704C24.3691 51.4904 24.3291 51.5004 24.2691 51.5004H23.7491V50.4804H24.2691C24.3191 50.4804 24.3691 50.4904 24.4091 50.5104C24.4391 50.5304 24.4691 50.5604 24.4891 50.6004C24.5091 50.6604 24.5291 50.7204 24.5291 50.8004V51.1704V51.1804Z" fill="white"/>
<path d="M29.6704 49.4004H28.5004L27.9504 51.5604L27.3604 49.4004H26.1504L27.3704 53.2704C27.3704 53.2704 27.3104 53.2904 27.2704 53.2904H26.7004V54.4004H27.3104C27.5204 54.4004 27.7204 54.3604 27.8904 54.2804C28.0604 54.2004 28.2004 54.0804 28.3204 53.9204C28.4304 53.7704 28.5204 53.5904 28.5804 53.3704L29.6804 49.4104L29.6704 49.4004Z" fill="white"/>
<path d="M45.9406 54.3496H47.0706V49.3997H45.4806C45.2006 49.3997 44.9406 49.4497 44.7306 49.5597C44.5106 49.6697 44.3406 49.8396 44.2206 50.0496C44.1006 50.2596 44.0406 50.4996 44.0406 50.7696V51.1497C44.0406 51.4297 44.1006 51.6796 44.2106 51.8896C44.3306 52.0996 44.5006 52.2696 44.7206 52.3896L44.7606 52.4096L43.9106 54.3097L42.4706 49.3896H41.6006L40.1406 54.3396H41.3306L41.5606 53.4697H42.5106L42.7306 54.3396H45.1606L45.9006 52.5496H45.9306V54.3396L45.9406 54.3496ZM41.8506 52.3997L42.0506 51.6297L42.2506 52.3997H41.8506ZM45.5106 51.4697C45.4406 51.4697 45.3706 51.4596 45.3306 51.4296C45.2906 51.4096 45.2606 51.3697 45.2306 51.3297C45.2006 51.2697 45.1906 51.1996 45.1906 51.1096V50.8596C45.1906 50.7696 45.2006 50.6897 45.2306 50.6297C45.2506 50.5797 45.2806 50.5496 45.3306 50.5196C45.3806 50.4896 45.4406 50.4796 45.5106 50.4796H45.9506V51.4697H45.5106Z" fill="white"/>
<path d="M28.5105 61.9998V57.0498H27.3805V59.0098H26.6105V57.0498H25.4805V61.9998H26.6105V60.0898H27.3805V61.9998H28.5105Z" fill="white"/>
</svg>
