<svg width="68" height="68" viewBox="0 0 68 68" fill="none" xmlns="http://www.w3.org/2000/svg">
<rect width="68" height="68" rx="16" fill="#33A648"/>
<path d="M41.5897 30.6698C41.5897 31.1454 41.204 31.5311 40.7284 31.5311C40.2528 31.5311 39.8672 31.1454 39.8672 30.6698C39.8672 30.1942 40.2528 29.8086 40.7284 29.8086C41.204 29.8086 41.5897 30.1942 41.5897 30.6698Z" fill="white"/>
<path d="M46.7577 30.6698C46.7577 31.1454 46.372 31.5311 45.8964 31.5311C45.4208 31.5311 45.0352 31.1454 45.0352 30.6698C45.0352 30.1942 45.4208 29.8086 45.8964 29.8086C46.372 29.8086 46.7577 30.1942 46.7577 30.6698Z" fill="white"/>
<path d="M41.5898 35.8376H42.4511C43.1362 35.8368 43.793 35.5642 44.2774 35.0802C44.7615 34.5957 45.0341 33.939 45.0349 33.2538V32.3926H43.3124V33.2538C43.312 33.7294 42.9267 34.1147 42.4511 34.1151H41.5899L41.5898 35.8376Z" fill="white"/>
<path d="M59.6424 57.9936L58.0968 52.5847L59.1534 52.1318C59.3714 52.0383 59.5413 51.8592 59.6228 51.6362C59.7043 51.4135 59.6905 51.1671 59.5844 50.9548L56.6922 45.1702C56.2451 44.2774 55.5018 43.5673 54.5895 43.1613L53.6468 42.7422V42.7276H53.6141L48.1959 40.3195L47.2508 38.902C49.099 37.6151 50.201 35.5058 50.2017 33.2538V27.4262C50.75 26.9371 51.0633 26.2374 51.063 25.5026C51.063 25.3688 51.0318 25.2369 50.9718 25.1173L50.1959 23.5659H50.1963C50.1394 22.006 49.48 20.5285 48.3569 19.4442C47.2334 18.3599 45.734 17.7532 44.1729 17.7513H42.4504C40.8894 17.7533 39.3899 18.36 38.2664 19.4442C37.1433 20.5285 36.484 22.006 36.427 23.5659L35.6511 25.1173H35.6515C35.5915 25.2369 35.5603 25.3688 35.5603 25.5026C35.56 26.2373 35.8733 26.9371 36.4216 27.4262V33.2538C36.4224 35.5058 37.5243 37.6151 39.3725 38.902L38.4274 40.3195L33.8378 42.3593V39.5871C33.8374 38.8193 33.6321 38.0653 33.2426 37.4036C32.8531 36.7415 32.2941 36.1959 31.6228 35.8229L25.8258 32.6024L24.8581 31.1506C26.7063 29.8638 27.8083 27.7544 27.8089 25.5025V19.6748C28.3572 19.1858 28.6706 18.486 28.6702 17.7513C28.6702 17.6174 28.6391 17.4856 28.5791 17.366L27.8032 15.8146H27.8036C27.7467 14.2547 27.0873 12.7772 25.9641 11.6929C24.8407 10.6086 23.3412 10.0019 21.7801 10H20.0576C18.4967 10.0019 16.9971 10.6086 15.8736 11.6929C14.7506 12.7772 14.0912 14.2547 14.0342 15.8146L13.2583 17.366H13.2587C13.1987 17.4856 13.1676 17.6174 13.1676 17.7513C13.1672 18.486 13.4806 19.1857 14.0288 19.6748V25.5025C14.0296 27.7544 15.1315 29.8638 16.9797 31.1506L16.012 32.6024L10.215 35.8229C9.54371 36.1959 8.98467 36.7414 8.59519 37.4036C8.20571 38.0653 8.00038 38.8193 8 39.5871V47.8951C8 48.1235 8.09074 48.3426 8.25222 48.5041L9.72255 49.9744V60.8134C9.72255 61.0417 9.81329 61.2609 9.97477 61.4224C10.1363 61.5839 10.3554 61.6746 10.5838 61.6746H55.3687C55.5552 61.6746 55.7363 61.6142 55.8855 61.5024L59.3305 58.9186C59.6162 58.7045 59.74 58.3361 59.6419 57.9932L59.6424 57.9936ZM53.8902 44.7353C54.4373 44.9795 54.8833 45.4055 55.1516 45.9411L57.6354 50.9086L53.6468 52.6181V44.6272L53.8902 44.7353ZM41.7618 57.8863L43.3121 59.9533H35.0864L29.1357 53.2586L38.809 47.3057L44.1072 53.9284V53.9288C43.8434 53.9484 43.6039 54.0884 43.4566 54.3083L41.7341 56.8921C41.5315 57.1958 41.5427 57.5941 41.7618 57.8864L41.7618 57.8863ZM28.9888 50.909L31.4725 45.9415C31.7409 45.4059 32.1869 44.9799 32.734 44.7357L32.9774 44.6277V48.872L29.3886 51.0805L28.9888 50.909ZM39.7628 42.9805C40.7044 43.9221 41.9808 44.4509 43.3123 44.4509C44.6437 44.4509 45.9202 43.9222 46.8618 42.9805L47.8092 42.0332L48.9588 42.5441L46.1974 48.757H42.1761L39.6789 45.6354H39.6785C39.4913 45.4016 39.1964 45.282 38.8992 45.3193L37.6657 42.5441L38.8154 42.0332L39.7628 42.9805ZM37.387 46.1583L34.6998 47.812V43.8622L36.0917 43.2435L37.387 46.1583ZM46.3101 53.9245L43.5541 50.4795H46.7573C47.0975 50.4795 47.4059 50.2792 47.5443 49.9681L50.5329 43.2435L51.9248 43.8621V55.1145L49.511 56.3214L47.3664 54.1768V54.1764C47.2049 54.0149 46.9857 53.9241 46.7573 53.9241L46.3101 53.9245ZM37.3005 25.6726L37.8157 24.6417H48.8092L49.3248 25.6726H49.3244C49.2432 26.0747 48.8903 26.3639 48.48 26.3643H38.1451C37.7348 26.3639 37.3819 26.0747 37.3007 25.6726H37.3005ZM48.3934 22.9192H45.8961V19.8349C47.1791 20.3974 48.11 21.547 48.3934 22.9192ZM40.7286 19.8349V22.058H42.4511V19.4742H44.1736V22.9192H38.2314C38.5148 21.547 39.4456 20.3974 40.7286 19.8349ZM38.1449 33.2546V28.0871H48.4799V33.2546C48.4799 35.1009 47.4948 36.8069 45.8961 37.7297C44.2975 38.6528 42.3273 38.6528 40.7286 37.7297C39.13 36.8069 38.1449 35.1009 38.1449 33.2546ZM43.3124 40.1446C44.1344 40.145 44.9495 39.9977 45.7197 39.7098L46.5105 40.8959L45.6439 41.7625C45.0257 42.3812 44.1867 42.7284 43.3123 42.7284C42.438 42.7284 41.5991 42.3812 40.9808 41.7625L40.1141 40.8959L40.905 39.7098C41.6751 39.9977 42.4902 40.145 43.3123 40.1446H43.3124ZM24.2182 33.2954L21.781 37.6823V32.3376C22.3092 32.2718 22.8279 32.1445 23.327 31.9585L24.2182 33.2954ZM14.9079 17.9218L15.4231 16.891H26.4166L26.9322 17.9218H26.9318C26.8507 18.324 26.4977 18.6131 26.0875 18.6135H15.7525C15.3422 18.6131 14.9893 18.324 14.9082 17.9218H14.9079ZM26.0008 15.1685H23.5036V12.0841C24.7866 12.6466 25.7174 13.7963 26.0008 15.1685ZM18.3361 12.0841V14.3072H20.0586V11.7235H21.7811V15.1685H15.8388C16.1222 13.7963 17.0531 12.6466 18.3361 12.0841ZM15.7523 25.5039V20.3364H26.0873V25.5039C26.0873 27.3502 25.1022 29.0561 23.5036 29.9789C21.9049 30.9021 19.9347 30.9021 18.3361 29.9789C16.7374 29.0561 15.7523 27.3502 15.7523 25.5039ZM20.0586 32.3381V37.6829L17.6213 33.2963L18.5125 31.9595V31.9591C19.0116 32.1452 19.5303 32.2725 20.0585 32.3382L20.0586 32.3381ZM9.72358 39.5884C9.72358 39.1278 9.84699 38.6752 10.0808 38.2781C10.3141 37.8813 10.6498 37.5537 11.0527 37.33L16.2791 34.4263L20.167 41.4248C20.3189 41.6982 20.6073 41.8677 20.9198 41.8677C21.2324 41.8677 21.5208 41.6982 21.6727 41.4248L25.5606 34.4263L30.7869 37.33C31.1899 37.5537 31.5255 37.8813 31.7589 38.2781C31.9927 38.6753 32.1161 39.1278 32.1161 39.5884V43.126L32.0346 43.1621V43.1625C31.1222 43.5686 30.379 44.2787 29.9319 45.1715L27.0397 50.9561C26.9075 51.2183 26.919 51.5301 27.0705 51.7816L22.8458 49.8611L24.8147 48.6307L29.1145 46.0508V46.0512C29.3736 45.8955 29.5324 45.6152 29.5324 45.3126V41.8676C29.5324 41.6392 29.4417 41.42 29.2802 41.2586C29.1187 41.0971 28.8995 41.0063 28.6712 41.0063H24.3649C24.0769 41.0063 23.8082 41.1501 23.6482 41.39L22.0742 43.7511L20.7677 44.2737L16.1378 41.9586C16.0182 41.8986 15.8863 41.8675 15.7525 41.8675H13.1687C12.9404 41.8675 12.7212 41.9582 12.5597 42.1197C12.3982 42.2812 12.3075 42.5004 12.3075 42.7288V46.1737C12.3075 46.4021 12.3982 46.6213 12.5597 46.7828C12.7212 46.9443 12.9404 47.035 13.1687 47.035H18.3362C18.4458 47.035 18.5542 47.0142 18.6561 46.9735L22.2264 45.5451L23.2442 47.581L20.9642 49.0059L18.6926 47.9732V47.9736C18.3247 47.8064 17.8902 47.9175 17.6476 48.24C17.405 48.563 17.4196 49.0113 17.6822 49.3181L18.6531 50.4508L17.2281 51.3413H13.5255L9.72374 47.5395L9.72358 39.5884ZM24.7192 46.6795L23.636 44.5133L24.8257 42.7289H27.8096V44.8251L24.7192 46.6795ZM18.6277 45.1296L18.1702 45.3126H14.0297V43.5901H15.5488L18.6277 45.1296ZM11.4459 51.6981L12.5593 52.8116C12.7208 52.973 12.9399 53.0638 13.1683 53.0638H17.4746C17.6361 53.0638 17.7941 53.0184 17.931 52.9331L19.7865 51.7735L21.6309 53.925H20.9196C20.6316 53.925 20.3628 54.0688 20.2029 54.3087L18.4804 56.8925C18.2778 57.1962 18.2889 57.5946 18.5081 57.8868L20.0583 59.9538H11.4458L11.4459 51.6981ZM20.2518 57.3408L21.3807 55.6476H23.1074L26.7985 59.9538H22.2115L20.2518 57.3408ZM29.0669 59.9538L21.5226 51.1522L27.2868 53.7724L32.7818 59.9538H29.0669ZM55.0826 59.9538H45.4654L43.5057 57.3408L44.6346 55.6476H46.4005L48.732 57.9792C48.9943 58.2414 49.3945 58.3064 49.7264 58.1403L53.1714 56.4178C53.4632 56.272 53.6474 55.9737 53.6474 55.6476V54.4931L56.5014 53.27L57.8237 57.8981L55.0826 59.9538Z" fill="white"/>
<path d="M19.1991 22.9189C19.1991 23.3945 18.8134 23.7801 18.3378 23.7801C17.8622 23.7801 17.4766 23.3945 17.4766 22.9189C17.4766 22.4433 17.8622 22.0576 18.3378 22.0576C18.8134 22.0576 19.1991 22.4433 19.1991 22.9189Z" fill="white"/>
<path d="M24.3651 22.9189C24.3651 23.3945 23.9794 23.7801 23.5038 23.7801C23.0282 23.7801 22.6426 23.3945 22.6426 22.9189C22.6426 22.4433 23.0282 22.0576 23.5038 22.0576C23.9794 22.0576 24.3651 22.4433 24.3651 22.9189Z" fill="white"/>
<path d="M19.1992 28.0857H20.0605C20.7456 28.0849 21.4023 27.8123 21.8868 27.3282C22.3709 26.8438 22.6435 26.187 22.6442 25.5019V24.6406H20.9217V25.5019C20.9214 25.9775 20.5361 26.3627 20.0605 26.3631H19.1992L19.1992 28.0857Z" fill="white"/>
</svg>
