<svg width="42" height="42" viewBox="0 0 42 42" fill="none" xmlns="http://www.w3.org/2000/svg">
<path d="M21 4.82236e-05C25.7693 -0.0101945 30.3985 1.61153 34.1183 4.59572L37.5303 1.18441C37.612 1.1027 37.7162 1.04706 37.8295 1.02452C37.9429 1.00198 38.0604 1.01355 38.1672 1.05778C38.274 1.102 38.3652 1.17689 38.4294 1.27298C38.4936 1.36906 38.5279 1.48203 38.5279 1.59758V12.6792C38.5279 12.8342 38.4663 12.9828 38.3567 13.0923C38.2471 13.2019 38.0985 13.2635 37.9435 13.2635L26.8595 13.2635C26.7439 13.2635 26.631 13.2292 26.5348 13.165C26.4387 13.1008 26.3638 13.0096 26.3196 12.9028C26.2753 12.7961 26.2638 12.6786 26.2863 12.5652C26.3089 12.4519 26.3645 12.3478 26.4462 12.2661L30.1377 8.57539C27.8411 6.88339 25.1199 5.86175 22.277 5.6242C19.434 5.38664 16.581 5.94249 14.0353 7.22988C11.4896 8.51726 9.35116 10.4857 7.85801 12.916C6.36487 15.3464 5.57559 18.1433 5.57802 20.9955H5.60073e-06C-0.00200957 18.2378 0.539796 15.5067 1.59443 12.9585C2.64907 10.4103 4.19584 8.09499 6.14627 6.14498C8.0967 4.19497 10.4125 2.64853 12.9613 1.59413C15.51 0.539722 18.2417 -0.00196651 21 4.82236e-05V4.82236e-05ZM35.1315 27.1815C34.203 29.2998 32.8099 31.1822 31.0553 32.6894C29.3007 34.1966 27.2296 35.2899 24.9952 35.8886C22.7607 36.4872 20.4203 36.5758 18.147 36.1477C15.8737 35.7196 13.7258 34.7859 11.8623 33.4156L15.5538 29.7249C15.6355 29.6432 15.6911 29.5391 15.7137 29.4258C15.7362 29.3124 15.7247 29.1949 15.6804 29.0882C15.6362 28.9814 15.5613 28.8901 15.4652 28.8259C15.3691 28.7617 15.2561 28.7275 15.1405 28.7275L4.0565 28.7275C3.90151 28.7275 3.75286 28.7891 3.64326 28.8987C3.53367 29.0082 3.47209 29.1568 3.47209 29.3118V40.3934C3.47209 40.509 3.50635 40.6219 3.57056 40.718C3.63477 40.8141 3.72604 40.889 3.83282 40.9332C3.9396 40.9775 4.0571 40.989 4.17046 40.9665C4.28382 40.9439 4.38795 40.8883 4.46968 40.8066L7.88172 37.3953C10.9705 39.8676 14.6952 41.417 18.6264 41.865C22.5577 42.3129 26.5355 41.6411 30.1015 39.9271C33.6675 38.213 36.6765 35.5264 38.7816 32.1769C40.8868 28.8274 42.0024 24.9514 42 20.9955H36.422C36.427 23.1248 35.9875 25.2318 35.1315 27.1815V27.1815Z" fill="#32599E"/>
</svg>
