<svg width="23" height="22" viewBox="0 0 23 22" fill="none" xmlns="http://www.w3.org/2000/svg">
<path fill-rule="evenodd" clip-rule="evenodd" d="M16.6526 11.9798C16.6526 11.3784 17.1497 10.8908 17.7628 10.8908C18.3759 10.8908 18.873 11.3784 18.873 11.9798V18.514C18.873 20.3184 17.3819 21.7811 15.5424 21.7811H3.33052C1.49106 21.7811 0 20.3184 0 18.514V6.53466C0 4.73024 1.49106 3.26758 3.33052 3.26758H9.99157C10.6046 3.26758 11.1017 3.75521 11.1017 4.35661C11.1017 4.95801 10.6046 5.44564 9.99157 5.44564H3.33052C2.71745 5.44564 2.22035 5.93326 2.22035 6.53466V18.514C2.22035 19.1154 2.71745 19.603 3.33052 19.603H15.5424C16.1555 19.603 16.6526 19.1154 16.6526 18.514V11.9798Z" fill="#203569"/>
<path fill-rule="evenodd" clip-rule="evenodd" d="M19.9833 2.17806H14.4324C13.8194 2.17806 13.3223 1.69043 13.3223 1.08903C13.3223 0.48763 13.8194 0 14.4324 0H21.0935C21.7066 0 22.2037 0.48763 22.2037 1.08903V7.6232C22.2037 8.2246 21.7066 8.71223 21.0935 8.71223C20.4804 8.71223 19.9833 8.2246 19.9833 7.6232V2.17806Z" fill="#203569"/>
<path fill-rule="evenodd" clip-rule="evenodd" d="M9.66665 13.8384C9.23299 14.2635 8.53021 14.2635 8.09654 13.8384C7.66313 13.413 7.66313 12.7236 8.09654 12.2982L20.3085 0.318868C20.7421 -0.106289 21.4449 -0.106289 21.8786 0.318868C22.312 0.744267 22.312 1.43366 21.8786 1.85907L9.66665 13.8384Z" fill="#203569"/>
</svg>
