<svg width="36" height="36" viewBox="0 0 36 36" fill="none" xmlns="http://www.w3.org/2000/svg">
<path fill-rule="evenodd" clip-rule="evenodd" d="M26.9997 19.7994C26.9997 18.8054 27.8057 17.9994 28.7997 17.9994C29.7937 17.9994 30.5997 18.8054 30.5997 19.7994V30.5993C30.5997 33.5817 28.1821 35.9992 25.1997 35.9992H5.39994C2.41753 35.9992 0 33.5817 0 30.5993V10.7995C0 7.81706 2.41753 5.39954 5.39994 5.39954H16.1998C17.1938 5.39954 17.9998 6.20551 17.9998 7.19952C17.9998 8.19353 17.1938 8.9995 16.1998 8.9995H5.39994C4.40593 8.9995 3.59996 9.80547 3.59996 10.7995V30.5993C3.59996 31.5933 4.40593 32.3992 5.39994 32.3992H25.1997C26.1937 32.3992 26.9997 31.5933 26.9997 30.5993V19.7994Z" fill="#698FCD"/>
<path fill-rule="evenodd" clip-rule="evenodd" d="M32.4014 3.59947H23.4015C22.4075 3.59947 21.6016 2.7935 21.6016 1.79949C21.6016 0.805481 22.4075 -0.000488281 23.4015 -0.000488281H34.2014C35.1954 -0.000488281 36.0014 0.805481 36.0014 1.79949V12.5994C36.0014 13.5934 35.1954 14.3994 34.2014 14.3994C33.2074 14.3994 32.4014 13.5934 32.4014 12.5994V3.59947Z" fill="#698FCD"/>
<path fill-rule="evenodd" clip-rule="evenodd" d="M15.6743 22.8726C14.9712 23.5753 13.8317 23.5753 13.1286 22.8726C12.4259 22.1695 12.4259 21.0301 13.1286 20.3269L32.9284 0.527156C33.6315 -0.175556 34.7709 -0.175556 35.4741 0.527156C36.1768 1.23027 36.1768 2.36972 35.4741 3.07284L15.6743 22.8726Z" fill="#698FCD"/>
</svg>
