<svg width="186" height="63" viewBox="0 0 186 63" fill="none" xmlns="http://www.w3.org/2000/svg">
<path d="M18.5811 60.1462L20.5242 54.0554H19.7955L20.1598 52.8372H20.8885L21.1314 52.1063C21.1314 51.8627 21.2528 51.7409 21.3743 51.619C21.4957 51.4972 21.4957 51.3754 21.6171 51.1318C21.7386 51.01 21.86 50.8881 21.9815 50.7663C22.1029 50.6445 22.3458 50.6445 22.5887 50.5227C22.8316 50.4009 23.0745 50.4009 23.4388 50.4009H23.9246L23.5602 51.7409C23.3174 51.7409 23.0745 51.7409 22.953 51.8627C22.8316 51.8627 22.7101 52.1063 22.7101 52.2281L22.4673 52.8372H23.1959L22.8316 54.0554H22.1029L20.1598 60.1462H18.5811Z" fill="black"/>
<path d="M22.5885 58.929C22.5885 58.6853 22.71 58.4417 22.71 58.3199L24.4102 52.8381H26.1104L24.4102 58.1981C24.4102 58.3199 24.4102 58.4417 24.4102 58.4417C24.4102 58.8071 24.5316 59.0508 25.0174 59.0508C25.6246 59.0508 25.9889 58.8071 26.1104 58.1981L27.6891 52.8381H29.3894L27.0819 60.1471H25.5032L25.746 59.4162C25.1388 60.0253 24.5316 60.3908 23.9244 60.3908C23.4386 60.3908 23.0743 60.2689 22.9528 60.0253C22.5885 59.7817 22.4671 59.4162 22.5885 58.929Z" fill="black"/>
<path d="M28.7823 59.294C28.7823 59.1722 28.7823 59.0504 28.9037 58.9286L30.3611 54.1777H29.6324L29.9967 52.8377H30.7254L31.3326 50.8887H33.0328L32.4256 52.8377H33.1543L32.7899 54.0559H32.0613L30.7254 58.1977C30.604 58.3195 30.604 58.4413 30.604 58.5631C30.604 58.6849 30.604 58.8067 30.7254 58.8067C30.8468 58.8067 30.9683 58.9286 31.2112 58.9286L30.8468 60.1467C30.604 60.1467 30.3611 60.1467 29.9967 60.1467C29.0252 60.2685 28.6609 59.9031 28.7823 59.294Z" fill="black"/>
<path d="M32.4256 58.929C32.4256 58.6853 32.547 58.4417 32.547 58.3199L34.2472 52.8381H35.9474L34.2472 58.1981C34.2472 58.3199 34.2472 58.4417 34.2472 58.4417C34.2472 58.8071 34.3687 59.0508 34.8544 59.0508C35.4617 59.0508 35.826 58.8071 35.9474 58.1981L37.5262 52.8381H39.2264L36.919 60.1471H35.2188L35.4617 59.4162C34.8544 60.0253 34.2472 60.3908 33.64 60.3908C33.1542 60.3908 32.7899 60.2689 32.6685 60.0253C32.4256 59.7817 32.3041 59.4162 32.4256 58.929Z" fill="black"/>
<path d="M38.1328 60.1464L40.4402 52.8374H42.019L41.5332 54.1774C42.1404 53.2028 42.8691 52.7156 43.7192 52.7156L43.112 54.5428C42.9906 54.5428 42.8691 54.5428 42.7477 54.5428C42.6262 54.5428 42.5048 54.5428 42.3833 54.5428C42.2619 54.5428 42.1404 54.6646 42.019 54.6646C41.8976 54.7865 41.7761 54.7865 41.6547 54.9083C41.5332 55.0301 41.4118 55.1519 41.2903 55.3955C41.1689 55.6392 41.0475 55.761 40.926 56.0046L39.7116 60.0246H38.1328V60.1464Z" fill="black"/>
<path d="M42.7471 58.6846C42.7471 58.4409 42.8685 58.1973 42.7471 58.1973L43.7186 55.1519C44.083 54.1774 44.4473 53.5683 45.0545 53.2028C45.6617 52.8374 46.2689 52.5938 47.119 52.5938C47.7263 52.5938 48.3335 52.7156 48.5764 52.9592C48.9407 53.2028 49.0621 53.6901 49.0621 54.1774C49.0621 54.421 48.9407 54.5428 48.9407 54.9083L48.3335 56.8573H44.9331L44.4473 58.3191C44.4473 58.4409 44.4473 58.4409 44.4473 58.5628C44.4473 58.9282 44.6902 59.05 45.0545 59.05C45.2974 59.05 45.5403 58.9282 45.7832 58.8064C46.0261 58.6846 46.1475 58.4409 46.1475 58.1973L46.2689 57.8319H47.9692C47.7263 58.6846 47.3619 59.2937 46.7547 59.7809C46.1475 60.1464 45.4188 60.39 44.6902 60.39C44.0829 60.39 43.4757 60.2682 43.2328 60.0246C42.8685 59.6591 42.7471 59.2937 42.7471 58.6846ZM45.2974 55.6392H46.9976L47.3619 54.6646C47.3619 54.5428 47.3619 54.5428 47.3619 54.421C47.3619 54.1774 47.3619 54.0555 47.2405 53.9337C47.119 53.8119 46.9976 53.8119 46.7547 53.8119C46.5118 53.8119 46.2689 53.9337 46.0261 54.0555C45.7832 54.1774 45.6617 54.421 45.6617 54.6646L45.2974 55.6392Z" fill="black"/>
<path d="M51.6145 60.9991H53.1933C53.1933 61.2427 53.4362 61.3645 53.8005 61.3645C54.0434 61.3645 54.2863 61.2427 54.4077 61.1209C54.6506 60.9991 54.7721 60.7554 54.7721 60.6336L55.1364 59.4155C54.8935 59.6591 54.6506 59.9027 54.2863 60.1464C53.922 60.2682 53.6791 60.39 53.4362 60.39C52.9504 60.39 52.5861 60.2682 52.3432 60.0245C52.1003 59.7809 51.9789 59.4155 51.9789 58.9282C51.9789 58.8064 51.9789 58.5628 52.1003 58.3191L53.1933 54.6646C53.4362 53.9337 53.8005 53.4465 54.2863 53.081C54.7721 52.7156 55.2578 52.5938 55.8651 52.5938C56.2294 52.5938 56.4723 52.7156 56.5937 52.8374C56.8366 52.9592 56.958 53.2028 56.958 53.3247L57.0795 52.8374H58.6583L56.2294 60.39C55.9865 61.2427 55.6222 61.73 55.1364 62.2172C54.6506 62.5827 54.0434 62.8263 53.1933 62.8263C52.4646 62.8263 51.8574 62.7045 51.6145 62.4609C51.6145 62.0954 51.4931 61.6082 51.6145 60.9991ZM54.0434 58.4409C54.0434 58.6846 54.0434 58.8064 54.1648 58.9282C54.2863 59.05 54.4077 59.05 54.6506 59.05C54.8935 59.05 55.1364 58.9282 55.2578 58.8064C55.5007 58.6846 55.6222 58.4409 55.7436 58.1973L56.8366 54.7864C56.8366 54.6646 56.8366 54.5428 56.8366 54.5428C56.8366 54.2992 56.8366 54.1774 56.7152 54.0555C56.5937 53.9337 56.4723 53.9337 56.2294 53.9337C55.9865 53.9337 55.7436 54.0555 55.6222 54.1774C55.3793 54.2992 55.2578 54.5428 55.1364 54.7864L54.0434 58.0755C54.0434 58.1973 54.0434 58.3191 54.0434 58.4409Z" fill="black"/>
<path d="M58.415 58.6843C58.415 58.4407 58.5365 58.197 58.5365 58.197L59.508 55.1516C59.7509 54.0553 60.2367 53.568 60.8439 53.0808C61.4511 52.7153 62.0583 52.4717 62.9085 52.4717C63.5157 52.4717 64.1229 52.5935 64.3658 52.8371C64.7301 53.0808 64.8516 53.568 64.8516 54.0553C64.8516 54.2989 64.7301 54.4207 64.7301 54.7862L64.1229 56.7353H60.7225L60.2367 58.197C60.2367 58.3189 60.2367 58.3189 60.2367 58.4407C60.2367 58.8061 60.4796 58.9279 60.8439 58.9279C61.0868 58.9279 61.3297 58.8061 61.5726 58.6843C61.8155 58.5625 61.9369 58.3189 61.9369 58.0752L62.0583 57.7098H63.7586C63.5157 58.5625 63.1513 59.1716 62.5441 59.6588C61.9369 60.0243 61.2082 60.2679 60.4796 60.2679C59.8724 60.2679 59.2651 60.1461 59.0223 59.9025C58.5365 59.6588 58.415 59.2934 58.415 58.6843ZM61.0868 55.6389H62.787L63.0299 54.6644C63.0299 54.5426 63.0299 54.5426 63.0299 54.4207C63.0299 54.1771 63.0299 54.0553 62.9085 53.9335C62.787 53.8117 62.6656 53.8117 62.4227 53.8117C62.1798 53.8117 61.9369 53.9335 61.694 54.0553C61.4511 54.1771 61.3297 54.4207 61.3297 54.6644L61.0868 55.6389Z" fill="black"/>
<path d="M64.2432 60.1464L66.5506 52.8374H68.2508L68.0079 53.4465C68.2508 53.2028 68.4937 53.081 68.7366 52.8374C68.9795 52.7156 69.3438 52.5938 69.7081 52.5938C70.1939 52.5938 70.5582 52.7156 70.6797 52.9592C70.9226 53.2028 71.044 53.5683 70.9226 54.0555C70.9226 54.2992 70.8011 54.5428 70.8011 54.7864L69.1009 60.2682H67.4007L69.1009 55.0301C69.1009 54.9083 69.1009 54.9083 69.1009 54.6646C69.1009 54.2992 68.9795 54.0555 68.4937 54.0555C68.2508 54.0555 68.0079 54.1774 67.8865 54.2992C67.6436 54.421 67.5221 54.6646 67.5221 54.9083L65.8219 60.1464H64.2432Z" fill="black"/>
<path d="M70.9229 58.6846C70.9229 58.4409 71.0443 58.1973 71.0443 57.9537L72.0158 54.9083C72.2587 54.0555 72.6231 53.5683 73.2303 53.2028C73.8375 52.8374 74.4447 52.5938 75.2948 52.5938C75.9021 52.5938 76.5093 52.7156 76.7522 52.9592C77.1165 53.2028 77.2379 53.6901 77.2379 54.1774C77.2379 54.421 77.1165 54.5428 77.1165 54.9083L76.5093 56.9791H73.1088L72.7445 58.4409C72.7445 58.5628 72.7445 58.5628 72.7445 58.6846C72.7445 59.05 72.9874 59.1718 73.3517 59.1718C73.5946 59.1718 73.8375 59.05 74.0804 58.9282C74.3233 58.8064 74.4447 58.5628 74.4447 58.3191L74.5662 57.9537H76.2664C76.0235 58.8064 75.6592 59.4155 75.0519 59.9027C74.3233 60.1464 73.7161 60.39 72.866 60.39C72.2587 60.39 71.6515 60.2682 71.4086 60.0246C71.0443 59.6591 70.9229 59.2937 70.9229 58.6846ZM73.4732 55.761H75.1734L75.5377 54.7864C75.5377 54.6646 75.5377 54.6646 75.5377 54.5428C75.5377 54.2992 75.5377 54.1774 75.4163 54.0555C75.2948 53.9337 75.1734 53.9337 74.9305 53.9337C74.6876 53.9337 74.4447 54.0556 74.2018 54.1774C73.9589 54.2992 73.8375 54.5428 73.8375 54.7864L73.4732 55.761Z" fill="black"/>
<path d="M76.7529 60.1464L79.0604 52.8374H80.6391L80.1534 54.1774C80.7606 53.2028 81.4892 52.7156 82.3393 52.7156L81.7321 54.5428C81.6107 54.5428 81.4892 54.5428 81.3678 54.5428C81.2463 54.5428 81.1249 54.5428 81.0035 54.5428C80.882 54.5428 80.7606 54.6646 80.6391 54.6646C80.5177 54.7865 80.3962 54.7865 80.2748 54.9083C80.1533 55.0301 80.0319 55.1519 79.9105 55.3955C79.789 55.6392 79.6676 55.761 79.5461 56.0046L78.3317 60.0246H76.7529V60.1464Z" fill="black"/>
<path d="M81.2459 58.9282C81.3673 58.1973 81.6102 57.5882 82.096 57.101C82.5818 56.6137 83.189 56.2482 84.0391 55.8828C84.7678 55.6392 85.2535 55.3955 85.4964 55.1519C85.8608 54.9083 85.9822 54.6646 85.9822 54.421C85.9822 54.0555 85.8608 53.9337 85.375 53.9337C85.1321 53.9337 84.8892 54.0556 84.6463 54.1774C84.4034 54.2992 84.282 54.6646 84.1605 55.0301H82.5818C82.7032 54.5428 82.9461 54.0555 83.3104 53.6901C83.6748 53.3247 84.0391 53.081 84.5249 52.8374C85.0106 52.5938 85.375 52.5938 85.8608 52.5938C86.468 52.5938 87.0752 52.7156 87.4395 52.9592C87.8039 53.2028 87.9253 53.5683 87.9253 54.0555C87.9253 54.1774 87.9253 54.2992 87.8039 54.5428L86.2251 59.05C86.1036 59.4155 86.1036 59.6591 86.1036 59.7809C86.1036 59.9027 86.1036 60.0245 86.1036 60.1464H84.4034C84.4034 60.1464 84.4034 60.0245 84.4034 59.9027C84.4034 59.7809 84.4034 59.6591 84.5249 59.4155C84.282 59.7809 83.9177 59.9027 83.6748 60.1464C83.3104 60.2682 82.9461 60.39 82.5818 60.39C82.096 60.39 81.7317 60.2682 81.4888 60.0246C81.2459 59.7809 81.1244 59.4155 81.2459 58.9282ZM83.0675 58.4409C83.0675 58.6846 83.0675 58.8064 83.189 58.9282C83.3104 59.05 83.4319 59.05 83.5533 59.05C83.7962 59.05 84.1605 58.9282 84.4034 58.8064C84.6463 58.6846 84.7678 58.4409 84.8892 58.0755L85.375 56.2482L84.0391 56.9791C83.7962 57.101 83.5533 57.3446 83.3104 57.5882C83.189 57.9537 83.0675 58.1973 83.0675 58.4409Z" fill="black"/>
<path d="M87.6816 59.294C87.6816 59.1722 87.6816 59.0504 87.803 58.9286L89.2603 54.1777H88.5317L88.896 52.8377H89.6247L90.2319 50.8887H91.9321L91.3249 52.8377H92.0535L91.6892 54.1777H90.9605L89.6247 58.3195C89.5032 58.4413 89.5032 58.5631 89.5032 58.6849C89.5032 58.8067 89.5032 58.9286 89.6247 58.9286C89.7461 58.9286 89.8675 59.0504 90.1104 59.0504L89.7461 60.2685C89.5032 60.2685 89.2603 60.2685 88.896 60.2685C88.0459 60.2685 87.5601 59.9031 87.6816 59.294Z" fill="black"/>
<path d="M90.8398 60.1467L93.1473 52.8377H94.8475L92.54 60.1467H90.8398ZM93.3902 52.1068L93.8759 50.8887H95.5761L95.0904 52.1068H93.3902Z" fill="black"/>
<path d="M94.2402 58.6846C94.2402 58.4409 94.3617 58.1973 94.3617 57.9537L95.3332 55.0301C95.4547 54.6646 95.5761 54.421 95.819 54.0555C95.9405 53.8119 96.1833 53.5683 96.5477 53.3247C96.7906 53.081 97.1549 52.9592 97.5192 52.8374C97.8836 52.7156 98.3693 52.5938 98.8551 52.5938C99.5838 52.5938 100.191 52.7156 100.434 53.081C100.798 53.4465 100.92 53.8119 100.798 54.2992C100.798 54.5428 100.677 54.7864 100.677 55.0301L99.7052 57.9537C99.5838 58.3191 99.4623 58.5628 99.2194 58.9282C99.098 59.1718 98.8551 59.4155 98.4908 59.6591C98.2479 59.9027 97.8836 60.0245 97.5192 60.1464C97.1549 60.2682 96.7906 60.39 96.3048 60.39C95.5761 60.39 94.9689 60.2682 94.726 59.9027C94.3617 59.5373 94.2402 59.1718 94.2402 58.6846ZM96.0619 58.5628C96.0619 58.9282 96.3048 59.05 96.7906 59.05C97.0334 59.05 97.2763 58.9282 97.5192 58.8064C97.7621 58.6846 97.8836 58.4409 98.005 58.0755L99.098 54.6646C99.098 54.5428 99.2194 54.421 99.2194 54.2992C99.2194 54.0555 99.2194 53.9337 99.098 53.8119C98.9765 53.6901 98.8551 53.6901 98.6122 53.6901C98.005 53.6901 97.6407 53.9337 97.5192 54.5428L96.4262 58.0755C96.0619 58.3191 96.0619 58.4409 96.0619 58.5628Z" fill="black"/>
<path d="M100.19 60.1464L102.498 52.8374H104.198L103.955 53.4465C104.198 53.2028 104.441 53.081 104.684 52.8374C104.927 52.7156 105.291 52.5938 105.655 52.5938C106.141 52.5938 106.505 52.7156 106.627 52.9592C106.87 53.2028 106.991 53.5683 106.87 54.0555C106.87 54.2992 106.748 54.5428 106.748 54.7864L105.048 60.2682H103.348L105.048 55.0301C105.048 54.9083 105.048 54.9083 105.17 54.6646C105.17 54.2992 105.048 54.0555 104.562 54.0555C104.32 54.0555 104.077 54.1774 103.955 54.2992C103.712 54.421 103.591 54.6646 103.591 54.9083L101.891 60.1464H100.19Z" fill="black"/>
<path d="M110.149 58.6846C110.149 58.4409 110.271 58.1973 110.271 57.9537L111.242 54.9083C111.485 54.0555 111.849 53.5683 112.457 53.2028C113.064 52.8374 113.671 52.5938 114.521 52.5938C115.128 52.5938 115.736 52.7156 115.979 52.9592C116.343 53.2028 116.464 53.6901 116.464 54.1774C116.464 54.421 116.343 54.5428 116.343 54.9083L115.736 56.8573H112.335L111.849 58.3191C111.849 58.4409 111.849 58.4409 111.849 58.5628C111.849 58.9282 112.092 59.05 112.457 59.05C112.7 59.05 112.942 58.9282 113.185 58.8064C113.428 58.6846 113.55 58.4409 113.55 58.1973L113.671 57.8319H115.371C115.128 58.6846 114.764 59.2937 114.157 59.7809C113.55 60.1464 112.821 60.39 112.092 60.39C111.485 60.39 110.878 60.2682 110.635 60.0246C110.149 59.6591 110.028 59.2937 110.149 58.6846ZM112.7 55.761H114.4L114.764 54.7864C114.764 54.6646 114.764 54.6646 114.764 54.5428C114.764 54.2992 114.764 54.1774 114.643 54.0555C114.521 53.9337 114.4 53.9337 114.157 53.9337C113.914 53.9337 113.671 54.0556 113.428 54.1774C113.185 54.2992 113.064 54.5428 113.064 54.7864L112.7 55.761Z" fill="black"/>
<path d="M115.979 60.1464L118.286 52.8374H119.986L119.743 53.4465C119.986 53.2028 120.229 53.081 120.472 52.8374C120.715 52.7156 121.079 52.5938 121.443 52.5938C121.929 52.5938 122.294 52.7156 122.415 52.9592C122.658 53.2028 122.779 53.5683 122.658 54.0555C122.658 54.2992 122.536 54.5428 122.536 54.7864L120.836 60.2682H119.136L120.836 55.0301C120.836 54.9083 120.836 54.9083 120.958 54.6646C120.958 54.2992 120.836 54.0555 120.35 54.0555C120.108 54.0555 119.865 54.1774 119.743 54.2992C119.5 54.421 119.379 54.6646 119.379 54.9083L117.679 60.1464H115.979Z" fill="black"/>
<path d="M122.658 58.6846C122.658 58.4409 122.78 58.1973 122.78 57.9537L123.751 54.9083C123.994 54.0555 124.358 53.5683 124.965 53.2028C125.573 52.8374 126.18 52.5938 127.03 52.5938C127.637 52.5938 128.244 52.7156 128.487 52.9592C128.852 53.2028 128.973 53.6901 128.973 54.1774C128.973 54.421 128.852 54.5428 128.852 54.9083L128.244 56.8573H124.844L124.358 58.3191C124.358 58.4409 124.358 58.4409 124.358 58.5628C124.358 58.9282 124.601 59.05 124.965 59.05C125.208 59.05 125.451 58.9282 125.694 58.8064C125.937 58.6846 126.058 58.4409 126.058 58.1973L126.18 57.8319H127.88C127.637 58.6846 127.273 59.2937 126.666 59.7809C126.058 60.1464 125.33 60.39 124.601 60.39C123.994 60.39 123.387 60.2682 123.144 60.0246C122.658 59.6591 122.537 59.2937 122.658 58.6846ZM125.208 55.761H126.909L127.151 54.7864C127.151 54.6646 127.151 54.6646 127.151 54.5428C127.151 54.2992 127.151 54.1774 127.03 54.0555C126.909 53.9337 126.787 53.9337 126.544 53.9337C126.301 53.9337 126.058 54.0556 125.816 54.1774C125.573 54.2992 125.451 54.5428 125.451 54.7864L125.208 55.761Z" fill="black"/>
<path d="M128.365 60.1464L130.673 52.8374H132.251L131.766 54.1774C132.373 53.2028 133.102 52.7156 133.952 52.7156L133.344 54.5428C133.223 54.5428 133.102 54.5428 132.98 54.5428C132.859 54.5428 132.737 54.5428 132.616 54.5428C132.494 54.5428 132.373 54.6646 132.251 54.6646C132.13 54.7865 132.009 54.7865 131.887 54.9083C131.766 55.0301 131.644 55.1519 131.523 55.3955C131.401 55.6392 131.28 55.761 131.158 56.0046L129.944 60.0246H128.365V60.1464Z" fill="black"/>
<path d="M132.373 60.9991H133.952C133.952 61.2427 134.195 61.3645 134.559 61.3645C134.802 61.3645 135.045 61.2427 135.167 61.1209C135.409 60.9991 135.531 60.7554 135.531 60.6336L135.895 59.4155C135.652 59.6591 135.409 59.9027 135.045 60.1464C134.681 60.2682 134.438 60.39 134.195 60.39C133.709 60.39 133.345 60.2682 133.102 60.0245C132.859 59.7809 132.738 59.4155 132.738 58.9282C132.738 58.8064 132.738 58.5628 132.859 58.3191L133.952 54.6646C134.195 53.9337 134.559 53.4465 135.045 53.081C135.531 52.7156 136.017 52.5938 136.624 52.5938C136.988 52.5938 137.231 52.7156 137.352 52.8374C137.595 52.9592 137.717 53.2028 137.717 53.3247L137.838 52.8374H139.417L136.988 60.39C136.745 61.2427 136.381 61.73 135.895 62.2172C135.409 62.5827 134.802 62.8263 133.952 62.8263C133.223 62.8263 132.616 62.7045 132.373 62.4609C132.373 62.0954 132.252 61.6082 132.373 60.9991ZM134.802 58.4409C134.802 58.6846 134.802 58.8064 134.924 58.9282C135.045 59.05 135.166 59.05 135.409 59.05C135.652 59.05 135.895 58.9282 136.017 58.8064C136.259 58.6846 136.381 58.4409 136.502 58.1973L137.595 54.7864C137.595 54.6646 137.595 54.5428 137.595 54.5428C137.595 54.2992 137.595 54.1774 137.474 54.0555C137.352 53.9337 137.231 53.9337 136.988 53.9337C136.745 53.9337 136.502 54.0555 136.381 54.1774C136.138 54.2992 136.017 54.5428 135.895 54.7864L134.802 58.0755C134.802 58.1973 134.802 58.3191 134.802 58.4409Z" fill="black"/>
<path d="M138.445 62.5835L138.81 61.3653H139.417C139.538 61.3653 139.66 61.3653 139.781 61.2435C139.903 61.1217 139.903 60.9998 140.024 60.878C140.024 60.3908 140.267 57.7108 140.631 52.96H142.453L141.603 58.5635L144.396 52.96H146.096L141.481 61.2435C141.117 61.8526 140.874 62.218 140.51 62.4616C140.146 62.7053 139.781 62.8271 139.295 62.8271C138.931 62.5835 138.688 62.5835 138.445 62.5835Z" fill="black"/>
<path d="M51.0067 34.0779L50.1566 37.1233C48.4564 42.4832 42.6271 48.574 34.6118 48.574H33.1545C29.3897 48.574 22.5889 43.945 25.2606 35.4179L29.9969 19.5817C32.4258 12.0291 39.1052 6.91284 46.149 6.91284H46.8776C54.65 6.91284 57.5647 14.5873 56.3502 18.729L52.9498 29.5707H37.8908L35.219 38.3415C34.9761 38.9505 34.4904 41.3869 36.5549 41.3869C38.3766 41.3869 39.2267 39.1942 39.4696 38.3415L40.8054 33.8343L51.0067 34.0779ZM42.7485 26.6471L45.9061 16.9018C46.8776 14.1 45.4203 13.7346 44.9345 13.6127C44.2059 13.4909 42.3842 14.7091 41.777 16.5363L38.6194 26.6471H42.7485Z" fill="#EF172F"/>
<path d="M62.1795 8.00845H72.8666L72.2594 10.5666C74.6882 8.49571 77.36 6.79028 81.2462 6.79028C86.8326 6.9121 86.5897 12.6375 85.4967 16.5356C84.4037 20.5555 75.7812 47.8424 75.7812 47.8424H64.9727L74.6882 16.7792C75.6598 14.3429 74.5668 13.612 74.081 13.612C73.2309 13.612 71.4093 14.4647 70.4377 16.7792L60.8436 47.8424H50.0352L62.1795 8.00845Z" fill="#EF172F"/>
<path d="M90.3555 8.00893H92.9058L95.2133 0.699951H105.779L103.593 8.00893H107.479L105.779 13.6125H101.893C101.893 13.6125 94.4846 37.123 94.2417 38.0976C93.9988 39.0721 93.3916 41.6303 95.8205 41.6303C96.3063 41.6303 97.0349 41.143 97.2778 41.0212C97.2778 41.0212 95.4562 46.9902 95.2133 47.4774C94.7275 47.8429 93.0273 48.452 90.9627 48.452C86.9551 48.452 81.1258 45.4066 83.3118 38.0976L90.9627 13.4907H88.6553L90.3555 8.00893Z" fill="#EF172F"/>
<path d="M123.873 47.8437H113.672L114.158 43.9456C111.243 47.3565 106.871 48.8182 104.442 48.4528C98.006 47.6001 100.071 41.3874 100.799 39.0729L110.272 8.00977H121.323L111.608 38.8293C111.486 39.3166 111.122 41.6311 112.336 41.6311C113.308 41.6311 114.644 41.022 115.615 39.3166L125.331 8.00977H136.139L123.873 47.8437Z" fill="#EF172F"/>
<path d="M151.563 8.00912L149.862 13.4909C153.384 8.25275 157.878 7.03459 159.214 6.91277C160.185 6.79096 161.278 7.03459 161.642 7.27822L157.513 20.5562C157.513 20.5562 154.963 17.9981 151.32 19.8253C148.284 21.2871 146.705 24.0889 145.733 26.8907C144.883 29.5706 139.297 47.8431 139.297 47.8431H128.488L140.633 8.00912H151.563Z" fill="#EF172F"/>
<path d="M160.305 17.9984C163.219 8.98394 170.992 6.66943 174.878 6.66943H176.7C184.108 6.66943 186.779 13.4911 185.808 16.6584L176.092 47.7215H165.405L166.62 43.7016C164.312 46.2597 162.248 48.4524 156.904 48.3306C150.468 48.3306 150.468 41.8744 152.046 36.8799L152.411 35.7835C154.597 29.9364 160.669 27.2564 166.255 25.3073C169.899 23.9674 171.963 23.7237 173.663 20.8001L174.999 16.5366C175.849 14.4657 174.756 13.2475 173.785 13.3693C172.328 13.3693 171.235 14.4657 170.749 16.6584L169.534 20.6783H159.697L160.305 17.9984ZM171.235 28.3527C167.713 29.2055 166.012 32.2509 165.527 33.469L164.069 38.098C163.948 38.5853 163.098 41.8744 165.162 41.6307C166.498 41.5089 167.591 40.4126 168.198 38.3417L171.235 28.3527Z" fill="#EF172F"/>
<path d="M24.6531 0.699951H22.2242L18.338 13.0034H21.8599L8.74394 41.3866L14.6947 16.0488H10.8085L15.7877 0.699951H15.059H9.47261H4.37197L0 48.2083H15.059L35.3401 0.699951H24.6531Z" fill="#EF172F"/>
</svg>
