<svg width="74" height="52" viewBox="0 0 74 52" fill="none" xmlns="http://www.w3.org/2000/svg">
<path fill-rule="evenodd" clip-rule="evenodd" d="M54.7806 23.7955C54.3884 22.5636 53.7347 21.4614 52.8195 20.5536C51.4467 19.192 49.4856 18.3491 47.3937 18.3491C45.6941 18.3491 44.0598 18.9327 42.7524 19.9052C42.1641 18.414 41.3796 16.9875 40.4644 15.6259C40.2683 15.3666 40.0068 15.0424 39.8107 14.7831C41.968 13.3566 44.5828 12.5137 47.3937 12.5137C51.1199 12.5137 54.5191 14.005 57.0032 16.4688C58.9643 18.414 60.3371 21.0075 60.7947 23.8604H54.7806V23.7955ZM26.1483 0C18.9575 0 12.4204 2.91771 7.64837 7.58604C2.94168 12.3192 0 18.803 0 25.9352C0 32.1596 2.2226 37.8005 5.88336 42.2743V25.9352C5.88336 20.3591 8.17133 15.3666 11.8321 11.7357C15.4928 8.10474 20.5918 5.83541 26.1483 5.83541H47.4591C53.081 5.83541 58.1145 8.10474 61.7753 11.7357C65.436 15.3666 67.724 20.424 67.724 25.9352C67.724 31.5112 65.436 36.5038 61.7753 40.1347C58.1145 43.7656 53.0156 46.0349 47.4591 46.0349H26.1483C23.4027 46.0349 20.7879 45.5162 18.4345 44.5437V42.015V40.8479V37.0225C20.5918 38.5137 23.272 39.4215 26.1483 39.4215C28.9592 39.4215 31.574 38.5786 33.7313 37.1521C32.62 35.7905 31.7048 34.2993 31.0511 32.6783C30.9857 32.4838 30.855 32.2893 30.7896 32.0299C29.4822 33.0025 27.9133 33.5212 26.1483 33.5212C23.991 33.5212 22.0953 32.6783 20.7225 31.3167C19.3497 29.9551 18.4999 28.01 18.4999 25.9352C18.4999 23.8604 19.3497 21.9152 20.7225 20.5536C22.0953 19.192 24.0564 18.3491 26.1483 18.3491C28.3055 18.3491 30.2012 19.192 31.574 20.5536C32.9468 21.9152 33.7966 23.8604 33.7966 25.9352C33.7966 29.6309 35.3002 33.0025 37.7842 35.4664C40.2683 37.9302 43.6676 39.4215 47.3937 39.4215C51.1199 39.4215 54.5191 37.9302 57.0032 35.4664C58.9643 33.5212 60.3371 30.9277 60.7947 28.0748H54.7806C54.3884 29.3067 53.7347 30.409 52.8195 31.3167C51.4467 32.6783 49.4856 33.5212 47.3937 33.5212C45.3019 33.5212 43.3408 32.6783 41.968 31.3167C40.5952 29.9551 39.7454 28.01 39.7454 25.9352C39.7454 22.2394 38.2418 18.8678 35.7578 16.404C33.2737 13.9402 29.8744 12.4489 26.1483 12.4489C22.4221 12.4489 19.0229 13.9402 16.5388 16.404C14.0547 18.8678 12.5512 22.2394 12.5512 25.9352V37.5412V40.8479V48.1097C16.5388 50.5088 21.1801 51.9352 26.1483 51.9352H47.4591C54.6499 51.9352 61.1869 49.0175 65.959 44.3491C70.6657 39.6808 73.6074 33.197 73.6074 26C73.6074 18.8678 70.6657 12.384 65.959 7.65088C61.2523 2.98255 54.7152 0.0648369 47.4591 0.0648369H26.1483V0Z" fill="white"/>
</svg>
