<svg width="72" height="65" viewBox="0 0 72 65" fill="none" xmlns="http://www.w3.org/2000/svg">
<path d="M26.0698 2.87834L69.3183 18.0244V54.1385L46.6382 62.2484L2.86847 46.5962V11.0028L26.0698 2.87834ZM26.0698 0.70752L0.818359 9.5488V48.0385L46.6353 64.4221L71.3654 55.5808V16.5703L26.0698 0.70752Z" fill="white"/>
<path d="M45.8741 27.1436L1.76172 11.5236L2.44704 9.59265L45.88 24.9727L70.3963 16.4738L71.0699 18.4076L45.8741 27.1436Z" fill="white"/>
<path d="M46.8068 26.044L44.7578 26.0844L45.4858 62.9519L47.5347 62.9116L46.8068 26.044Z" fill="white"/>
<path d="M2.10337 21.2601C2.10337 21.2601 14.9458 20.6749 19.5029 27.0148C24.06 33.3547 34.334 28.6736 37.9187 31.3067C41.5035 33.9398 42.7511 38.4248 45.5686 38.2317C45.5686 38.2317 48.9688 38.8168 53.1364 36.1837C57.3039 33.5507 57.3039 32.869 63.217 33.7467C69.1301 34.6244 70.243 31.0171 70.243 31.0171L70.0322 55.1302L45.302 62.9329L1.66406 46.7365L2.10337 21.2571V21.2601Z" fill="white"/>
<path d="M22.1565 11.4654C20.1831 11.4654 18.6934 10.7174 18.6934 9.72813V7.05523C18.6934 6.06593 20.1831 5.31799 22.1565 5.31799C24.1299 5.31799 25.6197 6.06593 25.6197 7.05523V9.72813C25.6197 10.7204 24.1299 11.4654 22.1565 11.4654ZM19.6671 8.28887V9.72813C19.6671 10.0648 20.6603 10.5714 22.1565 10.5714C23.6528 10.5714 24.646 10.0619 24.646 9.72813V8.28887C24.026 8.60474 23.153 8.79544 22.1565 8.79544C21.1601 8.79544 20.287 8.60474 19.6671 8.28887ZM19.6671 7.05821C19.6671 7.39493 20.6603 7.9015 22.1565 7.9015C23.6528 7.9015 24.646 7.39195 24.646 7.05821C24.646 6.72447 23.6528 6.21492 22.1565 6.21492C20.6603 6.21492 19.6671 6.72447 19.6671 7.05821Z" fill="white"/>
<path d="M50.6175 21.4549C48.6441 21.4549 47.1543 20.7069 47.1543 19.7176V17.0447C47.1543 16.0554 48.6441 15.3075 50.6175 15.3075C52.5908 15.3075 54.0806 16.0554 54.0806 17.0447V19.7176C54.0806 20.7099 52.5908 21.4549 50.6175 21.4549ZM48.128 18.2784V19.7176C48.128 20.0543 49.1212 20.5609 50.6175 20.5609C52.1137 20.5609 53.1069 20.0514 53.1069 19.7176V18.2784C52.487 18.5942 51.6139 18.7849 50.6175 18.7849C49.621 18.7849 48.7479 18.5942 48.128 18.2784ZM48.128 17.0477C48.128 17.3844 49.1212 17.891 50.6175 17.891C52.1137 17.891 53.1069 17.3815 53.1069 17.0477C53.1069 16.714 52.1137 16.2044 50.6175 16.2044C49.1212 16.2044 48.128 16.714 48.128 17.0477Z" fill="white"/>
<path d="M11.4852 40.9906V45.6483L8.14062 44.5277V30.2565C10.7677 31.0639 13.5236 31.9095 16.1536 32.7169V36.0317L11.4852 34.5689V37.7081L15.6206 39.0305V42.3423L11.4852 40.9936V40.9906Z" fill="#4BBE95"/>
<path d="M21.9784 45.7974L26.6468 47.3334V50.7359L18.6719 48.0619V33.4922L21.9784 34.5074V45.7974Z" fill="#4BBE95"/>
<path d="M36.33 52.0877L31.2575 50.4054L30.5048 52.0292L27.2891 50.9496V50.3996L33.0762 37.7228L34.4908 38.1558L40.2985 54.7471V55.3117L37.0827 54.2322L36.33 52.0847V52.0877ZM33.7762 44.0217L32.3235 47.4915L35.264 48.4482L33.7762 44.0217Z" fill="#4BBE95"/>
<path d="M45.5613 64.0477C45.371 55.4287 45.1865 46.8361 44.9961 38.2172L47.0462 38.2581L47.6232 64.074C47.2629 64.2027 47.014 64.3578 46.6538 64.4865L45.5613 64.0477Z" fill="#4BBE95"/>
<path d="M50.7595 44.6947V45.5841L50.0508 45.8415V43.1119L51.7465 42.4653V43.0973L50.7566 43.4688V44.0686L51.6323 43.7438V44.3728L50.7566 44.6947H50.7595Z" fill="#4BBE95"/>
<path d="M52.9812 44.1386L53.9711 43.7759V44.4195L52.2812 45.031V42.2604L52.9812 41.9941V44.1386Z" fill="#4BBE95"/>
<path d="M54.2852 42.907C54.2852 40.9644 57.0792 39.8907 57.0792 41.8684C57.0792 43.8461 54.2852 44.8525 54.2852 42.907ZM56.3675 42.1346C56.3675 41.1107 54.9998 41.6256 54.9998 42.6408C54.9998 43.656 56.3675 43.1674 56.3675 42.1346Z" fill="#4BBE95"/>
<path d="M57.4395 41.7368C57.4395 39.7532 60.2335 38.6795 60.2335 40.6982C60.2335 42.7169 57.4395 43.7233 57.4395 41.7368ZM59.5218 40.9645C59.5218 39.9171 58.1541 40.4349 58.1541 41.4706C58.1541 42.5063 59.5218 42.0177 59.5218 40.9645Z" fill="#4BBE95"/>
<path d="M61.7877 41.5932L60.7598 41.9648V39.0362L61.7877 38.6442C63.5625 37.9771 63.5625 40.9437 61.7877 41.5932ZM61.4568 41.0286L61.7877 40.9086C62.6546 40.5897 62.6546 39.007 61.7877 39.3317L61.4568 39.4575V41.0286Z" fill="#4BBE95"/>
<path d="M65.35 37.9773L64.3425 38.3577V38.7819L65.268 38.4366V39.1212L64.3425 39.4635V39.9902L65.3852 39.6069V40.2915L63.6484 40.9205V37.9364L65.35 37.2898V37.9802V37.9773Z" fill="#4BBE95"/>
<path d="M67.0124 39.7035L65.9844 40.075V37.047L67.0124 36.655C68.7872 35.9879 68.7872 39.0511 67.0124 39.7035ZM66.6814 39.1154L67.0124 38.9955C67.8793 38.6766 67.8793 37.0412 67.0124 37.3659L66.6814 37.4917V39.1154Z" fill="#4BBE95"/>
<path d="M50.7468 49.6593L51.7367 49.3287V49.9636L50.0469 50.5194V47.7898L50.7468 47.547V49.6593Z" fill="#4BBE95"/>
<path d="M53.9164 47.0848L52.909 47.433V47.8279L53.8344 47.512V48.1468L52.909 48.4599V48.9484L53.9516 48.6003V49.2381L52.2148 49.8086V47.0409L53.9164 46.45V47.0907V47.0848Z" fill="#4BBE95"/>
<path d="M56.1244 48.1584L55.0495 48.5154L54.8914 48.922L54.209 49.1473V49.042L55.4361 45.8764L55.7348 45.7711L56.9649 48.1321V48.2374L56.2825 48.4627L56.1244 48.1584ZM55.5826 46.9706L55.278 47.8161L55.893 47.6084L55.5826 46.9677V46.9706Z" fill="#4BBE95"/>
<path d="M58.3522 47.7842L57.3242 48.1236V45.2593L58.3522 44.9024C60.127 44.2939 60.127 47.1932 58.3522 47.7871V47.7842ZM58.0213 47.2225L58.3522 47.1113C59.2191 46.8216 59.2191 45.271 58.3522 45.5695L58.0213 45.6836V47.2225Z" fill="#4BBE95"/>
<path d="M51.6224 54.3842L50.5476 54.7061L50.3894 55.0981L49.707 55.3V55.1976L50.9342 52.1549L51.2329 52.0613L52.463 54.3784V54.4808L51.7806 54.6827L51.6224 54.3842ZM51.0806 53.2198L50.776 54.0332L51.391 53.8459L51.0806 53.2169V53.2198Z" fill="#4BBE95"/>
<path d="M54.0572 51.172C54.6224 50.9935 55.2316 51.1193 55.337 51.8419L54.6517 52.0526C54.555 51.7981 54.3471 51.7337 54.0572 51.8244C53.6471 51.9531 53.3806 52.351 53.3806 52.8132C53.3806 53.2228 53.6442 53.5037 54.0572 53.3837C54.353 53.296 54.5902 53.0707 54.6634 52.746L55.3487 52.5382C55.2462 53.3691 54.637 53.8636 54.0572 54.0362C53.3631 54.2468 52.6631 53.9777 52.6602 53.0356C52.6631 52.0906 53.366 51.3914 54.0572 51.172Z" fill="#4BBE95"/>
<path d="M57.0406 52.4799V53.1206L55.6582 53.5302V52.8953L56.0038 52.79V51.2189L55.6846 51.3184V50.6864L57.0113 50.2681V50.9059L56.692 51.0053V52.5822L57.0376 52.4769L57.0406 52.4799Z" fill="#4BBE95"/>
<path d="M58.5221 52.6787L57.4941 52.9829V50.1158L58.5221 49.7911C60.2969 49.2381 60.2969 52.1433 58.5221 52.6787ZM58.1912 52.1053L58.5221 52.0058C59.389 51.7454 59.389 50.1919 58.5221 50.464L58.1912 50.5664V52.1053Z" fill="#4BBE95"/>
</svg>
