<svg width="118" height="77" viewBox="0 0 118 77" fill="none" xmlns="http://www.w3.org/2000/svg">
<path d="M24.943 55.789H27.0197L29.0189 49.3488H31.5838L32.0448 47.8741H24.8849L24.4199 49.3488H26.9461L24.943 55.789Z" fill="white"/>
<path d="M35.695 49.349L37.1014 49.3528C37.2719 49.3606 37.4114 49.3915 37.5276 49.4457C37.6439 49.4999 37.7291 49.5734 37.7872 49.6663C37.8453 49.7592 37.8802 49.8676 37.888 49.9914C37.8957 50.1153 37.8802 50.2507 37.8415 50.3978C37.7911 50.5759 37.7175 50.7345 37.6206 50.8739C37.5199 51.0132 37.3998 51.1332 37.2603 51.23C37.1208 51.3267 36.962 51.4041 36.7876 51.4544C36.6133 51.5047 36.4273 51.5357 36.2297 51.5357L35.0209 51.5241L35.695 49.349ZM33.6919 55.7892L34.5637 52.9948H35.7144L36.3537 55.7892H38.566L38.5776 55.6964L37.7601 52.5343C38.3684 52.3175 38.8527 52.0195 39.2208 51.648C39.5888 51.2725 39.8291 50.8003 39.9375 50.2275C40.0189 49.825 40.0034 49.4767 39.8911 49.1864C39.7787 48.8922 39.6005 48.6523 39.3564 48.4626C39.1123 48.273 38.814 48.1298 38.4653 48.0369C38.1166 47.944 37.7369 47.8937 37.3339 47.886L34.0716 47.8821L31.6152 55.7931H33.6919V55.7892Z" fill="white"/>
<path d="M41.9363 55.1157C42.1727 55.3634 42.4749 55.5569 42.8468 55.6885C43.2188 55.824 43.6411 55.8936 44.1138 55.9014C44.6213 55.9091 45.1018 55.8511 45.5512 55.7233C46.0006 55.5956 46.4036 55.4098 46.76 55.1621C47.1165 54.9183 47.4264 54.6164 47.6821 54.2565C47.9379 53.9004 48.1277 53.494 48.2556 53.0373L49.8441 47.8742H47.7713L46.1827 53.0412C46.1207 53.2463 46.0433 53.4321 45.9425 53.6024C45.8418 53.7766 45.7217 53.9236 45.5744 54.0475C45.4272 54.1713 45.2606 54.2681 45.0669 54.3378C44.8732 54.4035 44.6562 54.4345 44.4121 54.4268C44.1835 54.419 44.0014 54.3765 43.8736 54.2991C43.7418 54.2216 43.6488 54.121 43.5946 53.9972C43.5365 53.8733 43.5132 53.7262 43.5171 53.5637C43.521 53.4011 43.5481 53.227 43.5946 53.0451L45.1754 47.8704H43.0909L41.5063 53.0373C41.3978 53.4708 41.3823 53.8656 41.4637 54.2139C41.545 54.57 41.7 54.868 41.9363 55.1157Z" fill="white"/>
<path d="M56.6939 54.3183H52.8582L53.4471 52.4334H56.69L57.1278 51.0169H53.881L54.4041 49.3488H58.2437L58.7008 47.8741H52.7846L50.332 55.789H56.2367L56.6939 54.3183Z" fill="white"/>
<path d="M65.6061 55.5609C66.009 55.7738 66.5204 55.8821 67.1326 55.8899C67.4232 55.8937 67.737 55.8783 68.0702 55.8473C68.4034 55.8163 68.7366 55.7583 69.0698 55.6731C69.3991 55.5918 69.7168 55.4796 70.0229 55.3441C70.3251 55.2048 70.5886 55.0268 70.8172 54.8139L71.7703 51.5589H68.2639L67.8571 52.8671H69.2907L68.8722 54.1018C68.663 54.2179 68.4499 54.2991 68.2252 54.3495C68.0005 54.3998 67.7719 54.423 67.5394 54.4191C67.2992 54.4153 67.1016 54.3766 66.9466 54.303C66.7916 54.2295 66.6754 54.1289 66.5863 54.0089C66.4972 53.8889 66.4429 53.7496 66.4119 53.5909C66.3809 53.4322 66.3693 53.2658 66.3771 53.0955C66.3848 52.9213 66.4042 52.7471 66.4391 52.5691C66.4739 52.3911 66.5127 52.2208 66.5514 52.0582L66.6715 51.6015C66.7219 51.4312 66.78 51.2493 66.8536 51.0635C66.9272 50.8739 67.0125 50.692 67.1132 50.5139C67.214 50.3359 67.3263 50.1656 67.458 50.0069C67.5859 49.8443 67.737 49.705 67.8997 49.585C68.0625 49.4651 68.2407 49.3722 68.4383 49.3064C68.6359 49.2406 68.849 49.2135 69.0892 49.2212C69.3062 49.229 69.4882 49.2638 69.6277 49.3257C69.7672 49.3876 69.8834 49.4728 69.9648 49.5812C70.0462 49.6895 70.1043 49.8173 70.1314 49.9643C70.1585 50.1114 70.1702 50.2778 70.1585 50.4597L72.1461 50.4636C72.1887 49.5966 71.9718 48.9309 71.4952 48.4704C71.0187 48.0098 70.2903 47.7737 69.3062 47.7582C68.8916 47.7505 68.5003 47.7931 68.1283 47.8898C67.7602 47.9827 67.4115 48.1182 67.0938 48.2885C66.7723 48.4588 66.4817 48.6639 66.2143 48.9038C65.947 49.1438 65.7068 49.407 65.4937 49.6934C65.2845 49.9837 65.0985 50.2894 64.9435 50.6107C64.7885 50.9358 64.6646 51.2686 64.5716 51.6054L64.4515 52.0466C64.3236 52.5497 64.2771 53.0258 64.312 53.4864C64.343 53.9469 64.467 54.3533 64.6839 54.7055C64.8893 55.0655 65.1992 55.3519 65.6061 55.5609Z" fill="white"/>
<path d="M79.6724 54.3183H75.8367L76.4295 52.4334H79.6685L80.1063 51.0169H76.8595L77.3865 49.3488H81.226L81.6832 47.8741H75.7631L73.3105 55.789H79.2152L79.6724 54.3183Z" fill="white"/>
<path d="M87.8521 54.3183H84.2605L86.2636 47.8741H84.1869L81.7344 55.789H87.3949L87.8521 54.3183Z" fill="white"/>
<path d="M108.906 45.5676L104.745 58.1656H5.68301L9.84417 45.5676H108.906ZM52.7769 72.3002L34.6174 61.8464H74.4622L52.7769 72.3002ZM59.5107 35.0828C59.7316 37.2657 60.398 39.1312 61.5022 40.6793C61.8083 41.1089 62.1531 41.5076 62.525 41.883H45.8494L52.9706 19.191H65.1635C64.7877 19.6439 64.4158 20.1044 64.0632 20.5844C62.4747 22.7518 61.262 25.163 60.429 27.822C59.5921 30.477 59.286 32.8999 59.5107 35.0828ZM30.5027 4.54168H112.331L100.615 41.883H92.2847L97.9142 23.9438H78.1546L75.7718 31.5336H86.8294L85.3029 36.3948H75.1364C73.9469 36.3948 72.9124 36.1858 72.0291 35.7678C71.1457 35.3498 70.456 34.7693 69.9562 34.0223C69.4564 33.2753 69.162 32.3735 69.0767 31.3169C68.9876 30.2603 69.1426 29.0992 69.5455 27.822C69.9446 26.5486 70.5219 25.3836 71.2735 24.327C72.0213 23.2704 72.8853 22.3609 73.8617 21.5984C74.8342 20.8359 75.8919 20.2438 77.0387 19.8219C78.1817 19.4039 79.3479 19.1949 80.5373 19.1949H99.4059L102.269 10.0763H84.0282C81.4091 10.0763 78.8636 10.5059 76.3917 11.3613C73.9198 12.2166 71.6455 13.4281 69.5649 14.9956C68.1546 16.056 66.8644 17.2675 65.6788 18.6066L68.3561 10.0802H34.1331L31.2699 19.1988H43.796L36.6747 41.8907H18.6314L30.5027 4.54168ZM117.538 0.860962H27.8332L14.7957 41.883H7.20954L0.615234 61.8464H27.1475L52.5367 76.4648L82.8543 61.8464H107.38L113.974 41.883H104.439L117.538 0.860962Z" fill="white"/>
</svg>
