<svg width="100" height="100" viewBox="0 0 100 100" fill="none" xmlns="http://www.w3.org/2000/svg">
<path d="M2.28516 49.9746C2.28516 23.6546 23.6453 2.31689 50.0064 2.31689C76.3541 2.31689 97.7142 23.6546 97.7142 49.9746C97.7142 76.2946 76.3541 97.6322 50.0064 97.6322C23.6453 97.6322 2.28516 76.3079 2.28516 49.9746Z" fill="#4BBE95"/>
<path d="M50.007 99.1601C22.8612 99.1601 0.769531 77.0917 0.769531 49.9745C0.769531 22.8574 22.8612 0.802246 50.007 0.802246C77.1527 0.802246 99.2444 22.8574 99.2444 49.9745C99.2311 77.0917 77.1527 99.1601 50.007 99.1601ZM50.007 3.84479C24.537 3.84479 3.81528 24.5447 3.81528 49.9878C3.81528 75.4309 24.537 96.1309 50.007 96.1309C75.4769 96.1309 96.1986 75.4309 96.1986 49.9878C96.1853 24.5447 75.4636 3.84479 50.007 3.84479Z" fill="white"/>
<path d="M49.4365 86.8305L48.5587 86.4452C34.6599 80.3734 25.004 68.5088 20.6415 52.1402C17.476 40.249 18.1411 30.2578 18.2342 29.155L18.3938 27.2285L20.3223 27.1621C38.1446 26.5376 47.6409 14.9919 47.7341 14.8723L49.4365 12.72L51.1389 14.8723C51.232 14.9786 60.7151 26.5244 78.5374 27.1621L80.4659 27.2285L80.6255 29.155C80.6654 29.5935 81.4634 39.9567 78.2049 52.1402C73.869 68.5221 64.213 80.3867 50.3143 86.4585L49.4365 86.8305ZM19.8036 28.7033L19.7504 29.2746C19.6706 30.3508 19.0189 40.1029 22.1178 51.7416C26.3739 67.6718 35.7239 79.1909 49.1838 85.0634L49.4498 85.183L49.7158 85.0634C63.1623 79.1909 72.5124 67.6718 76.7551 51.7549C79.9339 39.8239 79.1625 29.7263 79.1226 29.2879L79.0827 28.7033L78.4975 28.6767C59.9304 28.0257 50.0616 15.9485 49.9552 15.8157L49.4365 15.1646L48.9178 15.8157C48.8114 15.9352 38.9027 28.0257 20.3755 28.6767L19.8036 28.7033ZM49.4365 80.028L49.104 79.8552C43.2652 76.9456 38.3707 72.8268 34.5402 67.5921C31.0822 62.8622 28.4354 57.1889 26.6931 50.7451C24.8843 44.0356 24.4188 37.8044 24.339 33.7786L24.3257 33.101L25.004 33.0213C36.4023 31.5731 44.3159 26.4712 48.9311 22.4455L49.4365 22.007L49.9419 22.4455C54.5704 26.4712 62.4707 31.5731 73.869 33.0213L74.5473 33.101L74.534 33.7786C74.4675 37.8044 74.002 44.0223 72.1799 50.7451C70.4375 57.1889 67.8041 62.8622 64.346 67.5921C60.5156 72.8268 55.6211 76.9588 49.7823 79.8552L49.4365 80.028ZM25.8818 34.4164C25.9882 38.3624 26.4936 44.1419 28.1694 50.3465C29.8586 56.6176 32.4122 62.1181 35.7638 66.7019C39.3682 71.6444 43.9701 75.5505 49.4365 78.3406C54.9029 75.5505 59.4914 71.6444 63.1091 66.7019C66.4608 62.1181 69.0144 56.6176 70.7035 50.3465C72.3794 44.1419 72.8848 38.3624 72.9912 34.4164C61.9786 32.8619 54.1847 28.0124 49.4365 24C44.7016 28.0124 36.9077 32.8619 25.8818 34.4164Z" fill="white"/>
<path d="M48.6774 87.1627V78.7126L49.103 78.5C54.7157 75.7099 59.4239 71.7374 63.1081 66.6886C66.4598 62.1048 69.0134 56.6043 70.7025 50.3333C72.3784 44.1286 72.8838 38.3491 72.9902 34.4031C61.5786 32.7954 53.625 27.6404 48.9301 23.5615L48.6641 23.3357V13.7829L49.2759 12.5472L51.1246 14.8856C51.2177 14.9919 60.7008 26.5376 78.5231 27.1754L80.4516 27.2418L80.6112 29.1683C80.6511 29.6067 81.4491 39.97 78.1906 52.1535C73.868 68.5221 64.212 80.3867 50.3133 86.4585L48.6774 87.1627ZM50.2069 79.6559V84.8509C63.4007 78.9119 72.5779 67.4725 76.7674 51.7682C79.9462 39.8371 79.1748 29.7396 79.1349 29.3012L79.0817 28.7033L78.4965 28.6767C61.5387 28.0788 51.8295 17.9414 50.2069 16.1079V22.6448C54.862 26.6306 62.6825 31.5731 73.868 32.9947L74.5463 33.0745L74.533 33.752C74.4665 37.7778 74.001 43.9957 72.1789 50.7186C70.4365 57.1624 67.8031 62.8356 64.345 67.5655C60.6077 72.7072 55.8462 76.7595 50.2069 79.6559Z" fill="white"/>
<path d="M50.1016 74.0359C54.2645 71.764 58.9196 68.0438 61.726 64.2041C64.4924 60.4176 66.6071 55.8737 68.0037 50.7053C69.4933 45.1915 69.8391 40.0896 69.8923 37.0471C61.1806 35.9443 53.799 31.7193 50.1016 28.7698V74.0359Z" fill="white"/>
<path d="M48.1032 74.0359C43.9403 71.764 39.2852 68.0438 36.4788 64.2041C33.7124 60.4176 31.5977 55.8737 30.2011 50.7053C28.7115 45.1915 28.3657 40.0896 28.3125 37.0471C37.0241 35.9443 44.4058 31.7193 48.1032 28.7698V74.0359Z" fill="white"/>
<path d="M45.8055 41.5909V49.8018C45.8055 51.25 45.3267 52.3794 44.3558 53.2031C43.3982 54.0268 42.1347 54.4387 40.5919 54.4387C39.0357 54.4387 37.7722 54.0268 36.8013 53.2031C35.8304 52.3794 35.3516 51.25 35.3516 49.8018V41.5909H38.3042V49.8018C38.3042 50.5857 38.5037 51.1703 38.916 51.5689C39.315 51.9675 39.8869 52.1668 40.6052 52.1668C41.3234 52.1668 41.8687 51.9675 42.2677 51.5689C42.6667 51.1703 42.8662 50.5857 42.8662 49.7885V41.5909H45.8055Z" fill="#4BBE95"/>
<path d="M59.6375 50.8913C59.6375 50.4395 59.4912 50.0941 59.1986 49.8549C58.906 49.6158 58.3607 49.3634 57.5893 49.0843C56.0198 48.5795 54.8494 48.0347 54.0913 47.4501C53.3332 46.8788 52.9475 46.0418 52.9475 44.9656C52.9475 43.9027 53.3864 43.0524 54.2775 42.3881C55.1686 41.7371 56.2991 41.4049 57.6558 41.4049C59.1055 41.4049 60.2626 41.7371 61.1404 42.4147C62.0182 43.0923 62.4438 44.0356 62.4172 45.2712L62.4039 45.3243H59.5444C59.5444 44.7265 59.3848 44.288 59.0523 44.0223C58.7331 43.7566 58.241 43.6237 57.576 43.6237C57.044 43.6237 56.6183 43.7566 56.3124 44.009C56.0065 44.2747 55.8469 44.5936 55.8469 44.9789C55.8469 45.3509 56.0065 45.6432 56.3257 45.8691C56.6449 46.0949 57.2302 46.374 58.0947 46.7061C59.5577 47.1446 60.6749 47.676 61.433 48.3005C62.1911 48.9249 62.5635 49.7885 62.5635 50.878C62.5635 51.994 62.1246 52.8576 61.2601 53.4954C60.3956 54.1198 59.2385 54.4387 57.8021 54.4387C56.3656 54.4387 55.1553 54.1065 54.1578 53.4289C53.1603 52.7513 52.6815 51.6884 52.7081 50.2402L52.7214 50.1871H55.5809C55.5809 50.9178 55.7671 51.4493 56.1262 51.7549C56.4853 52.0605 57.044 52.2199 57.7888 52.2199C58.4006 52.2199 58.8661 52.1003 59.1587 51.8612C59.4779 51.6087 59.6375 51.2899 59.6375 50.8913Z" fill="#4BBE95"/>
</svg>
