<svg width="160" height="146" viewBox="0 0 160 146" fill="none" xmlns="http://www.w3.org/2000/svg">
<path d="M0 0H87C127.317 0 160 32.6832 160 73C160 113.317 127.317 146 87 146H80C35.8172 146 0 110.183 0 66V0Z" fill="#4BBE95"/>
<path d="M65.3212 82.6472V82.7385L65.648 83.5209L66.3018 85.0726C66.7594 86.1028 67.1909 87.1459 67.6093 88.163C68.5246 90.2233 69.4529 92.2706 70.3682 94.3309V94.4613H70.4989L73.1139 94.383L75.7289 94.3178H78.344H81.1813H81.2597H81.3512H81.4428C81.4428 94.3178 81.4428 94.3178 81.5474 94.2396V94.1744C81.6253 94.074 81.6788 93.9571 81.7037 93.8326C81.7287 93.7082 81.7244 93.5797 81.6912 93.4572C81.659 93.3327 81.5969 93.2178 81.5104 93.1224C81.4238 93.027 81.3154 92.9539 81.1943 92.9095C81.0782 92.8627 80.9535 92.8405 80.8282 92.8443H80.449H77.4026L74.3822 92.7661L71.5188 92.6748C70.7604 90.6145 69.989 88.5586 69.2045 86.507C68.7991 85.4508 68.3938 84.3945 67.9754 83.3644L67.6616 82.582L67.5047 82.1908L67.4263 81.9952V81.917C67.4036 81.8646 67.3727 81.8162 67.3347 81.7735C67.2124 81.5779 67.0403 81.4181 66.8358 81.3105C66.6314 81.2028 66.402 81.1511 66.171 81.1607C65.9403 81.1647 65.7147 81.2295 65.5172 81.3486C65.3197 81.4677 65.1573 81.6368 65.0466 81.8387C64.9384 82.0393 64.8801 82.2629 64.8766 82.4907C64.8693 82.6036 64.8693 82.7169 64.8766 82.8298C64.8766 82.895 64.8766 82.9471 64.8766 82.9993" fill="white"/>
<path d="M116.979 101.19C116.27 100.445 115.416 99.8551 114.468 99.4556C113.517 99.0514 112.495 98.8387 111.461 98.8297C110.431 98.8404 109.414 99.0531 108.467 99.4556C107.522 99.8599 106.668 100.45 105.956 101.19C105.247 101.942 104.695 102.829 104.335 103.798C103.985 104.74 103.821 105.741 103.851 106.745C103.931 108.724 104.78 110.595 106.218 111.961C107.626 113.305 109.499 114.057 111.448 114.06C113.397 114.057 115.27 113.305 116.678 111.961C118.116 110.595 118.964 108.724 119.044 106.745C119.074 105.741 118.91 104.74 118.561 103.798C118.2 102.829 117.649 101.942 116.939 101.19H116.979ZM106.074 106.693C106.034 105.97 106.141 105.247 106.388 104.567C106.64 103.878 107.032 103.248 107.538 102.716C108.043 102.161 108.657 101.717 109.343 101.412C110.027 101.111 110.766 100.956 111.513 100.955C112.265 100.954 113.009 101.11 113.697 101.412C114.382 101.717 114.996 102.161 115.501 102.716C116.003 103.251 116.394 103.881 116.652 104.567C116.899 105.247 117.005 105.97 116.965 106.693C116.892 108.103 116.273 109.43 115.24 110.396C114.23 111.341 112.898 111.868 111.513 111.87C110.133 111.865 108.806 111.338 107.8 110.396C106.766 109.43 106.148 108.103 106.074 106.693ZM110.075 101.177H110.179H110.075ZM110.519 101.086L110.938 101.02L110.519 101.086ZM111.003 101.02H111.513H111.003ZM111.513 101.02H112.036H111.513ZM112.102 101.02L112.52 101.086L112.102 101.02ZM112.873 101.151H112.964H112.873Z" fill="white"/>
<path d="M61.1375 100.968C60.4216 100.229 59.5691 99.6361 58.6271 99.2208C57.6724 98.8292 56.652 98.6212 55.6198 98.6079C54.586 98.6192 53.5645 98.8318 52.6125 99.2338C51.6683 99.6396 50.8149 100.229 50.1021 100.968C49.4025 101.701 48.8558 102.565 48.4939 103.511C48.1336 104.45 47.969 105.453 48.0101 106.458C48.0866 108.435 48.9304 110.305 50.3636 111.674C51.7731 113.016 53.6451 113.767 55.5936 113.773C57.5432 113.772 59.4171 113.02 60.8237 111.674C62.2662 110.311 63.1158 108.438 63.1903 106.458C63.2313 105.453 63.0667 104.45 62.7065 103.511C62.3493 102.563 61.8021 101.698 61.0982 100.968H61.1375ZM50.4551 104.345C50.7033 103.657 51.0904 103.027 51.5926 102.494C52.1042 101.941 52.7224 101.498 53.4101 101.19C54.0948 100.893 54.834 100.742 55.5806 100.746C56.3271 100.742 57.0662 100.893 57.751 101.19C58.4387 101.498 59.0569 101.941 59.5684 102.494C60.0663 103.03 60.453 103.659 60.706 104.345C60.9501 105.022 61.0611 105.739 61.0329 106.458C60.9564 107.874 60.3332 109.206 59.2939 110.174C58.285 111.111 56.9587 111.632 55.5806 111.635C54.1986 111.632 52.8684 111.11 51.8541 110.174C50.8186 109.205 50.2 107.873 50.1282 106.458C50.1 105.739 50.211 105.022 50.4551 104.345ZM55.5806 100.772C55.7503 100.76 55.9208 100.76 56.0905 100.772C55.9208 100.76 55.7503 100.76 55.5806 100.772ZM56.1559 100.772L56.5873 100.838L56.1559 100.772ZM56.9273 100.903H57.0188H56.9273ZM54.1423 100.903H54.2338H54.1423ZM54.5738 100.812L55.0052 100.746L54.5738 100.812ZM55.0706 100.746C55.2404 100.733 55.4108 100.733 55.5806 100.746C55.4108 100.733 55.2404 100.733 55.0706 100.746Z" fill="white"/>
<path d="M59.7641 119.785L83.7046 119.263L102.31 119.785C103.119 118.871 103.582 117.704 103.618 116.486C103.623 115.209 103.157 113.975 102.31 113.017H101.225L83.7308 113.278L54.168 115.103L83.8484 114.647L101.291 115.156L83.77 115.534L55.8024 117.464L83.77 116.942L101.291 117.464L83.8354 117.946L59.7641 119.785Z" fill="white"/>
<path d="M84.3949 37.2034C84.424 37.2036 84.4521 37.1931 84.4738 37.1738C84.4955 37.1546 84.5093 37.128 84.5126 37.0991L84.8656 35.0389C84.8736 35.025 84.8779 35.0092 84.8779 34.9932C84.8779 34.9772 84.8736 34.9615 84.8656 34.9476C84.8361 34.9366 84.8036 34.9366 84.7741 34.9476H58.4539C58.4262 34.9517 58.4004 34.9637 58.3795 34.9822C58.3586 35.0008 58.3435 35.025 58.3362 35.0519L57.9832 37.1122C57.9763 37.1264 57.9727 37.142 57.9727 37.1578C57.9727 37.1737 57.9763 37.1892 57.9832 37.2034C57.9977 37.2095 58.0132 37.2127 58.029 37.2127C58.0447 37.2127 58.0602 37.2095 58.0747 37.2034H72.0781L69.6854 47.7657C69.6773 47.7819 69.6732 47.7998 69.6732 47.8179C69.6732 47.836 69.6773 47.8538 69.6854 47.8701C69.6997 47.877 69.7153 47.8806 69.7312 47.8806C69.747 47.8806 69.7627 47.877 69.7769 47.8701H72.0781C72.1047 47.8686 72.1303 47.8591 72.1513 47.8428C72.1723 47.8264 72.1879 47.8041 72.1958 47.7788L74.497 37.1643L84.3949 37.2034Z" fill="white"/>
<path d="M70.2478 38.1032C70.2534 38.073 70.2534 38.0421 70.2478 38.0119C70.2181 38.002 70.1859 38.002 70.1562 38.0119H57.8656C57.835 38.0113 57.8052 38.0214 57.7813 38.0405C57.7574 38.0595 57.741 38.0863 57.7349 38.1162L57.055 41.9239C57.0458 41.9397 57.041 41.9577 57.041 41.976C57.041 41.9943 57.0458 42.0123 57.055 42.0282C57.0692 42.0351 57.0849 42.0387 57.1007 42.0387C57.1166 42.0387 57.1322 42.0351 57.1465 42.0282H58.8593C58.8865 42.0289 58.9131 42.0201 58.9345 42.0035C58.956 41.9869 58.971 41.9633 58.977 41.9369L59.2777 40.2678H67.4104L67.3189 40.8024C66.5998 44.923 65.1877 45.6141 61.3436 45.6141H52.3218C48.9484 45.6141 47.7586 44.8187 47.7586 42.5628C47.7714 41.977 47.8282 41.3929 47.9285 40.8155L49.0269 34.6476C49.7591 30.527 51.1581 29.3404 55.2637 29.3404H64.2855C68.3257 29.3404 68.7964 30.8922 68.7964 32.0658C68.7642 32.644 68.6677 33.2169 68.5088 33.774C68.4977 33.8034 68.4977 33.8358 68.5088 33.8652C68.5232 33.8713 68.5388 33.8745 68.5545 33.8745C68.5702 33.8745 68.5858 33.8713 68.6003 33.8652H70.81C70.8237 33.8671 70.8377 33.8661 70.8511 33.8625C70.8645 33.8589 70.877 33.8527 70.888 33.8442C70.8989 33.8357 70.9081 33.8251 70.9149 33.8131C70.9217 33.801 70.926 33.7877 70.9276 33.774C71.1221 33.0768 71.2318 32.3588 71.2545 31.6354C71.2545 28.5972 68.9664 26.9802 64.717 26.9802H55.6952C50.1252 26.9802 47.6932 29.0405 46.6995 34.5563L45.6142 40.7242C45.4649 41.4979 45.3861 42.2835 45.3789 43.0713C45.3789 46.4747 47.3009 47.857 52.0341 47.857H61.056C66.9528 47.857 68.901 46.0966 70.0124 39.6419L70.2478 38.1032Z" fill="white"/>
<path d="M83.1027 38.051H81.4683C81.4465 38.0512 81.4252 38.0573 81.4067 38.0688C81.3883 38.0803 81.3734 38.0967 81.3637 38.1162L78.7487 43.6451V43.5799C78.7777 43.2988 78.8258 43.0199 78.8925 42.7453C78.9625 42.4537 79.0105 42.1573 79.0363 41.8586C79.0429 41.7297 79.0231 41.6008 78.9781 41.4797C78.9332 41.3587 78.864 41.248 78.7748 41.1545C78.9449 41.0354 79.095 40.8902 79.2194 40.7242C79.4975 40.3465 79.6444 39.8887 79.6378 39.4202C79.6458 39.243 79.6174 39.066 79.5545 38.9001C79.4915 38.7341 79.3953 38.5828 79.2717 38.4552C79.1361 38.3269 78.9758 38.2271 78.8005 38.1622C78.6252 38.0972 78.4386 38.0682 78.2518 38.0771H75.8983C75.8711 38.0764 75.8446 38.0851 75.8231 38.1017C75.8017 38.1184 75.7867 38.1419 75.7806 38.1684L74.4731 44.1276C74.4621 44.157 74.4621 44.1894 74.4731 44.2188C74.503 44.2272 74.5347 44.2272 74.5646 44.2188H75.8721C75.9027 44.2194 75.9326 44.2093 75.9565 44.1903C75.9804 44.1712 75.9968 44.1444 76.0029 44.1145L76.4998 41.7804H77.1143C77.3496 41.7804 77.415 41.8586 77.415 42.0933C77.3966 42.3096 77.3572 42.5236 77.2973 42.7323C77.2322 43.0111 77.1885 43.2944 77.1666 43.5799C77.1594 43.6837 77.173 43.7879 77.2067 43.8865C77.2403 43.985 77.2934 44.0758 77.3627 44.1536C77.3772 44.1597 77.3927 44.1629 77.4085 44.1629C77.4242 44.1629 77.4398 44.1597 77.4542 44.1536H80.0693C80.093 44.1544 80.1163 44.147 80.1353 44.1328C80.1543 44.1186 80.1679 44.0984 80.1739 44.0754L80.8145 42.6541H81.6775V44.0232C81.6714 44.0377 81.6682 44.0532 81.6682 44.0689C81.6682 44.0846 81.6714 44.1001 81.6775 44.1145C81.6898 44.1203 81.7031 44.1233 81.7167 44.1233C81.7303 44.1233 81.7437 44.1203 81.7559 44.1145H83.1419C83.1542 44.1203 83.1676 44.1233 83.1811 44.1233C83.1947 44.1233 83.2081 44.1203 83.2204 44.1145C83.2265 44.1001 83.2296 44.0846 83.2296 44.0689C83.2296 44.0532 83.2265 44.0377 83.2204 44.0232V38.0771C83.2204 38.0459 83.208 38.0161 83.1859 37.9941C83.1638 37.9721 83.1339 37.9597 83.1027 37.9597V38.051ZM77.0358 39.2637H77.5719C77.7017 39.2553 77.8316 39.2776 77.9511 39.3289C77.9511 39.3289 77.9511 39.3289 77.9511 39.5506C77.9625 39.6758 77.9474 39.8019 77.9068 39.921C77.8663 40.04 77.8012 40.1493 77.7157 40.2417C77.6462 40.3131 77.5628 40.3696 77.4707 40.4077C77.3785 40.4459 77.2794 40.4648 77.1797 40.4633H76.7089L77.0358 39.2637ZM81.3245 41.3761L81.8213 40.0722V41.3761H81.3245Z" fill="white"/>
<path d="M86.5266 37.9467C85.9208 37.9212 85.3286 38.1313 84.875 38.5326C84.4213 38.934 84.1416 39.4952 84.0947 40.0982C83.8463 41.2457 83.6893 41.989 83.637 42.2628C83.5933 42.4733 83.5671 42.687 83.5586 42.9018C83.5586 43.5799 83.8593 44.3753 85.2322 44.3753C85.5409 44.3955 85.8503 44.3488 86.1392 44.2385C86.428 44.1283 86.6896 43.9569 86.9058 43.7363C87.3187 43.2469 87.582 42.6494 87.6642 42.0151V41.8977C87.6737 41.8844 87.6789 41.8684 87.6789 41.8521C87.6789 41.8357 87.6737 41.8198 87.6642 41.8065C87.6499 41.7996 87.6343 41.7959 87.6184 41.7959C87.6025 41.7959 87.5869 41.7996 87.5727 41.8065H86.2651C86.2368 41.8087 86.21 41.8202 86.1888 41.839C86.1676 41.8578 86.153 41.883 86.1475 41.9108V41.989C86.1204 42.3167 86.0174 42.6336 85.8467 42.9148C85.7981 42.9788 85.7346 43.03 85.6617 43.0641C85.5888 43.0982 85.5088 43.1141 85.4283 43.1105C85.2714 43.1105 85.2061 43.1105 85.193 43.1105C85.1799 43.1105 85.193 43.0452 85.193 42.8888C85.193 42.7323 85.2584 42.3411 85.7421 40.1634C85.7679 39.9263 85.8583 39.7008 86.0036 39.5114C86.0541 39.4598 86.1155 39.4201 86.1834 39.3953C86.2513 39.3705 86.3239 39.3611 86.3959 39.368C86.5528 39.368 86.6051 39.368 86.6312 39.368C86.6574 39.368 86.6312 39.368 86.6312 39.5897C86.6199 39.7792 86.5893 39.9671 86.5397 40.1504V40.2677C86.5316 40.284 86.5275 40.3018 86.5275 40.3199C86.5275 40.338 86.5316 40.3559 86.5397 40.3721C86.5542 40.3782 86.5698 40.3813 86.5855 40.3813C86.6012 40.3813 86.6168 40.3782 86.6312 40.3721H87.9388C87.9654 40.3706 87.9909 40.3611 88.0119 40.3448C88.0329 40.3285 88.0485 40.3062 88.0564 40.2808V40.2026C88.1292 39.9386 88.1731 39.6675 88.1872 39.3941C88.2006 39.1938 88.1675 38.993 88.0904 38.8076C88.0133 38.6221 87.8943 38.4569 87.7426 38.3248C87.4013 38.0577 86.9723 37.9275 86.5397 37.9597" fill="white"/>
<path d="M92.5573 39.2637L92.7927 38.1944C92.8001 38.1601 92.8001 38.1245 92.7927 38.0901C92.759 38.077 92.7217 38.077 92.6881 38.0901H88.6871C88.6583 38.0888 88.6298 38.0971 88.6061 38.1136C88.5825 38.1301 88.565 38.1539 88.5564 38.1814L88.3341 39.2507C88.3209 39.2842 88.3209 39.3215 88.3341 39.355C88.3677 39.3681 88.405 39.3681 88.4387 39.355H89.6416L88.6348 44.1015C88.6238 44.1309 88.6238 44.1633 88.6348 44.1928C88.6643 44.2038 88.6968 44.2038 88.7263 44.1928H90.0338C90.0629 44.1929 90.091 44.1824 90.1127 44.1631C90.1345 44.1439 90.1483 44.1173 90.1515 44.0885L91.1714 39.3028H92.4789C92.5055 39.3014 92.531 39.2919 92.5521 39.2756C92.5731 39.2593 92.5886 39.2369 92.5966 39.2115" fill="white"/>
<path d="M94.3989 38.0902C94.3844 38.0841 94.3689 38.081 94.3531 38.081C94.3374 38.081 94.3219 38.0841 94.3074 38.0902H92.9999C92.9727 38.0895 92.9461 38.0982 92.9247 38.1149C92.9032 38.1315 92.8882 38.155 92.8822 38.1814L91.5747 44.1407C91.5636 44.1701 91.5636 44.2025 91.5747 44.2319C91.6046 44.2403 91.6363 44.2403 91.6662 44.2319H92.9737C92.9885 44.2338 93.0035 44.2325 93.0178 44.2281C93.032 44.2237 93.0451 44.2163 93.0563 44.2064C93.0674 44.1965 93.0763 44.1844 93.0824 44.1708C93.0884 44.1572 93.0915 44.1425 93.0914 44.1276L94.3989 38.1814C94.412 38.1479 94.412 38.1107 94.3989 38.0771" fill="white"/>
<path d="M98.4909 40.1114C98.5422 39.8933 98.5685 39.6702 98.5694 39.4463C98.5694 38.7552 98.2817 37.9467 96.8435 37.9467C96.2289 37.9101 95.624 38.1124 95.1559 38.5112C94.6878 38.91 94.3928 39.4742 94.3331 40.0853C94.0716 41.3893 93.9146 42.0804 93.8754 42.302C93.854 42.4883 93.854 42.6765 93.8754 42.8628C93.8754 43.5539 94.1761 44.3754 95.6275 44.3754C96.2045 44.3976 96.7718 44.2228 97.2357 43.8799C97.7148 43.4648 98.0262 42.8901 98.1118 42.2629C98.3471 41.1806 98.504 40.4113 98.5563 40.1114H98.4909ZM96.7258 39.2507C96.935 39.2507 97.0657 39.329 97.0657 39.655C97.0657 39.655 97.0658 40.0722 96.5427 42.2629C96.5001 42.4738 96.4058 42.6709 96.2682 42.8367C96.2071 42.894 96.1352 42.9385 96.0566 42.9676C95.978 42.9967 95.8943 43.0099 95.8105 43.0062C95.5359 43.0062 95.4314 42.9149 95.4314 42.6541C95.4314 42.6541 95.4967 42.2369 95.9805 40.0462C96.1243 39.342 96.4774 39.2507 96.7258 39.2507Z" fill="white"/>
<path d="M103.328 38.0902C103.313 38.0841 103.298 38.081 103.282 38.081C103.266 38.081 103.251 38.0841 103.236 38.0902H102.007C101.981 38.0916 101.955 38.1011 101.934 38.1175C101.913 38.1338 101.898 38.1561 101.89 38.1814L101.432 40.3069C101.432 40.5547 101.341 40.7894 101.288 41.0111L100.818 38.1945C100.814 38.1657 100.8 38.1391 100.779 38.1198C100.757 38.1006 100.729 38.09 100.7 38.0902H99.3923C99.3657 38.0916 99.3402 38.1011 99.3192 38.1175C99.2981 38.1338 99.2826 38.1561 99.2747 38.1814L97.9672 44.1276C97.958 44.1435 97.9531 44.1615 97.9531 44.1798C97.9531 44.1981 97.958 44.2161 97.9672 44.2319C97.9814 44.2389 97.9971 44.2425 98.0129 44.2425C98.0288 44.2425 98.0444 44.2389 98.0587 44.2319H99.2747C99.3052 44.2326 99.3351 44.2225 99.359 44.2034C99.3829 44.1844 99.3993 44.1575 99.4054 44.1276L99.85 42.0152C99.85 41.7544 99.9546 41.5197 99.9938 41.298L100.464 44.1276C100.473 44.1565 100.49 44.182 100.513 44.2007C100.537 44.2194 100.565 44.2303 100.595 44.2319H101.903C101.918 44.2338 101.933 44.2325 101.947 44.2281C101.961 44.2237 101.974 44.2163 101.985 44.2064C101.996 44.1965 102.005 44.1844 102.011 44.1708C102.017 44.1572 102.021 44.1425 102.02 44.1276L103.328 38.1814C103.341 38.1479 103.341 38.1107 103.328 38.0771" fill="white"/>
<path d="M72.1993 33.9173H75.4942C75.5208 33.9159 75.5463 33.9064 75.5674 33.8901C75.5884 33.8737 75.6039 33.8514 75.6119 33.826L75.8473 32.7568C75.8547 32.7224 75.8547 32.6868 75.8473 32.6525C75.8136 32.6394 75.7763 32.6394 75.7426 32.6525H73.8991L74.1867 31.3485H75.8995C75.9284 31.3498 75.9569 31.3415 75.9805 31.325C76.0042 31.3085 76.0217 31.2847 76.0303 31.2572L76.2526 30.188C76.2657 30.1544 76.2657 30.1172 76.2526 30.0836C76.2187 30.0717 76.1818 30.0717 76.148 30.0836H74.4874L74.6705 29.1839H76.5664C76.593 29.1824 76.6185 29.1729 76.6395 29.1566C76.6606 29.1403 76.6761 29.118 76.6841 29.0926L76.9194 28.0233C76.9286 28.0075 76.9334 27.9895 76.9334 27.9712C76.9334 27.9529 76.9286 27.9349 76.9194 27.919C76.8899 27.908 76.8574 27.908 76.8279 27.919H73.546C73.5154 27.9184 73.4856 27.9285 73.4617 27.9475C73.4378 27.9666 73.4214 27.9934 73.4153 28.0233L72.1078 33.9695C72.0986 33.9854 72.0938 34.0034 72.0938 34.0217C72.0938 34.04 72.0986 34.0579 72.1078 34.0738C72.1223 34.0799 72.1378 34.083 72.1535 34.083C72.1692 34.083 72.1848 34.0799 72.1993 34.0738" fill="white"/>
<path d="M75.8865 33.8783C75.901 33.8844 75.9165 33.8875 75.9322 33.8875C75.948 33.8875 75.9635 33.8844 75.978 33.8783H77.207C77.2298 33.8755 77.2515 33.8668 77.2699 33.8531C77.2882 33.8394 77.3026 33.8211 77.3117 33.8L77.7693 31.6876C77.7693 31.4398 77.8608 31.192 77.9 30.9834L78.3838 33.8131C78.3854 33.8268 78.3898 33.8401 78.3966 33.8521C78.4034 33.8642 78.4125 33.8748 78.4235 33.8833C78.4344 33.8918 78.447 33.898 78.4604 33.9016C78.4738 33.9052 78.4877 33.9061 78.5015 33.9043H79.809C79.8373 33.902 79.8641 33.8906 79.8853 33.8718C79.9066 33.853 79.9211 33.8278 79.9267 33.8L81.2342 27.8539C81.2434 27.838 81.2482 27.82 81.2482 27.8017C81.2482 27.7834 81.2434 27.7654 81.2342 27.7495C81.2203 27.7415 81.2045 27.7373 81.1884 27.7373C81.1724 27.7373 81.1566 27.7415 81.1427 27.7495H79.9267C79.8976 27.7494 79.8695 27.7599 79.8478 27.7792C79.826 27.7985 79.8122 27.825 79.809 27.8539L79.3514 29.9663C79.3514 30.2271 79.2468 30.4618 79.2075 30.6835L78.7238 27.8539C78.7205 27.825 78.7067 27.7985 78.685 27.7792C78.6633 27.7599 78.6352 27.7494 78.6061 27.7495H77.2986C77.2695 27.7494 77.2414 27.7599 77.2197 27.7792C77.1979 27.7985 77.1841 27.825 77.1809 27.8539L75.8734 33.8C75.8642 33.8159 75.8594 33.8339 75.8594 33.8522C75.8594 33.8705 75.8642 33.8885 75.8734 33.9043" fill="white"/>
<path d="M80.3555 33.8783C80.3891 33.8913 80.4264 33.8913 80.4601 33.8783H83.7419C83.7647 33.8755 83.7864 33.8668 83.8047 33.8531C83.8231 33.8394 83.8375 33.8211 83.8465 33.8L84.0819 32.7307C84.091 32.7149 84.0959 32.6969 84.0959 32.6786C84.0959 32.6603 84.091 32.6423 84.0819 32.6264C84.0674 32.6203 84.0518 32.6172 84.0361 32.6172C84.0204 32.6172 84.0048 32.6203 83.9903 32.6264H82.1467L82.4344 31.3225H84.1472C84.1738 31.321 84.1994 31.3115 84.2204 31.2952C84.2414 31.2788 84.257 31.2565 84.2649 31.2312L84.5003 30.1619C84.5094 30.146 84.5143 30.1281 84.5143 30.1098C84.5143 30.0915 84.5094 30.0735 84.5003 30.0576C84.4708 30.0466 84.4382 30.0466 84.4087 30.0576H82.7351L82.9313 29.1578H84.8271C84.8537 29.1564 84.8793 29.1469 84.9003 29.1306C84.9213 29.1143 84.9369 29.0919 84.9448 29.0666L85.1802 27.9973C85.1933 27.9638 85.1933 27.9265 85.1802 27.893C85.1502 27.8846 85.1186 27.8846 85.0886 27.893H81.7937C81.7646 27.8928 81.7365 27.9034 81.7148 27.9226C81.6931 27.9419 81.6793 27.9685 81.676 27.9973L80.3685 33.9434C80.3554 33.977 80.3554 34.0142 80.3685 34.0478" fill="white"/>
<path d="M84.136 33.8784C84.1698 33.8903 84.2068 33.8903 84.2406 33.8784H85.5481C85.5758 33.8743 85.6016 33.8622 85.6225 33.8437C85.6434 33.8252 85.6585 33.801 85.6658 33.7741L86.1626 31.4269H86.7902C87.0125 31.4269 87.091 31.5051 87.091 31.7529C87.091 31.7529 87.091 31.8702 86.9602 32.3918C86.8969 32.6661 86.8575 32.9453 86.8425 33.2264C86.8278 33.4379 86.8931 33.6473 87.0256 33.8132C87.0553 33.8231 87.0874 33.8231 87.1171 33.8132H89.7321C89.7569 33.8113 89.7807 33.8032 89.8013 33.7895C89.8219 33.7757 89.8386 33.757 89.8498 33.7349L90.4774 32.3005H91.3535V33.6828C91.3435 33.7124 91.3435 33.7444 91.3535 33.7741C91.3679 33.7801 91.3835 33.7833 91.3992 33.7833C91.4149 33.7833 91.4305 33.7801 91.445 33.7741H92.8179C92.8323 33.7801 92.8479 33.7833 92.8636 33.7833C92.8793 33.7833 92.8949 33.7801 92.9094 33.7741C92.9155 33.7596 92.9187 33.7441 92.9187 33.7284C92.9187 33.7127 92.9155 33.6972 92.9094 33.6828V27.7236C92.9094 27.6924 92.897 27.6626 92.8749 27.6406C92.8529 27.6186 92.8229 27.6062 92.7917 27.6062H91.1573C91.1322 27.6066 91.1078 27.6142 91.087 27.6281C91.0661 27.642 91.0497 27.6615 91.0396 27.6844L88.4246 33.2003H88.3593C88.3871 32.919 88.4351 32.6401 88.5031 32.3657C88.5736 32.0693 88.626 31.7688 88.66 31.466C88.6641 31.3362 88.6419 31.207 88.5947 31.086C88.5475 30.965 88.4763 30.8548 88.3854 30.7619C88.5584 30.6516 88.7091 30.5101 88.83 30.3446C89.1116 29.9688 89.2589 29.5097 89.2484 29.0406C89.2582 28.8612 89.2307 28.6817 89.1677 28.5135C89.1047 28.3452 89.0075 28.1917 88.8823 28.0626C88.7466 27.9342 88.5864 27.8345 88.4111 27.7695C88.2358 27.7045 88.0492 27.6756 87.8624 27.6844H85.5089C85.4798 27.6843 85.4517 27.6948 85.43 27.7141C85.4083 27.7333 85.3944 27.7599 85.3912 27.7888L84.0837 33.7349C84.0763 33.7693 84.0763 33.8049 84.0837 33.8392L84.136 33.8784ZM90.9089 31.1009L91.4058 29.7969V31.1009H90.9089ZM86.3588 30.1881L86.6203 28.9754H87.1563C87.2878 28.9618 87.4203 28.9891 87.5355 29.0536C87.5355 29.0536 87.5355 29.1579 87.5355 29.2753C87.5469 29.4005 87.5318 29.5267 87.4913 29.6457C87.4507 29.7648 87.3856 29.874 87.3002 29.9664C87.158 30.1083 86.9652 30.188 86.7641 30.1881H86.3588Z" fill="white"/>
<path d="M93.3022 33.9174H97.2247C97.2519 33.918 97.2785 33.9093 97.2999 33.8927C97.3214 33.8761 97.3364 33.8525 97.3424 33.8261L97.6039 32.5221C97.6149 32.4927 97.6149 32.4603 97.6039 32.4309C97.5744 32.4199 97.5419 32.4199 97.5124 32.4309H95.0412L96.0349 27.7887C96.0441 27.7728 96.0489 27.7548 96.0489 27.7365C96.0489 27.7182 96.0441 27.7002 96.0349 27.6843C96.0207 27.6774 96.005 27.6738 95.9891 27.6738C95.9733 27.6738 95.9576 27.6774 95.9434 27.6843H94.6359C94.6059 27.6859 94.5772 27.6969 94.5537 27.7156C94.5303 27.7343 94.5133 27.7598 94.5051 27.7887L93.1976 33.8261C93.1884 33.8419 93.1836 33.8599 93.1836 33.8783C93.1836 33.8966 93.1884 33.9146 93.1976 33.9304C93.2119 33.9373 93.2275 33.9409 93.2434 33.9409C93.2592 33.9409 93.2749 33.9373 93.2891 33.9304" fill="white"/>
<path d="M107.751 114.647C107.396 114.429 107.07 114.166 106.783 113.865V116.655C106.798 117.753 106.581 118.842 106.146 119.85C105.711 120.859 105.069 121.765 104.26 122.51C103.442 123.252 102.477 123.813 101.427 124.157C100.377 124.501 99.2658 124.619 98.1666 124.505L50.7955 120.254C46.873 119.902 43.735 116.133 43.735 111.856V111.413C43.3636 111.591 42.9572 111.685 42.5451 111.687C42.1467 111.689 41.7531 111.599 41.3945 111.426V111.856C41.3945 117.294 45.5132 122.093 50.5471 122.549L97.9182 126.8H98.9119C101.446 126.816 103.895 125.886 105.776 124.192C106.825 123.235 107.659 122.067 108.225 120.766C108.79 119.465 109.074 118.06 109.058 116.642V115.09C108.588 115.066 108.134 114.907 107.751 114.634" fill="white"/>
<path d="M108.284 28.206C108.3 26.8475 108.028 25.5011 107.488 24.2542C106.947 23.0072 106.149 21.8879 105.146 20.9689C104.135 20.0522 102.942 19.3579 101.644 18.9311C100.347 18.5043 98.9739 18.3544 97.6146 18.4913L50.2435 22.7423C45.4057 23.1726 41.457 27.7757 41.457 33.0046V100.134C41.746 99.2219 42.2531 98.394 42.9345 97.7213V33.0046C42.9345 28.5059 46.2817 24.5548 50.3873 24.1897L97.7584 19.9387C98.033 19.9387 98.2945 19.9387 98.569 19.9387C100.642 19.9222 102.645 20.6859 104.178 22.0772C105.025 22.864 105.695 23.82 106.146 24.8829C106.596 25.9457 106.817 27.0914 106.793 28.2451V44.4536C106.803 44.6369 106.884 44.8094 107.017 44.9356C107.151 45.0617 107.328 45.1319 107.512 45.1316C107.695 45.1318 107.871 45.0612 108.003 44.9347C108.134 44.8082 108.212 44.6358 108.218 44.4536L108.284 28.206Z" fill="white"/>
<path d="M118.876 95.7914L118.693 95.5958L118.536 95.3481C118.366 94.996 118.183 94.5787 117.973 94.2136C117.764 93.8485 117.568 93.4573 117.346 93.0922C116.495 91.5991 115.506 90.189 114.391 88.8803C113.268 87.5693 111.98 86.4079 110.56 85.4247C110.22 85.19 109.867 84.9683 109.501 84.7597C109.542 84.575 109.542 84.3837 109.501 84.199L109.383 83.6383L108.939 81.4215L108.076 76.9619L106.428 68.0427L103.212 53.0338H100.793L104.245 68.147L106.258 76.988L107.226 81.4346L107.696 83.6513V83.8991C107.099 83.6403 106.488 83.414 105.866 83.221C104.205 82.7229 102.487 82.4424 100.754 82.3865C99.8906 82.3865 99.0276 82.3865 98.1385 82.3865H97.4979H96.831C96.3906 82.4238 95.9536 82.4935 95.5235 82.5951C94.9586 82.725 94.4037 82.895 93.863 83.1037C93.1962 82.6081 92.5555 82.0996 91.9017 81.578L89.7574 79.9089L88.6591 79.1004L88.2145 78.7875L90.0581 76.7793L90.6334 76.1143L90.9211 75.7883L91.0649 75.6188L91.1434 75.5406L91.2349 75.3971C91.3496 75.1989 91.4101 74.974 91.4101 74.7451C91.4101 74.5162 91.3496 74.2914 91.2349 74.0931C91.1227 73.8829 90.9549 73.7074 90.7498 73.5856C90.5446 73.4638 90.31 73.4003 90.0712 73.402C89.8321 73.3997 89.5969 73.4629 89.3913 73.5846C89.29 73.6511 89.1938 73.7252 89.1037 73.8062L88.9337 74.0018L88.3976 74.6929L87.3254 76.0752C86.6194 77.0141 85.9264 77.9529 85.2465 78.9048C84.5666 79.8567 83.939 80.7956 83.1676 81.7345L82.0954 83.1167C82.0221 83.246 81.9835 83.3919 81.9835 83.5405C81.9835 83.689 82.0221 83.835 82.0954 83.9643C82.1954 84.1427 82.3586 84.2776 82.553 84.3425H82.6838H82.8276H83.0237H83.1022H83.2068C83.3326 84.2671 83.4398 84.1646 83.5206 84.0425L84.0828 83.3775L85.2465 82.0735L86.3317 80.8608L86.4886 80.9651L86.6325 81.0564L86.9201 81.2259C87.7046 81.6953 88.4891 82.1387 89.2867 82.5299L91.6402 83.8991L91.9017 84.0556C91.4778 84.2961 91.0714 84.5663 90.6857 84.864C90.3255 85.1408 90.0005 85.4605 89.7182 85.816C89.3944 86.1968 89.1539 86.641 89.0121 87.1199C88.8745 87.6148 88.8745 88.1377 89.0121 88.6325C89.1763 89.1116 89.4706 89.5359 89.862 89.8583C90.5777 90.4341 91.4129 90.8439 92.3071 91.058C92.7255 91.1753 93.1569 91.2796 93.6146 91.3579C94.0073 91.4313 94.3924 91.5404 94.7652 91.6839C95.1077 91.8217 95.4223 92.0205 95.6935 92.2706C95.9351 92.4974 96.088 92.8025 96.125 93.1313C96.1959 93.493 96.1959 93.8649 96.125 94.2266C96.0347 94.61 95.9122 94.9851 95.7589 95.3481C95.4196 96.0979 95.0172 96.8176 94.556 97.4996C94.1175 98.1516 93.6371 98.7744 93.1177 99.3643C92.0765 99.7064 91.0155 99.9851 89.9405 100.199L89.1167 100.329L88.2799 100.407C87.7408 100.46 87.1978 100.46 86.6586 100.407C86.1468 100.339 85.6536 100.171 85.2073 99.912C84.8067 99.6482 84.5001 99.2648 84.3312 98.8166C84.1508 98.3383 84.0751 97.827 84.109 97.3171V96.9259V96.8476V96.7433V96.5347L84.292 95.6871L84.4358 94.996L83.7298 95.1003C81.9777 95.3872 80.2387 95.6349 78.4998 95.7784C76.7621 95.9528 75.0135 95.992 73.2697 95.8957C72.8382 95.8957 72.3937 95.8957 71.9622 95.7784C71.5307 95.661 71.0992 95.661 70.6547 95.5958C69.815 95.4373 68.9952 95.1881 68.2096 94.8526C67.4584 94.5415 66.7878 94.0644 66.2484 93.4573C66.0078 93.169 65.8258 92.8368 65.7123 92.4793C65.7062 92.3925 65.7062 92.3053 65.7123 92.2185C65.7067 92.1839 65.7067 92.1487 65.7123 92.1142V91.9838V91.3187V90.8232H65.2154L63.0581 90.7189C62.705 90.7189 62.3389 90.7189 61.9728 90.7189H60.966C61.0268 90.6515 61.0716 90.5713 61.0968 90.4842C61.1226 90.3113 61.1226 90.1355 61.0968 89.9626V87.3546V83.2471L61.2799 75.032L61.4629 66.8169V53.0469H58.8479V66.8169L59.044 75.032L59.2271 83.2471V87.3546V89.9626C59.2011 90.1355 59.2011 90.3113 59.2271 90.4842C59.2658 90.5893 59.3234 90.6865 59.397 90.7711C58.4164 90.8156 57.4388 90.9114 56.4682 91.058C56.4682 90.5494 56.4682 90.0408 56.4682 89.5323V86.494C56.4682 85.4769 56.4682 84.4598 56.4682 83.4557C56.4682 82.4516 56.4682 81.4215 56.4682 80.4044V80.0002H55.1607C55.0953 79.3351 55.0169 78.6962 54.9646 78.0051C54.8469 76.5577 54.7423 75.0972 54.6377 73.6367C55.03 72.8022 55.4222 71.9807 55.7883 71.1331L56.0759 70.4942L56.2198 70.1682V70.0117V69.9204C56.2255 69.8771 56.2255 69.8333 56.2198 69.79C56.2757 69.6071 56.2907 69.4142 56.2636 69.2249C56.2365 69.0356 56.168 68.8546 56.0629 68.6947C55.9574 68.5324 55.817 68.3955 55.6519 68.294C55.4868 68.1926 55.3012 68.1289 55.1084 68.1079C54.9177 68.0832 54.724 68.1009 54.5409 68.1595C54.3578 68.2181 54.19 68.3162 54.0493 68.4469C53.9065 68.5718 53.7946 68.728 53.7224 68.9033L53.5917 69.2423C53.4086 69.6857 53.2387 70.116 53.0818 70.5463C52.7418 71.42 52.428 72.3067 52.1142 73.1543V73.2716V73.3498C52.3888 74.8494 52.7026 76.362 52.9641 77.8747C53.0948 78.5788 53.1994 79.296 53.3171 80.0002H51.9181C51.9181 79.6872 51.9181 79.3743 51.8265 79.0483C51.735 77.9399 51.6697 76.8185 51.5781 75.697V75.5797L51.4474 75.4753C50.9113 74.9798 50.3621 74.4843 49.7999 74.0279C49.5253 73.7802 49.2377 73.5585 48.95 73.3238L48.8454 73.2455L48.6493 73.1151C48.5173 73.048 48.3764 72.9998 48.2309 72.9717C47.9338 72.9232 47.629 72.9785 47.3679 73.1282C47.1055 73.2735 46.9011 73.5044 46.7892 73.7823C46.6773 74.0601 46.6647 74.3678 46.7534 74.6538C46.7949 74.7909 46.8613 74.9191 46.9495 75.032C46.9903 75.0942 47.0386 75.1512 47.0934 75.2015L47.1718 75.2667L47.2503 75.3319L47.6948 75.6449L49.4338 76.8315C49.643 77.7312 49.8653 78.631 50.0614 79.5308C50.0614 79.7003 50.1268 79.8698 50.1529 80.0393H49.8522V80.261L49.9568 83.9121L50.0353 87.5633C50.0353 88.776 50.0353 89.9887 50.0353 91.2014V93.027C49.5254 93.2528 49.0279 93.5052 48.5447 93.7833C46.0746 95.4182 44.1276 97.7265 42.9355 100.434C42.3246 101.768 41.8853 103.175 41.628 104.619C41.3731 106.061 41.2941 107.527 41.3926 108.988V109.17L41.5364 109.301C41.6902 109.433 41.8677 109.534 42.0594 109.601C42.2512 109.674 42.4555 109.709 42.6609 109.705C42.8671 109.705 43.0714 109.665 43.2624 109.588C43.4492 109.513 43.6217 109.408 43.7723 109.275L43.903 109.157V108.975C43.9911 108.217 44.1353 107.468 44.3345 106.732C44.5445 105.99 44.8022 105.263 45.1059 104.554C45.4084 103.853 45.7669 103.177 46.1781 102.533C46.5896 101.893 47.0578 101.29 47.5771 100.733C48.6295 99.6231 49.9156 98.7592 51.3428 98.2038C51.6958 98.0604 52.0619 97.956 52.428 97.8386C52.7941 97.7213 53.1733 97.6561 53.5525 97.5909C53.9316 97.5257 54.3108 97.4866 54.69 97.4344C55.0692 97.3823 55.4614 97.4344 55.8406 97.4344C57.3769 97.3719 58.9082 97.648 60.3254 98.2429C61.0199 98.552 61.6705 98.9509 62.2605 99.4295C62.4174 99.5469 62.5481 99.6773 62.692 99.8077L63.0842 100.212C63.3502 100.488 63.5991 100.78 63.8295 101.086C64.2822 101.706 64.672 102.37 64.9932 103.068C65.1632 103.42 65.2939 103.785 65.4377 104.137C65.575 104.5 65.6929 104.87 65.7908 105.245C66.015 105.988 66.1811 106.746 66.2876 107.514C66.2876 107.905 66.3922 108.284 66.4184 108.675V110.148H66.7191L75.7409 109.627L84.7627 109.079C86.2608 108.994 87.7625 108.994 89.2606 109.079C90.0058 109.079 90.7511 109.157 91.5095 109.209L93.7845 109.366L102.78 109.979C102.495 108.304 102.399 106.602 102.493 104.906C102.541 104.49 102.628 104.08 102.754 103.68C102.818 103.482 102.901 103.289 103.002 103.107C103.088 102.915 103.184 102.728 103.29 102.546C103.71 101.818 104.23 101.151 104.833 100.564C106.049 99.3924 107.549 98.5565 109.187 98.1386C110 97.941 110.834 97.8404 111.671 97.8386H112.299L112.926 97.9039L114.234 98.0343C115.084 98.1125 115.921 98.1907 116.771 98.295C117.202 98.295 117.62 98.3863 118.078 98.3863C118.317 98.3937 118.555 98.3629 118.784 98.295C119.038 98.2154 119.253 98.0431 119.386 97.8126C119.522 97.5849 119.586 97.3211 119.569 97.0563C119.536 96.8044 119.437 96.5658 119.281 96.3652C119.153 96.1752 118.999 96.004 118.823 95.8566" fill="white"/>
<path d="M51.7218 91.5012C51.7218 90.4189 51.7218 89.3366 51.7218 88.2543C51.7218 87.172 51.7218 86.1027 51.7218 85.0204L51.8002 81.9822L54.9383 81.6692L55.0821 91.1101C54.4676 91.2665 52.9639 91.6577 52.3755 91.8663L51.6172 92.1532L51.7218 91.5012Z" fill="white"/>
<path d="M113.016 53.2555H56.0089C55.8586 53.2555 55.7142 53.1969 55.6066 53.0921C55.4991 52.9873 55.437 52.8446 55.4336 52.6948V51.3908C55.4336 51.2386 55.4942 51.0927 55.6021 50.9851C55.71 50.8775 55.8563 50.817 56.0089 50.817H113.016C113.169 50.817 113.315 50.8775 113.423 50.9851C113.531 51.0927 113.592 51.2386 113.592 51.3908V52.6948C113.588 52.8446 113.526 52.9873 113.419 53.0921C113.311 53.1969 113.167 53.2555 113.016 53.2555Z" fill="white"/>
</svg>
