<svg width="35" height="35" viewBox="0 0 35 35" fill="none" xmlns="http://www.w3.org/2000/svg">
<path d="M31.0173 20.9685V24.1246C31.0173 27.9338 27.9338 31.0173 24.1246 31.0173H10.3391C6.52997 31.0173 3.44637 27.9338 3.44637 24.1246V10.3754C3.44637 6.56625 6.52997 3.48265 10.3391 3.48265H13.459C13.3502 2.90221 13.2413 2.35804 13.2413 1.74132C13.2413 1.12461 13.3139 0.580442 13.459 0H10.3391C4.64353 0 0 4.64353 0 10.3754V24.1246C0 29.8565 4.64353 34.4637 10.3391 34.4637H24.0883C29.8202 34.4637 34.4274 29.8202 34.4274 24.1246V21.0047C33.9196 21.1136 33.3391 21.2224 32.7224 21.2224C32.1057 21.2224 31.5615 21.1136 31.0173 20.9685Z" fill="#4BBE95"/>
<path d="M32.7221 0H19.7348C18.7915 0 17.9934 0.76183 17.9934 1.74132C17.9934 2.72082 18.7553 3.48265 19.7348 3.48265H28.5502L10.9193 21.0773C10.23 21.7666 10.23 22.8549 10.9193 23.5079C11.2458 23.8344 11.6811 24.0158 12.1527 24.0158C12.5881 24.0158 13.0234 23.8344 13.3862 23.5079L31.0171 5.87697V14.6924C31.0171 15.6356 31.7789 16.4338 32.7584 16.4338C33.7379 16.4338 34.4997 15.6719 34.4997 14.6924V1.74132C34.4635 0.76183 33.7016 0 32.7221 0Z" fill="#4BBE95"/>
</svg>
