<svg width="100" height="99" viewBox="0 0 100 99" fill="none" xmlns="http://www.w3.org/2000/svg">
<g clip-path="url(#clip0_2924_30618)">
<path d="M2.27344 49.3655C2.27344 23.2613 23.6451 2.0968 50.0071 2.0968C76.3558 2.0968 97.7275 23.2613 97.7275 49.3788C97.7275 75.483 76.3558 96.6609 50.0071 96.6609C23.6451 96.6475 2.27344 75.483 2.27344 49.3655Z" fill="#4BBE95"/>
<path d="M50.007 98.1602C22.8598 98.1602 0.769531 76.2728 0.769531 49.3654C0.769531 22.458 22.8598 0.570679 50.007 0.570679C77.1541 0.570679 99.2444 22.458 99.2444 49.3654C99.2311 76.2728 77.1541 98.1602 50.007 98.1602ZM50.007 3.60947C24.5233 3.60947 3.79031 24.1314 3.79031 49.3654C3.79031 74.5995 24.5233 95.1214 50.007 95.1214C75.4907 95.1214 96.2236 74.5995 96.2236 49.3654C96.2103 24.1314 75.4774 3.60947 50.007 3.60947Z" fill="white"/>
<path d="M17.9243 28.0269L17.7247 28.3214L19.5212 29.5798L18.7893 30.6373L14.3047 27.5048L15.0366 26.4473L16.7932 27.6788L16.9396 27.4646L15.8883 25.2157L16.8065 23.8904L17.8578 26.7418L21.3709 26.9024L20.4394 28.2545L17.9243 28.0269Z" fill="white"/>
<path d="M21.0249 24.5061L22.4088 25.7645L21.5439 26.715L17.5117 23.0336L18.9223 21.4807C19.3614 20.9988 19.8272 20.7311 20.3329 20.6641C20.8386 20.5972 21.2777 20.7579 21.6769 21.1193C22.0762 21.4807 22.2625 21.9225 22.2492 22.4178C22.2358 22.9265 22.0096 23.4218 21.5705 23.9037L21.0249 24.5061ZM20.3063 23.8502L20.8652 23.2344C21.0515 23.0336 21.1446 22.8194 21.118 22.6052C21.1047 22.391 21.0116 22.2036 20.8386 22.043C20.6656 21.8823 20.466 21.802 20.253 21.802C20.0401 21.802 19.8405 21.9091 19.6542 22.1099L19.0953 22.7257L20.3063 23.8502Z" fill="white"/>
<path d="M23.4339 19.5263L24.0061 19.0577C24.5118 18.6428 25.0308 18.4553 25.5631 18.4687C26.082 18.4821 26.5212 18.7097 26.8539 19.1247C27.1866 19.5397 27.3063 20.0082 27.2132 20.5303C27.12 21.0524 26.814 21.5075 26.3083 21.9225L24.7247 23.1942L21.3047 18.9373L22.3027 18.1341L23.4339 19.5263ZM24.046 20.2893L25.1239 21.628L25.6961 21.1595C25.9091 20.9854 26.0288 20.7846 26.0554 20.5437C26.0687 20.3161 26.0022 20.1019 25.8558 19.9145C25.7094 19.7271 25.5231 19.62 25.2969 19.5932C25.0707 19.5664 24.8445 19.6334 24.6315 19.8074L24.046 20.2893ZM29.3158 19.4995L28.3177 20.3027L24.8844 16.0323L25.8824 15.2291L29.3158 19.4995Z" fill="white"/>
<path d="M28.4124 13.6628L30.4883 17.6521L32.0054 16.8623L29.9294 12.873L31.0606 12.284L33.1365 16.2599L34.6402 15.4834L32.5643 11.4942L33.6954 10.9052L36.2238 15.7512L29.8097 19.0845L27.2812 14.2385L28.4124 13.6628Z" fill="white"/>
<path d="M37.7675 13.0604L37.4216 13.1675L38.1002 15.2559L36.876 15.6441L35.1992 10.4366L36.4235 10.0484L37.0756 12.0832L37.3284 12.0029L37.8607 9.59325L39.3911 9.11133L38.4995 12.0029L41.2009 14.2652L39.6306 14.7605L37.7675 13.0604Z" fill="white"/>
<path d="M43.633 8.28141L44.8972 8.05383L45.8686 13.4353L44.6044 13.6629L44.0056 10.3296H43.979L42.595 14.0109L41.3308 14.2385L40.3594 8.85704L41.6236 8.62946L42.2224 11.9628H42.249L43.633 8.28141Z" fill="white"/>
<path d="M52.1385 8.80349L49.7166 8.7901L49.7299 13.2747H48.4391L48.4258 7.81287L52.1252 7.82625L52.1385 8.80349Z" fill="white"/>
<path d="M57.1943 11.6414C57.1144 12.3108 56.835 12.8328 56.3559 13.2077C55.8768 13.5825 55.2913 13.7298 54.5993 13.6494C53.9073 13.5557 53.3617 13.2746 52.9891 12.7793C52.6032 12.2974 52.4568 11.7084 52.5367 11.0524L52.6565 10.0752C52.7363 9.40584 53.0158 8.88375 53.4948 8.50892C53.9739 8.13409 54.5594 7.98684 55.2514 8.06716C55.9434 8.16087 56.4757 8.44199 56.8483 8.92391C57.2342 9.41922 57.3806 9.99485 57.3007 10.6508L57.1943 11.6414ZM56.0365 10.5036C56.0765 10.1153 56.0232 9.79405 55.8768 9.51293C55.7172 9.24519 55.4776 9.08455 55.1449 9.04439C54.7989 9.00423 54.5195 9.08455 54.3066 9.31213C54.0937 9.5397 53.9606 9.8476 53.9207 10.2358L53.8009 11.213C53.7477 11.6013 53.8009 11.9359 53.9606 12.2037C54.1203 12.4714 54.3598 12.632 54.7058 12.6722C55.0385 12.7124 55.3179 12.6187 55.5309 12.3911C55.7438 12.1635 55.8768 11.8556 55.9168 11.4674L56.0365 10.5036Z" fill="white"/>
<path d="M59.244 12.5384L58.7649 14.3456L57.5273 14.011L58.9113 8.73657L60.9473 9.28543C61.5861 9.45946 62.0386 9.75397 62.3313 10.169C62.6241 10.5839 62.6906 11.0525 62.5575 11.5746C62.4245 12.0966 62.1317 12.4581 61.6659 12.6723C61.2135 12.8865 60.6679 12.9132 60.0291 12.7392L59.244 12.5384ZM59.4968 11.588L60.2953 11.8021C60.5614 11.8691 60.7877 11.8557 60.974 11.7486C61.1603 11.6415 61.28 11.4675 61.3333 11.2399C61.3998 11.0123 61.3732 10.7981 61.28 10.6107C61.1736 10.4233 60.9873 10.2894 60.7211 10.2225L59.9227 10.0083L59.4968 11.588Z" fill="white"/>
<path d="M67.9082 11.7754L65.8988 16.8356L64.7144 16.3537L66.3646 12.2038L65.1003 11.6817L64.568 13.0338C64.1688 14.0511 63.7164 14.7071 63.2107 15.0016C62.7183 15.2961 62.1328 15.3095 61.4807 15.0418L61.3477 14.9882L61.707 14.0913L61.84 14.1449C62.1594 14.2787 62.4256 14.2386 62.6119 14.011C62.8115 13.7968 63.051 13.3015 63.3571 12.5518L64.2487 10.3029L67.9082 11.7754Z" fill="white"/>
<path d="M71.5947 17.5317C71.262 18.1073 70.7963 18.4821 70.2107 18.6428C69.6252 18.8034 69.0264 18.7097 68.4275 18.3483C67.8154 18.0002 67.4428 17.5183 67.2831 16.9159C67.1234 16.3135 67.2166 15.7245 67.5492 15.1488L68.0416 14.3055C68.3743 13.7298 68.8401 13.355 69.4389 13.1944C70.0377 13.0337 70.6366 13.1408 71.2354 13.4889C71.8342 13.8369 72.2202 14.3055 72.3798 14.9079C72.5395 15.5103 72.4464 16.0993 72.1137 16.6749L71.5947 17.5317ZM70.9826 16.0324C71.1822 15.6977 71.262 15.3764 71.2221 15.0685C71.1822 14.7606 71.0225 14.5197 70.7297 14.3456C70.4236 14.1716 70.1442 14.1448 69.8514 14.2653C69.572 14.3858 69.3324 14.6134 69.1328 14.9614L68.6405 15.8048C68.4408 16.1528 68.361 16.4741 68.4009 16.782C68.4408 17.0899 68.6005 17.3309 68.9066 17.5049C69.1994 17.6789 69.4788 17.7057 69.7716 17.5718C70.051 17.4514 70.2906 17.2238 70.4902 16.8757L70.9826 16.0324Z" fill="white"/>
<path d="M70.9805 19.8341L74.3206 15.537L75.7445 16.6615C76.2901 17.0899 76.6361 17.5182 76.7825 17.9466C76.9289 18.3884 76.849 18.79 76.5563 19.1916C76.3966 19.3924 76.2103 19.5396 75.9974 19.6199C75.7844 19.7003 75.5316 19.7003 75.2655 19.6199C75.4784 19.8743 75.5848 20.142 75.5715 20.4098C75.5582 20.6775 75.4651 20.9319 75.2921 21.1594C74.9594 21.5744 74.5735 21.7886 74.121 21.7752C73.6686 21.7618 73.1762 21.5476 72.6439 21.1327L70.9805 19.8341ZM73.429 18.7766L72.5907 19.8475L73.2427 20.3562C73.4556 20.5302 73.6553 20.6106 73.8283 20.6106C74.0013 20.6106 74.1609 20.5302 74.294 20.3562C74.4404 20.1688 74.4936 19.9948 74.4803 19.8341C74.4537 19.6601 74.3472 19.4995 74.1343 19.3121L74.0944 19.2853L73.429 18.7766ZM73.948 18.1206L74.3472 18.4285C74.5868 18.6159 74.7997 18.723 74.986 18.723C75.1723 18.7364 75.332 18.6561 75.4518 18.4955C75.5981 18.308 75.6381 18.134 75.5848 17.96C75.5316 17.786 75.3852 17.5985 75.1457 17.4111L74.7332 17.0899L73.948 18.1206Z" fill="white"/>
<path d="M80.9216 21.3871L81.8132 22.3108L77.9141 26.0858L77.0225 25.1621L79.4445 22.8195L79.4312 22.8061L75.5986 23.6896L74.707 22.7659L78.6061 18.9908L79.4977 19.9145L77.0891 22.2572L77.1024 22.2706L80.9216 21.3871Z" fill="white"/>
<path d="M81.0397 30.383L80.2944 29.3388L82.0776 28.0671L80.88 26.3937L79.0968 27.6655L78.3516 26.6213L82.7696 23.462L83.5148 24.5062L81.6651 25.8315L82.8628 27.5048L84.7125 26.1795L85.4577 27.2237L81.0397 30.383Z" fill="white"/>
<path d="M21.664 76.5004C21.9169 76.2728 22.0233 76.0185 22.01 75.7239C21.9967 75.4428 21.8503 75.0011 21.6108 74.4254C21.0918 73.2876 20.7857 72.3505 20.7192 71.641C20.6527 70.9181 20.9055 70.2889 21.5043 69.7401C22.0899 69.2046 22.7819 69.0172 23.6069 69.1912C24.4187 69.3652 25.1772 69.8338 25.8825 70.5968C26.6277 71.4134 27.0269 72.23 27.1068 73.0734C27.1866 73.9033 26.8805 74.6262 26.1886 75.2286L26.1486 75.242L24.6848 73.6356C25.0175 73.3277 25.1639 73.0198 25.1506 72.7119C25.1373 72.3906 24.951 72.056 24.6183 71.6811C24.3388 71.3866 24.0594 71.2126 23.7533 71.1724C23.4472 71.1323 23.1944 71.2126 22.9815 71.4C22.7819 71.5874 22.702 71.8284 22.7286 72.1095C22.7686 72.404 22.9149 72.8726 23.1811 73.5285C23.6868 74.5727 23.9662 75.4562 24.0194 76.2059C24.0594 76.9421 23.7799 77.5847 23.1811 78.1469C22.5689 78.7092 21.8636 78.8966 21.0785 78.736C20.2934 78.5619 19.5215 78.08 18.7896 77.2634C18.0577 76.4602 17.6186 75.6035 17.4855 74.7066C17.3524 73.8096 17.6851 73.0064 18.4969 72.2835L18.5368 72.2702L20.0006 73.8766C19.6014 74.2514 19.4018 74.6128 19.4151 74.9743C19.4284 75.3357 19.628 75.7239 20.0139 76.1389C20.3333 76.487 20.6261 76.6744 20.9188 76.7279C21.1983 76.7681 21.4511 76.6878 21.664 76.5004Z" fill="white"/>
<path d="M27.0525 80.1549L25.256 82.8457L23.4062 81.6007L28.6627 73.7427L31.7101 75.8042C32.6549 76.4468 33.2537 77.1965 33.48 78.0398C33.7195 78.8966 33.5731 79.6998 33.0674 80.4762C32.5484 81.2526 31.8565 81.681 30.9782 81.7881C30.1132 81.8818 29.195 81.6141 28.2501 80.9715L27.0525 80.1549ZM27.9973 78.7493L29.195 79.5525C29.5942 79.8203 29.9801 79.9274 30.3394 79.847C30.6987 79.7667 30.9915 79.5659 31.2177 79.2179C31.4439 78.8698 31.5371 78.5084 31.4705 78.1469C31.4173 77.7855 31.1778 77.4642 30.7786 77.1831L29.5809 76.3799L27.9973 78.7493Z" fill="white"/>
<path d="M38.5772 85.1349L35.4233 83.9033L34.5849 86.1121L38.3643 87.5847L37.7654 89.1643L31.9102 86.8752L35.2902 78.0399L41.1588 80.3291L40.5467 81.9087L36.7674 80.4228L36.0355 82.3237L39.1893 83.5553L38.5772 85.1349Z" fill="white"/>
<path d="M46.3911 86.7279L43.0509 86.179L42.6783 88.5083L46.6705 89.1642L46.4044 90.8376L40.2031 89.8068L41.6936 80.4495L47.8948 81.4802L47.6287 83.1536L43.6231 82.4843L43.3038 84.4923L46.6439 85.0411L46.3911 86.7279Z" fill="white"/>
<path d="M49.0763 91.0117L48.4375 81.5473L51.9374 81.3331C53.0685 81.2661 54.0266 81.574 54.8384 82.2434C55.6501 82.9261 56.0893 83.823 56.1558 84.9609L56.2756 86.661C56.3554 87.7989 56.036 88.7493 55.3307 89.5258C54.6254 90.3022 53.7072 90.7172 52.5761 90.7841L49.0763 91.0117ZM50.7796 83.1001L51.1921 89.1911L52.4696 89.1108C52.9753 89.084 53.3746 88.843 53.6673 88.4281C53.9601 87.9997 54.0932 87.4642 54.0532 86.8216L53.9335 85.1081C53.8935 84.4656 53.6939 83.9569 53.3346 83.5687C52.9753 83.1804 52.5495 83.0064 52.0438 83.0332L50.7796 83.1001Z" fill="white"/>
<path d="M65.3663 84.8001L65.3929 84.8269C65.7256 85.8577 65.6724 86.7278 65.2332 87.4507C64.7941 88.1736 64.0223 88.6957 62.9044 89.0437C61.7733 89.3918 60.762 89.3249 59.8571 88.8563C58.9655 88.3878 58.34 87.5846 57.994 86.4869L57.4085 84.5993C57.0625 83.4882 57.1157 82.4976 57.5682 81.6007C58.0206 80.7038 58.7792 80.1014 59.8704 79.7667C61.0281 79.4053 62.0129 79.4053 62.8113 79.7399C63.6097 80.088 64.1687 80.7707 64.4614 81.7881L64.4481 81.8283L62.3855 82.4574C62.2125 81.9086 61.9729 81.5338 61.6536 81.3731C61.3342 81.1991 60.9083 81.1991 60.3627 81.3731C59.8837 81.5204 59.5776 81.8149 59.4445 82.2834C59.3114 82.7386 59.3381 83.2874 59.5244 83.9166L60.1099 85.8175C60.3095 86.4467 60.6023 86.9152 61.0015 87.2097C61.4007 87.5043 61.8665 87.5712 62.3855 87.4106C62.8778 87.2633 63.1839 87.0357 63.3303 86.7278C63.4767 86.4199 63.4501 85.9782 63.2771 85.4159L65.3663 84.8001Z" fill="white"/>
<path d="M72.1535 82.578L69.705 84.0371L70.1707 85.9113L68.1613 87.1027L65.9922 77.3304L67.0169 76.728V76.7146L68.0415 76.1122L75.5735 82.6851L73.5641 83.8765L72.1535 82.578ZM69.2791 82.3103L70.8494 81.3732L68.5738 79.2982L68.5339 79.325L69.2791 82.3103Z" fill="white"/>
<path d="M76.5562 77.3973L78.8318 79.7266L77.2482 81.2794L70.6211 74.479L73.2293 71.9221C74.0411 71.1323 74.8795 70.7039 75.7578 70.6504C76.636 70.5968 77.3946 70.9047 78.0466 71.574C78.6987 72.2434 78.9915 73.0198 78.9116 73.89C78.8318 74.7601 78.3926 75.6035 77.5809 76.3933L76.5562 77.3973ZM75.3718 76.1791L76.3965 75.1751C76.7425 74.8404 76.9155 74.4924 76.9155 74.1175C76.9155 73.7561 76.7691 73.4214 76.4764 73.1269C76.1836 72.819 75.8509 72.6584 75.4783 72.645C75.1057 72.6316 74.7464 72.7922 74.4004 73.1269L73.3757 74.1309L75.3718 76.1791Z" fill="white"/>
<path d="M77.7818 70.4094C77.1164 69.9543 76.7172 69.3653 76.5575 68.6156C76.3978 67.8659 76.5309 67.1832 76.9567 66.554C77.3693 65.9249 77.9548 65.55 78.7133 65.4162C79.4585 65.2823 80.1638 65.4429 80.8292 65.8847C81.4946 66.3398 81.9071 66.9289 82.0668 67.6785C82.2265 68.4282 82.0934 69.1109 81.6809 69.7401C81.255 70.3693 80.6695 70.7441 79.9243 70.878C79.1525 71.0252 78.4472 70.8646 77.7818 70.4094ZM78.0346 70.0212C78.5936 70.396 79.1791 70.5299 79.8045 70.4228C80.43 70.3157 80.909 69.9944 81.255 69.4723C81.601 68.9503 81.7075 68.388 81.5744 67.7588C81.4413 67.143 81.0953 66.6344 80.5364 66.2595C79.9775 65.8847 79.4053 65.7508 78.7799 65.8579C78.1544 65.965 77.6753 66.2863 77.3293 66.8084C76.9833 67.3305 76.8769 67.9061 76.9967 68.5219C77.143 69.1511 77.489 69.6464 78.0346 70.0212ZM79.2323 68.7762L80.2969 69.4991L79.9775 69.981L77.3027 68.1738L77.9016 67.2769C78.1145 66.9556 78.354 66.7548 78.6202 66.6611C78.8863 66.5674 79.1525 66.621 79.4186 66.795C79.5384 66.8753 79.6182 66.969 79.6715 67.0895C79.7247 67.21 79.738 67.3439 79.7247 67.4911C79.8711 67.4108 80.0174 67.3974 80.1638 67.4242C80.3102 67.4509 80.4699 67.5179 80.6296 67.625L80.8026 67.7455C80.8824 67.799 80.9623 67.8526 81.0421 67.8927C81.122 67.9329 81.1885 67.9596 81.2417 67.9596L81.295 67.9998L80.9623 68.4951C80.909 68.4817 80.8292 68.455 80.7493 68.4014C80.6562 68.3479 80.5764 68.2943 80.4832 68.2274L80.3102 68.1069C80.1638 67.9998 80.0308 67.973 79.911 67.9864C79.7912 68.0132 79.6848 68.1069 79.5783 68.2675L79.2323 68.7762ZM78.8065 68.4817L79.0726 68.0667C79.1791 67.9061 79.2323 67.7588 79.2456 67.5982C79.2589 67.4509 79.2057 67.3305 79.0859 67.2501C78.9395 67.1431 78.8065 67.1163 78.6867 67.1564C78.5669 67.1966 78.4472 67.3171 78.3008 67.5313L78.0213 67.9463L78.8065 68.4817Z" fill="white"/>
<path d="M87.2812 53.7294V51.601L88.6918 52.6585L87.2812 53.7294Z" fill="white"/>
<path d="M13.1845 36.9827H10.7227V38.0402H13.1845V36.9827Z" fill="white"/>
<path d="M12.481 36.3401H11.4297V38.6962H12.481V36.3401Z" fill="white"/>
<path d="M38.4423 36.9827H35.9805V38.0402H38.4423V36.9827Z" fill="white"/>
<path d="M37.7388 36.3401H36.6875V38.6962H37.7388V36.3401Z" fill="white"/>
<path d="M62.7675 54.3586H62.1953V55.4162H62.7675V54.3586Z" fill="white"/>
<path d="M62.6363 34.7471H62.4766V35.818H62.6363V34.7471Z" fill="white"/>
<path d="M38.4423 36.9827H35.9805V38.0402H38.4423V36.9827Z" fill="white"/>
<path d="M37.7388 36.3401H36.6875V38.6962H37.7388V36.3401Z" fill="white"/>
<path d="M37.3003 54.3721H37.1406V55.4296H37.3003V54.3721Z" fill="white"/>
<path d="M37.5644 34.7471H36.9922V35.8046H37.5644V34.7471Z" fill="white"/>
<path d="M88.1207 49.834H12.0156V50.8915H88.1207V49.834Z" fill="white"/>
<path d="M88.1211 54.9075L88.5869 54.8674C91.1153 54.3185 91.1153 50.9718 88.5869 50.423L88.1211 50.3828" fill="#4BBE95"/>
<path d="M88.1729 55.443L88.0664 54.3854L88.5322 54.3453C89.5701 54.1177 89.9561 53.2877 89.9561 52.6585C89.9561 52.016 89.5701 51.1994 88.4656 50.9584L88.0664 50.9183L88.1729 49.8607L88.6386 49.9009C90.3021 50.2623 91.0207 51.5341 91.0207 52.6452C91.0207 53.7563 90.3021 55.0414 88.7052 55.3894L88.1729 55.443Z" fill="white"/>
<path d="M12.0172 50.356L11.5514 50.3827C8.98307 50.7977 8.77015 54.1444 11.2853 54.8405L11.751 54.9075" fill="#4BBE95"/>
<path d="M11.6693 55.4296L11.2035 55.3627C9.56668 54.9075 8.91462 53.5956 8.98116 52.4845C9.03439 51.36 9.83283 50.1151 11.4563 49.8473L11.9886 49.8206L12.0286 50.8781L11.5628 50.8915C10.5115 51.0655 10.0724 51.8821 10.0324 52.5247C9.99252 53.1539 10.3385 54.0106 11.4164 54.3051L11.8156 54.3587L11.6693 55.4296Z" fill="white"/>
<path d="M89.689 52.6452L89.6624 52.3507L89.5693 52.0696C88.9438 50.7041 86.9078 50.8781 86.5618 52.3507L86.5352 52.6452L86.5618 52.9397C86.9078 54.4122 88.9438 54.5863 89.5693 53.2208L89.6624 52.9397L89.689 52.6452Z" fill="#4BBE95"/>
<path d="M88.1198 54.6799C88.0399 54.6799 87.9734 54.6799 87.8936 54.6665C86.9753 54.5728 86.2567 53.9437 86.0438 53.0601L86.0039 52.6987L86.0305 52.3105C86.2567 51.3466 86.9753 50.7174 87.8936 50.6237C88.8118 50.53 89.6634 51.012 90.0493 51.8553L90.1558 52.2034L90.209 52.6585L90.1691 53.0066L90.0627 53.3948C89.7034 54.2114 88.9581 54.6799 88.1198 54.6799ZM88.1198 51.6679C88.0799 51.6679 88.0399 51.6679 88 51.6679C87.6407 51.7081 87.2016 51.9356 87.0818 52.4711L87.0685 52.6987L87.0951 52.8995C87.2016 53.3546 87.6407 53.5822 88 53.6224C88.3859 53.6492 88.8517 53.5153 89.0912 53.0066L89.1578 52.6719L89.0646 52.2302C88.8783 51.8286 88.4791 51.6679 88.1198 51.6679Z" fill="white"/>
<path d="M89.6889 51.7214H86.6016V52.779H89.6889V51.7214Z" fill="white"/>
<path d="M89.6223 52.5114H86.6016V53.5689H89.6223V52.5114Z" fill="white"/>
<path d="M88.3872 52.2837H87.3359V53.0735H88.3872V52.2837Z" fill="white"/>
<path d="M88.8794 52.257H87.8281V53.0468H88.8794V52.257Z" fill="white"/>
<path d="M64.0992 52.6585L64.0726 52.364L63.9794 52.0829C63.354 50.7174 61.3046 50.8914 60.9719 52.364L60.9453 52.6585L60.9719 52.953C61.3046 54.4255 63.354 54.5996 63.9794 53.2341L64.0726 52.953L64.0992 52.6585Z" fill="#4BBE95"/>
<path d="M62.5284 54.7067C62.4485 54.7067 62.382 54.7067 62.3021 54.6933C61.3839 54.5996 60.6653 53.9704 60.4657 53.0735L60.4258 52.7121L60.4524 52.3105C60.6653 51.36 61.3972 50.7174 62.3021 50.6237C63.2336 50.53 64.0853 51.012 64.4579 51.8553L64.5644 52.2034L64.6176 52.6585L64.4712 53.3948C64.1119 54.2248 63.3667 54.7067 62.5284 54.7067ZM62.5284 51.6813C62.4884 51.6813 62.4485 51.6813 62.4086 51.6813C62.0493 51.7215 61.6101 51.949 61.4904 52.4711L61.4771 52.6987L61.5037 52.8861C61.6101 53.3546 62.0493 53.5822 62.4086 53.609C62.7812 53.6491 63.2736 53.5019 63.4998 52.9932L63.5663 52.6585L63.4732 52.2168C63.2869 51.8419 62.8877 51.6813 62.5284 51.6813Z" fill="white"/>
<path d="M64.099 51.7349H61.0117V52.7924H64.099V51.7349Z" fill="white"/>
<path d="M64.0325 52.5247H61.0117V53.5822H64.0325V52.5247Z" fill="white"/>
<path d="M62.7951 52.3102H61.7305V53.1H62.7951V52.3102Z" fill="white"/>
<path d="M63.2896 52.2704H62.2383V53.0602H63.2896V52.2704Z" fill="white"/>
<path d="M38.8414 52.6585L38.8147 52.364L38.7216 52.0829C38.0961 50.7174 36.0601 50.8914 35.7141 52.364L35.6875 52.6585L35.7141 52.953C36.0601 54.4255 38.0961 54.5996 38.7216 53.2341L38.8147 52.953L38.8414 52.6585Z" fill="#4BBE95"/>
<path d="M37.2705 54.7067C37.1907 54.7067 37.1242 54.7067 37.0443 54.6933C36.1261 54.5996 35.4075 53.9704 35.2079 53.0735L35.168 52.7121L35.1946 52.3105C35.4075 51.36 36.1394 50.7174 37.0443 50.6237C37.9758 50.53 38.8142 51.012 39.2001 51.8553L39.3066 52.2034L39.3598 52.6585L39.3199 53.0066L39.2134 53.3948C38.8541 54.2248 38.1089 54.7067 37.2705 54.7067ZM37.2705 51.6813C37.2306 51.6813 37.1907 51.6813 37.1508 51.6813C36.7915 51.7215 36.3523 51.949 36.2326 52.4845L36.2193 52.7121L36.2459 52.8995C36.3523 53.368 36.7915 53.5956 37.1508 53.6358C37.5234 53.6759 38.0158 53.5287 38.242 53.02L38.3085 52.6853L38.2154 52.2435C38.0291 51.8419 37.6298 51.6813 37.2705 51.6813Z" fill="white"/>
<path d="M38.8412 51.7349H35.7539V52.7924H38.8412V51.7349Z" fill="white"/>
<path d="M38.7747 52.5247H35.7539V53.5822H38.7747V52.5247Z" fill="white"/>
<path d="M37.5239 52.3102H36.4727V53.1H37.5239V52.3102Z" fill="white"/>
<path d="M38.0318 52.2704H36.9805V53.0602H38.0318V52.2704Z" fill="white"/>
<path d="M13.4507 52.6319L13.4241 52.3374L13.331 52.0562C12.7055 50.6908 10.6695 50.8648 10.3235 52.3374L10.2969 52.6319L10.3235 52.9264C10.6562 54.3989 12.7055 54.573 13.331 53.2075L13.4241 52.9264L13.4507 52.6319Z" fill="#4BBE95"/>
<path d="M11.8799 54.68C11.8001 54.68 11.7335 54.68 11.6537 54.6666C10.7355 54.5729 10.0169 53.9437 9.81727 53.0602L9.77734 52.6988L9.80396 52.2838C10.0169 51.3333 10.7355 50.7041 11.6537 50.6104C12.5852 50.5167 13.4369 50.9986 13.8095 51.842L13.9293 52.1901L13.9825 52.6452L13.9426 52.9933L13.8361 53.3815C13.4635 54.1981 12.7183 54.68 11.8799 54.68ZM11.8799 51.6546C11.84 51.6546 11.8001 51.6546 11.7601 51.6546C11.4008 51.6948 10.9617 51.9223 10.8419 52.4444L10.8153 52.6854L10.8419 52.8594C10.9484 53.3279 11.3875 53.5555 11.7468 53.5957C12.1194 53.6358 12.6118 53.4886 12.838 52.9799L12.9046 52.6452L12.8114 52.2035C12.6384 51.8152 12.2392 51.6546 11.8799 51.6546Z" fill="white"/>
<path d="M13.4506 51.7081H10.3633V52.7657H13.4506V51.7081Z" fill="white"/>
<path d="M13.3841 52.4979H10.3633V53.5555H13.3841V52.4979Z" fill="white"/>
<path d="M12.1489 52.2704H11.0977V53.0602H12.1489V52.2704Z" fill="white"/>
<path d="M12.6544 52.2435H11.5898V53.0333H12.6544V52.2435Z" fill="white"/>
<path d="M61.7695 64.961L61.7828 65.1082C61.9824 65.8847 63.1269 65.8847 63.2999 65.0815L63.3132 64.9342" fill="#4BBE95"/>
<path d="M62.5564 66.2194C61.9443 66.2194 61.4386 65.8312 61.2922 65.2421L61.2656 65.028L62.3169 64.9075L62.3302 65.0547C62.3568 65.1484 62.4633 65.1618 62.5698 65.1618C62.6496 65.1618 62.7694 65.135 62.8093 64.9744V64.9075L63.8606 65.0012L63.8473 65.1484C63.7009 65.8178 63.1952 66.2194 62.5831 66.2328C62.5698 66.2194 62.5564 66.2194 62.5564 66.2194Z" fill="white"/>
<path d="M38.4306 36.9827H35.9688V38.0402H38.4306V36.9827Z" fill="white"/>
<path d="M37.7232 36.3401H36.6719V38.6962H37.7232V36.3401Z" fill="white"/>
<path d="M38.4306 36.9827H35.9688V38.0402H38.4306V36.9827Z" fill="white"/>
<path d="M37.7232 36.3401H36.6719V38.6962H37.7232V36.3401Z" fill="white"/>
<path d="M38.4306 36.9827H35.9688V38.0402H38.4306V36.9827Z" fill="white"/>
<path d="M37.7232 36.3401H36.6719V38.6962H37.7232V36.3401Z" fill="white"/>
<path d="M37.5527 34.7471H36.9805V35.8046H37.5527V34.7471Z" fill="white"/>
<path d="M62.6206 34.7471H62.4609V35.8046H62.6206V34.7471Z" fill="white"/>
<path d="M87.7473 39.2852H11.6289V40.3427H87.7473V39.2852Z" fill="white"/>
<path d="M11.6316 35.2692L11.1658 35.3093C8.63743 35.8582 8.63743 39.2049 11.1658 39.7537L11.6316 39.7939" fill="#4BBE95"/>
<path d="M11.59 40.3293L11.1242 40.2892C9.46079 39.9277 8.74219 38.656 8.74219 37.5315C8.74219 36.4204 9.46079 35.1352 11.0577 34.7872L11.5767 34.7336L11.6698 35.7912L11.2041 35.8314C10.1661 36.0589 9.78017 36.8889 9.78017 37.5181C9.78017 38.1607 10.1661 38.9772 11.2573 39.2182L11.6565 39.2584L11.59 40.3293Z" fill="white"/>
<path d="M87.7305 39.8207L88.1962 39.8073C90.7646 39.3923 90.9775 36.0456 88.4624 35.3495L87.9966 35.2826" fill="#4BBE95"/>
<path d="M87.7587 40.3562L87.7188 39.2986L88.1845 39.2852C89.2358 39.1112 89.6882 38.2946 89.7149 37.652C89.7548 37.0229 89.4088 36.1661 88.3309 35.8716L87.9317 35.8181L88.0914 34.7605L88.5571 34.8274C90.1939 35.2826 90.846 36.5945 90.7795 37.7056C90.7129 38.8301 89.9278 40.075 88.291 40.3428L87.7587 40.3562Z" fill="white"/>
<path d="M13.2125 37.5315L13.1858 37.237L13.0927 36.9559C12.4672 35.5905 10.4312 35.7645 10.0852 37.237L10.0586 37.5315L10.0852 37.826C10.4312 39.2986 12.4672 39.4726 13.0927 38.1072L13.1858 37.826L13.2125 37.5315Z" fill="#4BBE95"/>
<path d="M11.6432 39.5797C11.5634 39.5797 11.4968 39.5797 11.417 39.5663C10.4988 39.4726 9.78018 38.8434 9.56727 37.9465L9.52734 37.585L9.55396 37.1834C9.78018 36.233 10.4988 35.6038 11.417 35.5101C12.3485 35.4164 13.1869 35.8983 13.5728 36.7417L13.6926 37.0897L13.7458 37.5449L13.7059 37.8929L13.5994 38.2812C13.2268 39.0977 12.4816 39.5797 11.6432 39.5797ZM11.6299 36.5543C11.59 36.5543 11.5501 36.5543 11.5101 36.5543C11.1508 36.5944 10.7117 36.822 10.5919 37.3441L10.5786 37.5717L10.6052 37.7591C10.7117 38.2276 11.1508 38.4552 11.5101 38.482C11.8961 38.5221 12.3618 38.3749 12.6014 37.8662L12.6679 37.5315L12.588 37.1165C12.4017 36.7149 11.9892 36.5543 11.6299 36.5543Z" fill="white"/>
<path d="M13.1459 37.3977H10.0586V38.4553H13.1459V37.3977Z" fill="white"/>
<path d="M13.1575 36.6078H10.1367V37.6787H13.1575V36.6078Z" fill="white"/>
<path d="M11.9201 37.1433H10.8555V37.9331H11.9201V37.1433Z" fill="white"/>
<path d="M38.8023 37.5181L38.7757 37.2236L38.6825 36.9425C38.0571 35.577 36.021 35.7511 35.6751 37.2236L35.6484 37.5181L35.6751 37.8126C36.0077 39.2852 38.0571 39.4592 38.6825 38.0937L38.7757 37.8126L38.8023 37.5181Z" fill="#4BBE95"/>
<path d="M37.2315 39.5529C37.1516 39.5529 37.0718 39.5529 37.0053 39.5395C36.087 39.4458 35.3684 38.8167 35.1688 37.9198L35.1289 37.5583L35.1555 37.1567C35.3684 36.2062 36.087 35.5771 37.0053 35.4834C37.9501 35.3897 38.7884 35.8716 39.1744 36.7149L39.2808 37.063L39.334 37.5181L39.2941 37.8662L39.1877 38.2544C38.8151 39.0844 38.0698 39.5529 37.2315 39.5529ZM37.2315 36.5409C37.1916 36.5409 37.1516 36.5409 37.1117 36.5409C36.7524 36.5811 36.3133 36.8086 36.1935 37.3307L36.1802 37.5583L36.2068 37.7457C36.3133 38.2143 36.7524 38.4418 37.1117 38.482C37.4843 38.5222 37.9767 38.3749 38.2029 37.8662L38.2695 37.5315L38.1763 37.0898C37.99 36.7016 37.5775 36.5409 37.2315 36.5409Z" fill="white"/>
<path d="M38.7358 37.3843H35.6484V38.4418H38.7358V37.3843Z" fill="white"/>
<path d="M38.7473 36.5945H35.7266V37.6654H38.7473V36.5945Z" fill="white"/>
<path d="M38.0044 37.0897H36.9531V37.8795H38.0044V37.0897Z" fill="white"/>
<path d="M37.4966 37.1166H36.4453V37.9064H37.4966V37.1166Z" fill="white"/>
<path d="M64.0585 37.5181L64.0319 37.2236L63.9521 36.9425C63.3266 35.577 61.2773 35.7511 60.9446 37.2236L60.918 37.5181L60.9446 37.8126C61.2773 39.2852 63.3266 39.4592 63.9521 38.0937L64.0319 37.8126L64.0585 37.5181Z" fill="#4BBE95"/>
<path d="M62.4893 39.5529C62.4094 39.5529 62.3296 39.5529 62.2631 39.5395C61.3449 39.4458 60.6263 38.8166 60.4266 37.9197L60.3867 37.5583L60.4133 37.1433C60.6263 36.1928 61.3449 35.5636 62.2631 35.4699C63.1813 35.3762 64.0463 35.8581 64.4322 36.7015L64.5386 37.0496L64.5919 37.5047L64.4455 38.241C64.0729 39.0844 63.3277 39.5529 62.4893 39.5529ZM62.4893 36.5409C62.4494 36.5409 62.4094 36.5409 62.3695 36.5409C62.0102 36.581 61.5711 36.8086 61.4513 37.3307L61.4247 37.5717L61.4513 37.7457C61.5578 38.2142 61.9969 38.4418 62.3562 38.482C62.7288 38.5221 63.2212 38.3749 63.4474 37.8662L63.514 37.5181L63.4208 37.0763C63.2478 36.7015 62.8353 36.5409 62.4893 36.5409Z" fill="white"/>
<path d="M63.9936 37.3843H60.9062V38.4418H63.9936V37.3843Z" fill="white"/>
<path d="M64.0052 36.5945H60.9844V37.6654H64.0052V36.5945Z" fill="white"/>
<path d="M63.2622 37.0897H62.2109V37.8795H63.2622V37.0897Z" fill="white"/>
<path d="M62.7677 37.1166H61.7031V37.9064H62.7677V37.1166Z" fill="white"/>
<path d="M89.4507 37.545L89.4241 37.2505L89.331 36.9693C88.7055 35.6039 86.6695 35.7779 86.3235 37.2505L86.2969 37.545L86.3235 37.8395C86.6562 39.312 88.7055 39.486 89.331 38.1206L89.4241 37.8395L89.4507 37.545Z" fill="#4BBE95"/>
<path d="M87.8799 39.5931C87.8001 39.5931 87.7202 39.5931 87.6537 39.5797C86.7355 39.486 86.0169 38.8568 85.8173 37.9599L85.7773 37.5985L85.804 37.1969C86.0169 36.2464 86.7488 35.6038 87.6537 35.5235C88.5719 35.4298 89.4236 35.9117 89.8095 36.7551L89.9159 37.1032L89.9692 37.5583L89.9293 37.9064L89.8228 38.2946C89.4635 39.1112 88.7183 39.5931 87.8799 39.5931ZM87.8666 36.5677C87.8267 36.5677 87.7868 36.5677 87.7468 36.5677C87.3875 36.6078 86.9484 36.8354 86.8286 37.3575L86.8153 37.5851L86.8419 37.7725C86.9484 38.241 87.3875 38.4686 87.7468 38.4954C88.1194 38.5355 88.6118 38.3883 88.838 37.8796L88.9046 37.5449L88.8114 37.1032C88.6384 36.7283 88.2259 36.5677 87.8666 36.5677Z" fill="white"/>
<path d="M89.3842 37.411H86.2969V38.4686H89.3842V37.411Z" fill="white"/>
<path d="M89.3841 36.6212H86.3633V37.6788H89.3841V36.6212Z" fill="white"/>
<path d="M88.6528 37.1166H87.6016V37.9064H88.6528V37.1166Z" fill="white"/>
<path d="M88.145 37.1433H87.0938V37.9331H88.145V37.1433Z" fill="white"/>
<path d="M81.957 54.9076L82.5159 55.9919C87.6526 63.1806 98.6712 56.0856 93.2683 48.7095L92.39 47.8394" fill="#4BBE95"/>
<path d="M88.0128 59.5126C85.6973 59.5126 83.5681 58.3748 82.091 56.2998L81.4922 55.1486L82.4237 54.6532L82.9826 55.7376C84.3799 57.6787 86.4026 58.6425 88.6516 58.4149C90.9005 58.174 92.9099 56.7684 93.7616 54.8139C94.5601 52.9799 94.2407 50.9317 92.8434 49.0174L92.0183 48.2142L92.7636 47.4512L93.6419 48.3213C95.3319 50.6104 95.6912 53.0468 94.7331 55.2423C93.7217 57.5448 91.3796 59.2047 88.758 59.4725C88.5185 59.4993 88.2657 59.5126 88.0128 59.5126Z" fill="white"/>
<path d="M83.9954 47.7054L83.1703 48.4685L82.4783 49.3654L81.9727 50.356" fill="#4BBE95"/>
<path d="M82.437 50.6104L81.4922 50.1151L82.0112 49.1245L82.7431 48.1472L83.648 47.3173L84.3533 48.1071L83.5149 48.8701L82.9028 49.6867L82.437 50.6104Z" fill="white"/>
<path d="M66.5629 54.65L66.4375 54.8708L67.3504 55.3952L67.4758 55.1743L66.5629 54.65Z" fill="white"/>
<path d="M58.4889 54.6195L57.582 55.1805L57.833 55.591L58.7398 55.03L58.4889 54.6195Z" fill="white"/>
<path d="M58.4948 47.6519L57.6165 48.4283L56.9112 49.3386L56.3789 50.3694" fill="#4BBE95"/>
<path d="M56.8456 50.6104L55.9141 50.115L56.4464 49.0977L57.2049 48.107L58.1497 47.2637L58.8417 48.0535L57.9767 48.8299L57.3246 49.6733L56.8456 50.6104Z" fill="white"/>
<path d="M68.6636 50.356L68.118 49.3252L67.3994 48.4016L66.5078 47.6251" fill="#4BBE95"/>
<path d="M68.1978 50.6104L67.6522 49.5796L66.9868 48.7362L66.1484 48.0267L66.8537 47.2235L67.7453 47.9999L68.5438 48.9906L69.1426 50.115L68.1978 50.6104Z" fill="white"/>
<path d="M66.2305 57.8927L67.0156 57.2903L67.6943 56.5808L68.2665 55.7776L68.6923 54.9075" fill="#4BBE95"/>
<path d="M66.5489 58.3211L65.9102 57.4644L66.6953 56.8754L67.3207 56.2194L67.8264 55.4698L68.2123 54.6799L69.1705 55.1485L68.7313 56.0186L68.1325 56.8887L67.4006 57.6652L66.5489 58.3211Z" fill="white"/>
<path d="M56.3555 54.9075L56.8079 55.8044L57.3934 56.621L58.0987 57.3439L58.9105 57.9596" fill="#4BBE95"/>
<path d="M58.6053 58.3881L57.7803 57.7723L57.0084 56.9958L56.3697 56.1123L55.8906 55.1485L56.8355 54.6799L57.2746 55.5768L57.8202 56.3131L58.4723 56.9691L59.2308 57.5313L58.6053 58.3881Z" fill="white"/>
<path d="M31.1133 54.9076L31.5657 55.8447L32.1779 56.688L32.9364 57.4243L33.8014 58.0401" fill="#4BBE95"/>
<path d="M33.4939 58.4685L32.6289 57.8527L31.8039 57.0629L31.1385 56.1526L30.6328 55.1486L31.5776 54.6666L32.0434 55.6037L32.6023 56.3667L33.2943 57.0495L34.0927 57.5983L33.4939 58.4685Z" fill="white"/>
<path d="M32.9442 47.8928L32.199 48.6157L31.5869 49.4457L31.1211 50.356" fill="#4BBE95"/>
<path d="M31.6011 50.6104L30.6562 50.1151L31.122 49.2048L31.7741 48.2945L32.5725 47.5046L33.3044 48.2677L32.5725 48.9906L32.0136 49.767L31.6011 50.6104Z" fill="white"/>
<path d="M43.4076 50.3561L42.9285 49.419L42.3031 48.5756L41.5312 47.8394" fill="#4BBE95"/>
<path d="M42.9418 50.6104L42.4627 49.6734L41.8772 48.8969L41.1719 48.2276L41.9038 47.4512L42.6623 48.1874L43.3543 49.1111L43.8866 50.1151L42.9418 50.6104Z" fill="white"/>
<path d="M41.0508 57.8392L41.8093 57.2502L42.4747 56.5407L43.0203 55.7642L43.4328 54.9075" fill="#4BBE95"/>
<path d="M41.3692 58.2676L40.7305 57.4242L41.489 56.8218L42.0878 56.1793L42.5802 55.4564L42.9528 54.6799L43.9109 55.1485L43.4851 55.9918L42.8996 56.8486L42.1943 57.6116L41.3692 58.2676Z" fill="white"/>
<path d="M18.0299 50.356L17.4976 49.3386L16.7924 48.4149L15.9141 47.6251" fill="#4BBE95"/>
<path d="M17.5641 50.6104L17.0318 49.5796L16.3664 48.7363L15.5547 48.0268L16.26 47.2369L17.1383 48.0134L17.9234 49.004L18.5089 50.1151L17.5641 50.6104Z" fill="white"/>
<path d="M7.46173 47.9464L6.61005 48.8299C1.46008 56.2596 12.4121 63.0868 17.4689 55.9785L18.0278 54.9075" fill="#4BBE95"/>
<path d="M11.9612 59.4858C10.3909 59.4858 8.86055 58.9771 7.63627 58.107C5.02801 56.2462 3.45774 52.4711 6.18576 48.5354L7.07736 47.585L7.83588 48.3212L6.99751 49.2048C4.72194 52.4979 5.97284 55.617 8.24841 57.2368C10.7901 59.044 14.6227 59.0842 17.0579 55.684L17.5769 54.6799L18.5084 55.1753L17.9495 56.2462C16.3127 58.5353 14.0904 59.4858 11.9612 59.4858Z" fill="white"/>
<path d="M60.6133 64.9877L60.6532 65.3357C61.119 67.2099 63.7938 67.3036 64.4059 65.4696L64.4724 65.1215" fill="#4BBE95"/>
<path d="M62.5572 67.3304C62.5173 67.3304 62.4907 67.3304 62.4507 67.3304C61.3196 67.2902 60.4147 66.554 60.1353 65.4696L60.082 65.0546L61.1333 64.9208L61.1732 65.2688C61.3462 65.9516 61.9717 66.2461 62.4907 66.2595C63.0363 66.2862 63.6617 66.0319 63.9013 65.2956L63.9545 65.0145L64.9925 65.2287L64.9259 65.5767C64.5666 66.6744 63.6484 67.3304 62.5572 67.3304Z" fill="white"/>
<path d="M35.7266 65.5366L35.8064 65.8713C36.4185 67.6785 39.0401 67.5982 39.5458 65.7642L39.599 65.4161" fill="#4BBE95"/>
<path d="M37.6439 67.7187C36.566 67.7187 35.6478 67.0761 35.2885 66.0453L35.1953 65.6437L36.2333 65.4161L36.3131 65.7508C36.5527 66.4201 37.1648 66.6611 37.6971 66.6477C38.2028 66.6343 38.8282 66.3532 39.0278 65.6169L39.0678 65.3358L40.1191 65.4965L40.0658 65.8445C39.7598 66.969 38.8549 67.6785 37.737 67.7187C37.7104 67.7187 37.6705 67.7187 37.6439 67.7187Z" fill="white"/>
<path d="M33.6231 55.2929L32.6055 55.5585L35.2118 65.666L36.2295 65.4005L33.6231 55.2929Z" fill="white"/>
<path d="M41.0394 55.0818L39.0625 65.3182L40.0944 65.5199L42.0713 55.2835L41.0394 55.0818Z" fill="white"/>
<path d="M61.7695 64.961L61.7828 65.1082C61.9958 65.8847 63.1269 65.8713 63.2999 65.0815L63.3132 64.9342" fill="#4BBE95"/>
<path d="M62.5564 66.2194C61.9576 66.2194 61.4519 65.8312 61.2922 65.2555L61.2656 65.0413L62.3169 64.9075L62.3302 65.0547C62.3568 65.1484 62.4899 65.1618 62.5698 65.1618C62.6496 65.1618 62.7694 65.135 62.8093 64.9744V64.9075L63.8606 65.0012L63.8473 65.1484C63.7009 65.8178 63.1952 66.2194 62.5831 66.2328C62.5698 66.2194 62.5564 66.2194 62.5564 66.2194Z" fill="white"/>
<path d="M66.3781 55.0012L63.9609 65.0043L64.9825 65.2541L67.3996 55.251L66.3781 55.0012Z" fill="white"/>
<path d="M58.6896 54.7798L57.668 55.0292L60.0998 65.1113L61.1215 64.862L58.6896 54.7798Z" fill="white"/>
<path d="M65.6417 39.7173L64.5938 39.9056L66.4687 50.4612L67.5167 50.2728L65.6417 39.7173Z" fill="white"/>
<path d="M59.2304 39.7838L57.543 50.2769L58.5939 50.4479L60.2813 39.9549L59.2304 39.7838Z" fill="white"/>
<path d="M90.7329 37.1056L89.7031 37.3188L92.7829 52.3718L93.8127 52.1586L90.7329 37.1056Z" fill="white"/>
<path d="M8.73404 37.3773L6.11719 52.5721L7.15302 52.7527L9.76988 37.5578L8.73404 37.3773Z" fill="white"/>
<path d="M40.7577 39.7378L39.707 39.9106L41.421 50.4533L42.4716 50.2805L40.7577 39.7378Z" fill="white"/>
<path d="M33.8478 39.7278L31.9922 50.2733L33.0405 50.46L34.8961 39.9144L33.8478 39.7278Z" fill="white"/>
<path d="M6.63672 52.6586L6.75649 53.5823C7.72793 57.6652 13.0376 58.8165 15.7789 55.6706L16.3112 54.9075" fill="#4BBE95"/>
<path d="M11.7995 57.9999C11.3204 57.9999 10.8413 57.9464 10.3623 57.8259C8.27299 57.3038 6.72933 55.7643 6.23695 53.7028L6.11719 52.7255L7.16847 52.5917L7.28824 53.502C7.67416 55.1084 8.92505 56.3667 10.6284 56.7817C12.385 57.2235 14.2081 56.6479 15.3791 55.3092L15.8848 54.5863L16.7365 55.2155L16.2042 55.9785C15.0598 57.2904 13.4629 57.9999 11.7995 57.9999Z" fill="white"/>
<path d="M83.8086 54.9076L84.3808 55.6439C87.2419 58.6157 92.4318 57.277 93.2302 53.1807L93.3101 52.2704" fill="#4BBE95"/>
<path d="M88.1602 57.7857C86.6032 57.7857 85.0995 57.1699 83.995 56.0052L83.3828 55.2422L84.2079 54.5862L84.7801 55.3091C85.9778 56.5541 87.8009 57.0226 89.5308 56.5139C91.1809 56.0186 92.3653 54.7335 92.698 53.0735L92.7645 52.2168L93.8158 52.2971L93.7493 53.2074C93.3368 55.3225 91.8729 56.9155 89.8369 57.518C89.2913 57.7054 88.7191 57.7857 88.1602 57.7857Z" fill="white"/>
<path d="M85.0579 39.7171L82.9453 50.2549L83.9759 50.464L86.0885 39.9262L85.0579 39.7171Z" fill="white"/>
<path d="M48.6211 60.7976L48.8872 59.8606L49.0469 58.8699L49.1002 57.8526L49.0469 56.8352L48.8872 55.8445L48.6211 54.9075" fill="#4BBE95"/>
<path d="M49.1285 60.9449L48.1172 60.6504L48.3833 59.7134L48.5297 58.7897L48.5829 57.8258L48.5164 56.862L48.37 55.9249L48.1172 55.0548L49.1285 54.7603L49.3947 55.6973L49.5677 56.7415L49.6342 57.8258L49.581 58.9102L49.408 59.9543L49.1285 60.9449Z" fill="white"/>
<path d="M51.6142 54.8807L51.348 55.8178L51.1884 56.8084L51.1484 57.8392L51.215 58.8566L51.3747 59.8472L51.6541 60.7709" fill="#4BBE95"/>
<path d="M51.1495 60.9182L50.87 59.9945L50.6837 58.9504L50.6172 57.866L50.6704 56.7817L50.8301 55.7375L51.0963 54.7335L52.1209 55.028L51.8548 55.9651L51.7217 56.8888L51.6685 57.866L51.735 58.8165L51.908 59.7536L52.1608 60.6103L51.1495 60.9182Z" fill="white"/>
<path d="M14.7472 39.7098L13.707 39.9379L15.9916 50.4805L17.0318 50.2524L14.7472 39.7098Z" fill="white"/>
<path d="M48.625 60.7978L48.6516 61.0789C49.0375 62.6318 51.2732 62.605 51.6325 61.0521L51.6591 60.771" fill="#4BBE95"/>
<path d="M50.1415 62.7656C49.1701 62.7656 48.3716 62.1364 48.1454 61.1993L48.1055 60.8513L49.1568 60.7308L49.1834 61.0119C49.3031 61.4938 49.7556 61.6946 50.1415 61.6946C50.1415 61.6946 50.1415 61.6946 50.1548 61.6946C50.5407 61.6946 50.9932 61.4938 51.1263 60.9316L51.1396 60.7174L52.1775 60.8111L52.1509 61.0922C51.9247 62.1096 51.1263 62.7522 50.1415 62.7522C50.1415 62.7656 50.1415 62.7656 50.1415 62.7656Z" fill="white"/>
<path d="M48.5142 35.4297L48.767 34.4927L48.9267 33.502L48.9666 32.4846L48.9134 31.4539L48.7271 30.4632L48.4609 29.5396" fill="#4BBE95"/>
<path d="M49.0216 35.5636L48.0103 35.2825L48.2631 34.3454L48.4095 33.4217L48.4494 32.4579L48.3829 31.4941L48.2099 30.557L47.957 29.7002L48.9551 29.3923L49.2345 30.316L49.4342 31.3602L49.5007 32.4445L49.4608 33.5288L49.3011 34.573L49.0216 35.5636Z" fill="white"/>
<path d="M51.4947 29.5396L51.2285 30.4632L51.0689 31.4539L51.0156 32.4713L51.0689 33.502L51.2419 34.4927L51.508 35.4297" fill="#4BBE95"/>
<path d="M51.0034 35.577L50.7372 34.6399L50.5509 33.5824L50.4844 32.5114L50.5376 31.4271L50.7106 30.383L50.9901 29.3923L52.0014 29.6868L51.7353 30.6105L51.5889 31.5476L51.5357 32.5114L51.6022 33.4619L51.7619 34.399L52.0147 35.2825L51.0034 35.577Z" fill="white"/>
<path d="M51.495 29.5396L51.4684 29.2719C51.1091 27.6922 48.8335 27.6922 48.4876 29.2719L48.4609 29.5396" fill="#4BBE95"/>
<path d="M48.981 29.5931L47.9297 29.486L47.9563 29.2183C48.1825 28.2009 48.9943 27.5583 49.979 27.5583C50.9638 27.5583 51.7755 28.2009 51.9884 29.1514L52.0284 29.486L50.9771 29.5931L50.9505 29.3254C50.8307 28.8167 50.3783 28.6159 49.979 28.6159C49.5931 28.6159 49.1274 28.8167 49.0076 29.3923L48.981 29.5931Z" fill="white"/>
<path d="M87.9992 34.7471H51.457V35.8046H87.9992V34.7471Z" fill="white"/>
<path d="M48.5703 34.7605H11.6289V35.8181H48.5703V34.7605Z" fill="white"/>
<path d="M48.6248 54.3721H11.75V55.4296H48.6248V54.3721Z" fill="white"/>
<path d="M88.121 54.3721H51.6055V55.443H88.121V54.3721Z" fill="white"/>
<path d="M62.3146 60.5166H61.25V64.961H62.3146V60.5166Z" fill="white"/>
<path d="M63.8482 60.5835H62.7969V65.0145H63.8482V60.5835Z" fill="white"/>
<path d="M63.3249 60.5835L63.3116 60.4497C63.1652 59.6331 62.0075 59.5929 61.7946 60.3827L61.7812 60.5166" fill="#4BBE95"/>
<path d="M62.7937 60.6237L62.7804 60.4898C62.7537 60.3827 62.634 60.3559 62.5541 60.3559C62.5009 60.3693 62.3412 60.3693 62.3013 60.5433V60.6103L61.25 60.4496L61.2633 60.3158C61.4363 59.6464 61.9819 59.2582 62.6074 59.285C63.2328 59.3118 63.7252 59.7401 63.8316 60.3559L63.8449 60.5433L62.7937 60.6237Z" fill="white"/>
<path d="M36.875 64.8807L36.8883 65.0279C37.1012 65.8177 38.219 65.8043 38.4054 65.0011L38.4187 64.8539" fill="#4BBE95"/>
<path d="M37.6463 66.139C37.0475 66.139 36.5285 65.7508 36.3821 65.1618L36.3555 64.9476L37.3934 64.8271L37.4068 64.9744C37.4334 65.0681 37.5797 65.0815 37.6463 65.0815C37.6862 65.0948 37.8592 65.0547 37.8991 64.894V64.8137L38.9504 64.9208L38.9371 65.0681C38.7907 65.7374 38.285 66.139 37.6729 66.1524C37.6596 66.139 37.6463 66.139 37.6463 66.139Z" fill="white"/>
<path d="M36.875 64.8941L36.8883 65.0413C37.1012 65.8312 38.2324 65.8044 38.4054 65.0146L38.4187 64.8673" fill="#4BBE95"/>
<path d="M37.6463 66.139C37.0475 66.139 36.5418 65.7508 36.3821 65.1618L36.3555 64.9476L37.3934 64.8271L37.4068 64.9744C37.4334 65.0681 37.5797 65.0815 37.6463 65.0815C37.7261 65.0815 37.8459 65.0547 37.8858 64.894V64.8137L38.9371 64.9208L38.9238 65.0681C38.7774 65.7374 38.2717 66.139 37.6596 66.1524C37.6596 66.139 37.6463 66.139 37.6463 66.139Z" fill="white"/>
<path d="M37.3911 60.4497H36.3398V64.8807H37.3911V60.4497Z" fill="white"/>
<path d="M38.9341 60.5166H37.8828V64.9476H38.9341V60.5166Z" fill="white"/>
<path d="M38.4171 60.5166V60.3828C38.2707 59.5662 37.1129 59.526 36.9 60.3158L36.8867 60.4497" fill="#4BBE95"/>
<path d="M37.8858 60.53V60.3961C37.8592 60.3024 37.7394 60.2756 37.6596 60.2622C37.5931 60.2622 37.4467 60.2756 37.4068 60.4496V60.5166L36.3555 60.3693L36.3688 60.2355C36.5418 59.5661 37.0208 59.1779 37.6995 59.2047C38.325 59.2314 38.8173 59.6598 38.9238 60.2756L38.9371 60.4764L37.8858 60.53Z" fill="white"/>
</g>
<defs>
<clipPath id="clip0_2924_30618">
<rect width="98.4615" height="97.5895" fill="white" transform="translate(0.769531 0.570679)"/>
</clipPath>
</defs>
</svg>
