<svg width="124" height="86" viewBox="0 0 124 86" fill="none" xmlns="http://www.w3.org/2000/svg">
<g clip-path="url(#clip0_2895_28883)">
<path d="M37.7544 7.5934L101.52 30.7603L101.294 77.7422L37.5323 54.5753L37.7544 7.5934ZM34.9478 3.5929L34.6934 56.5276L104.101 81.7467L104.355 28.8121L34.9478 3.5929Z" fill="white"/>
<path d="M103.278 28.9921C103.286 43.0779 103.298 57.1597 103.306 71.2454C109.965 73.6657 116.624 76.086 123.284 78.5023L123.538 25.5677L54.1267 0.348511L54.0742 11.1139L103.278 28.9921Z" fill="white"/>
<path d="M81.0423 85.6432L11.6351 60.424L11.8895 7.48938L81.2967 32.7086L81.0423 85.6432ZM0.460938 22.4833C0.767852 22.1152 1.07881 21.7472 1.38572 21.3831C1.7411 20.9631 4.9314 17.3786 8.04901 21.3511C9.15955 22.7673 10.3145 23.5434 11.4331 23.8794C12.051 24.0635 12.5275 24.0835 12.8304 24.0835C14.7931 24.0955 16.368 22.9433 17.2766 22.1072C17.2807 20.639 17.2847 19.1669 17.2888 17.6987L16.364 18.7988C16.0086 19.2189 12.8183 22.8033 9.70069 18.8308C6.29232 14.4903 2.49223 16.1665 0.460938 18.0867M0.460938 38.5533C0.767852 38.1852 1.07881 37.8172 1.38572 37.4532C1.7411 37.0331 4.9314 33.4486 8.04901 37.4211C9.15955 38.8373 10.3145 39.6134 11.4331 39.9495C12.051 40.1335 12.5275 40.1535 12.8304 40.1535C14.7931 40.1655 16.368 39.0133 17.2766 38.1772C17.2807 36.7091 17.2847 35.2369 17.2888 33.7687L16.364 34.8688C16.0086 35.2889 12.8183 38.8733 9.70069 34.9008C6.29232 30.5603 2.49223 32.2365 0.460938 34.1527M0.460938 54.7233C0.767852 54.3553 1.07881 53.9872 1.38572 53.6232C1.7411 53.2031 4.9314 49.6187 8.04901 53.5912C9.15955 55.0074 10.3145 55.7835 11.4331 56.1195C12.051 56.3035 12.5275 56.3235 12.8304 56.3235C14.7931 56.3355 16.368 55.1834 17.2766 54.3473C17.2807 52.8791 17.2847 51.4069 17.2888 49.9387L16.364 51.0389C16.0086 51.4589 12.8183 55.0434 9.70069 51.0709C6.29232 46.7303 2.49627 48.4065 0.460938 50.3228M30.5548 20.679C26.1328 18.0387 21.7108 15.3984 17.2847 12.758C17.2847 14.0182 17.2847 15.2784 17.2847 16.5385C19.5018 17.8387 21.7188 19.1428 23.9359 20.443C21.7188 21.5592 19.5018 22.6753 17.2847 23.7914C17.2847 24.9836 17.2847 26.1757 17.2847 27.3679C21.7108 25.1356 26.1328 22.9073 30.5548 20.679ZM30.5548 36.7491C26.1328 34.1087 21.7108 31.4684 17.2847 28.8281C17.2847 30.0882 17.2847 31.3484 17.2847 32.6085C19.5018 33.9087 21.7188 35.2129 23.9359 36.513C21.7188 37.6292 19.5018 38.7453 17.2847 39.8615C17.2847 41.0536 17.2847 42.2458 17.2847 43.4379C21.7108 41.2056 26.1328 38.9773 30.5548 36.7491ZM30.5548 52.9191C26.1328 50.2788 21.7108 47.6384 17.2847 44.9981C17.2847 46.2583 17.2847 47.5184 17.2847 48.7786C19.5018 50.0787 21.7188 51.3829 23.9359 52.6831C21.7188 53.7992 19.5018 54.9154 17.2847 56.0315C17.2847 57.2236 17.2847 58.4158 17.2847 59.6079C21.7108 57.3757 26.1328 55.1474 30.5548 52.9191Z" fill="white"/>
<path d="M44.9393 39.2951V58.157C44.9393 58.6064 44.7187 58.8718 44.4274 58.7648L43.6699 58.4823C42.9789 58.2255 42.4254 57.1512 42.4254 56.0427V48.9764L36.8731 46.9177V53.9712C36.8731 55.0797 36.3195 55.7345 35.6286 55.4777L34.8752 55.1953C34.588 55.0883 34.3633 54.6603 34.3633 54.2109V35.4174C34.3633 32.1689 36.049 30.1573 38.1384 30.9191L41.1601 32.0234C43.2495 32.7852 44.9393 36.038 44.9393 39.2951ZM42.4295 45.0602V38.3749C42.4295 37.3006 41.851 36.1878 41.1642 35.9353L38.1425 34.8268C37.4516 34.5742 36.8772 35.2633 36.8772 36.3333V43.0058L42.4295 45.0602Z" fill="#4BBE95" stroke="#4BBE95" stroke-width="2" stroke-miterlimit="10"/>
<path d="M51.787 61.6109C49.6976 60.832 48.0078 57.5621 48.0078 54.2964V40.5148C48.0078 37.2535 49.6976 35.229 51.787 35.9909L54.8088 37.0951C56.8982 37.857 58.588 41.1226 58.588 44.3968V44.782C58.588 45.2357 58.3674 45.501 58.0761 45.394L56.5652 44.8376C56.2988 44.7392 56.0782 44.3112 56.0782 43.8575V43.4766C56.0782 42.398 55.4997 41.281 54.8129 41.0284L51.7912 39.9199C51.1003 39.6674 50.5259 40.3608 50.5259 41.435V55.2295C50.5259 56.308 51.1045 57.4251 51.7912 57.6819L54.8129 58.8075C55.5039 59.0643 56.0782 58.3753 56.0782 57.2967V52.1778L54.301 51.5187C53.6101 51.2619 53.0565 50.1534 53.0565 49.0748V47.8935C53.0565 47.4399 53.2771 47.1745 53.5476 47.2729L57.3269 48.6639C58.0386 48.925 58.5922 50.0378 58.5922 51.1164V58.2255C58.5922 61.4997 56.9023 63.5155 54.8129 62.7366L51.787 61.6109Z" fill="#4BBE95" stroke="#4BBE95" stroke-width="2" stroke-miterlimit="10"/>
<path d="M74.7793 45.2786V69.4862C74.7793 69.9399 74.5337 70.201 74.2673 70.1026L73.5098 69.8201C72.8189 69.5633 72.2445 68.4719 72.2445 67.3505V52.3363L69.9761 58.3583C69.7764 58.9489 69.331 59.2057 68.8648 59.0302L67.5538 58.5466C67.0876 58.3754 66.6631 57.7976 66.4425 57.0529L64.1741 49.3703V64.346C64.1741 65.4631 63.6205 66.1265 62.9296 65.8697L62.1721 65.5872C61.8849 65.4802 61.6602 65.0479 61.6602 64.5942V40.4936C61.6602 40.0399 61.8807 39.7745 62.1721 39.8772L63.35 40.3052C63.8411 40.485 64.2615 41.0585 64.4821 41.799L68.2239 54.4934L71.9573 44.5296C72.1779 43.9475 72.6025 43.6779 73.0686 43.8491L74.2673 44.2856C74.5379 44.3841 74.7793 44.8249 74.7793 45.2786Z" fill="#4BBE95" stroke="#4BBE95" stroke-width="2" stroke-miterlimit="10"/>
</g>
<defs>
<clipPath id="clip0_2895_28883">
<rect width="123.077" height="85.2947" fill="white" transform="translate(0.460938 0.348511)"/>
</clipPath>
</defs>
</svg>
