<svg width="100" height="100" viewBox="0 0 100 100" fill="none" xmlns="http://www.w3.org/2000/svg">
<path d="M2.28516 49.9745C2.28516 23.2432 23.6453 1.57214 50.0064 1.57214C76.3541 1.57214 97.7142 23.2432 97.7142 49.9745C97.7142 76.7057 76.3541 98.3768 50.0064 98.3768C23.6453 98.3768 2.28516 76.7057 2.28516 49.9745Z" fill="#4BBE95"/>
<path d="M50.007 99.9286C22.8612 99.9286 0.769531 77.5153 0.769531 49.9744C0.769531 22.4336 22.8612 0.0338135 50.007 0.0338135C77.1527 0.0338135 99.2444 22.4336 99.2444 49.9744C99.2311 77.5153 77.1527 99.9286 50.007 99.9286ZM50.007 3.1239C24.537 3.1239 3.81528 24.1473 3.81528 49.9879C3.81528 75.8286 24.537 96.852 50.007 96.852C75.4769 96.852 96.1986 75.8286 96.1986 49.9879C96.1853 24.1473 75.4636 3.1239 50.007 3.1239Z" fill="white"/>
<path d="M12.1162 60.3242C11.4778 60.3242 10.8128 60.1893 10.3207 59.2717C8.76453 56.4515 7.14191 53.6987 5.55918 51.027C5.18677 50.4063 5.17347 49.826 5.51928 49.2188L5.78528 48.76C7.23501 46.2502 8.72463 43.6458 10.1478 41.0685C10.7197 40.016 11.5443 39.8676 12.2359 39.8811C14.8161 39.8946 17.8752 39.8946 21.0007 39.8406C22.2776 39.8406 22.8628 40.5827 23.182 41.163C23.6342 41.9726 24.0997 42.7822 24.5652 43.5919C25.0972 44.5095 25.6292 45.4405 26.1346 46.3716C26.2676 46.628 26.3341 46.682 26.6799 46.6685C30.9227 46.6415 35.1655 46.628 39.4082 46.628C39.7541 46.628 39.927 46.5335 40.193 46.0343C40.6452 45.1841 41.124 44.3475 41.6028 43.5109C42.1082 42.6203 42.6136 41.7297 43.1057 40.8256C43.6111 39.8946 44.3559 39.7866 44.8746 39.7866C47.9204 39.7866 50.9794 39.7731 54.0252 39.7461C55.1956 39.7057 55.701 40.4343 55.9936 40.9606C56.4192 41.7432 56.8714 42.5124 57.3236 43.295C57.869 44.2396 58.4276 45.1976 58.9463 46.1557C59.1325 46.5065 59.2788 46.5605 59.5581 46.547C63.8009 46.52 68.0436 46.5065 72.2864 46.5065C72.6322 46.5065 72.7785 46.4391 73.0046 46.0208C73.4568 45.1841 73.9356 44.3475 74.4144 43.5244C74.9198 42.6338 75.4386 41.7432 75.9174 40.8256C76.343 40.016 76.9149 39.6652 77.7528 39.6652C80.6788 39.6652 83.6182 39.6517 86.5442 39.6382H86.9166C87.2358 39.6382 87.8344 39.6382 88.3132 40.0565C88.4462 40.1779 88.5792 40.3264 88.6723 40.5153L91.2392 45.1707C91.8111 45.8588 92.2766 46.7494 92.7421 47.5995C92.9682 48.0178 93.1943 48.4362 93.4337 48.841C93.6864 49.3267 93.8594 50.0554 93.3406 50.973L91.6648 53.9281C90.6806 55.6553 89.6964 57.3961 88.7255 59.1368C88.26 59.9599 87.5816 60.0678 87.0363 60.0678C83.9773 60.0678 80.9315 60.0813 77.8858 60.1083H77.8725C77.0213 60.1083 76.4494 59.7575 76.0371 58.9883C75.4784 57.9358 74.8799 56.8968 74.2814 55.8578C73.8425 55.1021 73.4036 54.3464 72.9913 53.5908C72.8184 53.2669 72.6987 53.1995 72.3662 53.1995C68.1234 53.24 63.8807 53.2534 59.6379 53.2534C59.2522 53.2534 59.1857 53.2939 59.0261 53.6043C58.4276 54.7648 57.7759 55.8982 57.1241 57.0317C56.7384 57.7064 56.3527 58.3811 55.9803 59.0558C55.7143 59.5416 55.2222 60.2028 54.1316 60.2028H54.1183C51.0725 60.1893 48.0268 60.2028 44.9677 60.2298C44.1697 60.2163 43.5712 59.9059 43.1456 59.0963C42.4939 57.8683 41.8023 56.6674 41.1107 55.4664C40.7915 54.9132 40.4723 54.3599 40.1531 53.8067C39.927 53.4019 39.7275 53.2804 39.3018 53.3074C34.8596 53.3749 30.4971 53.3614 26.8262 53.3614C26.374 53.3614 26.2809 53.4424 26.1213 53.7392C25.2169 55.4799 24.2327 57.1936 23.2884 58.8669L23.2086 59.0018C22.8495 59.636 22.2377 60.3512 21.0539 60.3377C18.5269 60.2972 15.9467 60.3107 13.4462 60.3377L12.1694 60.3512C12.1561 60.3242 12.1295 60.3242 12.1162 60.3242ZM12.2093 41.4329C11.7571 41.4329 11.6507 41.5138 11.4778 41.8242C10.0547 44.4285 8.55173 47.0328 7.10201 49.5426L6.836 50.0014C6.7961 50.0824 6.7961 50.1229 6.8626 50.2443C8.44533 52.9296 10.0813 55.6958 11.6507 58.5295C11.797 58.7859 11.8103 58.7994 12.1561 58.7994L13.4329 58.7859C15.9334 58.7589 18.5269 58.7319 21.0805 58.7859C21.4662 58.7859 21.6258 58.678 21.8919 58.2192L21.9717 58.0842C22.916 56.438 23.8869 54.7243 24.778 53.0106C25.3233 51.958 26.1213 51.8096 26.8262 51.8096C30.4971 51.8231 34.8463 51.8231 39.2885 51.7556C40.2861 51.7691 40.991 52.147 41.4831 53.0375C41.789 53.5908 42.1082 54.1305 42.4274 54.6838C43.1323 55.8982 43.8239 57.1127 44.4889 58.3541C44.6618 58.678 44.715 58.678 44.9544 58.678C48.0135 58.651 51.0725 58.624 54.1316 58.651C54.3976 58.6375 54.4774 58.6105 54.6503 58.3001C55.0227 57.612 55.4217 56.9373 55.8074 56.2491C56.4458 55.1291 57.0842 54.0091 57.6694 52.8756C58.2015 51.8366 58.9995 51.7017 59.6246 51.7017C63.8674 51.7017 68.1101 51.6882 72.3396 51.6477C72.3529 51.6477 72.3529 51.6477 72.3662 51.6477C73.244 51.6477 73.8691 52.0255 74.308 52.8351C74.7203 53.5908 75.1592 54.333 75.5849 55.0751C76.1967 56.1276 76.7952 57.1802 77.3671 58.2462C77.5267 58.543 77.5533 58.57 77.8725 58.5565C80.9182 58.5295 83.9773 58.516 87.0363 58.516H87.0496C87.3289 58.516 87.3289 58.5025 87.4087 58.3676C88.3797 56.6269 89.3639 54.8862 90.3614 53.1455L92.0372 50.2038C92.25 49.826 92.1702 49.6911 92.1303 49.6101C91.8909 49.2188 91.6515 48.7735 91.4254 48.3417C90.9732 47.5186 90.5609 46.7359 90.0023 46.0343L87.3689 41.2709C87.3289 41.217 87.2491 41.1765 86.9299 41.1765H86.5708C83.6315 41.19 80.6921 41.2035 77.7661 41.2035C77.5267 41.2035 77.4469 41.217 77.2607 41.5543C76.7686 42.4719 76.2499 43.3895 75.7312 44.2936C75.2656 45.1167 74.7868 45.9263 74.3479 46.7629C73.8824 47.64 73.2307 48.0583 72.2997 48.0583C68.0702 48.0583 63.8142 48.0718 59.5847 48.0988C59.5847 48.0988 59.5714 48.0988 59.5581 48.0988C58.6803 48.0988 58.0685 47.721 57.6163 46.8979C57.0975 45.9398 56.5655 45.0087 56.0202 44.0776C55.568 43.295 55.1158 42.5124 54.6769 41.7162C54.4774 41.3519 54.3843 41.3114 54.0518 41.2979C50.9927 41.3249 47.9337 41.3384 44.8879 41.3384C44.6086 41.3384 44.5554 41.3789 44.449 41.5813C43.9569 42.4989 43.4382 43.403 42.9328 44.307C42.454 45.1302 41.9885 45.9668 41.5363 46.8034C41.1905 47.4511 40.6319 48.1933 39.4082 48.1933C38.9028 48.1798 38.3442 48.1933 37.7989 48.1933C34.0882 48.1933 30.3774 48.2068 26.6799 48.2337C26.1346 48.2337 25.3366 48.1258 24.7913 47.1407C24.2859 46.2097 23.7672 45.3056 23.2352 44.4015C22.7697 43.5919 22.2909 42.7687 21.8387 41.9456C21.5992 41.5138 21.3864 41.3924 21.014 41.4194C17.8885 41.4733 14.8161 41.4733 12.2226 41.4599C12.2226 41.4329 12.2093 41.4329 12.2093 41.4329Z" fill="white"/>
<mask id="mask0_2924_30488" style="mask-type:luminance" maskUnits="userSpaceOnUse" x="5" y="39" width="89" height="22">
<path d="M12.1162 60.3242C11.4778 60.3242 10.8128 60.1893 10.3207 59.2717C8.76453 56.4515 7.14191 53.6987 5.55918 51.027C5.18677 50.4063 5.17347 49.826 5.51928 49.2188L5.78528 48.76C7.23501 46.2502 8.72463 43.6458 10.1478 41.0685C10.7197 40.016 11.5443 39.8676 12.2359 39.8811C14.8161 39.8946 17.8752 39.8946 21.0007 39.8406C22.2776 39.8406 22.8628 40.5827 23.182 41.163C23.6342 41.9726 24.0997 42.7822 24.5652 43.5919C25.0972 44.5095 25.6292 45.4405 26.1346 46.3716C26.2676 46.628 26.3341 46.682 26.6799 46.6685C30.9227 46.6415 35.1655 46.628 39.4082 46.628C39.7541 46.628 39.927 46.5335 40.193 46.0343C40.6452 45.1841 41.124 44.3475 41.6028 43.5109C42.1082 42.6203 42.6136 41.7297 43.1057 40.8256C43.6111 39.8946 44.3559 39.7866 44.8746 39.7866C47.9204 39.7866 50.9794 39.7731 54.0252 39.7461C55.1956 39.7057 55.701 40.4343 55.9936 40.9606C56.4192 41.7432 56.8714 42.5124 57.3236 43.295C57.869 44.2396 58.4276 45.1976 58.9463 46.1557C59.1325 46.5065 59.2788 46.5605 59.5581 46.547C63.8009 46.52 68.0436 46.5065 72.2864 46.5065C72.6322 46.5065 72.7785 46.4391 73.0046 46.0208C73.4568 45.1841 73.9356 44.3475 74.4144 43.5244C74.9198 42.6338 75.4386 41.7432 75.9174 40.8256C76.343 40.016 76.9149 39.6652 77.7528 39.6652C80.6788 39.6652 83.6182 39.6517 86.5442 39.6382H86.9166C87.2358 39.6382 87.8344 39.6382 88.3132 40.0565C88.4462 40.1779 88.5792 40.3264 88.6723 40.5153L91.2392 45.1707C91.8111 45.8588 92.2766 46.7494 92.7421 47.5995C92.9682 48.0178 93.1943 48.4362 93.4337 48.841C93.6864 49.3267 93.8594 50.0554 93.3406 50.973L91.6648 53.9281C90.6806 55.6553 89.6964 57.3961 88.7255 59.1368C88.26 59.9599 87.5816 60.0678 87.0363 60.0678C83.9773 60.0678 80.9315 60.0813 77.8858 60.1083H77.8725C77.0213 60.1083 76.4494 59.7575 76.0371 58.9883C75.4784 57.9358 74.8799 56.8968 74.2814 55.8578C73.8425 55.1021 73.4036 54.3464 72.9913 53.5908C72.8184 53.2669 72.6987 53.1995 72.3662 53.1995C68.1234 53.24 63.8807 53.2534 59.6379 53.2534C59.2522 53.2534 59.1857 53.2939 59.0261 53.6043C58.4276 54.7648 57.7759 55.8982 57.1241 57.0317C56.7384 57.7064 56.3527 58.3811 55.9803 59.0558C55.7143 59.5416 55.2222 60.2028 54.1316 60.2028H54.1183C51.0725 60.1893 48.0268 60.2028 44.9677 60.2298C44.1697 60.2163 43.5712 59.9059 43.1456 59.0963C42.4939 57.8683 41.8023 56.6674 41.1107 55.4664C40.7915 54.9132 40.4723 54.3599 40.1531 53.8067C39.927 53.4019 39.7275 53.2804 39.3018 53.3074C34.8596 53.3749 30.4971 53.3614 26.8262 53.3614C26.374 53.3614 26.2809 53.4424 26.1213 53.7392C25.2169 55.4799 24.2327 57.1936 23.2884 58.8669L23.2086 59.0018C22.8495 59.636 22.2377 60.3512 21.0539 60.3377C18.5269 60.2972 15.9467 60.3107 13.4462 60.3377L12.1694 60.3512C12.1561 60.3242 12.1295 60.3242 12.1162 60.3242ZM12.2093 41.4329C11.7571 41.4329 11.6507 41.5138 11.4778 41.8242C10.0547 44.4285 8.55173 47.0328 7.10201 49.5426L6.836 50.0014C6.7961 50.0824 6.7961 50.1229 6.8626 50.2443C8.44533 52.9296 10.0813 55.6958 11.6507 58.5295C11.797 58.7859 11.8103 58.7994 12.1561 58.7994L13.4329 58.7859C15.9334 58.7589 18.5269 58.7319 21.0805 58.7859C21.4662 58.7859 21.6258 58.678 21.8919 58.2192L21.9717 58.0842C22.916 56.438 23.8869 54.7243 24.778 53.0106C25.3233 51.958 26.1213 51.8096 26.8262 51.8096C30.4971 51.8231 34.8463 51.8231 39.2885 51.7556C40.2861 51.7691 40.991 52.147 41.4831 53.0375C41.789 53.5908 42.1082 54.1305 42.4274 54.6838C43.1323 55.8982 43.8239 57.1127 44.4889 58.3541C44.6618 58.678 44.715 58.678 44.9544 58.678C48.0135 58.651 51.0725 58.624 54.1316 58.651C54.3976 58.6375 54.4774 58.6105 54.6503 58.3001C55.0227 57.612 55.4217 56.9373 55.8074 56.2491C56.4458 55.1291 57.0842 54.0091 57.6694 52.8756C58.2015 51.8366 58.9995 51.7017 59.6246 51.7017C63.8674 51.7017 68.1101 51.6882 72.3396 51.6477C72.3529 51.6477 72.3529 51.6477 72.3662 51.6477C73.244 51.6477 73.8691 52.0255 74.308 52.8351C74.7203 53.5908 75.1592 54.333 75.5849 55.0751C76.1967 56.1276 76.7952 57.1802 77.3671 58.2462C77.5267 58.543 77.5533 58.57 77.8725 58.5565C80.9182 58.5295 83.9773 58.516 87.0363 58.516H87.0496C87.3289 58.516 87.3289 58.5025 87.4087 58.3676C88.3797 56.6269 89.3639 54.8862 90.3614 53.1455L92.0372 50.2038C92.25 49.826 92.1702 49.6911 92.1303 49.6101C91.8909 49.2188 91.6515 48.7735 91.4254 48.3417C90.9732 47.5186 90.5609 46.7359 90.0023 46.0343L87.3689 41.2709C87.3289 41.217 87.2491 41.1765 86.9299 41.1765H86.5708C83.6315 41.19 80.6921 41.2035 77.7661 41.2035C77.5267 41.2035 77.4469 41.217 77.2607 41.5543C76.7686 42.4719 76.2499 43.3895 75.7312 44.2936C75.2656 45.1167 74.7868 45.9263 74.3479 46.7629C73.8824 47.64 73.2307 48.0583 72.2997 48.0583C68.0702 48.0583 63.8142 48.0718 59.5847 48.0988C59.5847 48.0988 59.5714 48.0988 59.5581 48.0988C58.6803 48.0988 58.0685 47.721 57.6163 46.8979C57.0975 45.9398 56.5655 45.0087 56.0202 44.0776C55.568 43.295 55.1158 42.5124 54.6769 41.7162C54.4774 41.3519 54.3843 41.3114 54.0518 41.2979C50.9927 41.3249 47.9337 41.3384 44.8879 41.3384C44.6086 41.3384 44.5554 41.3789 44.449 41.5813C43.9569 42.4989 43.4382 43.403 42.9328 44.307C42.454 45.1302 41.9885 45.9668 41.5363 46.8034C41.1905 47.4511 40.6319 48.1933 39.4082 48.1933C38.9028 48.1798 38.3442 48.1933 37.7989 48.1933C34.0882 48.1933 30.3774 48.2068 26.6799 48.2337C26.1346 48.2337 25.3366 48.1258 24.7913 47.1407C24.2859 46.2097 23.7672 45.3056 23.2352 44.4015C22.7697 43.5919 22.2909 42.7687 21.8387 41.9456C21.5992 41.5138 21.3864 41.3924 21.014 41.4194C17.8885 41.4733 14.8161 41.4733 12.2226 41.4599C12.2226 41.4329 12.2093 41.4329 12.2093 41.4329Z" fill="white"/>
</mask>
<g mask="url(#mask0_2924_30488)">
<path d="M1.5161 98.7276L1.18359 1.58557L97.4905 1.26172L97.8097 98.4037L1.5161 98.7276ZM2.71312 3.12387L3.03232 97.1893L96.2935 96.8654L95.9876 2.81351L2.71312 3.12387Z" fill="white"/>
</g>
<path d="M28.6594 45.5215C27.7417 45.5215 27.0501 45.1032 26.5446 44.2261C25.6801 42.7283 24.8156 41.2305 23.9511 39.7192L22.0492 36.3997C21.6236 35.6576 21.6236 34.8884 22.0226 34.1732L26.4914 26.2119C26.9304 25.4292 27.5821 25.0514 28.4865 25.0514C28.4865 25.0514 28.4865 25.0514 28.4998 25.0514C31.5455 25.0649 34.5913 25.0514 37.637 25.0244C38.4483 25.0244 38.9405 25.3348 39.3129 26.0095C39.7784 26.8596 40.2705 27.6827 40.7626 28.5193C41.2813 29.3964 41.8 30.2735 42.2921 31.1776C42.5847 31.7039 42.8374 31.8793 43.3029 31.8388C47.1334 31.7983 51.1767 31.7848 55.6455 31.7983C55.6455 31.7983 55.6455 31.7983 55.6588 31.7983C56.111 31.7983 56.2573 31.7039 56.4701 31.3125C56.9357 30.422 57.4411 29.5583 57.9332 28.6812C58.3721 27.8986 58.8243 27.1295 59.2499 26.3468C59.7819 25.3753 60.4469 24.957 61.5109 24.957C64.7429 24.9974 67.5625 24.9839 70.1295 24.9165C70.8078 24.8895 71.393 25.0784 71.8452 25.4697C72.058 25.6586 72.2442 25.9015 72.4304 26.1984C73.9466 28.8702 75.4762 31.5419 77.0057 34.2002C77.3515 34.7939 77.3382 35.4012 76.9658 36.0489L76.8461 36.2513C75.4363 38.7072 73.9865 41.244 72.6299 43.7673C72.191 44.5905 71.4728 45.508 69.8369 45.3866C68.9458 45.3191 68.0679 45.3326 67.1369 45.3596C66.7512 45.3731 66.3522 45.3731 65.9665 45.3866C65.5542 45.3866 65.1419 45.3866 64.7429 45.3866C63.772 45.3731 62.7745 45.3731 61.8168 45.4271C60.3139 45.508 59.6888 44.6175 59.3164 43.9428C58.7312 42.8633 58.1327 41.7837 57.5342 40.7177L56.6697 39.1794C56.377 38.6397 56.0578 38.4913 55.4726 38.5182C51.6954 38.6127 47.7319 38.6262 43.3694 38.5722C42.8906 38.5587 42.6246 38.7072 42.3054 39.2739C41.8798 40.07 41.4276 40.8527 40.9754 41.6353C40.4567 42.5394 39.9513 43.4435 39.4592 44.3611C39.0336 45.1707 38.4616 45.5485 37.4907 45.5215C34.7243 45.4945 31.745 45.4946 28.7392 45.562C28.7126 45.5215 28.686 45.5215 28.6594 45.5215ZM28.4998 26.6032C28.154 26.6032 27.9944 26.6977 27.8348 26.981L23.3659 34.9424C23.2462 35.1583 23.2063 35.3337 23.3792 35.6306L25.2811 38.95C26.1456 40.4479 26.9969 41.9457 27.8614 43.4435C28.1008 43.8618 28.287 43.9832 28.7126 43.9697C31.745 43.9023 34.7376 43.9023 37.5173 43.9293C37.8498 43.9158 37.9961 43.8618 38.1424 43.5784C38.6346 42.6474 39.1666 41.7298 39.6853 40.8122C40.1242 40.0296 40.5764 39.2604 41.002 38.4778C41.401 37.7356 42.0128 36.9799 43.3694 36.9799C43.3827 36.9799 43.396 36.9799 43.4093 36.9799C47.7585 37.0339 51.6954 37.0204 55.4593 36.9395C56.6297 36.8855 57.4411 37.3578 58.013 38.3968L58.8775 39.9351C59.4893 41.0146 60.0878 42.0941 60.673 43.1871C60.9789 43.7538 61.2183 43.9023 61.7503 43.8753C62.7612 43.8078 63.7853 43.8213 64.7828 43.8348C65.1818 43.8348 65.5941 43.8348 65.9931 43.8348C66.3788 43.8348 66.7512 43.8213 67.1369 43.8213C68.0679 43.7943 69.0389 43.7808 69.9965 43.8483C70.6615 43.9023 70.9674 43.7134 71.3398 43.0387C72.7097 40.5018 74.1727 37.9515 75.5826 35.4956L75.7023 35.2932C75.8087 35.1178 75.7954 35.1043 75.7422 35.0099C74.2126 32.3381 72.6831 29.6663 71.1669 26.9945C71.0738 26.8461 70.994 26.7246 70.9009 26.6572C70.7945 26.5627 70.6482 26.4683 70.2226 26.4818C67.629 26.5492 64.7961 26.5627 61.5508 26.5222C61.0587 26.5087 60.8991 26.6437 60.6464 27.116C60.2208 27.9121 59.7686 28.7082 59.3164 29.4909C58.8243 30.3545 58.3322 31.2046 57.8667 32.0817C57.3879 32.9723 56.7229 33.3771 55.712 33.3771H55.6987C51.2432 33.3636 47.1999 33.3771 43.3694 33.4176C42.0394 33.4446 41.3877 32.6484 41.002 31.9602C40.5099 31.0831 40.0045 30.206 39.4991 29.3424C39.007 28.4923 38.5015 27.6557 38.036 26.7921C37.9296 26.6032 37.9296 26.5897 37.7035 26.6032C34.6046 26.5897 31.5455 26.6167 28.4998 26.6032Z" fill="white"/>
<path d="M28.5133 75.0325C27.3828 75.0325 26.9173 74.2228 26.7178 73.8855C25.175 71.2542 23.6454 68.6094 22.1425 65.9511C21.7302 65.236 21.7435 64.4668 22.1558 63.7381C23.2597 61.822 24.3237 59.9059 25.4011 57.9763L26.6247 55.7768C27.0503 55.0211 27.6887 54.6298 28.5133 54.6298C31.5591 54.6433 34.6181 54.6298 37.6639 54.6028H37.6772C38.2358 54.6028 38.9407 54.7243 39.4461 55.6284C39.8983 56.465 40.3771 57.2746 40.8559 58.0842C41.3613 58.9478 41.88 59.8114 42.3588 60.6885C42.678 61.2688 42.8776 61.4577 43.4628 61.4037C47.3863 61.3497 51.4961 61.3362 55.699 61.3632C56.2842 61.3767 56.4571 61.2148 56.6566 60.8505C57.0689 60.0813 57.4945 59.3257 57.9201 58.57C58.3989 57.7064 58.891 56.8428 59.3565 55.9657C59.8885 54.9537 60.6733 54.4814 61.724 54.4949C64.7165 54.5354 67.4963 54.5219 70.2228 54.4679C70.941 54.4679 71.5129 54.6433 71.9784 55.0346C72.1779 55.2101 72.3641 55.4394 72.5371 55.7363C74.0666 58.4216 75.6094 61.0799 77.1522 63.7516C77.3783 64.143 77.5512 64.7502 77.1389 65.4923L76.2478 67.0306C74.9444 69.2976 73.6277 71.5646 72.3642 73.845C71.872 74.7491 71.1538 74.8436 70.6351 74.8571C69.5312 74.8436 68.4406 74.8571 67.35 74.8571H66.0598C65.6475 74.8571 65.2219 74.857 64.8096 74.8436C63.852 74.8301 62.8678 74.8166 61.9102 74.884C60.4604 74.992 59.822 74.1419 59.3698 73.3188C58.9176 72.4686 58.4255 71.6455 57.9334 70.8224C57.428 69.9723 56.9226 69.1222 56.4571 68.2586C56.3108 67.9887 56.2975 67.9482 55.9384 67.9617H54.9808C51.0971 67.9887 47.2134 68.0157 43.3298 67.9887C42.8909 67.9617 42.8111 68.1101 42.4386 68.7578C42.0529 69.4325 41.6938 70.0667 41.3214 70.6875C40.6963 71.767 40.0579 72.8465 39.4727 73.9665C39.0205 74.8301 38.3954 74.9515 37.8368 74.9515H36.1077C33.594 74.9515 31.0803 74.9515 28.5665 75.0055C28.5399 75.0325 28.5266 75.0325 28.5133 75.0325ZM28.5 56.1681C28.2606 56.1681 28.101 56.2221 27.9281 56.5324L26.7045 58.7319C25.6272 60.6616 24.5498 62.5912 23.4592 64.5073C23.2996 64.7907 23.3262 64.9796 23.4459 65.182C24.9489 67.8403 26.4784 70.4716 28.0212 73.1029C28.234 73.4672 28.3005 73.4942 28.5266 73.4942C31.0537 73.4402 33.5674 73.4402 36.0944 73.4402H37.8235C37.9698 73.4402 38.023 73.4267 38.023 73.4267C38.023 73.4267 38.0629 73.3862 38.1161 73.2783C38.7146 72.1448 39.353 71.0518 39.9914 69.9453C40.3505 69.3246 40.7229 68.7039 41.0687 68.0697C41.4544 67.368 41.9332 66.4774 43.3165 66.4774C47.2001 66.5044 51.0705 66.4774 54.9542 66.4504H55.9118C55.9251 66.4504 55.9251 66.4504 55.9384 66.4504C56.8162 66.4504 57.3615 66.7743 57.7738 67.5434C58.226 68.3935 58.7181 69.2301 59.2102 70.0533C59.7156 70.8899 60.2077 71.74 60.6733 72.6036C61.0457 73.3053 61.2718 73.4132 61.7772 73.3727C62.788 73.3053 63.8121 73.3188 64.7963 73.3188C65.2086 73.3188 65.6209 73.3323 66.0332 73.3323H67.3101C68.414 73.3323 69.5179 73.3188 70.6218 73.3323C70.9144 73.3323 70.9011 73.3323 71.0075 73.1164C72.271 70.8089 73.5878 68.5419 74.9045 66.2615L75.7956 64.7232C75.8621 64.6152 75.8488 64.6018 75.8222 64.5343C74.2794 61.8625 72.7366 59.2042 71.207 56.519C71.1272 56.384 71.0474 56.2761 70.9543 56.1951C70.8346 56.0872 70.675 56.0062 70.2228 55.9927C67.483 56.0467 64.6899 56.0602 61.6708 56.0197C61.1255 55.9927 60.9393 56.1546 60.66 56.6809C60.1944 57.5715 59.7023 58.4351 59.2102 59.3122C58.7846 60.0678 58.3723 60.81 57.96 61.5791C57.4679 62.4832 56.7231 62.9015 55.6591 62.9015C51.4828 62.8745 47.373 62.888 43.4628 62.942C42.2923 62.9015 41.6007 62.4967 41.0155 61.4307C40.55 60.5671 40.0446 59.717 39.5392 58.8669C39.0471 58.0438 38.5683 57.2071 38.1028 56.3705C37.9831 56.1681 37.9698 56.1141 37.6639 56.1276C34.6181 56.1546 31.5591 56.1816 28.5 56.1681Z" fill="white"/>
<path d="M18.6588 31.272L13.0195 27.1969L14.4826 25.1053C14.9614 24.4306 15.5732 24.0258 16.318 23.8909C17.0628 23.7559 17.781 23.9179 18.4593 24.4171L19.4701 25.1458C20.1485 25.6316 20.5475 26.2658 20.6539 27.0349C20.7736 27.8041 20.5874 28.5193 20.1086 29.1939L18.6588 31.272ZM14.9614 26.6031L18.579 29.2209L19.111 28.4518C19.3238 28.1549 19.377 27.8176 19.2706 27.4397C19.1642 27.0754 18.9248 26.7516 18.5391 26.4682L17.515 25.726C17.1293 25.4562 16.7569 25.3212 16.3712 25.3482C15.9855 25.3752 15.6929 25.5236 15.4801 25.834L14.9614 26.6031Z" fill="white"/>
<path d="M23.8205 24.6735L22.7299 25.8609L17.6758 21.0706L18.7664 19.8832L23.8205 24.6735Z" fill="white"/>
<path d="M26.8509 20.1261L25.2548 21.4484L25.8001 22.7573L24.4834 23.8369L21.8633 16.955L22.5283 16.4018L23.1933 15.8485L29.3247 19.8427L28.008 20.9222L26.8509 20.1261ZM24.7627 20.234L25.7868 19.3839L23.9248 18.1155L23.8982 18.129L24.7627 20.234Z" fill="white"/>
<path d="M32.1594 15.8351L32.186 15.8216L31.3481 10.7344L33.2367 9.74939L36.4154 15.9835L34.9923 16.7257L32.9441 12.7045L32.9042 12.718L33.5958 17.4544L32.6382 17.9536L29.2865 14.6881L29.2599 14.7016L31.2816 18.6553L29.8584 19.3975L26.6797 13.1633L28.555 12.1783L32.1594 15.8351Z" fill="white"/>
<path d="M42.4128 11.2876C42.6389 12.1243 42.5591 12.8799 42.1867 13.5681C41.8143 14.2563 41.2025 14.7151 40.3646 14.9445C39.5134 15.1739 38.7552 15.0929 38.0902 14.7016C37.4252 14.3103 36.973 13.6895 36.7469 12.8529L36.4144 11.6385C36.1883 10.8019 36.2681 10.0462 36.6538 9.35803C37.0262 8.66984 37.638 8.21105 38.4892 7.98166C39.3272 7.75226 40.0853 7.83323 40.7503 8.22455C41.4286 8.61587 41.8675 9.23658 42.0936 10.0732L42.4128 11.2876ZM40.5375 10.4915C40.4045 10.0057 40.1917 9.6414 39.8858 9.39851C39.5799 9.15562 39.2208 9.08815 38.8084 9.1961C38.3828 9.30405 38.1168 9.56043 37.9705 9.92477C37.8375 10.2891 37.8242 10.7209 37.9572 11.2067L38.2897 12.4346C38.4227 12.9204 38.6355 13.2982 38.9547 13.5411C39.2606 13.784 39.6198 13.8515 40.0454 13.7435C40.4577 13.6356 40.7237 13.3927 40.87 13.0149C41.0163 12.6505 41.0163 12.2187 40.8833 11.7194L40.5375 10.4915Z" fill="white"/>
<path d="M50.0746 13.4197L48.4786 13.5411L45.619 9.33105L45.5924 9.34454L45.9249 13.7435L44.3289 13.865L43.7969 6.86168L45.3929 6.74023L48.2525 10.9368L48.2791 10.9233L47.9465 6.53783L49.5426 6.41638L50.0746 13.4197Z" fill="white"/>
<path d="M51.4023 13.4602L52.1738 6.48389L54.6875 6.78075C55.4988 6.87521 56.1372 7.21255 56.6293 7.80628C57.1214 8.40001 57.3076 9.11518 57.2145 9.9518L57.0815 11.2067C56.9884 12.0433 56.6426 12.7045 56.0308 13.1768C55.419 13.6491 54.7141 13.838 53.9161 13.7436L51.4023 13.4602ZM53.6368 7.91423L53.1447 12.3942L54.0624 12.5021C54.4215 12.5426 54.7407 12.4212 55.0067 12.1513C55.2727 11.8814 55.4323 11.5036 55.4855 11.0313L55.6185 9.76288C55.6717 9.2906 55.5919 8.89928 55.3924 8.56193C55.1929 8.23808 54.9136 8.04917 54.5412 8.00869L53.6368 7.91423Z" fill="white"/>
<path d="M62.9362 13.3791L62.085 15.6326L60.582 15.0524L63.0559 8.49438L65.5297 9.45245C66.3011 9.74931 66.8331 10.1811 67.1257 10.7479C67.4316 11.3146 67.4582 11.9218 67.2188 12.5695C66.9794 13.2172 66.5538 13.649 65.9553 13.8649C65.3568 14.0808 64.6785 14.0538 63.9071 13.757L62.9362 13.3791ZM63.3751 12.2187L64.346 12.583C64.6785 12.7045 64.9578 12.718 65.1972 12.5965C65.4366 12.4751 65.6095 12.2861 65.7159 12.0028C65.8223 11.7194 65.8356 11.436 65.7292 11.1931C65.6228 10.9368 65.41 10.7479 65.0908 10.6264L64.1199 10.2486L63.3751 12.2187Z" fill="white"/>
<path d="M68.5747 17.2654L71.1417 18.7902L70.5166 19.8697L66.5664 17.5217L70.0644 11.463L71.4476 12.2861L68.5747 17.2654Z" fill="white"/>
<path d="M75.1191 21.8398L73.5363 20.5039L72.3659 21.2865L71.0625 20.1801L77.2338 16.2668L77.8988 16.8201L78.5638 17.3733L75.8639 24.2282L74.5605 23.1352L75.1191 21.8398ZM74.6137 19.7887L75.6245 20.6523L76.5023 18.5608L76.4757 18.5473L74.6137 19.7887Z" fill="white"/>
<path d="M83.4968 24.4306L82.2865 23.0273L78.0038 26.819L76.9531 25.5911L81.2225 21.7993L80.0388 20.423L80.9698 19.5999L84.4146 23.594L83.4968 24.4306Z" fill="white"/>
<path d="M84.3887 30.8402L83.0853 28.7487L81.6223 29.6798L83.1784 32.1896L82.1277 32.8643L79.707 28.9781L85.5591 25.2268L87.9798 29.113L86.9291 29.7877L85.3729 27.2779L84.1094 28.0875L85.4128 30.179L84.3887 30.8402Z" fill="white"/>
<path d="M21.2121 74.2498L19.9752 72.4146L14.3625 76.3008L13.2852 74.6951L18.8845 70.8089L17.6742 69.0142L18.8979 68.1641L22.4224 73.3997L21.2121 74.2498Z" fill="white"/>
<path d="M22.9951 80.8079L20.9469 78.7028L19.4839 80.1737L21.9444 82.6835L20.8937 83.736L17.0898 79.8363L22.9685 73.926L26.7857 77.8257L25.735 78.8783L23.2744 76.3549L22.0109 77.6233L24.0592 79.7284L22.9951 80.8079Z" fill="white"/>
<path d="M29.6846 86.7451L29.6713 86.7856C29.1526 87.5817 28.5275 88.027 27.8093 88.1215C27.0778 88.2159 26.3064 87.9731 25.4818 87.4063C24.6438 86.8261 24.1384 86.0974 23.9788 85.2203C23.8192 84.3432 24.0187 83.4796 24.5906 82.6295L25.5616 81.1857C26.1335 80.3356 26.8384 79.8228 27.6763 79.6474C28.5275 79.4585 29.3521 79.6474 30.1634 80.2141C31.028 80.8078 31.56 81.4825 31.7595 82.2247C31.959 82.9669 31.7861 83.7225 31.2541 84.4917L31.2142 84.5052L29.6713 83.4391C29.9506 83.0208 30.0703 82.643 30.0171 82.3461C29.9639 82.0358 29.7378 81.7389 29.3255 81.469C28.9664 81.2262 28.594 81.1722 28.2083 81.3341C27.8226 81.496 27.4635 81.8199 27.1443 82.2922L26.1601 83.7495C25.8276 84.2353 25.6813 84.6941 25.6946 85.1394C25.7079 85.5712 25.9074 85.9355 26.3064 86.2054C26.6655 86.4618 26.998 86.5427 27.2773 86.4752C27.5566 86.4078 27.8492 86.1514 28.1418 85.7196L29.6846 86.7451Z" fill="white"/>
<path d="M36.8646 93.0198L35.0956 92.2911L36.3459 89.1605L33.5129 88.0001L32.2627 91.1306L30.4805 90.402L33.5794 82.6295L35.3617 83.3582L34.0582 86.6102L36.8912 87.7707L38.1946 84.5052L39.9635 85.2338L36.8646 93.0198Z" fill="white"/>
<path d="M46.5613 94.9358L44.6594 94.6255L42.4914 88.9311H42.4515L41.6269 94.1262L39.7383 93.8158L41.0417 85.5306L42.9303 85.841L45.0983 91.5354H45.1382L45.9495 86.3403L47.8381 86.6506L46.5613 94.9358Z" fill="white"/>
<path d="M56.1787 91.171C56.2452 92.1966 55.9792 93.0737 55.3807 93.7888C54.7822 94.504 53.9575 94.8953 52.9201 94.9628C51.8694 95.0303 51.0049 94.7469 50.3133 94.1262C49.6217 93.5055 49.236 92.6688 49.1695 91.6433L49.0764 90.132C49.0099 89.1065 49.2759 88.2294 49.8877 87.5277C50.4995 86.8125 51.3241 86.4212 52.3615 86.3537C53.3989 86.2863 54.2635 86.5696 54.9551 87.1903C55.6467 87.8246 56.0324 88.6477 56.0989 89.6732L56.1787 91.171ZM54.1704 89.7812C54.1305 89.1874 53.9576 88.7017 53.6649 88.3373C53.359 87.973 52.96 87.8111 52.4546 87.8381C51.9359 87.865 51.5502 88.0944 51.2975 88.4858C51.0448 88.8906 50.9384 89.3899 50.9783 89.9836L51.0714 91.5084C51.1113 92.1156 51.2842 92.6014 51.5768 92.9657C51.8827 93.33 52.295 93.492 52.8004 93.465C53.3058 93.438 53.6782 93.2086 53.931 92.8173C54.1837 92.4125 54.2901 91.9132 54.2502 91.306L54.1704 89.7812Z" fill="white"/>
<path d="M60.4872 92.1291L63.9186 91.1981L64.3043 92.6419L59.0241 94.0723L56.8828 85.976L58.7315 85.4767L60.4872 92.1291Z" fill="white"/>
<path d="M71.235 85.6521C71.6872 86.5832 71.767 87.4873 71.4877 88.3779C71.2084 89.2685 70.5966 89.9432 69.6656 90.4154C68.7213 90.8877 67.8169 90.9687 66.9391 90.6583C66.0613 90.348 65.3962 89.7407 64.944 88.8097L64.279 87.4603C63.8268 86.5427 63.747 85.6251 64.0396 84.7345C64.3322 83.8439 64.944 83.1558 65.875 82.6835C66.8061 82.2112 67.7105 82.1302 68.5883 82.4406C69.4661 82.7509 70.1311 83.3717 70.5833 84.2892L71.235 85.6521ZM68.8543 85.1529C68.5883 84.6131 68.2558 84.2353 67.8302 84.0194C67.4179 83.8035 66.979 83.8035 66.5268 84.0329C66.0612 84.2623 65.7952 84.6131 65.7154 85.0854C65.6356 85.5577 65.7287 86.0569 65.9948 86.5967L66.6598 87.9596C66.9258 88.4993 67.2716 88.8906 67.6839 89.1065C68.0962 89.3224 68.5351 89.3224 69.0139 89.0795C69.4661 88.8502 69.7321 88.4993 69.8119 88.0405C69.8917 87.5682 69.7986 87.069 69.5326 86.5157L68.8543 85.1529Z" fill="white"/>
<path d="M79.4544 82.1167C79.4544 82.5755 79.3214 83.0747 79.0686 83.601C78.8159 84.1272 78.3637 84.6535 77.7253 85.1798C76.9273 85.8275 76.0761 86.1108 75.185 86.0164C74.2939 85.9219 73.5358 85.4766 72.8973 84.694L71.82 83.3311C71.1949 82.5485 70.9289 81.6984 71.022 80.8078C71.1151 79.9172 71.5407 79.148 72.2988 78.5273C73.1234 77.8526 73.8949 77.5423 74.6131 77.5692C75.3313 77.5962 75.9298 77.9471 76.4352 78.6083L76.4485 78.6487L75.052 79.7957C74.7993 79.4719 74.52 79.3099 74.2274 79.283C73.9348 79.2695 73.6156 79.3909 73.283 79.6743C72.9372 79.9577 72.7643 80.322 72.7776 80.7808C72.7909 81.2261 72.9638 81.6849 73.3229 82.1302L74.4136 83.5065C74.7727 83.9653 75.1717 84.2352 75.5973 84.3431C76.0229 84.4511 76.4352 84.3431 76.8209 84.0328C77.1002 83.8034 77.2997 83.6145 77.4194 83.4391C77.5391 83.2636 77.6189 83.1017 77.6455 82.9533L76.7145 81.7793L75.5707 82.7104L74.7727 81.6984L77.4061 79.5528L79.4544 82.1167Z" fill="white"/>
<path d="M80.4105 75.6801L80.4371 75.6531L78.6948 72.0368L80.0115 70.4041L82.3656 76.058L84.6134 77.9336L83.403 79.4314L81.0888 77.5018L75.25 76.2739L76.58 74.6411L80.4105 75.6801Z" fill="white"/>
<path d="M81.769 71.1193C81.1572 70.7684 80.7581 70.2826 80.5719 69.6349C80.3857 69.0007 80.4389 68.38 80.7581 67.8133C81.0774 67.233 81.5562 66.8687 82.1946 66.6933C82.833 66.5179 83.4581 66.6123 84.0699 66.9632C84.6817 67.314 85.0807 67.7998 85.2802 68.4475C85.4664 69.0952 85.4132 69.7024 85.094 70.2691C84.7748 70.8494 84.296 71.2137 83.6576 71.3891C83.0059 71.5511 82.3808 71.4701 81.769 71.1193ZM81.9685 70.7684C82.4739 71.0518 82.9926 71.1328 83.5246 70.9978C84.0566 70.8629 84.4556 70.5525 84.7216 70.0802C84.9876 69.6079 85.0408 69.0952 84.8679 68.5689C84.7083 68.0292 84.3758 67.6244 83.8571 67.341C83.3517 67.0576 82.833 66.9767 82.301 67.1116C81.769 67.2465 81.37 67.5569 81.104 68.0292C80.838 68.5149 80.7847 69.0142 80.9444 69.5405C81.1306 70.0667 81.4631 70.4716 81.9685 70.7684ZM82.8995 69.581L83.8704 70.1342L83.631 70.5795L81.1705 69.1896L81.6227 68.3665C81.7823 68.0697 81.9818 67.8807 82.2079 67.7863C82.434 67.6918 82.6734 67.7188 82.9128 67.8538C83.0192 67.9212 83.099 68.0022 83.1522 68.0966C83.2054 68.1911 83.232 68.3125 83.232 68.4475C83.3517 68.38 83.4714 68.3395 83.6177 68.353C83.7507 68.3665 83.8837 68.4205 84.03 68.5015L84.1896 68.5959C84.2694 68.6364 84.3359 68.6769 84.4024 68.7039C84.4689 68.7308 84.5221 68.7443 84.5753 68.7578L84.6285 68.7848L84.3758 69.2436C84.3226 69.2436 84.2561 69.2166 84.1763 69.1761C84.0965 69.1357 84.0167 69.0952 83.9369 69.0412L83.7773 68.9468C83.6443 68.8658 83.5246 68.8388 83.4182 68.8658C83.3118 68.8928 83.2187 68.9872 83.1389 69.1357L82.8995 69.581ZM82.5138 69.3651L82.7266 68.9872C82.8064 68.8388 82.8463 68.7039 82.8463 68.5689C82.8463 68.434 82.7931 68.3395 82.6867 68.2721C82.5537 68.1911 82.434 68.1776 82.3276 68.2181C82.2345 68.2586 82.1281 68.38 82.0217 68.5689L81.8089 68.9468L82.5138 69.3651Z" fill="white"/>
</svg>
