<svg width="100" height="148" viewBox="0 0 100 148" fill="none" xmlns="http://www.w3.org/2000/svg">
<path d="M95.3162 10.8621C92.7704 8.486 89.3759 7.29792 85.6419 7.63737V9.50435C88.697 9.1649 91.752 10.1832 93.9585 12.2199C96.1649 14.2566 97.353 16.9722 97.353 20.197V135.44C97.353 138.495 96.1649 141.381 93.9585 143.417C91.752 145.454 88.8667 146.472 85.6419 146.133L21.4858 140.362C16.2244 139.853 11.9812 134.761 11.9812 128.991V108.284L10.1143 109.133V128.991C10.1143 135.78 15.206 141.72 21.4858 142.229L85.6419 148C85.9814 148 86.4905 148 86.83 148C90.0548 148 92.9401 146.812 95.3162 144.775C97.8621 142.399 99.3896 139.005 99.3896 135.44V20.197C99.3896 16.6328 98.0318 13.2383 95.3162 10.8621Z" fill="white"/>
<path d="M12.1497 37.1695V26.4768C12.1497 20.7062 16.3928 15.6144 21.6543 15.1053V13.2383C15.3745 13.7475 10.2827 19.6878 10.2827 26.4768V35.9814L12.1497 37.1695Z" fill="white"/>
<path d="M27.0862 109.982H29.1229V110.152C29.1229 110.491 29.1229 110.661 29.2926 110.831C29.4624 111.001 29.8018 111.001 30.1413 111.001H30.6504C30.9899 111.001 31.1596 111.001 31.3293 110.831C31.4991 110.661 31.4991 110.491 31.4991 110.322V109.982C31.4991 109.813 31.4991 109.643 31.3293 109.473C31.1596 109.303 30.9899 109.303 30.6504 109.303L28.9532 109.134C28.2743 109.134 27.7651 108.794 27.5954 108.455C27.2559 108.115 27.0862 107.606 27.0862 106.757V106.248C27.0862 105.909 27.0862 105.4 27.2559 105.06C27.4257 104.721 27.5954 104.551 27.7651 104.212C27.9349 104.042 28.2743 103.872 28.444 103.872C28.7835 103.872 29.1229 103.702 29.6321 103.702H30.9899C31.8385 103.702 32.3477 103.872 32.8569 104.212C33.3661 104.551 33.5358 105.06 33.5358 105.739V106.418H31.4991V106.248C31.4991 105.909 31.4991 105.739 31.3293 105.739C31.1596 105.569 30.9899 105.569 30.6504 105.569H30.1413C29.8018 105.569 29.6321 105.569 29.4624 105.739C29.2927 105.909 29.2926 105.909 29.2926 106.248V106.588C29.2926 106.927 29.6321 107.097 30.1413 107.267L31.6688 107.436C32.3477 107.606 32.8569 107.776 33.1963 108.115C33.5358 108.455 33.7055 108.964 33.7055 109.643V110.322C33.7055 111.001 33.5358 111.679 33.0266 112.019C32.6871 112.528 32.0082 112.698 31.3293 112.698H29.6321C28.6137 112.698 27.9348 112.528 27.5954 112.189C27.0862 111.849 26.9165 111.34 26.9165 110.491V109.982H27.0862Z" fill="white"/>
<path d="M34.8936 107.436C34.8936 106.079 35.0633 105.06 35.5724 104.551C36.0816 104.042 36.7605 103.702 37.9486 103.702H38.9669C40.155 103.702 41.0037 104.042 41.3431 104.551C41.8523 105.06 42.022 106.079 42.022 107.436V109.303C42.022 110.661 41.8523 111.51 41.3431 112.189C40.8339 112.698 40.155 113.037 38.9669 113.037H37.9486C36.7605 113.037 36.0816 112.698 35.5724 112.189C35.0633 111.679 34.8936 110.661 34.8936 109.303V107.436ZM37.1 107.606V109.134C37.1 109.813 37.1 110.322 37.2697 110.491C37.4394 110.661 37.7789 110.831 38.2881 110.831H38.6275C39.1367 110.831 39.4761 110.661 39.6459 110.491C39.8156 110.322 39.8156 109.813 39.8156 109.134V107.606C39.8156 106.927 39.8156 106.418 39.6459 106.248C39.4761 106.079 39.1367 105.909 38.6275 105.909H38.2881C37.7789 105.909 37.4394 106.079 37.2697 106.248C37.2697 106.248 37.1 106.757 37.1 107.606Z" fill="white"/>
<path d="M43.2107 109.982H45.2474V110.152C45.2474 110.491 45.2474 110.661 45.4172 110.831C45.5869 111.001 45.9263 111.001 46.2658 111.001H46.775C47.1144 111.001 47.2841 111.001 47.4539 110.831C47.6236 110.661 47.6236 110.491 47.6236 110.322V109.982C47.6236 109.813 47.6236 109.643 47.4539 109.473C47.2841 109.303 47.1144 109.303 46.775 109.303L45.0777 109.134C44.3988 109.134 43.8896 108.794 43.7199 108.455C43.3805 108.115 43.2107 107.606 43.2107 106.757V106.248C43.2107 105.909 43.2107 105.4 43.3805 105.06C43.5502 104.721 43.7199 104.551 43.8896 104.212C44.0594 104.042 44.3988 103.872 44.5685 103.872C44.908 103.872 45.2474 103.702 45.7566 103.702H47.1144C47.963 103.702 48.4722 103.872 48.9814 104.212C49.4906 104.551 49.6603 105.06 49.6603 105.739V106.418H47.6236V106.248C47.6236 105.909 47.6236 105.739 47.4539 105.739C47.2841 105.569 47.1144 105.569 46.775 105.569H46.2658C45.9263 105.569 45.7566 105.569 45.5869 105.739C45.4172 105.909 45.4172 105.909 45.4172 106.248V106.588C45.4172 106.927 45.7566 107.097 46.2658 107.267L47.7933 107.436C48.4722 107.606 48.9814 107.776 49.3208 108.115C49.6603 108.455 49.83 108.964 49.83 109.643V110.322C49.83 111.001 49.6603 111.679 49.1511 112.019C48.8117 112.528 48.1328 112.698 47.4539 112.698H45.7566C44.7383 112.698 44.0594 112.528 43.7199 112.189C43.2107 111.849 43.041 111.34 43.041 110.491V109.982H43.2107Z" fill="white"/>
<path d="M52.8848 112.698V105.739H50.8481V103.702H57.128V105.739H55.0913V112.698H52.8848Z" fill="white"/>
<path d="M56.6187 112.698L58.9948 103.872H62.3893L64.5957 112.698H62.2196L61.8801 111.17H59.3342L58.9948 112.698H56.6187ZM59.6737 109.304H61.3709L60.5223 105.57H60.3526L59.6737 109.304Z" fill="white"/>
<path d="M65.4438 112.698V103.872H68.6686L71.2145 110.492V103.872H73.2512V112.698H70.0264L67.4805 106.079V112.698H65.4438Z" fill="white"/>
<path d="M74.6089 112.698V110.661L78.5126 105.909H74.9483V103.872H81.3979V106.079L77.6639 110.831H81.3979V112.868H74.6089V112.698Z" fill="white"/>
<path d="M82.2461 112.698L84.6223 103.872H88.0168L90.2232 112.698H87.847L87.5076 111.17H84.9617L84.6223 112.698H82.2461ZM85.3012 109.304H86.9984L86.1498 105.57H85.98L85.3012 109.304Z" fill="white"/>
<path d="M27.2559 118.808C27.2559 117.45 27.4256 116.432 27.9347 115.923C28.4439 115.413 29.1228 115.074 30.3109 115.074H31.3293C32.5173 115.074 33.366 115.413 33.7054 115.923C34.2146 116.432 34.3843 117.45 34.3843 118.808V120.675C34.3843 122.033 34.2146 122.881 33.7054 123.56C33.1962 124.069 32.5173 124.409 31.3293 124.409H30.3109C29.1228 124.409 28.4439 124.069 27.9347 123.56C27.4256 123.051 27.2559 122.033 27.2559 120.675V118.808ZM29.4623 118.978V120.505C29.4623 121.184 29.4623 121.693 29.632 121.863C29.8017 122.033 30.1412 122.202 30.6504 122.202H30.9898C31.499 122.202 31.8384 122.033 32.0082 121.863C32.1779 121.693 32.1779 121.184 32.1779 120.505V118.978C32.1779 118.299 32.1779 117.79 32.0082 117.62C31.8384 117.45 31.499 117.28 30.9898 117.28H30.6504C30.1412 117.28 29.8017 117.45 29.632 117.62C29.4623 117.79 29.4623 118.299 29.4623 118.978Z" fill="white"/>
<path d="M35.915 124.239V115.413H39.1398C40.3279 115.413 41.1765 115.583 41.6857 115.922C42.1949 116.262 42.3646 116.941 42.3646 117.789V118.468C42.3646 119.147 42.1949 119.486 42.0252 119.826C41.6857 120.165 41.3463 120.335 40.8371 120.505C41.3463 120.675 41.8554 120.844 42.0252 121.184C42.1949 121.523 42.3646 121.863 42.3646 122.542V124.409H40.1582V122.881C40.1582 122.542 40.1582 122.202 39.9885 122.032C39.8187 121.863 39.649 121.863 39.3095 121.863H38.1215V124.409H35.915V124.239ZM38.1215 119.486H39.3095C39.649 119.486 39.9885 119.486 39.9885 119.317C40.1582 119.147 40.1582 118.977 40.1582 118.468V118.129C40.1582 117.789 40.1582 117.45 39.9885 117.28C39.8187 117.11 39.649 117.11 39.3095 117.11H38.1215V119.486Z" fill="white"/>
<path d="M50.8487 118.129H48.6422C48.6422 117.789 48.4725 117.62 48.3028 117.45C48.1331 117.28 47.7936 117.28 47.4542 117.28H46.945C46.4358 117.28 46.0964 117.45 45.9266 117.62C45.7569 117.789 45.7569 118.299 45.7569 118.977V120.505C45.7569 121.184 45.7569 121.693 45.9266 121.863C46.0964 122.033 46.4358 122.202 46.945 122.202H47.6239C48.1331 122.202 48.3028 122.202 48.4725 122.033C48.6422 121.863 48.6422 121.693 48.6422 121.354V121.014H47.4542V119.317H50.8487V120.844C50.8487 122.033 50.6789 122.881 50.1698 123.39C49.6606 123.899 48.9817 124.239 47.9633 124.239H46.4358C45.5872 124.239 44.9083 123.899 44.3991 123.221C43.8899 122.542 43.7202 121.693 43.7202 120.335V118.977C43.7202 117.62 43.8899 116.601 44.3991 115.922C44.9083 115.244 45.7569 114.904 46.7753 114.904H47.9633C48.812 114.904 49.4909 115.074 50.1698 115.583C50.6789 116.092 51.0184 116.601 51.0184 117.45V118.129H50.8487Z" fill="white"/>
<path d="M51.5273 124.239L53.9035 115.413H57.298L59.5044 124.239H57.1283L56.7888 122.711H54.2429L53.9035 124.239H51.5273ZM54.5824 120.844H56.2796L55.431 117.11H55.2613L54.5824 120.844Z" fill="white"/>
<path d="M60.5244 124.239V115.413H63.7492L66.2951 122.032V115.413H68.3318V124.239H65.107L62.5611 117.62V124.239H60.5244Z" fill="white"/>
<path d="M70.0283 124.239V115.413H72.2348V124.239H70.0283Z" fill="white"/>
<path d="M80.5488 120.675V121.014C80.5488 122.202 80.3791 123.051 79.8699 123.56C79.3607 124.069 78.6818 124.409 77.6634 124.409H76.8148C75.6267 124.409 74.9479 124.069 74.4387 123.56C73.9295 123.051 73.7598 122.033 73.7598 120.675V118.808C73.7598 117.45 73.9295 116.432 74.4387 115.923C74.9479 115.413 75.6267 115.074 76.8148 115.074H77.4937C78.6818 115.074 79.3607 115.244 79.8699 115.753C80.3791 116.262 80.5488 117.111 80.5488 118.299V118.468H78.3423V118.299C78.3423 117.959 78.3423 117.62 78.0029 117.45C77.8332 117.28 77.4937 117.28 77.1543 117.28C76.6451 117.28 76.3057 117.45 76.1359 117.62C75.9662 117.79 75.9662 118.299 75.9662 118.978V120.505C75.9662 121.184 75.9662 121.693 76.1359 121.863C76.3057 122.033 76.6451 122.202 77.1543 122.202C77.6634 122.202 77.8332 122.033 78.0029 121.863C78.1726 121.693 78.1726 121.354 78.1726 120.845V120.675H80.5488Z" fill="white"/>
<path d="M81.0591 124.239L83.4352 115.413H86.8297L89.0362 124.239H86.66L86.3206 122.711H83.605L83.2655 124.239H81.0591ZM84.1141 120.844H85.8114L84.9628 117.11H84.793L84.1141 120.844Z" fill="white"/>
<path d="M27.5967 135.611V126.785H29.8031V135.611H27.5967Z" fill="white"/>
<path d="M31.498 135.611V126.785H34.7228L37.2687 133.404V126.785H39.3054V135.611H36.0806L33.5347 128.991V135.611H31.498Z" fill="white"/>
<path d="M42.5328 135.611V128.652H40.4961V126.615H46.7759V128.652H44.7392V135.611H42.5328Z" fill="white"/>
<path d="M47.9629 135.611V126.785H54.073V128.822H50.1693V130.349H53.9033V132.046H50.1693V133.744H54.2427V135.78H47.9629V135.611Z" fill="white"/>
<path d="M55.6016 135.611V126.785H58.8263C60.0144 126.785 60.863 126.955 61.3722 127.294C61.8814 127.634 62.0511 128.312 62.0511 129.161V129.84C62.0511 130.519 61.8814 130.858 61.7117 131.198C61.3722 131.537 61.0328 131.707 60.5236 131.877C61.0328 132.046 61.5419 132.216 61.7117 132.556C61.8814 132.895 62.0511 133.234 62.0511 133.913V135.78H59.8447V134.253C59.8447 133.913 59.8447 133.574 59.675 133.404C59.5052 133.234 59.3355 133.234 58.9961 133.234H57.808V135.78H55.6016V135.611ZM57.808 131.028H58.9961C59.3355 131.028 59.675 131.028 59.675 130.858C59.8447 130.689 59.8447 130.519 59.8447 130.01V129.67C59.8447 129.331 59.8447 128.991 59.675 128.822C59.5052 128.652 59.3355 128.652 58.9961 128.652H57.808V131.028Z" fill="white"/>
<path d="M63.5776 135.611V126.785H66.8024L69.3483 133.404V126.785H71.385V135.611H68.1602L65.6143 128.991V135.611H63.5776Z" fill="white"/>
<path d="M72.5737 135.611L74.9499 126.785H78.3444L80.5508 135.611H78.1747L77.8352 134.083H75.1196L74.7802 135.611H72.5737ZM75.6288 132.216H77.326L76.4774 128.482H76.3077L75.6288 132.216Z" fill="white"/>
<path d="M34.7246 81.6373L32.5182 81.807V76.7153L32.009 76.5456V81.9768L28.6145 82.1465V75.5272L28.1053 75.3575V82.3162L24.0319 82.4859V74.6786L27.2567 75.018L28.6145 73.9997V67.3804L32.009 68.3988V71.6235L32.5182 71.2841V68.5685L34.7246 69.2474V69.5868L36.0824 68.5685V56.0088V55.6694L0.949321 32.2473L0.609863 109.472V110.491L35.743 95.8942L36.2521 95.7245V77.9034L34.8943 77.3942L34.7246 81.6373ZM34.7246 68.3988L32.5182 67.7199V61.1006L34.7246 62.1189V68.3988ZM34.7246 56.0088V61.6097L32.5182 60.5914V54.651L34.7246 56.0088ZM28.6145 52.1051L32.009 54.3116V60.4217L28.6145 58.8941V52.1051ZM28.6145 59.4033L32.009 60.9309V67.5501L28.6145 66.5318V59.4033ZM24.0319 49.0501L28.1053 51.7657V58.5547L24.0319 56.6877V49.0501ZM24.0319 57.1969L28.1053 59.0639V66.362L24.0319 65.174V57.1969ZM24.0319 65.8529L28.1053 67.041V74.1694L24.0319 73.6602V65.8529ZM10.6236 104.89L2.13739 108.454V96.7428L10.6236 94.7061V104.89ZM10.6236 94.197L2.13739 96.2337V84.1832L10.6236 83.674V94.197ZM10.6236 83.1648L2.13739 83.674V71.963L10.6236 72.9813V83.1648ZM10.6236 71.963L2.13739 70.9446V59.4033L10.6236 61.9492V71.963ZM10.6236 61.2703L2.13739 58.7244V46.8437L10.6236 50.7473V61.2703ZM10.7934 50.2382L2.30711 46.3345V34.9629L10.7934 40.3941V50.2382ZM17.9218 101.835L11.1328 104.72V94.7061L17.9218 93.1786V101.835ZM17.9218 92.4997L11.1328 94.0272V83.5043L17.9218 83.1648V92.4997ZM17.9218 82.6557L11.1328 82.9951V72.9813L17.7521 73.83L17.9218 82.6557ZM17.9218 72.8116L11.3025 71.963V61.9492L17.9218 63.9859V72.8116ZM17.9218 63.4767L11.3025 61.44V51.0868L17.9218 54.3116V63.4767ZM17.9218 53.6327L11.3025 50.4079V40.5638L17.9218 44.9767V53.6327ZM23.5228 99.4584L18.2613 101.665V93.0089L23.5228 91.8208V99.4584ZM23.5228 91.1419L18.2613 92.33V83.1648L23.353 82.8254L23.5228 91.1419ZM23.5228 82.3162L18.431 82.6557V73.83L23.5228 74.3391V82.3162ZM23.5228 73.4905L18.431 72.8116V63.9859L23.5228 65.5134V73.4905ZM23.5228 65.174L18.431 63.6465V54.4813L23.5228 56.8574V65.174ZM23.5228 56.3483L18.431 53.9721V45.4859L23.5228 48.8804V56.3483ZM28.275 97.5915L24.2016 99.2887V91.6511L28.275 90.6327V97.5915ZM28.275 90.1236L24.2016 91.1419V82.9951L28.275 82.8254V90.1236ZM28.6145 82.6557L32.009 82.4859V89.2749L28.6145 90.1236V82.6557ZM28.6145 97.4217V90.463L32.009 89.6144V95.8942L28.6145 97.4217ZM34.7246 94.8759L32.5182 95.8942V89.7841L34.7246 89.2749V94.8759ZM34.7246 88.4263L32.5182 88.9355V82.3162L34.7246 82.1465V88.4263Z" fill="white"/>
<path d="M90.7344 56.5188C88.0188 49.7298 82.7573 44.6381 76.1381 41.7527C62.3903 35.9821 46.4362 42.6014 40.6655 56.3491C39.3077 59.5739 38.6288 62.9684 38.6288 66.3629L27.5967 74.6794L42.0233 79.6014C44.9086 85.0326 49.6609 89.4455 55.4316 91.8216C58.8261 93.1794 62.3903 93.8583 65.9546 93.8583C69.5188 93.8583 72.9133 93.1794 76.3078 91.8216C83.0968 89.106 88.1885 83.8446 91.0738 77.2253C93.45 70.7757 93.45 63.3078 90.7344 56.5188ZM89.3766 76.8858C83.9454 89.9547 68.8399 96.2345 55.771 90.6336C50.3398 88.2574 45.7573 84.184 42.8719 78.9225L42.7022 78.7528L36.2527 76.5464L34.8949 76.0372L33.8765 75.6978L30.482 74.5097L32.1793 73.1519L32.6884 72.8124L34.8949 71.1152L36.2527 70.0968L39.8169 67.3812V67.0418C39.8169 63.6473 40.4958 60.4225 41.8536 57.1977C47.2848 44.1289 62.3903 37.8491 75.4591 43.45C88.528 48.7115 94.8078 63.817 89.3766 76.8858Z" fill="white"/>
<path d="M70.3678 62.6282L50.6797 53.6328C50.1705 53.463 49.8311 52.6144 49.8311 51.9355C49.8311 51.2566 50.3402 50.7474 50.6797 50.9172L70.3678 59.9126C70.8769 60.0823 71.2164 60.931 71.2164 61.6098C71.2164 62.4585 70.8769 62.7979 70.3678 62.6282Z" fill="white"/>
<path d="M79.3634 83.5044L59.6753 74.509C59.1661 74.3393 58.8267 73.4906 58.8267 72.8117C58.8267 72.1328 59.3358 71.6237 59.6753 71.7934L79.3634 80.7888C79.8726 80.9585 80.212 81.8072 80.212 82.4861C80.212 83.3347 79.8726 83.6742 79.3634 83.5044Z" fill="white"/>
<path d="M60.6922 76.2063L48.3023 80.7889C47.7931 80.9586 47.7931 81.6375 48.3023 82.1467C48.8115 82.6559 49.6601 82.9953 50.1693 82.8256L64.0867 77.5641L60.6922 76.2063Z" fill="white"/>
<path d="M69.0112 57.8758L81.4011 53.2933C81.9103 53.1235 81.9103 52.4446 81.4011 51.9355C80.892 51.4263 80.0433 51.0868 79.5342 51.2566L65.6167 56.518L69.0112 57.8758Z" fill="white"/>
<path d="M70.0267 66.8718L60.1826 62.4589C59.6734 62.2892 59.334 61.4406 59.334 60.7617C59.334 60.0828 59.8432 59.5736 60.1826 59.7433L70.0267 64.1562C70.5358 64.3259 70.8753 65.1745 70.8753 65.8534C71.045 66.7021 70.5358 67.0415 70.0267 66.8718Z" fill="white"/>
<path d="M69.8572 70.7754L60.0132 66.3625C59.504 66.1928 59.1646 65.3442 59.1646 64.6653C59.1646 63.9864 59.6737 63.4772 60.0132 63.6469L69.8572 68.0598C70.3664 68.2295 70.7058 69.0781 70.7058 69.757C70.8756 70.6056 70.3664 71.1148 69.8572 70.7754Z" fill="white"/>
<path d="M69.6888 74.8481L59.8447 70.4353C59.3355 70.2655 58.9961 69.4169 58.9961 68.738C58.9961 68.0591 59.5053 67.5499 59.8447 67.7197L69.6888 72.1325C70.198 72.3022 70.5374 73.1509 70.5374 73.8298C70.5374 74.5087 70.198 75.0178 69.6888 74.8481Z" fill="white"/>
<path d="M29.8007 7.63794H31.8374V12.8994H36.9292V14.9361H31.8374V20.3673H29.8007V15.1058H24.709V12.8994H29.8007V7.63794Z" fill="white"/>
<path d="M40.4961 20.1974V15.4451C40.4961 14.0873 40.6658 12.8993 41.175 12.0506C41.6842 11.202 42.3631 10.5231 43.3814 10.3534L48.4732 8.65613C48.9823 8.4864 49.3218 8.31668 49.4915 7.97723C49.6612 7.63778 49.6612 7.29833 49.6612 6.78915V5.94053C49.6612 5.26163 49.4915 4.75245 49.1521 4.413C48.8126 4.07355 48.3034 4.07355 47.6245 4.07355H46.7759C46.097 4.07355 45.5878 4.24328 45.2484 4.58273C44.9089 4.92218 44.7392 5.43135 44.7392 6.11025V7.29833H40.4961V5.60108C40.4961 3.90383 41.0052 2.54603 41.8539 1.6974C42.8722 0.848775 44.0603 0.3396 45.9273 0.3396H48.4732C50.1704 0.3396 51.5282 0.848775 52.5466 1.6974C53.5649 2.54603 54.0741 3.90383 54.0741 5.43135V7.1286C54.0741 8.65613 53.7346 9.8442 53.2255 10.6928C52.7163 11.5415 51.8677 12.2204 50.8493 12.5598L45.9273 14.0873C45.5878 14.2571 45.2484 14.4268 45.0787 14.5965C44.9089 14.7662 44.9089 15.1057 44.9089 15.4451V16.2938H53.9044V20.7066H40.4961V20.1974Z" fill="white"/>
<path d="M55.4297 8.1468C55.4297 5.09175 55.9389 3.05505 56.7875 1.86698C57.6361 0.6789 59.3334 0 61.5398 0H63.5765C65.7829 0 67.4802 0.6789 68.3288 1.86698C69.1774 3.05505 69.6866 5.26148 69.6866 8.1468V12.2202C69.6866 15.2753 69.1774 17.312 68.3288 18.5C67.4802 19.6881 65.7829 20.367 63.5765 20.367H61.5398C59.3334 20.367 57.6361 19.6881 56.7875 18.5C55.9389 17.312 55.4297 15.2753 55.4297 12.2202V8.1468ZM60.0123 8.31653V12.0505C60.0123 13.7477 60.182 14.7661 60.5214 15.2753C60.8609 15.7844 61.3701 15.9542 62.3884 15.9542H63.0673C63.9159 15.9542 64.5949 15.7844 64.9343 15.2753C65.2738 14.9358 65.4435 13.7477 65.4435 12.0505V8.31653C65.4435 6.61928 65.2738 5.4312 64.9343 5.09175C64.5949 4.7523 64.0857 4.41285 63.0673 4.41285H62.3884C61.5398 4.41285 60.8609 4.58258 60.5214 5.09175C60.182 5.60093 60.0123 6.61928 60.0123 8.31653Z" fill="white"/>
<path d="M73.9307 16.8025C73.2518 16.8025 72.7426 16.6328 72.4032 16.2933C72.0637 15.9539 71.894 15.275 71.894 14.4263V12.2199C71.894 11.3713 72.0637 10.6924 72.4032 10.3529C72.7426 10.0135 73.2518 9.84375 73.9307 9.84375H74.4399C75.1188 9.84375 75.628 10.0135 75.9674 10.3529C76.3069 10.6924 76.4766 11.3713 76.4766 12.2199V14.4263C76.4766 15.275 76.3069 15.9539 75.9674 16.2933C75.628 16.6328 75.1188 16.8025 74.4399 16.8025H73.9307ZM74.1004 15.275H74.2702C74.4399 15.275 74.6096 15.275 74.7794 15.1052C74.7794 14.9355 74.9491 14.5961 74.9491 14.0869V12.5594C74.9491 12.0502 74.9491 11.7107 74.7794 11.541C74.7794 11.3713 74.6096 11.3713 74.2702 11.3713H74.1004C73.9307 11.3713 73.761 11.3713 73.5913 11.541C73.5913 11.7107 73.4216 12.0502 73.4216 12.5594V13.9172C73.4216 14.4263 73.4216 14.7658 73.5913 14.9355C73.761 15.1052 73.761 15.275 74.1004 15.275ZM74.9491 20.3667L80.0408 9.84375H81.0592L75.9674 20.3667H74.9491ZM81.5684 20.3667C80.8895 20.3667 80.3803 20.197 80.0408 19.8575C79.7014 19.5181 79.5317 19.0089 79.5317 17.9906V15.7841C79.5317 14.9355 79.7014 14.2566 80.0408 13.9172C80.3803 13.5777 80.8895 13.408 81.5684 13.408H82.0775C82.7564 13.408 83.2656 13.5777 83.6051 13.9172C83.9445 14.2566 84.1142 14.9355 84.1142 15.7841V17.9906C84.1142 18.8392 83.9445 19.5181 83.6051 19.8575C83.2656 20.197 82.7564 20.3667 82.0775 20.3667H81.5684ZM81.7381 18.6695H81.9078C82.0775 18.6695 82.2473 18.6695 82.417 18.4997C82.417 18.33 82.5867 17.9906 82.5867 17.4814V16.1236C82.5867 15.6144 82.5867 15.275 82.417 15.1052C82.417 14.9355 82.2473 14.9355 81.9078 14.9355H81.7381C81.5684 14.9355 81.3986 14.9355 81.2289 15.1052C81.2289 15.275 81.0592 15.6144 81.0592 16.1236V17.4814C81.0592 17.9906 81.0592 18.33 81.2289 18.4997C81.3986 18.6695 81.5684 18.6695 81.7381 18.6695Z" fill="white"/>
<path d="M41.5134 30.0421L41.174 33.2669C41.174 33.4366 41.0043 33.6063 40.8346 33.9458C40.6648 34.1155 40.4951 34.2852 40.3254 34.2852C40.1556 34.2852 39.9859 34.1155 39.8162 33.9458C39.6465 33.7761 39.6465 33.6063 39.6465 33.2669L40.6648 23.5926C40.6648 23.2531 40.8345 23.0834 41.0043 22.9137C41.174 22.7439 41.3437 22.5742 41.6832 22.5742H43.5501C44.0593 22.5742 44.5685 22.7439 44.9079 22.9137C45.2474 23.0834 45.5868 23.4228 45.7566 23.7623C45.9263 24.1017 46.096 24.4412 46.096 24.9504C46.096 25.4595 46.096 25.799 46.096 26.3082C45.9263 27.4962 45.5868 28.3449 44.9079 29.0238C44.229 29.7027 43.5502 30.0421 42.5318 30.0421H41.5134ZM41.6832 28.3449H43.041C44.2291 28.3449 44.7382 27.666 44.9079 26.3082C44.9079 26.1384 44.9079 25.799 44.9079 25.6293C44.9079 25.4595 44.908 25.1201 44.7382 24.9504C44.5685 24.7806 44.3988 24.6109 44.2291 24.4412C44.0593 24.2715 43.7199 24.2715 43.3804 24.2715H42.0226L41.6832 28.3449Z" fill="white"/>
<path d="M50.8492 33.436C50.5097 33.6057 50.1703 33.7754 49.8308 33.9451C49.4914 34.1149 49.1519 34.1149 48.9822 34.1149C48.6428 34.1149 48.3033 34.1149 48.1336 33.9451C47.7941 33.7754 47.6244 33.6057 47.4547 33.2662C47.285 32.9268 47.1152 32.5873 47.1152 32.2479C47.1152 31.9084 47.1152 31.3993 47.1152 31.0598L47.6244 26.647C47.6244 26.4772 47.7941 26.3075 47.7941 26.1378C47.9638 25.9681 48.1336 25.9681 48.3033 25.9681C48.473 25.9681 48.6428 25.9681 48.8125 26.1378C48.9822 26.3075 48.9822 26.4772 48.9822 26.647L48.473 31.0598C48.473 31.569 48.473 31.9084 48.6427 32.2479C48.8125 32.5873 48.9822 32.5873 49.3217 32.5873C49.4914 32.5873 49.6611 32.5873 50.0006 32.4176C50.1703 32.4176 50.5097 32.2479 50.6795 32.0782V31.9084V31.7387L51.1886 26.4772C51.1886 26.3075 51.3584 26.1378 51.3584 25.9681C51.5281 25.7983 51.6978 25.7983 51.8675 25.7983C52.0373 25.7983 52.207 25.7983 52.3767 25.9681C52.5464 26.1378 52.5464 26.3075 52.5464 26.4772L51.8675 31.9084C51.8675 32.2479 51.8675 32.4176 51.8675 32.4176C51.8675 32.5873 51.8675 32.5873 52.0373 32.7571V32.9268V33.0965C52.0373 33.2662 51.8675 33.436 51.6978 33.6057C51.5281 33.7754 51.3584 33.7754 51.1886 33.7754C51.0189 33.7754 50.8492 33.7754 50.8492 33.6057C51.0189 33.7754 50.8492 33.6057 50.8492 33.436Z" fill="white"/>
<path d="M57.1303 27.4962C56.9606 27.4962 56.7909 27.4962 56.7909 27.4962C56.7909 27.4962 56.6212 27.4962 56.4515 27.4962C56.2817 27.4962 56.2817 27.4962 56.112 27.666C55.9423 27.666 55.7726 27.8357 55.7726 27.8357V28.0054V28.1751L55.2634 33.2669C55.2634 33.4366 55.0937 33.7761 54.9239 33.7761C54.7542 33.9458 54.5845 33.9458 54.4148 33.9458C54.245 33.9458 54.0753 33.9458 53.9056 33.7761C53.7359 33.6063 53.7358 33.4366 53.7358 33.2669L54.245 28.1751C54.245 28.0054 54.245 27.8357 54.245 27.666C54.245 27.4962 54.245 27.3265 54.0753 27.3265V27.1568V26.9871C54.0753 26.8173 54.245 26.6476 54.4148 26.4779C54.5845 26.3082 54.7542 26.3082 54.9239 26.3082C55.0937 26.3082 55.0937 26.3082 55.2634 26.4779C55.4331 26.6476 55.4331 26.6476 55.4331 26.8173C55.7725 26.6476 56.112 26.4779 56.4515 26.3082C56.7909 26.1384 56.9606 26.1384 57.3001 26.1384C57.6395 26.1384 57.8092 26.1384 57.979 26.3082C58.1487 26.4779 58.1487 26.6476 58.1487 26.8173C58.1487 27.1568 57.979 27.3265 57.8093 27.4962C57.4698 27.3265 57.3001 27.4962 57.1303 27.4962Z" fill="white"/>
<path d="M60.691 30.8905C60.5213 30.8905 60.3516 30.8905 60.1819 30.8905C60.0121 30.8905 59.8424 30.8905 59.6727 30.7208V31.3997C59.6727 31.7392 59.6727 32.0786 59.8424 32.2483C60.0121 32.4181 60.3516 32.5878 60.691 32.5878C60.8608 32.5878 61.2002 32.5878 61.3699 32.4181C61.5397 32.4181 61.7094 32.2483 62.0488 32.0786C62.0488 32.0786 62.0488 32.0786 62.2186 32.0786H62.3883C62.558 32.0786 62.7277 32.0786 62.8975 32.2483C62.8975 32.4181 63.0672 32.5878 63.0672 32.7575C63.0672 32.9272 62.8975 33.2667 62.7277 33.4364C62.558 33.6061 62.3883 33.7759 62.0488 33.7759C61.8791 33.9456 61.5397 33.9456 61.2002 33.9456C60.8608 33.9456 60.691 33.9456 60.5213 33.9456C60.1819 33.9456 59.8424 33.9456 59.503 33.7759C59.1635 33.6061 58.9938 33.4364 58.8241 33.2667C58.6543 33.097 58.4846 32.7575 58.4846 32.4181C58.4846 32.0786 58.3149 31.7392 58.4846 31.3997L58.8241 28.5144C58.8241 28.1749 58.9938 27.8355 59.1635 27.496C59.3333 27.1566 59.503 26.8171 59.6727 26.6474C59.8424 26.4777 60.1819 26.1382 60.5213 26.1382C60.8608 25.9685 61.2002 25.9685 61.7094 25.9685C62.558 25.9685 63.0672 26.1382 63.4067 26.6474C63.7461 27.1566 63.9158 27.8355 63.7461 28.5144C63.5764 29.1933 63.4066 29.8722 63.0672 30.2116C62.0488 30.5511 61.5397 30.8905 60.691 30.8905ZM61.8791 28.3447C61.8791 27.8355 61.8791 27.6658 61.7094 27.496C61.5397 27.3263 61.3699 27.1566 61.0305 27.1566C60.691 27.1566 60.3516 27.3263 60.1819 27.496C60.0121 27.6658 59.8424 28.0052 59.8424 28.3447L59.6727 29.363C59.8424 29.363 60.1819 29.363 60.3516 29.363C60.5213 29.363 60.6911 29.363 60.8608 29.363C61.2002 29.363 61.5397 29.1933 61.7094 29.0236C61.7094 29.0236 61.8791 28.6841 61.8791 28.3447Z" fill="white"/>
<path d="M68.8384 34.1152C68.6686 34.1152 68.6687 34.1152 68.4989 34.1152C68.3292 34.1152 68.3292 33.9455 68.1595 33.9455C67.9897 33.7758 67.9897 33.6061 67.9897 33.4363C67.9897 33.2666 67.9897 32.9272 67.9897 32.5877L69.0081 23.4226C69.0081 23.2528 69.1778 23.0831 69.3476 22.9134C69.5173 22.7437 69.687 22.7437 69.8567 22.7437C70.0264 22.7437 70.1962 22.7437 70.3659 22.9134C70.5356 23.0831 70.5356 23.2528 70.5356 23.4226L69.5173 32.418C69.5173 32.5877 69.5173 32.7574 69.5173 32.7574C69.5173 32.9272 69.5173 32.9272 69.687 33.0969C69.687 33.0969 69.687 33.2666 69.8567 33.2666V33.4363C69.8567 33.6061 69.8567 33.9455 69.687 33.9455C69.3475 34.1152 69.1778 34.1152 68.8384 34.1152Z" fill="white"/>
<path d="M72.0641 26.6476C72.0641 26.4779 72.2338 26.3082 72.4035 26.1384C72.5732 25.9687 72.743 25.9687 72.9127 25.9687C73.0824 25.9687 73.2521 25.9687 73.4219 26.1384C73.5916 26.3082 73.5916 26.4779 73.5916 26.6476L72.9127 32.2485C72.9127 32.4183 72.9127 32.588 72.9127 32.588C72.9127 32.588 72.9127 32.7577 73.0824 32.9274C73.0824 32.9274 73.0824 33.0972 73.2521 33.0972V33.2669C73.2521 33.4366 73.2521 33.7761 73.0824 33.7761C72.9127 33.9458 72.743 33.9458 72.5732 33.9458C72.4035 33.9458 72.4035 33.9458 72.2338 33.9458C72.0641 33.9458 72.0641 33.7761 71.8943 33.7761C71.7246 33.6063 71.7246 33.4366 71.7246 33.2669C71.7246 33.0972 71.7246 32.7577 71.7246 32.4183L72.0641 26.6476ZM73.931 23.4228C73.931 23.7623 73.7613 23.932 73.5916 24.1017C73.4219 24.2715 73.2521 24.4412 72.9127 24.4412C72.743 24.4412 72.5732 24.4412 72.4035 24.2715C72.2338 24.1017 72.2338 23.932 72.2338 23.5926C72.2338 23.2531 72.4035 23.0834 72.5732 22.9137C72.743 22.7439 72.9127 22.5742 73.2521 22.5742C73.4218 22.5742 73.5916 22.7439 73.7613 22.9137C73.931 23.0834 73.931 23.2531 73.931 23.4228Z" fill="white"/>
<path d="M75.46 25.4591C75.46 24.9499 75.6298 24.4408 75.7995 24.1013C75.9692 23.7619 76.139 23.4224 76.4784 23.083C76.6481 22.9132 76.9876 22.5738 77.327 22.5738C77.6665 22.4041 78.0059 22.4041 78.3454 22.4041C78.3454 22.4041 78.5151 22.4041 78.6848 22.4041C78.8546 22.4041 79.0243 22.4041 79.194 22.5738C79.3637 22.5738 79.5335 22.7435 79.5335 22.9132C79.7032 23.083 79.7032 23.2527 79.7032 23.4224C79.7032 23.5921 79.5334 23.9316 79.3637 23.9316C79.194 24.1013 79.0243 24.1013 78.8545 24.1013C78.6848 24.1013 78.6848 24.1013 78.5151 24.1013C78.3454 24.1013 78.3454 24.1013 78.1757 24.1013C77.8362 24.1013 77.6665 24.271 77.327 24.4408C77.1573 24.7802 76.9876 25.1197 76.9876 25.4591L76.8178 26.3077H78.0059C78.1756 26.3077 78.3454 26.3077 78.5151 26.4775C78.6848 26.6472 78.6848 26.8169 78.6848 26.9866C78.6848 27.1564 78.5151 27.3261 78.3454 27.4958C78.1756 27.6655 78.0059 27.6655 77.8362 27.6655H76.6481L75.6298 36.4912C75.6298 36.661 75.46 36.8307 75.46 37.0004C75.2903 37.1701 75.1206 37.1701 74.9509 37.1701C74.7811 37.1701 74.6114 37.1701 74.4417 37.0004C74.272 36.8307 74.272 36.661 74.272 36.4912L75.46 25.4591Z" fill="white"/>
<path d="M81.569 30.8905C81.3992 30.8905 81.2295 30.8905 81.0598 30.8905C80.8901 30.8905 80.7203 30.8905 80.5506 30.7208V31.3997C80.5506 31.7392 80.5506 32.0786 80.7203 32.2483C80.8901 32.4181 81.2295 32.5878 81.569 32.5878C81.7387 32.5878 82.0781 32.5878 82.2479 32.4181C82.4176 32.4181 82.5873 32.2483 82.9268 32.0786C82.9268 32.0786 82.9268 32.0786 83.0965 32.0786H83.2662C83.4359 32.0786 83.6057 32.0786 83.7754 32.2483C83.7754 32.4181 83.9451 32.5878 83.9451 32.7575C83.9451 32.9272 83.7754 33.2667 83.6057 33.4364C83.4359 33.6061 83.2662 33.7759 82.9268 33.7759C82.7571 33.9456 82.4176 33.9456 82.0782 33.9456C81.7387 33.9456 81.569 33.9456 81.3992 33.9456C81.0598 33.9456 80.7204 33.9456 80.3809 33.7759C80.0415 33.6061 79.8717 33.4364 79.702 33.2667C79.5323 33.097 79.3625 32.7575 79.3625 32.4181C79.3625 32.0786 79.1928 31.7392 79.3625 31.3997L79.702 28.5144C79.702 28.1749 79.8717 27.8355 80.0414 27.496C80.2112 27.1566 80.3809 26.8171 80.5506 26.6474C80.7203 26.4777 81.0598 26.1382 81.3992 26.1382C81.7387 25.9685 82.0781 25.9685 82.5873 25.9685C83.4359 25.9685 83.9451 26.1382 84.2846 26.6474C84.624 27.1566 84.7938 27.8355 84.624 28.5144C84.4543 29.1933 84.2846 29.8722 83.9451 30.2116C82.9268 30.5511 82.4176 30.8905 81.569 30.8905ZM82.757 28.3447C82.757 27.8355 82.757 27.6658 82.5873 27.496C82.4176 27.3263 82.2479 27.1566 81.9084 27.1566C81.569 27.1566 81.2295 27.3263 81.0598 27.496C80.8901 27.6658 80.7203 28.0052 80.7203 28.3447L80.5506 29.363C80.7203 29.363 81.0598 29.363 81.2295 29.363C81.3993 29.363 81.569 29.363 81.7387 29.363C82.0781 29.363 82.4176 29.1933 82.5873 29.0236C82.5873 29.0236 82.757 28.6841 82.757 28.3447Z" fill="white"/>
</svg>
