<svg width="144" height="145" viewBox="0 0 144 145" fill="none" xmlns="http://www.w3.org/2000/svg">
<path d="M14.2924 67.9339V19.4018C14.2924 13.3569 18.7829 8.17552 24.137 7.65739L86.1407 1.95789C86.4861 1.95789 86.8315 1.95789 87.1769 1.95789C89.9403 1.95789 92.531 2.99416 94.6036 4.89399C96.8488 6.96654 98.0578 9.90265 98.0578 13.1842V77.9512C98.7487 77.6058 99.4395 77.7785 99.9576 77.4331V13.0115C99.9576 9.2118 98.4032 5.75755 95.8126 3.33958C93.0492 0.921614 89.5949 -0.287371 85.7952 0.0580535L23.9643 5.75755C17.5739 6.27569 12.3926 12.4933 12.3926 19.4018V67.4158C13.0834 67.5885 13.6016 67.7612 14.2924 67.9339Z" fill="white"/>
<path d="M98.2302 111.63V132.01C98.2302 135.292 97.0212 138.228 94.7759 140.301C92.5307 142.373 89.4218 143.409 86.313 143.064L24.3094 137.365C18.7826 136.846 14.4648 131.665 14.4648 125.62V121.475C13.7739 121.648 13.0831 121.648 12.5649 121.82V125.62C12.5649 132.529 17.7463 138.746 24.3094 139.264L86.313 144.964C86.6585 144.964 87.1766 144.964 87.522 144.964C90.8035 144.964 93.9124 143.755 96.3303 141.682C99.0937 139.264 100.475 135.81 100.475 132.01V110.767C99.6119 111.285 98.921 111.285 98.2302 111.63Z" fill="white"/>
<path fill-rule="evenodd" clip-rule="evenodd" d="M7.55629 99.7135C8.59257 99.7135 9.80155 99.7135 10.8378 99.7135C10.8378 101.613 10.8378 103.513 11.0105 105.413C11.0105 108.867 10.6651 111.631 9.80155 113.531C8.93799 115.43 7.5563 116.467 6.00189 116.639C4.27476 116.639 3.06578 115.776 2.20222 113.876C1.33866 111.976 0.820522 109.213 0.820522 105.586C0.820522 101.786 0.64781 97.8137 0.64781 94.014C0.64781 90.2144 0.475098 86.242 0.475098 82.4423C0.475098 78.8154 0.820522 76.052 1.68408 74.1521C2.54764 72.2523 3.75663 71.216 5.48375 71.3887C7.21087 71.5615 8.41986 72.5977 9.28342 74.6703C10.147 76.7428 10.6651 79.3335 10.6651 82.9605C10.6651 84.3422 10.6651 85.7239 10.6651 87.1055C9.62884 87.1055 8.41986 86.9328 7.38358 86.9328C7.38358 85.3784 7.38358 83.824 7.38358 82.2696C7.21087 79.5062 6.69273 77.9518 5.48375 77.9518C4.27476 77.9518 3.75663 79.3335 3.75663 82.2696C3.75663 86.242 3.92934 90.2144 3.92934 94.1868C3.92934 98.1591 4.10205 102.132 4.10205 106.104C4.10205 109.04 4.7929 110.422 6.00189 110.422C7.21087 110.422 7.72901 108.867 7.72901 106.104C7.72901 103.859 7.72901 101.786 7.55629 99.7135Z" fill="white"/>
<path fill-rule="evenodd" clip-rule="evenodd" d="M20.1629 74.323C20.8537 81.2315 21.5446 88.14 22.2354 94.8758C22.9263 101.612 23.6171 108.347 24.1353 114.91C22.9263 115.083 21.89 115.083 20.681 115.256C20.681 112.838 20.3356 110.247 20.1629 107.829C18.7812 107.829 17.3995 108.002 15.8451 108.002C15.6724 110.593 15.4997 113.183 15.1542 115.774C14.118 115.774 13.0817 115.947 12.0454 115.947C12.5635 108.693 13.0817 101.612 13.5998 94.5303C14.118 87.4492 14.4634 80.5407 14.9815 73.4595C16.8814 73.6322 18.6085 73.9776 20.1629 74.323ZM17.5722 81.2315C17.3995 84.6858 17.2268 88.14 16.8814 91.767C16.8814 95.2212 16.5359 98.6754 16.3632 102.13C17.3995 102.13 18.6085 102.13 19.6447 102.13C19.2993 98.6754 18.9539 95.2212 18.6085 91.5942C18.4358 88.14 17.9176 84.6858 17.5722 81.2315Z" fill="white"/>
<path fill-rule="evenodd" clip-rule="evenodd" d="M36.5721 113.876C35.3631 113.876 34.1542 114.049 33.1179 114.221C33.1179 113.185 33.1179 111.631 33.1179 109.558C33.1179 107.658 33.1179 105.586 32.9452 103.686C32.9452 101.959 32.7725 100.75 32.427 100.059C32.0816 99.3681 31.3908 98.8499 30.6999 98.8499C30.3545 98.8499 29.8364 98.8499 29.4909 98.8499C29.4909 101.441 29.6636 104.031 29.6636 106.622C29.6636 109.213 29.6636 111.803 29.4909 114.394C28.2819 114.567 27.2457 114.567 26.0367 114.739C26.2094 108.176 26.0367 101.613 25.864 95.0503C25.6913 88.4872 25.5186 81.9241 25.5186 75.3611C27.2457 75.7065 28.9728 76.0519 30.6999 76.3974C32.427 76.7428 33.8087 77.6063 34.6723 79.1608C35.5359 80.7152 36.054 82.7877 36.054 85.7238C36.054 86.7601 36.054 87.6236 36.054 88.6599C36.2267 92.4596 35.3631 94.8776 33.9814 96.0865C35.5359 97.2955 36.3994 99.8862 36.3994 104.031C36.3994 105.931 36.5721 107.831 36.5721 109.731C36.3994 111.285 36.3994 112.84 36.5721 113.876ZM30.5272 81.7514C30.0091 81.7514 29.4909 81.5787 28.8001 81.5787C28.8001 83.4786 28.9728 85.5511 28.9728 87.4509C28.9728 89.3508 28.9728 91.4233 29.1455 93.3232C29.6636 93.3232 30.0091 93.3232 30.5272 93.3232C31.2181 93.3232 31.7362 93.1504 32.0816 92.4596C32.427 91.9415 32.5998 90.9052 32.5998 89.3508C32.5998 88.1418 32.5998 86.9328 32.5998 85.7238C32.427 83.1331 31.7362 81.7514 30.5272 81.7514Z" fill="white"/>
<path fill-rule="evenodd" clip-rule="evenodd" d="M43.1353 77.7792C44.8624 77.7792 46.2441 78.47 47.1077 79.8517C47.9713 81.2334 48.4894 83.306 48.4894 86.0693C48.4894 86.4148 48.4894 86.9329 48.4894 87.2783C48.6621 90.9053 47.9713 93.3233 46.4169 94.5322C48.144 95.5685 49.0075 98.1592 49.1803 102.132C49.1803 103.168 49.1803 104.031 49.1803 105.068C49.1803 107.831 48.8348 109.904 47.9713 111.285C46.935 112.84 45.3806 113.531 43.6535 113.531C41.9263 113.703 40.0265 113.703 38.2994 113.876C38.6448 107.831 38.4721 101.786 38.2994 95.7412C38.1267 89.6963 37.954 83.6514 37.7812 77.6065C39.6811 77.4337 41.4082 77.6065 43.1353 77.7792ZM43.4808 97.2956C42.9626 97.2956 42.4445 97.2956 41.9263 97.2956C41.9263 99.1955 41.9263 100.923 42.0991 102.822C42.0991 104.722 42.2718 106.449 42.2718 108.349C42.9626 108.349 43.6535 108.349 44.1716 108.349C44.8624 108.349 45.2079 108.004 45.5533 107.486C45.8987 106.968 45.8987 106.104 45.8987 104.722C45.8987 103.686 45.8987 102.65 45.8987 101.613C45.8987 100.059 45.726 98.8501 45.3806 98.3319C44.8624 97.6411 44.3443 97.2956 43.4808 97.2956ZM43.308 82.7878C42.7899 82.7878 42.2718 82.7878 41.5809 82.7878C41.5809 84.3422 41.7536 85.8966 41.7536 87.6238C41.7536 89.1782 41.7536 90.7326 41.9263 92.287C42.4445 92.287 42.7899 92.287 43.308 92.287C43.9989 92.287 44.517 91.9416 44.8624 91.4234C45.2079 90.9053 45.3806 89.869 45.3806 88.4873C45.3806 87.7965 45.3806 87.1056 45.3806 86.5875C45.0352 84.1695 44.3443 82.9605 43.308 82.7878Z" fill="white"/>
<path fill-rule="evenodd" clip-rule="evenodd" d="M54.1895 86.0689C54.3622 89.1777 54.3622 92.4592 54.3622 95.568C54.3622 98.6768 54.5349 101.786 54.5349 105.067C54.5349 107.312 55.2257 108.521 56.4347 108.521C57.6437 108.521 58.1618 107.312 58.1618 105.067C58.1618 101.958 57.9891 98.8496 57.9891 95.7407C57.9891 92.6319 57.8164 89.5231 57.6437 86.4143C57.6437 84.169 56.9528 82.96 55.7439 82.96C54.7076 82.6146 54.0167 83.6509 54.1895 86.0689ZM51.0806 104.722C50.9079 101.613 50.9079 98.6768 50.9079 95.568C50.9079 92.4592 50.7352 89.5231 50.5625 86.4143C50.5625 83.6509 50.9079 81.4056 51.7715 79.8512C52.635 78.2968 54.0167 77.606 55.5712 77.606C57.2983 77.606 58.5073 78.6422 59.5435 80.1966C60.4071 81.751 60.9252 83.9963 61.0979 86.7597C61.2707 89.6958 61.2707 92.8046 61.2707 95.7407C61.2707 98.6768 61.4434 101.613 61.4434 104.722C61.4434 111.285 58.8527 113.185 56.9528 113.357C55.3984 113.357 51.4261 113.185 51.0806 104.722Z" fill="white"/>
<path fill-rule="evenodd" clip-rule="evenodd" d="M70.7702 112.32C70.5975 108.348 69.9067 104.376 69.0431 100.403C68.1795 96.431 67.4887 92.2859 66.6251 88.1408C66.7979 92.2859 66.9706 96.2582 66.9706 100.403C66.9706 104.376 67.1433 108.521 66.4524 112.493C65.4162 112.493 64.3799 112.666 63.3436 112.666C63.8617 106.966 63.8617 101.267 63.689 95.7401C63.5163 90.0406 63.3436 84.3411 63.1709 78.6416C64.5526 78.8143 66.107 78.987 67.4887 78.987C68.1796 82.4413 68.8704 85.8955 69.5612 89.177C70.2521 92.4586 70.9429 95.9128 71.6338 99.1943C71.6338 95.9128 71.4611 92.6313 71.2884 89.3497C71.1157 86.0682 71.1157 82.7867 70.9429 79.3324C71.9792 79.5052 73.0155 79.5052 74.0518 79.6779C74.2245 85.2047 74.3972 90.5587 74.5699 95.9128C74.7426 101.267 74.7426 106.621 74.2245 111.975C73.0155 112.148 71.9792 112.148 70.7702 112.32Z" fill="white"/>
<path fill-rule="evenodd" clip-rule="evenodd" d="M76.6416 111.976C77.3325 106.622 77.1597 101.44 77.1597 96.0864C76.987 90.7323 76.8143 85.3782 76.6416 80.0242C77.8506 80.1969 78.8869 80.3696 80.0958 80.5423C80.2686 85.7237 80.4413 91.0777 80.614 96.2591C80.7867 101.44 80.7867 106.622 80.0958 111.803C79.0596 111.803 77.8506 111.803 76.6416 111.976Z" fill="white"/>
<path d="M142.445 86.9324C143.654 86.0688 144 84.8598 144 83.4781C144 81.751 143.482 80.1966 142.273 78.8149C141.236 77.6059 140.2 76.7424 138.646 76.7424C137.782 76.7424 137.61 76.3969 137.437 75.7061C137.091 74.1517 136.055 73.4608 134.673 72.9427C132.255 72.0791 130.01 71.3883 127.592 70.5247C125.692 69.8339 123.62 69.3157 121.72 68.7976C120.856 68.4522 120.166 68.1068 119.302 67.934C118.611 67.7613 118.093 67.7613 117.402 67.5886C117.057 67.5886 116.539 67.5886 116.193 67.7613C115.157 68.1068 114.293 68.7976 113.603 69.4885C112.221 71.0429 110.839 72.77 109.285 74.4971C107.73 76.2242 105.831 78.4695 103.758 79.6785C101.34 81.0602 95.1224 81.9237 91.8408 82.0964C92.359 82.4419 92.8771 82.96 93.2225 83.6509C93.3952 83.9963 93.7407 84.3417 93.9134 84.8598C96.1586 84.5144 98.2312 83.9963 100.304 83.4781C104.276 82.6146 107.73 80.8875 110.666 78.1241C112.566 76.3969 114.121 74.4971 115.848 72.77C116.711 71.9064 117.575 71.3883 118.957 71.2156C119.993 71.0429 121.547 71.9064 122.584 72.0791C124.483 72.4246 125.865 73.2881 127.765 73.8063C129.319 74.3244 131.046 74.6698 132.601 75.188C133.983 75.5334 134.846 76.3969 135.192 77.7786C135.364 78.8149 135.537 80.0239 135.537 81.2329C135.71 82.6146 135.882 83.8236 135.882 85.2053C136.055 86.4142 136.228 87.6232 136.228 88.6595C136.228 89.5231 135.71 89.8685 134.846 89.5231C134.501 89.3504 134.155 89.1776 133.983 89.0049C133.119 88.1414 132.428 87.2778 131.565 86.4142C130.874 84.6871 129.837 83.1327 129.837 81.2329C129.837 80.1966 130.01 79.1603 130.01 78.1241C129.319 78.4695 128.456 78.8149 127.592 79.1603C126.211 79.6785 125.347 79.5058 124.483 78.6422C123.793 77.9514 123.274 77.0878 122.584 76.2242C122.065 75.5334 121.72 74.6698 121.202 73.979C121.202 74.8425 121.375 75.5334 121.72 76.3969C122.238 78.2968 122.238 80.3693 121.547 82.2692C120.856 83.8236 119.82 85.378 118.611 86.4142C116.021 88.6595 113.603 90.9048 111.012 92.9773C109.112 94.359 105.14 96.4316 103.067 97.8132C103.585 93.4954 105.14 90.5593 107.039 86.9324C103.758 88.4868 97.8857 89.8685 94.6042 90.5593C94.6042 90.732 102.376 90.2139 103.24 90.0412C101.685 94.8771 101.167 97.4678 100.822 101.267C107.558 96.777 114.293 94.1863 119.82 88.4868C118.266 93.8409 115.502 98.3314 112.394 102.822L112.566 102.995C114.466 101.613 116.366 100.231 118.266 98.8495C118.957 102.476 119.82 105.931 123.102 108.521C122.238 108.694 121.547 108.867 120.684 108.867C118.266 109.212 115.848 109.212 113.603 108.694C110.148 108.003 106.867 106.449 103.413 105.413C102.204 105.067 101.685 104.722 100.304 104.549L98.7493 104.722C98.0585 104.722 96.3313 105.413 94.7769 105.758C94.6042 106.794 94.0861 107.831 93.3952 108.694C93.2225 108.867 93.0498 109.04 92.8771 109.385C94.7769 108.867 97.5403 107.658 98.7493 107.658C100.476 107.485 102.031 107.831 103.585 108.349C106.176 109.212 108.594 110.076 111.012 110.939C113.775 111.803 116.366 112.148 119.302 111.803C122.584 111.458 126.038 111.112 129.319 110.594C131.046 110.421 132.774 109.903 134.328 108.694C135.537 107.831 136.055 106.449 136.055 105.067C136.055 104.722 136.055 104.376 136.228 104.031C139.337 103.513 140.891 99.1949 140.373 96.777C141.236 96.2588 141.927 95.9134 142.618 95.2226C143.136 94.7044 143.482 93.8409 143.827 93.15C143.827 92.9773 144 92.8046 144 92.8046C144 92.6319 144 92.4592 144 92.2865C144 91.5956 143.827 90.732 143.827 90.0412C143.482 88.4868 143.136 87.7959 142.445 86.9324ZM125.174 81.4056C125.52 81.2329 126.038 81.0602 126.383 81.0602C126.901 81.0602 127.247 81.0602 127.938 81.2329C127.938 81.2329 127.765 83.6509 128.974 86.0688C128.11 85.8961 127.247 85.8961 126.383 85.8961C125.347 85.8961 124.483 85.378 124.311 84.5144C124.311 83.3054 124.138 82.2692 125.174 81.4056ZM133.464 104.722C132.946 106.622 131.219 108.176 129.837 107.831C127.074 107.14 125.347 106.622 123.965 105.067C123.274 104.204 122.756 103.34 123.102 102.131C123.274 101.095 123.793 100.749 124.829 101.095C126.383 101.44 127.765 101.786 129.319 102.131C130.528 102.476 131.565 102.649 132.774 102.995C133.637 103.34 133.81 103.858 133.464 104.722ZM137.61 97.986C137.437 99.1949 136.919 100.059 136.055 100.922C135.537 101.267 135.019 101.44 134.328 101.267C132.255 100.749 130.356 100.231 128.283 99.7131C127.247 99.3677 126.211 99.0222 125.174 98.5041C124.138 97.986 123.965 97.8133 124.138 96.777C124.311 95.2226 125.174 94.359 126.556 94.5317C127.42 94.5317 128.283 94.7044 128.629 94.8771C131.219 95.3953 133.292 95.7407 135.537 96.0861C135.882 96.0861 136.228 96.2588 136.573 96.4316C137.437 96.6043 137.782 97.1224 137.61 97.986ZM138.128 93.8409C135.364 93.8409 132.601 93.3227 129.837 92.6319C128.801 92.4592 127.938 92.2865 126.901 92.1137C125.865 91.941 125.174 91.4229 125.002 90.5593C124.829 89.5231 125.002 88.3141 126.038 87.6232C126.383 87.4505 126.901 87.2778 127.247 87.2778C129.147 87.4505 130.701 88.4868 131.91 89.8685C132.601 90.7321 133.464 91.4229 134.673 91.7683C136.573 92.2865 138.646 91.5956 138.819 89.1776C138.819 88.8322 138.819 88.4868 138.991 87.9687C140.2 87.9687 141.064 89.1776 141.236 90.5593C141.409 92.6319 140.2 93.8409 138.128 93.8409ZM141.236 84.5144C141.064 85.7234 140.028 86.2415 138.646 86.0688C138.473 84.6871 138.473 83.4781 138.3 82.0964C138.3 81.751 138.3 81.0602 138.473 81.0602C138.991 80.8875 139.682 80.7147 140.028 80.8875C140.546 81.0602 140.891 81.5783 141.064 82.0964C141.236 82.7873 141.409 83.6509 141.236 84.5144Z" fill="white"/>
<path d="M93.2208 105.585C93.2208 105.24 93.3936 104.722 93.3936 104.376C93.3936 104.031 93.3936 103.513 93.3936 103.167C93.3936 100.922 93.3936 98.5042 93.2208 96.0863C93.2208 94.3591 93.0481 92.8047 93.0481 91.0776V90.5595C93.0481 90.0413 93.0481 89.5232 93.0481 89.0051C93.0481 88.6596 93.0481 88.3142 93.0481 87.9688V87.7961C93.0481 87.4506 93.0481 87.1052 92.8754 86.7598C92.8754 86.4144 92.7027 86.0689 92.7027 85.8962V85.7235C92.53 85.3781 92.53 85.2054 92.3573 84.86C92.1846 84.5145 92.0119 84.1691 91.6664 83.651C91.321 83.1328 90.8029 82.6147 90.2847 82.0966C90.112 81.9239 89.9393 81.9239 89.7666 81.7511C89.5939 81.5784 89.4212 81.5784 89.2485 81.5784C89.0758 81.5784 88.903 81.4057 88.7303 81.4057C88.7303 81.4057 88.7303 81.4057 88.5576 81.4057C88.3849 81.4057 88.0395 81.233 87.8668 81.233C87.5214 81.233 87.0032 81.0603 86.6578 81.233C85.6215 81.233 84.5852 81.7511 83.8944 82.6147C83.7217 82.7874 83.7217 82.9601 83.549 83.1328C83.3763 83.3056 83.3763 83.4783 83.2035 83.651C83.0308 83.9964 82.8581 84.3418 82.8581 84.86C82.8581 85.2054 82.6854 85.5508 82.6854 85.8962C82.5127 86.5871 82.5127 87.4506 82.5127 88.3142C82.5127 91.0776 82.6854 93.6683 82.6854 96.259C82.6854 98.8496 82.6854 101.613 82.6854 104.204C82.6854 106.622 83.0308 107.658 83.7217 109.04C84.2398 109.903 85.1034 110.767 86.3124 110.939C86.6578 110.939 87.1759 110.939 87.5214 110.939C87.6941 110.939 87.8668 110.939 88.0395 110.767H88.2122C88.3849 110.767 88.3849 110.767 88.5576 110.767C88.7303 110.767 88.7303 110.767 88.903 110.767H89.0758C89.2485 110.767 89.2485 110.767 89.4212 110.594H89.5939C89.7666 110.594 89.7666 110.421 89.9393 110.421C89.9393 110.421 89.9393 110.421 90.112 110.421C90.4575 110.249 90.9756 109.903 91.321 109.558C91.4937 109.385 91.6664 109.212 91.8392 108.867C92.7027 107.658 93.0481 106.622 93.2208 105.585ZM88.7303 106.276C88.5576 106.449 88.3849 106.449 88.0395 106.449C86.8305 106.622 86.3124 105.585 86.1397 103.686C86.1397 101.095 86.1397 99.0224 86.1397 96.259C86.1397 93.4956 85.9669 90.9049 85.9669 88.1415C85.9669 86.7598 86.1397 85.8962 86.8305 85.5508C87.0032 85.3781 87.3486 85.3781 87.6941 85.3781C88.903 85.5508 89.4212 86.5871 89.5939 88.4869C89.5939 91.0776 89.7666 93.6683 89.7666 96.259C89.7666 98.5042 89.7666 100.231 89.7666 102.477C89.7666 102.822 89.7666 103.167 89.7666 103.34C89.7666 103.513 89.7666 103.858 89.7666 104.031C89.9393 105.24 89.4212 105.931 88.7303 106.276Z" fill="white"/>
<path d="M20.511 23.3748C20.511 23.2021 20.511 23.0294 20.6837 22.8567C20.8564 22.6839 20.8564 22.5112 21.0291 22.5112C21.2018 22.5112 21.3745 22.5112 21.3745 22.6839C21.5472 22.8567 21.5472 23.0294 21.5472 23.2021V35.9828C21.5472 36.1555 21.5472 36.5009 21.5472 36.5009C21.5472 36.6736 21.5472 36.8463 21.7199 36.8463V37.0191V37.1918C21.7199 37.3645 21.7199 37.5372 21.5472 37.7099C21.3745 37.8826 21.3745 37.8826 21.2018 37.8826C21.0291 37.8826 21.0291 37.8826 20.8564 37.8826C20.6837 37.8826 20.6837 37.7099 20.511 37.5372C20.3382 37.3645 20.3382 37.1918 20.3382 36.8463C20.3382 36.5009 20.1655 36.1555 20.1655 35.6374V23.3748H20.511Z" fill="white"/>
<path d="M27.7647 30.8012C27.7647 29.2468 27.2466 28.3833 26.0376 28.556C25.6922 28.556 25.5195 28.556 25.3468 28.7287C25.174 28.9014 25.0013 28.9014 24.8286 29.0741C24.8286 29.0741 24.8286 29.0741 24.6559 29.2468H24.4832C24.3105 29.2468 24.3105 29.2468 24.1378 29.0741C24.1378 28.9014 23.9651 28.7287 23.9651 28.556C23.9651 28.3833 23.9651 28.0378 24.1378 27.8651C24.3105 27.6924 24.4832 27.5197 24.6559 27.347C24.8286 27.1743 25.174 27.1743 25.3468 27.0016C25.6922 27.0016 25.8649 26.8289 26.2103 26.8289C27.2466 26.8289 27.9374 27.1743 28.2829 27.8651C28.6283 28.556 28.9737 29.765 28.9737 31.1467V35.9826C28.9737 36.5007 29.1464 36.6735 29.3191 36.6735C29.4918 36.6735 29.6646 36.6735 29.6646 36.8462C29.6646 37.0189 29.8373 37.1916 29.8373 37.3643C29.8373 37.7097 29.8373 37.8824 29.6646 37.8824C29.4918 38.2279 29.3191 38.2279 29.1464 38.2279C28.801 38.2279 28.6283 38.0551 28.4556 37.8824C28.2829 37.7097 28.1101 37.3643 27.9374 37.0189C27.4193 37.8824 26.5557 38.2279 25.8649 38.2279C25.0013 38.2279 24.4832 37.8824 24.1378 37.3643C23.7923 36.8462 23.6196 35.9826 23.6196 34.9463V34.7736C23.6196 32.7011 24.4832 31.4921 26.383 31.4921C26.9012 31.4921 27.4193 31.4921 27.9374 31.8375V30.8012H27.7647ZM26.2103 33.2192C25.8649 33.2192 25.6922 33.2192 25.5195 33.3919C25.3468 33.5646 25.174 33.5646 25.0013 33.7373C24.8286 33.9101 24.8286 34.0828 24.8286 34.2555C24.8286 34.4282 24.8286 34.7736 24.8286 34.9463V35.119C24.8286 35.6372 25.0013 35.9826 25.174 36.328C25.3467 36.6734 25.6922 36.8462 26.2103 36.8462C26.5557 36.8462 26.9012 36.8462 27.0739 36.6735C27.4193 36.5007 27.592 36.328 27.9374 35.9826V33.5646C27.592 33.3919 27.4193 33.3919 27.0739 33.3919C26.7284 33.2192 26.383 33.2192 26.2103 33.2192Z" fill="white"/>
<path d="M36.4014 29.4196V26.4835L39.8556 26.3108V33.0466C39.8556 34.7737 39.5102 36.1554 38.9921 37.019C38.3012 37.8825 37.4376 38.4007 36.2287 38.4007C35.0197 38.4007 34.1561 37.8825 33.638 37.019C32.9471 36.1554 32.7744 34.7737 32.7744 33.0466V22.1657C32.7744 20.4386 33.1198 19.2296 33.638 18.1933C34.3288 17.3298 35.1924 16.8116 36.2287 16.6389C37.4376 16.6389 38.3012 16.9843 38.9921 17.8479C39.6829 18.7115 39.8556 20.0932 39.8556 21.8203V23.8928H37.6104V21.6476C37.6104 20.2659 37.2649 19.575 36.4014 19.575C35.5378 19.575 35.1924 20.2659 35.1924 21.6476V33.0466C35.1924 34.4283 35.5378 35.1191 36.4014 35.1191C37.2649 35.1191 37.6104 34.4283 37.6104 33.0466V29.0742L36.4014 29.4196Z" fill="white"/>
<path d="M49.1814 38.0544H46.5907C46.418 37.3635 46.418 36.5 46.418 35.4637V32.0095C46.418 30.9732 46.2453 30.2823 46.0725 29.9369C45.8998 29.5915 45.3817 29.2461 44.8636 29.4188H44V38.0544H41.582V16.9835L45.3817 16.8108C46.5907 16.8108 47.627 17.1562 48.1451 17.8471C48.6632 18.7106 49.0087 19.9196 49.0087 21.474V23.2011C49.0087 25.4464 48.4905 26.8281 47.2815 27.6917C48.3178 28.3825 49.0087 29.7642 49.0087 32.1822V35.4637C48.8359 36.6727 49.0087 37.5362 49.1814 38.0544ZM45.0363 19.7469H43.8273V26.31H44.8636C45.3817 26.31 45.7271 26.1372 46.0725 25.7918C46.2453 25.4464 46.418 24.9283 46.418 24.0647V21.9922C46.418 20.4377 45.8998 19.7469 45.0363 19.7469Z" fill="white"/>
<path d="M56.2595 16.1208L59.0229 38.0553H56.4322L55.9141 34.0829H52.8052L52.2871 38.0553H49.8691L52.4598 16.2936L56.2595 16.1208ZM54.1869 20.0932L52.978 31.1468H55.3959L54.1869 20.0932Z" fill="white"/>
<path d="M65.9328 38.0556L62.4785 21.9934V38.0556H60.0605V15.9485L63.3421 15.7757L66.1055 29.0746V15.7757L68.5234 15.603V38.0556H65.9328Z" fill="white"/>
<path d="M70.5957 38.0555V15.603L75.0862 15.4302C77.8496 15.2575 79.2313 17.1574 79.2313 20.957V32.5287C79.2313 36.3284 77.8496 38.2282 75.0862 38.2282L70.5957 38.0555ZM75.0862 18.5391H73.5318V34.774H75.0862C76.1225 34.774 76.4679 34.0832 76.4679 32.5287V20.6116C76.4679 19.2299 75.9498 18.5391 75.0862 18.5391Z" fill="white"/>
<path d="M84.0694 18.1929V24.5832L88.0418 24.4105V27.692L84.0694 27.8648V34.6005H89.0781V37.8821H81.1333V14.9113L89.0781 14.5659V17.8475L84.0694 18.1929Z" fill="white"/>
<path d="M35.5366 47.5534V53.771H38.4727V56.7071L35.5366 56.5344V64.9973H33.1187V44.4446H39.1636V47.3807L35.5366 47.5534Z" fill="white"/>
<path d="M40.1987 60.3341V49.6259C40.1987 47.8988 40.5442 46.6898 41.0623 45.8263C41.7531 44.9627 42.6167 44.4446 43.653 44.4446C44.862 44.4446 45.7255 44.9627 46.4164 45.8263C47.1072 46.6898 47.2799 48.0715 47.2799 49.7987V60.6795C47.2799 62.4066 46.9345 63.6156 46.4164 64.4792C45.7255 65.3428 44.862 65.8609 43.653 65.6882C42.444 65.6882 41.5804 65.17 41.0623 64.1338C40.5442 63.2702 40.1987 61.8885 40.1987 60.3341ZM42.444 49.4532V60.6795C42.444 62.0612 42.7894 62.7521 43.653 62.7521C44.5165 62.7521 44.862 62.0612 44.862 60.6795V49.4532C44.862 48.0715 44.5165 47.3807 43.653 47.3807C42.9621 47.3807 42.444 48.0715 42.444 49.4532Z" fill="white"/>
<path d="M56.606 66.0342L54.0153 65.8615C53.8426 65.3434 53.8426 64.4798 53.8426 63.2708V59.9893C53.8426 58.953 53.6699 58.2622 53.4972 57.9168C53.1518 57.3986 52.8064 57.2259 52.1155 57.2259H51.252V65.8615L48.834 65.6888V44.6179H52.4609C53.6699 44.6179 54.7062 44.9633 55.2243 45.8269C55.7425 46.6905 56.0879 47.8994 56.0879 49.6266V51.3537C56.0879 53.5989 55.5698 54.9806 54.5335 55.6715C55.5698 56.3623 56.2606 57.9168 56.2606 60.3347V63.6163C56.2606 64.6525 56.4333 65.5161 56.606 66.0342ZM52.4609 47.7267H51.252V54.2898H52.2882C52.8064 54.2898 53.1518 54.1171 53.3245 53.7717C53.4972 53.4262 53.6699 52.9081 53.6699 52.0445V49.972C53.8426 48.4176 53.3245 47.7267 52.4609 47.7267Z" fill="white"/>
<path d="M57.8148 44.6179H65.0687V47.7267L60.2328 63.0981L65.0687 63.2708V66.3796L57.6421 66.0342V63.0981L62.478 47.7267H57.9875V44.6179H57.8148Z" fill="white"/>
<path d="M71.9797 44.9632L75.0885 66.8977H72.3251L71.807 62.9253L68.5255 62.7526L68.0073 66.725L65.5894 66.5523L68.18 44.7905L71.9797 44.9632ZM70.2526 48.7629L69.0436 59.8165L71.6343 59.9892L70.2526 48.7629Z" fill="white"/>
<path d="M82.1688 56.5351C82.5142 56.5351 82.6869 56.5351 83.0324 56.7078C83.3778 56.7078 83.7232 56.8806 83.8959 57.0533V53.2536C83.8959 53.0809 83.8959 52.9082 84.0686 52.7355C84.2414 52.5627 84.4141 52.5627 84.5868 52.5627C84.7595 52.5627 84.9322 52.5627 85.1049 52.7355C85.2776 52.9082 85.2776 53.0809 85.2776 53.2536V64.1345C85.2776 64.4799 85.2776 64.6526 85.4503 64.8253C85.4503 64.998 85.623 65.1707 85.7958 65.3434V65.5162V65.6889C85.7958 65.8616 85.7958 66.0343 85.6231 66.207C85.4503 66.3797 85.4503 66.3797 85.2776 66.3797C85.1049 66.3797 84.9322 66.3797 84.7595 66.207C84.5868 66.0343 84.4141 65.8616 84.4141 65.6889C84.0686 65.8616 83.7232 66.0343 83.3778 66.207C83.0324 66.3797 82.5142 66.3797 82.1688 66.3797C81.3052 66.3797 80.6144 66.0343 80.269 65.3434C79.7508 64.6526 79.5781 63.789 79.5781 62.7528V60.3348C79.5781 59.8167 79.5781 59.2985 79.7508 58.7804C79.9235 58.2622 79.9235 57.9168 80.269 57.5714C80.4417 57.226 80.7871 57.0533 81.1325 56.7078C81.3052 56.7078 81.6507 56.5351 82.1688 56.5351ZM84.0686 58.2622C83.7232 58.0895 83.5505 58.0895 83.2051 57.9168C82.8597 57.9168 82.6869 57.7441 82.5142 57.7441C81.9961 57.7441 81.478 57.9168 81.3052 58.435C81.1325 58.7804 80.9598 59.4712 80.9598 60.3348V62.7528C80.9598 64.3072 81.478 64.998 82.5142 64.998C82.8597 64.998 83.0324 64.998 83.3778 64.8253C83.7232 64.6526 83.8959 64.6526 84.2413 64.4799V64.3072V64.1345V58.2622H84.0686Z" fill="white"/>
<path d="M89.4245 53.599C89.4245 53.7717 89.4245 54.1172 89.2518 54.2899C89.0791 54.4626 88.9064 54.6353 88.7337 54.6353C88.561 54.6353 88.3883 54.4626 88.2155 54.2899C88.0428 54.1172 88.0428 53.9444 88.0428 53.599C88.0428 53.4263 88.0428 53.0809 88.2155 52.9082C88.3883 52.7355 88.561 52.5627 88.7337 52.5627C88.9064 52.5627 89.0791 52.7355 89.2518 52.9082C89.4245 53.0809 89.4245 53.2536 89.4245 53.599ZM89.2518 65.6889C89.2518 65.8616 89.2518 66.0343 89.0791 66.207C88.9064 66.3797 88.7337 66.3797 88.561 66.3797C88.3882 66.3797 88.2155 66.3797 88.0428 66.207C87.8701 66.0343 87.8701 65.8616 87.8701 65.6889V57.226C87.8701 57.0533 87.8701 56.8806 88.0428 56.7078C88.2155 56.5351 88.3882 56.5351 88.561 56.5351C88.7337 56.5351 88.9064 56.5351 89.0791 56.7078C89.2518 56.8806 89.2518 57.0533 89.2518 57.226V65.6889Z" fill="white"/>
</svg>
