<svg width="84" height="139" viewBox="0 0 84 139" fill="none" xmlns="http://www.w3.org/2000/svg">
<path d="M17.8546 113.336V113.009C17.8546 110.72 17.5276 109.086 16.8738 108.105C16.2199 107.124 14.9122 106.797 13.2775 106.797H12.2968C10.4986 106.797 9.35436 107.288 8.7005 108.432C8.04664 109.413 7.71973 111.374 7.71973 113.99V117.586C7.71973 120.201 8.04664 121.999 8.7005 123.144C9.35436 124.124 10.6621 124.778 12.2968 124.778H13.441C15.0757 124.778 16.2199 124.288 16.8738 123.307C17.5276 122.326 17.8546 120.692 17.8546 118.403V117.913H14.5853V118.24C14.5853 119.057 14.4218 119.711 14.2583 120.038C13.9314 120.365 13.6045 120.528 12.9506 120.528C12.2967 120.528 11.8064 120.365 11.4794 119.874C11.316 119.547 11.1525 118.567 11.1525 117.095V114.317C11.1525 112.845 11.316 111.865 11.4794 111.538C11.6429 111.211 12.1333 110.884 12.9506 110.884C13.6045 110.884 14.0949 111.047 14.2583 111.374C14.5853 111.701 14.5853 112.191 14.5853 113.009V113.336H17.8546Z" fill="white"/>
<path d="M25.8631 124.288V118.24L30.1132 106.961H26.3535L24.2285 113.663L22.1035 106.961H18.3438L22.5938 118.24V124.288H25.8631Z" fill="white"/>
<path d="M40.9024 113.336V113.009C40.9024 110.72 40.5755 109.086 39.9216 108.105C39.2678 107.124 37.9601 106.797 36.3254 106.797H35.3446C33.5465 106.797 32.4022 107.288 31.7484 108.432C31.0945 109.413 30.7676 111.374 30.7676 113.99V117.586C30.7676 120.201 31.0945 121.999 31.7484 123.144C32.4022 124.124 33.71 124.778 35.3446 124.778H36.4889C38.1235 124.778 39.2678 124.288 39.9216 123.307C40.5755 122.326 40.9024 120.692 40.9024 118.403V117.913H37.4697V118.24C37.4697 119.057 37.3062 119.711 37.1427 120.038C36.8158 120.365 36.4889 120.528 35.835 120.528C35.1811 120.528 34.6908 120.365 34.3638 119.874C34.2004 119.547 34.0369 118.567 34.0369 117.095V114.317C34.0369 112.845 34.2004 111.865 34.3638 111.538C34.5273 111.211 35.0177 110.884 35.835 110.884C36.4889 110.884 36.9793 111.047 37.1427 111.374C37.4697 111.701 37.4697 112.191 37.4697 113.009V113.336H40.9024Z" fill="white"/>
<path d="M43.0273 106.961V124.288H51.8544V120.365H46.4601V106.961H43.0273Z" fill="white"/>
<path d="M62.6433 110.884V106.961H53.4893V124.288H62.8068V120.529H56.7586V117.259H62.4798V113.826H56.7586V110.884H62.6433Z" fill="white"/>
<path d="M64.6064 118.894V120.038C64.6064 121.509 64.9334 122.653 65.5872 123.307C66.2411 123.961 67.2219 124.288 68.6931 124.288H71.3085C72.4528 124.288 73.2701 123.797 73.9239 122.98C74.5778 122.163 74.9047 121.019 74.9047 119.547V117.913C74.9047 116.605 74.5778 115.624 74.0874 114.97C73.597 114.317 72.7797 113.826 71.7989 113.663L69.3469 113.336C68.5296 113.172 68.0392 112.845 68.0392 112.191V111.538C68.0392 111.047 68.2027 110.884 68.3661 110.557C68.5296 110.393 68.8565 110.23 69.5104 110.23H70.3277C70.8181 110.23 71.1451 110.393 71.3085 110.557C71.472 110.72 71.6354 111.047 71.6354 111.701V111.865H74.7412V110.72C74.7412 109.413 74.4144 108.432 73.7605 107.778C73.1066 107.124 72.1258 106.797 70.9816 106.797H69.02C68.2026 106.797 67.5488 106.797 67.0584 106.961C66.568 107.124 66.2411 107.288 65.9141 107.778C65.5872 108.105 65.2603 108.759 65.0968 109.249C64.9334 109.903 64.7699 110.557 64.7699 111.374V112.518C64.7699 113.99 64.9334 114.97 65.4238 115.788C65.9142 116.442 66.568 116.932 67.5488 117.095L70.1642 117.422C70.6546 117.586 71.1451 117.586 71.3085 117.749C71.472 117.913 71.4719 118.24 71.4719 118.567V119.384C71.4719 119.874 71.3085 120.201 71.145 120.365C70.9816 120.528 70.6546 120.692 70.1642 120.692H69.3469C68.6931 120.692 68.3662 120.528 68.0392 120.365C67.8758 120.038 67.7123 119.711 67.7123 119.057V118.894H64.6064Z" fill="white"/>
<path d="M26.6805 24.5744L26.844 10.1895L24.0651 10.3529L18.9977 23.5936L13.7668 11.1702L11.1514 11.4972V25.8821L12.786 25.7186V12.6414L17.8534 25.3917L19.9785 25.0648L25.0459 11.6606V24.7378L26.6805 24.5744Z" fill="white"/>
<path d="M35.3441 24.0849L37.3056 23.9214C39.2672 23.758 40.7384 23.2676 41.5557 22.4503C42.3731 21.6329 42.7 20.3252 42.7 18.5271V13.6231C42.7 11.825 42.3731 10.5173 41.5557 9.86345C40.7384 9.20959 39.4307 9.04613 37.3056 9.20959L35.3441 9.37306C33.3825 9.53652 31.9113 10.0269 31.094 10.8442C30.2767 11.6616 29.9497 12.9693 29.9497 14.7674V19.6714C29.9497 21.4695 30.2767 22.7772 31.094 23.4311C31.9113 23.9214 33.219 24.2484 35.3441 24.0849ZM32.4017 22.1233C32.0748 21.9599 31.9113 21.6329 31.7478 21.1425C31.5844 20.8156 31.5844 19.9983 31.5844 19.0175V14.9309C31.5844 13.9501 31.5844 13.1328 31.7478 12.8058C31.9113 12.3154 32.0748 11.9885 32.4017 11.825C32.7286 11.4981 33.0556 11.3346 33.546 11.1712C34.0364 11.0077 34.6902 10.8442 35.8345 10.8442H36.8153C37.796 10.6808 38.6134 10.6808 39.1038 10.8442C39.5942 10.8442 39.9211 11.0077 40.248 11.3346C40.5749 11.4981 40.7384 11.825 40.9019 12.3154C41.0653 12.6424 41.0653 13.4597 41.0653 14.4405V18.5271C41.0653 19.5079 41.0653 20.3252 40.9019 20.6521C40.7384 21.1425 40.5749 21.4695 40.248 21.6329C39.9211 21.9599 39.5942 22.1233 39.1038 22.2868C38.6134 22.4503 37.9595 22.6137 36.8153 22.6137H35.8345C34.8537 22.7772 34.0364 22.7772 33.546 22.6137C33.0556 22.4503 32.7286 22.2868 32.4017 22.1233Z" fill="white"/>
<path d="M56.9251 13.1324V11.0073C56.9251 9.69961 56.5981 8.88229 55.9443 8.55536C55.2904 8.06496 54.1462 7.9015 52.5115 8.06496L45.646 8.55536V22.9403L47.2806 22.7768V17.219L52.5115 16.7286C53.4923 16.5651 54.1462 16.7286 54.4731 17.0555C54.8 17.3825 54.9635 18.0363 54.9635 19.1806V22.123L56.7616 21.9595V18.5267C56.7616 17.5459 56.5982 16.8921 56.2712 16.5651C55.9443 16.2382 55.4539 15.9113 54.8 15.7478C55.4539 15.5844 55.9443 15.2574 56.2712 14.767C56.7616 14.4401 56.9251 13.9497 56.9251 13.1324ZM55.1269 12.9689C55.1269 13.7862 54.9635 14.2766 54.4731 14.6036C54.1462 14.9305 53.3288 15.094 52.0211 15.2574L47.2806 15.5844V9.86308L52.0211 9.53615C53.3288 9.37268 54.1462 9.53615 54.4731 9.69961C54.8 10.0265 54.9635 10.5169 54.9635 11.3343L55.1269 12.9689Z" fill="white"/>
<path d="M70.4901 8.06458V6.42993L60.0283 7.41072V21.7956L70.4901 20.9783V19.3437L61.663 20.161V14.9301L70.3266 14.2763V12.8051L61.663 13.4589V8.71844L70.4901 8.06458Z" fill="white"/>
<path d="M82.4236 90.2874C81.7697 90.2874 81.2793 90.7778 81.2793 91.4317V123.144C81.2793 127.884 79.9716 131.644 77.5196 133.933C75.0677 136.058 71.6349 137.038 67.5483 136.711L11.8067 131.317H11.6432C6.57582 131.317 2.48921 127.231 2.48921 122.163V18.0359C2.48921 12.4781 7.39315 7.90104 11.8067 7.41064L67.7117 2.17976C72.2888 1.85283 75.7215 2.67016 78.01 4.7952C80.1351 6.75678 81.2793 10.0261 81.2793 14.4396V64.4599C80.1351 85.0565 62.4809 100.749 41.8843 99.6049C32.4033 99.1145 23.7397 94.8644 17.528 87.8354C11.1529 80.8064 8.04701 71.6524 8.53741 62.1714C9.5182 43.6999 25.5378 29.4784 44.0093 30.4592C61.5001 31.44 75.0677 46.4788 74.0869 64.133C73.1061 80.8064 58.8846 93.5567 42.2112 92.5759C26.3551 91.7586 14.2587 78.191 15.2395 62.3349C16.0568 47.2961 28.9705 35.8536 43.8458 36.6709C58.0673 37.4882 68.856 49.5846 68.0387 63.8061C67.2214 77.2102 55.7788 87.5085 42.2112 86.8547C35.9995 86.5277 30.4417 83.7488 26.1916 79.1718C22.105 74.5948 19.98 68.5466 20.3069 62.4984C20.6338 56.6136 23.2493 51.2193 27.6628 47.4596C32.0764 43.5364 37.6342 41.5748 43.5189 41.9018C54.9615 42.5556 63.7886 52.3635 63.1347 63.8061C62.8078 69.037 60.5193 73.9409 56.5961 77.3737C52.673 80.8064 47.6055 82.6046 42.3747 82.2776C32.0764 81.6238 24.2301 72.7967 24.8839 62.6618C25.3743 53.0174 33.711 45.498 43.5189 45.9884C52.673 46.4788 59.8654 54.4886 59.2115 63.6426C59.0481 67.8927 57.0865 71.8159 53.9807 74.5948C50.8749 77.3737 46.7882 78.8449 42.5381 78.5179C34.3649 78.0275 27.9897 70.9985 28.4801 62.6618C28.6436 58.9021 30.4417 55.4694 33.2206 52.8539C35.9995 50.4019 39.7592 49.0942 43.5189 49.2577C50.8748 49.7481 56.5961 55.9598 56.1057 63.4791C55.9423 66.9119 54.4711 70.0177 51.8556 72.3063C49.4036 74.5948 46.1344 75.739 42.7016 75.5756C39.4323 75.4121 36.4899 73.9409 34.3649 71.6524C32.2398 69.2004 31.0956 66.258 31.259 62.9888C31.586 56.7771 36.9803 51.8731 43.192 52.3635C45.317 52.527 47.1151 53.1809 48.7498 54.3251C47.1151 53.1809 45.317 52.527 43.192 52.3635C36.9803 52.0366 31.7494 56.7771 31.259 62.9888C31.0956 66.0946 32.0764 69.2004 34.2014 71.4889C36.3265 73.7774 39.1054 75.2486 42.3747 75.4121C42.5381 75.4121 42.8651 75.4121 43.0285 75.4121C49.5671 75.4121 54.9615 70.3447 55.2884 63.8061C55.6153 56.6136 50.221 50.5654 43.192 50.2385C35.6726 49.7481 29.2975 55.4694 28.9705 62.9888C28.8071 66.7484 29.9513 70.3447 32.5668 73.287C35.0187 76.0659 38.615 77.8641 42.3747 78.0275C46.2978 78.191 50.221 76.8833 53.1634 74.2678C56.1057 71.6524 57.9039 67.8927 58.0673 63.9695C58.5577 55.3059 52.0191 47.95 43.3555 47.4596C38.9419 47.1326 34.8553 48.6038 31.586 51.5462C28.3167 54.4886 26.3551 58.4117 26.1916 62.8253C25.7012 72.3063 32.8937 80.4795 42.3747 80.9699C47.1152 81.2968 51.8556 79.6622 55.4519 76.3929C59.0481 73.1236 61.1732 68.71 61.5001 63.9695C61.827 58.9021 60.0289 53.9982 56.7596 50.2385C53.3268 46.4788 48.7498 44.1903 43.6824 44.0268C32.7302 43.3729 23.4127 51.8731 22.7589 62.6618C22.105 74.1044 30.9321 84.0757 42.3747 84.7296C54.4711 85.3835 64.7694 76.2294 65.4232 64.133C66.0771 51.5462 56.4326 40.594 43.8458 39.9402C37.4707 39.6133 31.259 41.7383 26.3551 45.9884C21.6146 50.2385 18.6722 56.1232 18.3453 62.6618C18.0184 69.3639 20.3069 75.9025 24.7204 80.9699C29.2975 86.0373 35.5091 88.9797 42.2112 89.4701C56.923 90.2874 69.5099 79.0083 70.3272 64.4599C71.1445 49.0942 59.375 35.8536 44.0093 35.0362C27.8263 34.0554 13.9318 46.4788 12.951 62.6618C11.9702 79.6622 25.0474 94.2106 42.0477 95.1914C59.8654 96.1722 75.2312 82.4411 76.2119 64.6234C77.1927 45.8249 62.8078 29.8053 44.1728 28.6611C24.3935 27.5168 7.55661 42.7191 6.41236 62.3349C5.92196 72.3063 9.19127 81.9507 15.8933 89.4701C22.5954 96.9895 31.7494 101.403 41.8843 102.057C63.6251 103.365 82.4236 86.5277 83.5679 64.7869V14.6031C83.5679 9.53569 82.2601 5.77599 79.4812 3.32402C76.7023 0.87204 72.7792 -0.272215 67.5483 0.0547147L11.4798 5.2856C6.08544 5.93946 0.200684 11.3338 0.200684 18.1993V122.163C0.200684 128.375 5.26811 133.442 11.4798 133.442L67.2214 138.837C67.8752 138.837 68.5291 139 69.1829 139C73.1061 139 76.5388 137.856 78.9908 135.567C81.9332 132.788 83.5679 128.702 83.5679 123.144V91.2682C83.5679 90.7778 83.0775 90.2874 82.4236 90.2874ZM42.8651 68.3831C39.9227 68.3831 37.6342 66.0946 37.6342 63.1522C37.6342 60.2099 39.9227 57.9213 42.8651 57.9213C45.8074 57.9213 48.0959 60.2099 48.0959 63.1522C48.0959 66.0946 45.8074 68.3831 42.8651 68.3831Z" fill="white"/>
</svg>
