<svg width="113" height="139" viewBox="0 0 113 139" fill="none" xmlns="http://www.w3.org/2000/svg">
<path d="M45.9821 11.8008L41.7368 25.4464C41.4489 26.785 40.8816 28.048 40.0719 29.1529C39.3074 29.7668 38.3361 30.0642 37.3583 29.9839H36.3927C35.1441 29.9839 34.3949 29.7014 34.1785 29.1363C34.0202 27.8809 34.2043 26.6061 34.7112 25.4464L38.9565 11.8008H33.6957L29.3005 25.9285C28.7781 27.415 28.4153 28.9528 28.2184 30.5158C28.1084 31.3929 28.2171 32.2836 28.5347 33.1087C28.8338 33.909 29.4299 34.5637 30.1995 34.937C31.3437 35.3576 32.561 35.5441 33.7789 35.4854H36.4093C37.7349 35.5214 39.0573 35.3361 40.3217 34.937C41.4017 34.5403 42.3839 33.9168 43.2018 33.1087C43.9694 32.36 44.6153 31.4964 45.1163 30.549C45.8273 29.0584 46.4174 27.5133 46.8811 25.9285L51.2595 11.8008H45.9987H45.9821Z" fill="white"/>
<path d="M57.9691 17.053H61.4486C62.2977 17.053 62.8471 17.2524 63.1134 17.6513C63.2467 17.9641 63.3154 18.3004 63.3154 18.6402C63.3154 18.9801 63.2467 19.3164 63.1134 19.6292L62.6806 20.9755C62.4974 21.798 62.1143 22.5629 61.5651 23.2027C61.0299 23.616 60.3578 23.812 59.6839 23.7511H55.988L57.9691 17.053ZM54.3065 11.8008L47.0312 35.2029H52.3254L54.2566 28.9701H58.2355C60.4389 29.0916 62.6163 28.4454 64.3953 27.1418C66.1471 25.5343 67.3862 23.4475 67.9581 21.1417L68.4409 19.5959C69.2899 16.8203 69.3565 14.8258 68.6073 13.6124C67.8582 12.3991 66.1767 11.8008 63.6129 11.8008H54.3065Z" fill="white"/>
<path d="M79.0289 11.5182C77.9717 11.4881 76.9149 11.5886 75.8824 11.8174C75.1372 12.0023 74.4394 12.3422 73.8347 12.8146C73.0751 13.3966 72.4218 14.105 71.9035 14.9088C71.3292 15.8157 70.8758 16.7935 70.555 17.8174L70.1055 19.2634C69.5183 20.6485 69.4358 22.1952 69.8724 23.6347C70.1616 24.1653 70.5868 24.6097 71.1046 24.9222C71.6224 25.2347 72.2141 25.4041 72.8191 25.4132L76.9479 25.9617C77.5476 25.9605 78.1315 26.1529 78.6127 26.5101C78.7016 26.6971 78.7476 26.9015 78.7476 27.1085C78.7476 27.3154 78.7016 27.5198 78.6127 27.7068L78.2964 28.7207C78.1742 29.2697 77.8543 29.7547 77.3974 30.0836C76.8427 30.3858 76.2133 30.5241 75.5827 30.4825H74.2509C73.9213 30.5267 73.5863 30.5038 73.2658 30.4152C72.9454 30.3267 72.6462 30.1743 72.3863 29.9672C72.1199 29.6348 72.1032 29.0365 72.3863 28.1889V27.9561H67.2919L66.7925 29.6182C66.4533 30.3265 66.2912 31.1063 66.3202 31.8908C66.3492 32.6753 66.5684 33.4411 66.959 34.1224C67.5803 34.6758 68.314 35.0885 69.11 35.3324C69.9059 35.5762 70.7453 35.6454 71.5705 35.5352H75.8824C77.5918 35.537 79.2432 34.9166 80.5272 33.7901C81.9501 32.5619 82.9805 30.9437 83.4906 29.1362L84.2065 26.8924C84.4768 26.268 84.6162 25.5949 84.6162 24.9146C84.6162 24.2343 84.4768 23.5612 84.2065 22.9367C83.8381 22.404 83.3492 21.9653 82.7794 21.6563C82.2096 21.3474 81.575 21.1767 80.9268 21.1582L77.1643 20.6264C75.7992 20.4435 75.2498 19.9283 75.4995 19.064L75.7992 18.0834C75.9262 17.5899 76.2278 17.159 76.6482 16.8701C77.2249 16.6001 77.8606 16.48 78.4962 16.521H79.7281C80.444 16.521 80.9102 16.654 81.0933 16.92C81.2764 17.1859 81.2764 17.6845 81.0933 18.3825V18.6485H86.171L86.6704 16.9864C86.9635 16.3334 87.0895 15.618 87.0372 14.9043C86.9849 14.1907 86.7559 13.5012 86.3708 12.8977C85.84 12.3726 85.1981 11.9731 84.4922 11.7286C83.7863 11.4841 83.0344 11.4008 82.292 11.4849L79.0289 11.5182Z" fill="white"/>
<path d="M43.818 109.415L41.1543 118.573H46.8647L47.4473 116.528H43.7514L44.2509 114.8H47.7637L48.2797 113.038H44.767L45.2165 111.459H48.8458L49.4285 109.415H43.818Z" fill="white"/>
<path d="M54.7559 109.415L52.7747 112.589L52.6249 109.415H50.3774L50.7936 113.819L47.4307 118.573H49.7115L52.0089 115.082L52.242 118.573H54.5228L53.9734 113.819L57.02 109.415H57.0034H54.7559Z" fill="white"/>
<path d="M57.4698 109.415L56.8872 111.459H58.8017L56.7373 118.573H58.7684L60.8328 111.459H62.7473L63.3467 109.415H63.33H57.4698Z" fill="white"/>
<path d="M65.5607 111.443H66.6928C67.0257 111.443 67.2255 111.526 67.3088 111.675C67.3885 111.935 67.3885 112.213 67.3088 112.473L67.1922 112.822C67.1343 113.119 66.9962 113.395 66.7927 113.62C66.5725 113.769 66.3086 113.839 66.0435 113.819H64.9281L65.5607 111.443ZM64.1456 109.415L61.4985 118.573H63.4963L64.2788 115.897H65.3942C65.7105 115.897 65.927 115.897 66.0102 116.113C66.099 116.372 66.099 116.652 66.0102 116.911L65.5274 118.573H67.5751L68.1245 116.678C68.2828 116.255 68.2828 115.788 68.1245 115.365C68.0332 115.193 67.8999 115.046 67.737 114.939C67.5741 114.831 67.3868 114.766 67.1922 114.75C67.6776 114.675 68.1266 114.448 68.4741 114.102C68.8455 113.688 69.1136 113.193 69.2566 112.656L69.473 111.925C69.7394 110.977 69.7061 110.262 69.473 109.963C69.24 109.664 68.4242 109.415 67.2588 109.415H64.1456Z" fill="white"/>
<path d="M71.2877 109.415L68.624 118.573H74.3177L74.917 116.528H71.2212L71.7206 114.8H75.2334L75.7494 113.038H72.22L72.6862 111.459H76.3155L76.8982 109.415H76.8815H71.2877Z" fill="white"/>
<path d="M84.0902 109.415L80.6274 116.03L81.0103 109.415H78.0968L75.4331 118.573H77.3809L79.3621 111.758L78.8959 118.573H80.9104L84.3566 111.841L82.4087 118.573H84.3566L87.0203 109.415H87.0036H84.0902Z" fill="white"/>
<path d="M88.2853 109.415L85.6382 118.573H91.3319L91.9312 116.528H88.2353L88.7348 114.8H92.2475L92.747 113.038H89.2342L89.7004 111.459H93.3297L93.9124 109.415H93.8957H88.2853Z" fill="white"/>
<path d="M41.8874 122.961H43.2026C43.3191 122.943 43.4382 122.955 43.5488 122.996C43.6595 123.037 43.758 123.105 43.8352 123.194C43.9254 123.446 43.9254 123.722 43.8352 123.975L43.6854 124.507C43.6127 124.822 43.4705 125.117 43.2692 125.371C43.1702 125.453 43.056 125.514 42.933 125.551C42.8101 125.588 42.681 125.6 42.5533 125.587H41.1548L41.8874 122.961ZM40.4723 120.883L37.8252 130.041H39.823L40.5388 127.598H42.0372C42.875 127.648 43.7028 127.394 44.3679 126.883C45.0229 126.245 45.4796 125.431 45.6832 124.54L45.8663 123.925C46.1646 123.178 46.1646 122.345 45.8663 121.598C45.5833 121.116 44.934 120.883 43.9517 120.883H40.4723Z" fill="white"/>
<path d="M47.6636 127.731C47.6092 127.227 47.6836 126.718 47.88 126.252L48.3128 124.739C48.4315 124.209 48.652 123.706 48.9621 123.26C49.2432 123.034 49.6017 122.926 49.961 122.961H50.3273C50.7768 122.961 51.0598 123.06 51.1431 123.26C51.1982 123.763 51.1237 124.272 50.9266 124.739L50.4938 126.252C50.3911 126.779 50.1752 127.278 49.8611 127.714C49.7237 127.83 49.5647 127.917 49.3932 127.972C49.2218 128.026 49.0414 128.046 48.8622 128.03H48.4793C48.0298 128.03 47.7635 127.93 47.6636 127.731ZM50.2773 120.8C49.3788 120.745 48.4945 121.043 47.8134 121.631C47.081 122.46 46.5712 123.46 46.3317 124.54L45.7823 126.451C45.3878 127.369 45.3116 128.393 45.5659 129.36C45.8323 129.908 46.4982 130.191 47.5637 130.191H48.5459C49.444 130.242 50.327 129.944 51.0099 129.36C51.7381 128.528 52.2474 127.528 52.4916 126.451L53.0409 124.54C53.425 123.618 53.4952 122.596 53.2407 121.631C52.991 121.082 52.3251 120.8 51.2596 120.8H50.2773Z" fill="white"/>
<path d="M62.697 120.917L59.8835 127.93L60.8324 120.917H58.6016L55.4051 127.93L56.7203 120.917H54.7059L53.1909 130.075H53.2076H56.0877L58.8347 123.858L57.9523 130.075H60.8158L64.7115 120.917H64.6282H62.697Z" fill="white"/>
<path d="M65.5606 120.917L62.9136 130.075H68.6073L69.2066 128.03H65.4941L65.9935 126.318H69.5063L70.0224 124.54H66.5096L66.9757 122.961H70.5884L71.1877 120.917H71.1711H65.5606Z" fill="white"/>
<path d="M73.7682 122.961H74.8836C75.2166 122.961 75.4164 122.961 75.4996 123.177C75.5968 123.434 75.5968 123.718 75.4996 123.975L75.3997 124.324C75.3325 124.621 75.1891 124.896 74.9835 125.122C74.7768 125.286 74.5141 125.363 74.251 125.338H73.1189L73.7682 122.961ZM72.3531 120.916L69.7061 130.075H71.7038L72.4697 127.399H73.5851C73.9181 127.399 74.1178 127.482 74.2011 127.615C74.2979 127.878 74.2979 128.166 74.2011 128.429L73.7349 130.091H75.7826L76.332 128.196C76.473 127.77 76.473 127.31 76.332 126.883C76.2352 126.716 76.1005 126.573 75.9386 126.466C75.7768 126.359 75.5923 126.292 75.3997 126.268C75.8808 126.207 76.3268 125.984 76.665 125.637C77.0514 125.225 77.3264 124.722 77.4641 124.174L77.6639 123.443C77.8215 123.14 77.9038 122.804 77.9038 122.462C77.9038 122.121 77.8215 121.784 77.6639 121.482C77.0254 121.002 76.2261 120.788 75.433 120.883L72.3531 120.916Z" fill="white"/>
<path d="M0 72.4169L51.9924 73.9128C52.1755 73.9128 52.3254 73.73 52.5085 73.6635C53.4241 73.2646 53.7071 72.4668 54.0235 71.536V71.3532C54.14 71.0374 54.2565 70.7216 54.3564 70.4058L54.7393 69.3088L0 72.4169Z" fill="white"/>
<path d="M0 56.4444L71.0379 58.1065C73.2522 56.4444 75.1168 54.7823 77.1478 53.0205L0 56.4444Z" fill="white"/>
<path d="M0 78.3838L44.9502 79.7966C46.1448 78.0608 47.6521 76.5616 49.3953 75.3755L0 78.3838Z" fill="white"/>
<path d="M0 61.8296L63.6794 63.3088C64.6598 62.8496 65.5913 62.2927 66.4597 61.6467C67.9247 60.6162 69.19 59.5525 70.6051 58.4556L0 61.8296Z" fill="white"/>
<path d="M0 67.0486L55.1555 68.4613C55.2867 68.0967 55.4425 67.7413 55.6217 67.3976C56.1375 66.3998 56.9111 65.5577 57.8624 64.9587C58.8138 64.3596 59.9082 64.0253 61.0324 63.9903C61.2654 63.9903 61.4819 63.9904 61.715 63.874L0 67.0486Z" fill="white"/>
<path d="M82.7084 90.8327C82.7158 90.7887 82.7158 90.7437 82.7084 90.6997C82.7158 90.7437 82.7158 90.7887 82.7084 90.8327ZM72.6195 39.757C71.6206 40.0063 71.6206 40.0063 70.4053 40.3886C69.8923 40.5551 69.409 40.802 68.9736 41.1199C70.8451 40.4945 72.7843 40.0928 74.7505 39.9232C74.7505 40.1226 74.7505 40.1891 74.634 40.2057L74.2843 40.2888C71.5598 40.7447 68.9068 41.5549 66.3931 42.6988C65.5838 43.0927 64.728 43.3831 63.8459 43.5631C63.6149 43.5614 63.3852 43.5278 63.1633 43.4634C62.8568 43.3906 62.5375 43.3906 62.231 43.4634C60.9158 43.8457 60.15 43.3138 58.9014 43.0479C58.4519 42.9648 57.5362 42.5991 57.3864 42.9316C57.2366 43.264 58.069 43.4136 58.2688 43.5133C58.9347 43.8291 59.7671 43.8956 59.8171 44.3942C59.6173 44.71 59.4008 44.5271 59.1844 44.4773C58.3021 44.2778 55.8548 44.3942 55.8548 44.8429C55.8548 45.2917 57.8526 45.192 58.8847 45.3083C59.5007 45.3914 59.6672 45.541 59.1678 45.9399C59.0346 46.0563 57.3864 46.6546 56.4375 47.12C56.2876 47.2031 56.0878 47.469 56.1211 47.5854C56.1544 47.7017 56.1211 47.8014 56.3542 47.8347C56.6066 47.8409 56.8571 47.7897 57.0867 47.6851C57.9691 47.3194 59.9169 46.5383 60.1833 46.771C60.4497 47.0036 58.635 48.433 57.8692 49.0812C57.5695 49.3305 57.4697 49.6297 57.6028 49.7295C57.9857 50.0452 60.0834 48.5494 60.9325 47.8014C61.2654 47.5189 61.7482 47.8014 60.7161 49.7793C60.433 50.3278 61.2488 51.1256 62.1145 49.0314C62.3668 48.254 62.8001 47.5474 63.3789 46.9695C63.9577 46.3917 64.6655 45.9591 65.4441 45.7072C67.2517 45.2316 69.0863 44.8653 70.9381 44.6102C73.2367 44.1504 75.5992 44.1054 77.9137 44.4773C79.2894 44.6605 80.5596 45.3122 81.5097 46.3222C81.6096 46.4053 81.6262 46.5715 81.7594 46.8873C80.751 46.0016 79.5083 45.4245 78.18 45.2252C78.3798 45.6407 78.513 45.9898 78.6961 46.3056C79.5414 47.695 80.6101 48.936 81.8593 49.9788C83.0913 51.1256 84.3565 52.2558 85.4886 53.4858C86.0668 54.2165 86.3425 55.1408 86.2588 56.0683C86.1752 56.9958 85.7387 57.856 85.0391 58.472C85.0656 58.3411 85.1046 58.2131 85.1556 58.0897C85.1956 57.9424 85.2457 57.798 85.3055 57.6576C85.6829 56.8779 85.7696 55.9894 85.5499 55.1517C85.3302 54.3139 84.8185 53.5818 84.1068 53.0868C83.058 52.1561 81.9425 51.3084 80.7772 50.3611L80.9936 50.5937C76.5581 54.8477 71.7868 58.7385 66.7261 62.2283C65.0717 63.5573 63.0749 64.3927 60.9658 64.6383C59.9562 64.6702 58.9735 64.9705 58.119 65.5081C57.2644 66.0456 56.569 66.8011 56.1045 67.6965C55.6406 68.6342 55.2509 69.6067 54.9391 70.6052L54.6062 71.5858V71.752C54.5019 72.2826 54.2785 72.7826 53.9526 73.2145C53.6267 73.6464 53.207 73.9987 52.7249 74.2451C49.2471 75.6681 46.3622 78.2373 44.5506 81.5251V81.6081C44.0387 82.8982 43.0405 83.9365 41.7704 84.5001C41.2619 84.648 40.7449 84.7646 40.2221 84.8492C39.8891 84.8492 39.5728 84.9656 39.2565 85.0487C37.9839 85.3432 36.7866 85.8986 35.7405 86.6797C34.6944 87.4609 33.8224 88.4506 33.1799 89.5862C32.4574 90.8855 31.9992 92.3146 31.8314 93.7912L31.6816 94.8383L31.2154 93.8909C30.8827 93.0356 30.8827 92.0869 31.2154 91.2316L30.999 91.431L30.7326 91.6638C27.9365 94.1078 25.3626 96.7943 23.0411 99.6916C23.0411 99.8578 22.8746 100.024 22.8247 100.19C22.6582 100.833 22.5084 101.481 22.3752 102.135C22.358 102.378 22.358 102.623 22.3752 102.866C22.066 102.463 21.8985 101.969 21.8985 101.462C21.8985 100.954 22.066 100.46 22.3752 100.057C22.4983 99.8435 22.5722 99.605 22.5916 99.3591C22.5916 98.9769 22.5916 98.6444 22.2753 98.578C21.7975 98.4112 21.2887 98.3515 20.7852 98.4032C20.2816 98.4549 19.7957 98.6168 19.3619 98.8772C18.6966 99.3636 18.2115 100.056 17.9825 100.847C17.7536 101.638 17.7937 102.483 18.0966 103.248C18.3587 104.031 18.4991 104.85 18.5128 105.675C18.563 106.936 18.4961 108.199 18.313 109.448C18.2085 109.981 18.2307 110.532 18.378 111.055C18.5253 111.578 18.7935 112.06 19.1611 112.461C19.5287 112.862 19.9854 113.171 20.4944 113.364C21.0035 113.556 21.5508 113.627 22.0922 113.57C22.4119 113.513 22.7208 113.406 23.0078 113.254C22.8413 112.955 22.7415 112.556 22.4751 112.357C22.202 112.216 21.9652 112.013 21.7831 111.766C21.6011 111.519 21.4787 111.232 21.4255 110.93C21.3723 110.628 21.3898 110.317 21.4766 110.023C21.5634 109.728 21.717 109.457 21.9257 109.232C23.526 107.035 24.5557 104.477 24.9224 101.786C24.9661 101.562 25.0508 101.348 25.1721 101.154H25.3719C25.3719 101.836 25.2886 102.517 25.2553 103.232L25.8713 102.534C27.5974 100.454 29.8024 98.8233 32.2975 97.7802C35.849 96.4861 39.0838 94.4521 41.787 91.8133C42.4015 91.1629 43.1857 90.6967 44.0512 90.4671C44.5892 90.3302 45.1049 90.1176 45.5828 89.8355C46.1655 89.5197 47.1477 88.8216 47.6971 88.4559C47.1451 88.5283 46.5891 88.5672 46.0323 88.5723L46.6317 88.1401C48.7548 87.9068 50.8374 87.3926 52.8248 86.611C56.3111 85.3416 59.3769 83.1324 61.6816 80.2286C62.0146 79.8131 62.2144 79.7965 62.564 80.1123C65.049 82.3079 67.8076 84.1738 70.7716 85.6636C71.6749 86.1948 72.6507 86.5923 73.6684 86.8437C75.1498 87.0188 76.5876 87.4579 77.9137 88.1401C78.3278 88.4134 78.7279 88.7074 79.1123 89.021C78.844 89.0441 78.5754 88.98 78.3465 88.8382C76.7673 87.9279 74.9758 87.4487 73.1523 87.4487C71.3287 87.4487 69.5373 87.9279 67.958 88.8382C67.2089 89.2371 66.5762 89.9019 65.8104 90.2343C62.8892 91.5007 59.7892 92.308 56.6206 92.6277C55.988 92.6277 55.6883 92.9435 55.8048 93.5086C55.9214 94.0737 56.221 95.0211 56.4208 95.7525C55.9186 95.3791 55.5503 94.8541 55.3704 94.2554C55.1904 93.6566 55.2085 93.016 55.4219 92.4283C54.6963 92.3726 53.968 92.4949 53.3006 92.7846C52.6332 93.0743 52.0469 93.5226 51.5928 94.0904C51.3529 94.3984 51.2291 94.7808 51.2432 95.1707C51.3431 96.3342 52.2255 96.9492 53.0579 97.614C53.6001 97.9948 54.0403 98.5028 54.3398 99.0933C54.7726 100.207 54.9225 101.437 55.322 102.567C55.8498 104.282 56.9039 105.788 58.3354 106.872C58.5071 107.057 58.741 107.173 58.9926 107.197C59.2442 107.222 59.4961 107.153 59.7005 107.005C60.1667 106.656 60.5995 106.19 60.3664 105.542C60.1759 105.078 59.924 104.642 59.6173 104.246C59.3682 103.981 59.1785 103.666 59.0608 103.322C58.9431 102.978 58.9001 102.613 58.9347 102.251C59.1345 100.955 59.251 99.6417 59.4841 98.3619C59.6173 97.5143 59.867 96.6999 60.8159 96.3342C61.6242 96.0452 62.4615 95.8445 63.3132 95.7358C66.1434 95.4533 68.9902 95.2538 71.8371 94.9713C73.1856 94.8383 74.5174 94.589 75.8493 94.3895C72.8033 94.2982 69.7769 93.869 66.826 93.1098C67.1124 93.0604 67.4052 93.0604 67.6917 93.1098C69.2399 93.276 70.7882 93.5086 72.3532 93.6084C74.7736 93.8897 77.2256 93.7092 79.5785 93.0765C80.5926 92.8526 81.4796 92.2433 82.0515 91.3777C82.6233 90.512 82.835 89.4581 82.6418 88.4393C82.6418 88.0404 82.4919 87.6581 82.4253 87.2592C82.7072 87.785 82.8804 88.3619 82.9347 88.9558C82.989 89.5496 82.9234 90.1483 82.7416 90.7164C83.1312 89.9696 83.3346 89.14 83.3346 88.298C83.3346 87.456 83.1312 86.6265 82.7416 85.8797L82.2422 84.9656C81.1075 81.2211 78.7667 77.9551 75.5829 75.6745C74.7353 75.1598 73.948 74.5521 73.2355 73.8628C71.6709 71.9512 69.5736 70.5457 67.2089 69.824L67.7416 69.4251C69.0644 69.8269 70.3209 70.4205 71.4708 71.1869C70.9108 70.0954 70.1214 69.1373 69.1567 68.378L69.4564 68.1453C69.4564 68.1453 69.6562 68.245 69.7394 68.3115C70.5219 68.8932 71.2044 69.6412 71.9203 70.2894C71.6714 69.227 71.1687 68.2404 70.4553 67.414L70.8548 67.1148C71.6597 68.006 72.2618 69.0607 72.6195 70.2063C72.8952 68.8311 72.768 67.4058 72.2533 66.101L72.503 65.9181V66.0511C73.1305 67.4192 73.4107 68.9205 73.3188 70.4224C74.6791 68.4787 75.3633 66.1432 75.2666 63.7741L75.5496 63.5746C75.7661 64.5489 75.7661 65.5587 75.5496 66.5331C75.2056 67.8317 74.7831 69.1083 74.2843 70.3559L78.9958 68.7769C79.7254 68.5892 80.4339 68.3275 81.1101 67.9957C82.4387 67.1573 83.9217 66.5922 85.472 66.3336C88.8016 65.7353 90.4664 65.5857 91.9481 62.6272C92.1312 62.2782 92.331 61.9291 92.5308 61.5801C92.5308 61.5801 92.5308 62.3114 91.8982 63.3585C91.7025 63.6579 91.6309 64.0213 91.6984 64.3724C92.2236 66.1374 93.2328 67.7206 94.6118 68.9431C95.5882 69.8537 96.3159 70.9978 96.7262 72.2673C96.8315 72.6 97.0061 72.9067 97.2385 73.1674C97.4709 73.428 97.7558 73.6367 98.0747 73.7798C98.3743 73.9127 98.7239 73.8961 99.007 74.0291C99.8727 74.4612 100.139 74.428 100.772 73.7299C103.191 71.1492 104.82 67.931 105.466 64.4555C105.6 63.7241 105.749 62.9929 105.883 62.2616H106.049C106.049 62.6771 105.749 63.9236 105.783 64.256C106.279 63.0875 107.085 62.0762 108.114 61.3308C109.778 60.4333 109.778 58.7712 111.094 57.5413C111.776 57.0592 111.959 56.8431 111.926 56.7767C111.926 56.411 111.526 56.6105 111.193 56.7767C110.86 56.9429 110.761 57.0759 110.744 57.0094C111.238 56.4361 111.694 55.8309 112.109 55.1977C112.342 54.8985 112.242 54.4498 111.726 54.8653C111.576 55.0149 110.627 56.4443 110.528 56.3778C110.744 55.6465 112.192 53.2198 111.809 53.1533C111.427 53.0869 110.994 53.8182 110.577 54.616C110.161 55.4138 109.878 56.1119 109.895 56.0786C110.195 54.134 109.895 52.7545 109.629 52.7545C109.362 52.7545 109.395 54.2836 109.246 54.9318C109.072 55.5965 108.832 56.2424 108.53 56.8598C108.465 56.9225 108.385 56.9675 108.297 56.9908C108.21 57.014 108.118 57.0147 108.03 56.9927C107.897 56.8764 107.764 56.5772 107.831 56.4443C107.993 56.0786 108.206 55.7373 108.463 55.4304C108.612 55.2631 108.694 55.0473 108.694 54.8237C108.694 54.6002 108.612 54.3843 108.463 54.2171C106.798 55.0481 104.817 58.7712 105.417 60.184C105.821 60.0616 106.243 60.011 106.665 60.0344C106.232 60.2172 105.783 60.3834 105.367 60.5995C105.019 60.7486 104.707 60.9695 104.451 61.2477C103.219 62.9097 102.087 64.5718 100.855 66.2339C99.6229 67.896 98.2078 68.7603 98.3244 70.8379C98.1784 70.5209 98.1153 70.172 98.1413 69.824C98.3077 68.9099 98.5075 67.9957 98.7406 67.0982C98.9302 66.5105 98.9867 65.888 98.9061 65.2757C98.8255 64.6635 98.6097 64.0769 98.2744 63.558C97.7228 62.565 96.8208 61.8125 95.7439 61.4471C95.7439 61.4471 95.4276 61.3474 95.4442 61.2809C96.0382 61.4158 96.6024 61.658 97.1091 61.9956C97.2732 61.48 97.2438 60.9225 97.0262 60.427C96.8087 59.9315 96.418 59.532 95.927 59.3031C95.6488 59.1329 95.4148 58.8994 95.2445 58.6216C94.8616 58.0565 94.5452 57.4415 94.2456 56.9595C94.9448 56.9595 95.2778 57.2753 95.5941 58.3058C95.624 58.4833 95.7015 58.6493 95.8183 58.7864C95.9351 58.9235 96.0869 59.0265 96.2576 59.0844C96.4282 59.1423 96.6114 59.1531 96.7877 59.1155C96.964 59.0779 97.1268 58.9934 97.2589 58.8709C97.4253 58.7669 97.5977 58.6725 97.775 58.5883L98.3577 58.1728C98.4847 58.1118 98.6189 58.0671 98.7572 58.0399C98.9404 58.0399 99.1235 57.8903 99.3066 57.8404C99.4898 57.7906 99.7228 57.6908 99.8394 57.8404C100.589 58.3224 100.555 57.7407 100.722 57.2753C100.964 56.554 101.276 55.8582 101.654 55.1977C102.17 54.3667 102.769 53.5356 103.319 52.8375C103.472 52.6023 103.701 52.4263 103.968 52.3389C104.075 52.3383 104.181 52.3142 104.278 52.2683C104.374 52.2225 104.46 52.1561 104.528 52.0737C104.596 51.9912 104.646 51.8949 104.673 51.7914C104.7 51.6879 104.703 51.5798 104.684 51.4746C104.708 49.5431 103.98 47.6777 102.653 46.2723C101.903 45.4098 100.921 44.7809 99.8227 44.4606C100.272 44.8263 100.772 45.1255 101.188 45.4912C101.603 45.8861 101.998 46.3022 102.37 46.7377L102.237 46.9372C101.541 46.1776 100.651 45.6216 99.6625 45.3288C98.6741 45.0359 97.6245 45.0174 96.6263 45.2751C95.6457 45.5164 94.7428 46.0031 94.0029 46.6894C93.2631 47.3757 92.7106 48.2389 92.3976 49.1976C92.6314 48.0349 93.1952 46.964 94.0217 46.1123C94.8482 45.2607 95.9025 44.6643 97.0591 44.3942C96.2083 44.3395 95.3568 44.4907 94.5771 44.8351C93.7974 45.1794 93.1125 45.7067 92.5807 46.3721C91.9705 46.947 91.5485 47.6928 91.3702 48.5114C91.192 49.33 91.2657 50.1833 91.5818 50.9594C91.8493 51.5646 91.9757 52.2225 91.9515 52.8835C91.9273 53.5445 91.7532 54.1914 91.4423 54.7755C91.1313 55.3596 90.6916 55.8656 90.1563 56.2554C89.6211 56.6453 89.0042 56.9087 88.3521 57.026C88.1536 57.0125 87.9578 56.9735 87.7694 56.9097C88.3022 56.6936 88.6518 56.5606 88.9847 56.3944C89.6572 56.0661 90.2232 55.5551 90.6179 54.92C91.0125 54.285 91.2197 53.5516 91.2156 52.8043C91.2313 52.1225 91.0556 51.4498 90.7084 50.8624C90.3613 50.275 89.8565 49.7962 89.2511 49.4802C87.9125 48.7274 86.3913 48.3592 84.856 48.4164C86.0609 48.0539 87.3382 48.0025 88.5685 48.2668C87.9692 47.12 82.3088 40.1725 78.8626 39.491C78.1224 39.3451 77.3696 39.2727 76.6151 39.275C75.1645 39.3013 73.7223 39.5022 72.3199 39.8733" fill="white"/>
<path d="M0 94.2898L25.6216 95.6028C27.2864 93.9408 28.7348 92.5114 29.8003 91.5474L0 94.2898Z" fill="white"/>
<path d="M0 83.7692L37.1089 85.0988C37.7406 84.81 38.3984 84.5818 39.0734 84.4174C39.4063 84.3343 39.7559 84.2678 40.0889 84.2179C40.5783 84.138 41.0621 84.0269 41.5373 83.8855C42.6516 83.3657 43.5222 82.437 43.9679 81.2926V81.2096C44.0678 81.0267 44.1844 80.8937 44.2842 80.7275L0 83.7692Z" fill="white"/>
<path d="M0 88.9878L32.3308 89.8022C32.4307 89.6194 32.514 89.4199 32.6138 89.2537C33.4364 87.8563 34.5771 86.672 35.9435 85.7966L0 88.9878Z" fill="white"/>
<path d="M87.0867 9.76624e-05L26.7702 5.25225C23.6746 5.63437 20.8266 7.13593 18.765 9.47283C16.7035 11.8097 15.5712 14.8199 15.5826 17.9339V50.5439C15.8794 50.6022 16.1848 50.6022 16.4816 50.5439C16.7935 50.4691 17.1187 50.4691 17.4306 50.5439V17.9339C17.4081 15.2711 18.3625 12.6922 20.1137 10.6836C21.8649 8.67499 24.2918 7.37564 26.9367 7.03069L87.2532 1.77851C87.6083 1.77851 87.9579 1.77851 88.302 1.77851C90.9294 1.75691 93.4725 2.70382 95.4441 4.43785C96.5145 5.39325 97.366 6.56776 97.9406 7.88141C98.5152 9.19506 98.7993 10.6169 98.7737 12.0502V39.6241C99.4055 39.3898 100.023 39.1179 100.622 38.8097V12.0502C100.637 10.3608 100.288 8.6881 99.5982 7.14527C98.9088 5.60245 97.8952 4.22563 96.6261 3.10818C94.3239 1.09339 91.3635 -0.0119629 88.302 9.76624e-05H87.0867Z" fill="white"/>
<path d="M98.8904 79.7966V126.983C98.9184 128.419 98.6354 129.844 98.0608 131.161C97.4861 132.478 96.6333 133.655 95.5608 134.612C94.447 135.584 93.1454 136.316 91.7365 136.765C90.3276 137.214 88.8413 137.369 87.3699 137.221L27.0534 131.969C24.41 131.621 21.9851 130.321 20.2346 128.313C18.484 126.305 17.5283 123.728 17.5472 121.066V115.232C17.2262 115.265 16.9026 115.265 16.5816 115.232C16.2884 115.199 15.9924 115.199 15.6993 115.232V121.066C15.6915 124.179 16.825 127.187 18.8859 129.524C20.9468 131.86 23.7927 133.362 26.8869 133.748L87.0868 139H88.3022C91.3637 139.012 94.3241 137.907 96.6263 135.892C97.8958 134.771 98.9095 133.391 99.5988 131.846C100.288 130.3 100.637 128.625 100.622 126.933V78.9324L98.8904 79.7966Z" fill="white"/>
</svg>
